<?xml version="1.0" standalone="no"?>
<!DOCTYPE svg PUBLIC "-//W3C//DTD SVG 1.1//EN" "http://www.w3.org/Graphics/SVG/1.1/DTD/svg11.dtd">
<svg xmlns="http://www.w3.org/2000/svg">
<defs >
<font id="FragmentMono" horiz-adv-x="618" ><font-face
    font-family="Fragment Mono"
    units-per-em="1000"
    panose-1="2 11 5 9 3 2 2 9 2 4"
    ascent="950"
    descent="-250"
    alphabetic="0" />
<glyph unicode=" " glyph-name="space" />
<glyph unicode="!" glyph-name="exclam" d="M357 699H448L380 381L315 198H275L289 381L357 699ZM222 111H332L308 0H198L222 111Z" />
<glyph unicode="&quot;" glyph-name="quotedbl" d="M475 548L507 699H609L577 548L516 390H468L475 548ZM419 548L451 699H553L521 548L460 390H412L419 548Z" />
<glyph unicode="#" glyph-name="numbersign" d="M37 0L113 195H18L33 265H141L208 436H97L112 506H235L311 699H387L311 506H466L542 699H618L542 506H638L623 436H515L448 265H559L544 195H420L344 0H268L344 195H189L113 0H37ZM217 265H372L439 436H284L217 265Z" />
<glyph unicode="$" glyph-name="dollar" d="M201 -97L222 2Q142 22 98 80T60 218H134Q132 163 156 124T236 69L291 327L272 335Q207 361 172 402T136 508Q136 568 165 612T247 680T368 704Q370 704 371 704L390 794H447L427 698Q500 682 538 629T580 501H506Q504
545 482 581T412 630L360 382L396 367Q463 340 496 299T530 195Q530 136 501 90T421 19T300 -7Q288 -7 277 -6L258 -97H201ZM287 411L307 403L356 636Q287 635 249 602T211 514Q211 477 228 453T287 411ZM370 296L344 307L291 60Q298 60 306 60Q383 60 419 95T455
184Q455 225 436 251T370 296Z" />
<glyph unicode="%" glyph-name="percent" d="M229 707Q266 707 296 690T343 642T361 574Q361 505 319 462T209 419Q172 419 142 436T95 484T77 552Q77 621 119 664T229 707ZM-18 0L592 699H673L63 0H-18ZM225 645Q186 645 165 620T143 556Q143 522 162 502T213
481Q252 481 273 506T295 570Q295 605 276 625T225 645ZM426 -8Q389 -8 359 9T312 57T294 125Q294 194 336 237T446 280Q483 280 513 263T560 215T578 147Q578 78 536 35T426 -8ZM430 54Q469 54 490 79T512 143Q512 178 493 198T442 218Q403 218 382 193T360 129Q360
95 379 75T430 54Z" />
<glyph unicode="&amp;" glyph-name="ampersand" d="M462 0L427 63Q389 27 343 7T247 -13Q192 -13 145 7T68 71T38 181Q38 261 80 314T190 397L234 416L227 428Q211 457 201 485T191 550Q191 597 215 633T279 691T367 713Q436 713 477 677T519 579Q519 521 488
478T399 409L342 383L440 204Q466 260 475 332H551Q544 273 526 222T481 129L552 0H462ZM299 461L309 442L369 469Q412 488 428 515T444 574Q444 606 424 624T365 643Q323 643 297 618T271 552Q271 530 279 506T299 461ZM119 186Q119 128 156 97T250 65Q333 65
391 129L266 357L222 338Q181 320 150 282T119 186Z" />
<glyph unicode="&apos;" glyph-name="quotesingle" d="M319 548L351 699H453L421 548L360 390H312L319 548Z" />
<glyph unicode="(" glyph-name="parenleft" d="M480 779H577Q442 680 378 542T313 236Q313 149 332 70T394 -80H315Q276 -14 255 66T233 237Q233 349 261 451T345 637T480 779Z" />
<glyph unicode=")" glyph-name="parenright" d="M175 -80H78Q213 19 277 158T342 463Q342 550 323 629T261 779H340Q379 713 400 634T422 462Q422 351 394 249T310 62T175 -80Z" />
<glyph unicode="*" glyph-name="asterisk" d="M477 161L403 115L319 296L162 115L97 171L268 345L70 398L107 477L305 408L342 626H430L376 404L594 483L610 400L379 332L477 161Z" />
<glyph unicode="+" glyph-name="plus" d="M364 357H571L556 287H349L305 80H235L279 287H72L87 357H294L338 564H408L364 357Z" />
<glyph unicode="," glyph-name="comma" d="M185 0L214 136H350L308 -65Q298 -111 264 -138T171 -165H140L151 -114H176Q241 -114 253 -58L265 0H185Z" />
<glyph unicode="-" glyph-name="hyphen" d="M140 358H518L503 286H125L140 358Z" />
<glyph unicode="." glyph-name="period" d="M214 136H350L321 0H185L214 136Z" />
<glyph unicode="/" glyph-name="slash" d="M25 -80L545 794H633L113 -80H25Z" />
<glyph unicode="0" glyph-name="zero" d="M379 715Q457 715 500 680T559 586T573 455T553 309Q520 155 452 69T276 -18Q198 -18 155 17T96 111T83 242T102 388Q134 543 203 629T379 715ZM377 639Q305 639 257 570T180 368Q169 315 163 256T168 148L461 603Q448
620 427 629T377 639ZM475 329Q486 378 492 433T490 534L202 85Q215 72 234 65T278 58Q350 58 398 127T475 329Z" />
<glyph unicode="1" glyph-name="one" d="M247 0L355 507H168L182 573Q245 576 283 582T346 602T386 641T420 707H486L335 0H247Z" />
<glyph unicode="2" glyph-name="two" d="M503 77L487 0H28Q39 58 54 102T93 180T157 243T256 303L369 359Q424 386 454 412T496 467T509 532Q509 580 476 609T391 638Q321 638 279 597T220 488H130Q150 592 215 653T401 715Q460 715 504 691T572 625T597 533Q597
472 573 427T506 349T409 290L288 232Q222 200 185 161T135 77H503Z" />
<glyph unicode="3" glyph-name="three" d="M325 331H276L292 406Q348 402 394 414T467 458T495 546Q495 592 463 615T381 638Q311 638 276 605T222 508H132Q150 605 216 660T391 715Q448 715 491 694T558 636T582 549Q582 505 564 467T514 402T443 366Q486 347
509 306T533 217Q533 151 501 98T411 14T279 -18Q165 -18 105 45T60 223H146Q142 177 152 140T194 81T284 59Q366 59 406 104T446 222Q446 271 416 301T325 331Z" />
<glyph unicode="4" glyph-name="four" d="M309 0L347 178H45L64 268L451 705H544L448 254H553L537 178H432L394 0H309ZM363 254L435 591L138 254H363Z" />
<glyph unicode="5" glyph-name="five" d="M225 699H598L582 622H285L217 415Q248 440 280 452T360 464Q405 464 445 445T512 384T538 278Q538 189 505 123T412 19T270 -18Q204 -18 155 9T79 83T57 190H145Q144 123 180 91T278 59Q330 59 368 86T428 162T450 273Q450
390 329 390Q289 390 252 373T182 320H102L225 699Z" />
<glyph unicode="6" glyph-name="six" d="M602 522H517Q517 578 489 609T406 641Q326 641 272 575T189 365Q226 409 267 429T357 449Q414 449 456 425T521 357T545 255Q545 178 512 116T422 18T292 -18Q192 -18 141 46T89 226Q89 293 106 375Q144 549 218 632T413
715Q500 715 553 665T602 522ZM341 375Q292 375 255 352T196 289T175 194Q175 133 206 95T294 56Q340 56 376 81T434 150T456 247Q456 306 425 340T341 375Z" />
<glyph unicode="7" glyph-name="seven" d="M165 699H639L623 625Q527 533 449 435T319 229T245 0H146Q183 140 239 250T368 451T533 622H149L165 699Z" />
<glyph unicode="8" glyph-name="eight" d="M533 210Q533 143 500 92T408 11T274 -18Q209 -18 160 10T85 84T58 184Q58 236 80 278T142 348T231 386Q190 412 172 446T153 527Q153 590 184 631T269 694T384 715Q441 715 485 692T554 629T579 538Q579 475 538 430T436
363Q477 343 505 303T533 210ZM376 640Q318 640 277 610T235 517Q235 474 267 444T355 413Q413 413 454 443T496 536Q496 579 464 609T376 640ZM299 337Q256 337 220 319T162 268T140 189Q140 127 182 92T292 57Q335 57 371 75T428 126T450 204Q450 267 409 302T299
337Z" />
<glyph unicode="9" glyph-name="nine" d="M53 175H138Q138 120 166 88T249 56Q329 56 383 122T466 332Q429 288 388 268T298 248Q242 248 200 272T134 340T110 442Q110 520 143 581T234 679T363 715Q464 715 515 651T566 471Q566 404 549 322Q512 148 438 65T242
-18Q155 -18 102 32T53 175ZM314 322Q363 322 400 345T459 409T480 503Q480 564 449 602T361 641Q315 641 279 616T221 548T199 450Q199 392 230 357T314 322Z" />
<glyph unicode=":" glyph-name="colon" d="M404 388H268L297 524H433L404 388ZM214 136H350L321 0H185L214 136Z" />
<glyph unicode=";" glyph-name="semicolon" d="M404 388H268L297 524H433L404 388ZM185 0L214 136H350L308 -65Q298 -111 264 -138T171 -165H140L151 -114H176Q241 -114 253 -58L265 0H185Z" />
<glyph unicode="&lt;" glyph-name="less" d="M481 41L93 278L112 367L600 604L580 511L174 318L498 124L481 41Z" />
<glyph unicode="=" glyph-name="equal" d="M124 484H588L573 414H109L124 484ZM71 232H535L520 162H56L71 232Z" />
<glyph unicode="&gt;" glyph-name="greater" d="M163 604L551 367L532 278L44 41L64 134L470 327L146 521L163 604Z" />
<glyph unicode="?" glyph-name="question" d="M340 246L330 199H241L254 264Q262 305 289 340T356 396L408 423Q449 444 473 470T497 546Q497 582 472 607T389 633Q246 633 226 506H141Q151 604 217 657T391 711Q455 711 498 689T563 630T585 547Q585 485 552
442T470 372L423 347Q385 327 366 303T340 246ZM213 111H323L299 0H189L213 111Z" />
<glyph unicode="@" glyph-name="at" d="M451 51Q388 51 378 126Q361 89 335 70T285 51Q234 51 203 100T172 234Q172 316 196 377T258 473T339 507Q372 507 391 485T416 434L428 490H488L428 167Q424 142 432 126T457 109Q475 109 494 134T529 201T556 298T567
410Q567 487 544 540T480 621T388 649Q322 649 272 620T187 542T130 435T98 316T88 203Q88 116 117 53T197 -46T314 -81Q343 -81 369 -77T426 -63L437 -118Q405 -131 376 -136T308 -142Q228 -142 163 -101T61 17T23 200Q23 267 36 338T76 476T147 596T252 680T395
711Q464 711 517 677T600 576T631 417Q631 343 617 277T578 160T521 80T451 51ZM336 442Q310 442 288 416T253 342T239 233Q239 176 253 147T299 117Q322 117 336 133T364 181Q371 199 377 228T388 290T392 348Q392 393 377 417T336 442Z" />
<glyph unicode="A" glyph-name="A" d="M441 0L423 209H181L75 0H-26L343 699H460L532 0H441ZM221 287H416L388 616L221 287Z" />
<glyph unicode="B" glyph-name="B" d="M341 0H36L185 699H417Q473 699 516 679T583 622T608 536Q608 469 573 420T476 354Q523 335 543 297T563 215Q563 153 534 105T455 28T341 0ZM394 620H259L212 399H371Q440 399 477 432T515 527Q515 571 486 595T394 620ZM362
320H196L144 79H322Q393 79 431 118T470 220Q470 270 442 295T362 320Z" />
<glyph unicode="C" glyph-name="C" d="M537 492Q531 559 501 596T405 633Q351 633 307 604T230 522T181 400T163 250Q163 156 203 110T313 64Q375 64 418 110T487 232H584Q550 109 476 46T301 -18Q195 -18 132 50T68 247Q68 348 92 433T160 582T266 680T405 715Q515
715 568 656T629 492H537Z" />
<glyph unicode="D" glyph-name="D" d="M262 0H20L169 699H348Q461 699 527 628T594 420Q594 329 569 252T500 119T395 31T262 0ZM264 82Q315 82 357 108T432 180T481 287T499 417Q499 617 336 617H244L131 82H264Z" />
<glyph unicode="E" glyph-name="E" d="M518 317H218L168 82H501L483 0H57L206 699H614L596 617H281L235 399H535L518 317Z" />
<glyph unicode="F" glyph-name="F" d="M516 317H226L158 0H65L214 699H645L627 617H289L243 399H533L516 317Z" />
<glyph unicode="G" glyph-name="G" d="M442 0L453 73Q429 32 384 7T281 -18Q216 -18 166 12T87 102T58 247Q58 348 82 433T151 582T258 680T397 715Q507 715 558 657T616 496H524Q520 561 490 597T392 633Q339 633 295 604T219 522T170 400T153 250Q153 156 193
110T303 64Q368 64 414 104T476 222L490 288H334L351 370H589L510 0H442Z" />
<glyph unicode="H" glyph-name="H" d="M391 0L459 317H184L116 0H23L172 699H265L201 399H476L540 699H633L484 0H391Z" />
<glyph unicode="I" glyph-name="I" d="M58 0L75 78H223L338 621H190L207 699H598L581 621H432L317 78H466L449 0H58Z" />
<glyph unicode="J" glyph-name="J" d="M424 208L528 699H621L512 184Q492 87 433 35T277 -18Q205 -18 152 9T76 91T72 229L76 246H171L163 209Q149 143 179 102T277 60Q341 60 374 96T424 208Z" />
<glyph unicode="K" glyph-name="K" d="M136 0H43L192 699H285L218 386L562 699H681L360 402L552 0H451L290 346L190 253L136 0Z" />
<glyph unicode="L" glyph-name="L" d="M217 699H310L179 82H512L494 0H68L217 699Z" />
<glyph unicode="M" glyph-name="M" d="M258 200L207 563L87 0H8L157 699H261L314 296L545 699H647L498 0H419L535 542L336 200H258Z" />
<glyph unicode="N" glyph-name="N" d="M549 699H635L486 0H378L230 581H229L106 0H20L169 699H274L424 114H425L549 699Z" />
<glyph unicode="O" glyph-name="O" d="M374 715Q484 715 545 647T607 450Q607 349 584 264T517 115T414 17T281 -18Q171 -18 110 50T48 247Q48 348 71 433T138 582T241 680T374 715ZM372 633Q322 633 280 604T208 522T160 400T143 250Q143 159 181 112T283 64Q333
64 375 93T447 175T495 297T512 447Q512 539 475 586T372 633Z" />
<glyph unicode="P" glyph-name="P" d="M35 0L184 699H414Q509 699 564 647T619 509Q619 443 590 392T507 311T382 281H188L128 0H35ZM398 620H260L204 360H366Q440 360 483 399T526 508Q526 620 398 620Z" />
<glyph unicode="Q" glyph-name="Q" d="M434 -89L386 3Q337 -18 281 -18Q171 -18 110 50T48 247Q48 348 71 433T138 582T241 680T374 715Q484 715 545 647T607 450Q607 315 566 208T451 43L501 -55L434 -89ZM372 633Q322 633 280 604T208 522T160 400T143 250Q143
159 181 112T283 64Q317 64 348 78L280 211L347 245L409 124Q457 174 484 259T512 447Q512 539 475 586T372 633Z" />
<glyph unicode="R" glyph-name="R" d="M351 287H192L131 0H38L187 699H411Q502 699 557 653T612 521Q612 475 595 434T548 363T475 321Q505 308 519 280T528 209L517 125Q510 73 518 52T535 23V0H440Q430 23 426 51T426 111L439 198Q445 239 421 263T351 287ZM386
620H263L209 366H372Q434 366 475 406T517 513Q517 620 386 620Z" />
<glyph unicode="S" glyph-name="S" d="M612 494H524Q525 556 491 596T377 636Q305 636 265 604T225 525Q225 482 250 459T322 418L403 386Q480 355 521 311T562 199Q562 130 529 82T437 8T305 -18Q219 -18 157 11T66 95T49 227H137Q127 154 172 110T307 65Q386
65 428 99T470 186Q470 233 446 258T372 303L287 336Q215 364 174 404T133 516Q133 575 164 619T251 689T382 715Q498 715 557 654T612 494Z" />
<glyph unicode="T" glyph-name="T" d="M640 617H431L300 0H207L338 617H128L146 699H658L640 617Z" />
<glyph unicode="U" glyph-name="U" d="M450 219L552 699H645L540 206Q516 94 452 38T278 -18Q199 -18 145 15T68 109T64 255L159 699H252L154 239Q136 155 171 110T286 64Q357 64 395 101T450 219Z" />
<glyph unicode="V" glyph-name="V" d="M681 699L307 0H199L123 699H215L269 96L579 699H681Z" />
<glyph unicode="W" glyph-name="W" d="M688 699L440 0H339L384 620H383L167 0H66L116 699H200L148 139H149L340 699H459L411 135H412L605 699H688Z" />
<glyph unicode="X" glyph-name="X" d="M440 0L320 285L83 0H-31L281 365L134 699H231L342 436L561 699H674L382 357L537 0H440Z" />
<glyph unicode="Y" glyph-name="Y" d="M690 699L362 274L303 0H210L269 274L114 699H209L327 363L584 699H690Z" />
<glyph unicode="Z" glyph-name="Z" d="M14 0L32 82L496 617H160L178 699H628L610 615L150 82H502L484 0H14Z" />
<glyph unicode="[" glyph-name="bracketleft" d="M356 779H562L548 713H414L259 -14H393L379 -80H173L356 779Z" />
<glyph unicode="\" glyph-name="backslash" d="M447 -80H369L211 794H289L447 -80Z" />
<glyph unicode="]" glyph-name="bracketright" d="M299 -80H93L107 -14H241L396 713H262L276 779H482L299 -80Z" />
<glyph unicode="^" glyph-name="asciicircum" d="M86 319L349 699H456L557 319H473L393 629L179 319H86Z" />
<glyph unicode="_" glyph-name="underscore" d="M-87 -146H531L516 -218H-102L-87 -146Z" />
<glyph unicode="`" glyph-name="grave" d="M251 740H350L429 592H371L251 740Z" />
<glyph unicode="a" glyph-name="a" d="M524 51L511 -11Q502 -13 493 -14T475 -16Q443 -16 420 2T392 61Q361 24 318 3T224 -18Q149 -18 102 26T55 139Q55 213 100 257T230 306Q253 308 277 309T346 314Q399 319 420 331T449 374Q458 417 429 439T340 462Q275 462
247 442T204 378H117Q134 464 194 501T344 539Q406 539 452 521T520 464T528 366L473 108Q466 77 478 63T524 51ZM412 202L426 269Q387 249 325 244L268 240Q231 238 202 229T155 200T138 143Q138 103 166 79T243 55Q308 55 353 96T412 202Z" />
<glyph unicode="b" glyph-name="b" d="M571 307Q571 238 551 179T495 76T412 7T311 -18Q249 -18 198 14T128 103L106 0H31L186 729H269L211 458Q242 496 282 518T372 540Q465 540 518 479T571 307ZM357 464Q305 464 262 431T192 341T166 214Q166 134 205 96T302
58Q355 58 396 90T462 178T486 310Q486 387 451 425T357 464Z" />
<glyph unicode="c" glyph-name="c" d="M526 183Q507 115 469 71T383 4T281 -18Q208 -18 160 13T88 97T64 214Q64 308 101 381T204 497T352 540Q405 540 448 521T518 460T550 351H467Q463 410 431 437T348 464Q290 464 245 431T175 340T149 210Q149 145 182 102T283
58Q330 58 374 84T440 183H526Z" />
<glyph unicode="d" glyph-name="d" d="M401 0L416 68Q383 29 340 6T250 -18Q160 -18 104 45T47 221Q47 290 68 348T126 449T211 516T313 540Q374 540 420 511T484 428L547 729H630L475 0H401ZM269 58Q322 58 363 92T427 182T451 305Q451 391 412 427T315 464Q263
464 222 431T156 341T132 208Q132 132 171 95T269 58Z" />
<glyph unicode="e" glyph-name="e" d="M523 162Q493 72 426 27T277 -18Q212 -18 164 10T90 90T64 209Q64 305 100 380T199 497T345 540Q403 540 448 515T520 443T546 329Q546 304 544 282T537 237H148Q147 222 147 207Q147 139 182 99T287 58Q337 58 375 83T435
162H523ZM341 464Q272 464 226 420T160 305H462Q466 378 435 421T341 464Z" />
<glyph unicode="f" glyph-name="f" d="M403 524H605L590 456H388L291 0H208L305 456H130L145 524H320L335 595Q350 667 405 703T544 739Q572 739 596 737T647 727L632 658Q593 666 543 666Q494 666 461 648T416 581L403 524Z" />
<glyph unicode="g" glyph-name="g" d="M224 -218Q125 -218 66 -173T4 -50H86Q104 -148 230 -148Q299 -148 337 -114T389 -14L404 58Q372 23 333 3T250 -18Q160 -18 104 45T47 221Q47 290 68 348T126 449T211 516T313 540Q379 540 427 507T490 418L513 524H587L477
6Q452 -109 394 -163T224 -218ZM269 58Q322 58 363 92T427 182T451 305Q451 391 412 427T315 464Q263 464 222 431T156 341T132 208Q132 132 171 95T269 58Z" />
<glyph unicode="h" glyph-name="h" d="M45 0L201 729H283L221 438Q257 483 302 511T409 539Q483 539 520 495T542 376L462 0H379L456 363Q467 413 448 439T381 466Q333 466 293 440T227 375T191 295L128 0H45Z" />
<glyph unicode="i" glyph-name="i" d="M340 599L361 699H461L440 599H340ZM415 524L318 68H479L464 0H41L56 68H236L318 456H138L153 524H415Z" />
<glyph unicode="j" glyph-name="j" d="M396 599L417 699H517L496 599H396ZM269 -37L373 456H168L183 524H471L347 -59Q330 -141 277 -179T136 -218Q99 -218 67 -213T5 -195L19 -125Q46 -134 73 -139T133 -144Q195 -144 226 -118T269 -37Z" />
<glyph unicode="k" glyph-name="k" d="M163 0H81L236 729H318L226 295L500 524H615L381 327L520 0H432L315 281L203 189L163 0Z" />
<glyph unicode="l" glyph-name="l" d="M478 729L338 68H499L484 0H61L76 68H257L383 661H202L216 729H478Z" />
<glyph unicode="m" glyph-name="m" d="M-17 0L95 524H173L160 463Q179 493 210 514T285 536Q322 536 347 516T381 460Q401 491 433 513T511 536Q563 536 592 497T608 397L523 0H441L524 390Q532 427 520 446T480 466Q442 466 413 443T375 378L294 0H212L295 390Q303
427 291 446T251 466Q213 466 184 443T146 378L65 0H-17Z" />
<glyph unicode="n" glyph-name="n" d="M45 0L157 524H234L213 428Q250 477 297 508T409 539Q483 539 520 495T542 376L462 0H379L456 363Q467 413 448 439T381 466Q333 466 293 440T227 375T191 295L128 0H45Z" />
<glyph unicode="o" glyph-name="o" d="M341 540Q440 540 498 478T556 303Q556 237 536 179T478 76T390 7T279 -18Q180 -18 122 44T64 219Q64 285 84 343T142 446T230 515T341 540ZM471 309Q471 389 433 426T336 464Q283 464 241 430T174 339T149 213Q149 134 187
96T283 58Q337 58 379 92T446 183T471 309Z" />
<glyph unicode="p" glyph-name="p" d="M311 -18Q253 -18 205 11T135 95L69 -218H-15L143 524H220L205 454Q237 494 278 517T372 540Q465 540 518 479T571 307Q571 238 551 179T495 76T412 7T311 -18ZM357 464Q305 464 262 431T192 341T166 214Q166 134 205 96T302
58Q355 58 396 90T462 178T486 310Q486 387 451 425T357 464Z" />
<glyph unicode="q" glyph-name="q" d="M587 524L429 -218H346L404 58Q372 23 333 3T250 -18Q160 -18 104 45T47 221Q47 290 68 348T126 449T211 516T313 540Q379 540 427 507T490 418L513 524H587ZM269 58Q322 58 363 92T427 182T451 305Q451 391 412 427T315
464Q263 464 222 431T156 341T132 208Q132 132 171 95T269 58Z" />
<glyph unicode="r" glyph-name="r" d="M68 0L180 524H257L232 405Q261 460 316 499T440 539Q523 539 566 491T606 366H523Q522 418 494 442T420 466Q374 466 330 440T253 365T204 244L152 0H68Z" />
<glyph unicode="s" glyph-name="s" d="M530 364H444Q437 415 408 440T326 466Q273 466 247 445T220 389Q220 364 237 347T285 319L395 279Q448 260 473 228T498 147Q498 99 472 62T399 3T290 -18Q184 -18 125 36T65 179H151Q159 56 298 56Q352 56 383 80T414 141Q414
170 396 185T337 214L239 249Q136 285 136 382Q136 454 190 497T333 540Q421 540 473 492T530 364Z" />
<glyph unicode="t" glyph-name="t" d="M375 524H572L557 456H360L300 174Q288 118 314 90T407 61Q434 61 453 62T490 68L475 -5Q453 -10 433 -12T391 -14Q291 -14 245 37T218 179L277 456H120L135 524H292L322 668H405L375 524Z" />
<glyph unicode="u" glyph-name="u" d="M574 524L462 0H387L408 93Q362 32 314 7T209 -18Q164 -18 130 1T81 59T78 153L157 524H240L164 168Q151 107 172 81T237 55Q281 55 321 78T389 142T429 233L491 524H574Z" />
<glyph unicode="v" glyph-name="v" d="M603 524L299 0H207L127 524H209L270 99L511 524H603Z" />
<glyph unicode="w" glyph-name="w" d="M75 0L78 524H158L142 84H143L307 524H413L396 84H397L569 524H652L429 0H329L346 451H345L175 0H75Z" />
<glyph unicode="x" glyph-name="x" d="M394 0L301 201L128 0H25L267 275L147 524H233L322 334L487 524H588L359 259L481 0H394Z" />
<glyph unicode="y" glyph-name="y" d="M234 -110Q203 -162 163 -190T65 -218Q43 -218 24 -214T-13 -203L7 -129Q23 -134 37 -136T68 -138Q100 -138 121 -125T159 -85L208 -6L127 524H209L271 97L512 524H604L234 -110Z" />
<glyph unicode="z" glyph-name="z" d="M158 524H563L547 450L162 73H486L470 0H40L56 75L441 451H142L158 524Z" />
<glyph unicode="{" glyph-name="braceleft" d="M207 383Q248 383 271 403T302 463L345 668Q356 717 391 748T481 779H570L556 713H492Q429 713 418 657L374 449Q356 364 267 345Q309 331 322 302T326 222L290 52Q283 16 296 1T342 -14H401L387 -80H326Q263 -80
233 -41T217 64L252 226Q271 317 189 317H155L169 383H207Z" />
<glyph unicode="|" glyph-name="bar" d="M195 -80L378 779H460L277 -80H195Z" />
<glyph unicode="}" glyph-name="braceright" d="M441 316Q401 316 378 296T346 236L303 31Q293 -18 258 -49T167 -80H78L92 -14H156Q219 -14 230 42L274 250Q292 335 381 354Q339 368 326 397T322 477L358 647Q366 683 352 698T306 713H247L261 779H322Q385 779
415 740T431 635L396 473Q377 382 459 382H493L479 316H441Z" />
<glyph unicode="~" glyph-name="asciitilde" d="M403 252Q372 252 350 264T311 294T276 323T239 336Q214 336 198 319T170 264H103Q117 339 156 372T243 406Q274 406 296 394T335 364T370 335T407 322Q433 322 449 339T476 394H543Q529 319 490 286T403 252Z" />
<glyph unicode="&#xa0;" glyph-name="uni00A0" />
<glyph unicode="&#xa1;" glyph-name="exclamdown" d="M261 -175H170L238 143L303 326H343L329 143L261 -175ZM396 413H286L310 524H420L396 413Z" />
<glyph unicode="&#xa2;" glyph-name="cent" d="M213 -97L231 -12Q153 5 114 67T75 214Q75 307 111 380T208 495T348 540L365 619H422L404 535Q467 523 508 478T554 351H478Q473 400 451 426T389 461L303 57Q351 61 390 90T450 183H530Q512 118 475 73T388 5T287
-18L270 -97H213ZM154 213Q154 159 177 118T247 63L332 464Q280 459 240 425T177 336T154 213Z" />
<glyph unicode="&#xa3;" glyph-name="sterling" d="M114 358H189Q181 387 175 419T168 489Q168 560 201 610T289 688T412 715Q514 715 563 657T603 506H522Q527 565 500 602T406 640Q369 640 333 624T274 575T250 492Q250 460 257 427T271 358H442L428 291H280Q281
280 281 270Q281 209 251 158T161 72H521L505 0H38L54 74Q137 113 172 160T207 259Q207 274 204 291H100L114 358Z" />
<glyph unicode="&#xa4;" glyph-name="currency" d="M482 244L536 190L478 136L425 189Q385 159 325 159Q272 159 231 184L179 133L124 190L172 239Q140 283 140 341Q140 397 172 443L118 498L175 551L229 496Q273 522 325 522Q384 522 425 494L483 547L540 489L485
434Q511 393 511 341Q511 291 482 244ZM325 445Q281 445 250 414Q219 384 219 340Q219 297 250 267Q281 236 325 236Q370 236 401 267Q432 297 432 339Q432 384 401 414Q370 445 325 445Z" />
<glyph unicode="&#xa5;" glyph-name="yen" d="M321 128L293 0H219L247 128H70L84 194H261L276 266H99L113 332H268L114 699H198L331 375L593 699H690L388 332H534L520 266H350L335 194H505L491 128H321Z" />
<glyph unicode="&#xa6;" glyph-name="brokenbar" d="M287 437L359 779H441L369 437H287ZM331 262L259 -80H177L249 262H331Z" />
<glyph unicode="&#xa7;" glyph-name="section" d="M216 -227Q152 -227 111 -199T55 -124T50 -28H135Q129 -55 134 -83T160 -131T223 -150Q276 -150 303 -121T331 -43Q331 0 294 31L149 148Q120 172 104 204T87 279Q87 407 223 451Q200 488 200 539Q200 590 226
629T298 692T397 715Q449 715 489 693T549 628T555 528L551 510H468L473 540Q481 585 460 611T393 638Q353 638 330 624T298 588T288 542Q288 523 295 504T322 469L445 374Q527 311 527 231Q527 162 489 121T385 58Q400 41 409 18T419 -34Q419 -93 392 -136T318
-203T216 -227ZM206 215L349 91Q402 114 424 144T447 215Q447 264 400 302L256 417Q213 399 190 370T167 296Q167 277 175 256T206 215Z" />
<glyph unicode="&#xa8;" glyph-name="dieresis" d="M272 715H376L354 612H250L272 715ZM434 715H538L516 612H412L434 715Z" />
<glyph unicode="&#xa9;" glyph-name="copyright" d="M347 168Q271 168 211 203T115 300T80 438Q80 515 115 576T210 672T347 708Q424 708 484 673T579 576T614 438Q614 362 579 301T484 204T347 168ZM347 211Q411 211 461 241T541 322T571 438Q571 502 542 553T462
635T347 665Q283 665 233 635T153 554T123 438Q123 374 152 323T232 241T347 211ZM346 293Q284 293 253 335T221 438Q221 504 254 544T348 584Q393 584 426 559T463 479H404Q399 508 386 521T350 534Q312 534 296 505T280 437Q280 400 295 371T348 342Q398 342
404 401H464Q462 349 429 321T346 293Z" />
<glyph unicode="&#xaa;" glyph-name="ordfeminine" d="M500 411L492 369Q480 366 470 366Q449 366 433 376T412 410Q394 389 369 377T315 365Q269 365 240 392T211 462Q211 508 239 535T319 564Q333 566 347 566T390 569Q417 572 429 579T445 606Q456 656 386
656Q351 656 334 645T307 609H249Q260 662 297 685T389 708Q446 708 479 683T501 601L468 446Q464 424 472 419T500 411ZM423 500L431 538Q421 532 408 529T377 523L342 520Q308 517 289 505T269 464Q269 417 329 417Q369 417 392 438T423 500ZM184 320H461L450
269H173L184 320Z" />
<glyph unicode="&#xab;" glyph-name="guillemotleft" d="M245 74L67 239L87 335L335 500L314 398L133 280L264 162L245 74ZM506 74L328 239L348 335L596 500L575 398L394 280L525 162L506 74Z" />
<glyph unicode="&#xac;" glyph-name="logicalnot" d="M62 287L77 357H581L520 68H450L496 287H62Z" />
<glyph unicode="&#xae;" glyph-name="registered" d="M347 168Q271 168 211 203T115 300T80 438Q80 515 115 576T210 672T347 708Q424 708 484 673T579 576T614 438Q614 362 579 301T484 204T347 168ZM347 211Q411 211 461 241T541 322T571 438Q571 502 542 553T462
635T347 665Q283 665 233 635T153 554T123 438Q123 374 152 323T232 241T347 211ZM246 300V577H391Q430 577 448 556T467 502Q467 453 421 434Q439 427 447 418T457 391Q458 375 460 332Q461 317 472 310V300H415Q410 310 409 319T407 347V367Q407 375 407 384T401
399Q392 412 370 412H299V300H246ZM299 456H371Q394 456 404 464T415 495Q415 516 405 524T371 533H299V456Z" />
<glyph unicode="&#xaf;" glyph-name="overscore" d="M265 701H539L524 631H250L265 701Z" />
<glyph unicode="&#xb0;" glyph-name="degree" d="M368 359Q318 359 278 382T215 446T192 536Q192 586 215 625T278 688T368 712Q419 712 458 689T520 626T543 536Q543 486 521 446T459 383T368 359ZM368 421Q416 421 446 454T477 536Q477 584 447 617T368 650Q320
650 289 617T258 536Q258 487 289 454T368 421Z" />
<glyph unicode="&#xb1;" glyph-name="plusminus" d="M360 416H567L552 346H345L301 139H231L275 346H68L83 416H290L334 623H404L360 416ZM9 70H493L478 0H-6L9 70Z" />
<glyph unicode="&#xb2;" glyph-name="uni00B2" d="M158 274Q165 321 180 354T225 412T308 459L376 488Q414 504 436 524T459 584Q459 613 441 628T391 643Q351 643 330 622T300 560H229Q240 627 280 664T395 702Q456 702 492 670T529 585Q529 532 493 495T406
438L330 408Q303 398 281 380T250 338H477L464 274H158Z" />
<glyph unicode="&#xb3;" glyph-name="uni00B3" d="M331 260Q286 260 251 278T197 329T186 409H254Q248 368 270 344T334 320Q366 320 385 333T412 366T421 403Q421 443 391 455T317 465L329 519Q386 517 415 533T445 590Q445 615 429 629T383 643Q343 643 326
625T300 568H229Q250 702 389 702Q422 702 451 690T498 654T516 594Q516 551 493 524T435 487Q460 476 476 453T492 401Q492 359 471 327T413 278T331 260Z" />
<glyph unicode="&#xb4;" glyph-name="acute" d="M332 592L468 740H589L393 592H332Z" />
<glyph unicode="&#xb5;" glyph-name="uni00B5" d="M532 54L518 -9Q490 -18 473 -18Q433 -18 411 2T392 64Q361 23 319 3T230 -18Q198 -18 173 -11T127 14L78 -220H-5L153 524H236L162 178Q152 130 163 104T199 66T255 55Q309 55 355 92T420 214L486 524H569L477
93Q473 73 480 64T502 54T532 54Z" />
<glyph unicode="&#xb6;" glyph-name="paragraph" d="M378 699H649L635 635H578L426 -80H362L514 635H432L280 -80H216L282 229Q227 232 188 261T127 337T105 436Q105 514 138 573T233 665T378 699Z" />
<glyph unicode="&#xb7;" glyph-name="middot" d="M270 399H406L377 263H241L270 399Z" />
<glyph unicode="&#xb8;" glyph-name="cedilla" d="M207 -84L275 12H321L269 -62Q277 -61 285 -61Q308 -61 328 -77T348 -126Q348 -159 332 -178T293 -206T246 -214Q207 -214 187 -208T149 -192L170 -146Q184 -153 201 -158T238 -164Q258 -164 273 -156T289 -131Q289
-116 279 -110T252 -104Q238 -104 221 -110L207 -84Z" />
<glyph unicode="&#xb9;" glyph-name="uni00B9" d="M297 274L360 568H241L252 618Q309 620 338 627T383 652T410 699H459L368 274H297Z" />
<glyph unicode="&#xba;" glyph-name="ordmasculine" d="M386 709Q447 709 482 671T518 563Q518 508 496 464T436 392T348 365Q287 365 251 403T215 511Q215 566 237 610T298 682T386 709ZM460 565Q460 612 439 634T382 656Q351 656 327 636T288 583T274 508Q274
462 295 440T351 418Q383 418 407 438T446 491T460 565ZM190 320H453L442 269H179L190 320Z" />
<glyph unicode="&#xbb;" glyph-name="guillemotright" d="M384 500L562 335L542 239L294 74L315 176L496 294L365 412L384 500ZM123 500L301 335L281 239L33 74L54 176L235 294L104 412L123 500Z" />
<glyph unicode="&#xbc;" glyph-name="onequarter" d="M126 360L176 594H82L91 638Q139 639 163 645T200 665T220 700H265L192 360H126ZM-38 0L614 699H694L41 0H-38ZM424 1L441 78H295L306 132L490 341H563L518 131H561L550 78H507L490 1H424ZM364 131H452L480
264L364 131Z" />
<glyph unicode="&#xbd;" glyph-name="onehalf" d="M126 360L176 594H82L91 638Q139 639 163 645T200 665T220 700H265L192 360H126ZM-38 0L614 699H694L41 0H-38ZM289 1Q298 36 309 64T344 114T408 153L476 182Q502 193 513 208T525 250Q525 273 513 283T478 293Q447
293 429 276T406 229H342Q350 279 384 312T483 346Q531 346 560 320T589 253Q589 214 569 186T503 138L427 105Q405 95 395 84T379 59H548L535 1H289Z" />
<glyph unicode="&#xbe;" glyph-name="threequarters" d="M168 347Q113 347 79 379T51 467H112Q107 434 126 418T174 401Q236 401 236 464Q236 496 213 503T156 509L166 557Q215 556 235 569T255 609Q255 652 212 652Q187 652 172 639T148 595H85Q93 642 125 673T214
704Q261 704 290 681T320 613Q320 579 300 558T252 528Q272 519 286 501T300 458Q300 410 264 379T168 347ZM-38 0L614 699H694L41 0H-38ZM424 1L441 78H295L306 132L490 341H563L518 131H561L550 78H507L490 1H424ZM364 131H452L480 264L364 131Z" />
<glyph unicode="&#xbf;" glyph-name="questiondown" d="M278 278L288 325H377L364 260Q356 219 329 184T262 128L210 101Q170 80 146 54T121 -22Q121 -58 146 -83T229 -109Q372 -109 392 18H477Q467 -79 401 -133T227 -187Q164 -187 121 -165T55 -105T33 -23Q33
39 66 83T148 152L195 177Q233 197 252 221T278 278ZM405 413H295L319 524H429L405 413Z" />
<glyph unicode="&#xc0;" glyph-name="Agrave" d="M441 0L423 209H181L75 0H-26L343 699H460L532 0H441ZM221 287H416L388 616L221 287ZM285 915H384L463 767H405L285 915Z" />
<glyph unicode="&#xc1;" glyph-name="Aacute" d="M441 0L423 209H181L75 0H-26L343 699H460L532 0H441ZM221 287H416L388 616L221 287ZM366 767L502 915H623L427 767H366Z" />
<glyph unicode="&#xc2;" glyph-name="Acircumflex" d="M441 0L423 209H181L75 0H-26L343 699H460L532 0H441ZM221 287H416L388 616L221 287ZM270 766L398 916H492L557 766H498L438 862L338 766H270Z" />
<glyph unicode="&#xc3;" glyph-name="Atilde" d="M441 0L423 209H181L75 0H-26L343 699H460L532 0H441ZM221 287H416L388 616L221 287ZM522 892H578Q568 837 543 813T488 788Q467 788 449 798T412 819T375 829Q362 829 353 820T338 789H282Q293 845 319 868T373
892Q395 892 413 882T449 862T485 851Q512 851 522 892Z" />
<glyph unicode="&#xc4;" glyph-name="Adieresis" d="M441 0L423 209H181L75 0H-26L343 699H460L532 0H441ZM221 287H416L388 616L221 287ZM307 890H411L389 787H285L307 890ZM469 890H573L551 787H447L469 890Z" />
<glyph unicode="&#xc5;" glyph-name="Aring" d="M441 0L423 209H181L75 0H-26L343 699H460L532 0H441ZM221 287H416L388 616L221 287ZM435 929Q470 929 493 905T517 849Q517 806 490 780T424 754Q389 754 366 778T342 834Q342 877 369 903T435 929ZM431 886Q412
886 400 872T387 836Q387 818 398 807T428 796Q448 796 460 810T472 847Q472 886 431 886Z" />
<glyph unicode="&#xc6;" glyph-name="AE" d="M250 0L294 206H151L39 0H-57L333 699H680L663 619H468L421 398H601L584 318H404L353 80H566L549 0H250ZM382 619H377L194 284H311L382 619Z" />
<glyph unicode="&#xc7;" glyph-name="Ccedilla" d="M537 492Q531 559 501 596T405 633Q351 633 307 604T230 522T181 400T163 250Q163 156 203 110T313 64Q375 64 418 110T487 232H584Q550 109 476 46T301 -18Q195 -18 132 50T68 247Q68 348 92 433T160 582T266
680T405 715Q515 715 568 656T629 492H537ZM232 -84L300 12H346L294 -62Q302 -61 310 -61Q333 -61 353 -77T373 -126Q373 -159 357 -178T318 -206T271 -214Q232 -214 212 -208T174 -192L195 -146Q209 -153 226 -158T263 -164Q283 -164 298 -156T314 -131Q314 -116
304 -110T277 -104Q263 -104 246 -110L232 -84Z" />
<glyph unicode="&#xc8;" glyph-name="Egrave" d="M518 317H218L168 82H501L483 0H57L206 699H614L596 617H281L235 399H535L518 317ZM295 915H394L473 767H415L295 915Z" />
<glyph unicode="&#xc9;" glyph-name="Eacute" d="M518 317H218L168 82H501L483 0H57L206 699H614L596 617H281L235 399H535L518 317ZM376 767L512 915H633L437 767H376Z" />
<glyph unicode="&#xca;" glyph-name="Ecircumflex" d="M518 317H218L168 82H501L483 0H57L206 699H614L596 617H281L235 399H535L518 317ZM280 766L408 916H502L567 766H508L448 862L348 766H280Z" />
<glyph unicode="&#xcb;" glyph-name="Edieresis" d="M518 317H218L168 82H501L483 0H57L206 699H614L596 617H281L235 399H535L518 317ZM317 890H421L399 787H295L317 890ZM479 890H583L561 787H457L479 890Z" />
<glyph unicode="&#xcc;" glyph-name="Igrave" d="M58 0L75 78H223L338 621H190L207 699H598L581 621H432L317 78H466L449 0H58ZM287 915H386L465 767H407L287 915Z" />
<glyph unicode="&#xcd;" glyph-name="Iacute" d="M58 0L75 78H223L338 621H190L207 699H598L581 621H432L317 78H466L449 0H58ZM368 767L504 915H625L429 767H368Z" />
<glyph unicode="&#xce;" glyph-name="Icircumflex" d="M58 0L75 78H223L338 621H190L207 699H598L581 621H432L317 78H466L449 0H58ZM272 766L400 916H494L559 766H500L440 862L340 766H272Z" />
<glyph unicode="&#xcf;" glyph-name="Idieresis" d="M58 0L75 78H223L338 621H190L207 699H598L581 621H432L317 78H466L449 0H58ZM309 890H413L391 787H287L309 890ZM471 890H575L553 787H449L471 890Z" />
<glyph unicode="&#xd0;" glyph-name="Eth" d="M274 0H32L100 317H23L40 399H117L181 699H360Q473 699 539 628T606 420Q606 329 581 252T512 119T407 31T274 0ZM276 82Q327 82 369 108T444 180T493 287T511 417Q511 617 348 617H256L210 399H341L324 317H193L143 82H276Z" />
<glyph unicode="&#xd1;" glyph-name="Ntilde" d="M549 699H635L486 0H378L230 581H229L106 0H20L169 699H274L424 114H425L549 699ZM524 892H580Q570 837 545 813T490 788Q469 788 451 798T414 819T377 829Q364 829 355 820T340 789H284Q295 845 321 868T375 892Q397
892 415 882T451 862T487 851Q514 851 524 892Z" />
<glyph unicode="&#xd2;" glyph-name="Ograve" d="M374 715Q484 715 545 647T607 450Q607 349 584 264T517 115T414 17T281 -18Q171 -18 110 50T48 247Q48 348 71 433T138 582T241 680T374 715ZM372 633Q322 633 280 604T208 522T160 400T143 250Q143 159 181 112T283
64Q333 64 375 93T447 175T495 297T512 447Q512 539 475 586T372 633ZM287 915H386L465 767H407L287 915Z" />
<glyph unicode="&#xd3;" glyph-name="Oacute" d="M374 715Q484 715 545 647T607 450Q607 349 584 264T517 115T414 17T281 -18Q171 -18 110 50T48 247Q48 348 71 433T138 582T241 680T374 715ZM372 633Q322 633 280 604T208 522T160 400T143 250Q143 159 181 112T283
64Q333 64 375 93T447 175T495 297T512 447Q512 539 475 586T372 633ZM368 767L504 915H625L429 767H368Z" />
<glyph unicode="&#xd4;" glyph-name="Ocircumflex" d="M374 715Q484 715 545 647T607 450Q607 349 584 264T517 115T414 17T281 -18Q171 -18 110 50T48 247Q48 348 71 433T138 582T241 680T374 715ZM372 633Q322 633 280 604T208 522T160 400T143 250Q143 159
181 112T283 64Q333 64 375 93T447 175T495 297T512 447Q512 539 475 586T372 633ZM272 766L400 916H494L559 766H500L440 862L340 766H272Z" />
<glyph unicode="&#xd5;" glyph-name="Otilde" d="M374 715Q484 715 545 647T607 450Q607 349 584 264T517 115T414 17T281 -18Q171 -18 110 50T48 247Q48 348 71 433T138 582T241 680T374 715ZM372 633Q322 633 280 604T208 522T160 400T143 250Q143 159 181 112T283
64Q333 64 375 93T447 175T495 297T512 447Q512 539 475 586T372 633ZM524 892H580Q570 837 545 813T490 788Q469 788 451 798T414 819T377 829Q364 829 355 820T340 789H284Q295 845 321 868T375 892Q397 892 415 882T451 862T487 851Q514 851 524 892Z" />
<glyph unicode="&#xd6;" glyph-name="Odieresis" d="M374 715Q484 715 545 647T607 450Q607 349 584 264T517 115T414 17T281 -18Q171 -18 110 50T48 247Q48 348 71 433T138 582T241 680T374 715ZM372 633Q322 633 280 604T208 522T160 400T143 250Q143 159 181
112T283 64Q333 64 375 93T447 175T495 297T512 447Q512 539 475 586T372 633ZM309 890H413L391 787H287L309 890ZM471 890H575L553 787H449L471 890Z" />
<glyph unicode="&#xd7;" glyph-name="multiply" d="M110 102L66 156L273 327L142 492L198 536L327 371L533 541L577 487L370 316L501 151L445 107L316 272L110 102Z" />
<glyph unicode="&#xd8;" glyph-name="Oslash" d="M374 715Q491 715 552 640L628 723L672 683L584 585Q607 528 607 450Q607 349 584 264T517 115T414 17T281 -18Q164 -18 103 58L28 -24L-16 16L71 112Q48 169 48 247Q48 348 71 433T138 582T241 680T374 715ZM372
633Q322 633 280 604T208 522T160 400T143 250Q143 221 147 195L486 568Q450 633 372 633ZM512 447Q512 477 508 502L169 130Q205 64 283 64Q333 64 375 93T447 175T495 297T512 447Z" />
<glyph unicode="&#xd9;" glyph-name="Ugrave" d="M450 219L552 699H645L540 206Q516 94 452 38T278 -18Q199 -18 145 15T68 109T64 255L159 699H252L154 239Q136 155 171 110T286 64Q357 64 395 101T450 219ZM287 915H386L465 767H407L287 915Z" />
<glyph unicode="&#xda;" glyph-name="Uacute" d="M450 219L552 699H645L540 206Q516 94 452 38T278 -18Q199 -18 145 15T68 109T64 255L159 699H252L154 239Q136 155 171 110T286 64Q357 64 395 101T450 219ZM368 767L504 915H625L429 767H368Z" />
<glyph unicode="&#xdb;" glyph-name="Ucircumflex" d="M450 219L552 699H645L540 206Q516 94 452 38T278 -18Q199 -18 145 15T68 109T64 255L159 699H252L154 239Q136 155 171 110T286 64Q357 64 395 101T450 219ZM272 766L400 916H494L559 766H500L440 862L340 766H272Z" />
<glyph unicode="&#xdc;" glyph-name="Udieresis" d="M450 219L552 699H645L540 206Q516 94 452 38T278 -18Q199 -18 145 15T68 109T64 255L159 699H252L154 239Q136 155 171 110T286 64Q357 64 395 101T450 219ZM309 890H413L391 787H287L309 890ZM471 890H575L553
787H449L471 890Z" />
<glyph unicode="&#xdd;" glyph-name="Yacute" d="M690 699L362 274L303 0H210L269 274L114 699H209L327 363L584 699H690ZM368 767L504 915H625L429 767H368Z" />
<glyph unicode="&#xde;" glyph-name="Thorn" d="M128 0H35L184 699H277L250 572H384Q479 572 533 521T588 383Q588 317 558 265T474 184T348 154H161L128 0ZM364 493H233L178 233H335Q409 233 450 271T492 381Q492 493 364 493Z" />
<glyph unicode="&#xdf;" glyph-name="germandbls" d="M310 342L327 420Q348 417 366 417Q434 417 474 451T515 552Q515 602 483 631T395 660Q329 660 287 625T229 521L118 0H36L150 537Q166 612 205 655T295 716T401 735Q459 735 502 713T570 652T594 562Q594
487 558 439T458 375Q505 363 536 321T567 217Q567 148 535 97T446 18T313 -10Q291 -10 269 -8T222 0L238 73Q258 69 276 68T310 66Q399 66 444 106T489 218Q489 274 448 308T336 343Q330 343 324 343T310 342Z" />
<glyph unicode="&#xe0;" glyph-name="agrave" d="M524 51L511 -11Q502 -13 493 -14T475 -16Q443 -16 420 2T392 61Q361 24 318 3T224 -18Q149 -18 102 26T55 139Q55 213 100 257T230 306Q253 308 277 309T346 314Q399 319 420 331T449 374Q458 417 429 439T340
462Q275 462 247 442T204 378H117Q134 464 194 501T344 539Q406 539 452 521T520 464T528 366L473 108Q466 77 478 63T524 51ZM412 202L426 269Q387 249 325 244L268 240Q231 238 202 229T155 200T138 143Q138 103 166 79T243 55Q308 55 353 96T412 202ZM485 740H584L663
592H605L485 740Z" />
<glyph unicode="&#xe1;" glyph-name="aacute" d="M524 51L511 -11Q502 -13 493 -14T475 -16Q443 -16 420 2T392 61Q361 24 318 3T224 -18Q149 -18 102 26T55 139Q55 213 100 257T230 306Q253 308 277 309T346 314Q399 319 420 331T449 374Q458 417 429 439T340
462Q275 462 247 442T204 378H117Q134 464 194 501T344 539Q406 539 452 521T520 464T528 366L473 108Q466 77 478 63T524 51ZM412 202L426 269Q387 249 325 244L268 240Q231 238 202 229T155 200T138 143Q138 103 166 79T243 55Q308 55 353 96T412 202ZM566 592L702
740H823L627 592H566Z" />
<glyph unicode="&#xe2;" glyph-name="acircumflex" d="M524 51L511 -11Q502 -13 493 -14T475 -16Q443 -16 420 2T392 61Q361 24 318 3T224 -18Q149 -18 102 26T55 139Q55 213 100 257T230 306Q253 308 277 309T346 314Q399 319 420 331T449 374Q458 417 429 439T340
462Q275 462 247 442T204 378H117Q134 464 194 501T344 539Q406 539 452 521T520 464T528 366L473 108Q466 77 478 63T524 51ZM412 202L426 269Q387 249 325 244L268 240Q231 238 202 229T155 200T138 143Q138 103 166 79T243 55Q308 55 353 96T412 202ZM470 591L598
741H692L757 591H698L638 687L538 591H470Z" />
<glyph unicode="&#xe3;" glyph-name="atilde" d="M524 51L511 -11Q502 -13 493 -14T475 -16Q443 -16 420 2T392 61Q361 24 318 3T224 -18Q149 -18 102 26T55 139Q55 213 100 257T230 306Q253 308 277 309T346 314Q399 319 420 331T449 374Q458 417 429 439T340
462Q275 462 247 442T204 378H117Q134 464 194 501T344 539Q406 539 452 521T520 464T528 366L473 108Q466 77 478 63T524 51ZM412 202L426 269Q387 249 325 244L268 240Q231 238 202 229T155 200T138 143Q138 103 166 79T243 55Q308 55 353 96T412 202ZM722 717H778Q768
662 743 638T688 613Q667 613 649 623T612 644T575 654Q562 654 553 645T538 614H482Q493 670 519 693T573 717Q595 717 613 707T649 687T685 676Q712 676 722 717Z" />
<glyph unicode="&#xe4;" glyph-name="adieresis" d="M524 51L511 -11Q502 -13 493 -14T475 -16Q443 -16 420 2T392 61Q361 24 318 3T224 -18Q149 -18 102 26T55 139Q55 213 100 257T230 306Q253 308 277 309T346 314Q399 319 420 331T449 374Q458 417 429 439T340
462Q275 462 247 442T204 378H117Q134 464 194 501T344 539Q406 539 452 521T520 464T528 366L473 108Q466 77 478 63T524 51ZM412 202L426 269Q387 249 325 244L268 240Q231 238 202 229T155 200T138 143Q138 103 166 79T243 55Q308 55 353 96T412 202ZM507 715H611L589
612H485L507 715ZM669 715H773L751 612H647L669 715Z" />
<glyph unicode="&#xe5;" glyph-name="aring" d="M524 51L511 -11Q502 -13 493 -14T475 -16Q443 -16 420 2T392 61Q361 24 318 3T224 -18Q149 -18 102 26T55 139Q55 213 100 257T230 306Q253 308 277 309T346 314Q399 319 420 331T449 374Q458 417 429 439T340
462Q275 462 247 442T204 378H117Q134 464 194 501T344 539Q406 539 452 521T520 464T528 366L473 108Q466 77 478 63T524 51ZM412 202L426 269Q387 249 325 244L268 240Q231 238 202 229T155 200T138 143Q138 103 166 79T243 55Q308 55 353 96T412 202ZM635 754Q670
754 693 730T717 674Q717 631 690 605T624 579Q589 579 566 603T542 659Q542 702 569 728T635 754ZM631 711Q612 711 600 697T587 661Q587 643 598 632T628 621Q648 621 660 635T672 672Q672 711 631 711Z" />
<glyph unicode="&#xe6;" glyph-name="ae" d="M580 145Q564 74 517 28T404 -18Q363 -18 329 6T280 70Q255 23 219 3T139 -18Q100 -18 67 -1T14 49T-6 128Q-6 164 6 199T50 262T141 297L192 304Q243 311 264 324T291 366L295 386Q302 421 285 444T225 468Q189 468
165 452T132 391H54Q65 459 112 499T227 539Q282 539 314 515T354 452Q377 491 414 515T498 540Q551 540 579 512T617 439T621 342T602 241H343Q333 196 333 153T353 81T417 53Q447 53 471 76T505 145H580ZM488 468Q445 468 411 426T357 307H545Q550 331 552 359T550
412T531 452T488 468ZM243 138L270 268Q251 255 223 249T160 235Q113 226 93 198T72 131Q72 97 92 75T147 52Q184 52 209 76T243 138Z" />
<glyph unicode="&#xe7;" glyph-name="ccedilla" d="M526 183Q507 115 469 71T383 4T281 -18Q208 -18 160 13T88 97T64 214Q64 308 101 381T204 497T352 540Q405 540 448 521T518 460T550 351H467Q463 410 431 437T348 464Q290 464 245 431T175 340T149 210Q149
145 182 102T283 58Q330 58 374 84T440 183H526ZM220 -84L288 12H334L282 -62Q290 -61 298 -61Q321 -61 341 -77T361 -126Q361 -159 345 -178T306 -206T259 -214Q220 -214 200 -208T162 -192L183 -146Q197 -153 214 -158T251 -164Q271 -164 286 -156T302 -131Q302
-116 292 -110T265 -104Q251 -104 234 -110L220 -84Z" />
<glyph unicode="&#xe8;" glyph-name="egrave" d="M523 162Q493 72 426 27T277 -18Q212 -18 164 10T90 90T64 209Q64 305 100 380T199 497T345 540Q403 540 448 515T520 443T546 329Q546 304 544 282T537 237H148Q147 222 147 207Q147 139 182 99T287 58Q337 58
375 83T435 162H523ZM341 464Q272 464 226 420T160 305H462Q466 378 435 421T341 464ZM491 740H590L669 592H611L491 740Z" />
<glyph unicode="&#xe9;" glyph-name="eacute" d="M523 162Q493 72 426 27T277 -18Q212 -18 164 10T90 90T64 209Q64 305 100 380T199 497T345 540Q403 540 448 515T520 443T546 329Q546 304 544 282T537 237H148Q147 222 147 207Q147 139 182 99T287 58Q337 58
375 83T435 162H523ZM341 464Q272 464 226 420T160 305H462Q466 378 435 421T341 464ZM572 592L708 740H829L633 592H572Z" />
<glyph unicode="&#xea;" glyph-name="ecircumflex" d="M523 162Q493 72 426 27T277 -18Q212 -18 164 10T90 90T64 209Q64 305 100 380T199 497T345 540Q403 540 448 515T520 443T546 329Q546 304 544 282T537 237H148Q147 222 147 207Q147 139 182 99T287 58Q337
58 375 83T435 162H523ZM341 464Q272 464 226 420T160 305H462Q466 378 435 421T341 464ZM476 591L604 741H698L763 591H704L644 687L544 591H476Z" />
<glyph unicode="&#xeb;" glyph-name="edieresis" d="M523 162Q493 72 426 27T277 -18Q212 -18 164 10T90 90T64 209Q64 305 100 380T199 497T345 540Q403 540 448 515T520 443T546 329Q546 304 544 282T537 237H148Q147 222 147 207Q147 139 182 99T287 58Q337
58 375 83T435 162H523ZM341 464Q272 464 226 420T160 305H462Q466 378 435 421T341 464ZM513 715H617L595 612H491L513 715ZM675 715H779L757 612H653L675 715Z" />
<glyph unicode="&#xec;" glyph-name="igrave" d="M415 524L318 68H479L464 0H41L56 68H236L318 456H138L153 524H415ZM506 740H605L684 592H626L506 740Z" />
<glyph unicode="&#xed;" glyph-name="iacute" d="M415 524L318 68H479L464 0H41L56 68H236L318 456H138L153 524H415ZM587 592L723 740H844L648 592H587Z" />
<glyph unicode="&#xee;" glyph-name="icircumflex" d="M415 524L318 68H479L464 0H41L56 68H236L318 456H138L153 524H415ZM235 591L363 741H457L522 591H463L403 687L303 591H235Z" />
<glyph unicode="&#xef;" glyph-name="idieresis" d="M415 524L318 68H479L464 0H41L56 68H236L318 456H138L153 524H415ZM272 715H376L354 612H250L272 715ZM434 715H538L516 612H412L434 715Z" />
<glyph unicode="&#xf0;" glyph-name="eth" d="M241 557L219 607L324 655Q294 679 258 701L291 750Q349 724 395 688L508 740L530 690L438 647Q553 524 553 318Q553 215 518 140T421 23T279 -18Q180 -18 122 44T64 219Q64 308 98 377T194 485T334 525Q365 525 396
515T448 479Q428 553 368 615L241 557ZM329 449Q276 449 235 419T172 335T149 213Q149 134 187 96T283 58Q337 58 378 88T441 172T464 294Q464 374 426 411T329 449Z" />
<glyph unicode="&#xf1;" glyph-name="ntilde" d="M45 0L157 524H234L213 428Q250 477 297 508T409 539Q483 539 520 495T542 376L462 0H379L456 363Q467 413 448 439T381 466Q333 466 293 440T227 375T191 295L128 0H45ZM489 717H545Q535 662 510 638T455 613Q434
613 416 623T379 644T342 654Q329 654 320 645T305 614H249Q260 670 286 693T340 717Q362 717 380 707T416 687T452 676Q479 676 489 717Z" />
<glyph unicode="&#xf2;" glyph-name="ograve" d="M341 540Q440 540 498 478T556 303Q556 237 536 179T478 76T390 7T279 -18Q180 -18 122 44T64 219Q64 285 84 343T142 446T230 515T341 540ZM471 309Q471 389 433 426T336 464Q283 464 241 430T174 339T149 213Q149
134 187 96T283 58Q337 58 379 92T446 183T471 309ZM496 740H595L674 592H616L496 740Z" />
<glyph unicode="&#xf3;" glyph-name="oacute" d="M341 540Q440 540 498 478T556 303Q556 237 536 179T478 76T390 7T279 -18Q180 -18 122 44T64 219Q64 285 84 343T142 446T230 515T341 540ZM471 309Q471 389 433 426T336 464Q283 464 241 430T174 339T149 213Q149
134 187 96T283 58Q337 58 379 92T446 183T471 309ZM577 592L713 740H834L638 592H577Z" />
<glyph unicode="&#xf4;" glyph-name="ocircumflex" d="M341 540Q440 540 498 478T556 303Q556 237 536 179T478 76T390 7T279 -18Q180 -18 122 44T64 219Q64 285 84 343T142 446T230 515T341 540ZM471 309Q471 389 433 426T336 464Q283 464 241 430T174 339T149
213Q149 134 187 96T283 58Q337 58 379 92T446 183T471 309ZM481 591L609 741H703L768 591H709L649 687L549 591H481Z" />
<glyph unicode="&#xf5;" glyph-name="otilde" d="M341 540Q440 540 498 478T556 303Q556 237 536 179T478 76T390 7T279 -18Q180 -18 122 44T64 219Q64 285 84 343T142 446T230 515T341 540ZM471 309Q471 389 433 426T336 464Q283 464 241 430T174 339T149 213Q149
134 187 96T283 58Q337 58 379 92T446 183T471 309ZM733 717H789Q779 662 754 638T699 613Q678 613 660 623T623 644T586 654Q573 654 564 645T549 614H493Q504 670 530 693T584 717Q606 717 624 707T660 687T696 676Q723 676 733 717Z" />
<glyph unicode="&#xf6;" glyph-name="odieresis" d="M341 540Q440 540 498 478T556 303Q556 237 536 179T478 76T390 7T279 -18Q180 -18 122 44T64 219Q64 285 84 343T142 446T230 515T341 540ZM471 309Q471 389 433 426T336 464Q283 464 241 430T174 339T149
213Q149 134 187 96T283 58Q337 58 379 92T446 183T471 309ZM518 715H622L600 612H496L518 715ZM680 715H784L762 612H658L680 715Z" />
<glyph unicode="&#xf7;" glyph-name="divide" d="M320 558H424L402 454H298L320 558ZM87 357H571L556 287H72L87 357ZM242 190H346L324 86H220L242 190Z" />
<glyph unicode="&#xf8;" glyph-name="oslash" d="M62 -18L26 19L93 85Q64 140 64 219Q64 285 84 343T142 446T230 515T341 540Q438 540 495 482L556 542L591 505L525 440Q556 384 556 303Q556 237 536 179T478 76T390 7T279 -18Q180 -18 123 43L62 -18ZM149 213Q149
177 158 148L436 423Q400 464 336 464Q283 464 241 430T174 339T149 213ZM471 309Q471 347 461 377L182 101Q200 79 226 69T283 58Q337 58 379 92T446 183T471 309Z" />
<glyph unicode="&#xf9;" glyph-name="ugrave" d="M574 524L462 0H387L408 93Q362 32 314 7T209 -18Q164 -18 130 1T81 59T78 153L157 524H240L164 168Q151 107 172 81T237 55Q281 55 321 78T389 142T429 233L491 524H574ZM506 740H605L684 592H626L506 740Z" />
<glyph unicode="&#xfa;" glyph-name="uacute" d="M574 524L462 0H387L408 93Q362 32 314 7T209 -18Q164 -18 130 1T81 59T78 153L157 524H240L164 168Q151 107 172 81T237 55Q281 55 321 78T389 142T429 233L491 524H574ZM587 592L723 740H844L648 592H587Z" />
<glyph unicode="&#xfb;" glyph-name="ucircumflex" d="M574 524L462 0H387L408 93Q362 32 314 7T209 -18Q164 -18 130 1T81 59T78 153L157 524H240L164 168Q151 107 172 81T237 55Q281 55 321 78T389 142T429 233L491 524H574ZM235 591L363 741H457L522 591H463L403
687L303 591H235Z" />
<glyph unicode="&#xfc;" glyph-name="udieresis" d="M574 524L462 0H387L408 93Q362 32 314 7T209 -18Q164 -18 130 1T81 59T78 153L157 524H240L164 168Q151 107 172 81T237 55Q281 55 321 78T389 142T429 233L491 524H574ZM272 715H376L354 612H250L272 715ZM434
715H538L516 612H412L434 715Z" />
<glyph unicode="&#xfd;" glyph-name="yacute" d="M234 -110Q203 -162 163 -190T65 -218Q43 -218 24 -214T-13 -203L7 -129Q23 -134 37 -136T68 -138Q100 -138 121 -125T159 -85L208 -6L127 524H209L271 97L512 524H604L234 -110ZM587 592L723 740H844L648 592H587Z" />
<glyph unicode="&#xfe;" glyph-name="thorn" d="M311 -18Q253 -18 205 11T135 95L69 -218H-15L187 729H269L212 463Q243 499 283 519T372 540Q465 540 518 479T571 307Q571 238 551 179T495 76T412 7T311 -18ZM357 464Q305 464 262 431T192 341T166 214Q166 134
205 96T302 58Q355 58 396 90T462 178T486 310Q486 387 451 425T357 464Z" />
<glyph unicode="&#xff;" glyph-name="ydieresis" d="M234 -110Q203 -162 163 -190T65 -218Q43 -218 24 -214T-13 -203L7 -129Q23 -134 37 -136T68 -138Q100 -138 121 -125T159 -85L208 -6L127 524H209L271 97L512 524H604L234 -110ZM272 715H376L354 612H250L272
715ZM434 715H538L516 612H412L434 715Z" />
<glyph unicode="&#x2013;" glyph-name="endash" d="M76 358H582L567 286H61L76 358Z" />
<glyph unicode="&#x2014;" glyph-name="emdash" d="M20 358H638L623 286H5L20 358Z" />
<glyph unicode="&#x2018;" glyph-name="quoteleft" d="M435 534L406 398H270L312 599Q322 645 356 672T449 699H480L469 648H444Q379 648 367 592L355 534H435Z" />
<glyph unicode="&#x2019;" glyph-name="quoteright" d="M305 563L334 699H470L428 498Q418 452 384 425T291 398H260L271 449H296Q361 449 373 505L385 563H305Z" />
<glyph unicode="&#x201a;" glyph-name="quotesinglbase" d="M185 0L214 136H350L308 -65Q298 -111 264 -138T171 -165H140L151 -114H176Q241 -114 253 -58L265 0H185Z" />
<glyph unicode="&#x201c;" glyph-name="quotedblleft" d="M550 534L521 398H385L427 599Q437 645 471 672T564 699H595L584 648H559Q494 648 482 592L470 534H550ZM320 534L291 398H155L197 599Q207 645 241 672T334 699H365L354 648H329Q264 648 252 592L240 534H320Z" />
<glyph unicode="&#x201d;" glyph-name="quotedblright" d="M190 563L219 699H355L313 498Q303 452 269 425T176 398H145L156 449H181Q246 449 258 505L270 563H190ZM420 563L449 699H585L543 498Q533 452 499 425T406 398H375L386 449H411Q476 449 488 505L500 563H420Z" />
<glyph unicode="&#x201e;" glyph-name="quotedblbase" d="M326 0L355 136H491L449 -65Q439 -111 405 -138T312 -165H281L292 -114H317Q382 -114 394 -58L406 0H326ZM300 0L329 136H465L423 -65Q413 -111 379 -138T286 -165H255L266 -114H291Q356 -114 368 -58L380 0H300Z" />
<glyph unicode="&#x2022;" glyph-name="bullet" d="M324 443Q371 443 404 411T437 330Q437 282 404 250T324 217Q278 217 245 249T211 330Q211 378 244 410T324 443Z" />
<glyph unicode="&#x2039;" glyph-name="guilsinglleft" d="M406 74L166 237L188 337L496 500L476 408L232 283L423 156L406 74Z" />
<glyph unicode="&#x203a;" glyph-name="guilsinglright" d="M223 500L463 337L441 237L133 74L153 166L397 291L206 418L223 500Z" />
</font>
</defs>
</svg>
