<?xml version="1.0" standalone="no"?>
<!DOCTYPE svg PUBLIC "-//W3C//DTD SVG 20010904//EN"
 "http://www.w3.org/TR/2001/REC-SVG-20010904/DTD/svg10.dtd">
<svg version="1.0" xmlns="http://www.w3.org/2000/svg"
 width="1500.000000pt" height="1800.000000pt" viewBox="0 0 1500.000000 1800.000000"
 preserveAspectRatio="xMidYMid meet">

<g transform="translate(0.000000,1800.000000) scale(0.100000,-0.100000)"
fill="#000000" stroke="none">
<path d="M10273 15528 c-11 -13 -29 -39 -38 -58 -51 -101 -304 -362 -630 -649
-257 -227 -708 -591 -731 -591 -6 0 -47 36 -92 79 -200 195 -413 279 -675 269
l-119 -5 -76 75 c-88 85 -176 147 -236 163 -59 17 -209 14 -290 -5 l-68 -16
-55 50 c-62 57 -165 121 -245 152 -38 15 -76 22 -133 22 -70 1 -89 -3 -149
-32 -103 -48 -236 -163 -349 -301 -24 -29 -35 -34 -80 -37 -227 -14 -332 -46
-477 -144 -49 -33 -64 -38 -140 -44 -127 -10 -635 30 -811 64 -102 19 -219 63
-285 106 -22 14 -58 51 -80 82 -50 73 -127 152 -146 152 -9 0 -28 -10 -43 -22
-27 -21 -28 -23 -22 -107 10 -147 72 -333 142 -426 12 -16 26 -41 30 -55 26
-82 128 -198 263 -298 80 -60 230 -142 258 -142 29 0 24 -29 -12 -77 -48 -63
-88 -149 -115 -248 -34 -123 -31 -318 5 -440 15 -49 39 -111 53 -137 l25 -47
-20 -33 c-57 -94 -97 -279 -90 -418 3 -73 9 -98 40 -161 19 -41 56 -104 82
-139 52 -71 52 -67 18 -182 -21 -69 -42 -212 -42 -285 0 -41 -1 -43 -30 -43
-35 0 -50 -13 -132 -115 -114 -143 -221 -336 -258 -467 -12 -40 -24 -116 -27
-168 -6 -91 -8 -97 -42 -140 -63 -76 -102 -135 -303 -450 -265 -415 -278 -436
-413 -670 -110 -191 -309 -515 -337 -551 -7 -8 -56 -29 -109 -47 -249 -82
-427 -194 -508 -320 -17 -26 -46 -90 -65 -140 -52 -142 -57 -146 -160 -173
-96 -25 -207 -121 -261 -228 -40 -80 -48 -124 -50 -281 l-1 -155 -99 -175
c-222 -393 -322 -659 -370 -976 -54 -359 45 -744 251 -973 42 -47 46 -55 59
-143 8 -51 17 -112 21 -135 11 -71 -16 -53 -91 59 -38 57 -99 134 -136 172
-57 58 -70 67 -90 61 -31 -9 -49 -33 -49 -64 0 -14 14 -93 30 -176 16 -82 32
-181 35 -220 l6 -70 -53 101 c-68 127 -147 237 -256 355 -114 122 -236 227
-346 300 -96 63 -137 74 -156 40 -19 -37 -11 -59 33 -90 71 -49 150 -133 193
-206 68 -115 120 -225 148 -315 29 -89 70 -313 81 -440 l7 -75 -70 68 c-77 76
-100 82 -135 36 -19 -26 -19 -30 -3 -130 9 -57 34 -180 55 -274 21 -93 41
-190 44 -215 5 -44 5 -45 -39 -73 -115 -74 -298 -349 -384 -579 -32 -83 -32
-88 -16 -112 30 -46 68 -36 146 38 47 44 86 70 124 85 146 54 346 54 464 -1
43 -20 44 -22 38 -57 -20 -110 -19 -128 3 -150 32 -32 71 -26 182 29 56 27
103 50 105 50 2 0 1 -96 -2 -212 -6 -209 -6 -214 15 -241 42 -52 93 -29 178
78 28 35 34 38 50 27 50 -34 66 -35 117 -8 48 25 49 25 75 7 42 -29 59 -32
104 -16 53 19 68 19 116 -1 37 -15 42 -21 65 -92 14 -43 41 -140 60 -218 20
-77 49 -174 66 -215 17 -41 43 -103 57 -139 31 -78 49 -100 78 -100 40 0 63
33 109 153 55 142 84 194 137 242 36 32 45 36 87 33 l47 -3 7 -89 c10 -133 48
-172 125 -126 29 17 41 19 64 11 41 -14 87 2 144 52 63 56 121 68 165 37 40
-29 119 -151 170 -265 34 -74 49 -96 72 -106 25 -10 33 -8 68 16 22 15 66 60
97 99 74 93 134 156 149 156 6 0 40 -32 76 -70 74 -81 91 -85 176 -45 30 14
64 25 77 25 12 0 34 9 48 20 38 30 80 36 102 13 35 -34 114 -164 135 -221 12
-31 41 -142 65 -246 44 -196 53 -216 100 -216 42 0 54 29 65 155 6 66 14 204
17 307 6 217 8 220 91 220 64 -1 103 -18 180 -81 86 -70 131 -68 230 7 32 25
32 25 90 8 84 -23 151 -21 218 9 56 25 57 25 105 8 42 -15 56 -16 108 -5 57
12 63 11 108 -12 71 -36 146 -101 198 -171 25 -35 53 -66 61 -69 25 -9 79 19
107 56 15 19 45 73 67 121 23 48 42 87 44 87 2 0 31 -34 66 -75 117 -140 178
-161 302 -103 62 28 73 30 102 20 72 -26 129 -7 234 80 l64 52 48 -27 c54 -31
91 -33 217 -15 l83 12 117 -39 c65 -21 123 -41 128 -45 6 -4 29 -12 52 -18 73
-21 156 -141 229 -331 30 -79 53 -99 98 -87 15 4 33 20 43 39 16 28 18 58 17
222 l-1 190 38 1 c24 1 55 12 79 28 49 32 56 32 118 0 74 -38 116 -41 191 -10
78 32 197 49 316 46 102 -2 88 9 175 -133 30 -50 68 -99 83 -111 27 -20 29
-20 60 -3 41 22 89 93 117 175 13 34 26 62 31 62 5 0 15 -13 23 -29 25 -47 84
-56 129 -20 21 15 34 19 62 13 61 -11 99 3 173 66 l71 59 36 -40 c20 -22 52
-66 72 -97 51 -81 72 -102 104 -102 36 0 85 57 168 194 36 59 72 111 82 116
11 6 45 4 94 -5 109 -21 118 -20 169 24 40 34 54 40 112 47 54 5 72 12 91 32
l23 25 63 -19 c118 -35 188 -133 222 -307 7 -37 21 -77 30 -88 27 -28 71 -25
92 8 41 62 7 280 -68 442 l-39 84 54 -6 c55 -5 136 -41 193 -84 41 -31 82 -28
102 8 19 34 4 74 -50 129 -22 22 -39 44 -39 48 0 4 25 23 55 41 52 32 60 33
116 27 114 -11 318 -93 439 -175 58 -40 101 -41 130 -4 20 25 21 36 16 93 -4
35 -19 93 -33 129 l-26 64 33 27 c26 21 35 39 45 86 l11 59 80 18 c88 20 107
32 107 72 0 34 -14 47 -57 54 l-34 6 62 83 c91 122 202 202 280 202 37 0 66
28 66 63 0 23 -60 79 -119 109 -36 18 -62 23 -119 23 l-73 0 5 30 c3 17 10 82
15 145 6 69 21 151 37 205 62 209 68 259 36 288 -40 36 -71 20 -132 -68 -19
-28 -36 -43 -38 -36 -11 32 71 335 159 591 28 80 55 159 61 176 15 44 3 82
-26 90 -42 10 -64 -5 -107 -74 l-40 -67 6 100 c17 246 4 347 -49 361 -62 15
-75 -4 -187 -273 -39 -95 -76 -170 -80 -167 -12 7 -11 215 1 374 18 247 69
440 196 738 41 96 74 185 74 197 0 29 -30 55 -62 55 -21 0 -51 -26 -139 -120
-101 -108 -156 -157 -164 -148 -1 2 13 43 32 92 82 211 110 415 69 494 l-17
32 28 11 c71 27 122 58 174 109 126 123 182 323 183 650 1 155 -1 170 -27 252
-18 52 -42 102 -61 125 -18 21 -42 55 -54 76 l-22 38 29 97 c15 53 34 129 41
167 7 39 16 82 20 97 5 15 6 52 3 82 l-6 55 44 11 c204 51 331 140 445 311 88
133 145 295 128 364 -7 30 -39 55 -71 55 -27 0 -28 10 -8 49 28 56 55 176 66
300 9 103 8 153 -5 271 -8 80 -18 181 -22 224 -7 89 -31 126 -79 126 -31 0
-53 -22 -150 -145 -86 -111 -244 -276 -333 -349 -155 -127 -402 -273 -551
-327 l-64 -23 -31 40 c-17 21 -42 49 -56 62 -66 62 -198 112 -297 112 -49 0
-53 2 -59 28 -17 69 -139 197 -227 237 -63 29 -139 45 -216 45 -51 0 -57 3
-72 29 -26 45 -133 93 -223 99 -84 5 -203 -16 -304 -54 -106 -40 -104 -40
-163 6 -63 50 -144 92 -225 117 -92 28 -391 25 -534 -6 -119 -25 -218 -64
-315 -123 l-67 -40 -62 18 c-93 27 -195 23 -286 -11 -104 -38 -174 -75 -248
-129 -62 -46 -63 -46 -108 -35 -117 30 -326 -7 -634 -111 -80 -26 -147 -46
-150 -44 -2 3 3 26 13 52 61 164 109 319 119 385 l12 77 36 6 c19 3 45 9 56
14 20 8 77 73 99 114 6 10 35 26 65 35 75 24 212 94 290 149 174 123 260 274
276 487 8 99 34 148 104 200 179 132 220 317 133 608 -18 59 -24 93 -17 102
115 168 192 305 239 430 41 109 83 281 94 382 23 215 -41 478 -155 634 l-33
46 6 99 c6 109 -6 173 -55 272 -14 28 -23 53 -21 55 2 1 38 11 79 21 121 30
344 115 428 164 42 25 111 63 152 86 113 63 166 102 264 196 204 196 307 391
346 655 6 39 13 150 17 247 5 148 3 181 -9 200 -8 13 -18 40 -22 60 -4 21 -16
44 -29 53 -33 23 -90 19 -114 -7z m0 -422 c13 -28 14 -46 6 -102 -27 -190 -85
-326 -196 -464 -140 -172 -311 -290 -493 -340 -126 -34 -131 -25 -28 45 142
98 328 298 451 485 27 41 90 150 140 242 51 92 95 168 98 168 3 0 13 -15 22
-34z m-374 -272 c-50 -83 -193 -260 -269 -334 -164 -159 -424 -309 -517 -298
-27 3 -26 4 27 43 164 118 429 338 683 568 54 49 101 86 104 83 3 -3 -9 -31
-28 -62z m-2852 -15 c47 -27 106 -73 151 -118 80 -79 76 -78 162 -45 33 12 76
17 160 18 107 1 118 -1 160 -26 25 -14 86 -64 135 -111 50 -46 101 -88 115
-93 14 -4 95 -9 180 -9 175 -1 232 -14 370 -86 115 -60 263 -198 275 -256 3
-12 7 -34 10 -46 3 -14 36 -49 79 -85 94 -77 171 -169 210 -252 28 -60 31 -73
29 -160 -2 -117 8 -158 57 -235 84 -129 123 -280 124 -475 0 -143 -12 -210
-70 -372 -61 -171 -202 -398 -247 -398 -43 0 -60 -32 -55 -100 3 -48 10 -66
31 -88 38 -39 61 -136 62 -257 0 -90 -3 -106 -28 -156 -32 -66 -109 -142 -171
-170 -68 -30 -70 -35 -71 -188 -1 -110 -5 -148 -23 -201 -45 -137 -126 -217
-302 -301 -198 -94 -191 -90 -240 -159 -56 -79 -101 -106 -178 -102 -29 1 -66
9 -82 17 -40 21 -266 21 -315 0 -50 -20 -63 -59 -34 -98 l22 -30 -117 -293
c-65 -161 -116 -303 -114 -316 3 -26 39 -36 55 -16 6 7 65 148 131 313 l120
300 41 3 c29 2 41 -1 41 -10 0 -8 -43 -130 -95 -271 -52 -142 -95 -264 -95
-272 0 -8 10 -20 22 -26 18 -10 24 -8 37 8 9 11 61 142 116 291 74 202 105
274 118 278 11 3 22 2 27 -3 4 -4 -28 -125 -72 -268 -43 -143 -76 -270 -73
-281 3 -12 -9 -73 -25 -135 -16 -63 -30 -123 -30 -134 0 -11 23 -64 50 -118
76 -149 69 -212 -40 -332 -28 -31 -50 -61 -50 -68 0 -6 -15 -19 -33 -27 -53
-25 -56 -57 -13 -127 101 -164 111 -301 30 -434 -42 -70 -44 -110 -8 -138 15
-12 37 -21 49 -21 32 0 81 59 122 147 64 134 56 273 -25 435 l-39 76 43 31
c56 39 128 136 149 202 29 87 18 177 -35 278 l-43 83 12 62 c7 33 16 64 19 68
14 14 231 96 347 131 224 68 308 79 490 66 72 -6 116 8 181 54 64 45 122 74
208 103 91 31 155 30 231 -2 94 -41 107 -41 151 -1 22 19 76 53 122 76 222
112 557 142 741 68 59 -24 161 -92 222 -149 16 -16 34 -28 39 -28 5 0 24 13
42 28 73 63 310 116 409 92 57 -14 67 -25 45 -49 -32 -36 -14 -98 34 -113 8
-2 44 6 80 19 104 36 209 27 294 -27 60 -38 146 -154 146 -196 0 -18 8 -42 19
-55 17 -21 21 -22 50 -9 47 19 146 8 220 -25 49 -22 75 -43 123 -99 33 -39 67
-75 75 -80 19 -11 115 8 213 41 151 51 388 189 552 322 43 34 138 126 212 203
153 160 141 160 150 -3 7 -109 -7 -279 -30 -358 -9 -30 -29 -81 -45 -113 -16
-31 -29 -64 -29 -73 0 -8 -13 -27 -30 -42 -35 -30 -38 -61 -11 -94 17 -21 27
-24 80 -21 72 3 74 -2 35 -81 -67 -133 -180 -255 -280 -302 -31 -15 -107 -37
-168 -50 -75 -16 -115 -30 -124 -42 -9 -13 -12 -58 -11 -168 1 -145 0 -156
-40 -315 l-42 -164 21 -26 c63 -78 81 -109 110 -188 39 -106 48 -217 31 -383
-32 -299 -84 -403 -246 -481 -43 -21 -84 -43 -90 -48 -6 -7 -12 -88 -16 -193
-5 -162 -9 -191 -33 -265 -44 -134 -114 -301 -153 -366 -73 -119 -254 -286
-390 -357 -99 -52 -97 -43 -48 -193 39 -120 43 -179 20 -270 -30 -116 -142
-287 -259 -394 -37 -34 -53 -42 -84 -42 -35 0 -47 -8 -129 -90 -115 -114 -171
-142 -293 -148 l-85 -4 -44 36 c-49 41 -78 45 -109 16 -12 -11 -24 -20 -28
-20 -7 0 2 161 12 195 7 27 -31 75 -60 75 -12 0 -29 -6 -38 -13 -9 -6 -45 -84
-79 -172 -34 -88 -66 -165 -71 -172 -12 -15 -68 3 -68 21 0 15 -38 50 -62 59
-16 6 -18 21 -18 121 0 64 5 160 11 214 13 118 0 166 -47 178 -24 6 -33 2 -59
-28 -48 -57 -125 -205 -225 -438 -52 -118 -97 -219 -101 -223 -3 -5 -56 -22
-115 -39 -145 -41 -311 -45 -419 -11 -131 41 -211 117 -290 273 -60 119 -95
280 -95 438 0 92 -64 124 -116 58 -15 -19 -119 -189 -230 -378 -182 -310 -205
-344 -235 -355 -34 -12 -99 -17 -99 -8 0 2 120 197 267 432 274 439 302 493
251 493 -14 0 -32 -8 -40 -17 -8 -10 -139 -219 -292 -465 -152 -245 -283 -451
-289 -456 -7 -5 -47 -13 -89 -17 -93 -8 -96 -4 -40 76 214 305 623 923 620
937 -2 11 -13 17 -32 17 -28 0 -50 -30 -345 -467 -174 -257 -319 -467 -322
-468 -3 0 -11 47 -18 103 l-13 104 253 369 c162 235 253 378 254 394 0 20 -6
26 -26 28 -25 3 -44 -22 -254 -330 -125 -183 -235 -341 -244 -351 -17 -17 -19
-16 -39 33 -12 29 -19 57 -15 64 4 6 91 131 195 278 169 241 187 270 178 293
-10 25 -26 31 -46 17 -6 -4 -86 -115 -178 -247 -93 -132 -177 -249 -187 -259
-18 -19 -18 -19 -30 8 -17 36 11 115 60 172 68 78 213 294 209 311 -2 11 -14
19 -30 21 -23 3 -35 -9 -105 -107 -43 -61 -81 -111 -85 -111 -3 0 -9 14 -13
31 -6 25 0 41 34 92 46 67 48 90 11 95 -18 3 -32 -5 -55 -33 l-31 -36 -47 60
c-54 70 -85 84 -125 54 -44 -32 -41 -70 12 -147 70 -102 77 -148 39 -271 -8
-27 -26 -69 -39 -92 -38 -66 -28 -111 31 -133 29 -11 89 -134 115 -235 24 -94
26 -214 5 -305 -9 -36 -37 -108 -62 -160 -38 -75 -63 -111 -123 -171 -88 -88
-192 -159 -283 -194 -137 -51 -341 -57 -551 -14 -84 17 -113 19 -132 10 -26
-12 -47 -52 -38 -74 7 -19 -13 -32 -75 -51 -73 -22 -141 -20 -231 5 -107 29
-205 84 -285 160 -38 36 -77 68 -87 72 -9 3 -49 -6 -90 -20 -142 -50 -282 -39
-420 34 -81 42 -124 88 -172 186 -83 169 -107 385 -55 497 36 76 68 111 136
148 126 67 329 98 468 72 62 -12 69 -11 93 7 18 13 28 31 30 53 8 76 -78 106
-280 97 -254 -10 -454 -100 -548 -247 -99 -154 -100 -389 -4 -609 13 -29 24
-55 24 -57 0 -8 -62 -35 -67 -30 -4 3 -19 56 -34 116 -35 139 -55 182 -93 195
-24 8 -31 6 -51 -17 -18 -22 -24 -43 -30 -122 -4 -53 -10 -98 -14 -100 -4 -3
-25 36 -46 87 -97 231 -223 458 -344 617 -137 180 -229 270 -277 270 -21 0
-54 -32 -54 -52 0 -4 16 -26 37 -48 50 -57 103 -218 152 -467 47 -242 64 -343
59 -349 -7 -7 -130 36 -167 58 -18 12 -54 39 -79 60 -27 24 -51 37 -61 34 -9
-3 -42 -14 -74 -25 -85 -30 -216 -44 -342 -38 -120 6 -198 27 -299 80 -71 38
-219 175 -246 227 -11 21 -26 40 -34 43 -9 4 -64 11 -123 17 -297 30 -425 96
-548 280 -86 129 -126 251 -175 525 -22 126 -32 162 -47 170 -34 19 -90 83
-123 139 -109 192 -160 458 -131 691 24 188 102 461 182 633 75 162 251 487
277 508 35 31 48 113 25 172 -12 33 -14 61 -10 123 11 140 73 239 182 291 36
16 77 28 101 28 51 0 88 27 105 77 6 19 22 51 35 70 12 18 32 62 44 97 49 150
146 235 382 337 76 34 96 39 116 30 39 -18 71 -13 99 17 48 50 229 334 384
602 84 146 230 387 324 535 95 149 200 317 235 375 56 92 132 208 208 315 19
26 23 48 27 122 5 113 26 196 78 302 59 121 205 341 226 341 4 0 14 -33 21
-72 25 -145 84 -276 188 -418 70 -96 193 -216 277 -271 36 -24 65 -48 65 -55
0 -6 -9 -19 -20 -29 -27 -24 -26 -62 1 -70 17 -6 33 4 75 46 45 44 56 51 64
39 20 -32 8 -56 -71 -136 -71 -73 -79 -85 -69 -103 18 -34 42 -24 110 44 35
36 68 65 72 65 20 0 1 -31 -83 -136 -96 -121 -110 -159 -59 -159 19 0 43 23
108 103 l85 104 25 -25 25 -25 -81 -112 c-69 -95 -80 -115 -71 -132 20 -37 51
-17 119 74 93 124 92 124 124 103 14 -10 26 -20 26 -24 0 -4 -32 -58 -71 -120
-38 -62 -69 -120 -67 -128 5 -25 34 -39 51 -24 9 7 48 64 87 127 40 63 76 116
80 119 13 8 82 -8 86 -20 3 -6 -34 -78 -81 -159 -92 -157 -100 -190 -47 -184
23 3 41 28 127 175 55 95 106 173 113 173 23 0 72 57 72 84 0 14 -10 36 -22
51 -19 21 -36 27 -95 34 -40 5 -94 19 -120 32 -95 46 -206 184 -243 304 -21
68 -54 90 -99 66 -13 -8 -38 2 -106 42 -208 122 -375 340 -422 548 -26 115
-23 398 5 503 12 43 31 93 42 111 27 44 25 59 -13 102 -18 21 -44 54 -59 73
-14 19 -42 52 -61 72 -47 50 -61 115 -55 245 5 99 24 168 78 290 l24 52 -37
113 c-51 156 -60 216 -53 333 11 190 61 306 187 439 l77 81 67 0 c91 0 107 19
124 141 14 98 32 147 80 212 48 65 93 82 224 82 93 0 110 3 127 20 23 23 25
42 9 72 -15 28 8 48 106 94 109 52 288 81 371 60 28 -7 34 -4 70 36 21 23 93
97 159 164 152 152 214 188 317 181 56 -4 80 -11 145 -48z m-2443 -369 c93
-43 191 -73 296 -90 94 -15 383 -40 466 -40 39 0 73 -3 77 -6 3 -3 -11 -28
-31 -54 -20 -26 -44 -61 -53 -77 -22 -40 -89 -56 -234 -57 -98 0 -120 4 -204
33 -176 60 -299 142 -370 245 -27 39 -48 86 -38 86 2 0 43 -18 91 -40z m596
-490 c0 -12 -127 -12 -155 0 -13 6 9 9 68 9 52 1 87 -3 87 -9z m7261 -7942
c-52 -155 -87 -327 -101 -492 -19 -243 -8 -524 24 -601 24 -56 55 -56 118 -1
49 42 57 57 108 183 30 75 57 129 58 119 2 -10 -1 -54 -7 -98 -21 -155 -10
-228 42 -269 l21 -17 -32 -113 c-65 -232 -75 -289 -96 -541 -4 -47 -1 -62 15
-83 25 -30 61 -33 89 -5 l20 20 0 -66 c0 -36 -9 -102 -21 -147 -11 -45 -19
-98 -16 -118 3 -20 1 -43 -4 -52 -13 -23 6 -65 33 -72 15 -4 45 4 78 19 57 27
144 37 106 13 -77 -49 -145 -111 -200 -182 -82 -106 -99 -139 -91 -174 5 -25
2 -29 -36 -46 -51 -23 -72 -53 -71 -105 1 -36 -3 -41 -41 -62 -23 -13 -48 -34
-55 -48 -13 -23 -12 -32 22 -102 20 -42 36 -81 36 -87 0 -5 -35 8 -77 29 -142
73 -317 119 -453 120 -57 0 -74 -5 -135 -39 -41 -23 -77 -51 -85 -66 -29 -55
-61 -67 -166 -63 -91 3 -97 2 -115 -21 -27 -33 -24 -62 11 -106 17 -21 28 -40
26 -42 -2 -2 -32 6 -67 17 -34 12 -83 24 -109 27 -41 5 -50 2 -71 -20 -18 -18
-38 -26 -80 -30 -60 -6 -109 -26 -147 -60 -21 -20 -26 -20 -113 -9 -88 12 -91
12 -118 -10 -15 -13 -44 -32 -65 -43 -25 -13 -48 -38 -68 -75 -18 -30 -42 -72
-56 -94 l-24 -38 -66 73 c-74 80 -142 129 -181 129 -18 0 -48 -21 -95 -65 -69
-65 -69 -65 -128 -65 -33 0 -68 -5 -79 -11 -17 -9 -27 -2 -70 45 -38 42 -58
56 -78 56 -36 0 -51 -17 -51 -57 0 -22 -6 -36 -19 -43 -11 -5 -32 -41 -48 -80
-15 -38 -31 -70 -35 -70 -3 0 -17 17 -29 37 -38 61 -137 181 -164 199 -31 20
-69 8 -80 -25 -6 -19 -14 -20 -133 -19 -110 2 -135 -1 -187 -21 -97 -37 -109
-37 -186 -1 -82 37 -107 36 -174 -10 -37 -26 -48 -29 -65 -20 -31 16 -60 2
-76 -36 -8 -19 -18 -34 -23 -34 -5 0 -17 -7 -25 -16 -12 -12 -16 -37 -16 -101
l0 -86 -38 59 c-60 93 -130 150 -215 175 -40 11 -103 36 -140 54 -109 54 -158
61 -278 41 l-101 -17 -48 31 c-78 50 -110 44 -216 -41 -96 -76 -85 -73 -192
-53 -25 5 -49 -2 -107 -30 -40 -20 -79 -36 -85 -36 -6 0 -65 54 -131 120 -65
66 -123 120 -128 120 -29 0 -111 -105 -155 -197 -14 -29 -28 -53 -32 -53 -3 0
-36 28 -73 63 -63 59 -160 120 -220 137 -15 4 -51 4 -79 -1 -41 -8 -59 -6
-101 11 -68 26 -101 25 -161 -5 -56 -29 -104 -31 -174 -10 -74 22 -97 19 -167
-26 -40 -27 -67 -38 -75 -33 -125 90 -198 124 -269 124 -40 0 -190 -72 -204
-99 -7 -12 -9 -57 -4 -125 3 -61 2 -106 -3 -106 -5 0 -24 33 -42 73 -43 95
-150 239 -190 256 -26 11 -46 9 -144 -12 -62 -13 -130 -32 -150 -41 l-37 -16
-37 46 c-45 54 -115 97 -156 96 -46 -1 -101 -46 -185 -149 -41 -51 -77 -93
-79 -93 -2 0 -18 28 -35 62 -68 134 -145 225 -226 266 -32 16 -50 18 -114 13
-75 -6 -79 -8 -128 -54 -49 -46 -51 -47 -75 -32 -17 11 -35 14 -60 9 l-36 -6
0 64 c0 76 -12 91 -86 114 -157 47 -272 -23 -367 -225 -32 -68 -41 -81 -49
-67 -18 31 -58 155 -94 289 -45 166 -88 278 -117 304 -12 12 -55 31 -95 43
-64 20 -79 21 -116 10 -42 -11 -45 -11 -86 19 -54 39 -70 39 -114 0 l-35 -31
-34 26 c-48 37 -83 34 -129 -11 l-38 -37 0 151 c0 91 -4 154 -10 158 -6 3 -10
19 -10 34 0 44 -20 54 -92 46 -35 -4 -72 -13 -84 -20 -11 -7 -37 -20 -56 -28
l-35 -15 1 56 1 55 -63 43 c-95 66 -150 79 -322 79 -135 -1 -207 -11 -282 -40
-10 -4 -18 -3 -18 3 0 15 154 243 200 295 48 54 86 77 128 77 34 0 82 34 82
58 0 9 -11 28 -25 42 -19 19 -28 47 -40 112 -8 47 -28 141 -45 208 -40 164
-35 170 33 44 38 -71 45 -79 74 -82 29 -3 34 1 52 39 26 54 26 65 -4 331 -29
244 -51 366 -89 477 -14 41 -24 77 -22 79 7 7 82 -90 138 -178 31 -50 77 -141
103 -203 118 -283 107 -262 141 -265 25 -2 37 4 64 35 l33 37 -6 161 c-6 142
-16 241 -32 313 -9 40 9 23 62 -56 85 -127 109 -143 161 -106 22 15 23 14 34
-18 22 -64 96 -198 148 -268 124 -167 270 -244 542 -285 54 -8 114 -15 133
-15 29 0 37 -5 51 -32 43 -84 197 -214 311 -264 174 -77 461 -90 658 -28 l51
15 54 -37 c69 -46 126 -71 215 -94 84 -21 80 -13 91 -233 6 -140 8 -149 31
-167 26 -20 50 -17 71 8 33 42 -2 430 -73 807 -20 105 -39 201 -42 214 -28
112 177 -246 277 -485 23 -54 66 -151 96 -214 30 -64 54 -122 54 -131 0 -9 9
-24 20 -34 29 -26 67 -13 78 28 6 22 14 32 27 32 15 0 22 -17 40 -97 12 -53
27 -104 35 -112 15 -19 61 -21 78 -4 16 16 15 79 -3 153 -8 33 -15 65 -15 71
0 12 98 77 109 72 4 -2 25 -23 48 -48 l41 -45 -23 -67 c-12 -36 -32 -82 -44
-101 -29 -47 -27 -82 4 -103 36 -23 65 -8 96 50 13 25 26 46 30 46 3 0 13 -18
23 -41 22 -49 49 -62 95 -43 44 18 41 19 97 -19 27 -18 57 -36 66 -40 22 -8
68 29 68 55 0 48 -146 145 -200 133 -23 -5 -31 -2 -40 14 -6 12 -9 21 -7 21 2
0 39 -9 82 -20 120 -31 236 -26 362 14 17 5 33 -3 76 -42 71 -64 174 -125 267
-158 57 -20 101 -27 185 -31 100 -5 117 -3 188 21 43 14 110 42 149 62 l71 36
74 -11 c114 -17 275 -13 381 8 261 54 507 259 624 517 l32 72 190 4 c290 8
495 59 745 185 l126 64 14 -23 c8 -13 49 -57 90 -99 62 -62 90 -81 152 -107
152 -63 309 -74 495 -36 41 9 77 14 79 12 2 -2 -7 -58 -20 -123 -14 -66 -25
-139 -25 -162 0 -28 -4 -43 -13 -43 -15 0 -79 42 -125 82 -24 21 -40 27 -55
22 -34 -10 -92 -71 -122 -128 -16 -28 -29 -52 -30 -54 -2 -2 -15 9 -31 23 -15
14 -39 28 -52 32 -36 9 -89 -23 -131 -79 -21 -29 -43 -48 -55 -48 -11 0 -50
-10 -88 -22 -58 -19 -73 -20 -101 -10 -19 7 -60 12 -92 12 -64 0 -95 -18 -95
-55 0 -41 24 -59 91 -68 143 -19 170 -19 219 -3 27 9 65 16 85 16 49 0 67 11
109 70 l36 50 51 -40 c54 -43 105 -53 132 -26 8 8 24 46 37 85 12 39 28 75 36
82 10 8 33 1 95 -30 91 -46 120 -50 165 -22 29 18 32 24 38 93 12 126 69 357
96 393 9 11 80 190 80 200 0 11 121 290 129 298 5 5 11 -72 13 -170 7 -239 41
-382 122 -507 18 -28 40 -63 49 -78 20 -32 66 -38 87 -13 6 8 16 49 21 92 9
72 43 226 55 245 3 4 13 8 23 8 13 0 24 -20 44 -80 37 -110 147 -339 201 -414
48 -67 118 -136 139 -136 25 0 57 31 57 56 0 15 -20 49 -51 87 -72 89 -215
381 -243 499 -5 21 -1 32 16 49 52 48 60 51 124 34 169 -44 333 0 469 126 33
31 89 71 124 90 80 42 215 167 294 274 61 81 125 203 148 285 l14 45 5 -83 c5
-87 13 -102 57 -102 40 0 49 22 61 159 24 252 103 440 278 663 61 78 185 210
192 204 2 -3 -15 -60 -37 -128z m-3607 -1059 c12 -62 5 -83 -85 -227 -143
-230 -135 -220 -176 -231 -20 -6 -39 -9 -41 -6 -5 5 281 494 289 495 4 0 9
-14 13 -31z m64 -292 c-3 -19 -132 -96 -144 -85 -6 6 44 96 90 162 l20 29 18
-43 c11 -24 18 -52 16 -63z m1495 -257 c9 -8 -12 -100 -23 -100 -9 0 -30 70
-30 99 0 19 4 21 23 16 12 -4 26 -11 30 -15z"/>
<path d="M6543 14390 c-85 -30 -160 -78 -234 -149 -75 -72 -86 -103 -49 -136
22 -20 30 -18 135 19 72 26 201 46 291 46 68 0 94 21 101 81 14 126 -101 191
-244 139z m160 -78 c11 -9 17 -26 15 -41 -3 -25 -5 -26 -103 -33 -55 -3 -120
-11 -145 -17 -70 -16 -77 -14 -49 15 25 27 146 89 189 97 35 6 72 -2 93 -21z"/>
<path d="M8375 14108 c-40 -14 -65 -37 -59 -53 3 -7 -2 -24 -10 -38 -15 -22
-15 -26 1 -44 10 -11 56 -49 103 -84 127 -95 220 -178 230 -205 21 -54 70 -36
70 26 0 55 -36 185 -67 242 -49 89 -157 170 -223 167 -8 0 -28 -5 -45 -11z
m138 -108 c41 -36 105 -145 93 -158 -4 -3 -19 4 -34 16 -15 11 -69 51 -119 88
-51 36 -93 70 -93 75 0 12 60 26 87 21 13 -2 42 -21 66 -42z"/>
<path d="M5755 13390 c-15 -17 -16 -24 -7 -45 18 -39 135 -119 277 -189 l130
-65 18 -70 c18 -68 61 -142 99 -169 49 -35 -2 -41 -132 -16 -103 19 -172 50
-232 103 -50 44 -68 50 -88 26 -18 -21 2 -57 55 -100 89 -72 207 -113 357
-122 92 -6 118 2 118 37 0 16 8 17 63 13 51 -4 73 -1 115 17 52 23 133 99 155
148 9 19 18 22 68 22 54 0 89 15 89 39 0 23 -41 39 -114 45 -127 11 -403 64
-498 96 -143 48 -319 143 -401 216 -43 40 -48 41 -72 14z m834 -396 c13 -12
-24 -21 -50 -12 -49 17 -47 32 2 24 24 -4 46 -9 48 -12z m-279 -34 c0 -5 -4
-10 -9 -10 -6 0 -13 5 -16 10 -3 6 1 10 9 10 9 0 16 -4 16 -10z m87 -46 c7
-20 -11 -38 -32 -30 -13 4 -14 10 -5 26 13 24 28 26 37 4z m109 -10 c-3 -9 -6
-18 -6 -20 0 -2 -7 -4 -15 -4 -18 0 -19 12 -3 28 17 17 31 15 24 -4z"/>
<path d="M6403 13304 c-14 -10 -15 -17 -8 -29 16 -26 124 -67 180 -69 47 -1
50 1 50 24 0 21 -7 26 -50 36 -27 6 -73 21 -102 32 -44 17 -55 18 -70 6z"/>
<path d="M8010 12906 c0 -32 16 -37 136 -43 87 -5 102 -4 107 11 13 32 -3 43
-71 50 -37 3 -91 6 -119 6 -49 0 -53 -2 -53 -24z"/>
<path d="M7750 12845 c-6 -8 -9 -22 -6 -32 9 -28 100 -79 201 -111 l89 -29 18
-68 c21 -84 58 -140 123 -183 69 -46 70 -56 4 -48 -104 13 -151 34 -242 108
-25 20 -28 21 -43 6 -26 -26 -9 -63 46 -107 66 -52 146 -81 245 -88 86 -6 100
0 107 45 3 21 9 24 68 26 122 5 213 81 244 203 l12 48 52 3 c58 3 81 26 63 60
-12 22 -97 32 -278 32 -63 0 -157 5 -210 11 -116 13 -315 68 -397 109 -67 34
-79 36 -96 15z m758 -232 c-10 -2 -28 -2 -40 0 -13 2 -5 4 17 4 22 1 32 -1 23
-4z m-258 -80 c0 -30 -17 -50 -31 -36 -8 8 -8 16 0 32 14 26 31 27 31 4z m190
-21 c0 -10 -7 -27 -15 -38 -13 -18 -14 -17 -15 19 0 26 4 37 15 37 8 0 15 -8
15 -18z m-95 -12 c9 -15 -4 -50 -20 -50 -19 0 -27 17 -20 40 7 21 30 27 40 10z"/>
<path d="M7200 12415 c-19 -22 6 -44 92 -79 86 -36 139 -82 171 -150 31 -64
38 -70 180 -131 133 -59 194 -110 238 -202 78 -163 91 -422 31 -604 -54 -162
-94 -200 -253 -236 -48 -10 -80 -24 -94 -39 -11 -12 -36 -67 -54 -121 -18 -55
-42 -117 -54 -138 -32 -56 -88 -76 -248 -84 -120 -6 -128 -8 -185 -42 -80 -48
-116 -59 -186 -59 -64 0 -99 14 -160 63 -33 27 -41 29 -63 19 -43 -20 -33 -58
28 -114 109 -101 235 -102 407 -2 46 27 69 33 140 38 177 14 290 51 336 111
14 19 41 80 60 137 19 56 40 111 48 122 8 13 34 24 74 32 179 37 248 116 313
360 45 168 18 421 -60 580 -55 111 -121 171 -256 235 -57 27 -108 49 -113 49
-13 0 -46 40 -68 83 -27 55 -85 104 -169 143 -90 43 -136 52 -155 29z"/>
<path d="M6727 11823 c-11 -10 -8 -49 5 -77 6 -14 43 -48 82 -75 109 -75 116
-86 105 -146 -12 -63 -31 -82 -95 -94 -78 -15 -140 4 -200 61 -36 34 -67 34
-72 0 -7 -48 117 -132 194 -132 13 0 32 -14 49 -36 34 -44 105 -78 147 -70 16
3 42 15 58 26 l28 20 29 -24 c46 -38 86 -56 106 -45 29 17 19 37 -37 78 -64
48 -106 122 -106 188 0 38 4 46 33 63 17 11 61 30 97 41 123 41 170 74 170
121 0 33 -31 68 -61 68 -12 0 -42 -17 -68 -39 -78 -65 -163 -121 -185 -121
-12 0 -60 40 -121 100 -74 72 -109 100 -127 100 -14 0 -28 -3 -31 -7z m243
-443 c11 -27 11 -32 -6 -45 -26 -20 -54 -18 -88 4 l-28 19 48 25 c27 14 52 26
55 26 4 1 12 -13 19 -29z"/>
<path d="M6465 10335 c-14 -13 -25 -31 -25 -40 0 -8 -8 -15 -18 -15 -11 0 -26
-8 -35 -17 -8 -10 -66 -120 -128 -245 -97 -195 -111 -229 -99 -243 33 -40 51
-18 170 217 63 126 118 228 122 228 4 0 19 -15 33 -34 l26 -34 -112 -236 c-95
-200 -110 -238 -99 -251 21 -25 53 -14 73 25 10 19 56 116 103 214 l85 179 29
-28 c17 -16 30 -34 30 -41 0 -6 -39 -93 -86 -193 -48 -102 -84 -191 -82 -204
3 -25 32 -34 52 -18 8 7 54 97 102 201 l89 190 47 0 c26 0 49 -3 51 -7 2 -5
-40 -105 -94 -223 -55 -118 -99 -218 -99 -222 0 -4 7 -14 16 -23 14 -13 19
-14 36 -3 10 7 66 117 124 243 58 127 112 235 120 241 15 12 133 38 140 32 1
-2 -53 -121 -121 -265 -69 -144 -125 -271 -125 -281 0 -19 18 -32 44 -32 7 0
79 140 161 311 139 290 152 312 183 325 40 17 42 17 42 5 0 -5 -61 -136 -135
-291 -74 -155 -135 -292 -135 -305 0 -24 21 -38 44 -29 7 3 89 161 181 352 92
191 176 358 186 371 27 34 24 75 -7 100 -37 29 -52 27 -147 -18 -106 -50 -172
-69 -277 -79 -93 -9 -175 0 -229 26 -19 9 -69 45 -110 79 -42 35 -82 63 -89
63 -7 0 -24 -11 -37 -25z"/>
<path d="M6257 10303 c-2 -4 -59 -111 -126 -236 -120 -225 -132 -257 -96 -271
27 -10 53 30 171 253 91 174 115 227 107 240 -11 17 -48 27 -56 14z"/>
<path d="M7452 10278 c-20 -25 -333 -733 -330 -747 2 -7 11 -19 20 -25 14 -8
22 -7 36 9 11 11 92 183 181 383 133 296 161 365 151 377 -15 18 -44 19 -58 3z"/>
<path d="M7351 9498 c-49 -87 -97 -135 -169 -170 -59 -29 -76 -33 -152 -33
-88 0 -117 9 -213 67 -37 22 -38 23 -52 4 -19 -26 -6 -47 53 -85 79 -50 130
-64 230 -59 127 6 190 33 272 117 70 71 128 167 117 194 -4 10 -17 17 -31 17
-19 0 -31 -12 -55 -52z"/>
<path d="M4939 9474 c-22 -27 -25 -285 -5 -378 32 -142 100 -247 191 -295 48
-25 68 -26 86 -5 17 20 3 42 -42 67 -82 45 -129 113 -159 233 -17 65 -21 105
-19 225 2 80 -1 151 -5 157 -10 17 -31 15 -47 -4z"/>
<path d="M12706 9427 c-10 -7 -17 -22 -15 -33 3 -15 15 -20 59 -24 51 -5 56
-8 72 -40 10 -19 18 -54 18 -77 0 -47 22 -69 53 -52 13 8 17 23 17 62 0 64
-28 127 -68 155 -35 25 -108 30 -136 9z"/>
<path d="M12384 9305 c-11 -28 4 -42 50 -49 34 -5 52 -15 77 -43 29 -34 31
-40 26 -90 -5 -45 -3 -55 14 -67 26 -18 60 -79 74 -136 9 -34 18 -46 33 -48
58 -9 47 105 -15 167 -34 34 -36 40 -34 93 3 78 -34 140 -106 177 -33 17 -112
14 -119 -4z"/>
<path d="M8812 9228 c-21 -21 -13 -36 33 -68 93 -64 156 -174 177 -310 15 -94
0 -138 -68 -206 -30 -30 -54 -58 -54 -62 0 -15 24 -32 45 -32 18 0 24 -9 33
-51 7 -28 12 -61 12 -73 0 -28 -52 -111 -79 -125 -25 -14 -36 -48 -21 -66 19
-23 36 -18 79 21 49 43 91 126 90 173 -1 54 -22 113 -44 125 -11 6 -22 12 -24
14 -3 1 11 19 31 40 60 62 73 96 73 192 0 160 -71 310 -188 396 -63 47 -76 51
-95 32z"/>
<path d="M10742 9048 c-20 -20 -14 -35 28 -70 54 -44 113 -123 154 -205 65
-131 114 -328 103 -420 -7 -67 -61 -167 -112 -209 -47 -38 -56 -63 -29 -85 13
-10 20 -10 45 5 28 16 29 16 37 -1 17 -43 6 -111 -27 -164 -34 -56 -37 -92 -8
-97 25 -5 54 24 84 81 34 67 40 132 18 200 l-17 55 26 44 c76 130 76 270 0
496 -47 140 -133 274 -221 344 -52 41 -63 44 -81 26z"/>
<path d="M5293 8934 c-9 -23 31 -139 66 -189 32 -48 107 -100 164 -116 91 -24
217 11 325 90 35 26 43 37 40 59 -4 38 -30 39 -83 2 -128 -88 -222 -105 -314
-55 -61 34 -74 51 -116 149 -23 54 -36 72 -53 74 -14 2 -25 -3 -29 -14z"/>
<path d="M3946 8758 c-22 -35 -62 -173 -76 -260 -27 -166 3 -273 104 -373 77
-77 141 -105 242 -105 86 0 109 11 102 47 -3 15 -17 19 -90 24 -102 7 -151 31
-222 110 -49 55 -76 123 -76 193 1 63 26 188 55 276 15 45 24 87 21 95 -8 23
-44 18 -60 -7z"/>
<path d="M12024 8655 c-4 -9 2 -66 11 -128 10 -61 18 -164 19 -227 1 -139 -14
-191 -79 -270 -49 -60 -55 -84 -25 -100 40 -21 134 94 166 205 14 49 16 84 11
195 -6 131 -29 286 -48 322 -12 22 -47 24 -55 3z"/>
<path d="M5902 8648 c-19 -19 -14 -34 25 -68 111 -98 320 -123 287 -35 -4 10
-20 15 -50 15 -52 0 -133 29 -194 70 -51 34 -52 34 -68 18z"/>
<path d="M7446 8129 c-24 -19 -26 -27 -26 -93 0 -85 -17 -147 -54 -202 -32
-48 -33 -84 -3 -112 48 -45 102 -20 148 69 62 123 66 302 6 344 -28 20 -39 19
-71 -6z"/>
<path d="M4390 8075 c-8 -10 -10 -30 -5 -62 10 -67 71 -127 148 -142 56 -12
82 -8 90 14 9 21 -22 55 -49 55 -64 0 -124 49 -124 100 0 44 -35 65 -60 35z"/>
<path d="M9323 8038 c-6 -7 -13 -28 -17 -47 -9 -48 -49 -97 -112 -137 -55 -36
-65 -53 -40 -74 20 -16 90 15 144 65 72 65 106 171 63 195 -25 13 -26 13 -38
-2z"/>
<path d="M11854 7876 c-3 -9 2 -48 11 -87 21 -86 15 -129 -25 -185 -33 -47
-38 -79 -14 -88 47 -18 114 82 120 177 6 83 -29 190 -64 195 -13 2 -25 -3 -28
-12z"/>
<path d="M9101 7737 c-6 -8 -15 -44 -20 -82 -15 -103 -60 -185 -155 -281 -138
-139 -294 -224 -411 -224 -58 0 -89 -17 -83 -46 3 -17 12 -19 99 -18 89 0 101
3 174 37 250 119 434 336 452 535 5 56 4 67 -12 78 -23 17 -30 17 -44 1z"/>
<path d="M4580 7484 c-100 -15 -153 -30 -207 -55 l-62 -29 -36 24 c-44 30
-104 42 -206 39 -173 -3 -483 -131 -576 -236 -28 -32 -29 -32 -108 -29 -96 4
-238 -24 -317 -63 -64 -31 -193 -126 -261 -192 -69 -66 -105 -118 -122 -175
-17 -57 -7 -89 31 -107 40 -18 71 2 98 61 45 100 243 261 365 298 119 36 188
39 307 15 28 -6 35 -3 60 31 74 98 149 143 353 211 117 39 224 48 294 24 27
-9 46 -10 66 -3 25 9 32 7 47 -10 22 -24 47 -21 153 17 58 21 94 27 170 28
l97 2 112 -55 c92 -44 122 -64 163 -109 121 -135 126 -138 190 -144 110 -10
222 -97 253 -198 41 -128 45 -137 91 -163 25 -13 60 -30 80 -36 59 -19 95 -56
95 -97 0 -48 49 -98 88 -90 19 4 49 -5 97 -29 39 -18 142 -57 230 -85 217 -69
208 -65 200 -92 -15 -47 -88 -195 -132 -266 -64 -102 -65 -103 -288 -85 -99 8
-234 20 -300 28 -66 8 -150 18 -188 22 -37 3 -70 11 -73 16 -3 5 5 23 19 41
31 42 67 112 82 161 11 38 14 40 73 52 69 14 88 23 155 71 62 46 83 84 66 124
-24 59 -77 65 -136 14 -51 -43 -117 -74 -160 -75 -32 0 -73 -37 -73 -65 0 -7
-11 -20 -25 -29 -14 -9 -38 -45 -53 -79 -55 -120 -128 -176 -230 -177 -60 0
-107 17 -160 58 -44 33 -85 52 -113 52 -38 0 -88 32 -110 69 -48 80 -83 82
-154 7 -104 -108 -206 -291 -246 -441 -32 -118 -33 -313 -1 -412 18 -59 28
-76 52 -88 39 -20 43 -19 79 11 24 20 34 23 49 15 14 -7 25 -6 43 7 50 34 554
516 563 538 9 22 42 34 91 34 12 0 28 7 36 16 17 20 69 47 77 39 3 -3 -125
-137 -286 -298 -161 -161 -292 -300 -292 -309 0 -10 10 -22 21 -29 20 -10 33
0 143 108 299 295 448 438 457 441 16 6 59 -8 59 -19 0 -5 -68 -87 -150 -181
-157 -179 -174 -210 -119 -216 23 -3 48 22 194 190 93 106 175 193 182 192 7
0 29 -1 48 -2 19 -1 35 -7 35 -13 0 -6 -31 -49 -70 -95 -72 -88 -79 -101 -58
-122 25 -25 47 -9 134 98 87 107 109 123 141 102 10 -6 1 -24 -30 -68 -24 -32
-56 -78 -72 -102 -27 -41 -27 -43 -10 -62 26 -28 44 -14 120 93 47 65 65 99
62 115 -4 22 -3 22 62 16 36 -4 68 -9 71 -11 2 -2 -20 -25 -49 -51 -42 -37
-52 -52 -50 -72 7 -45 42 -37 104 21 44 42 55 58 51 75 -6 22 -3 22 97 26 97
3 105 5 146 35 24 18 60 54 81 82 45 59 131 225 166 318 14 36 36 80 50 95 27
33 29 46 13 82 -15 32 -43 45 -224 100 -150 46 -278 91 -368 129 -37 15 -56
32 -81 72 -37 57 -107 109 -171 127 -53 15 -57 21 -83 104 -29 93 -68 151
-139 203 -82 61 -148 92 -208 98 -50 5 -54 8 -95 64 -56 77 -123 128 -250 188
-136 64 -216 80 -320 65z m44 -1476 c9 -15 0 -29 -59 -88 -96 -96 -96 -80 -2
78 20 35 43 39 61 10z m170 -69 c9 -8 -351 -368 -377 -378 -6 -2 -8 17 -5 51
l4 54 144 147 143 147 41 -6 c23 -4 45 -10 50 -15z m137 -81 c32 -13 58 -27
56 -31 -1 -5 -124 -123 -272 -262 -176 -166 -272 -250 -277 -242 -4 7 -13 36
-20 66 l-12 54 225 218 c123 120 228 218 233 219 5 0 35 -10 67 -22z"/>
<path d="M6855 6851 c-4 -13 4 -46 19 -85 80 -199 74 -424 -18 -667 -40 -108
-42 -121 -21 -139 38 -32 72 8 120 141 54 154 68 240 63 397 -4 117 -9 149
-33 220 -16 46 -38 98 -49 115 -27 39 -71 49 -81 18z"/>
<path d="M9924 6634 c-70 -33 -140 -97 -186 -169 -43 -67 -48 -108 -12 -113
17 -2 30 10 58 57 47 77 110 132 191 166 66 28 84 48 64 71 -17 21 -58 16
-115 -12z"/>
<path d="M11154 6535 c-4 -9 9 -45 29 -85 42 -82 62 -164 53 -215 -10 -49 -74
-118 -142 -150 -59 -28 -78 -51 -63 -78 13 -23 34 -21 96 7 66 31 136 96 163
150 39 82 16 230 -53 333 -34 51 -72 68 -83 38z"/>
<path d="M6648 6489 c-15 -8 -18 -25 -18 -103 0 -130 -24 -253 -70 -364 -22
-52 -40 -103 -40 -112 0 -24 25 -42 52 -38 45 6 121 206 140 365 12 111 4 225
-19 248 -17 17 -22 18 -45 4z"/>
<path d="M9557 6365 c-26 -7 -81 -29 -122 -48 -163 -78 -262 -169 -334 -306
-47 -90 -51 -134 -14 -139 17 -3 27 9 57 71 20 41 54 98 76 126 76 96 231 191
370 226 73 19 90 29 90 55 0 32 -42 37 -123 15z"/>
<path d="M8640 6249 c-27 -16 -47 -19 -86 -16 -55 6 -74 -4 -74 -35 0 -11 -7
-18 -19 -18 -12 0 -33 -18 -52 -45 -40 -56 -132 -128 -206 -162 -103 -47 -185
-42 -343 22 -88 35 -110 34 -110 -6 0 -33 174 -108 287 -124 103 -14 249 45
355 144 71 65 101 105 101 135 0 22 2 23 66 19 55 -4 74 -1 111 19 38 19 45
28 45 53 0 38 -26 43 -75 14z"/>
<path d="M3375 6166 c-35 -16 -67 -49 -89 -91 l-16 -30 -92 3 c-140 5 -218
-31 -278 -125 -38 -60 -46 -129 -26 -216 19 -79 44 -133 87 -182 38 -43 62
-57 83 -49 27 10 18 45 -23 89 -55 60 -84 142 -79 230 4 79 19 108 82 149 53
35 130 43 213 22 75 -18 87 -13 97 37 9 45 44 86 91 101 44 16 61 35 52 60 -8
20 -59 21 -102 2z"/>
<path d="M11027 5969 c-24 -14 -21 -28 18 -84 41 -56 75 -158 75 -219 0 -58
-46 -147 -115 -223 -69 -77 -74 -125 -10 -109 33 8 151 159 175 224 39 104 17
237 -57 349 -40 61 -61 76 -86 62z"/>
<path d="M5387 5489 c-27 -16 -47 -62 -36 -82 19 -34 59 -16 88 40 9 17 8 25
-5 37 -18 19 -23 19 -47 5z"/>
<path d="M11652 4463 c-32 -13 -32 -41 -3 -145 44 -152 53 -218 53 -373 0
-110 -6 -173 -27 -290 -36 -196 -36 -203 -3 -228 25 -19 28 -19 52 -3 31 20
48 74 77 251 41 243 27 469 -41 670 -39 114 -60 138 -108 118z"/>
<path d="M2095 4216 c-32 -33 -48 -96 -39 -164 18 -156 129 -265 284 -279 53
-5 58 -4 78 22 27 34 27 46 5 74 -12 14 -34 23 -68 27 -56 6 -127 43 -150 78
-18 28 -36 114 -24 122 12 7 99 -40 144 -79 23 -19 54 -55 70 -79 16 -23 36
-51 44 -61 8 -10 16 -23 17 -30 23 -120 33 -137 82 -137 30 0 125 50 177 92
98 82 99 230 1 316 -20 17 -45 32 -55 32 -27 0 -114 -71 -141 -114 l-22 -36
-68 73 c-71 76 -130 114 -226 147 -73 25 -80 25 -109 -4z m573 -246 c2 -13 -1
-32 -8 -44 -12 -24 -78 -72 -86 -64 -7 8 21 72 47 109 24 34 42 34 47 -1z"/>
<path d="M11886 4072 c-14 -17 -15 -30 -5 -119 7 -68 7 -127 0 -189 -8 -73 -7
-93 5 -111 18 -29 64 -30 89 -3 38 42 29 377 -12 422 -21 23 -55 23 -77 0z"/>
<path d="M3817 4042 c-9 -10 -27 -43 -41 -74 l-25 -56 -64 5 c-59 5 -65 4 -81
-18 -19 -28 -20 -49 -3 -73 14 -20 175 -51 212 -42 12 3 30 22 42 42 l20 36
27 -58 c15 -32 34 -66 43 -76 36 -40 102 -4 89 47 -13 53 -101 241 -123 263
-27 27 -74 29 -96 4z"/>
<path d="M8487 3712 c-22 -24 -21 -55 1 -75 28 -26 136 -23 162 3 11 11 20 27
20 35 0 8 -9 24 -20 35 -28 28 -139 29 -163 2z"/>
<path d="M8313 3694 c-15 -24 -15 -29 -2 -53 28 -49 99 -32 99 24 0 55 -67 75
-97 29z"/>
<path d="M10810 3594 c-52 -35 -114 -83 -138 -105 -63 -59 -120 -152 -133
-218 l-11 -56 -102 0 c-98 0 -105 -2 -177 -37 -83 -41 -105 -68 -94 -117 13
-58 128 -135 226 -150 86 -14 157 14 251 98 31 28 64 51 75 51 29 0 116 45
157 81 51 44 81 94 111 183 50 148 22 337 -49 336 -12 0 -64 -30 -116 -66z
m56 -229 c-23 -77 -70 -134 -138 -169 -65 -32 -88 -29 -88 11 0 74 91 198 195
267 l40 26 3 -40 c2 -23 -4 -65 -12 -95z m-341 -274 c8 -14 -50 -51 -90 -58
-36 -6 -125 21 -125 37 0 16 56 28 132 29 42 1 79 -3 83 -8z"/>
<path d="M7490 3570 c-31 -33 -79 -141 -106 -238 l-18 -63 -24 30 c-47 61 -81
33 -132 -107 -40 -109 -79 -259 -87 -335 -7 -64 11 -97 52 -97 36 0 51 29 79
159 26 119 95 346 102 338 2 -2 -4 -41 -12 -88 -12 -61 -15 -118 -11 -210 5
-149 20 -189 67 -189 49 0 60 29 50 130 -16 150 19 345 96 530 48 116 50 124
25 149 -29 29 -48 26 -81 -9z"/>
<path d="M4473 3420 c-119 -61 -145 -164 -63 -245 l39 -38 -29 -34 c-43 -48
-63 -92 -64 -139 -2 -93 116 -183 209 -160 40 10 103 74 117 117 11 37 13 39
53 39 126 0 245 104 245 214 0 76 -108 145 -205 131 -39 -6 -40 -5 -64 40 -33
63 -72 88 -140 93 -43 2 -66 -2 -98 -18z m127 -121 c13 -24 18 -104 8 -114 -8
-8 -99 47 -119 72 -11 13 -9 19 14 39 35 30 82 32 97 3z m245 -144 c0 -41
-103 -82 -143 -56 -10 6 -3 18 30 45 34 30 49 36 78 34 27 -2 35 -7 35 -23z
m-275 -158 c0 -41 -17 -67 -44 -67 -53 0 -58 55 -9 104 25 26 28 26 40 10 7
-10 13 -31 13 -47z"/>
<path d="M10887 15486 c-3 -7 -1 -44 3 -82 14 -107 12 -282 -5 -380 -26 -153
-67 -253 -131 -324 -38 -42 -42 -73 -8 -78 31 -4 100 76 140 163 48 105 74
220 81 366 5 112 -8 293 -24 336 -7 17 -49 17 -56 -1z"/>
<path d="M11249 15034 c-7 -8 -21 -41 -32 -72 -27 -82 -110 -264 -149 -329
-70 -117 -169 -203 -304 -264 -53 -24 -64 -33 -64 -53 0 -34 20 -37 83 -12
221 91 347 241 472 565 47 121 52 156 27 170 -15 8 -23 7 -33 -5z"/>
<path d="M10554 12764 c-317 -199 -632 -509 -870 -859 -97 -142 -196 -293
-228 -345 -15 -25 -38 -60 -52 -79 -30 -42 -32 -93 -4 -121 25 -25 54 -25 94
-1 20 13 74 25 156 35 69 9 175 24 235 32 69 10 196 17 343 18 216 3 233 4
247 22 31 41 14 96 -36 113 -82 28 -376 22 -619 -14 -150 -22 -195 -23 -194
-4 1 20 227 349 320 466 191 239 431 462 677 627 80 54 92 66 95 94 5 45 -13
72 -47 72 -17 0 -64 -22 -117 -56z"/>
<path d="M11358 12077 c-7 -8 -54 -73 -103 -145 -50 -72 -97 -131 -105 -131
-8 0 -76 18 -150 40 -185 55 -175 54 -199 30 -25 -25 -27 -63 -5 -82 9 -8 56
-64 105 -127 l88 -112 -117 -170 c-64 -93 -127 -173 -139 -179 -43 -20 -38
-92 7 -106 17 -5 193 55 451 154 26 9 31 5 138 -134 61 -79 118 -151 127 -160
20 -19 68 -19 84 0 13 16 11 135 -6 345 l-6 75 148 54 c82 29 159 59 172 67
28 18 30 66 3 93 -10 10 -83 36 -174 61 -86 24 -161 46 -167 50 -6 4 -17 82
-26 181 -11 129 -19 178 -31 191 -19 21 -76 24 -95 5z m17 -269 l7 -77 -48 15
c-26 8 -49 15 -50 17 -2 1 15 31 38 65 22 34 42 61 43 60 2 -2 6 -38 10 -80z
m-297 -110 c9 -2 9 -8 -3 -26 l-16 -22 -25 29 c-31 37 -30 42 4 31 15 -5 33
-10 40 -12z m222 -62 l85 -23 8 -39 c4 -21 7 -59 5 -83 -3 -44 -3 -44 -63 -67
-33 -13 -65 -23 -71 -23 -6 -1 -38 34 -72 76 l-60 77 36 53 c20 29 39 53 42
53 3 0 43 -11 90 -24z m323 -96 c11 -10 -89 -44 -103 -35 -5 3 -10 21 -10 39
l0 34 53 -15 c28 -9 56 -19 60 -23z m-493 -172 c8 -13 4 -18 -18 -26 -15 -5
-57 -21 -94 -35 -38 -15 -68 -23 -68 -19 0 4 26 43 57 86 l56 79 29 -34 c16
-19 33 -41 38 -51z m292 -120 c2 -38 3 -68 3 -68 -1 0 -23 27 -49 60 -51 66
-52 60 14 82 23 8 28 -2 32 -74z"/>
<path d="M13317 10543 c-17 -16 -2 -41 64 -110 118 -124 197 -263 240 -420 18
-67 20 -92 15 -183 -13 -192 -13 -185 11 -188 24 -4 34 21 52 122 23 127 6
244 -59 399 -77 186 -280 424 -323 380z"/>
<path d="M13966 9991 c-4 -5 3 -49 15 -98 35 -146 14 -282 -62 -396 -36 -54
-35 -82 1 -82 50 0 120 139 139 278 17 125 -23 307 -68 307 -11 0 -22 -4 -25
-9z"/>
</g>
</svg>
