<?xml version="1.0" standalone="no"?>
<!DOCTYPE svg PUBLIC "-//W3C//DTD SVG 20010904//EN"
 "http://www.w3.org/TR/2001/REC-SVG-20010904/DTD/svg10.dtd">
<svg version="1.0" xmlns="http://www.w3.org/2000/svg"
 width="1500.000000pt" height="1800.000000pt" viewBox="0 0 1500.000000 1800.000000"
 preserveAspectRatio="xMidYMid meet">

<g transform="translate(0.000000,1800.000000) scale(0.100000,-0.100000)"
fill="#000000" stroke="none">
<path d="M12393 17625 c-20 -16 -28 2 67 -163 62 -107 142 -302 176 -428 35
-132 43 -302 19 -429 -16 -85 -16 -90 1 -102 10 -7 21 -13 26 -13 35 0 73 202
65 336 -14 206 -126 514 -268 740 -44 69 -58 79 -86 59z"/>
<path d="M7436 17351 c-8 -13 -34 -183 -47 -315 -14 -145 -6 -386 15 -476 37
-149 216 -440 282 -456 23 -6 54 9 54 27 0 4 -23 34 -51 66 -163 184 -239 382
-239 625 0 100 16 304 34 425 7 47 8 89 4 98 -10 16 -43 20 -52 6z"/>
<path d="M12255 17293 c-20 -19 -19 -20 48 -132 64 -106 113 -234 128 -335 17
-110 23 -131 42 -134 37 -7 49 17 41 87 -14 140 -73 298 -163 439 -56 87 -72
100 -96 75z"/>
<path d="M12112 16963 c-12 -10 -41 -74 -67 -148 -79 -220 -183 -414 -384
-715 -167 -248 -152 -231 -185 -225 -16 3 -40 5 -55 5 -21 0 -33 11 -61 58
-77 129 -211 239 -355 288 -71 25 -94 28 -200 27 -102 0 -133 -4 -205 -28
-130 -42 -216 -89 -321 -177 l-46 -38 -49 22 c-36 17 -67 23 -120 22 -96 0
-160 -32 -270 -136 l-85 -81 -69 12 c-79 13 -245 14 -307 2 -35 -7 -45 -5 -59
10 -9 10 -48 37 -88 60 -107 63 -197 131 -346 259 -248 215 -415 407 -487 561
-42 90 -67 108 -113 84 -51 -26 -60 -82 -63 -391 -2 -249 0 -275 20 -356 48
-189 109 -294 244 -423 104 -99 243 -193 340 -231 72 -28 75 -32 63 -92 -5
-27 -11 -31 -48 -37 -215 -33 -481 -150 -614 -270 -81 -73 -167 -228 -187
-337 -4 -21 -11 -36 -15 -33 -4 3 -20 43 -35 90 -16 47 -32 88 -37 91 -4 3 -8
16 -8 29 0 13 -10 31 -22 39 -19 13 -25 14 -42 2 -15 -10 -23 -32 -32 -92 -31
-211 -139 -380 -268 -420 -63 -20 -92 -49 -81 -83 3 -11 28 -36 54 -56 75 -54
120 -110 162 -199 35 -76 99 -279 99 -316 0 -22 32 -50 57 -50 37 0 51 32 78
175 34 181 57 259 95 318 27 44 50 54 50 24 0 -21 60 -139 95 -188 l34 -47
-15 -54 c-23 -85 -29 -241 -11 -324 20 -93 67 -209 123 -308 l45 -78 -31 -78
c-65 -161 -73 -208 -75 -411 l-1 -187 -47 -52 c-25 -28 -60 -75 -76 -103 -33
-58 -96 -236 -131 -368 l-22 -86 -52 -22 c-122 -51 -242 -170 -317 -315 -29
-56 -38 -65 -79 -80 -45 -16 -49 -16 -100 4 -86 34 -207 59 -316 66 l-102 7
-11 39 c-7 21 -38 91 -71 156 -72 143 -151 234 -277 318 -49 33 -92 66 -97 74
-25 41 -148 156 -225 210 -87 62 -256 152 -386 205 -38 16 -75 33 -81 39 -6 6
-28 54 -49 106 -76 187 -143 297 -282 456 -197 226 -404 390 -641 510 -124 63
-167 75 -189 53 -8 -8 -22 -5 -50 9 -134 69 -245 68 -407 -2 -60 -26 -112 -44
-117 -39 -4 4 -13 49 -20 98 -9 67 -10 190 -3 485 15 655 12 871 -10 964 -45
181 -96 188 -241 34 -88 -93 -166 -214 -239 -372 -33 -69 -62 -126 -65 -126
-3 0 -21 23 -40 50 -47 70 -105 120 -139 120 -36 0 -117 -67 -161 -133 -52
-78 -94 -230 -112 -407 -29 -286 43 -705 154 -904 l24 -42 -98 -13 c-208 -26
-339 -79 -440 -180 -55 -56 -77 -89 -139 -212 -72 -144 -73 -146 -99 -137 -20
8 -40 5 -82 -11 -146 -55 -296 -197 -373 -353 -77 -157 -156 -438 -156 -558 0
-33 -7 -45 -45 -81 -92 -86 -211 -308 -241 -449 -18 -88 -18 -276 2 -391 9
-52 32 -139 51 -194 42 -118 43 -135 15 -240 -48 -182 -48 -388 -1 -542 45
-145 151 -316 269 -435 l67 -67 -18 -119 c-69 -477 -46 -817 82 -1205 43 -130
119 -281 177 -353 l50 -61 11 -148 c25 -326 82 -469 241 -604 50 -42 67 -63
72 -90 9 -51 57 -309 64 -350 5 -33 1 -30 -93 65 -116 117 -238 202 -367 255
-124 51 -167 58 -195 30 -38 -38 -28 -66 57 -156 87 -91 144 -173 232 -332 88
-158 219 -459 245 -564 6 -25 5 -25 -90 22 -107 53 -402 161 -505 186 -82 20
-113 13 -130 -28 -12 -28 -9 -41 23 -140 20 -60 77 -200 126 -311 76 -173 141
-330 141 -344 0 -2 -26 -4 -57 -5 -104 -1 -203 -14 -218 -30 -8 -8 -17 -28
-21 -46 -5 -27 0 -37 37 -78 24 -26 98 -95 164 -153 240 -210 323 -295 440
-453 65 -86 175 -258 175 -272 0 -3 -21 -15 -46 -27 -100 -49 -252 -226 -239
-280 10 -41 33 -56 170 -113 l130 -54 1 -184 c1 -306 14 -368 144 -704 101
-263 108 -278 143 -289 56 -20 75 -1 131 124 88 196 109 233 170 295 l59 60 8
-35 c4 -19 22 -98 39 -175 25 -116 35 -144 56 -163 31 -28 41 -25 130 33 38
25 71 45 75 45 11 0 75 -100 126 -195 64 -121 71 -125 207 -124 164 3 257 -25
340 -100 50 -47 77 -61 112 -61 26 0 26 -1 20 -42 -23 -139 -23 -336 0 -411
19 -64 66 -73 140 -25 161 103 298 178 315 173 61 -20 210 -216 329 -435 71
-129 85 -148 118 -161 37 -14 63 7 162 131 50 63 96 119 101 124 5 6 56 -39
128 -112 83 -85 127 -122 142 -122 13 0 40 16 60 36 l38 37 36 -22 c50 -29 82
-26 149 14 32 19 69 35 83 35 14 0 55 -13 91 -29 58 -25 107 -38 172 -46 8 -1
44 -12 80 -24 98 -34 208 -38 301 -12 104 29 145 27 210 -9 100 -56 162 -83
191 -82 17 0 69 17 118 36 99 41 146 44 207 17 48 -22 123 -96 158 -156 13
-22 47 -100 74 -173 124 -326 185 -389 293 -300 85 70 484 344 553 380 l70 37
58 -97 c95 -160 172 -234 224 -215 10 3 59 48 108 99 176 182 276 183 509 6
120 -91 190 -131 275 -156 64 -19 177 -21 207 -3 12 7 43 41 70 77 63 83 97
105 175 114 43 4 81 16 123 40 34 18 83 36 109 40 27 3 64 13 83 22 50 24 169
138 216 207 30 44 45 58 59 54 27 -7 163 10 225 28 68 20 110 56 153 134 19
34 40 60 45 58 6 -2 71 -78 144 -168 213 -263 257 -309 296 -309 75 0 80 36
46 315 -23 189 -43 463 -38 523 l3 42 110 -71 c150 -97 205 -122 239 -109 41
15 51 48 36 122 -33 162 -136 413 -247 602 l-47 80 23 110 c48 237 135 448
276 671 81 127 91 151 80 185 -9 28 -46 43 -179 74 -60 14 -111 28 -114 31 -8
8 28 137 62 221 49 120 88 172 268 354 90 91 169 177 177 192 21 40 7 76 -36
94 -30 13 -56 14 -172 5 -222 -18 -328 -53 -624 -206 -101 -52 -190 -95 -198
-95 -9 0 -21 24 -33 66 -11 36 -34 96 -52 134 -50 106 -95 125 -160 68 l-36
-32 7 80 c22 267 60 491 124 739 36 141 38 178 11 205 -31 31 -69 24 -165 -31
-158 -90 -228 -141 -332 -243 -97 -94 -103 -98 -103 -70 0 58 40 294 84 499
63 293 64 310 36 340 -13 14 -34 25 -46 25 -27 0 -90 -67 -193 -206 -41 -54
-77 -102 -80 -106 -4 -4 -7 79 -8 185 -1 168 -15 371 -28 417 -4 11 5 19 27
25 39 12 64 52 108 175 40 109 60 243 60 407 0 166 -13 263 -52 381 l-31 92
19 63 c25 83 25 301 1 401 -17 67 -96 239 -137 296 -26 36 -25 37 8 54 43 22
111 95 137 146 72 142 118 335 114 479 l-3 97 56 90 c30 49 128 220 218 379
89 160 182 324 205 365 140 247 260 516 332 749 l38 123 58 30 59 29 81 -27
c104 -35 203 -37 262 -7 85 44 173 158 271 352 53 105 58 111 112 142 139 77
240 172 323 304 34 52 97 185 103 216 21 112 33 148 57 179 49 62 98 151 115
209 31 107 16 262 -38 391 -14 34 -14 36 23 80 63 76 128 191 154 273 52 164
21 384 -68 478 -23 24 -25 34 -26 117 0 135 -35 302 -82 394 -25 49 -24 51 10
34 101 -53 220 -296 282 -581 22 -99 31 -115 65 -115 49 0 52 9 79 230 9 69
23 154 31 190 22 99 73 245 97 281 27 40 79 67 148 78 82 13 102 54 48 100
-101 86 -128 114 -182 186 -119 161 -173 304 -184 498 -4 71 -11 111 -19 118
-8 6 -14 17 -14 25 0 21 -37 36 -59 25 -24 -13 -30 -30 -24 -63 9 -47 -17
-201 -52 -305 -36 -108 -92 -214 -185 -353 -64 -94 -82 -115 -124 -148 l-29
-22 -24 22 c-29 27 -29 35 1 117 35 97 40 155 22 257 -29 168 -74 273 -166
383 -49 59 -49 59 -49 132 0 90 -20 170 -68 269 -29 61 -54 93 -132 170 -110
109 -170 145 -273 166 -40 8 -84 17 -97 20 -22 5 -18 10 55 83 43 43 95 107
115 140 45 75 92 200 116 313 25 114 24 341 -1 458 -35 165 -102 317 -163 370
-39 34 -62 37 -91 13z m91 -271 c84 -255 70 -543 -38 -768 -43 -90 -138 -195
-207 -230 l-49 -25 -46 40 c-60 53 -145 109 -185 123 -18 6 -35 12 -37 14 -2
2 33 54 76 116 187 264 334 518 406 700 23 60 45 108 48 108 4 0 18 -35 32
-78z m-3786 -277 c174 -203 488 -475 660 -571 35 -20 63 -40 63 -45 0 -15 -19
-10 -50 12 -19 15 -36 20 -53 15 -38 -9 -115 19 -194 71 -92 61 -296 252 -362
340 -51 67 -122 195 -136 243 -9 30 -8 29 72 -65z m-51 -245 c57 -78 220 -241
328 -328 81 -65 179 -120 253 -142 l42 -13 -18 -26 c-10 -14 -30 -50 -45 -78
-14 -29 -32 -53 -39 -53 -7 0 -49 17 -93 38 -145 71 -322 224 -387 334 -36 61
-84 208 -92 283 -4 33 -5 58 -2 55 3 -3 26 -34 53 -70z m2575 -66 c79 -24 138
-56 196 -109 61 -54 133 -158 133 -191 0 -12 5 -26 11 -30 6 -3 22 -30 35 -60
34 -78 75 -94 121 -48 20 20 24 32 19 55 l-6 30 48 -7 c115 -16 199 -62 306
-167 85 -83 146 -109 348 -147 68 -13 119 -46 208 -134 102 -100 159 -239 146
-356 l-7 -57 69 -94 c87 -118 117 -178 142 -281 34 -142 22 -261 -35 -338 -14
-18 -25 -43 -25 -55 0 -12 33 -57 76 -105 122 -137 177 -277 194 -495 12 -152
18 -175 56 -217 54 -61 85 -211 64 -318 -22 -114 -115 -276 -177 -307 -59 -29
-62 -42 -29 -136 49 -139 65 -214 61 -291 -4 -94 -33 -165 -104 -260 -53 -70
-58 -82 -54 -116 10 -74 -85 -295 -169 -394 -41 -47 -137 -118 -236 -172 -50
-27 -57 -36 -104 -129 -66 -131 -125 -220 -182 -275 l-47 -45 -82 1 c-59 1
-103 8 -156 26 l-74 25 -96 -40 c-84 -35 -105 -40 -168 -39 -118 1 -243 41
-354 113 -25 16 -54 29 -64 29 -22 0 -55 -28 -55 -45 0 -7 -10 -15 -22 -19
-28 -7 -21 5 -213 -371 -85 -166 -155 -311 -155 -321 0 -42 45 -58 72 -26 9 9
80 143 158 297 79 154 153 299 167 322 l24 43 54 -37 c30 -20 55 -38 55 -40 0
-2 -36 -79 -81 -171 -141 -291 -154 -322 -142 -340 16 -27 59 -27 76 0 9 13
57 111 108 218 51 107 101 209 111 226 l19 32 67 -21 c37 -12 69 -22 71 -24 2
-1 -40 -80 -93 -174 -102 -180 -110 -210 -65 -224 14 -5 27 -1 40 11 15 17
183 299 213 361 15 31 40 31 31 1 -34 -111 -126 -328 -210 -493 -98 -195 -475
-863 -560 -996 -71 -110 -69 -104 -71 -249 -1 -114 -6 -149 -28 -224 -65 -215
-108 -281 -222 -333 -64 -29 -78 -59 -49 -107 72 -122 120 -212 147 -281 28
-72 32 -93 36 -216 4 -121 2 -145 -19 -214 -20 -68 -21 -81 -9 -109 58 -139
80 -255 80 -421 0 -191 -29 -339 -92 -472 -21 -45 -28 -71 -23 -92 5 -25 3
-29 -19 -35 -43 -11 -46 -29 -37 -239 9 -196 1 -395 -19 -497 -15 -80 -66
-269 -85 -315 -9 -22 -35 -77 -57 -122 -37 -75 -43 -82 -70 -81 -50 2 -57 -15
-78 -197 -28 -250 -60 -369 -142 -526 -33 -64 -37 -79 -29 -102 13 -33 56 -52
87 -38 31 14 98 140 138 262 40 122 63 248 72 400 7 105 8 108 28 103 51 -12
120 93 187 286 26 74 53 123 123 225 50 73 103 147 118 165 l27 34 -20 -84
c-52 -226 -101 -612 -85 -673 9 -36 48 -61 83 -52 17 4 91 69 188 165 101 99
189 177 239 209 43 28 81 49 84 47 2 -3 -10 -62 -26 -133 -58 -244 -88 -466
-99 -716 -6 -155 -6 -158 17 -182 37 -40 73 -33 138 25 35 32 59 47 65 41 6
-6 25 -63 43 -128 38 -132 57 -159 108 -149 44 9 213 87 349 161 66 37 148 77
181 91 82 34 239 74 288 74 l40 0 -123 -123 c-146 -144 -203 -231 -260 -398
-50 -148 -66 -238 -49 -279 16 -39 27 -45 151 -75 56 -13 103 -26 105 -27 1
-2 -22 -44 -53 -93 -121 -193 -208 -410 -258 -640 -36 -163 -35 -191 8 -262
81 -133 238 -475 225 -489 -2 -1 -57 31 -123 72 -66 41 -130 77 -142 80 -30 8
-71 -19 -85 -54 -13 -35 -3 -363 18 -565 9 -82 13 -151 11 -154 -3 -2 -42 42
-88 99 -193 239 -254 281 -323 227 -14 -11 -49 -59 -78 -105 -50 -82 -53 -85
-107 -101 -31 -9 -97 -17 -148 -18 -110 -2 -129 -12 -180 -93 -40 -65 -80
-110 -137 -155 -29 -23 -53 -33 -98 -38 -41 -5 -76 -17 -116 -42 -37 -22 -76
-37 -112 -41 -102 -13 -170 -56 -241 -153 -46 -62 -60 -64 -163 -33 -66 21
-154 75 -254 156 -62 50 -160 99 -245 120 -115 30 -233 -14 -357 -133 -89 -85
-76 -88 -161 47 -31 50 -55 101 -58 125 -4 28 -13 43 -31 53 -23 13 -33 11
-107 -18 -104 -40 -238 -121 -477 -288 -103 -73 -190 -132 -192 -132 -8 0 -69
138 -119 267 -71 188 -156 296 -280 361 -42 23 -63 27 -135 27 -74 0 -96 -4
-167 -34 l-83 -33 -37 19 c-21 11 -69 36 -106 56 -61 33 -77 37 -142 37 -46 0
-98 -8 -141 -21 -80 -25 -147 -22 -246 12 -35 11 -72 23 -83 25 -67 12 -126
30 -175 52 -83 38 -161 37 -227 -4 l-51 -32 -50 25 c-57 28 -98 25 -127 -7
-17 -19 -20 -17 -110 68 -101 96 -183 147 -218 138 -13 -3 -61 -56 -111 -122
-65 -84 -91 -112 -98 -102 -5 7 -22 38 -38 70 -50 96 -189 296 -245 353 -30
30 -79 71 -110 91 -75 50 -97 46 -268 -56 -76 -45 -142 -79 -145 -75 -14 14
-3 213 17 315 26 129 26 135 1 160 -27 27 -46 25 -76 -5 -32 -32 -51 -27 -116
27 -98 81 -218 121 -375 122 l-101 1 -59 103 c-70 124 -141 208 -184 217 -24
5 -45 0 -91 -25 -34 -17 -64 -28 -68 -23 -4 4 -17 53 -29 108 -42 190 -53 209
-108 189 -23 -8 -33 -6 -55 9 -24 18 -31 18 -58 7 -56 -23 -154 -142 -207
-250 -26 -55 -50 -99 -53 -100 -6 0 -115 286 -141 372 -32 106 -42 238 -36
441 l6 189 -24 22 c-13 12 -77 44 -142 70 -65 27 -120 50 -122 51 -11 11 112
121 164 147 65 33 114 81 115 113 0 12 -23 61 -51 110 -153 267 -321 463 -602
705 -110 94 -110 98 -1 99 99 1 144 26 144 78 0 25 -84 237 -165 418 -83 185
-137 316 -133 320 7 7 369 -127 447 -166 63 -31 105 -62 177 -130 51 -49 100
-89 109 -89 18 0 65 44 65 61 0 6 -8 26 -19 43 -10 17 -42 108 -71 201 -94
307 -224 593 -365 809 -60 91 118 -67 271 -241 74 -83 144 -155 155 -158 14
-5 30 0 48 13 25 19 26 23 25 118 0 74 2 93 10 79 30 -51 131 -167 178 -203
128 -98 250 -154 294 -133 64 29 51 100 -23 131 -144 60 -238 137 -325 264
-74 107 -141 281 -167 431 -12 66 -40 100 -76 91 -15 -4 -39 12 -97 65 -126
115 -164 218 -196 534 l-18 180 -51 64 c-117 145 -220 445 -264 771 -19 140
-15 423 10 636 11 99 18 198 14 220 -5 31 -22 56 -85 121 -128 135 -219 291
-254 439 -31 128 -15 362 35 506 l20 57 -44 123 c-75 216 -96 433 -55 591 36
142 154 347 200 347 10 0 28 8 40 18 19 16 24 33 32 123 15 171 66 364 137
521 60 133 163 241 286 299 63 31 90 35 100 19 10 -16 51 -12 67 8 8 9 47 80
87 157 39 77 88 163 109 190 44 58 121 107 212 136 74 23 233 49 301 49 51 0
99 29 99 58 0 20 79 70 154 97 53 20 72 48 62 89 -15 59 -73 56 -193 -10 -72
-39 -65 -44 -106 76 -102 301 -130 674 -68 933 24 101 50 162 86 205 l27 33
28 -38 c55 -75 81 -134 74 -170 -11 -60 59 -100 98 -55 9 9 64 114 123 232
109 219 164 310 234 389 l39 44 9 -39 c12 -56 10 -370 -5 -819 -8 -243 -9
-426 -4 -485 5 -52 8 -97 6 -98 -1 -2 -19 1 -39 8 -48 16 -126 16 -156 0 -13
-7 -47 -36 -76 -63 -57 -54 -67 -85 -36 -119 26 -29 57 -21 115 28 66 56 81
55 225 -18 122 -61 136 -61 274 3 85 39 102 44 170 44 68 0 84 -4 150 -38 81
-41 95 -43 123 -22 18 14 28 10 114 -36 244 -130 463 -315 649 -549 94 -117
158 -235 233 -425 27 -71 58 -137 67 -147 20 -22 66 -23 88 -2 15 16 22 14 96
-19 112 -50 273 -148 345 -210 56 -47 80 -74 152 -167 15 -19 33 -30 48 -30
33 0 153 -96 210 -168 48 -62 121 -204 149 -292 10 -30 22 -61 28 -68 26 -32
83 -49 182 -55 97 -4 225 -28 254 -46 11 -7 4 -20 -34 -63 -26 -29 -65 -79
-87 -111 -32 -48 -42 -56 -57 -48 -10 6 -56 16 -104 22 -102 15 -215 3 -354
-37 -119 -34 -417 -154 -528 -212 -78 -41 -90 -51 -93 -75 -4 -34 22 -67 53
-67 11 0 71 22 133 49 135 60 380 152 482 181 140 40 359 36 426 -7 30 -19 65
-1 90 45 26 50 123 169 177 219 54 50 122 86 146 78 25 -8 108 31 127 60 10
15 13 35 9 57 -12 68 120 222 240 279 33 16 65 29 71 29 25 0 64 42 64 69 0
35 63 252 101 349 32 81 76 153 97 160 6 2 12 -2 12 -10 0 -22 56 -134 99
-196 85 -126 258 -270 435 -363 l93 -49 12 -86 c32 -231 164 -460 305 -529 75
-37 188 -50 300 -37 128 16 194 37 208 67 15 34 2 72 -30 89 -24 13 -36 12
-92 -2 -37 -8 -111 -16 -170 -16 -91 -1 -111 2 -152 22 -116 57 -214 238 -252
466 -9 55 -21 107 -27 118 -5 10 -42 34 -82 52 -196 94 -400 268 -469 401 -70
136 -101 271 -101 435 0 134 23 250 82 398 32 79 28 114 -23 201 -52 91 -91
181 -111 258 -20 75 -20 251 0 326 21 82 20 93 -24 156 -48 71 -68 110 -91
176 l-18 53 31 9 c65 18 57 92 -11 107 -47 10 -53 20 -59 97 -11 151 52 306
165 409 111 103 375 215 567 243 76 10 91 16 108 39 17 23 18 30 7 57 -10 26
-9 41 10 103 56 187 126 279 243 317 131 43 258 51 403 26 49 -9 98 -14 109
-11 11 3 58 42 104 86 148 142 208 161 330 102 72 -35 78 -34 144 25 91 81
229 155 350 188 72 19 211 19 278 -1z m-2974 -1641 c13 -17 27 -48 31 -69 8
-37 6 -42 -36 -89 -56 -63 -105 -163 -127 -261 l-17 -76 -32 79 c-41 103 -74
158 -130 215 l-45 47 34 21 c58 36 136 131 177 214 21 44 38 87 38 95 0 9 20
-20 43 -64 23 -44 52 -94 64 -112z m5418 -120 c36 -63 88 -133 152 -210 l52
-61 -29 -12 c-42 -17 -97 -74 -123 -128 -45 -90 -107 -293 -107 -349 0 -41
-15 -24 -39 45 -57 163 -145 300 -228 352 -25 16 -51 31 -57 33 -6 2 3 19 20
39 73 83 228 347 263 448 l12 35 28 -72 c16 -40 41 -94 56 -120z"/>
<path d="M11776 14963 c-37 -19 -148 -61 -245 -93 l-176 -58 -3 -39 c-4 -48
11 -102 38 -131 38 -40 158 -23 251 37 64 40 239 250 239 286 0 34 -34 33
-104 -2z m-106 -164 c-51 -60 -125 -100 -188 -103 -42 -1 -46 1 -59 32 -10 26
-11 33 -1 36 7 3 69 22 138 44 69 22 131 40 138 41 8 1 -5 -22 -28 -50z"/>
<path d="M9401 14896 c-16 -19 -4 -42 29 -56 16 -7 55 -43 85 -81 62 -77 188
-188 239 -213 47 -22 119 -20 167 4 43 22 72 62 91 122 14 49 -1 68 -53 68
-96 0 -262 49 -417 121 -111 53 -124 56 -141 35z m346 -191 c46 -14 105 -27
133 -31 56 -7 60 -14 28 -43 -35 -33 -85 -38 -132 -12 -48 25 -161 126 -131
116 11 -4 57 -17 102 -30z"/>
<path d="M8506 14118 c-11 -18 -12 -35 -5 -82 11 -67 5 -76 -47 -76 -44 0 -71
-32 -56 -65 10 -22 18 -25 66 -25 62 0 58 7 71 -125 4 -44 11 -65 26 -77 27
-23 34 -23 60 3 21 21 21 41 3 170 -5 34 -3 37 25 42 66 14 58 92 -11 99 -31
3 -33 5 -45 68 -17 86 -56 116 -87 68z"/>
<path d="M11825 14125 c-109 -24 -285 -105 -285 -131 0 -15 26 -19 34 -5 13
21 198 91 272 104 59 10 80 18 82 30 4 21 -18 21 -103 2z"/>
<path d="M9685 14070 c-9 -14 8 -18 100 -23 61 -3 98 -11 155 -35 82 -35 100
-38 100 -19 0 16 -28 30 -124 63 -73 25 -219 34 -231 14z"/>
<path d="M12205 13979 c-130 -32 -405 -108 -470 -131 -33 -11 -113 -47 -177
-79 -113 -57 -118 -58 -119 -37 -3 61 -5 72 -17 75 -7 3 -19 -11 -28 -34 -21
-48 -10 -98 28 -126 27 -20 28 -20 49 -1 l22 19 -9 -30 c-5 -16 -9 -62 -9
-101 0 -59 5 -81 30 -129 71 -138 236 -207 388 -161 77 23 207 106 289 184 82
78 97 104 78 127 -20 24 -42 17 -88 -27 l-44 -43 6 36 c8 47 -10 134 -39 185
-23 39 -80 96 -121 120 -10 7 -16 15 -13 18 4 4 53 18 110 32 57 14 122 31
144 39 22 7 59 18 83 25 36 9 43 15 40 33 -4 29 -33 31 -133 6z m-430 -271
c34 -58 84 -87 150 -88 l40 0 -48 -41 c-56 -49 -75 -78 -56 -89 10 -7 10 -23
0 -81 -13 -81 -16 -89 -36 -89 -10 0 -13 16 -12 65 2 53 -1 67 -18 80 -34 27
-78 48 -125 60 l-45 11 45 33 c51 36 58 52 59 134 1 31 4 57 9 57 4 0 21 -23
37 -52z m235 -278 c-6 -11 -15 -20 -20 -20 -13 0 0 131 14 149 15 20 21 -101
6 -129z m-64 53 c-3 -21 -6 -57 -6 -80 0 -33 -5 -45 -21 -53 -11 -7 -22 -10
-24 -8 -4 4 23 156 30 168 15 24 27 8 21 -27z m-169 -92 c-16 -69 -22 -80 -38
-64 -16 16 9 121 30 126 9 2 17 2 19 1 2 -1 -3 -29 -11 -63z m-157 34 c0 -8
-4 -15 -9 -15 -5 0 -11 7 -15 15 -3 9 0 15 9 15 8 0 15 -7 15 -15z m86 -2 c-3
-10 -8 -31 -12 -46 -4 -19 -12 -27 -23 -25 -35 7 -17 88 19 88 16 0 20 -5 16
-17z"/>
<path d="M9272 13977 c-20 -24 -3 -44 41 -51 91 -15 341 -82 344 -93 2 -6 -23
-30 -57 -53 -137 -93 -184 -257 -116 -405 14 -30 22 -55 18 -55 -4 0 -28 7
-53 16 -53 19 -79 14 -79 -16 0 -25 75 -65 173 -90 40 -10 105 -28 145 -40
191 -58 373 14 451 180 37 78 36 181 -2 264 -15 32 -27 60 -27 63 0 2 18 -7
39 -19 l40 -23 25 24 c30 28 36 94 12 126 -12 16 -16 17 -30 6 -9 -7 -16 -26
-16 -42 0 -16 -3 -29 -7 -29 -3 0 -38 17 -77 39 -98 53 -169 76 -326 107 -74
14 -198 41 -275 59 -199 48 -209 49 -223 32z m587 -292 c11 -78 32 -106 95
-127 40 -13 61 -38 32 -38 -23 0 -88 -62 -115 -110 -22 -40 -23 -42 -3 -31 34
18 36 -4 5 -62 -19 -35 -35 -53 -50 -55 -27 -4 -29 6 -8 34 19 25 19 34 -3 34
-10 0 -26 -13 -35 -30 -17 -29 -57 -42 -57 -20 0 6 15 34 33 63 30 46 32 56
23 82 -20 56 -36 73 -92 106 l-57 32 64 24 c79 30 90 40 124 114 15 33 29 59
31 57 2 -2 8 -35 13 -73z m-299 -195 c0 -5 -4 -10 -10 -10 -5 0 -10 5 -10 10
0 6 5 10 10 10 6 0 10 -4 10 -10z m40 -54 c0 -8 -7 -19 -15 -26 -12 -10 -16
-9 -21 4 -7 18 13 49 27 40 5 -3 9 -11 9 -18z m434 -38 c-6 -40 -28 -78 -45
-78 -6 0 24 90 37 112 11 18 14 6 8 -34z m-370 14 c6 -10 -33 -72 -45 -72 -18
0 -21 30 -5 55 16 25 40 33 50 17z m51 -63 c-27 -53 -36 -61 -51 -48 -14 11
-3 37 35 82 24 28 35 4 16 -34z m255 41 c0 -27 -51 -120 -65 -120 -9 0 -15 3
-13 8 44 99 78 147 78 112z"/>
<path d="M11772 13102 c-55 -20 -102 -56 -102 -79 0 -18 4 -17 55 19 38 27 57
33 114 36 117 7 217 -51 271 -157 18 -35 27 -42 97 -65 91 -30 168 -85 200
-141 12 -22 30 -71 38 -110 21 -90 32 -270 18 -287 -8 -10 1 -40 33 -111 58
-129 76 -208 78 -342 1 -88 -3 -116 -17 -142 -17 -32 -114 -113 -134 -113 -6
0 -18 -20 -27 -44 -38 -99 -153 -187 -247 -191 -41 -1 -54 -8 -100 -49 -108
-96 -205 -119 -306 -71 l-52 24 -41 -34 c-49 -41 -119 -64 -215 -72 -85 -6
-153 16 -251 83 -42 29 -66 40 -70 32 -10 -16 57 -70 136 -110 60 -31 70 -33
170 -33 117 0 189 19 241 62 l30 25 69 -22 c111 -36 194 -14 290 76 30 28 56
44 73 44 43 0 146 37 185 66 52 40 78 72 104 125 16 32 43 61 88 95 93 70 110
108 110 244 0 129 -18 217 -66 323 -34 78 -37 88 -39 202 -6 230 -48 356 -145
432 -66 51 -65 44 -14 178 28 77 28 75 10 75 -8 0 -25 -32 -41 -77 -16 -43
-32 -88 -36 -100 l-8 -22 -60 20 c-39 13 -62 27 -66 40 -15 47 -85 118 -148
149 -82 40 -153 47 -225 22z"/>
<path d="M12571 13087 c-22 -27 -48 -221 -31 -232 14 -9 30 38 30 88 0 24 6
66 14 95 13 52 8 73 -13 49z"/>
<path d="M12475 13080 c-8 -13 -65 -181 -65 -192 0 -4 6 -8 14 -8 8 0 25 37
45 99 17 54 31 101 31 105 0 10 -18 7 -25 -4z"/>
<path d="M12666 13061 c-12 -19 -19 -131 -8 -131 12 0 18 18 27 81 6 44 -5 73
-19 50z"/>
<path d="M12242 12990 c-10 -41 -2 -60 16 -37 5 6 13 27 17 45 10 50 -20 42
-33 -8z"/>
<path d="M4355 12896 c-74 -18 -138 -52 -194 -102 -76 -68 -141 -184 -103
-184 4 0 20 22 35 50 107 191 350 270 548 179 50 -23 73 -29 80 -22 15 15 -22
38 -108 69 -77 27 -174 31 -258 10z"/>
<path d="M9748 12733 c8 -38 27 -122 41 -187 16 -75 31 -121 40 -124 17 -6 12
30 -30 213 -38 167 -38 165 -54 165 -11 0 -10 -12 3 -67z"/>
<path d="M9860 12793 c2 -37 80 -298 90 -301 10 -4 11 5 7 35 -12 74 -72 267
-84 271 -7 2 -13 0 -13 -5z"/>
<path d="M9589 12785 c-10 -9 36 -248 49 -253 7 -2 12 5 12 20 0 24 -27 191
-36 221 -5 16 -16 22 -25 12z"/>
<path d="M9950 12778 c0 -33 58 -212 70 -216 10 -4 11 3 6 29 -13 69 -57 199
-66 199 -6 0 -10 -6 -10 -12z"/>
<path d="M9507 12773 c-10 -18 8 -146 22 -151 11 -4 13 10 9 67 -3 64 -18 105
-31 84z"/>
<path d="M11787 12572 c-10 -10 -17 -32 -17 -49 0 -79 -76 -193 -128 -193 -31
0 -138 60 -234 132 -81 61 -98 67 -118 43 -14 -17 -8 -79 10 -100 6 -8 50 -34
98 -58 177 -91 192 -101 192 -125 0 -12 -9 -64 -20 -115 -29 -130 -66 -181
-190 -262 -52 -34 -110 -70 -128 -79 -31 -16 -36 -36 -9 -36 7 0 36 -27 66
-60 73 -84 116 -105 216 -105 69 0 89 4 147 32 37 17 89 52 116 77 27 25 58
46 69 46 10 0 27 6 37 13 17 13 16 15 -17 34 -19 12 -69 49 -111 83 -64 53
-79 71 -97 119 -18 50 -20 62 -9 109 19 87 59 173 104 222 60 68 96 147 96
212 0 75 -35 103 -73 60z m-69 -795 l34 -20 -29 -23 c-98 -81 -223 -103 -301
-51 -23 15 -42 31 -42 35 0 11 83 51 150 73 66 21 139 16 188 -14z"/>
<path d="M3825 12546 c-61 -19 -96 -40 -139 -83 -43 -42 -96 -120 -96 -140 0
-25 26 -13 42 20 27 56 96 125 156 154 48 24 70 28 156 30 54 1 101 5 105 8
25 25 -152 34 -224 11z"/>
<path d="M5405 11416 c-27 -7 -67 -20 -87 -30 -36 -17 -101 -80 -110 -106 -3
-9 -13 -9 -48 0 -69 19 -178 16 -229 -5 -55 -23 -106 -99 -145 -215 -42 -127
-57 -394 -20 -357 4 3 10 63 15 132 4 70 15 152 24 183 19 64 68 167 93 196
41 45 137 58 255 34 58 -12 60 -12 76 11 39 58 89 98 147 116 64 20 194 26
277 12 38 -7 47 -6 47 7 0 33 -192 47 -295 22z"/>
<path d="M9830 11250 c-11 -11 -20 -29 -20 -40 0 -21 33 -60 50 -60 6 0 -21
-30 -60 -68 -71 -68 -86 -102 -58 -130 23 -23 43 -11 135 76 50 48 96 86 102
84 17 -6 59 25 66 48 11 35 -19 66 -86 89 -78 26 -104 26 -129 1z"/>
<path d="M3160 11201 c-60 -32 -100 -134 -100 -255 l0 -53 -77 -49 c-144 -90
-300 -266 -380 -429 -59 -118 -78 -191 -78 -300 0 -95 2 -104 37 -177 23 -48
43 -78 53 -78 21 0 19 8 -15 77 -70 140 -59 274 38 473 72 147 228 322 365
411 52 34 62 37 70 24 17 -31 29 -3 22 54 -8 68 10 185 34 226 9 17 34 39 54
50 36 19 50 45 25 45 -7 -1 -29 -9 -48 -19z"/>
<path d="M8116 11183 c-11 -11 -6 -126 8 -193 31 -147 88 -224 208 -285 135
-67 242 -68 378 -4 l61 29 116 -111 c144 -138 188 -161 318 -167 99 -4 180 14
180 38 0 17 -3 17 -94 -1 -73 -13 -165 -2 -227 27 -21 10 -86 64 -144 119
-152 147 -137 140 -228 97 -62 -30 -89 -36 -157 -40 -68 -4 -89 -1 -135 19
-86 36 -157 85 -184 126 -38 59 -67 159 -73 255 -6 84 -12 106 -27 91z"/>
<path d="M10140 11140 c-11 -11 -20 -27 -20 -35 0 -8 -9 -19 -19 -25 -28 -14
-131 -148 -131 -169 0 -23 20 -41 46 -41 15 0 38 20 72 63 81 101 81 101 125
71 20 -13 37 -27 37 -30 0 -5 -97 -131 -225 -294 -73 -92 -86 -115 -79 -134 9
-23 41 -39 59 -29 8 5 86 101 174 214 l160 206 58 -19 c32 -11 59 -21 61 -23
2 -2 -78 -120 -177 -264 -114 -165 -181 -270 -181 -286 0 -27 30 -48 54 -39 9
3 99 126 201 273 102 146 191 273 197 282 9 11 34 18 76 21 71 5 105 28 105
72 0 53 -26 66 -128 66 -114 0 -194 22 -323 91 -51 27 -99 49 -107 49 -8 0
-24 -9 -35 -20z"/>
<path d="M10737 10916 c-12 -14 -120 -187 -240 -385 -163 -269 -217 -366 -212
-381 8 -26 52 -37 70 -19 7 8 106 167 220 354 113 187 215 352 226 367 47 66
-10 123 -64 64z"/>
<path d="M9904 10852 c-22 -16 -64 -80 -64 -99 0 -28 25 -47 52 -39 27 7 78
75 78 103 0 34 -38 55 -66 35z"/>
<path d="M6945 10308 c-53 -151 -66 -348 -28 -431 13 -26 45 -72 73 -101 l50
-53 -15 -99 c-32 -211 -12 -401 55 -534 34 -67 85 -130 106 -130 23 0 16 20
-22 63 -110 121 -147 360 -100 650 19 118 17 148 -11 112 -14 -20 -15 -19 -45
15 -16 19 -41 57 -55 85 -23 44 -26 62 -25 147 0 65 7 124 22 178 11 45 22 86
23 92 3 16 -22 22 -28 6z"/>
<path d="M8713 9655 c-8 -22 15 -191 31 -230 21 -50 83 -112 129 -130 53 -20
192 -18 192 4 0 10 -21 13 -86 15 -75 1 -91 4 -126 28 -59 39 -91 110 -105
232 -10 91 -21 116 -35 81z"/>
<path d="M9063 9468 c7 -91 31 -176 54 -185 25 -10 26 5 4 57 -13 30 -24 83
-28 130 -5 62 -9 80 -21 80 -13 0 -14 -13 -9 -82z"/>
<path d="M4115 9390 c-20 -22 -20 -11 14 -280 44 -340 47 -615 11 -838 -11
-68 -4 -94 30 -112 27 -14 45 -12 70 8 28 22 48 148 56 357 12 278 -54 837
-102 872 -26 19 -58 16 -79 -7z"/>
<path d="M9216 9401 c-11 -18 15 -111 31 -111 11 0 14 7 10 23 -3 12 -9 39
-12 60 -7 36 -18 47 -29 28z"/>
<path d="M9230 9221 c0 -20 73 -101 117 -130 137 -91 301 -76 468 44 72 51 82
62 67 77 -8 8 -24 -1 -54 -26 -56 -49 -169 -103 -238 -116 -108 -20 -214 20
-292 110 -39 46 -68 63 -68 41z"/>
<path d="M5553 8814 c-12 -32 6 -309 27 -409 45 -212 126 -400 210 -484 53
-53 148 -107 224 -127 74 -20 190 -17 281 6 83 21 112 37 97 52 -6 6 -35 2
-73 -10 -244 -75 -469 5 -581 208 -88 157 -146 394 -155 633 -6 135 -14 172
-30 131z"/>
<path d="M2934 8456 c-12 -31 92 -185 169 -252 49 -43 131 -84 167 -84 29 0
94 30 129 58 16 13 22 25 18 37 -6 15 -11 14 -39 -10 -64 -54 -124 -61 -192
-21 -59 35 -165 151 -205 225 -34 65 -39 69 -47 47z"/>
<path d="M3690 8354 c-22 -26 -93 -63 -135 -69 -29 -5 -55 -1 -94 14 -30 11
-57 19 -59 16 -12 -12 11 -32 57 -49 84 -30 168 -10 238 57 18 16 30 34 27 39
-8 12 -20 10 -34 -8z"/>
<path d="M4819 8153 c-6 -16 -21 -73 -35 -128 -72 -297 -48 -464 86 -595 57
-57 59 -60 48 -90 -14 -42 -5 -100 26 -165 33 -66 98 -141 114 -131 9 5 -2 25
-33 65 -86 110 -115 251 -49 239 35 -6 19 21 -41 69 -70 57 -119 125 -140 196
-31 103 -12 311 44 494 10 34 16 64 13 67 -12 12 -23 5 -33 -21z"/>
<path d="M4070 8150 c-24 -24 -25 -35 -5 -89 48 -136 39 -236 -26 -294 -44
-40 -51 -75 -19 -107 38 -38 96 -16 153 58 39 51 50 103 44 207 -11 185 -80
292 -147 225z"/>
<path d="M8105 8020 c-12 -20 47 -120 101 -169 72 -66 185 -122 250 -124 37
-2 49 2 49 13 0 10 -12 16 -38 17 -125 10 -292 131 -327 239 -12 34 -24 43
-35 24z"/>
<path d="M6440 7807 c0 -31 186 -142 250 -149 41 -5 29 23 -15 37 -55 16 -113
47 -169 89 -49 38 -66 44 -66 23z"/>
<path d="M8545 7778 c-9 -23 48 -153 105 -240 70 -106 161 -188 267 -239 79
-39 94 -43 185 -47 84 -4 107 -1 161 18 70 25 85 36 72 49 -6 6 -37 0 -80 -14
-150 -52 -302 -17 -451 103 -71 58 -162 187 -204 290 -36 87 -47 102 -55 80z"/>
<path d="M3895 7455 c-14 -13 -25 -30 -25 -38 0 -7 34 -60 75 -118 112 -156
265 -464 265 -533 0 -13 24 -53 58 -94 136 -167 172 -261 181 -472 l6 -144 30
-21 c19 -13 30 -29 31 -45 1 -14 16 -81 35 -150 28 -108 33 -142 33 -247 1
-67 -2 -125 -7 -129 -4 -4 -40 25 -81 64 -78 76 -102 86 -136 52 -40 -40 -21
-73 109 -198 69 -66 115 -97 131 -87 9 6 12 -3 55 -175 14 -58 48 -186 75
-285 27 -99 58 -219 68 -267 l19 -86 -21 8 c-11 5 -56 19 -99 30 -102 28 -274
100 -361 152 -81 48 -177 128 -260 216 -124 132 -145 174 -207 415 -49 196
-66 232 -106 224 -18 -3 -21 0 -21 24 1 17 -13 50 -34 81 -100 152 -180 343
-234 559 -20 79 -41 150 -46 157 -15 17 -64 15 -83 -5 -14 -14 -16 -28 -11
-81 17 -167 123 -474 218 -636 70 -118 91 -139 129 -134 27 4 29 2 29 -28 0
-67 79 -386 113 -458 38 -81 152 -223 248 -309 135 -122 313 -222 520 -291
139 -47 193 -54 218 -32 18 17 20 17 31 -4 26 -48 99 -42 120 10 11 27 9 69
-7 125 -3 12 11 1 33 -25 98 -114 206 -200 310 -246 127 -56 278 -80 318 -51
23 17 36 76 35 167 0 129 -34 498 -48 514 -10 12 -8 15 16 18 38 4 68 53 89
146 15 66 16 91 6 173 -9 78 -39 198 -69 276 -3 9 3 13 20 13 37 0 93 61 132
143 52 107 69 222 63 440 -3 100 -2 173 2 162 80 -218 137 -323 248 -458 80
-99 183 -176 216 -164 9 4 20 -25 35 -88 26 -108 110 -286 170 -363 38 -48 41
-56 41 -114 1 -184 85 -360 196 -409 l40 -18 27 -138 c15 -75 35 -151 45 -168
27 -46 76 -67 138 -60 l52 6 22 -68 c58 -177 133 -266 238 -286 19 -4 43 -2
55 5 19 10 25 7 52 -28 92 -119 264 -270 342 -303 25 -10 37 -9 74 4 24 8 48
17 52 18 5 1 24 -41 43 -93 123 -341 231 -544 335 -633 123 -106 428 -205 687
-223 76 -6 95 -4 116 10 25 16 28 15 85 -14 148 -74 295 -88 419 -37 72 29
111 58 147 112 30 46 30 28 -5 460 -10 127 -20 273 -22 325 -2 91 -1 96 24
124 73 76 144 360 137 543 -4 99 -21 133 -64 133 -40 0 -55 -30 -55 -107 0
-132 -43 -324 -102 -453 -20 -45 -28 -74 -24 -94 5 -22 1 -32 -14 -43 -19 -13
-20 -25 -19 -161 0 -81 8 -259 18 -397 10 -139 14 -257 10 -267 -26 -50 -199
-86 -286 -58 -106 34 -131 50 -151 98 -45 106 -117 318 -173 511 -33 113 -81
272 -107 353 l-47 147 30 -25 c106 -87 230 -153 285 -154 41 0 70 26 70 64 0
40 -12 52 -76 71 -63 18 -141 66 -231 140 l-73 60 -49 150 c-27 83 -70 197
-95 255 -41 96 -44 105 -27 112 10 3 63 53 118 110 54 56 184 191 287 298 217
225 222 230 206 259 -24 46 -52 28 -217 -141 -87 -90 -212 -218 -277 -285 -66
-68 -122 -121 -124 -118 -3 2 1 47 8 100 l13 96 101 117 c55 64 208 240 338
390 245 280 263 308 219 332 -11 5 -27 7 -35 4 -9 -3 -143 -152 -298 -330
-154 -178 -283 -322 -286 -320 -2 3 1 35 7 72 10 56 18 74 51 108 43 46 554
668 577 703 19 29 8 61 -22 69 -23 6 -22 8 32 58 72 65 133 142 133 167 0 28
-44 69 -74 69 -18 0 -40 -18 -82 -65 -141 -160 -299 -238 -484 -239 -64 -1
-80 3 -104 22 -38 29 -65 28 -123 -8 -114 -71 -257 -90 -370 -50 -32 11 -67
20 -79 20 -18 0 -24 12 -43 100 -13 54 -28 103 -35 108 -45 37 -100 9 -98 -50
2 -52 64 -321 111 -483 48 -166 99 -317 256 -760 106 -300 146 -404 261 -680
38 -90 96 -276 89 -283 -2 -2 -12 1 -23 7 -32 17 -37 15 -103 -41 -120 -103
-139 -108 -188 -48 -39 49 -78 54 -109 15 l-20 -25 -12 29 c-27 65 -90 81
-119 30 -13 -23 -11 -31 22 -105 42 -94 74 -123 112 -106 14 6 30 23 37 37
l11 25 39 -35 c31 -28 46 -35 81 -35 54 0 151 46 196 94 62 64 71 56 114 -101
106 -386 171 -607 216 -725 l49 -131 -77 7 c-249 22 -520 110 -612 199 -76 75
-161 234 -273 514 -60 149 -65 159 -96 169 -19 6 -37 21 -41 33 -5 11 -20 27
-35 33 -22 10 -32 9 -65 -9 l-38 -21 -53 36 c-56 38 -204 181 -255 246 -30 39
-31 40 -103 42 -58 2 -77 7 -95 24 -33 31 -78 120 -115 226 -37 107 -45 113
-142 106 -38 -2 -68 0 -68 4 0 5 -11 59 -24 119 -13 61 -27 126 -30 146 -6 31
-15 42 -63 70 -102 61 -132 106 -158 238 -16 78 -16 96 1 163 5 24 -1 36 -48
86 -94 102 -164 258 -202 452 -19 96 -26 117 -47 132 -22 16 -29 17 -52 7 -15
-7 -29 -21 -33 -32 -5 -17 -12 -13 -61 34 -30 30 -74 81 -98 114 -132 184
-170 293 -280 789 -30 137 -61 259 -70 272 -21 33 -69 33 -91 -1 -17 -26 -14
-48 67 -449 16 -82 28 -150 27 -152 -2 -2 -45 -9 -95 -15 -110 -15 -202 -3
-305 40 -79 34 -210 119 -288 188 -68 60 -119 87 -196 103 -195 41 -420 147
-620 295 -63 47 -77 64 -118 141 -59 111 -210 318 -242 333 -33 14 -31 15 -59
-14z m505 -673 c19 -13 77 -46 127 -74 77 -41 91 -53 84 -66 -5 -9 -19 -61
-31 -115 l-23 -98 -22 55 c-30 73 -67 135 -122 204 -61 76 -59 73 -67 105 -7
31 -8 32 54 -11z m363 -176 c25 -10 83 -84 268 -342 129 -181 293 -409 364
-507 120 -167 127 -179 115 -202 -8 -14 -10 -37 -6 -56 6 -32 -48 37 -591 758
l-205 271 7 46 c4 25 9 46 11 46 3 0 19 -6 37 -14z m297 -110 c30 -29 81 -71
113 -95 31 -24 57 -50 57 -58 0 -9 98 -153 217 -322 119 -168 218 -315 220
-326 4 -19 -50 -96 -59 -85 -2 3 -145 203 -318 445 -172 242 -325 455 -338
473 l-26 34 40 -8 c28 -5 55 -22 94 -58z m49 -647 c228 -302 427 -563 443
-581 26 -29 28 -38 28 -112 l0 -79 -46 59 c-57 74 -78 85 -106 56 -27 -27 -21
-40 58 -142 39 -49 58 -82 56 -97 -2 -12 1 -31 7 -42 9 -16 7 -21 -9 -26 -48
-15 -49 -31 -36 -310 7 -143 11 -262 9 -264 -8 -10 -114 24 -193 62 -70 34
-102 58 -184 138 -54 54 -96 102 -93 106 3 5 -3 43 -13 84 -30 114 -49 233
-56 355 -6 100 -5 114 12 137 10 15 21 27 24 27 3 0 25 -36 49 -79 61 -112 96
-151 131 -151 35 0 60 23 60 57 0 23 -52 112 -127 218 -35 49 -65 56 -95 22
l-22 -25 -37 47 c-77 98 -123 201 -159 360 -20 91 -36 115 -77 117 -25 1 -29
6 -40 55 -15 66 -31 209 -24 209 4 -1 92 -116 196 -256 105 -141 198 -260 208
-265 25 -14 57 6 57 36 0 17 -76 127 -234 338 l-234 312 8 75 c5 41 9 83 10
93 0 9 3 17 8 17 4 -1 193 -248 421 -551z m394 391 c31 -7 57 -18 57 -23 0
-12 111 -196 147 -245 22 -29 24 -39 18 -85 -4 -29 -10 -57 -14 -64 -3 -7 -74
84 -166 214 -88 125 -161 230 -163 235 -2 4 11 1 30 -6 18 -8 59 -20 91 -26z
m225 -75 l2 -60 -35 55 c-19 30 -35 59 -35 63 0 5 15 7 33 5 32 -3 32 -3 35
-63z m3361 -472 c-284 -344 -282 -343 -286 -339 -2 2 4 45 13 96 10 61 22 99
33 109 10 9 58 66 107 126 49 61 95 116 102 124 7 8 20 24 28 36 8 12 31 27
52 33 20 7 64 27 97 46 33 18 61 32 63 31 2 -2 -92 -119 -209 -262z m-355 120
c-22 -187 -42 -313 -94 -573 -32 -164 -62 -320 -66 -349 -4 -28 -10 -53 -14
-56 -3 -2 -18 28 -33 68 -191 532 -315 902 -305 913 2 1 28 -6 58 -16 105 -37
252 -23 371 33 82 38 90 36 83 -20z m219 15 c-5 -7 -31 -40 -57 -72 l-47 -59
3 64 3 64 40 6 c67 10 68 10 58 -3z m-4223 -351 c0 -19 66 -152 99 -200 23
-34 27 -47 19 -62 -11 -18 -5 -246 7 -305 9 -43 -31 87 -85 280 -29 102 -57
194 -63 205 -11 20 -11 70 -1 86 8 13 24 11 24 -4z"/>
<path d="M5157 5482 c-10 -10 -17 -25 -17 -33 0 -14 144 -190 181 -221 30 -25
68 -6 69 34 0 15 -158 214 -184 230 -18 12 -32 9 -49 -10z"/>
<path d="M5295 5160 c-20 -22 -18 -43 20 -179 18 -66 30 -81 65 -81 44 0 63
30 55 87 -9 64 -44 165 -63 181 -23 18 -56 15 -77 -8z"/>
<path d="M3434 6918 c-10 -16 98 -115 150 -139 49 -22 96 -25 96 -5 0 8 -16
16 -39 20 -42 6 -152 81 -171 116 -12 23 -25 26 -36 8z"/>
<path d="M7386 6901 c-8 -12 10 -67 38 -115 52 -90 172 -171 261 -178 30 -2
40 1 40 12 0 10 -15 17 -46 21 -111 16 -230 122 -260 231 -9 37 -22 48 -33 29z"/>
<path d="M3695 6808 c35 -117 123 -225 211 -257 65 -25 74 -26 74 -7 0 8 -22
22 -52 32 -83 27 -153 108 -197 227 -13 34 -46 38 -36 5z"/>
<path d="M9471 5879 c-45 -55 -81 -109 -81 -119 0 -21 25 -50 45 -50 15 0 166
180 179 215 12 30 -6 55 -39 55 -17 0 -44 -26 -104 -101z"/>
<path d="M5785 5577 c-13 -11 -16 -21 -11 -43 4 -16 72 -160 152 -321 149
-299 167 -324 201 -290 13 12 0 43 -102 248 -106 215 -112 230 -75 189 38 -42
112 -148 173 -247 16 -25 35 -43 49 -45 14 -2 24 -12 28 -28 4 -18 12 -25 30
-25 24 0 25 4 30 69 l5 68 39 -93 c64 -154 161 -353 179 -367 19 -16 57 0 57
24 0 8 -22 58 -49 112 -26 53 -88 187 -136 297 -48 110 -96 209 -107 220 -40
42 -74 -26 -65 -133 2 -29 1 -49 -3 -45 -4 4 -34 49 -68 98 -81 120 -170 224
-238 280 -62 50 -63 50 -89 32z"/>
<path d="M3864 5525 c-18 -18 -23 -32 -19 -48 10 -34 82 -94 162 -134 68 -33
77 -35 145 -31 69 5 134 27 150 52 13 20 8 64 -9 81 -12 13 -26 15 -57 10
-118 -18 -143 -17 -187 6 -24 12 -64 37 -88 55 -53 41 -64 42 -97 9z"/>
<path d="M9512 5534 c-38 -26 -22 -74 24 -74 45 0 58 50 19 76 -18 12 -24 11
-43 -2z"/>
<path d="M7056 5502 c-8 -14 91 -139 144 -181 28 -22 74 -47 102 -56 66 -19
138 -20 138 -1 0 9 -19 15 -60 19 -33 4 -76 13 -95 21 -42 18 -123 93 -171
158 -35 47 -48 56 -58 40z"/>
<path d="M9414 5432 c-13 -9 -66 -87 -89 -131 -23 -45 -8 -84 32 -79 20 2 36
20 75 81 52 86 56 98 32 121 -17 17 -33 20 -50 8z"/>
<path d="M2827 5289 c-25 -14 -21 -37 17 -120 78 -171 118 -315 139 -509 11
-106 14 -115 34 -118 35 -5 41 22 32 142 -9 116 -44 277 -79 365 -11 30 -19
56 -16 58 7 7 142 -172 196 -261 70 -117 91 -122 133 -28 14 31 40 96 57 145
18 48 35 87 39 87 4 0 24 -53 45 -117 42 -128 50 -143 76 -143 43 0 43 24 0
150 -56 167 -90 234 -117 238 -29 4 -45 -21 -104 -173 -28 -71 -52 -131 -53
-132 -1 -2 -34 43 -71 99 -71 104 -230 280 -282 310 -20 12 -33 14 -46 7z"/>
<path d="M7454 5279 c-11 -19 55 -67 121 -88 92 -29 215 -32 215 -6 0 12 -14
15 -69 15 -75 0 -190 30 -211 56 -21 25 -48 36 -56 23z"/>
<path d="M7390 4648 c0 -19 135 -116 205 -149 74 -35 163 -50 230 -39 83 14
119 33 99 52 -3 3 -26 -1 -52 -9 -31 -9 -74 -13 -124 -10 -90 4 -164 36 -272
117 -69 52 -86 59 -86 38z"/>
<path d="M5981 4538 c-26 -83 -121 -645 -121 -716 0 -16 7 -35 16 -42 30 -25
43 9 69 175 34 220 77 445 85 445 4 0 33 -73 64 -162 125 -352 271 -670 312
-676 38 -5 44 18 53 218 5 105 12 194 15 197 8 8 113 -158 180 -286 57 -108
64 -118 112 -143 48 -26 55 -27 107 -18 65 12 100 2 176 -54 76 -55 179 -99
241 -101 32 -1 80 -13 115 -28 44 -18 65 -23 78 -15 61 32 -50 106 -176 118
-78 7 -143 34 -217 89 -77 57 -126 74 -199 67 -86 -7 -112 7 -152 87 -75 148
-254 419 -285 431 -19 7 -41 -2 -48 -21 -4 -9 -9 -86 -13 -172 -3 -86 -9 -162
-13 -169 -12 -23 -98 178 -231 542 -45 122 -87 231 -95 244 -22 34 -60 29 -73
-10z"/>
<path d="M3771 4291 c-41 -41 -54 -170 -26 -239 22 -52 77 -105 138 -133 29
-13 53 -24 55 -25 2 -1 -13 -23 -32 -48 -49 -64 -63 -114 -47 -168 28 -92 61
-108 136 -65 50 28 82 85 93 166 5 33 11 63 13 65 2 2 31 -3 64 -12 78 -20
118 -12 180 38 28 22 67 49 88 60 36 20 45 41 29 68 -12 18 -147 26 -223 12
-34 -6 -79 -20 -99 -30 l-36 -18 -18 68 c-22 87 -61 147 -128 201 -52 41 -126
79 -154 79 -8 0 -23 -9 -33 -19z m160 -138 c62 -58 113 -187 81 -207 -15 -9
-148 61 -174 93 -15 17 -30 47 -34 66 -6 32 1 99 12 117 8 13 64 -21 115 -69z
m399 -208 c0 -3 -18 -17 -40 -31 -34 -23 -46 -25 -85 -20 -53 8 -58 20 -12 35
53 17 137 27 137 16z m-320 -184 c-11 -43 -43 -91 -62 -91 -14 0 -26 44 -21
73 3 15 24 48 47 74 l41 47 3 -29 c2 -15 -2 -49 -8 -74z"/>
<path d="M10657 4085 c-19 -18 -108 -229 -140 -331 -53 -169 -109 -477 -94
-517 9 -25 46 -21 56 6 4 12 11 51 15 87 9 81 47 258 80 370 35 121 97 265
106 249 15 -26 49 -203 69 -355 11 -82 23 -158 27 -167 3 -9 17 -17 30 -17 23
0 57 39 185 215 l51 70 -6 -85 c-4 -47 -11 -137 -16 -200 -5 -63 -10 -186 -10
-272 0 -150 1 -158 21 -169 42 -22 48 0 54 211 4 171 10 259 41 576 6 66 5 73
-14 83 -11 6 -27 8 -35 5 -17 -6 -86 -92 -177 -219 l-65 -90 -7 40 c-4 22 -18
106 -32 186 -24 141 -68 301 -88 327 -14 16 -33 15 -51 -3z"/>
<path d="M9285 3954 c-21 -21 -17 -64 15 -146 48 -128 116 -193 160 -153 18
16 22 17 38 3 30 -26 50 -28 76 -7 40 31 34 74 -12 98 -19 10 -28 10 -49 -4
-23 -16 -26 -15 -39 2 -8 10 -30 52 -50 93 -20 41 -41 86 -48 100 -15 32 -65
39 -91 14z"/>
<path d="M7978 3828 c-36 -29 -31 -53 22 -115 28 -32 60 -62 70 -67 29 -13 70
2 80 30 13 33 -5 68 -64 122 -47 43 -79 52 -108 30z"/>
<path d="M4272 3774 c-8 -15 4 -48 55 -152 120 -248 198 -470 223 -637 12 -79
30 -106 58 -88 51 32 -33 356 -170 657 -32 71 -57 131 -55 132 2 2 38 -19 80
-46 88 -56 238 -197 305 -285 52 -69 69 -85 92 -85 9 0 57 38 107 85 l91 84
35 -77 c43 -95 94 -246 148 -446 44 -158 60 -189 93 -184 17 2 27 22 51 91 23
68 33 86 45 81 42 -18 71 -14 150 22 l82 38 55 -29 c34 -18 79 -56 121 -102
66 -72 87 -84 110 -61 20 20 14 35 -47 106 -67 78 -145 134 -210 152 -42 11
-48 10 -124 -26 -79 -37 -80 -37 -112 -20 -49 27 -77 18 -100 -31 -11 -23 -22
-42 -25 -43 -4 0 -21 53 -39 118 -74 258 -171 483 -218 505 -22 10 -31 3 -117
-82 l-92 -92 -65 77 c-143 172 -362 331 -483 351 -27 4 -36 1 -44 -13z"/>
<path d="M7019 2664 c-11 -13 -9 -26 10 -82 55 -155 130 -263 237 -343 45 -33
61 -39 101 -39 118 1 223 42 304 117 51 48 60 72 34 93 -17 14 -31 11 -190
-41 -49 -17 -98 -33 -107 -36 -13 -4 -18 0 -18 12 0 35 -67 141 -126 202 -43
44 -83 73 -135 98 -83 40 -91 41 -110 19z m149 -128 c73 -58 138 -154 156
-229 l7 -29 -29 20 c-42 30 -105 102 -135 153 -34 57 -59 119 -50 119 5 0 27
-16 51 -34z"/>
<path d="M9131 2221 c-24 -24 -74 -154 -102 -265 -20 -81 -21 -89 -5 -104 28
-28 49 -3 76 94 30 106 62 194 70 194 4 0 28 -29 55 -65 39 -51 55 -65 75 -65
31 0 122 53 190 110 56 47 50 49 181 -36 38 -25 82 -46 97 -46 15 -1 72 22
127 51 83 43 112 53 174 59 78 7 101 22 87 57 -5 15 -17 17 -94 13 -82 -4 -93
-7 -189 -57 l-102 -53 -81 52 c-98 62 -143 82 -167 73 -10 -4 -52 -34 -93 -66
-105 -83 -114 -87 -142 -51 -46 59 -111 124 -124 124 -8 0 -22 -8 -33 -19z"/>
<path d="M7920 16855 c-10 -12 -12 -49 -7 -158 9 -194 42 -341 105 -467 29
-58 58 -74 82 -45 11 13 7 28 -23 94 -63 137 -96 300 -97 477 0 88 -8 114 -36
114 -6 0 -17 -7 -24 -15z"/>
<path d="M7682 15558 c-21 -21 -13 -48 26 -99 45 -59 78 -72 103 -40 22 27 17
42 -34 104 -40 48 -71 59 -95 35z"/>
<path d="M7941 15523 c-16 -20 -40 -56 -53 -79 l-23 -44 21 -21 c14 -14 28
-19 41 -15 20 6 113 132 113 152 0 16 -34 44 -53 44 -8 0 -29 -16 -46 -37z"/>
<path d="M2829 15323 c-80 -83 -121 -143 -164 -236 -57 -126 -70 -193 -69
-362 2 -165 10 -208 41 -213 36 -5 42 16 30 118 -19 171 20 361 101 495 20 33
69 95 109 137 74 78 83 94 61 116 -23 23 -45 12 -109 -55z"/>
<path d="M7727 15350 c-39 -24 -47 -35 -47 -59 0 -38 29 -57 63 -40 76 40 106
86 75 117 -19 19 -40 14 -91 -18z"/>
<path d="M7852 15338 c-20 -20 -14 -41 31 -111 45 -71 64 -85 97 -67 32 17 24
56 -26 126 -46 65 -74 80 -102 52z"/>
<path d="M2173 15188 c-31 -39 -20 -308 18 -456 27 -105 106 -263 172 -343 55
-66 186 -173 257 -209 35 -18 40 -18 54 -4 24 23 20 31 -25 62 -92 62 -194
149 -236 201 -59 75 -128 217 -154 321 -16 66 -22 123 -25 253 -1 92 -6 172
-9 177 -9 14 -41 12 -52 -2z"/>
<path d="M13922 14498 c-23 -23 -12 -53 38 -105 54 -57 68 -63 93 -35 26 29
20 49 -29 102 -47 50 -78 62 -102 38z"/>
<path d="M14173 14430 c-49 -36 -56 -51 -37 -79 20 -28 38 -27 91 7 46 29 63
63 43 87 -19 23 -52 18 -97 -15z"/>
<path d="M13993 14269 c-23 -16 -45 -38 -48 -50 -8 -23 19 -59 43 -59 13 0 89
53 102 72 4 4 23 -15 43 -42 38 -51 69 -64 95 -38 22 22 13 54 -26 96 -42 45
-61 51 -87 26 -15 -15 -17 -15 -31 5 -20 28 -41 26 -91 -10z"/>
<path d="M13929 13523 c-11 -12 -14 -57 -14 -187 0 -209 -7 -226 -115 -306
-65 -47 -71 -54 -68 -83 2 -27 11 -36 51 -58 115 -62 183 -146 241 -296 37
-95 61 -122 95 -104 11 7 25 19 30 29 5 10 13 94 17 186 6 145 10 172 25 187
11 11 30 19 42 19 25 0 57 28 57 49 0 8 -24 40 -54 72 -55 59 -140 191 -176
273 -11 24 -30 82 -41 128 -11 46 -25 89 -31 96 -15 17 -43 15 -59 -5z m145
-450 l55 -83 -24 -35 c-23 -35 -45 -112 -45 -161 0 -23 -5 -19 -44 33 -24 32
-65 73 -90 92 l-46 34 49 52 c30 31 56 72 67 103 10 28 19 50 20 49 1 -1 27
-39 58 -84z"/>
</g>
</svg>
