<?xml version="1.0" standalone="no"?>
<!DOCTYPE svg PUBLIC "-//W3C//DTD SVG 20010904//EN"
 "http://www.w3.org/TR/2001/REC-SVG-20010904/DTD/svg10.dtd">
<svg version="1.0" xmlns="http://www.w3.org/2000/svg"
 width="1500.000000pt" height="1800.000000pt" viewBox="0 0 1500.000000 1800.000000"
 preserveAspectRatio="xMidYMid meet">

<g transform="translate(0.000000,1800.000000) scale(0.100000,-0.100000)"
fill="#000000" stroke="none">
<path d="M5731 17459 c-18 -11 -75 -62 -126 -112 -106 -106 -143 -165 -240
-382 -36 -82 -91 -193 -120 -245 -74 -130 -83 -171 -60 -296 39 -219 89 -346
204 -518 40 -59 70 -110 67 -113 -3 -3 -44 2 -92 12 -99 20 -169 16 -275 -16
-103 -30 -176 -85 -226 -170 -31 -53 -62 -89 -120 -136 -136 -113 -220 -202
-254 -271 -39 -80 -60 -204 -57 -347 3 -181 -44 -285 -209 -464 -149 -162
-221 -319 -230 -506 -6 -117 9 -172 79 -289 54 -90 53 -109 -6 -287 -45 -138
-67 -275 -52 -334 8 -31 56 -55 111 -55 19 0 35 -4 35 -8 0 -5 -16 -41 -35
-80 -45 -94 -65 -174 -65 -263 1 -118 36 -176 156 -254 89 -58 94 -68 93 -214
-1 -91 4 -138 15 -169 18 -50 62 -116 104 -155 l30 -28 22 35 c12 20 25 36 29
36 12 0 71 -65 104 -116 30 -45 40 -51 167 -106 74 -32 159 -65 188 -73 30 -7
56 -16 59 -18 2 -3 0 -40 -6 -84 -6 -43 -15 -121 -21 -173 -16 -143 -66 -415
-95 -515 -70 -244 -118 -321 -339 -540 -173 -172 -216 -234 -265 -384 -35
-106 -22 -196 36 -263 14 -15 5 -36 -85 -210 -55 -107 -146 -277 -203 -379
-227 -409 -347 -687 -393 -911 -21 -103 -20 -140 5 -172 l21 -26 -73 -113
c-156 -241 -344 -588 -648 -1197 -343 -686 -413 -844 -431 -979 -24 -179 25
-359 122 -446 79 -72 177 -105 387 -128 l104 -12 28 -68 c59 -146 148 -259
283 -359 102 -76 214 -129 351 -167 155 -42 194 -46 254 -26 28 9 57 15 65 13
15 -3 441 -436 435 -442 -2 -2 -42 4 -89 15 -114 25 -174 25 -200 -1 -31 -31
-24 -54 36 -122 31 -35 65 -81 76 -103 l19 -40 -38 45 c-68 82 -156 160 -293
264 -257 194 -348 251 -385 242 -60 -15 -70 -63 -26 -116 39 -48 156 -283 186
-375 36 -111 68 -345 47 -345 -4 0 -22 25 -41 56 -64 108 -284 348 -349 383
-31 17 -68 7 -87 -23 -15 -23 -14 -34 25 -173 23 -81 52 -182 65 -223 22 -72
49 -219 42 -226 -2 -2 -31 37 -65 86 -164 236 -295 378 -477 515 -128 96 -173
125 -198 125 -23 0 -57 -35 -57 -61 0 -11 28 -68 62 -127 124 -214 180 -363
229 -602 16 -80 35 -171 43 -202 8 -32 12 -58 10 -58 -3 0 -42 33 -87 73 -102
90 -331 268 -374 290 -39 21 -78 9 -94 -27 -10 -21 -6 -33 25 -84 51 -85 78
-149 158 -376 131 -375 147 -442 148 -613 l0 -103 -27 -5 c-145 -30 -265 -89
-423 -208 -179 -135 -196 -159 -146 -206 21 -20 32 -22 68 -17 102 14 267 18
338 7 105 -16 298 -60 342 -78 l38 -15 0 -107 c0 -138 10 -155 84 -148 50 4
317 59 346 70 17 7 43 -30 89 -130 42 -89 60 -103 125 -103 62 0 189 37 253
74 39 23 44 23 52 8 17 -33 41 -118 60 -211 20 -98 34 -121 76 -121 26 0 57
33 75 80 44 116 205 390 229 390 4 0 20 -14 36 -30 16 -17 34 -30 40 -30 19 0
281 -274 303 -316 12 -23 19 -44 16 -47 -11 -10 8 -48 31 -63 18 -12 27 -12
49 -3 28 13 31 19 46 97 5 29 17 78 26 108 l16 56 78 -80 c136 -139 201 -144
377 -26 119 80 147 83 220 25 86 -68 107 -75 193 -65 41 4 119 7 174 6 78 -2
113 2 165 19 l67 21 52 -22 c94 -40 192 -164 284 -356 48 -102 59 -114 102
-114 39 0 54 30 85 170 30 132 57 225 81 272 23 44 91 128 104 128 7 0 40 -17
74 -37 101 -62 208 -218 248 -360 9 -35 27 -72 39 -83 28 -26 90 -30 113 -7
32 33 10 224 -47 394 l-38 113 41 0 c23 0 79 7 126 15 78 14 95 14 198 -2
l112 -17 40 -61 c84 -130 150 -310 150 -410 0 -53 25 -87 63 -88 52 0 63 23
72 141 20 253 7 371 -56 495 -16 32 -29 59 -29 62 0 2 15 6 33 10 17 3 73 17
124 31 112 31 127 26 188 -62 33 -47 50 -62 84 -73 39 -12 52 -11 156 14 113
28 114 28 181 11 67 -17 108 -15 152 7 19 9 36 7 90 -12 169 -58 365 -226 453
-387 21 -37 43 -70 50 -75 23 -14 65 -10 81 9 26 29 33 133 13 194 -19 56 -80
182 -116 235 -20 31 -20 33 -2 40 10 3 55 21 100 40 45 18 89 33 98 33 28 0
78 -31 132 -81 68 -64 92 -64 180 -3 77 52 89 52 224 3 89 -33 118 -35 157
-15 59 31 107 99 142 200 15 46 21 52 51 57 19 3 44 11 56 17 93 50 247 -78
402 -337 49 -81 77 -101 116 -83 34 16 41 52 17 98 -10 22 -22 71 -26 109 -9
95 -33 207 -60 286 -18 52 -21 76 -15 115 4 27 14 96 23 154 22 146 69 331
112 447 44 119 150 333 211 427 53 82 149 186 172 186 31 0 61 30 61 60 0 39
-31 58 -106 66 -75 8 -146 -11 -268 -72 -49 -25 -91 -42 -94 -40 -10 10 20
172 45 240 36 100 142 309 213 420 33 51 60 100 60 109 0 8 -12 25 -27 36 -33
26 -55 21 -108 -28 -22 -20 -74 -63 -115 -95 -41 -33 -92 -75 -112 -94 -21
-20 -40 -33 -43 -30 -13 13 66 228 147 400 49 104 50 108 34 133 -38 58 -133
13 -243 -117 -38 -44 -87 -102 -110 -130 -24 -27 -43 -46 -44 -41 0 4 0 72 1
151 1 79 -4 185 -11 237 -9 79 -9 98 2 114 110 150 149 208 203 298 36 60 77
136 92 171 17 39 33 62 43 62 24 1 54 28 105 99 137 188 206 408 206 655 0 82
2 89 25 108 34 26 118 195 156 312 17 50 39 143 50 206 11 63 23 117 27 121 4
4 40 24 81 45 92 49 206 167 254 263 l32 66 -1 175 c0 210 -25 406 -90 717
l-44 213 39 40 c45 47 81 114 92 173 15 83 -50 274 -172 503 -50 95 -129 275
-129 295 0 3 66 9 148 12 347 14 737 170 867 347 83 113 122 293 91 423 -27
115 -51 150 -117 170 -14 5 -15 13 -7 54 23 118 9 341 -29 453 -33 98 -203
319 -274 356 -58 29 -72 22 -215 -115 -77 -75 -178 -159 -237 -199 -202 -138
-456 -253 -673 -307 l-110 -28 -140 68 c-174 85 -222 102 -357 125 l-107 19
-56 60 c-77 84 -177 155 -254 181 -53 18 -79 21 -140 17 -92 -7 -246 -59 -382
-128 -53 -27 -103 -49 -111 -49 -11 0 -16 20 -19 90 -6 128 -12 134 -188 159
-180 27 -441 40 -563 30 -54 -4 -153 -22 -219 -39 -66 -17 -126 -29 -133 -26
-7 2 -14 39 -19 98 -3 51 -17 171 -31 267 l-25 174 46 49 c54 58 79 110 99
209 20 102 51 365 70 604 20 250 19 244 47 263 53 34 299 293 341 358 89 138
163 310 192 449 30 138 25 362 -14 584 -40 235 -39 261 3 375 58 153 71 224
71 381 0 119 -4 151 -23 215 -44 139 -85 204 -266 425 -109 131 -152 192 -143
202 4 3 33 0 66 -6 320 -63 500 -12 672 193 185 218 263 487 235 811 -13 147
-28 175 -93 175 -22 0 -53 -20 -124 -81 -164 -140 -295 -209 -502 -264 -163
-43 -557 -94 -782 -101 -88 -2 -193 -9 -232 -15 l-72 -10 -72 61 c-83 71 -179
135 -378 250 -150 87 -235 120 -305 120 -42 0 -152 -26 -212 -51 -28 -11 -35
-9 -90 26 -179 115 -511 172 -943 163 l-214 -5 -34 30 c-69 60 -126 205 -148
374 -17 131 -20 497 -4 613 22 168 23 179 4 200 -23 25 -51 25 -94 -1z m-205
-727 c0 -182 3 -219 24 -302 38 -157 96 -294 174 -409 28 -42 34 -56 24 -63
-7 -5 -33 -21 -58 -35 -25 -15 -60 -39 -79 -54 l-34 -28 -43 52 c-151 180
-217 493 -149 707 34 107 129 340 138 340 1 0 2 -93 3 -208z m204 -237 c11
-44 46 -131 78 -194 44 -89 68 -123 107 -158 58 -51 83 -59 126 -44 41 14 394
14 549 1 227 -21 401 -66 534 -140 41 -22 85 -40 100 -40 15 0 72 14 128 30
55 17 122 30 149 30 130 0 364 -137 565 -331 80 -78 97 -89 158 -108 37 -12
109 -28 160 -36 161 -27 191 -35 252 -64 143 -68 218 -180 255 -381 11 -63 31
-137 44 -165 13 -27 73 -111 134 -185 202 -245 246 -324 271 -486 18 -118 -7
-267 -76 -446 -35 -90 -36 -96 -30 -193 3 -55 17 -170 31 -255 40 -246 35
-440 -17 -600 -57 -177 -127 -295 -259 -437 -124 -135 -198 -198 -320 -275
-102 -63 -125 -91 -109 -132 17 -45 63 -55 138 -31 20 7 22 5 18 -16 -3 -13
-13 -100 -21 -194 -20 -214 -61 -491 -81 -547 -23 -66 -40 -85 -114 -133 -75
-48 -92 -78 -70 -120 7 -13 26 -29 41 -36 35 -14 34 -13 55 -209 21 -201 21
-403 1 -496 -31 -138 -89 -267 -156 -348 -45 -53 -45 -54 -32 -89 13 -35 63
-53 101 -37 84 35 201 266 234 463 15 86 16 87 161 116 236 47 420 51 675 15
161 -22 150 -17 150 -75 0 -27 -5 -81 -11 -119 -10 -60 -10 -73 4 -94 31 -47
62 -43 203 28 71 36 181 85 244 110 195 75 279 82 369 29 60 -35 131 -102 131
-123 0 -37 37 -67 92 -74 235 -31 492 -128 652 -248 115 -86 220 -231 247
-343 6 -27 21 -60 32 -72 27 -30 79 -31 108 -2 18 18 21 29 16 72 -11 90 -93
241 -185 339 -52 55 -66 44 123 104 141 46 367 154 515 247 105 66 217 154
318 251 l54 51 53 -58 c64 -71 119 -171 135 -252 18 -82 16 -255 -3 -343 -9
-41 -32 -102 -52 -137 -42 -75 -43 -88 -10 -120 35 -36 75 -33 116 9 19 19 44
37 56 40 19 6 23 2 29 -29 3 -20 4 -71 2 -113 -9 -158 -83 -256 -259 -344
-206 -103 -398 -148 -634 -148 -117 0 -164 -4 -194 -16 -51 -20 -68 -57 -51
-111 26 -79 82 -205 173 -389 97 -197 152 -343 151 -404 0 -45 -44 -115 -90
-142 -19 -11 -37 -31 -40 -44 -3 -13 8 -85 24 -161 28 -126 61 -323 94 -558 6
-49 12 -162 13 -250 0 -149 -2 -163 -24 -208 -24 -49 -164 -197 -186 -197 -8
0 -14 27 -18 73 -5 61 -10 75 -32 95 -32 27 -45 28 -79 1 -26 -20 -26 -21 -26
-163 0 -208 -39 -405 -110 -562 -27 -61 -32 -66 -55 -60 -25 6 -64 -7 -77 -28
-4 -6 -8 -72 -8 -146 0 -232 -30 -401 -95 -537 -50 -107 -91 -163 -119 -163
-38 0 -63 -30 -91 -105 -50 -135 -196 -370 -328 -525 -35 -42 -76 -98 -91
-126 -37 -68 -71 -86 -171 -92 -44 -2 -85 -8 -91 -13 -5 -5 -21 -43 -34 -85
-21 -67 -29 -80 -62 -101 -59 -36 -144 -51 -218 -38 -103 19 -332 191 -404
302 -29 46 -61 76 -101 94 -24 11 -34 27 -52 81 -33 96 -38 165 -23 296 l14
115 -24 16 c-64 44 -116 121 -139 207 -11 40 -7 53 93 320 57 154 119 321 137
372 25 69 38 92 51 92 10 0 18 -4 18 -9 0 -5 -21 -67 -46 -137 -188 -530 -205
-584 -175 -584 16 0 21 13 147 369 117 332 139 380 165 354 5 -5 -21 -101 -63
-231 -50 -158 -68 -226 -60 -234 5 -5 15 -7 21 -4 6 4 45 113 87 242 62 190
81 237 98 244 12 4 24 6 27 4 3 -2 -16 -74 -42 -161 -50 -160 -56 -188 -40
-197 17 -11 32 22 77 166 55 173 71 271 49 304 -22 33 -47 37 -130 19 -63 -14
-86 -15 -140 -6 -68 12 -76 10 -110 -21 -70 -66 -285 -240 -330 -267 -29 -18
-86 -44 -127 -59 -66 -24 -87 -26 -213 -26 -126 0 -148 2 -220 27 -114 38
-162 36 -273 -13 -116 -52 -157 -57 -256 -31 -121 32 -206 75 -266 136 l-52
52 26 52 c33 65 86 221 86 254 0 39 -31 70 -70 70 -44 0 -63 -25 -84 -110 -10
-37 -42 -120 -71 -183 -41 -87 -55 -131 -60 -180 -20 -206 -48 -326 -101 -431
-38 -76 -99 -136 -209 -204 -113 -71 -103 -40 -185 -605 -34 -237 -67 -348
-145 -485 -55 -97 -148 -193 -227 -235 -31 -17 -63 -39 -70 -49 -21 -29 -148
-127 -195 -151 -25 -12 -72 -27 -106 -33 -119 -20 -174 27 -243 206 -24 64
-30 70 -73 89 -25 11 -80 27 -121 34 -146 27 -181 54 -362 284 -116 147 -229
342 -257 445 -6 22 -11 100 -11 174 0 127 1 134 25 163 34 40 31 64 -10 101
-113 101 -184 177 -206 222 -23 49 -24 55 -21 264 1 118 3 216 5 217 1 2 43
-11 92 -27 118 -40 151 -41 181 -5 54 62 23 97 -127 146 -181 59 -279 111
-352 183 -34 34 -75 87 -91 117 -48 92 -45 90 -155 83 -112 -7 -176 8 -281 63
-81 43 -199 140 -245 202 -20 26 -60 97 -91 159 -44 88 -61 113 -82 121 -36
12 -69 -1 -84 -33 -10 -21 -8 -35 11 -81 l23 -55 -46 -76 c-44 -70 -52 -103
-26 -103 5 0 23 19 40 42 63 92 55 88 79 40 l22 -42 -51 -95 c-29 -52 -49 -99
-45 -105 15 -25 38 -4 75 70 22 44 43 80 47 80 9 0 32 -34 33 -48 0 -8 -36
-77 -80 -155 -75 -133 -86 -169 -47 -154 7 3 46 63 86 134 41 70 75 130 77
132 5 5 54 -28 54 -37 0 -4 -45 -89 -100 -187 -55 -99 -100 -186 -100 -192 0
-7 8 -13 18 -13 14 0 45 47 116 175 54 96 104 175 111 175 21 0 39 -28 27 -42
-5 -7 -76 -128 -157 -268 -81 -140 -158 -274 -171 -298 -25 -43 -24 -66 2 -60
8 2 93 138 188 303 96 165 180 301 188 303 7 1 22 -3 32 -11 17 -12 3 -39
-194 -390 -116 -207 -208 -381 -205 -387 4 -6 14 -10 22 -8 8 2 107 167 219
368 112 200 209 369 214 374 6 6 22 4 46 -7 l35 -17 -19 -33 c-72 -118 -462
-822 -462 -833 0 -8 8 -14 18 -14 11 0 40 40 89 128 39 70 147 260 238 422 92
162 172 301 179 308 16 17 49 4 43 -17 -2 -9 -121 -231 -265 -494 -144 -263
-263 -486 -264 -495 -2 -11 4 -17 16 -17 15 0 81 112 296 505 256 468 278 505
304 508 24 3 28 1 22 -14 -4 -9 -106 -198 -228 -418 -121 -221 -250 -453 -284
-517 -35 -63 -64 -123 -64 -132 0 -20 23 -23 37 -5 6 7 122 216 258 463 365
664 344 630 364 610 18 -19 45 35 -358 -729 -128 -242 -230 -447 -229 -455 2
-9 10 -16 17 -16 9 0 133 225 307 555 161 305 295 560 298 565 5 11 69 -52 64
-64 -18 -43 -612 -1153 -620 -1157 -5 -4 -37 -1 -69 6 -58 12 -62 12 -114 -14
l-54 -28 -73 15 c-233 49 -445 170 -552 316 -38 52 -99 169 -140 271 -14 35
-33 72 -43 82 -24 27 -69 23 -98 -8 -24 -25 -28 -26 -90 -20 -144 15 -261 71
-295 141 -32 67 -45 173 -31 267 16 115 90 283 417 942 342 691 501 984 695
1279 43 66 79 129 79 139 0 20 -36 62 -60 70 -11 3 -9 22 10 99 50 204 132
394 348 801 77 144 171 329 210 410 57 119 75 148 91 148 60 0 101 49 101 120
0 36 -6 46 -60 98 -76 74 -77 92 -13 221 43 87 56 103 205 250 181 177 239
255 293 395 32 84 40 95 63 98 20 2 40 23 86 88 33 47 133 184 222 305 401
548 430 595 362 603 -24 3 -42 -19 -214 -260 -251 -352 -427 -584 -431 -571
-5 15 25 161 39 187 6 11 28 41 48 66 20 25 86 119 147 210 60 91 133 199 162
240 54 78 58 103 19 116 -12 3 -27 -1 -38 -11 -21 -19 -195 -275 -253 -371
-20 -34 -44 -67 -52 -74 -12 -10 -14 -5 -9 42 8 73 37 132 138 283 94 141 98
156 51 204 -26 27 -23 27 -211 16 -164 -10 -252 8 -399 80 -192 94 -280 178
-335 321 -17 44 -40 104 -52 134 -11 30 -42 93 -68 140 -57 101 -80 173 -80
252 0 60 28 201 54 275 25 70 30 127 13 142 -26 21 -77 128 -77 160 0 16 18
75 41 131 24 60 43 127 46 160 5 54 2 66 -43 161 -42 91 -48 113 -52 184 -8
162 55 306 205 468 158 171 203 291 203 546 0 104 5 157 19 214 34 129 64 177
216 337 50 52 105 113 123 135 17 23 56 55 85 73 102 61 316 95 369 58 26 -18
79 -21 111 -5 12 6 54 44 92 85 66 71 74 76 135 90 79 19 185 69 210 101 10
13 16 32 13 43 -8 29 -51 60 -83 60 -23 0 -35 10 -64 54 -96 145 -141 268
-157 432 -12 120 -8 302 7 326 4 7 16 -50 26 -132 10 -80 27 -181 38 -225z
m4156 -631 c33 -269 -159 -644 -383 -747 -88 -40 -353 -24 -453 28 -21 11 -33
29 -46 67 -21 66 -49 124 -80 165 -13 17 -24 35 -24 40 0 4 32 18 70 30 261
84 490 193 712 341 91 61 169 115 173 121 14 23 24 9 31 -45z m-996 -295 c-58
-17 -112 -32 -121 -35 -8 -3 -33 5 -55 18 l-39 23 100 11 c55 6 127 12 160 12
l60 1 -105 -30z m-3680 -4058 c0 -12 -29 -35 -36 -28 -11 10 5 37 21 37 8 0
15 -4 15 -9z m-258 -5891 c21 -14 38 -29 38 -33 0 -10 -531 -995 -567 -1050
-23 -36 -26 -38 -71 -35 -35 2 -46 7 -44 18 6 24 595 1131 601 1128 3 -2 23
-14 43 -28z m4678 -39 c0 -7 -171 -472 -206 -561 -10 -24 -22 17 -23 74 -1 67
135 415 182 464 31 32 47 40 47 23z m-4595 -128 c-5 -73 -11 -103 -25 -118
-10 -11 -86 -156 -169 -322 -87 -174 -157 -303 -165 -303 -7 0 -40 -13 -72
-30 -32 -16 -59 -28 -61 -27 -5 5 483 897 491 897 5 0 5 -44 1 -97z m4405 -89
c-42 -106 -50 -111 -50 -32 0 64 1 67 38 96 20 17 38 27 40 23 2 -5 -11 -44
-28 -87z m-1548 17 c24 -16 76 -45 116 -65 47 -24 72 -43 72 -54 0 -9 -7 -66
-15 -127 -61 -456 -33 -643 122 -815 59 -66 119 -110 149 -110 17 0 24 -7 29
-32 11 -55 76 -200 116 -258 42 -63 154 -173 216 -215 40 -26 47 -27 114 -21
l71 7 -7 -43 c-10 -59 -12 -61 -54 -54 -24 4 -69 -3 -133 -21 l-98 -26 -37 27
c-21 14 -55 38 -75 52 -21 15 -52 29 -70 33 -27 6 -34 13 -39 41 -8 38 -32 60
-64 60 -26 0 -45 -20 -73 -76 -17 -34 -27 -42 -57 -47 -20 -3 -58 -20 -86 -36
-27 -17 -54 -31 -60 -31 -6 0 -48 18 -93 41 l-83 41 -17 98 c-23 131 -45 191
-78 210 -43 24 -75 -8 -109 -106 -31 -92 -97 -239 -104 -232 -3 2 -18 47 -33
99 -40 132 -142 390 -164 415 -18 20 -18 25 -3 120 28 180 65 429 65 441 0 6
39 37 87 68 48 31 110 80 138 109 90 93 162 264 187 449 7 48 16 87 20 87 4 0
26 -13 50 -29z m708 -54 c0 -16 -338 -808 -351 -821 -10 -11 -41 58 -41 92 0
12 69 176 153 364 130 289 158 344 184 360 36 21 55 23 55 5z m654 -86 l7 -79
-90 -283 c-50 -156 -144 -453 -209 -659 l-118 -375 -47 -3 c-37 -2 -47 1 -47
13 0 15 456 1441 466 1457 3 4 11 8 18 8 9 0 16 -24 20 -79z m-554 55 c0 -32
-315 -853 -339 -883 l-26 -32 -27 26 c-16 15 -28 31 -28 37 0 7 204 488 350
824 15 34 24 42 44 42 16 0 26 -6 26 -14z m118 -21 c37 -8 35 -5 21 -42 -11
-28 -91 -258 -249 -713 -44 -127 -84 -238 -88 -247 -7 -12 -13 3 -21 53 -7 39
-20 78 -31 89 -18 20 -14 30 142 448 130 345 164 427 177 423 9 -2 31 -7 49
-11z m339 3 c-2 -7 -91 -281 -196 -608 -258 -799 -252 -780 -261 -780 -4 0
-24 18 -43 39 l-36 40 214 641 c118 353 219 648 225 655 18 22 105 33 97 13z
m-717 -19 c0 -16 -231 -529 -241 -535 -14 -9 -10 150 5 193 8 21 44 105 81
185 64 139 69 145 104 155 50 14 51 14 51 2z m560 -3 c0 -20 -400 -1209 -411
-1220 -8 -9 -69 107 -69 132 0 8 77 235 171 505 94 271 178 513 185 539 15 50
10 47 107 56 9 1 17 -4 17 -12z m-4035 -332 c-31 -65 -66 -129 -77 -141 -22
-24 -115 -59 -126 -49 -3 4 52 123 123 264 l130 257 3 -106 3 -106 -56 -119z
m3325 309 c2 -2 -15 -41 -38 -86 l-42 -82 6 85 c3 47 8 88 11 93 4 6 52 -1 63
-10z m1011 -390 l20 -82 -126 -348 c-69 -191 -142 -392 -161 -445 -31 -84 -41
-100 -71 -118 -39 -23 -69 -23 -67 0 1 15 162 527 297 945 l71 220 8 -45 c5
-25 18 -82 29 -127z m-4051 -143 c0 -39 -8 -38 -26 5 -18 45 -18 48 6 35 13
-7 20 -21 20 -40z m4150 -83 c0 -8 -65 -187 -144 -398 -136 -362 -145 -384
-168 -381 -45 5 -48 21 -17 102 15 41 82 225 148 408 67 183 123 338 127 343
7 12 54 -53 54 -74z m-4301 12 c21 -47 21 -54 7 -87 -28 -69 -287 -607 -297
-617 -6 -6 -23 4 -48 30 l-39 40 168 343 c93 188 173 342 178 342 5 0 19 -23
31 -51z m-255 -282 l-157 -316 -33 27 c-19 15 -34 33 -34 40 0 11 211 454 233
490 8 12 139 83 145 77 1 -1 -68 -144 -154 -318z m-54 224 c0 -15 -201 -420
-212 -427 -12 -7 -78 54 -78 73 0 12 157 333 163 333 1 0 20 7 42 15 45 16 85
19 85 6z m4665 -28 c-5 -21 -9 -83 -10 -138 -2 -78 -7 -111 -24 -150 -12 -27
-54 -133 -93 -235 -39 -102 -76 -191 -81 -197 -11 -15 -87 -18 -87 -3 0 5 61
172 135 372 74 200 137 369 140 376 2 6 10 12 16 12 8 0 9 -12 4 -37z m-4285
-122 c0 -23 -233 -585 -251 -605 -11 -12 -69 41 -69 62 0 12 197 437 268 577
l25 50 13 -30 c7 -16 13 -41 14 -54z m-670 -91 c-19 -39 -38 -70 -44 -70 -6 0
-25 14 -43 32 -39 38 -44 68 -10 68 12 0 45 11 72 24 28 13 52 21 54 19 3 -2
-11 -35 -29 -73z m700 -78 c-1 -93 -27 -174 -114 -349 -48 -95 -90 -173 -94
-173 -13 0 -32 23 -32 39 0 26 223 541 231 535 5 -3 9 -26 9 -52z m4287 -88
l21 -56 -42 -111 c-50 -135 -53 -140 -79 -133 -11 3 -33 -2 -49 -10 -15 -8
-28 -12 -28 -9 0 15 143 375 149 375 3 0 16 -25 28 -56z m-4073 -174 c23 -35
73 -106 113 -156 l71 -92 -14 -149 c-37 -400 -96 -581 -284 -872 -96 -150
-101 -176 -42 -233 62 -62 120 -76 384 -98 146 -12 221 -4 303 34 108 49 182
130 353 384 116 173 174 284 166 317 -5 18 1 22 54 33 55 11 133 45 189 82 20
13 25 12 50 -12 47 -43 67 -44 112 -2 47 41 123 159 155 238 12 29 42 77 67
107 63 74 131 194 170 300 19 49 36 89 40 89 21 0 134 -369 154 -502 10 -68
-8 -60 -30 13 -23 76 -53 101 -93 78 -18 -10 -30 -29 -38 -59 -64 -243 -108
-397 -124 -434 -10 -25 -44 -116 -76 -203 -51 -143 -108 -273 -118 -273 -3 0
-17 5 -33 11 -41 16 -90 13 -135 -7 -38 -17 -43 -17 -103 -1 -104 28 -166 19
-232 -33 -16 -13 -41 -20 -67 -20 -91 0 -146 -34 -131 -80 10 -32 36 -39 123
-33 71 5 89 10 134 39 62 40 88 42 181 12 l68 -22 52 27 c50 27 53 28 94 13
38 -13 46 -13 90 3 42 15 52 24 83 79 20 36 42 62 51 62 10 0 70 57 135 126
l119 127 8 -58 c5 -32 5 -67 0 -76 -4 -10 -69 -73 -143 -140 -93 -84 -135
-128 -135 -143 0 -48 38 -28 155 79 63 58 118 105 123 105 4 0 7 -11 7 -24 0
-15 -24 -48 -70 -97 -72 -76 -86 -110 -46 -117 13 -3 34 11 63 44 l44 49 -6
-38 c-4 -28 -1 -46 10 -64 16 -24 20 -25 73 -18 32 4 62 11 68 16 7 6 16 4 24
-6 18 -21 30 -19 62 12 l28 27 0 -55 c0 -61 11 -79 50 -79 36 0 49 11 61 51
13 45 32 590 24 699 -8 95 -22 120 -66 120 -41 0 -53 -24 -99 -198 -22 -84
-52 -192 -67 -240 l-27 -87 -12 170 c-15 210 -30 332 -55 454 -10 52 -19 95
-19 97 0 1 13 -4 29 -12 38 -19 79 -2 87 35 3 14 37 91 76 171 l72 145 16
-117 c9 -64 18 -119 20 -121 26 -23 53 -27 75 -13 13 9 26 25 30 36 8 26 25
25 85 -5 60 -30 108 -32 160 -5 22 11 40 17 40 13 0 -5 -13 -40 -30 -80 -66
-157 -140 -478 -140 -609 0 -46 3 -56 25 -70 21 -13 31 -15 50 -6 27 13 29 18
46 152 19 155 99 451 130 485 5 5 9 -54 10 -145 1 -85 4 -166 8 -179 3 -13 25
-37 48 -54 59 -42 80 -31 124 67 19 42 37 76 40 76 3 0 12 -35 19 -77 24 -149
77 -286 123 -316 32 -20 209 -55 329 -63 173 -12 353 27 412 90 42 46 117 159
171 261 27 50 60 104 75 120 15 17 44 54 65 83 46 65 50 61 69 -67 16 -107 34
-141 76 -141 33 0 50 21 70 83 13 42 13 42 45 21 14 -9 33 -13 45 -9 24 8 25
-9 10 -149 -11 -104 2 -150 45 -166 15 -6 68 -10 118 -10 51 0 157 -5 237 -10
79 -6 152 -8 161 -5 10 3 29 26 44 50 14 25 33 45 41 45 9 0 103 77 210 170
106 94 196 170 199 170 3 0 5 -24 5 -54 l0 -55 -157 -132 c-244 -205 -303
-259 -303 -279 0 -23 19 -30 45 -17 11 6 110 87 220 181 191 163 360 296 376
296 4 0 0 -18 -9 -41 -12 -31 -75 -97 -269 -281 -194 -184 -253 -246 -251
-262 7 -46 38 -27 189 116 215 204 279 261 286 255 3 -3 1 -25 -3 -49 -8 -40
-26 -59 -222 -242 -177 -165 -213 -202 -208 -220 3 -11 6 -33 6 -48 0 -31 23
-58 51 -58 10 0 51 29 90 65 95 87 159 136 314 237 130 86 271 165 279 157 3
-2 -20 -40 -50 -84 -62 -90 -200 -363 -238 -470 -55 -156 -86 -289 -111 -477
l-6 -48 -52 39 c-66 49 -84 58 -142 71 -57 13 -95 -5 -95 -44 0 -30 12 -40 82
-66 77 -28 145 -103 187 -204 17 -42 34 -90 38 -108 l6 -33 -61 56 c-88 80
-150 111 -232 117 -50 3 -76 0 -100 -12 -18 -9 -48 -16 -66 -16 -51 0 -89 -39
-113 -118 -23 -75 -53 -130 -77 -139 -9 -3 -60 9 -114 27 -125 42 -188 40
-256 -8 -24 -18 -47 -32 -51 -32 -3 0 -29 18 -58 40 -58 44 -120 70 -172 70
-20 0 -92 -22 -161 -50 l-125 -50 -69 65 c-70 66 -108 81 -136 53 -27 -27 -13
-63 49 -123 68 -67 154 -173 146 -181 -3 -3 -30 15 -60 39 -73 59 -166 111
-267 147 -92 34 -131 38 -177 19 -26 -11 -43 -11 -91 -1 -82 17 -132 15 -230
-9 l-86 -21 -58 65 c-94 105 -149 117 -306 67 -52 -17 -103 -28 -113 -25 -10
4 -32 -2 -48 -11 -29 -17 -31 -17 -50 0 -26 23 -64 15 -78 -17 -13 -27 -5 -44
40 -96 36 -42 100 -173 95 -196 -2 -11 -18 7 -45 48 -81 122 -284 287 -355
287 -36 0 -64 -40 -49 -68 6 -11 23 -28 38 -38 l28 -18 -105 -17 c-131 -22
-189 -23 -214 -4 -11 8 -28 15 -37 15 -10 0 -34 22 -54 50 -40 54 -72 65 -107
33 -24 -22 -23 -31 13 -83 33 -48 121 -221 116 -227 -2 -1 -24 17 -50 41 -82
79 -238 153 -284 135 -36 -13 -107 -90 -148 -160 -36 -62 -95 -222 -95 -260 0
-33 -14 -21 -59 53 -67 108 -167 208 -247 247 -79 38 -138 42 -228 16 -51 -15
-66 -16 -112 -5 -45 11 -66 11 -134 -3 -91 -18 -110 -15 -171 34 -116 91 -206
87 -349 -16 -134 -96 -158 -91 -304 74 -49 56 -98 103 -107 106 -36 12 -56
-12 -83 -100 -15 -47 -29 -85 -32 -85 -4 0 -65 57 -138 127 -72 69 -153 144
-181 165 -27 22 -58 50 -68 64 -31 40 -66 32 -125 -30 -52 -55 -146 -191 -178
-259 -10 -20 -22 -36 -27 -34 -5 1 -26 41 -47 87 -85 196 -104 220 -150 197
-21 -11 -25 -20 -24 -56 l1 -43 -81 -39 c-45 -21 -99 -40 -120 -41 l-40 -3
-45 82 c-25 44 -62 100 -82 124 l-36 44 -54 -13 c-112 -27 -275 -62 -290 -62
-13 0 -17 17 -23 98 -8 111 -11 117 -96 150 -101 39 -322 85 -470 97 l-84 7
39 34 c83 71 286 154 375 154 25 0 43 7 57 23 20 20 21 28 12 107 -4 47 -13
133 -18 193 -6 59 -22 150 -36 202 -25 90 -138 424 -169 499 -8 20 -11 36 -7
36 4 0 50 -35 102 -78 116 -97 302 -288 390 -402 74 -95 225 -322 258 -387 25
-50 61 -65 91 -38 11 10 34 54 51 99 17 44 34 85 38 89 10 10 62 -89 95 -181
47 -133 55 -142 127 -142 70 0 116 -36 183 -142 38 -59 69 -88 97 -88 9 0 41
16 70 36 62 42 75 40 143 -16 44 -36 53 -40 106 -40 31 0 99 -9 151 -20 115
-24 157 -25 181 -3 22 20 23 56 2 74 -20 17 -169 47 -274 55 -60 5 -81 12
-105 32 -34 28 -122 72 -146 72 -8 0 -38 -11 -65 -25 -27 -14 -50 -25 -51 -25
-1 0 -22 28 -46 63 -52 72 -108 113 -186 136 -54 17 -54 17 -81 86 -72 186
-157 295 -232 295 -35 0 -57 -29 -75 -97 -8 -32 -18 -62 -23 -67 -5 -4 -17 9
-28 31 -29 56 -172 254 -253 349 -53 63 -69 89 -69 113 0 44 -66 428 -90 521
-26 100 -75 241 -107 303 -13 27 -22 51 -19 54 3 3 47 -37 99 -88 88 -89 228
-267 348 -444 l54 -80 60 0 c55 0 61 2 73 27 8 17 13 69 14 135 0 93 -4 128
-36 251 -20 79 -36 146 -36 150 0 3 18 -12 41 -33 49 -48 145 -190 200 -294
63 -120 88 -151 120 -151 30 0 69 33 70 59 0 9 0 61 0 116 -1 64 2 95 8 85 16
-27 99 -381 131 -557 17 -95 36 -231 43 -302 13 -131 24 -161 57 -161 10 0 23
-7 30 -15 18 -21 37 -19 53 8 8 12 47 133 88 269 86 293 115 323 49 54 -23
-97 -40 -183 -36 -191 9 -25 48 -14 57 15 4 14 20 78 35 143 27 119 27 119 54
113 16 -3 36 1 47 9 26 18 53 75 53 112 0 16 6 37 14 48 8 11 28 70 46 130 43
144 45 148 63 105 13 -32 13 -37 -3 -52 -10 -9 -48 -108 -85 -218 -58 -175
-66 -205 -55 -225 10 -19 9 -27 -5 -48 -21 -33 -42 -111 -50 -193 -4 -35 -11
-64 -17 -64 -5 0 -27 9 -49 21 -51 25 -86 22 -112 -12 -21 -29 -33 -103 -23
-143 8 -33 61 -93 99 -112 20 -11 50 -15 95 -12 l66 3 7 -33 c13 -64 62 -91
101 -55 21 19 23 54 6 134 -12 58 -12 58 16 80 60 47 81 143 50 224 -9 22 -18
52 -21 66 -6 30 76 314 87 302 4 -4 15 -31 24 -60 17 -52 29 -63 72 -63 42 0
51 39 30 123 -55 213 -148 442 -252 618 -43 74 -146 184 -236 252 -36 28 -105
133 -94 144 8 8 117 -16 206 -44 67 -22 83 -32 160 -107 116 -111 129 -120
184 -112 24 4 50 15 59 24 21 24 223 425 237 470 6 20 14 44 16 52 4 10 12 4
26 -20 12 -19 39 -64 62 -100z m4180 51 c16 -17 15 -23 -16 -107 -35 -92 -45
-102 -94 -90 l-24 6 35 96 c19 52 37 99 40 105 10 15 41 10 59 -10z m1232 -88
c10 -99 -3 -303 -27 -418 -12 -55 -24 -115 -26 -134 -6 -38 -64 -132 -216
-348 l-100 -143 -156 7 c-86 3 -163 9 -171 13 -14 7 -12 43 13 307 15 164 29
323 30 353 l2 55 80 19 c51 12 107 35 158 65 73 42 81 50 102 101 l23 55 64 3
c78 3 116 22 164 84 21 26 42 48 46 48 3 0 10 -30 14 -67z m-6816 -58 c129
-97 250 -216 318 -315 123 -180 224 -335 233 -357 12 -32 12 -163 0 -163 -5 0
-29 38 -54 84 -24 46 -104 173 -177 282 -232 347 -256 372 -319 328 -28 -20
-32 -16 -61 66 -12 36 -33 86 -46 112 -27 53 -30 65 -11 51 6 -6 59 -45 117
-88z m5669 56 c13 -24 -28 -125 -53 -129 -35 -7 -37 13 -10 86 26 72 42 83 63
43z m85 -90 c34 -36 27 -51 -25 -51 -42 0 -47 8 -29 54 12 33 20 33 54 -3z
m208 -167 l59 -36 -7 -61 c-7 -69 -14 -87 -14 -38 0 18 -5 42 -11 54 -37 69
-109 38 -109 -46 0 -31 -61 -231 -75 -245 -2 -2 -14 19 -26 47 -12 28 -35 63
-52 77 l-30 25 24 99 24 99 45 6 c57 8 89 21 96 40 8 20 8 20 76 -21z m-919 6
c4 -4 -3 -31 -17 -61 l-24 -54 -1 52 c-1 28 -4 59 -8 68 -5 14 -2 16 18 10 13
-4 28 -11 32 -15z m429 1 c4 -4 -26 -99 -67 -211 -42 -113 -112 -306 -157
-429 -69 -187 -86 -224 -106 -232 -25 -10 -72 -12 -72 -4 0 4 298 809 322 868
10 25 14 27 42 21 17 -3 34 -9 38 -13z m-132 -10 c0 -22 -320 -865 -331 -872
-7 -4 -24 -6 -38 -4 -14 1 -34 3 -43 4 -10 0 -18 7 -18 15 0 12 69 193 259
681 l59 149 48 17 c61 20 64 21 64 10z m240 -14 c0 -7 -51 -153 -114 -324 -94
-258 -123 -325 -167 -392 -29 -45 -57 -81 -61 -81 -4 0 5 35 20 78 16 42 82
224 148 404 117 322 119 328 147 328 16 0 27 -5 27 -13z m-405 -9 c2 -2 -30
-91 -71 -198 -42 -107 -114 -294 -160 -415 -47 -120 -90 -222 -95 -226 -10 -6
-88 7 -97 16 -3 2 27 68 66 147 39 79 85 190 103 248 18 58 41 116 50 130 10
14 42 90 70 169 l52 143 40 -5 c21 -3 40 -7 42 -9z m1940 -70 c-4 -14 -36 -54
-72 -89 -44 -42 -60 -54 -48 -34 23 38 119 155 123 151 2 -2 0 -15 -3 -28z
m-5336 -32 c66 -45 152 -77 224 -83 51 -5 60 -9 69 -32 70 -172 127 -249 208
-281 19 -7 37 -15 39 -16 13 -10 -225 -371 -316 -479 -124 -148 -165 -158
-483 -124 -110 12 -130 16 -130 31 0 5 29 56 64 111 160 256 219 428 251 737
8 74 15 143 15 153 0 22 0 23 59 -17z m-1639 -113 c0 -24 -2 -43 -5 -43 -2 0
-12 26 -21 58 -9 31 -19 64 -21 72 -3 8 7 2 21 -15 19 -22 26 -41 26 -72z
m4301 56 c104 -78 122 -82 251 -48 44 11 95 19 112 17 28 -3 31 -6 28 -33 -11
-102 -176 -499 -207 -497 -16 1 -34 88 -50 247 -18 169 -26 198 -62 214 -40
18 -68 -8 -116 -107 l-42 -87 -3 154 c-2 145 3 181 27 181 4 0 32 -18 62 -41z
m2605 -143 c-6 -41 -15 -52 -89 -118 -184 -165 -237 -210 -237 -201 0 21 101
167 127 183 15 10 66 56 112 104 47 47 87 83 89 81 3 -2 1 -24 -2 -49z m-6797
-36 l34 -50 -28 -106 c-15 -58 -31 -101 -35 -97 -3 4 -14 42 -23 83 -13 56
-14 85 -7 115 5 22 10 55 10 73 0 17 3 32 8 32 4 0 22 -23 41 -50z m7031 -30
c-6 -11 -20 -24 -31 -31 -19 -10 -20 -9 -10 10 9 16 36 39 49 41 1 0 -2 -9 -8
-20z m-6540 -20 c8 -16 7 -26 -5 -42 -15 -22 -15 -21 -15 20 0 47 4 51 20 22z
m2625 -74 c7 -53 6 -57 -30 -101 -21 -25 -40 -44 -42 -41 -2 2 3 28 11 57 8
30 20 73 26 97 6 23 15 42 20 42 5 0 12 -25 15 -54z m-2995 -66 l19 -36 -54
-165 c-29 -90 -55 -157 -58 -149 -3 8 -10 37 -16 65 -8 44 -5 68 27 197 39
159 43 164 82 88z m3022 -125 c3 -46 3 -46 -103 -155 -58 -61 -108 -110 -112
-110 -3 0 2 23 11 50 11 33 48 88 102 155 47 58 88 105 92 105 4 0 8 -20 10
-45z m-2534 -8 c7 -18 12 -42 12 -53 0 -21 -89 -325 -99 -336 -3 -3 -19 4 -34
16 l-28 22 61 187 c33 103 60 189 60 192 0 3 4 5 8 5 4 0 13 -15 20 -33z
m-402 -79 c-8 -13 -40 -106 -71 -208 -31 -102 -60 -191 -64 -199 -5 -8 -11 9
-14 41 -6 44 -2 70 18 129 14 41 42 128 61 194 20 66 39 124 42 129 3 5 13 -7
24 -27 16 -33 17 -39 4 -59z m6684 -183 c-7 -9 -15 -13 -17 -11 -7 7 7 26 19
26 6 0 6 -6 -2 -15z m-3519 -259 c-31 -30 -49 -43 -45 -31 10 28 88 108 93 94
2 -6 -20 -34 -48 -63z m-2889 -149 c-9 -19 -11 -13 -10 33 0 53 1 54 10 22 8
-23 8 -39 0 -55z m-148 -128 c-7 -12 -45 10 -52 30 -3 9 5 8 27 -4 18 -9 29
-20 25 -26z"/>
<path d="M7058 15549 c-2 -6 -1 -47 3 -93 12 -155 90 -247 238 -282 75 -18
451 -38 464 -25 18 18 -2 40 -50 54 -155 47 -439 208 -551 313 -45 43 -95 59
-104 33z m172 -164 c44 -30 116 -75 160 -101 44 -25 82 -50 86 -55 7 -13 -84
-11 -148 2 -100 21 -153 65 -184 151 -26 75 -20 75 86 3z"/>
<path d="M5200 15061 c-17 -32 -12 -63 24 -137 41 -85 126 -180 197 -218 72
-40 168 -47 226 -18 42 22 89 71 103 108 15 38 27 122 20 134 -4 7 -58 12
-146 13 -160 3 -209 17 -320 93 -71 49 -88 53 -104 25z m175 -140 c87 -37 191
-54 269 -45 l59 6 -6 -38 c-9 -56 -62 -105 -121 -111 -66 -8 -127 18 -189 82
-51 51 -106 135 -90 135 5 0 40 -13 78 -29z"/>
<path d="M4955 14668 c-38 -5 -101 -12 -140 -16 -52 -5 -70 -11 -70 -22 0 -21
85 -31 165 -20 93 14 257 13 266 -1 4 -7 6 -45 5 -85 -3 -91 20 -149 86 -216
129 -131 323 -140 484 -22 52 39 66 45 81 35 51 -32 -13 79 -83 145 -93 87
-281 173 -419 192 -112 16 -296 21 -375 10z m335 -143 c-28 -30 -40 -32 -40
-6 0 25 40 55 54 41 6 -6 2 -18 -14 -35z m357 -60 c23 -14 43 -30 43 -35 0 -5
9 -12 20 -15 38 -12 14 -69 -46 -106 -61 -37 -69 -20 -19 43 25 32 45 59 45
62 0 2 -19 9 -42 15 -56 14 -72 25 -65 45 8 21 13 20 64 -9z m-307 -14 c0 -22
-45 -65 -59 -56 -17 10 -13 27 16 57 27 29 43 29 43 -1z m89 -58 c7 -13 3 -25
-16 -50 -27 -35 -53 -42 -73 -18 -9 11 -6 21 15 50 30 38 58 45 74 18z m137
-49 c-9 -23 -49 -72 -64 -78 -18 -8 -62 4 -62 16 0 5 12 25 28 44 22 28 34 34
66 34 31 0 37 -3 32 -16z"/>
<path d="M7113 14550 c-90 -24 -167 -56 -189 -81 -25 -28 -14 -26 205 31 105
28 194 50 196 50 3 0 5 5 5 10 0 17 -140 10 -217 -10z"/>
<path d="M7215 14359 c-75 -9 -225 -49 -290 -78 -52 -23 -171 -114 -157 -119
7 -2 69 19 139 46 161 62 249 85 337 86 l69 1 2 -80 c1 -61 7 -90 24 -123 31
-61 94 -120 160 -151 48 -22 69 -26 151 -26 83 0 102 4 151 28 76 37 141 96
186 169 36 59 38 60 75 55 39 -5 88 17 58 26 -8 3 -89 30 -180 61 -179 60
-307 89 -469 106 -115 11 -154 11 -256 -1z m225 -121 c0 -14 -40 -58 -52 -58
-15 0 -8 27 13 54 20 25 39 27 39 4z m364 -38 c21 -4 43 -14 47 -22 5 -8 21
-11 40 -9 l33 3 -19 -29 c-44 -69 -72 -102 -100 -122 -59 -40 -60 -22 -5 59
l40 59 -55 11 c-57 12 -70 22 -61 45 6 17 25 18 80 5z m-324 -53 c0 -27 -26
-67 -44 -67 -26 0 -25 29 0 60 31 36 44 38 44 7z m93 -58 c8 -12 5 -26 -12
-53 -25 -39 -36 -43 -65 -21 -19 14 -18 16 9 55 29 42 50 48 68 19z m147 -25
c0 -4 -12 -26 -27 -50 -24 -37 -33 -44 -60 -44 -17 0 -34 4 -37 8 -3 5 8 28
25 50 26 35 36 42 65 42 19 0 34 -3 34 -6z"/>
<path d="M5022 14144 c6 -34 136 -73 243 -73 86 -1 140 11 105 23 -8 3 -64 10
-125 17 -100 10 -156 22 -209 44 -14 6 -17 4 -14 -11z"/>
<path d="M5495 13886 c-100 -32 -187 -98 -246 -185 l-34 -50 -81 -1 c-70 0
-85 -3 -125 -28 -44 -28 -124 -132 -168 -219 -26 -52 -66 -204 -80 -305 -14
-100 -2 -160 60 -314 l49 -122 -6 -123 c-8 -162 6 -261 50 -353 42 -85 117
-181 171 -217 64 -43 187 -80 294 -89 85 -7 107 -13 191 -53 53 -26 152 -65
220 -89 108 -36 137 -42 210 -42 165 0 350 95 431 222 20 31 58 64 135 115
116 78 143 106 147 152 3 44 -34 47 -65 5 -12 -17 -70 -63 -128 -103 -58 -39
-127 -93 -154 -120 -104 -104 -244 -166 -397 -175 -99 -5 -145 6 -314 75 -132
54 -227 83 -275 83 -49 0 -163 34 -214 64 -63 37 -140 126 -182 212 l-37 74 8
138 c14 218 13 232 -17 275 -15 21 -42 75 -60 120 -30 75 -32 91 -31 187 1
176 59 357 144 454 53 60 77 72 174 85 l79 11 81 84 c75 78 85 84 160 108 44
14 114 31 155 37 115 18 120 20 120 40 0 40 -36 56 -134 58 -54 2 -107 -3
-131 -11z"/>
<path d="M7254 13822 c4 -6 37 -21 74 -33 80 -26 305 -39 341 -20 40 22 24 34
-37 27 -34 -4 -104 0 -172 9 -213 29 -214 29 -206 17z"/>
<path d="M5455 13285 c-14 -13 -25 -29 -25 -35 0 -24 92 -188 142 -252 29 -37
29 -38 19 -116 -6 -49 -7 -102 -1 -143 18 -123 14 -151 -31 -218 -22 -33 -61
-78 -85 -100 -43 -38 -55 -69 -28 -78 6 -2 59 35 118 82 60 47 117 85 129 85
25 0 184 -46 296 -84 86 -30 162 -34 182 -10 11 14 10 19 -10 35 -13 11 -36
19 -51 19 -30 0 -205 58 -279 93 -54 25 -124 94 -152 148 -15 30 -19 59 -19
129 0 98 10 130 39 130 38 0 160 72 225 133 54 51 66 68 66 94 0 34 -38 73
-71 73 -10 0 -48 -26 -86 -59 -73 -62 -147 -106 -168 -97 -7 2 -36 43 -65 90
-67 112 -98 129 -145 81z"/>
<path d="M7945 11880 c-117 -57 -177 -67 -327 -51 -262 26 -225 29 -298 -22
-155 -110 -183 -127 -247 -149 -59 -20 -87 -23 -203 -23 -156 1 -207 12 -366
80 -58 25 -112 45 -119 45 -21 0 -63 -50 -70 -83 -4 -18 -83 -180 -176 -361
-93 -180 -169 -334 -169 -340 0 -17 21 -36 41 -36 27 0 45 29 204 344 83 162
156 296 163 296 20 0 72 -29 72 -41 0 -6 -52 -110 -117 -231 -91 -172 -114
-224 -106 -237 13 -21 40 -26 58 -11 7 6 64 107 125 223 62 117 116 217 121
223 10 12 89 -3 89 -17 0 -3 -18 -45 -40 -92 -22 -47 -40 -92 -40 -100 0 -22
26 -40 48 -33 19 6 83 130 97 187 l6 25 112 -4 c217 -8 366 37 527 160 108 82
101 80 299 57 147 -17 254 2 383 67 81 41 108 65 108 98 0 29 -43 66 -74 65
-11 0 -57 -18 -101 -39z"/>
<path d="M6134 11652 c-7 -4 -69 -113 -139 -242 -70 -129 -169 -309 -220 -400
-142 -253 -185 -335 -185 -353 0 -22 36 -40 57 -29 22 13 543 968 543 997 0
29 -31 44 -56 27z"/>
<path d="M5914 11632 c-6 -4 -64 -97 -129 -207 -65 -110 -168 -281 -230 -380
-184 -297 -257 -423 -253 -441 5 -26 34 -41 55 -28 10 6 49 62 86 125 38 63
122 200 186 304 169 272 351 582 351 598 0 29 -40 47 -66 29z"/>
<path d="M6485 11174 c-22 -23 -55 -90 -55 -113 0 -26 30 -43 53 -30 17 10 67
98 67 118 0 12 -28 41 -40 41 -5 0 -16 -7 -25 -16z"/>
<path d="M5898 10863 c-25 -29 -68 -109 -68 -126 0 -19 33 -39 52 -32 25 10
90 132 83 155 -8 25 -46 27 -67 3z"/>
<path d="M6227 10113 c-3 -4 -10 -57 -16 -118 -7 -60 -23 -195 -36 -300 -21
-167 -30 -280 -26 -338 2 -41 134 -61 239 -36 65 16 198 78 271 128 l62 42 23
-53 c13 -29 26 -63 30 -76 18 -58 136 -72 233 -28 70 33 143 91 143 116 0 33
-28 30 -72 -7 -84 -70 -198 -104 -239 -70 -9 6 -26 39 -38 72 -29 78 -47 105
-71 105 -11 0 -53 -23 -95 -51 -132 -88 -261 -139 -356 -139 -75 0 -83 12 -75
111 3 46 18 170 31 274 32 246 37 368 13 373 -9 2 -18 -1 -21 -5z"/>
<path d="M12245 9734 c-22 -8 -83 -28 -135 -43 -78 -22 -95 -31 -95 -47 0 -25
33 -23 146 10 46 13 85 23 87 21 7 -7 -30 -81 -68 -136 -22 -32 -40 -65 -40
-74 0 -8 13 -21 30 -30 48 -25 50 -60 9 -163 -12 -28 -12 -34 1 -42 33 -21 80
63 80 144 0 43 -5 60 -24 83 l-24 29 34 54 c47 77 80 176 64 195 -15 18 -14
18 -65 -1z"/>
<path d="M9569 8063 c-109 -158 -190 -202 -388 -212 l-125 -6 -65 -97 c-194
-287 -396 -434 -554 -404 -57 11 -117 65 -162 147 -39 71 -66 92 -73 57 -5
-27 59 -147 99 -183 120 -108 246 -105 421 11 89 59 218 198 298 321 l65 100
120 5 c134 6 177 18 262 74 54 36 128 119 159 177 12 22 13 32 3 43 -18 22
-26 18 -60 -33z"/>
<path d="M5670 7875 c0 -3 -16 -78 -35 -168 -94 -438 -147 -786 -124 -813 17
-20 106 -17 181 6 68 21 179 93 237 154 19 20 38 36 43 36 4 0 24 -32 43 -70
58 -114 128 -170 215 -170 107 0 460 155 460 202 0 30 -25 31 -72 2 -58 -37
-188 -96 -271 -124 -51 -16 -85 -21 -128 -18 -76 6 -100 28 -168 159 -38 71
-58 99 -71 99 -10 0 -42 -25 -72 -56 -78 -84 -161 -141 -235 -164 -36 -11 -76
-20 -90 -20 -25 0 -25 0 -18 68 11 103 60 393 109 642 25 123 42 228 40 232
-6 9 -44 11 -44 3z"/>
<path d="M3906 5971 c-19 -21 -18 -52 1 -58 6 -2 19 9 27 25 13 25 13 32 2 41
-10 8 -17 6 -30 -8z"/>
<path d="M11215 5920 c-4 -6 -13 -68 -20 -138 -27 -244 -37 -308 -61 -382 -27
-86 -82 -173 -126 -200 -28 -17 -35 -17 -77 -4 -25 7 -60 14 -77 14 -28 0 -33
-5 -64 -76 -87 -199 -208 -324 -313 -324 -37 0 -83 42 -156 143 -42 58 -64 68
-69 31 -3 -25 104 -172 147 -201 43 -29 119 -30 178 -4 87 40 189 162 253 305
32 71 41 75 99 55 106 -37 225 91 276 296 25 102 65 467 52 483 -12 15 -33 16
-42 2z"/>
<path d="M3900 5759 c-21 -40 -21 -69 -1 -69 15 0 40 41 47 78 10 48 -20 42
-46 -9z"/>
<path d="M3963 5628 c-24 -32 -63 -108 -63 -123 0 -10 7 -15 17 -13 19 3 83
104 83 131 0 20 -23 23 -37 5z"/>
<path d="M9814 5225 c-14 -43 -15 -58 -6 -67 17 -17 30 -1 46 53 14 48 12 69
-9 69 -8 0 -21 -24 -31 -55z"/>
<path d="M9683 5138 c-6 -7 -18 -37 -28 -66 -13 -40 -14 -57 -6 -65 8 -8 15
-7 25 3 18 20 49 117 41 130 -8 14 -20 13 -32 -2z"/>
<path d="M8455 2366 c-62 -27 -88 -104 -60 -174 22 -54 79 -103 161 -139 41
-17 64 -33 64 -44 0 -20 31 -49 53 -49 9 0 22 -9 30 -21 30 -41 133 -46 208
-8 84 42 110 114 66 180 -48 72 -145 98 -220 60 l-38 -19 -25 56 c-33 75 -68
118 -112 141 -54 27 -93 32 -127 17z m94 -140 c29 -31 25 -52 -6 -31 -13 9
-28 25 -33 36 -16 28 11 25 39 -5z m310 -155 c29 -18 4 -41 -45 -41 l-47 0 23
25 c24 26 45 31 69 16z"/>
<path d="M9494 2245 c-9 -15 -14 -34 -10 -48 3 -14 -1 -33 -10 -46 -9 -13 -25
-61 -35 -108 -37 -168 -114 -345 -196 -451 -24 -31 -43 -61 -43 -69 0 -19 37
-53 59 -53 41 0 146 139 201 267 l29 68 0 -55 c0 -34 -9 -82 -25 -125 -38
-106 -40 -120 -13 -139 35 -24 55 -20 86 19 21 27 36 35 59 35 17 0 37 7 44
15 9 11 17 12 30 5 33 -18 57 -11 88 24 65 75 109 209 98 302 -8 72 -20 100
-51 120 -25 16 -27 16 -52 -2 -18 -14 -31 -39 -43 -81 -16 -61 -66 -170 -82
-179 -4 -3 -8 32 -8 78 0 127 -19 374 -31 405 -19 50 -68 59 -95 18z"/>
<path d="M7082 2060 c-38 -23 -64 -63 -94 -142 -21 -58 -31 -70 -41 -45 -10
26 -128 107 -156 107 -76 0 -87 -79 -28 -204 42 -88 80 -120 147 -121 48 -1
50 -4 65 -77 6 -33 38 -52 70 -44 24 6 38 32 39 76 1 19 8 25 32 31 45 9 89
43 108 83 29 62 12 226 -33 315 -25 48 -55 54 -109 21z m38 -240 c0 -39 -4
-52 -19 -60 -30 -15 -33 -13 -26 23 21 103 45 123 45 37z"/>
<path d="M11039 14206 c-135 -39 -299 -155 -437 -309 -42 -46 -52 -64 -52 -93
0 -46 14 -70 50 -89 67 -35 104 -18 219 100 137 140 262 225 333 225 35 0 118
-36 155 -67 41 -34 83 -130 83 -190 0 -103 -45 -217 -130 -333 -53 -72 -235
-255 -375 -376 -415 -362 -685 -637 -685 -698 0 -62 87 -109 160 -87 31 9 55
30 109 94 96 115 278 290 541 522 413 364 535 510 599 719 38 123 23 258 -39
356 -54 84 -160 170 -257 206 -81 31 -206 40 -274 20z"/>
<path d="M10113 12111 c-64 -40 -52 -108 24 -137 40 -16 46 -16 88 1 48 18 65
38 65 78 0 62 -112 99 -177 58z"/>
</g>
</svg>
