<?xml version="1.0" standalone="no"?>
<!DOCTYPE svg PUBLIC "-//W3C//DTD SVG 20010904//EN"
 "http://www.w3.org/TR/2001/REC-SVG-20010904/DTD/svg10.dtd">
<svg version="1.0" xmlns="http://www.w3.org/2000/svg"
 width="1500.000000pt" height="1800.000000pt" viewBox="0 0 1500.000000 1800.000000"
 preserveAspectRatio="xMidYMid meet">

<g transform="translate(0.000000,1800.000000) scale(0.100000,-0.100000)"
fill="#000000" stroke="none">
<path d="M11782 16828 c-18 -18 -15 -27 34 -103 103 -158 190 -374 219 -544
14 -76 14 -108 5 -179 -6 -48 -13 -108 -17 -133 -4 -38 -2 -47 12 -53 41 -15
61 39 81 214 18 165 -98 506 -249 733 -52 78 -63 87 -85 65z"/>
<path d="M7081 16572 c-19 -35 -42 -230 -48 -397 -7 -208 8 -300 66 -422 50
-103 89 -161 159 -235 56 -59 80 -69 102 -43 10 12 2 26 -47 82 -113 128 -172
237 -199 364 -19 89 -13 408 10 554 10 63 11 93 4 102 -15 18 -36 16 -47 -5z"/>
<path d="M11653 16533 c-23 -9 -14 -34 42 -122 63 -100 110 -219 126 -324 7
-39 18 -78 25 -86 15 -16 42 -8 51 15 9 23 -24 178 -54 254 -43 109 -146 272
-171 269 -4 0 -13 -3 -19 -6z"/>
<path d="M11520 16237 c-19 -9 -33 -36 -61 -112 -48 -134 -86 -215 -155 -332
-65 -112 -219 -341 -306 -455 l-59 -78 -52 0 -52 0 -37 58 c-75 116 -193 208
-327 254 -86 30 -280 32 -381 4 -90 -24 -212 -85 -291 -145 l-66 -50 -54 20
c-120 46 -237 12 -366 -106 l-73 -66 -112 12 c-80 8 -138 9 -197 2 -83 -9 -85
-9 -130 19 -25 16 -88 55 -138 86 -202 125 -510 397 -633 559 -28 37 -65 96
-81 130 -16 35 -39 68 -50 74 -37 19 -69 2 -91 -49 -20 -44 -22 -66 -22 -302
-1 -238 1 -260 22 -335 53 -184 141 -305 317 -437 73 -55 222 -137 274 -151
23 -6 27 -30 12 -70 -8 -21 -19 -26 -63 -32 -84 -11 -275 -73 -373 -120 -211
-101 -334 -250 -366 -443 -11 -60 -9 -81 15 -202 39 -194 62 -265 113 -344
l45 -69 -16 -79 c-21 -104 -20 -199 3 -290 19 -75 79 -205 128 -280 l26 -38
-31 -69 c-54 -120 -76 -221 -76 -356 -1 -66 2 -132 6 -146 6 -21 -1 -33 -47
-82 -78 -81 -132 -194 -190 -399 l-27 -96 -84 -41 c-102 -51 -189 -134 -254
-244 -38 -64 -51 -78 -87 -92 -41 -16 -45 -16 -97 4 -85 32 -178 50 -287 58
l-100 6 -48 102 c-86 181 -157 267 -303 362 -40 27 -107 82 -148 124 -120 121
-291 223 -528 315 -67 25 -75 31 -90 68 -41 105 -125 258 -179 331 -176 236
-439 454 -701 583 -102 50 -125 57 -177 58 -34 0 -73 7 -90 16 -100 52 -215
48 -364 -12 -57 -23 -107 -38 -112 -33 -4 4 -13 49 -20 98 -12 89 -11 188 7
890 7 258 0 345 -32 442 -35 104 -73 109 -173 23 -94 -80 -175 -192 -255 -349
-37 -73 -71 -131 -75 -129 -5 2 -28 28 -52 58 -53 64 -99 95 -133 86 -13 -3
-53 -34 -88 -68 -69 -67 -88 -104 -131 -258 -29 -104 -31 -448 -4 -585 25
-123 62 -246 103 -334 19 -41 34 -77 34 -80 0 -4 -46 -13 -102 -20 -188 -23
-332 -84 -415 -174 -35 -38 -131 -196 -164 -269 -10 -23 -17 -26 -55 -25 -60
0 -191 -66 -271 -138 -141 -127 -246 -357 -288 -635 -15 -94 -15 -94 -69 -150
-68 -68 -144 -193 -187 -308 -32 -84 -33 -91 -33 -237 0 -167 18 -265 74 -399
l31 -73 -25 -85 c-31 -106 -46 -269 -35 -362 24 -190 122 -375 281 -527 l68
-65 -9 -51 c-47 -245 -58 -559 -27 -753 46 -296 151 -567 272 -708 l41 -47 7
-110 c20 -298 81 -447 228 -558 l64 -49 32 -166 c18 -92 32 -175 32 -186 0
-13 -24 5 -86 63 -132 125 -244 194 -398 246 -90 30 -110 31 -136 5 -35 -35
-25 -57 61 -142 95 -94 182 -224 285 -423 66 -129 164 -357 164 -383 0 -6 -38
7 -83 28 -87 41 -443 163 -509 175 -54 10 -84 0 -97 -34 -11 -24 -9 -40 14
-107 15 -44 56 -142 92 -219 95 -203 163 -358 163 -371 0 -13 -77 -24 -166
-24 -75 0 -107 -21 -107 -68 0 -41 7 -49 213 -221 96 -80 204 -175 240 -211
98 -98 226 -262 299 -382 l22 -37 -48 -25 c-93 -47 -223 -186 -223 -238 0 -42
21 -57 155 -111 l130 -52 -3 -123 c-4 -152 12 -320 39 -409 23 -74 157 -411
189 -474 21 -40 47 -54 91 -47 20 2 37 30 102 161 60 122 89 170 127 208 55
55 67 59 75 27 79 -350 83 -356 200 -278 33 22 68 40 77 40 22 0 73 -69 128
-173 54 -100 67 -106 206 -106 149 0 234 -24 303 -86 22 -20 61 -44 87 -53 25
-10 46 -21 46 -27 0 -5 -6 -48 -13 -95 -13 -90 0 -270 21 -310 17 -31 59 -36
100 -13 19 11 97 54 173 97 l137 77 34 -20 c71 -44 170 -171 279 -356 87 -149
101 -165 143 -165 30 0 43 12 130 115 54 63 100 115 103 115 12 -1 48 -32 137
-120 103 -101 119 -107 176 -60 l37 30 45 -22 45 -22 75 38 c82 42 82 42 191
2 39 -14 95 -29 125 -35 30 -5 91 -19 135 -30 101 -26 162 -26 250 -1 101 29
123 26 235 -30 62 -31 113 -50 134 -50 19 0 71 14 116 30 134 50 205 36 292
-57 52 -57 76 -101 137 -255 44 -110 96 -205 133 -246 33 -34 76 -29 144 19
142 98 419 280 476 312 105 58 98 60 161 -40 75 -118 145 -187 191 -187 30 0
45 11 114 80 45 46 100 91 128 105 101 50 204 23 364 -94 139 -101 224 -140
339 -153 87 -10 121 5 181 81 58 75 89 94 176 106 39 5 85 21 117 39 31 17 68
30 88 30 76 0 217 101 290 207 28 40 33 43 77 43 77 1 198 27 244 52 37 20 81
71 118 138 12 20 38 -5 216 -212 79 -91 156 -176 170 -187 34 -27 68 -27 95 0
24 24 24 32 -12 324 -19 156 -37 445 -27 445 2 0 64 -36 137 -80 151 -91 196
-102 227 -55 15 23 15 30 -1 97 -10 40 -29 105 -43 143 -29 82 -134 296 -193
391 l-41 68 27 115 c50 213 109 350 235 546 92 143 100 158 100 184 0 34 -42
55 -159 80 -63 14 -115 31 -118 38 -7 19 34 147 75 233 32 67 53 92 204 240
217 213 233 236 186 280 -18 16 -35 20 -97 20 -207 0 -382 -45 -611 -157 -85
-42 -179 -86 -207 -99 -60 -27 -57 -29 -88 66 -53 165 -112 216 -187 160 -16
-12 -32 -20 -34 -17 -2 2 3 73 12 156 16 160 62 397 114 591 30 113 30 115 12
140 -31 41 -71 38 -170 -15 -130 -70 -238 -145 -324 -224 -42 -39 -79 -68 -81
-64 -9 14 31 257 67 415 43 187 66 295 66 314 0 22 -37 54 -63 54 -28 0 -101
-73 -197 -199 l-65 -83 -6 198 c-4 110 -12 235 -18 278 -6 44 -10 80 -9 80 38
14 68 41 90 81 109 198 129 582 41 803 -25 63 -25 65 -9 123 25 89 30 210 12
308 -15 83 -67 205 -130 308 l-26 41 49 35 c61 44 92 85 131 170 59 130 82
230 82 356 l0 113 43 62 c39 56 361 593 468 781 86 151 187 370 240 524 l54
154 44 23 c54 29 68 29 149 3 79 -25 181 -28 232 -6 82 35 173 144 272 329 45
83 50 88 119 127 40 22 94 57 122 78 118 92 239 282 271 427 14 61 26 88 55
124 123 148 146 306 74 497 -23 63 -23 63 -4 81 30 27 103 132 133 191 31 63
56 160 56 225 0 99 -36 210 -88 269 -27 31 -30 40 -31 116 -2 99 -13 161 -47
268 -27 83 -83 184 -118 214 -12 9 -31 31 -43 48 l-23 32 22 51 21 51 26 -24
c14 -13 46 -29 71 -36 25 -7 77 -33 115 -57 81 -51 152 -138 192 -237 46 -114
103 -278 123 -359 12 -44 26 -88 33 -99 17 -27 61 -43 84 -30 35 18 45 39 54
116 20 157 88 470 119 545 49 117 116 173 229 188 119 17 133 72 34 137 -147
98 -299 283 -364 446 -23 57 -48 218 -49 309 0 30 -7 75 -16 100 -24 71 -61
88 -114 50 -26 -19 -27 -24 -33 -127 -3 -63 -14 -139 -26 -181 -27 -92 -117
-274 -185 -372 -29 -41 -64 -94 -77 -117 -14 -23 -64 -76 -111 -118 l-87 -75
-5 42 c-3 24 -7 68 -10 98 -7 66 -45 182 -80 242 -14 24 -48 68 -75 100 -48
53 -51 58 -45 100 12 89 -46 252 -123 346 -48 58 -156 148 -217 179 -26 13
-85 31 -130 40 -44 8 -82 16 -84 18 -2 2 35 41 81 86 69 69 92 100 126 170 48
100 88 246 97 357 16 193 -60 476 -158 584 -39 43 -64 52 -98 35z m79 -240
c22 -61 46 -172 56 -263 12 -113 -30 -316 -93 -439 -33 -66 -156 -188 -204
-204 -38 -12 -39 -12 -117 47 -43 33 -100 68 -125 77 -25 10 -46 20 -46 23 0
2 26 39 58 81 166 220 353 530 415 689 9 23 21 42 26 42 5 0 19 -24 30 -53z
m-3249 -565 c85 -68 197 -149 249 -180 51 -31 88 -58 82 -60 -6 -2 -18 2 -26
8 -9 7 -39 13 -68 14 -100 2 -250 100 -432 281 -100 98 -205 251 -205 297 0 7
55 -43 123 -112 67 -68 192 -180 277 -248z m-315 9 c67 -72 258 -232 320 -268
44 -26 125 -61 179 -77 17 -6 17 -8 2 -29 -9 -12 -27 -43 -41 -69 -14 -27 -30
-48 -35 -48 -30 0 -134 50 -213 103 -185 124 -272 237 -317 413 -30 116 -27
128 18 74 20 -25 60 -69 87 -99z m2364 24 c29 -7 78 -26 107 -41 61 -31 160
-125 185 -176 9 -18 31 -62 49 -98 18 -36 39 -73 48 -82 33 -38 102 -9 102 43
0 26 3 29 33 29 48 0 132 -25 180 -53 23 -14 74 -54 114 -90 82 -74 137 -99
285 -127 114 -22 136 -32 221 -105 114 -96 175 -223 163 -336 l-6 -58 66 -83
c80 -101 109 -157 135 -256 33 -128 20 -237 -35 -303 -14 -17 -26 -37 -26 -45
0 -7 34 -51 76 -96 115 -125 168 -254 184 -448 11 -126 17 -148 56 -193 44
-53 69 -146 61 -235 -7 -86 -32 -151 -91 -240 -37 -54 -56 -73 -88 -85 -39
-16 -40 -18 -35 -54 2 -21 20 -78 38 -128 29 -78 33 -102 33 -180 0 -107 -16
-149 -93 -244 -54 -68 -54 -68 -51 -117 2 -38 -54 -182 -101 -260 -48 -79
-140 -161 -248 -218 l-92 -50 -50 -97 c-61 -115 -141 -225 -188 -256 -45 -30
-130 -31 -231 -2 -92 27 -100 26 -170 -5 -89 -40 -148 -49 -231 -37 -94 15
-181 45 -252 87 -70 41 -99 43 -125 9 -11 -14 -25 -25 -30 -25 -6 0 -22 -15
-35 -32 -29 -40 -317 -579 -317 -595 0 -19 29 -35 53 -29 18 4 54 64 167 276
80 148 154 282 165 296 l21 26 47 -28 c26 -16 47 -33 47 -37 0 -5 -48 -105
-107 -223 -89 -175 -106 -217 -97 -231 14 -23 41 -28 60 -12 9 7 58 97 109
199 51 102 101 196 112 208 18 23 19 24 77 9 32 -9 60 -18 63 -21 3 -3 -27
-60 -68 -128 -106 -179 -110 -187 -98 -210 7 -13 19 -18 36 -16 21 2 37 21 81
93 156 256 172 279 172 242 0 -48 -153 -378 -265 -572 -80 -139 -389 -649
-469 -775 l-67 -105 7 -75 c7 -86 -6 -171 -43 -280 -53 -154 -85 -196 -190
-249 -52 -26 -63 -36 -63 -56 0 -14 30 -75 66 -135 86 -143 115 -226 121 -350
4 -72 1 -111 -12 -160 -28 -105 -29 -116 -5 -165 40 -82 51 -145 57 -305 7
-193 -11 -307 -64 -425 -20 -44 -36 -95 -36 -112 0 -22 -6 -35 -17 -38 -10 -3
-24 -13 -33 -23 -14 -15 -15 -37 -5 -192 20 -332 -30 -610 -149 -833 -35 -64
-43 -73 -73 -77 -47 -7 -55 -29 -74 -195 -22 -190 -47 -280 -113 -412 -53
-108 -55 -114 -40 -137 40 -60 87 -39 143 60 72 128 118 299 132 489 6 89 9
100 27 103 46 7 66 29 114 121 27 53 59 125 72 161 13 36 35 81 49 100 15 19
59 79 98 133 68 90 101 121 88 80 -31 -101 -70 -330 -86 -501 -13 -137 -6
-165 47 -178 36 -9 51 1 212 153 127 119 283 234 297 220 4 -3 -8 -63 -25
-134 -58 -243 -91 -487 -91 -675 0 -92 1 -97 26 -117 38 -30 55 -27 118 26 34
27 60 42 66 37 9 -9 41 -100 59 -171 14 -53 34 -73 72 -73 38 0 161 51 342
141 190 96 352 149 450 149 31 0 28 -4 -80 -105 -159 -150 -219 -247 -278
-450 -47 -165 -34 -193 113 -226 53 -12 100 -24 104 -28 4 -3 -18 -44 -48 -91
-110 -168 -177 -323 -230 -528 -48 -186 -47 -192 30 -326 78 -134 163 -310
172 -356 l7 -34 -34 21 c-149 92 -207 123 -227 123 -13 0 -34 -11 -47 -25 -24
-23 -25 -29 -25 -162 0 -126 6 -226 26 -430 4 -42 3 -73 -2 -72 -5 0 -31 27
-59 61 -86 104 -174 196 -212 219 -72 45 -112 25 -192 -96 -43 -64 -51 -71
-96 -83 -28 -7 -86 -13 -130 -13 -44 -1 -93 -5 -108 -11 -17 -7 -47 -39 -77
-82 -75 -107 -153 -166 -221 -166 -21 0 -62 -14 -100 -34 -37 -19 -87 -36
-119 -40 -80 -10 -135 -42 -206 -121 l-64 -69 -62 13 c-80 16 -141 47 -259
132 -95 68 -185 110 -280 130 -37 8 -61 7 -108 -5 -84 -22 -130 -47 -211 -117
-57 -49 -74 -58 -85 -49 -27 22 -113 166 -117 195 -2 16 -14 36 -29 47 -24 18
-28 18 -75 3 -98 -33 -237 -109 -444 -246 -116 -76 -214 -139 -218 -139 -13 0
-37 50 -97 195 -67 162 -107 227 -178 291 -114 102 -225 127 -357 79 -118 -43
-113 -43 -216 10 -86 45 -98 48 -166 48 -42 1 -98 -7 -133 -17 -69 -21 -162
-17 -235 9 -25 9 -76 22 -115 30 -38 8 -97 26 -130 40 -80 33 -143 33 -210 -2
-52 -26 -54 -26 -94 -10 -53 21 -86 21 -121 0 l-29 -17 -63 60 c-71 66 -150
122 -187 131 -40 10 -65 -8 -145 -105 -42 -50 -80 -92 -84 -92 -4 0 -20 24
-36 53 -131 235 -330 443 -422 440 -22 -1 -82 -28 -170 -77 -76 -42 -140 -74
-143 -70 -14 13 -3 195 18 288 24 111 21 133 -17 147 -21 8 -31 6 -53 -11 -39
-28 -59 -25 -105 14 -87 74 -217 116 -361 116 -105 0 -85 -15 -181 135 -65
101 -120 155 -158 155 -13 0 -47 -11 -74 -25 -27 -14 -54 -25 -59 -25 -5 0
-21 53 -37 118 -31 131 -54 167 -100 156 -14 -4 -36 -1 -49 6 -14 7 -35 10
-52 6 -46 -12 -153 -130 -201 -223 -24 -46 -47 -83 -51 -83 -11 0 -127 292
-147 372 -13 49 -17 114 -19 290 -1 199 -3 229 -18 246 -10 11 -69 38 -132 62
-63 24 -115 47 -115 51 0 23 78 91 142 124 71 37 117 78 118 103 1 33 -110
208 -219 344 -97 123 -179 205 -334 333 -80 66 -144 125 -143 130 1 6 39 12
84 15 67 5 85 10 107 30 14 13 25 29 25 35 0 21 -71 189 -176 413 -94 203
-114 252 -99 252 3 0 80 -25 172 -56 228 -75 309 -117 411 -209 91 -83 120
-93 148 -49 16 24 16 27 -3 62 -11 20 -40 96 -63 167 -84 257 -165 435 -287
638 -36 59 -64 110 -61 113 13 13 154 -116 299 -273 71 -79 89 -93 115 -93 52
0 68 28 61 110 -3 38 -3 70 1 70 4 0 27 -25 51 -56 59 -75 158 -155 247 -199
97 -48 144 -55 174 -25 12 12 23 20 24 18 1 -2 10 -41 20 -88 40 -196 141
-440 237 -574 22 -31 48 -57 57 -58 9 0 23 -2 31 -2 9 -1 21 -38 37 -116 35
-171 71 -288 107 -350 18 -30 86 -109 152 -175 176 -175 323 -259 597 -342
109 -33 124 -35 155 -24 31 12 37 11 57 -8 28 -27 60 -27 87 0 18 18 20 30 17
70 -3 27 -1 49 3 49 5 0 25 -18 45 -39 53 -59 170 -146 244 -180 120 -56 274
-85 320 -61 45 24 49 144 15 475 -13 130 -13 141 3 152 38 27 51 48 68 109 29
108 9 275 -50 416 -6 12 0 18 22 23 16 3 41 19 56 34 l27 29 108 -212 c142
-279 191 -360 219 -364 41 -6 35 26 -31 145 -94 172 -139 263 -128 263 12 0
76 -80 147 -186 37 -54 64 -84 76 -84 11 0 23 -11 28 -26 7 -19 16 -25 33 -22
19 3 23 10 27 58 l5 55 29 -65 c68 -152 162 -333 179 -342 18 -9 47 4 47 23 0
4 -38 86 -84 181 -46 95 -106 221 -134 281 -28 59 -58 110 -67 113 -29 11 -45
-18 -47 -84 -1 -35 -5 -65 -9 -68 -4 -2 -29 26 -56 63 -123 169 -261 301 -303
290 -26 -7 -25 -1 5 66 43 92 58 201 53 370 -3 81 -3 145 0 143 2 -3 19 -41
37 -86 47 -116 119 -230 204 -321 84 -91 148 -139 185 -139 21 0 27 -7 36 -42
35 -137 101 -278 170 -362 35 -42 40 -54 40 -100 0 -69 24 -174 50 -227 36
-72 69 -108 124 -139 l53 -30 22 -107 c26 -126 52 -185 87 -201 14 -7 51 -12
83 -12 l58 0 12 -42 c18 -61 76 -168 112 -206 44 -47 85 -65 149 -64 l56 1 44
-56 c70 -87 210 -200 290 -233 32 -13 36 -13 119 11 9 3 31 -40 70 -141 90
-228 170 -376 252 -465 100 -109 311 -191 589 -230 138 -19 190 -19 217 0 19
13 26 12 79 -15 169 -83 351 -78 480 13 23 16 50 44 60 63 18 33 18 41 0 266
-10 128 -22 296 -26 373 -8 138 -8 140 15 165 73 79 141 329 133 491 -3 70 -6
83 -27 100 -29 24 -46 24 -70 0 -15 -15 -19 -39 -24 -132 -6 -127 -37 -250
-89 -352 -20 -41 -28 -67 -23 -85 4 -18 0 -30 -14 -44 -19 -17 -21 -30 -20
-126 0 -59 8 -215 18 -347 11 -144 14 -247 9 -257 -14 -29 -88 -60 -154 -66
-73 -5 -188 25 -228 61 -33 28 -116 242 -197 505 -34 108 -79 248 -100 310
-21 61 -35 112 -32 112 4 0 33 -18 65 -40 137 -97 257 -126 284 -71 19 37 -1
69 -50 82 -60 16 -166 74 -224 122 -27 23 -57 47 -66 52 -9 6 -36 69 -61 142
-24 72 -63 171 -85 219 -43 94 -47 111 -26 116 7 2 140 127 295 279 195 191
281 282 281 297 0 19 -25 42 -46 42 -4 0 -75 -66 -158 -147 -83 -81 -201 -197
-263 -257 -62 -61 -115 -107 -118 -104 -4 3 -1 43 6 88 14 97 -21 52 366 471
153 165 282 307 286 315 4 7 3 23 -3 34 -25 47 -47 29 -325 -272 -148 -160
-271 -286 -273 -280 -2 7 1 34 7 61 8 36 23 63 55 98 147 159 546 630 546 645
0 9 -9 23 -21 32 -21 14 -19 16 60 94 86 86 99 116 64 154 -33 36 -64 23 -154
-65 -48 -47 -111 -96 -146 -115 -127 -67 -314 -93 -381 -52 -44 27 -63 25
-127 -11 -108 -61 -232 -75 -346 -39 -34 10 -66 17 -70 14 -12 -7 -24 23 -44
104 -13 55 -24 77 -42 89 -30 20 -70 5 -78 -29 -13 -50 74 -379 173 -663 111
-316 293 -789 376 -980 69 -157 126 -310 126 -338 0 -4 -16 -6 -35 -5 -27 1
-45 -8 -88 -45 -30 -25 -70 -54 -91 -63 l-36 -18 -39 38 c-43 42 -80 49 -110
22 -18 -17 -20 -16 -37 14 -29 49 -80 52 -108 7 -8 -12 -3 -31 19 -78 17 -34
38 -73 48 -86 26 -32 62 -30 88 7 l22 29 34 -29 c27 -24 43 -30 81 -30 55 0
132 33 184 79 20 17 43 31 52 31 21 0 23 -7 97 -264 75 -262 120 -401 165
-512 19 -48 33 -92 31 -98 -5 -14 -75 -9 -212 14 -217 37 -381 104 -456 188
-60 67 -135 205 -220 404 -64 150 -74 168 -101 177 -16 6 -39 22 -50 37 -21
26 -35 28 -108 9 -37 -9 -107 41 -231 165 l-107 108 -65 4 c-95 6 -129 42
-194 212 -19 50 -40 94 -47 98 -6 4 -43 8 -82 8 l-72 0 -20 83 c-11 45 -23
102 -27 127 -10 63 -14 67 -86 109 -56 33 -68 45 -97 101 -38 76 -54 172 -39
230 11 38 10 39 -44 98 -91 97 -171 277 -194 437 -7 46 -40 95 -64 95 -5 0
-23 -11 -40 -25 l-30 -26 -59 59 c-78 78 -173 222 -210 320 -40 103 -62 181
-123 447 -58 248 -68 280 -99 290 -30 9 -70 -19 -70 -50 0 -13 21 -124 46
-247 26 -123 47 -232 48 -242 1 -28 -56 -38 -189 -33 -95 3 -120 8 -183 35
-96 40 -192 99 -267 162 -76 64 -114 84 -195 99 -172 34 -373 121 -547 238
-95 63 -105 74 -151 150 -60 100 -126 192 -182 256 -43 49 -82 61 -108 35 -24
-24 -11 -60 58 -153 85 -114 214 -350 230 -420 15 -65 24 -80 91 -160 111
-130 149 -234 149 -403 0 -101 1 -104 29 -132 16 -16 31 -39 34 -52 3 -13 19
-76 36 -142 25 -93 31 -139 31 -216 0 -58 -4 -102 -10 -105 -6 -4 -40 21 -76
54 -40 38 -73 61 -88 61 -33 0 -60 -33 -52 -64 8 -33 183 -195 221 -204 26 -7
32 -16 47 -68 133 -469 176 -639 165 -650 -9 -10 -181 43 -299 90 -162 66
-246 122 -379 255 -138 138 -153 164 -210 386 -42 163 -59 195 -100 195 -13 0
-19 7 -19 23 0 12 -18 49 -41 82 -87 127 -176 335 -219 510 -12 50 -26 98 -31
107 -15 28 -48 32 -80 9 -28 -21 -28 -21 -39 -1 -6 10 -54 40 -108 66 -82 39
-109 59 -177 128 -44 44 -95 107 -114 139 -44 75 -95 212 -115 307 -16 77 -43
117 -74 105 -16 -6 -90 46 -144 102 -42 43 -80 121 -102 208 -16 61 -46 293
-46 352 0 24 -12 46 -49 88 -91 104 -174 297 -225 526 -52 233 -57 425 -21
750 10 86 15 172 11 192 -5 26 -24 52 -77 104 -167 161 -259 352 -259 539 0
94 21 225 49 303 l19 55 -30 80 c-94 253 -110 469 -44 623 61 145 139 253 181
253 34 0 55 36 55 93 0 65 35 232 70 339 61 182 135 295 243 372 83 60 136 78
198 70 55 -7 41 -23 144 167 33 62 79 133 102 158 78 88 201 133 411 151 126
11 149 19 158 54 6 24 86 74 144 91 32 9 70 44 70 63 0 27 -32 52 -64 52 -18
0 -64 -16 -105 -35 -40 -19 -77 -33 -81 -30 -14 9 -66 154 -89 247 -35 144
-45 235 -44 408 0 144 4 177 26 264 29 107 74 199 101 204 33 7 106 -114 106
-175 0 -44 17 -63 58 -63 28 0 41 19 146 219 109 207 149 270 212 339 35 38
45 44 53 33 20 -30 23 -193 11 -470 -8 -157 -14 -402 -14 -544 -1 -225 -3
-256 -16 -251 -38 17 -128 16 -163 -1 -47 -22 -127 -97 -127 -118 0 -22 35
-57 58 -57 10 0 42 18 72 41 66 50 82 48 223 -18 l98 -47 67 21 c37 12 96 33
131 48 88 37 172 33 261 -13 69 -35 81 -38 109 -20 24 15 76 -4 189 -70 142
-81 263 -173 386 -292 203 -197 283 -314 381 -560 51 -127 85 -155 143 -114
22 15 29 13 165 -55 165 -82 302 -180 364 -263 31 -41 52 -58 75 -63 42 -10
121 -69 186 -139 48 -54 120 -182 165 -297 23 -59 59 -75 187 -84 95 -6 213
-28 239 -44 12 -7 4 -21 -37 -66 -28 -31 -64 -74 -79 -96 -21 -30 -33 -38 -48
-34 -11 3 -57 11 -102 17 -153 21 -342 -21 -648 -144 -182 -73 -264 -114 -272
-133 -3 -8 -2 -26 1 -40 11 -44 45 -42 179 13 244 101 479 173 604 187 68 7
202 -10 245 -31 37 -19 67 -4 96 48 32 54 167 195 221 230 28 17 58 28 81 28
46 0 117 34 125 60 3 11 3 29 0 40 -17 52 123 202 232 251 118 52 117 52 126
94 15 67 78 266 104 325 29 67 64 120 79 120 6 0 29 -37 52 -83 76 -153 236
-298 455 -413 l105 -54 7 -58 c19 -150 94 -316 187 -413 85 -89 208 -127 367
-114 91 8 187 29 208 47 23 19 16 76 -11 94 -23 14 -31 14 -101 -1 -53 -12
-106 -16 -173 -13 -84 3 -104 7 -145 31 -95 56 -175 199 -211 378 -13 63 -26
121 -30 129 -3 8 -58 41 -121 73 -350 177 -501 398 -499 727 1 128 17 209 65
329 39 96 39 130 -5 200 -54 90 -95 177 -111 238 -20 75 -19 204 1 297 l17 75
-51 78 c-65 99 -75 124 -107 264 -21 86 -26 130 -22 179 10 128 75 244 179
322 106 82 322 166 498 195 118 19 132 30 124 92 -10 82 61 247 135 314 81 73
263 110 444 89 167 -20 158 -22 249 63 45 41 100 84 123 95 57 28 124 26 185
-5 27 -14 56 -25 64 -25 8 0 38 19 67 42 197 155 421 220 598 173z m2457
-1217 c62 -111 193 -281 249 -324 19 -14 35 -29 35 -33 0 -3 -24 -21 -54 -39
-67 -39 -107 -85 -147 -165 -32 -63 -76 -190 -99 -284 -6 -29 -16 -53 -21 -53
-4 0 -35 53 -68 118 -79 152 -150 245 -231 300 -90 60 -89 57 -49 100 84 89
224 292 283 410 20 39 38 72 40 72 2 0 30 -46 62 -102z m-8535 -7198 c46 -23
85 -44 87 -45 2 -2 -4 -25 -12 -51 -8 -27 -21 -71 -29 -99 l-13 -50 -42 80
c-23 44 -65 106 -92 139 -28 32 -55 67 -61 77 -17 33 0 40 40 15 20 -13 75
-43 122 -66z m247 -106 c12 -8 132 -160 266 -337 134 -177 286 -378 339 -446
l94 -123 -16 -39 c-9 -21 -19 -35 -22 -31 -89 101 -729 917 -729 929 1 60 25
77 68 47z m261 -86 c31 -29 80 -69 109 -88 28 -19 52 -41 52 -49 0 -8 93 -138
206 -288 113 -151 208 -281 211 -288 6 -17 -33 -75 -51 -75 -8 0 -73 80 -147
178 -73 97 -211 280 -307 406 -96 127 -176 236 -179 243 -4 9 4 13 22 13 19 0
45 -16 84 -52z m55 -590 c216 -271 402 -502 414 -512 19 -16 22 -30 22 -90
l-1 -71 -48 54 c-42 47 -52 53 -75 47 -43 -11 -34 -48 33 -129 73 -90 82 -130
39 -167 l-29 -25 12 -232 c7 -128 9 -236 6 -240 -13 -12 -118 19 -195 57 -51
26 -105 65 -158 113 -77 73 -80 77 -98 148 -37 155 -46 208 -56 323 -8 105 -7
121 8 142 9 13 20 24 24 24 4 0 25 -31 48 -69 49 -84 84 -128 111 -136 28 -9
69 20 69 49 0 22 -120 213 -144 228 -19 13 -49 9 -69 -9 -19 -17 -21 -16 -58
26 -55 61 -115 189 -141 296 -23 99 -39 125 -75 125 -28 0 -37 20 -53 113 -25
144 -23 142 179 -111 190 -239 209 -256 241 -217 10 12 10 21 2 38 -6 12 -105
141 -221 286 -206 258 -211 266 -211 310 0 62 11 121 22 121 4 0 185 -222 402
-492z m359 361 c31 -7 57 -16 57 -20 0 -4 36 -62 80 -128 59 -89 80 -130 80
-154 0 -39 -10 -77 -19 -77 -4 0 -61 73 -127 162 -65 89 -132 179 -149 201
l-29 40 24 -6 c14 -3 51 -11 83 -18z m219 -55 c6 -54 -7 -59 -35 -12 -22 38
-23 44 -9 49 27 10 40 0 44 -37z m3366 -224 c-4 -11 -400 -470 -428 -495 -19
-17 -20 -17 -20 2 0 11 5 46 12 79 9 47 20 69 57 110 25 28 82 94 126 147 65
78 88 99 125 112 25 9 61 24 80 35 39 22 53 25 48 10z m-518 -101 c0 -67 -28
-239 -79 -484 -27 -126 -54 -261 -61 -300 -18 -98 -25 -107 -44 -60 -94 223
-304 820 -293 831 2 3 42 -3 88 -12 103 -21 205 -9 307 35 37 16 70 29 75 30
4 1 7 -18 7 -40z m200 2 c0 -15 -78 -96 -85 -89 -4 4 -4 28 -1 53 7 45 8 45
47 45 21 0 39 -4 39 -9z m-3978 -348 c11 -27 36 -72 55 -102 l35 -55 2 -138
c1 -75 0 -136 -2 -133 -6 5 -122 383 -129 417 -5 28 1 58 12 58 3 0 16 -21 27
-47z"/>
<path d="M11185 14439 c-33 -16 -118 -48 -190 -70 -208 -65 -200 -61 -203 -94
-5 -40 13 -98 38 -120 28 -25 109 -22 186 6 48 18 74 37 138 103 167 173 181
249 31 175z m-65 -107 c0 -17 -79 -89 -116 -107 -22 -10 -60 -20 -86 -23 -44
-4 -47 -3 -54 22 -3 15 -3 30 1 34 5 6 224 77 248 81 4 0 7 -3 7 -7z"/>
<path d="M8951 14387 c-18 -18 -13 -35 17 -54 15 -10 68 -58 117 -108 50 -50
116 -108 149 -130 51 -35 66 -40 115 -40 84 0 128 26 158 92 32 68 28 87 -17
91 -122 10 -305 59 -404 109 -80 41 -122 53 -135 40z m343 -182 c54 -14 110
-25 123 -25 32 0 28 -30 -7 -47 -49 -25 -93 -16 -158 31 -59 44 -81 66 -65 66
5 0 53 -11 107 -25z"/>
<path d="M8101 13691 c-11 -7 -13 -24 -8 -74 l6 -65 -46 -9 c-89 -16 -85 -76
4 -81 57 -3 63 -11 63 -92 1 -81 44 -125 84 -84 14 14 16 29 10 98 l-6 81 31
12 c53 20 38 83 -20 83 -25 0 -28 4 -39 58 -7 31 -17 63 -22 70 -12 14 -37 15
-57 3z"/>
<path d="M11235 13690 c-94 -19 -255 -92 -255 -115 0 -17 16 -20 24 -6 12 18
163 74 245 91 47 9 87 22 89 28 4 14 -41 14 -103 2z"/>
<path d="M9222 13638 c3 -7 31 -12 74 -13 49 -2 93 -11 153 -34 52 -19 89 -27
94 -22 12 12 -47 43 -122 65 -65 19 -205 22 -199 4z"/>
<path d="M11560 13550 c-356 -87 -457 -118 -587 -184 -92 -46 -103 -46 -103
-2 0 19 -5 38 -10 41 -16 10 -42 -63 -35 -96 8 -35 46 -63 73 -55 18 6 19 2
14 -69 -4 -66 -2 -81 22 -129 51 -104 157 -166 281 -166 76 0 129 18 235 80
93 54 212 165 208 195 -5 33 -46 31 -83 -5 l-32 -31 -6 54 c-10 99 -66 192
-142 234 -30 17 -8 31 88 53 50 12 112 28 137 35 25 7 58 16 73 20 32 6 47 33
26 46 -19 12 -27 11 -159 -21z m-340 -262 c30 -33 43 -40 88 -45 28 -3 52 -8
52 -11 0 -2 -19 -21 -42 -41 -41 -37 -41 -38 -43 -112 -3 -83 -10 -109 -32
-109 -13 0 -15 9 -9 47 6 44 4 48 -33 83 -24 23 -56 41 -85 49 -25 6 -46 15
-46 20 0 5 15 19 34 30 40 25 46 38 46 100 0 54 10 71 25 45 5 -10 26 -35 45
-56z m210 -137 c0 -46 -15 -91 -30 -91 -10 0 -6 81 5 118 9 27 25 10 25 -27z
m-76 -74 c-6 -58 -25 -99 -40 -84 -6 6 13 134 22 149 3 5 10 6 15 2 6 -3 7
-31 3 -67z m-158 -33 c-6 -50 -22 -78 -38 -68 -17 11 13 114 33 114 8 0 10
-14 5 -46z m-74 5 c-4 -37 -10 -49 -27 -49 -18 0 -21 50 -3 68 18 18 33 8 30
-19z"/>
<path d="M8821 13556 c-14 -17 10 -46 37 -46 35 1 308 -64 321 -76 11 -10 2
-19 -49 -54 -128 -87 -170 -222 -109 -359 10 -24 17 -46 15 -49 -3 -2 -25 4
-50 13 -48 19 -66 14 -66 -15 0 -28 60 -56 198 -92 195 -51 207 -52 279 -39
114 21 188 71 239 163 25 45 29 64 29 128 0 57 -5 85 -22 119 -25 49 -22 62 7
43 30 -18 57 -14 74 10 28 40 18 108 -15 108 -14 0 -19 -7 -19 -25 0 -39 -24
-40 -87 -5 -80 45 -147 67 -297 94 -72 14 -204 41 -293 60 -186 41 -177 40
-192 22z m553 -228 c3 -13 6 -35 6 -50 0 -37 42 -82 89 -97 45 -13 52 -26 21
-36 -30 -9 -79 -53 -96 -86 -13 -26 -13 -29 1 -29 21 0 19 -22 -7 -67 -26 -45
-39 -56 -53 -42 -6 6 -5 16 3 29 15 25 15 30 -2 30 -8 0 -24 -13 -36 -30 -12
-16 -26 -30 -31 -30 -23 0 -18 32 10 74 27 39 30 48 20 73 -14 38 -46 71 -93
95 -21 11 -34 23 -30 28 5 4 34 16 64 27 50 18 58 25 85 76 17 32 33 57 36 57
4 0 9 -10 13 -22z m-244 -252 c0 -16 -18 -31 -27 -22 -8 8 5 36 17 36 5 0 10
-6 10 -14z m60 -30 c0 -8 -9 -24 -19 -37 -15 -18 -22 -21 -31 -13 -9 9 -8 18
5 38 18 28 45 35 45 12z m336 -54 c-23 -24 -26 -12 -7 33 16 40 16 40 19 11 2
-17 -3 -35 -12 -44z m-273 42 c10 -10 -35 -84 -50 -84 -19 0 -16 18 8 56 21
34 30 40 42 28z m208 -59 c-11 -25 -25 -45 -30 -45 -15 0 -14 16 5 53 39 75
59 69 25 -8z"/>
<path d="M11208 12780 c-40 -12 -106 -51 -112 -67 -8 -19 10 -16 57 11 116 68
268 26 349 -96 34 -50 42 -56 99 -73 93 -28 171 -83 198 -138 33 -68 53 -180
50 -287 -2 -91 -1 -98 34 -170 20 -41 43 -102 52 -135 20 -78 20 -246 0 -284
-14 -29 -103 -101 -123 -101 -6 0 -20 -20 -30 -44 -43 -95 -143 -167 -238
-170 -33 -1 -52 -9 -90 -42 -104 -88 -188 -106 -291 -66 l-51 21 -38 -30 c-49
-39 -131 -62 -224 -62 -82 0 -136 18 -215 73 -45 31 -65 37 -65 21 0 -16 61
-58 135 -93 62 -29 79 -33 150 -32 92 1 175 23 228 58 l35 24 64 -19 c100 -32
178 -12 278 71 35 29 57 38 98 43 100 12 198 81 245 173 9 18 38 48 64 67 70
51 100 87 112 132 26 95 2 261 -54 381 -36 75 -38 85 -40 189 -3 116 -25 236
-55 295 -19 37 -57 76 -102 105 -34 21 -35 37 -3 121 28 73 30 84 16 84 -6 0
-24 -38 -42 -85 -18 -47 -37 -85 -43 -84 -41 2 -100 39 -134 84 -46 61 -101
99 -173 119 -60 17 -99 19 -141 6z"/>
<path d="M11855 12750 c-8 -13 -55 -151 -55 -162 0 -4 6 -8 13 -8 6 0 22 33
34 74 13 41 26 81 29 90 7 17 -11 22 -21 6z"/>
<path d="M11941 12741 c-15 -27 -30 -164 -20 -175 14 -15 17 -5 28 79 5 44 13
88 17 98 8 23 -13 22 -25 -2z"/>
<path d="M12037 12733 c-2 -4 -8 -29 -11 -55 -6 -38 -4 -48 7 -48 17 0 32 89
18 103 -5 5 -11 5 -14 0z"/>
<path d="M11648 12703 c-3 -4 -8 -20 -12 -35 -5 -21 -3 -28 8 -28 17 0 31 49
18 62 -6 6 -12 6 -14 1z"/>
<path d="M4140 12585 c-100 -28 -186 -91 -239 -174 -56 -87 -34 -100 24 -15
68 99 164 155 293 173 77 10 138 1 219 -32 57 -23 73 -25 73 -7 0 4 -28 20
-62 36 -53 23 -79 28 -158 31 -63 2 -114 -2 -150 -12z"/>
<path d="M9265 12478 c57 -242 73 -302 84 -306 10 -3 12 5 6 36 -15 91 -71
286 -83 290 -9 3 -11 -3 -7 -20z"/>
<path d="M9383 12484 c7 -24 42 -156 57 -211 11 -46 30 -58 30 -20 0 39 -65
240 -79 245 -9 3 -11 -2 -8 -14z"/>
<path d="M9121 12478 c3 -59 36 -202 48 -206 10 -3 12 6 6 44 -13 99 -30 168
-42 172 -7 2 -13 -2 -12 -10z"/>
<path d="M9470 12472 c0 -26 39 -154 51 -166 21 -22 19 7 -6 88 -25 83 -45
117 -45 78z"/>
<path d="M9045 12471 c-3 -6 -3 -36 1 -67 9 -73 30 -68 26 7 -4 55 -14 79 -27
60z"/>
<path d="M11202 12298 c-7 -7 -12 -26 -12 -43 0 -69 -77 -175 -127 -175 -23 0
-148 71 -232 132 -34 26 -69 44 -77 41 -25 -9 -32 -36 -20 -73 10 -31 24 -41
141 -102 72 -37 134 -69 139 -71 13 -4 -21 -173 -44 -217 -34 -66 -114 -131
-240 -195 -27 -14 -50 -27 -50 -30 0 -2 27 -32 60 -65 95 -97 179 -124 291
-96 71 19 134 52 188 101 20 18 47 35 60 36 38 6 34 21 -13 54 -160 111 -193
156 -183 247 8 67 58 171 108 225 70 77 105 175 79 224 -12 21 -50 25 -68 7z
m-72 -703 c38 -20 38 -28 -3 -59 -94 -72 -242 -78 -296 -12 -10 12 -7 18 21
32 102 53 219 69 278 39z"/>
<path d="M3667 12279 c-50 -12 -89 -33 -134 -72 -43 -37 -93 -104 -93 -124 0
-22 26 -15 38 11 20 44 84 107 136 134 43 22 68 27 154 30 98 4 126 13 80 26
-32 8 -136 6 -181 -5z"/>
<path d="M5185 11269 c-80 -12 -157 -51 -195 -99 -29 -36 -33 -38 -63 -29 -48
14 -167 14 -209 0 -84 -28 -158 -172 -179 -343 -12 -102 -9 -168 6 -168 6 0
13 42 16 93 8 120 22 182 57 259 43 95 73 125 136 138 50 10 153 2 200 -16 8
-3 23 4 33 16 59 69 87 91 141 107 61 18 190 23 260 10 33 -6 42 -4 42 7 0 8
-10 16 -22 19 -49 12 -166 15 -223 6z"/>
<path d="M9352 11118 c-18 -18 -14 -59 8 -83 l20 -22 -50 -42 c-68 -57 -85
-84 -70 -110 18 -35 46 -24 132 54 46 41 91 75 100 75 9 0 30 11 45 24 27 24
27 26 13 53 -25 44 -168 81 -198 51z"/>
<path d="M3028 11069 c-54 -28 -80 -84 -87 -188 l-6 -84 -69 -41 c-100 -60
-246 -202 -316 -308 -120 -182 -156 -364 -98 -488 32 -69 52 -95 66 -86 7 4 0
26 -19 64 -37 73 -51 145 -39 214 12 78 54 182 107 268 89 143 340 362 378
330 20 -17 23 -5 27 110 4 115 22 157 79 189 21 12 37 27 34 32 -8 12 -14 11
-57 -12z"/>
<path d="M7724 11045 c-12 -29 5 -161 27 -222 45 -118 104 -172 240 -220 88
-30 169 -28 264 7 103 38 93 41 201 -59 56 -52 123 -104 154 -119 49 -24 66
-27 160 -27 118 0 160 8 160 31 0 13 -6 14 -32 7 -18 -4 -76 -8 -128 -8 -124
1 -159 17 -278 129 -132 122 -132 122 -223 83 -64 -27 -85 -32 -159 -32 -74 0
-94 5 -150 31 -36 17 -83 46 -104 65 -61 53 -106 175 -106 289 0 50 -15 75
-26 45z"/>
<path d="M9648 11019 c-10 -5 -18 -16 -18 -22 0 -7 -25 -37 -56 -67 -93 -92
-112 -140 -61 -156 18 -6 33 6 87 65 36 39 72 71 80 71 8 0 27 -10 42 -23 l28
-22 -136 -165 c-152 -184 -163 -202 -144 -225 31 -37 53 -19 198 159 79 96
149 179 156 186 11 8 26 8 62 -3 26 -8 49 -18 51 -24 2 -5 -70 -111 -160 -234
-90 -123 -166 -230 -170 -236 -14 -22 12 -54 40 -51 21 2 47 31 125 138 54 74
137 187 184 251 l85 116 72 10 c40 6 73 9 75 8 1 -1 -89 -143 -199 -316 -111
-173 -204 -321 -206 -330 -4 -16 21 -49 37 -49 4 0 17 8 28 18 26 22 442 669
442 688 0 22 -37 37 -60 24 -17 -9 -20 -8 -20 8 0 11 -9 31 -21 46 -19 24 -26
26 -103 26 -103 0 -176 19 -294 75 -98 47 -115 51 -144 34z"/>
<path d="M9391 10725 c-38 -44 -40 -71 -5 -87 24 -11 29 -9 61 25 42 47 43 90
2 95 -19 2 -34 -6 -58 -33z"/>
<path d="M6599 10213 c-14 -43 -24 -105 -27 -166 -6 -123 10 -170 84 -247 l52
-55 -15 -80 c-31 -169 -14 -354 43 -468 34 -66 81 -127 100 -127 21 0 17 24
-7 46 -92 82 -140 287 -114 485 7 57 18 124 24 149 11 48 -1 79 -19 50 -7 -12
-14 -10 -40 15 -18 17 -43 51 -56 77 -31 61 -33 178 -4 288 22 85 24 100 10
100 -5 0 -19 -30 -31 -67z"/>
<path d="M8294 9685 c-11 -27 14 -171 35 -213 26 -50 81 -98 128 -112 45 -13
168 -9 168 5 0 6 -39 12 -86 15 -94 6 -122 18 -162 72 -32 43 -44 82 -53 168
-7 71 -19 96 -30 65z"/>
<path d="M8624 9575 c-14 -34 13 -174 40 -210 24 -33 31 -7 12 45 -10 27 -20
77 -23 110 -6 61 -18 84 -29 55z"/>
<path d="M3948 9456 c-30 -15 -30 -46 1 -266 31 -223 39 -521 17 -684 -17
-129 -13 -151 29 -162 62 -15 81 20 101 187 25 210 8 499 -47 794 -11 61 -25
115 -30 121 -15 19 -45 23 -71 10z"/>
<path d="M8770 9429 c0 -34 16 -69 31 -69 10 0 7 32 -7 83 -8 28 -24 19 -24
-14z"/>
<path d="M8790 9293 c0 -9 24 -39 53 -68 130 -129 327 -127 512 6 42 30 59 59
35 59 -5 0 -29 -15 -52 -33 -71 -53 -164 -90 -244 -95 -103 -7 -161 15 -238
89 -33 33 -62 59 -63 59 -2 0 -3 -7 -3 -17z"/>
<path d="M5294 8929 c-9 -16 5 -227 22 -325 29 -168 106 -355 182 -444 46 -54
122 -103 202 -130 98 -33 265 -28 363 11 34 14 38 44 5 33 -128 -41 -258 -46
-360 -14 -88 27 -171 89 -218 162 -92 141 -145 326 -163 561 -11 148 -16 173
-33 146z"/>
<path d="M2815 8610 c-19 -30 138 -217 224 -268 63 -37 123 -36 186 3 49 30
68 55 43 55 -7 0 -30 -11 -50 -25 -58 -39 -89 -42 -152 -11 -61 30 -173 142
-206 205 -22 44 -36 56 -45 41z"/>
<path d="M3519 8511 c-67 -52 -127 -61 -231 -35 -43 10 -34 -12 12 -30 64 -25
119 -21 192 17 34 18 64 40 66 50 4 22 -9 22 -39 -2z"/>
<path d="M4607 8353 c-27 -45 -77 -290 -77 -377 0 -120 35 -203 116 -281 53
-50 54 -52 48 -96 -3 -24 -1 -63 5 -86 13 -49 94 -163 116 -163 21 0 20 3 -30
71 -49 66 -69 118 -63 164 2 22 9 31 26 33 33 5 27 16 -27 56 -64 47 -109 99
-135 155 -32 71 -28 242 9 376 35 129 40 155 27 155 -6 0 -13 -3 -15 -7z"/>
<path d="M3892 8338 c-16 -16 -15 -56 2 -104 37 -108 27 -193 -29 -237 -40
-33 -47 -73 -17 -100 26 -23 53 -21 91 8 85 62 115 161 88 284 -9 40 -26 93
-36 117 -18 39 -23 44 -53 44 -19 0 -39 -5 -46 -12z"/>
<path d="M7720 8203 c0 -31 51 -103 100 -142 83 -66 223 -121 264 -105 28 11
17 22 -31 29 -110 16 -237 97 -285 181 -30 54 -48 68 -48 37z"/>
<path d="M6140 8031 c0 -31 179 -131 234 -131 40 0 25 13 -44 40 -30 12 -82
39 -116 61 -63 41 -74 45 -74 30z"/>
<path d="M8135 8000 c-3 -5 4 -33 17 -62 106 -251 312 -408 534 -408 74 0 194
34 194 55 0 19 1 19 -73 -6 -50 -17 -79 -20 -149 -17 -77 4 -96 9 -170 46
-139 68 -229 166 -304 326 -36 79 -39 83 -49 66z"/>
<path d="M3290 7230 c0 -14 71 -79 115 -106 46 -27 106 -36 112 -16 3 7 -4 12
-16 12 -35 0 -83 24 -143 74 -59 48 -68 53 -68 36z"/>
<path d="M7036 7193 c24 -105 163 -226 269 -235 54 -4 57 18 3 27 -24 4 -61
16 -83 27 -58 30 -139 117 -153 166 -15 48 -47 61 -36 15z"/>
<path d="M3540 7135 c0 -27 49 -114 88 -157 36 -40 120 -88 154 -88 38 0 25
19 -25 37 -66 23 -134 89 -170 166 -26 55 -47 74 -47 42z"/>
<path d="M9063 6366 c-10 -13 -42 -51 -70 -85 -57 -66 -67 -103 -34 -121 23
-12 37 -1 131 107 52 60 61 77 56 98 -9 34 -57 35 -83 1z"/>
<path d="M3702 5994 c-35 -24 -28 -57 24 -103 98 -86 205 -117 307 -87 63 18
87 37 87 70 0 38 -33 60 -77 50 -21 -4 -65 -8 -98 -8 -55 -1 -66 3 -131 47
-40 26 -76 47 -81 47 -5 0 -19 -7 -31 -16z"/>
<path d="M9042 5988 c-18 -18 -15 -35 10 -52 30 -21 60 -4 56 32 -2 20 -9 28
-28 30 -14 2 -31 -3 -38 -10z"/>
<path d="M6720 5964 c0 -15 75 -107 117 -143 56 -50 140 -83 202 -79 64 4 54
22 -16 29 -32 4 -69 11 -83 17 -46 19 -107 70 -151 126 -38 48 -69 71 -69 50z"/>
<path d="M8943 5888 c-33 -36 -83 -120 -83 -140 0 -20 35 -42 54 -35 15 6 106
139 106 155 0 15 -29 42 -44 42 -7 0 -22 -10 -33 -22z"/>
<path d="M2713 5773 c-21 -8 -15 -36 26 -124 72 -157 107 -286 120 -437 9
-100 20 -124 49 -105 36 23 16 226 -40 397 -15 49 -27 91 -24 93 7 8 98 -103
162 -199 96 -144 107 -140 196 86 13 33 28 61 34 63 6 2 28 -44 50 -104 36
-98 42 -108 64 -108 40 0 36 39 -20 182 -84 217 -105 215 -199 -24 -19 -46
-37 -83 -42 -83 -4 0 -23 21 -40 48 -59 87 -170 213 -237 268 -65 53 -74 58
-99 47z"/>
<path d="M7102 5758 c17 -50 201 -111 277 -92 47 12 37 30 -14 26 -57 -5 -169
23 -213 53 -40 28 -56 31 -50 13z"/>
<path d="M7040 5200 c0 -11 88 -78 150 -113 63 -35 143 -57 213 -57 72 0 137
18 137 38 0 11 -6 12 -27 6 -16 -5 -69 -9 -119 -9 -84 0 -95 3 -165 37 -41 20
-96 53 -121 73 -47 35 -68 43 -68 25z"/>
<path d="M5712 5117 c-20 -24 -122 -571 -122 -657 0 -35 24 -51 44 -29 7 8 25
88 40 179 36 213 67 360 77 360 4 0 19 -33 34 -72 105 -278 251 -603 293 -650
18 -21 45 -23 61 -5 6 8 13 81 17 173 4 87 10 165 14 173 8 15 109 -131 182
-264 37 -68 51 -84 92 -106 42 -23 57 -26 107 -22 73 7 95 1 157 -41 79 -55
178 -96 231 -96 25 0 74 -10 107 -21 70 -25 97 -21 92 13 -4 29 -97 68 -183
76 -67 6 -135 33 -212 85 -71 48 -115 61 -181 54 -76 -8 -103 8 -148 91 -94
169 -242 372 -273 372 -33 0 -40 -24 -46 -156 -4 -71 -8 -140 -11 -153 -5 -23
-6 -23 -19 -5 -25 36 -107 228 -196 458 -49 126 -94 235 -100 243 -14 16 -43
17 -57 0z"/>
<path d="M3590 4848 c-26 -58 -26 -140 1 -195 21 -44 74 -87 137 -112 37 -16
40 -30 11 -57 -54 -49 -65 -137 -26 -195 28 -42 51 -46 102 -16 47 27 82 76
90 126 14 83 14 84 43 77 115 -26 153 -18 237 49 22 18 48 35 58 38 25 9 32
36 15 54 -11 11 -40 15 -114 15 -89 0 -139 -9 -205 -36 -13 -6 -19 3 -28 40
-18 71 -44 115 -100 167 -58 55 -121 86 -169 87 -29 0 -35 -5 -52 -42z m134
-59 c26 -17 57 -46 70 -63 30 -40 61 -135 49 -147 -16 -16 -124 30 -165 71
-34 34 -38 43 -38 88 0 92 11 99 84 51z m396 -227 c0 -12 -56 -42 -78 -42 -26
0 -52 10 -52 20 0 5 12 13 28 18 33 13 102 15 102 4z m-281 -136 c-11 -60 -33
-96 -58 -96 -23 0 -33 34 -20 69 13 33 71 94 80 84 4 -5 3 -30 -2 -57z"/>
<path d="M10137 4698 c-20 -16 -108 -212 -141 -316 -34 -108 -74 -294 -82
-378 -6 -63 -4 -72 11 -78 29 -11 44 14 55 94 13 94 56 274 86 362 30 89 75
188 85 188 17 0 47 -138 74 -335 9 -66 22 -126 28 -133 22 -28 52 -5 140 108
49 63 94 117 100 119 6 2 7 -16 3 -50 -16 -138 -26 -296 -26 -425 0 -117 3
-144 16 -155 11 -9 20 -10 32 -2 15 9 18 38 23 204 4 107 14 273 24 370 10 97
15 184 12 193 -4 9 -17 16 -32 16 -24 0 -68 -49 -206 -230 -15 -19 -30 -32
-34 -28 -4 4 -15 56 -25 116 -31 193 -83 360 -115 369 -6 2 -18 -2 -28 -9z"/>
<path d="M8841 4584 c-20 -14 -22 -23 -18 -55 6 -49 55 -154 91 -196 29 -34
53 -40 86 -23 14 7 26 5 48 -7 28 -16 31 -16 56 0 32 21 34 57 5 82 -17 17
-24 17 -52 7 -29 -11 -34 -10 -51 10 -10 13 -36 60 -57 104 -44 96 -63 109
-108 78z"/>
<path d="M7598 4468 c-37 -30 -25 -68 40 -132 59 -56 122 -49 122 14 0 20 -14
41 -54 79 -56 52 -80 61 -108 39z"/>
<path d="M4084 4415 c-5 -11 21 -75 74 -184 100 -203 134 -292 168 -435 40
-170 37 -161 64 -161 33 0 36 25 15 128 -25 123 -80 277 -151 426 -35 74 -62
137 -59 140 15 14 175 -98 268 -188 27 -25 71 -74 99 -108 36 -46 56 -63 74
-63 15 0 52 25 103 71 45 39 85 67 91 64 26 -16 98 -205 165 -432 66 -222 94
-243 142 -108 14 39 27 72 29 74 2 2 16 -2 32 -8 26 -11 39 -8 116 23 l87 36
46 -20 c26 -12 75 -49 114 -90 38 -39 75 -70 82 -70 17 0 37 20 37 37 0 23
-133 149 -185 175 -82 41 -98 42 -178 8 -83 -35 -84 -35 -126 -14 -39 20 -55
14 -81 -28 -11 -18 -22 -33 -25 -33 -3 0 -32 79 -64 175 -32 97 -75 209 -96
250 -35 72 -79 130 -97 130 -5 0 -47 -36 -94 -81 -47 -44 -89 -79 -93 -77 -5
2 -31 29 -58 60 -100 115 -224 214 -342 273 -89 45 -147 56 -157 30z"/>
<path d="M6683 3415 c-12 -34 72 -211 137 -286 22 -26 65 -64 96 -84 56 -37
57 -38 138 -32 45 3 105 14 136 26 70 26 162 105 158 135 -3 19 -9 21 -53 18
-27 -1 -93 -17 -147 -36 l-98 -33 -26 51 c-50 99 -121 173 -215 224 -66 35
-116 42 -126 17z m158 -117 c52 -41 117 -131 125 -177 l7 -34 -33 19 c-39 23
-102 100 -136 166 -13 26 -24 50 -24 53 0 12 21 3 61 -27z"/>
<path d="M8692 3032 c-19 -13 -79 -158 -98 -238 -19 -81 -15 -107 18 -102 18
2 26 18 48 93 35 118 57 166 73 159 6 -3 28 -25 47 -50 19 -25 43 -50 52 -55
28 -15 87 16 229 120 17 12 30 7 117 -43 54 -31 107 -56 118 -56 11 0 63 21
115 46 65 32 111 47 149 51 91 7 100 11 100 38 0 55 -126 45 -261 -21 -49 -24
-95 -44 -101 -44 -5 0 -53 25 -106 55 -53 30 -105 55 -115 55 -10 0 -59 -29
-108 -65 -50 -36 -96 -65 -101 -65 -6 0 -37 29 -70 65 -58 63 -79 74 -106 57z"/>
<path d="M4922 5948 c-7 -7 -12 -20 -12 -29 0 -21 166 -209 185 -209 71 0 60
44 -41 155 -83 93 -107 108 -132 83z"/>
<path d="M5059 5661 c-25 -20 -25 -31 14 -166 15 -53 43 -77 78 -68 44 12 46
64 8 173 -29 80 -56 97 -100 61z"/>
<path d="M7539 16128 c-15 -28 -5 -215 17 -324 19 -93 66 -222 95 -258 23 -30
41 -33 59 -11 11 13 7 29 -23 93 -54 113 -78 217 -84 362 -3 69 -10 133 -15
143 -12 24 -35 21 -49 -5z"/>
<path d="M2703 14748 c-158 -162 -221 -327 -210 -554 6 -124 17 -157 50 -152
21 3 21 7 22 168 1 142 4 174 23 230 32 95 87 183 170 269 75 78 85 104 42
109 -20 2 -40 -13 -97 -70z"/>
<path d="M2096 14644 c-21 -20 -22 -224 -2 -334 28 -155 108 -315 207 -411 95
-92 231 -178 263 -166 32 13 14 38 -67 91 -240 158 -346 368 -347 692 0 79 -4
124 -12 132 -16 16 -23 15 -42 -4z"/>
<path d="M6881 14454 c-12 -15 -21 -35 -21 -46 0 -23 -58 -175 -95 -249 -43
-84 -124 -196 -174 -241 -51 -44 -128 -86 -209 -113 -60 -19 -82 -48 -63 -84
6 -11 44 -36 84 -55 94 -44 160 -101 249 -213 87 -109 163 -256 208 -403 17
-58 39 -113 49 -122 9 -10 37 -21 63 -24 41 -6 48 -4 61 17 8 13 27 78 42 144
14 66 34 152 42 190 21 92 73 221 114 281 53 79 140 174 159 174 23 0 50 32
50 58 0 30 -29 52 -93 72 -119 37 -274 157 -317 244 -28 58 -51 193 -49 288 1
50 -3 83 -11 93 -20 24 -66 19 -89 -11z m71 -462 c14 -20 45 -57 69 -81 44
-45 174 -135 209 -146 27 -9 25 -16 -18 -66 -113 -129 -179 -276 -222 -493
-11 -55 -22 -101 -24 -103 -1 -2 -8 16 -15 39 -23 78 -108 242 -172 331 -65
91 -165 198 -223 237 l-33 23 71 47 c39 26 85 63 103 81 49 53 135 179 162
237 l25 53 22 -61 c12 -33 33 -77 46 -98z"/>
<path d="M13554 14335 c-22 -34 -12 -56 52 -114 65 -60 103 -67 130 -25 16 23
16 28 1 58 -8 18 -35 50 -60 70 -54 44 -98 48 -123 11z"/>
<path d="M13874 14277 c-59 -40 -69 -76 -31 -102 23 -15 28 -14 77 4 29 11 61
28 71 37 38 35 11 94 -43 94 -14 0 -48 -15 -74 -33z"/>
<path d="M13647 14100 c-26 -16 -53 -42 -59 -56 -11 -24 -10 -29 15 -50 37
-32 53 -30 114 11 29 19 56 35 61 35 4 0 30 -20 57 -44 57 -52 76 -59 104 -39
28 19 26 49 -5 94 -33 49 -88 76 -124 62 -20 -7 -32 -6 -45 3 -29 22 -67 17
-118 -16z"/>
<path d="M13559 13278 c-9 -16 -12 -72 -10 -180 1 -91 -3 -174 -9 -198 -14
-51 -66 -110 -128 -146 -68 -39 -92 -64 -92 -94 0 -33 16 -47 99 -91 125 -65
209 -164 273 -322 27 -64 39 -82 62 -92 31 -13 79 -4 93 18 5 7 13 101 18 210
12 221 11 219 85 231 43 7 71 36 63 66 -3 11 -29 40 -59 65 -52 45 -145 166
-197 255 -14 25 -41 98 -60 164 -19 65 -41 122 -49 127 -27 18 -77 10 -89 -13z
m216 -519 l45 -57 -25 -30 c-30 -36 -55 -102 -55 -148 0 -18 -4 -35 -8 -38 -5
-3 -33 20 -63 50 -30 31 -73 69 -96 85 -24 17 -43 34 -43 39 0 5 23 31 51 57
28 26 62 70 76 96 l24 49 24 -22 c13 -13 45 -49 70 -81z"/>
<path d="M7513 12886 c-40 -51 -66 -112 -59 -139 7 -28 40 -43 73 -33 23 7 83
109 83 141 0 53 -64 74 -97 31z"/>
<path d="M7228 12836 c-15 -7 -24 -22 -26 -42 -3 -25 7 -39 62 -92 35 -34 69
-62 76 -62 17 0 60 47 60 65 0 20 -104 131 -130 138 -10 2 -29 -1 -42 -7z"/>
<path d="M7521 12641 c-26 -26 -26 -42 -3 -69 21 -25 114 -56 142 -47 21 7 34
40 28 72 -4 20 -64 52 -114 60 -24 4 -37 0 -53 -16z"/>
<path d="M7370 12578 c-30 -49 -53 -115 -47 -132 3 -8 17 -22 31 -32 23 -15
28 -15 49 -1 13 8 36 45 51 81 27 63 27 67 12 91 -25 38 -71 34 -96 -7z"/>
</g>
</svg>
