<?xml version="1.0" standalone="no"?>
<!DOCTYPE svg PUBLIC "-//W3C//DTD SVG 20010904//EN"
 "http://www.w3.org/TR/2001/REC-SVG-20010904/DTD/svg10.dtd">
<svg version="1.0" xmlns="http://www.w3.org/2000/svg"
 width="1500.000000pt" height="1800.000000pt" viewBox="0 0 1500.000000 1800.000000"
 preserveAspectRatio="xMidYMid meet">

<g transform="translate(0.000000,1800.000000) scale(0.100000,-0.100000)"
fill="#000000" stroke="none">
<path d="M5712 17408 c-49 -24 -170 -211 -267 -412 -138 -287 -199 -511 -198
-736 0 -176 44 -318 144 -461 23 -32 40 -62 37 -65 -4 -3 -59 2 -125 11 -299
43 -471 7 -620 -129 -100 -91 -201 -262 -238 -401 -22 -79 -30 -252 -17 -344
21 -148 -40 -292 -197 -465 -119 -131 -154 -187 -197 -314 -62 -181 -55 -313
26 -494 57 -125 52 -146 -93 -392 -83 -141 -112 -219 -104 -280 7 -52 33 -76
93 -84 40 -6 49 -11 49 -27 0 -11 -4 -87 -9 -170 -9 -173 2 -280 40 -381 116
-310 365 -595 640 -732 77 -39 163 -61 264 -69 l80 -6 0 -57 c0 -182 -59 -555
-115 -725 -65 -198 -130 -293 -305 -448 -52 -46 -113 -105 -134 -132 -106
-129 -195 -330 -183 -416 3 -23 19 -64 36 -91 17 -27 31 -52 31 -56 0 -12
-213 -420 -304 -582 -204 -364 -310 -600 -365 -814 -47 -182 -48 -206 -17
-243 l26 -31 -75 -117 c-150 -229 -341 -580 -634 -1165 -416 -829 -441 -888
-448 -1070 -6 -126 8 -204 52 -289 64 -127 205 -198 441 -223 l114 -12 50
-102 c127 -261 343 -423 680 -510 104 -27 138 -27 219 -2 l44 13 219 -224
c120 -123 217 -226 214 -228 -2 -2 -41 3 -87 11 -46 9 -108 17 -138 18 -45 2
-56 -1 -72 -21 -10 -13 -19 -30 -19 -38 0 -9 25 -42 55 -75 31 -33 65 -78 76
-101 l20 -42 -48 55 c-77 88 -139 144 -283 254 -213 162 -331 236 -376 236
-26 0 -64 -32 -64 -54 0 -7 14 -31 31 -52 48 -60 177 -329 198 -415 21 -84 45
-263 39 -299 -2 -19 -12 -9 -54 56 -108 165 -316 374 -373 374 -32 0 -61 -27
-61 -56 0 -11 25 -107 55 -214 51 -178 92 -367 82 -376 -2 -2 -32 38 -68 89
-160 232 -314 395 -502 531 -149 108 -185 119 -216 65 -13 -24 -11 -31 58
-151 78 -137 137 -266 171 -374 24 -76 111 -484 103 -484 -3 0 -39 31 -81 69
-166 149 -377 301 -417 301 -26 0 -55 -29 -55 -54 0 -10 16 -44 34 -75 19 -31
45 -79 56 -106 40 -93 197 -550 213 -621 24 -104 37 -242 29 -303 l-7 -54 -65
-17 c-90 -24 -176 -60 -246 -105 -104 -66 -293 -215 -299 -236 -4 -12 0 -31
10 -45 l17 -26 156 7 c105 5 183 3 237 -5 107 -16 290 -57 343 -77 l42 -16 0
-103 c0 -94 2 -105 24 -131 l24 -27 183 35 c101 20 191 39 199 42 16 7 38 -23
100 -140 39 -75 63 -93 127 -93 50 0 182 40 240 74 39 23 44 23 52 8 17 -32
59 -177 66 -227 12 -81 49 -120 93 -96 11 6 49 72 86 147 59 122 119 222 175
294 l20 25 33 -31 c18 -17 38 -33 45 -35 24 -8 265 -251 293 -296 18 -27 30
-61 30 -80 0 -34 21 -53 58 -53 28 0 39 18 58 91 8 35 23 88 31 118 l15 54 68
-70 c80 -85 130 -113 200 -113 64 0 98 14 201 84 101 69 134 73 200 22 24 -18
64 -43 89 -56 40 -20 51 -22 115 -14 38 4 114 7 168 6 75 -2 114 3 162 17 90
28 145 10 230 -76 66 -67 101 -119 171 -258 48 -95 66 -122 87 -130 50 -17 70
18 116 204 42 172 78 259 134 325 l33 38 37 -15 c129 -55 240 -198 297 -384
24 -81 33 -92 84 -100 27 -4 42 -1 56 12 40 36 20 221 -43 403 l-34 102 41 0
c22 0 79 7 126 15 78 14 95 14 197 -2 l113 -17 41 -58 c82 -117 142 -273 156
-408 7 -66 22 -90 57 -90 48 0 59 21 68 126 21 249 21 265 -1 358 -12 49 -35
116 -51 148 -17 32 -30 60 -30 62 0 2 17 7 38 11 20 4 75 18 122 31 104 30
120 25 184 -57 68 -87 105 -96 263 -58 85 20 90 21 159 5 71 -17 107 -15 152
7 32 15 128 -18 237 -81 111 -65 257 -212 309 -310 44 -85 72 -105 114 -81 39
21 52 119 27 199 -18 57 -78 181 -116 237 -20 31 -20 33 -2 40 10 3 55 21 100
40 45 18 90 33 100 33 23 0 76 -33 143 -88 64 -52 84 -51 175 9 69 46 84 46
216 -2 44 -16 91 -29 105 -29 74 0 162 99 199 225 11 34 17 41 46 46 19 3 44
11 56 17 33 18 64 15 120 -13 67 -34 173 -146 248 -263 33 -52 68 -104 78
-118 25 -33 71 -33 93 1 16 25 16 29 -4 73 -11 26 -25 90 -32 142 -11 93 -36
207 -63 282 -9 25 -11 54 -6 85 4 27 14 95 23 153 21 140 70 333 113 450 43
115 149 330 210 424 53 82 149 186 172 186 31 0 62 30 59 57 -12 97 -218 87
-406 -20 -29 -16 -56 -27 -59 -24 -10 11 18 170 44 241 31 87 143 311 212 425
52 85 61 117 39 139 -27 27 -61 11 -182 -85 -66 -53 -138 -112 -158 -131 -21
-20 -40 -33 -44 -30 -9 10 59 201 125 352 34 77 61 147 61 157 0 10 -7 25 -16
33 -51 51 -153 -26 -344 -260 -19 -24 -37 -43 -40 -44 -3 0 -3 64 -1 142 2 79
-2 189 -9 246 -10 85 -10 106 1 121 157 214 245 355 295 469 17 39 33 62 43
62 24 1 54 28 105 99 137 188 206 408 206 655 0 82 2 89 25 108 34 26 118 195
156 312 17 50 39 143 50 206 11 63 23 117 27 121 4 4 40 24 81 45 92 49 206
167 254 263 l32 66 -1 175 c0 210 -25 406 -90 717 l-44 213 38 39 c52 54 92
139 93 198 2 97 -58 265 -172 479 -50 95 -129 275 -129 295 0 3 66 9 148 12
162 7 289 31 447 87 114 40 266 119 337 175 139 109 215 332 174 508 -27 115
-51 150 -117 170 -14 5 -15 13 -7 59 25 152 2 392 -47 490 -55 110 -173 257
-240 298 -67 41 -81 35 -218 -96 -69 -66 -166 -149 -216 -185 -122 -86 -311
-188 -449 -244 -120 -48 -309 -105 -350 -105 -14 0 -75 24 -136 54 -140 68
-260 110 -386 136 l-98 20 -85 84 c-115 113 -205 159 -321 164 -53 3 -103 -2
-145 -13 -74 -19 -236 -82 -321 -125 -87 -44 -90 -43 -90 41 0 79 -18 130 -53
147 -52 26 -339 55 -547 55 -188 1 -215 -1 -330 -27 -69 -15 -140 -30 -157
-33 l-33 -6 0 50 c0 51 -19 215 -46 391 l-15 104 49 52 c30 31 57 73 69 107
33 86 66 329 99 723 l18 210 162 160 c173 172 224 240 299 399 93 197 118 310
118 532 -1 117 -7 182 -27 295 -14 80 -29 183 -32 230 -6 81 -5 90 29 181 58
155 72 227 72 379 0 246 -42 342 -276 626 -117 144 -165 211 -156 220 3 4 43
-1 89 -9 306 -58 479 -5 649 197 186 219 270 511 233 801 -20 151 -20 153 -55
170 -41 22 -61 13 -150 -65 -143 -127 -266 -197 -439 -250 -172 -53 -514 -103
-820 -120 -102 -5 -223 -12 -270 -14 l-85 -5 -45 45 c-61 61 -155 125 -344
233 -251 144 -317 161 -466 121 -129 -35 -131 -35 -186 -2 -196 115 -605 177
-1002 152 l-145 -9 -34 26 c-39 30 -94 131 -123 227 -35 113 -49 294 -50 649
l0 248 -25 24 c-26 27 -38 29 -73 13z m-164 -568 c-17 -124 -4 -377 25 -492
40 -155 107 -303 190 -420 10 -16 1 -29 -70 -100 l-82 -82 -48 54 c-99 110
-146 199 -174 329 -20 95 -6 307 29 442 39 150 123 361 138 346 2 -1 -2 -36
-8 -77z m157 -191 c20 -155 54 -267 120 -397 45 -89 63 -114 105 -146 44 -33
56 -37 88 -32 180 29 347 33 568 16 231 -18 366 -51 521 -127 l112 -55 127 36
c69 20 138 36 153 36 119 0 380 -150 546 -313 55 -54 110 -98 140 -112 45 -22
147 -45 323 -74 78 -12 152 -46 218 -98 94 -76 137 -165 174 -367 23 -127 28
-136 175 -316 61 -74 127 -157 147 -185 146 -204 160 -430 44 -733 -45 -118
-46 -157 -5 -430 27 -183 30 -225 26 -357 -5 -163 -16 -216 -72 -354 -57 -139
-113 -226 -227 -350 -121 -132 -194 -194 -323 -275 -102 -64 -123 -92 -103
-134 21 -43 58 -56 108 -36 22 9 42 15 44 13 8 -10 -47 -483 -74 -643 -26
-151 -48 -189 -138 -249 -77 -52 -93 -79 -73 -124 6 -14 25 -30 42 -36 35 -14
34 -9 55 -212 25 -240 22 -407 -9 -526 -32 -123 -85 -237 -142 -307 -51 -62
-55 -83 -20 -117 45 -46 96 -28 162 59 73 97 145 277 159 401 4 30 13 60 20
66 7 6 78 25 156 42 130 27 159 30 328 30 117 0 231 -6 310 -17 181 -24 170
-19 170 -78 0 -27 -5 -80 -11 -118 -10 -60 -10 -73 5 -94 32 -49 54 -45 234
42 344 166 467 192 581 125 61 -36 131 -102 131 -124 0 -10 10 -29 23 -42 18
-20 41 -28 122 -41 56 -8 141 -27 190 -41 114 -33 331 -138 412 -199 113 -86
217 -231 244 -341 6 -27 21 -60 32 -72 27 -30 79 -31 108 -2 18 18 21 29 16
70 -11 90 -94 243 -185 341 -52 55 -66 44 123 104 156 50 399 170 550 271 66
45 166 124 222 177 55 53 107 96 115 96 18 -1 95 -97 136 -168 39 -69 50 -108
63 -218 16 -146 -11 -302 -72 -410 -35 -63 -36 -78 -4 -109 35 -36 75 -33 116
9 19 19 44 37 56 40 19 6 23 2 29 -29 3 -20 4 -71 2 -113 -9 -158 -83 -256
-259 -344 -206 -103 -398 -148 -634 -148 -117 0 -164 -4 -194 -16 -51 -20 -68
-57 -51 -111 26 -79 82 -205 172 -389 99 -199 149 -332 151 -399 2 -48 -47
-126 -93 -150 -16 -9 -32 -26 -36 -40 -3 -13 8 -86 24 -162 28 -126 61 -323
94 -558 6 -49 12 -162 13 -250 0 -149 -2 -163 -24 -208 -24 -49 -164 -197
-186 -197 -8 0 -14 27 -18 73 -5 61 -10 75 -32 95 -32 27 -45 28 -79 1 -26
-20 -26 -21 -26 -163 0 -208 -39 -405 -110 -562 -27 -61 -32 -66 -55 -60 -25
6 -64 -7 -77 -28 -4 -6 -8 -72 -8 -146 0 -245 -30 -405 -104 -555 -54 -110
-81 -145 -110 -145 -37 0 -62 -27 -86 -92 -12 -35 -38 -93 -56 -130 -46 -92
-199 -318 -276 -408 -35 -41 -77 -98 -92 -126 -39 -72 -81 -94 -179 -94 -48 0
-78 -5 -85 -12 -5 -7 -20 -46 -33 -87 -20 -63 -29 -77 -62 -98 -63 -40 -161
-53 -237 -33 -53 14 -177 91 -250 155 -60 52 -90 85 -163 179 -16 20 -45 44
-65 54 -32 15 -40 26 -61 87 -27 78 -33 198 -17 337 l9 77 -35 21 c-47 27 -93
94 -118 171 l-21 64 104 280 c58 154 120 322 138 373 25 69 38 92 51 92 10 0
18 -4 18 -9 0 -5 -31 -96 -69 -202 -155 -439 -175 -499 -163 -511 9 -9 15 -9
24 0 6 6 66 167 133 358 118 335 140 383 166 357 5 -5 -21 -101 -63 -231 -50
-158 -68 -226 -60 -234 5 -5 15 -7 21 -4 6 4 45 113 87 242 62 190 81 237 98
244 12 4 24 6 27 4 3 -2 -16 -74 -42 -161 -27 -86 -49 -165 -49 -174 0 -21 12
-30 27 -21 15 10 110 328 117 395 6 52 4 60 -18 82 -30 29 -33 30 -125 9 -58
-13 -82 -14 -136 -5 -68 12 -76 10 -110 -21 -11 -11 -78 -68 -149 -128 -215
-180 -299 -219 -496 -227 -103 -4 -125 -2 -210 22 -52 15 -121 30 -153 32 -52
4 -68 0 -155 -38 -83 -37 -107 -43 -162 -43 -119 1 -283 69 -363 152 l-49 49
26 52 c33 65 86 221 86 254 0 39 -31 70 -70 70 -44 0 -63 -25 -84 -110 -10
-37 -42 -120 -71 -183 -41 -87 -55 -131 -60 -180 -19 -201 -47 -325 -97 -425
-38 -78 -83 -123 -192 -196 -137 -90 -126 -59 -201 -589 -36 -247 -64 -350
-133 -485 -55 -106 -155 -217 -234 -260 -29 -15 -69 -44 -89 -65 -70 -70 -172
-140 -238 -160 -78 -25 -114 -25 -168 -1 -47 22 -84 78 -129 194 -24 64 -30
70 -73 89 -25 11 -79 26 -120 34 -127 22 -178 56 -284 185 -142 173 -228 301
-287 424 -54 113 -60 143 -60 294 0 127 1 134 25 163 34 40 31 64 -10 101
-113 101 -184 177 -206 222 -23 49 -24 55 -21 264 1 118 4 216 6 218 1 2 19
-3 39 -12 19 -8 70 -24 112 -36 71 -19 78 -19 101 -4 36 23 50 59 36 90 -13
28 -39 41 -162 81 -152 48 -264 108 -333 177 -34 34 -75 87 -91 117 -16 30
-36 63 -44 73 -16 18 -53 22 -80 9 -9 -5 -53 -6 -97 -2 -147 14 -283 85 -415
219 -50 51 -79 93 -124 181 -72 140 -80 150 -122 150 -25 0 -38 -7 -51 -26
-16 -26 -16 -29 5 -88 l22 -60 -45 -74 c-44 -71 -51 -102 -22 -102 7 0 28 25
46 55 19 31 37 58 42 61 5 2 18 -14 29 -36 l21 -41 -51 -93 c-27 -51 -50 -99
-50 -105 0 -6 9 -11 20 -11 15 0 30 20 60 80 22 44 43 80 47 80 9 0 32 -34 33
-48 0 -8 -36 -77 -80 -155 -75 -133 -86 -169 -47 -154 7 3 46 63 86 134 41 70
75 129 76 131 5 5 55 -29 55 -37 0 -4 -45 -88 -100 -186 -55 -99 -100 -186
-100 -192 0 -7 8 -13 18 -13 14 0 45 47 116 175 54 96 104 175 111 175 7 0 18
-6 24 -14 10 -12 7 -23 -12 -53 -81 -127 -337 -585 -332 -594 4 -5 14 -9 22
-7 8 2 92 138 188 303 95 165 179 301 186 303 8 1 23 -3 33 -11 16 -12 3 -39
-194 -390 -116 -207 -208 -381 -205 -387 3 -5 12 -10 20 -10 13 0 40 45 286
486 166 297 148 273 194 251 l37 -17 -28 -48 c-111 -189 -454 -807 -454 -818
0 -8 8 -14 18 -14 12 0 80 112 246 408 127 224 238 419 248 434 13 19 24 25
39 21 13 -4 19 -12 16 -22 -2 -9 -122 -232 -265 -495 -144 -264 -263 -486
-264 -495 -2 -10 4 -16 16 -16 15 0 61 75 206 340 102 187 226 414 276 505 81
147 94 165 119 168 23 3 27 1 21 -14 -4 -10 -135 -250 -291 -534 -157 -284
-285 -524 -285 -534 0 -11 6 -16 18 -14 10 2 46 56 92 138 41 75 176 319 300
543 123 224 230 407 238 407 30 0 20 -37 -46 -162 -38 -73 -174 -330 -301
-572 -127 -241 -231 -447 -231 -458 0 -65 50 19 326 542 161 305 295 560 297
565 5 11 44 -21 58 -46 6 -12 -71 -166 -296 -590 -167 -316 -311 -578 -319
-583 -9 -6 -34 -5 -69 4 -53 12 -57 12 -108 -14 -65 -32 -65 -32 -180 -2 -123
33 -222 74 -309 131 -164 105 -235 203 -345 470 -8 21 -23 47 -32 57 -23 26
-70 23 -97 -7 -28 -30 -66 -32 -169 -9 -200 45 -253 115 -251 334 0 108 3 121
36 205 59 150 115 268 391 825 335 675 546 1061 690 1261 30 42 60 86 67 99
18 34 4 69 -34 85 l-34 14 15 68 c46 210 138 424 358 839 80 150 176 338 215
419 59 125 72 146 89 140 50 -16 101 40 101 111 0 31 -8 43 -54 86 -77 70 -84
91 -53 167 46 114 87 167 244 316 169 162 226 237 284 379 34 83 40 90 65 91
31 0 -5 -48 510 685 107 151 194 282 194 291 0 23 -26 42 -48 34 -11 -3 -156
-200 -327 -445 -170 -242 -310 -438 -312 -436 -7 7 29 179 43 207 7 14 101
155 208 314 108 159 196 296 196 305 0 24 -25 43 -47 36 -10 -4 -56 -63 -103
-132 -47 -70 -118 -174 -158 -233 l-74 -106 4 61 c4 56 10 71 83 185 44 68 92
142 107 163 37 51 36 89 -1 127 -34 33 -44 34 -138 15 -298 -62 -491 -2 -714
224 -151 154 -309 418 -345 577 -14 64 -16 105 -10 242 4 91 8 180 9 196 2 28
0 30 -38 33 -64 4 -83 11 -90 32 -11 36 15 99 87 207 93 140 133 217 149 288
14 63 15 59 -52 230 -30 78 -33 222 -6 305 35 106 81 183 157 265 146 156 186
225 221 386 19 87 20 103 8 224 -14 151 -3 256 37 364 59 157 189 308 301 352
81 31 216 36 391 14 81 -10 183 -15 245 -13 l107 3 155 155 c172 172 180 187
124 234 -17 14 -43 26 -58 26 -32 0 -56 30 -116 151 -85 168 -111 295 -102
507 6 146 20 226 25 142 1 -25 9 -97 17 -161z m4181 -785 c18 -147 -41 -365
-138 -517 -59 -90 -165 -192 -235 -225 -54 -25 -66 -27 -183 -26 -136 1 -271
29 -300 62 -9 9 -25 44 -35 77 -11 33 -39 88 -62 123 -26 40 -37 64 -30 67 7
2 28 8 47 14 172 49 488 190 632 283 128 82 267 179 273 188 14 22 24 7 31
-46z m-897 -268 c-2 -2 -42 -13 -88 -25 -46 -12 -95 -28 -110 -35 -22 -12 -30
-11 -68 7 -24 12 -43 24 -43 27 0 4 46 11 103 17 112 11 213 15 206 9z m-3795
-4141 c-9 -14 -18 -25 -20 -25 -2 0 -4 11 -4 25 0 18 5 25 20 25 20 0 20 -1 4
-25z m-242 -5835 c21 -14 38 -29 38 -34 0 -10 -530 -992 -567 -1049 -23 -36
-26 -38 -71 -35 -34 2 -46 7 -44 17 5 24 595 1132 601 1129 3 -2 23 -14 43
-28z m4678 -39 c0 -7 -171 -473 -206 -561 -10 -24 -22 17 -23 74 -1 67 135
415 182 464 31 32 47 40 47 23z m-4595 -128 c-5 -73 -11 -103 -25 -118 -10
-11 -86 -156 -169 -322 -87 -174 -157 -303 -165 -303 -7 0 -40 -13 -72 -30
-32 -16 -59 -28 -61 -27 -5 5 483 897 491 897 5 0 5 -43 1 -97z m4405 -89
c-42 -106 -50 -111 -50 -32 0 64 1 67 38 96 20 17 38 27 40 23 2 -5 -11 -44
-28 -87z m-1513 -4 c47 -27 102 -55 121 -61 l35 -11 -7 -72 c-3 -39 -13 -138
-21 -221 -34 -344 -9 -493 109 -643 50 -63 131 -130 172 -141 22 -6 30 -18 48
-76 61 -189 162 -324 323 -430 40 -25 47 -27 109 -20 l67 7 -7 -32 c-3 -18 -6
-43 -6 -56 0 -22 -3 -23 -44 -18 -28 4 -74 -1 -133 -15 -50 -11 -95 -21 -100
-21 -6 0 -41 23 -78 50 -42 31 -83 53 -107 56 -32 6 -38 10 -38 31 0 35 -44
76 -73 67 -31 -9 -39 -19 -58 -66 -14 -36 -21 -43 -60 -53 -24 -6 -63 -23 -86
-38 -24 -15 -50 -27 -60 -27 -9 0 -54 18 -98 41 l-81 40 -18 97 c-10 53 -24
107 -32 119 -8 12 -14 31 -14 42 0 47 -65 68 -97 32 -9 -11 -29 -53 -43 -93
-35 -94 -99 -233 -105 -226 -3 2 -18 47 -33 99 -40 132 -142 390 -164 415 -18
20 -18 25 -3 120 28 180 65 429 65 441 0 6 39 37 86 68 48 31 110 80 138 108
90 91 163 264 188 450 7 48 14 87 15 87 2 0 42 -22 90 -50z m673 -34 c0 -24
-347 -821 -356 -820 -5 1 -17 22 -28 47 l-19 44 159 354 c150 332 162 355 194
371 42 22 50 22 50 4z m654 -85 l7 -79 -90 -283 c-49 -156 -143 -453 -208
-659 l-119 -375 -47 -3 c-38 -2 -47 0 -47 13 0 15 456 1441 466 1457 3 4 11 8
18 8 9 0 16 -24 20 -79z m-558 56 c8 -21 -305 -847 -335 -884 l-26 -32 -27 26
c-16 15 -28 31 -28 37 0 7 204 488 350 824 14 30 25 42 40 42 11 0 23 -6 26
-13z m461 -19 c-4 -13 -167 -516 -352 -1091 -51 -159 -96 -291 -100 -295 -3
-4 -24 12 -45 35 l-39 41 214 642 c118 353 219 648 225 655 18 22 105 33 97
13z m-311 -11 c4 -3 -333 -973 -345 -995 -6 -10 -12 7 -20 54 -7 38 -21 78
-31 89 -17 20 -14 30 134 425 84 223 155 413 159 424 6 16 14 18 54 12 25 -3
48 -7 49 -9z m-406 -8 c0 -9 -173 -401 -226 -511 -29 -62 -38 -46 -30 56 6 91
9 101 82 258 42 90 81 168 86 173 8 9 63 32 81 34 4 1 7 -4 7 -10z m560 -3 c0
-20 -400 -1209 -410 -1220 -9 -9 -70 106 -70 132 0 8 77 235 172 505 94 271
177 513 185 539 14 45 16 47 56 51 23 2 48 4 55 5 6 1 12 -4 12 -12z m-4043
-349 l-64 -135 -57 -21 c-64 -24 -76 -25 -76 -11 0 6 57 124 128 263 l127 252
3 -106 3 -107 -64 -135z m3333 324 c0 -16 -74 -171 -82 -171 -10 0 5 161 17
181 5 7 65 -1 65 -10z m1011 -388 l20 -82 -151 -418 c-82 -230 -156 -431 -164
-448 -8 -16 -30 -38 -49 -49 -38 -20 -73 -15 -64 9 3 8 58 180 122 382 64 202
146 460 183 573 l66 205 8 -45 c5 -25 18 -82 29 -127z m-4051 -143 c0 -39 -8
-38 -26 5 -18 45 -18 48 6 35 13 -7 20 -21 20 -40z m4150 -83 c0 -8 -65 -187
-144 -398 -136 -362 -145 -384 -168 -381 -50 6 -48 18 26 222 40 107 105 287
145 400 96 265 87 250 117 207 13 -20 24 -42 24 -50z m-4301 12 c13 -28 20
-58 16 -67 -23 -65 -302 -641 -310 -642 -6 0 -27 17 -47 38 l-36 37 168 343
c93 188 173 342 178 342 5 0 19 -23 31 -51z m-254 -279 c-85 -173 -156 -315
-158 -316 -6 -7 -67 52 -67 65 0 7 54 122 119 256 l119 244 68 34 c38 19 70
34 72 32 1 -1 -67 -143 -153 -315z m-55 221 c0 -15 -201 -420 -212 -427 -12
-7 -78 54 -78 73 0 12 157 333 163 333 1 0 20 7 42 15 45 16 85 19 85 6z
m4665 -28 c-5 -21 -9 -83 -10 -138 -2 -78 -7 -111 -24 -150 -12 -27 -54 -133
-93 -235 -39 -102 -76 -191 -81 -197 -11 -15 -87 -18 -87 -3 0 9 214 588 261
708 25 61 45 70 34 15z m-4285 -124 c0 -15 -18 -66 -39 -115 -21 -49 -76 -177
-121 -284 -46 -107 -87 -199 -91 -204 -11 -12 -69 41 -69 62 0 11 211 465 273
587 l20 40 13 -30 c7 -16 13 -42 14 -56z m-670 -89 c-19 -39 -38 -70 -44 -70
-6 0 -25 14 -43 32 -39 38 -44 68 -10 68 12 0 45 11 72 24 28 13 52 21 54 19
3 -2 -11 -35 -29 -73z m700 -78 c-1 -93 -27 -174 -114 -349 -48 -95 -90 -173
-94 -173 -13 0 -32 23 -32 38 0 26 223 542 231 536 5 -3 9 -26 9 -52z m4287
-88 l21 -56 -42 -111 c-50 -135 -53 -140 -79 -133 -11 3 -33 -2 -49 -10 -15
-8 -28 -12 -28 -9 0 15 143 375 149 375 3 0 16 -25 28 -56z m-4063 -189 c28
-44 79 -114 113 -156 l61 -76 -14 -149 c-37 -401 -96 -582 -284 -873 -96 -150
-101 -176 -42 -233 62 -62 120 -76 384 -98 192 -16 294 7 399 92 54 43 163
182 269 343 105 160 152 247 154 288 1 28 6 31 79 52 42 12 100 36 128 53 27
18 53 32 57 32 3 0 17 -11 31 -24 50 -46 67 -44 124 16 57 59 107 138 140 220
12 29 47 83 77 120 62 74 135 207 171 311 13 37 27 67 30 67 21 0 134 -370
154 -502 10 -68 -8 -60 -30 13 -23 76 -53 101 -93 78 -18 -10 -30 -29 -38 -59
-7 -25 -31 -117 -54 -205 -23 -88 -56 -194 -72 -235 -16 -41 -52 -138 -80
-215 -47 -131 -89 -230 -107 -248 -4 -4 -21 -3 -37 4 -43 16 -97 13 -140 -9
-36 -19 -38 -19 -98 0 -84 27 -150 21 -213 -20 -34 -22 -62 -32 -89 -32 -89 0
-144 -34 -129 -80 11 -34 37 -40 134 -31 70 6 97 13 114 28 53 49 92 54 180
23 72 -26 81 -25 134 6 43 25 45 25 89 10 41 -14 49 -14 92 2 41 15 52 26 82
80 21 36 42 62 52 62 9 0 69 57 135 126 l118 126 8 -58 c5 -32 5 -66 0 -75 -4
-10 -69 -73 -143 -140 -93 -84 -135 -128 -135 -143 0 -48 38 -28 155 78 63 58
118 106 123 106 4 0 7 -11 7 -24 0 -15 -24 -48 -70 -97 -72 -76 -86 -110 -46
-117 13 -3 34 11 63 44 l44 49 -7 -43 c-5 -34 -2 -48 12 -63 16 -18 26 -20 74
-14 30 4 60 11 66 16 7 6 16 4 24 -6 18 -21 30 -19 62 12 l28 27 0 -55 c0 -61
11 -79 50 -79 36 0 49 11 61 51 13 45 32 590 24 699 -8 95 -22 120 -66 120
-41 0 -53 -24 -99 -200 -22 -85 -53 -193 -67 -240 l-27 -85 -12 170 c-15 210
-30 332 -55 454 -10 52 -19 96 -19 98 0 2 11 -4 25 -13 37 -24 95 3 95 45 0
20 140 315 146 308 2 -2 9 -50 14 -108 13 -129 15 -133 46 -148 31 -14 68 4
79 39 8 26 25 25 85 -5 60 -30 108 -32 160 -5 22 11 40 17 40 13 0 -5 -13 -40
-30 -80 -66 -157 -140 -478 -140 -609 0 -46 3 -56 25 -70 21 -13 31 -15 50 -6
27 13 29 18 46 152 19 155 99 451 130 485 5 5 9 -54 10 -145 1 -85 4 -166 8
-179 3 -13 25 -37 48 -54 59 -42 80 -31 124 67 19 42 37 76 40 76 3 0 12 -35
18 -77 19 -119 69 -259 105 -298 28 -29 43 -34 151 -56 217 -42 445 -30 565
31 46 24 122 125 201 270 28 52 60 106 71 120 10 14 42 56 70 93 60 80 62 79
82 -52 16 -107 34 -141 76 -141 33 0 50 21 70 83 13 42 13 42 45 21 14 -9 33
-13 45 -9 24 8 25 -9 10 -149 -10 -98 1 -145 38 -165 12 -6 65 -11 119 -11 54
0 163 -5 243 -10 79 -6 152 -8 161 -5 10 3 29 26 43 50 14 24 35 45 45 47 11
2 105 78 210 171 104 92 193 167 196 167 3 0 5 -24 5 -54 l0 -54 -192 -163
c-235 -198 -268 -228 -268 -250 0 -22 20 -29 45 -16 11 5 110 87 220 181 196
167 360 296 377 296 4 0 1 -16 -7 -36 -8 -20 -15 -38 -15 -39 0 -2 -115 -112
-255 -246 -194 -184 -255 -248 -253 -263 7 -46 38 -27 189 116 215 204 279
261 286 255 3 -3 1 -25 -3 -49 -8 -40 -26 -59 -222 -242 -177 -165 -213 -202
-208 -220 3 -11 6 -33 6 -48 0 -32 23 -58 51 -58 11 0 46 24 77 53 85 81 161
139 290 226 128 85 293 181 311 181 17 0 14 -6 -24 -56 -66 -86 -164 -268
-229 -426 -71 -171 -103 -301 -142 -565 l-5 -33 -52 39 c-66 49 -84 58 -142
71 -57 13 -95 -5 -95 -44 0 -30 12 -40 82 -66 77 -28 145 -103 187 -204 17
-42 34 -90 38 -108 l6 -33 -61 56 c-88 80 -150 111 -232 117 -50 3 -76 0 -100
-12 -18 -9 -48 -16 -66 -16 -49 0 -88 -41 -113 -120 -24 -75 -54 -128 -77
-137 -9 -3 -60 9 -114 27 -125 42 -188 40 -256 -8 -24 -18 -47 -32 -51 -32 -3
0 -29 18 -58 40 -58 44 -120 70 -172 70 -20 0 -92 -22 -161 -50 l-125 -50 -69
65 c-70 66 -108 81 -136 53 -27 -27 -13 -63 49 -123 68 -67 154 -173 146 -181
-3 -3 -30 15 -60 39 -73 59 -166 111 -267 147 -92 34 -131 38 -177 19 -26 -11
-43 -11 -91 -1 -82 17 -132 15 -230 -9 l-86 -21 -58 65 c-94 105 -149 117
-306 67 -52 -17 -103 -28 -113 -25 -10 4 -32 -2 -48 -11 -29 -17 -31 -17 -50
0 -26 23 -64 15 -78 -17 -13 -27 -5 -44 40 -96 36 -42 100 -173 95 -196 -2
-11 -18 7 -45 48 -81 122 -284 287 -355 287 -36 0 -64 -40 -49 -68 6 -11 23
-28 38 -38 l28 -18 -105 -17 c-131 -22 -189 -23 -214 -4 -11 8 -28 15 -37 15
-10 0 -34 22 -54 50 -40 54 -72 65 -107 33 -24 -22 -23 -31 13 -83 33 -48 121
-221 116 -227 -2 -1 -24 17 -50 41 -25 25 -66 56 -91 71 -61 36 -167 74 -186
66 -56 -23 -127 -105 -179 -208 -29 -58 -71 -186 -71 -217 0 -30 -15 -16 -59
56 -61 99 -167 208 -234 241 -98 47 -139 50 -257 17 -36 -10 -55 -10 -98 1
-45 10 -64 10 -131 -5 -89 -19 -110 -14 -172 35 -116 91 -206 87 -349 -16
-134 -97 -159 -90 -304 74 -49 55 -97 103 -107 106 -36 12 -56 -12 -83 -100
-15 -47 -29 -85 -32 -85 -4 0 -65 57 -138 127 -72 69 -153 144 -181 165 -27
22 -58 50 -68 64 -32 42 -67 32 -128 -33 -54 -60 -140 -185 -179 -262 -12 -24
-25 -39 -29 -35 -4 5 -20 41 -35 79 -42 108 -89 196 -111 211 -16 11 -25 11
-45 1 -21 -11 -25 -20 -24 -56 l1 -43 -81 -39 c-45 -21 -99 -40 -120 -41 l-40
-3 -45 82 c-25 44 -62 100 -82 124 l-36 44 -49 -12 c-148 -36 -272 -62 -290
-63 -20 0 -22 7 -28 97 -7 98 -21 133 -53 133 -8 0 -31 9 -51 19 -52 26 -294
78 -436 93 l-118 12 28 23 c97 80 258 149 370 160 95 9 95 9 83 193 -16 245
-41 344 -197 780 -17 46 -29 86 -27 89 18 17 373 -322 481 -459 74 -94 237
-337 270 -401 28 -57 63 -72 94 -44 11 10 34 54 51 99 17 44 34 85 38 89 10
10 62 -89 95 -181 47 -133 55 -142 127 -142 71 0 123 -42 190 -154 53 -88 87
-94 182 -29 44 30 56 27 125 -31 39 -32 50 -36 100 -36 32 0 100 -9 152 -20
116 -24 158 -25 182 -3 22 20 23 56 2 74 -20 17 -169 47 -274 55 -59 5 -81 12
-104 31 -36 30 -92 59 -131 67 -22 5 -44 0 -80 -18 -27 -14 -53 -22 -56 -18
-4 4 -25 31 -47 60 -50 68 -108 110 -179 131 l-56 17 -27 69 c-70 181 -158
295 -229 295 -35 0 -66 -40 -80 -102 -7 -32 -16 -60 -21 -63 -5 -3 -18 12 -29
33 -28 54 -171 253 -251 347 -60 71 -68 86 -72 130 -7 76 -66 398 -94 508 -31
123 -47 172 -90 271 -19 43 -32 81 -30 84 3 2 47 -38 99 -89 88 -89 228 -267
348 -444 l54 -80 60 0 c82 0 88 11 81 175 -3 100 -11 152 -39 260 -19 74 -33
137 -31 139 15 15 178 -210 245 -338 71 -136 102 -168 145 -149 39 18 46 45
45 167 -1 63 0 113 3 111 2 -3 25 -84 49 -180 58 -226 115 -530 129 -695 12
-133 23 -165 58 -165 10 0 23 -7 30 -15 18 -21 37 -19 53 8 8 12 47 133 88
269 87 294 115 324 49 54 -23 -97 -39 -183 -36 -192 3 -9 15 -14 28 -12 21 3
27 18 58 146 34 141 35 143 59 139 14 -3 33 -1 42 4 28 14 59 74 59 110 0 19
7 44 15 56 9 12 29 71 46 130 41 141 44 146 62 103 13 -32 13 -37 -3 -52 -10
-9 -48 -108 -85 -218 -58 -175 -66 -205 -55 -225 10 -19 9 -27 -5 -48 -21 -33
-42 -111 -50 -193 -8 -72 -14 -76 -69 -43 -68 40 -123 5 -133 -84 -7 -61 1
-90 39 -132 47 -54 80 -67 156 -63 l66 3 7 -33 c13 -64 62 -91 101 -55 21 19
23 60 6 132 -11 51 -11 52 20 84 60 62 77 142 46 222 -9 22 -18 52 -21 66 -5
27 76 313 86 303 3 -3 15 -31 26 -61 22 -62 47 -79 86 -59 37 18 35 53 -11
207 -46 153 -92 274 -147 383 -95 190 -148 259 -284 373 -65 53 -139 156 -125
171 8 7 105 -14 201 -45 73 -24 87 -33 166 -108 115 -111 129 -119 183 -111
24 4 50 15 59 24 21 24 223 425 237 470 6 20 14 44 16 52 4 10 12 4 26 -20 12
-19 44 -71 72 -115z m4170 66 c16 -17 15 -23 -14 -102 -37 -101 -45 -109 -87
-97 l-32 8 34 96 c19 52 37 99 40 105 10 15 41 10 59 -10z m1232 -88 c10 -99
-3 -303 -27 -418 -12 -55 -24 -116 -26 -135 -6 -34 -118 -213 -253 -402 l-62
-87 -162 6 c-88 3 -166 9 -171 14 -7 5 -5 69 7 200 10 106 24 265 31 353 l12
161 80 19 c51 12 107 35 158 65 73 42 81 50 102 101 l23 55 64 3 c82 3 114 20
163 81 22 28 43 51 47 51 3 0 10 -30 14 -67z m-6816 -58 c193 -146 251 -211
456 -519 47 -71 90 -140 95 -153 12 -33 12 -163 -1 -163 -5 0 -26 31 -45 70
-44 87 -338 528 -395 593 -44 49 -77 60 -100 32 -25 -31 -46 -17 -64 43 -10
31 -31 83 -47 114 -31 62 -37 87 -16 71 6 -6 59 -45 117 -88z m5669 56 c13
-24 -28 -125 -53 -129 -35 -7 -37 13 -10 86 26 72 42 83 63 43z m85 -90 c34
-36 27 -51 -25 -51 -42 0 -47 8 -29 54 12 33 20 33 54 -3z m208 -167 l59 -36
-7 -107 c-8 -137 -24 -155 -24 -29 0 105 -10 128 -55 128 -32 0 -55 -35 -55
-83 0 -31 -61 -231 -75 -245 -2 -2 -14 19 -26 47 -12 28 -35 63 -52 77 l-30
25 24 99 24 99 45 6 c57 8 89 21 96 40 8 20 8 20 76 -21z m-919 7 c4 -4 -2
-34 -15 -66 -25 -65 -25 -65 -30 23 -4 59 -3 62 16 56 12 -3 25 -9 29 -13z
m429 0 c4 -4 -34 -121 -86 -261 -51 -140 -122 -333 -157 -429 -52 -142 -67
-175 -87 -182 -25 -10 -72 -12 -72 -4 0 4 298 809 322 868 10 25 14 27 42 21
17 -3 34 -9 38 -13z m-286 -431 c-85 -228 -157 -423 -161 -432 -4 -10 -15 -20
-25 -23 -28 -9 -90 5 -90 20 0 11 72 199 260 680 l58 150 54 16 c29 8 54 13
56 9 1 -3 -67 -192 -152 -420z m389 407 c3 -7 -46 -153 -109 -324 -98 -269
-122 -325 -171 -398 -31 -48 -59 -84 -62 -82 -2 3 55 166 128 363 72 198 138
380 147 407 13 38 20 47 39 47 13 0 26 -6 28 -13z m-398 -11 c2 -2 -10 -36
-26 -77 -17 -41 -78 -198 -136 -349 -58 -151 -118 -305 -132 -342 -14 -37 -31
-69 -37 -71 -17 -6 -96 13 -96 23 0 5 22 51 49 102 57 106 109 234 135 327 10
36 26 76 36 90 10 14 43 91 72 169 l53 144 39 -7 c22 -3 42 -7 43 -9z m1928
-90 c-10 -17 -43 -53 -73 -81 -46 -41 -53 -44 -37 -20 63 101 163 192 110 101z
m-5326 -10 c67 -45 152 -77 225 -85 l59 -6 31 -75 c17 -41 39 -89 48 -106 23
-41 96 -107 138 -124 19 -7 37 -15 39 -16 13 -10 -225 -371 -316 -479 -124
-148 -165 -158 -483 -124 -112 12 -130 16 -130 32 0 7 21 43 46 81 115 171
202 372 239 552 14 68 45 318 45 367 0 22 0 23 59 -17z m-1639 -113 c0 -24 -2
-43 -5 -43 -2 0 -12 26 -21 58 -9 31 -19 64 -21 72 -3 8 7 2 21 -15 19 -22 26
-41 26 -72z m4301 56 c104 -78 122 -82 251 -48 44 11 95 19 112 17 28 -3 31
-6 28 -33 -11 -102 -176 -499 -207 -497 -16 1 -34 88 -50 247 -18 169 -26 198
-62 214 -40 18 -68 -8 -116 -107 l-42 -87 -3 154 c-2 145 3 181 27 181 4 0 32
-18 62 -41z m2605 -143 c-6 -41 -15 -52 -89 -118 -184 -165 -237 -210 -237
-201 0 21 101 167 127 183 15 10 66 56 112 104 47 47 87 83 89 81 3 -2 1 -24
-2 -49z m-6797 -38 l33 -51 -27 -104 c-15 -57 -31 -100 -35 -96 -3 4 -14 42
-23 83 -13 56 -14 85 -7 115 5 22 10 55 10 73 0 17 3 32 8 32 4 0 22 -23 41
-52z m7031 -28 c-6 -11 -20 -24 -31 -31 -19 -10 -20 -9 -10 10 9 16 36 39 49
41 1 0 -2 -9 -8 -20z m-6540 -20 c8 -16 7 -26 -5 -42 -15 -22 -15 -21 -15 20
0 47 4 51 20 22z m2625 -74 c7 -53 6 -57 -30 -101 -21 -25 -40 -44 -42 -41 -2
2 3 28 11 57 8 30 20 73 26 97 6 23 15 42 20 42 5 0 12 -25 15 -54z m-2998
-62 l22 -39 -53 -165 c-29 -91 -56 -158 -59 -150 -3 8 -10 38 -16 65 -9 44 -5
67 26 193 22 88 40 141 47 139 6 -2 21 -21 33 -43z m3025 -129 c3 -46 3 -46
-104 -157 -59 -62 -110 -110 -112 -107 -14 14 49 126 119 211 44 54 83 98 87
98 4 0 8 -20 10 -45z m-2534 -14 c7 -21 12 -45 12 -52 0 -18 -91 -322 -99
-331 -3 -3 -19 4 -34 16 l-28 22 61 187 c33 103 60 189 60 192 0 3 4 5 8 5 5
0 14 -17 20 -39z m-402 -73 c-8 -13 -40 -106 -71 -208 -31 -102 -60 -191 -64
-199 -5 -8 -10 8 -14 39 -5 43 0 71 28 159 18 58 46 147 60 196 15 50 30 94
33 99 3 5 13 -7 24 -27 16 -33 17 -39 4 -59z m6684 -183 c-7 -9 -15 -13 -17
-11 -7 7 7 26 19 26 6 0 6 -6 -2 -15z m-3519 -259 c-31 -30 -49 -43 -45 -31
10 28 88 108 93 94 2 -6 -20 -34 -48 -63z m-2889 -149 c-9 -19 -11 -13 -10 33
0 53 1 54 10 22 8 -23 8 -39 0 -55z m-148 -128 c-7 -12 -45 10 -52 30 -3 9 5
8 27 -4 18 -9 29 -20 25 -26z"/>
<path d="M7059 15548 c-5 -50 5 -151 18 -192 19 -58 80 -129 137 -158 51 -26
170 -47 271 -48 44 0 120 -5 168 -10 99 -10 119 -6 115 22 -2 15 -22 27 -83
47 -150 50 -438 218 -533 310 -42 40 -91 55 -93 29z m186 -177 c56 -38 132
-85 169 -106 36 -20 66 -41 66 -47 0 -13 -116 -2 -187 18 -66 18 -110 55 -139
119 -23 48 -31 85 -18 85 3 0 52 -31 109 -69z"/>
<path d="M5186 15054 c-24 -23 -20 -49 21 -128 50 -93 157 -207 223 -235 112
-48 193 -37 269 37 40 38 51 57 60 100 14 69 14 102 -1 103 -7 1 -69 0 -138 0
-147 -2 -211 16 -334 93 -41 25 -76 46 -79 46 -3 0 -13 -7 -21 -16z m214 -153
c74 -27 99 -31 194 -31 l109 0 -7 -32 c-8 -41 -59 -94 -103 -109 -40 -13 -92
-5 -144 21 -40 21 -131 116 -155 163 -18 34 -31 36 106 -12z"/>
<path d="M4843 14652 c-62 -8 -113 -19 -113 -23 0 -22 47 -31 129 -25 47 3
127 9 178 12 50 4 103 4 117 0 25 -6 25 -7 19 -86 -6 -75 -4 -83 26 -145 37
-74 87 -121 177 -162 113 -53 257 -31 372 57 56 42 71 47 90 28 9 -9 12 -9 12
3 0 23 -53 98 -102 146 -53 51 -200 135 -284 163 -151 51 -393 63 -621 32z
m457 -104 c0 -14 -40 -58 -52 -58 -13 0 -9 24 8 48 16 23 44 30 44 10z m347
-93 c39 -23 56 -45 35 -45 -18 0 -102 32 -108 41 -7 12 4 29 18 29 6 0 31 -11
55 -25z m-313 0 c5 -14 -38 -75 -54 -75 -22 0 -19 35 7 62 30 32 38 34 47 13z
m81 -65 c17 -19 17 -21 -9 -55 -30 -39 -41 -42 -67 -19 -17 16 -17 18 13 55
17 22 34 39 38 39 4 0 15 -9 25 -20z m304 11 c22 -14 0 -54 -50 -91 -42 -30
-69 -38 -69 -21 0 12 89 121 98 121 4 0 13 -4 21 -9z m-171 -49 l23 -7 -33
-43 c-29 -38 -37 -43 -68 -40 -43 4 -44 16 -2 62 33 37 40 39 80 28z"/>
<path d="M7165 14559 c-78 -13 -192 -54 -231 -84 -19 -15 -33 -29 -31 -32 3
-2 92 19 198 47 242 63 229 60 229 71 0 11 -95 10 -165 -2z"/>
<path d="M7146 14345 c-83 -17 -187 -51 -241 -78 -42 -21 -157 -109 -150 -115
2 -2 68 21 147 51 168 64 270 90 353 91 l60 1 -3 -62 c-9 -155 90 -273 266
-318 145 -37 315 45 409 197 l37 60 41 -7 c29 -4 45 -2 53 8 9 11 -23 25 -171
74 -243 82 -359 104 -567 109 -116 2 -185 -1 -234 -11z m294 -107 c0 -14 -40
-58 -52 -58 -13 0 -9 24 8 48 16 23 44 30 44 10z m358 -38 c12 0 31 -9 42 -20
15 -15 27 -18 52 -13 l33 6 -19 -29 c-11 -16 -30 -46 -44 -67 -25 -38 -84 -81
-102 -75 -6 2 10 33 34 69 l45 67 -60 11 c-46 9 -59 16 -59 30 0 25 11 33 35
27 11 -3 30 -6 43 -6z m-318 -59 c0 -10 -9 -30 -21 -45 -17 -21 -24 -24 -35
-15 -19 16 -18 23 12 58 27 32 44 33 44 2z m93 -52 c8 -12 5 -26 -12 -53 -25
-39 -37 -43 -66 -22 -19 13 -18 15 10 55 29 43 50 49 68 20z m147 -26 c0 -3
-11 -26 -25 -50 -24 -39 -29 -43 -65 -43 -22 0 -40 4 -40 8 0 4 14 27 31 50
26 35 36 42 65 42 19 0 34 -3 34 -7z"/>
<path d="M5010 14142 c0 -17 24 -30 105 -56 87 -28 193 -34 242 -15 l28 12
-25 7 c-14 4 -64 10 -112 14 -77 6 -119 14 -215 42 -13 3 -23 2 -23 -4z"/>
<path d="M5500 13885 c-102 -29 -201 -103 -260 -195 l-31 -48 -64 6 c-56 4
-72 1 -121 -23 -126 -62 -244 -291 -274 -531 -13 -105 0 -175 65 -340 32 -82
44 -126 40 -143 -11 -42 -7 -272 5 -326 16 -73 62 -162 120 -232 90 -109 209
-166 385 -188 93 -11 127 -20 225 -63 235 -101 377 -134 486 -112 136 28 308
139 358 232 12 23 52 56 120 100 55 37 113 79 128 95 32 34 40 81 16 96 -14 9
-24 3 -60 -34 -24 -26 -86 -75 -138 -109 -52 -35 -116 -85 -141 -111 -62 -64
-141 -113 -236 -146 -67 -24 -94 -28 -188 -28 l-110 0 -155 62 c-151 61 -187
71 -320 92 -133 21 -282 122 -361 244 -50 78 -61 134 -49 252 17 165 15 219
-9 253 -34 48 -79 162 -92 235 -16 87 1 228 42 351 33 99 56 141 108 199 46
51 76 65 168 78 l78 10 80 83 c92 95 132 115 300 148 55 10 110 21 123 24 26
5 28 24 5 53 -15 18 -31 22 -103 26 -59 4 -102 0 -140 -10z"/>
<path d="M7265 13815 c38 -30 118 -47 248 -52 88 -4 136 -2 157 7 46 19 25 33
-39 25 -33 -4 -103 0 -171 9 -226 30 -218 29 -195 11z"/>
<path d="M5452 13284 c-39 -27 -27 -72 55 -202 19 -31 48 -71 64 -87 l29 -31
-11 -87 c-9 -63 -9 -110 -1 -170 6 -47 7 -99 3 -119 -11 -46 -61 -119 -124
-179 -33 -32 -48 -53 -44 -63 11 -28 33 -17 138 69 63 52 112 85 126 85 26 0
194 -47 302 -84 104 -36 181 -34 181 4 0 25 -18 36 -71 43 -72 10 -277 87
-323 121 -22 18 -58 56 -78 86 l-38 53 0 114 0 113 28 12 c121 49 173 80 235
139 74 71 84 100 44 137 -34 32 -77 29 -113 -9 -40 -42 -115 -96 -158 -114
l-36 -15 -57 87 c-31 49 -63 94 -71 101 -21 16 -53 15 -80 -4z"/>
<path d="M7985 11895 c-22 -14 -77 -37 -123 -51 -73 -24 -92 -26 -175 -20 -50
3 -144 8 -207 12 l-115 6 -94 -71 c-152 -115 -227 -141 -401 -141 -140 0 -200
12 -347 71 -68 27 -131 49 -141 49 -25 0 -59 -38 -67 -75 -4 -16 -84 -180
-177 -363 -93 -183 -168 -340 -166 -349 5 -25 35 -40 55 -27 9 6 88 150 174
320 87 170 163 310 168 312 17 6 81 -18 81 -30 0 -6 -52 -109 -116 -229 -122
-232 -130 -259 -74 -259 26 0 35 13 150 230 66 127 124 230 128 230 12 0 82
-21 82 -24 0 -2 -18 -42 -41 -90 -45 -98 -47 -129 -8 -134 14 -2 30 3 36 10
15 21 74 160 76 179 1 17 14 18 137 18 85 0 162 5 210 15 97 20 216 79 316
157 l79 61 105 -8 c58 -5 150 -9 205 -9 114 1 196 23 302 82 88 48 104 83 58
128 -31 32 -60 31 -110 0z"/>
<path d="M6123 11638 c-32 -40 -534 -980 -531 -994 5 -25 35 -41 54 -29 26 16
546 983 542 1008 -4 26 -49 36 -65 15z"/>
<path d="M5704 11283 c-114 -192 -250 -420 -303 -508 -52 -88 -95 -171 -96
-184 0 -27 25 -47 48 -38 9 3 141 217 295 474 358 599 340 567 323 587 -7 9
-24 16 -37 16 -20 0 -52 -49 -230 -347z"/>
<path d="M6478 11163 c-41 -47 -61 -124 -37 -138 26 -17 56 6 84 64 23 50 26
63 15 76 -17 20 -43 19 -62 -2z"/>
<path d="M5898 10853 c-30 -34 -68 -103 -68 -122 0 -25 25 -44 47 -37 28 9 98
136 86 155 -14 23 -47 25 -65 4z"/>
<path d="M6227 10103 c-3 -5 -10 -56 -17 -113 -6 -58 -19 -170 -30 -250 -28
-201 -40 -371 -29 -391 21 -40 161 -52 260 -23 64 19 173 73 245 120 28 19 56
34 62 34 5 0 23 -32 38 -71 30 -75 47 -93 104 -103 91 -16 290 85 290 146 0
28 -32 22 -76 -13 -83 -67 -196 -99 -236 -66 -8 6 -27 44 -42 82 -31 79 -42
95 -64 95 -8 0 -57 -27 -108 -60 -152 -98 -293 -144 -390 -126 l-37 7 6 94 c4
51 18 178 32 282 32 243 36 356 13 361 -9 2 -18 -1 -21 -5z"/>
<path d="M12245 9734 c-22 -8 -83 -28 -135 -43 -78 -22 -95 -31 -95 -47 0 -25
33 -23 146 10 46 13 86 23 87 21 6 -6 -56 -124 -84 -160 -32 -42 -30 -61 6
-80 48 -25 50 -60 9 -163 -12 -28 -12 -34 1 -42 33 -21 80 63 80 144 0 43 -5
60 -24 83 l-24 29 30 49 c17 27 42 80 56 117 20 55 22 70 12 83 -15 18 -14 18
-65 -1z"/>
<path d="M9569 8063 c-110 -159 -188 -202 -388 -212 l-125 -6 -65 -98 c-172
-254 -345 -396 -497 -405 -54 -4 -70 -1 -106 21 -55 32 -69 48 -115 132 -21
38 -44 70 -50 73 -44 14 -5 -110 57 -181 113 -128 259 -133 435 -16 96 64 224
201 305 327 l65 101 102 0 c162 1 274 48 364 150 63 71 94 128 79 146 -19 23
-26 19 -61 -32z"/>
<path d="M5670 7875 c0 -3 -16 -78 -35 -168 -91 -426 -146 -786 -124 -813 17
-20 105 -18 180 6 79 24 135 59 217 135 51 47 65 56 73 44 5 -8 26 -44 46 -82
98 -183 222 -191 538 -32 80 40 121 66 123 79 8 39 -22 34 -122 -19 -137 -72
-262 -115 -337 -115 -53 0 -63 3 -94 33 -19 17 -57 72 -83 121 -26 49 -55 94
-64 100 -14 8 -32 -5 -106 -76 -99 -95 -186 -145 -273 -155 l-52 -6 8 69 c11
105 60 393 109 644 25 123 42 228 40 232 -6 9 -44 11 -44 3z"/>
<path d="M3906 5971 c-19 -21 -18 -52 1 -58 6 -2 19 9 27 25 13 25 13 32 2 41
-10 8 -17 6 -30 -8z"/>
<path d="M11215 5920 c-4 -6 -13 -68 -20 -138 -27 -245 -37 -308 -61 -384 -27
-86 -75 -163 -123 -195 -30 -20 -35 -21 -79 -7 -26 7 -61 14 -78 14 -28 0 -33
-5 -64 -76 -87 -199 -208 -324 -313 -324 -37 0 -83 42 -156 143 -42 58 -64 68
-69 31 -3 -25 104 -172 147 -201 43 -29 119 -30 178 -4 87 40 189 162 253 305
32 71 41 75 99 55 106 -37 225 91 276 296 25 102 65 467 52 483 -12 15 -33 16
-42 2z"/>
<path d="M3900 5759 c-21 -40 -21 -69 0 -69 15 0 50 61 50 88 0 36 -28 26 -50
-19z"/>
<path d="M3963 5628 c-23 -31 -63 -108 -63 -122 0 -9 8 -16 18 -16 18 0 82
105 82 134 0 19 -24 21 -37 4z"/>
<path d="M9814 5225 c-14 -43 -15 -58 -6 -67 17 -17 30 -1 46 53 14 48 12 69
-9 69 -8 0 -21 -24 -31 -55z"/>
<path d="M9683 5138 c-6 -7 -18 -37 -28 -66 -13 -40 -14 -57 -6 -65 8 -8 15
-7 25 3 18 20 49 117 41 130 -8 14 -20 13 -32 -2z"/>
<path d="M8455 2365 c-94 -49 -95 -170 -3 -250 22 -18 69 -46 104 -62 41 -17
64 -33 64 -44 0 -20 31 -49 53 -49 9 0 22 -9 30 -21 28 -39 125 -45 203 -13
47 20 94 78 94 118 0 70 -85 146 -165 146 -23 0 -58 -9 -78 -19 l-38 -19 -25
56 c-33 75 -68 118 -112 141 -57 29 -93 33 -127 16z m94 -139 c29 -31 25 -52
-6 -31 -13 9 -28 25 -33 36 -16 28 11 25 39 -5z m310 -155 c29 -18 4 -41 -45
-41 l-47 0 23 25 c24 26 45 31 69 16z"/>
<path d="M9499 2249 c-16 -16 -20 -28 -15 -52 4 -21 1 -36 -10 -48 -8 -9 -22
-50 -31 -91 -33 -161 -128 -382 -202 -472 -23 -26 -41 -54 -41 -62 0 -21 37
-54 61 -54 39 0 147 145 201 269 l27 66 0 -55 c0 -34 -9 -82 -25 -125 -38
-106 -40 -120 -13 -139 35 -24 55 -20 86 19 21 27 36 35 59 35 17 0 37 7 44
15 9 11 17 12 30 5 33 -18 57 -11 88 24 65 75 109 209 98 302 -8 72 -20 100
-51 120 -25 16 -27 16 -52 -2 -18 -14 -31 -39 -43 -81 -16 -61 -66 -170 -82
-179 -4 -3 -8 32 -8 78 0 127 -19 374 -31 405 -18 48 -55 57 -90 22z"/>
<path d="M7082 2060 c-38 -23 -64 -63 -94 -142 -11 -32 -22 -58 -23 -58 -2 0
-18 14 -36 32 -90 83 -142 105 -185 74 -31 -23 -23 -101 19 -190 41 -87 81
-120 145 -121 48 -1 62 -14 62 -57 0 -32 31 -68 58 -68 34 0 55 25 54 63 -1
33 2 37 33 46 82 22 125 82 125 173 0 70 -23 176 -49 227 -25 48 -55 54 -109
21z m38 -240 c0 -39 -4 -52 -19 -60 -30 -15 -33 -13 -26 23 21 103 45 123 45
37z"/>
<path d="M10855 14978 c-80 -30 -174 -113 -258 -227 -54 -73 -63 -125 -27
-161 38 -38 63 -27 126 58 112 148 188 209 246 197 42 -10 114 -84 127 -131
37 -132 -19 -300 -158 -482 -32 -42 -116 -142 -186 -222 -217 -246 -360 -431
-391 -506 -14 -32 -13 -38 1 -60 42 -65 96 -47 163 56 58 90 143 196 312 390
299 342 369 454 407 649 14 71 15 94 5 154 -21 119 -90 215 -192 267 -50 26
-133 34 -175 18z"/>
<path d="M10260 13250 c-27 -27 -25 -56 6 -86 56 -57 143 17 93 79 -25 33 -70
36 -99 7z"/>
</g>
</svg>
