<?xml version="1.0" standalone="no"?>
<!DOCTYPE svg PUBLIC "-//W3C//DTD SVG 20010904//EN"
 "http://www.w3.org/TR/2001/REC-SVG-20010904/DTD/svg10.dtd">
<svg version="1.0" xmlns="http://www.w3.org/2000/svg"
 width="1800.000000pt" height="1500.000000pt" viewBox="0 0 1800.000000 1500.000000"
 preserveAspectRatio="xMidYMid meet">

<g transform="translate(0.000000,1500.000000) scale(0.100000,-0.100000)"
fill="#000000" stroke="none">
<path d="M12050 13756 c-110 -46 -132 -64 -114 -93 18 -29 40 -27 137 12 139
55 158 72 121 109 -21 22 -25 21 -144 -28z"/>
<path d="M12342 13768 c-33 -33 -6 -54 110 -84 132 -34 168 -30 168 18 0 24
-23 34 -129 58 -105 23 -132 25 -149 8z"/>
<path d="M12710 13595 c-19 -23 -3 -50 54 -94 59 -46 90 -51 107 -20 10 19 5
27 -47 75 -59 55 -91 66 -114 39z"/>
<path d="M15079 13455 c-15 -8 -30 -22 -33 -32 -4 -9 1 -76 10 -147 15 -109
21 -134 40 -153 29 -29 63 -29 98 -2 33 26 34 59 6 201 -16 84 -24 107 -45
126 -30 26 -40 26 -76 7z"/>
<path d="M12905 13414 c-8 -9 -14 -24 -11 -33 30 -110 69 -221 80 -231 19 -15
53 -5 60 18 7 22 -59 243 -76 253 -20 13 -35 11 -53 -7z"/>
<path d="M15370 13149 c-108 -27 -141 -79 -85 -134 28 -29 32 -30 127 -10 54
11 79 22 96 41 35 40 26 85 -25 112 -26 14 -20 15 -113 -9z"/>
<path d="M14895 13113 c-73 -11 -94 -19 -112 -39 -29 -31 -29 -54 -1 -89 l22
-28 96 6 c109 7 143 18 159 54 16 35 14 49 -11 77 -31 33 -49 36 -153 19z"/>
<path d="M13160 13061 c-19 -36 15 -57 118 -76 51 -9 101 -13 111 -10 35 11
37 57 3 70 -23 9 -171 35 -199 35 -12 0 -27 -9 -33 -19z"/>
<path d="M12868 13003 c-128 -67 -152 -89 -128 -118 20 -24 46 -18 158 42 116
61 142 79 142 99 0 13 -27 44 -38 44 -4 0 -64 -30 -134 -67z"/>
<path d="M14178 13011 c-25 -20 -25 -22 -32 -228 -10 -309 -34 -409 -124 -509
-121 -136 -295 -210 -469 -201 -77 3 -97 1 -122 -14 -60 -36 -47 -132 20 -151
136 -38 266 -85 315 -115 205 -123 334 -299 394 -538 29 -115 60 -337 60 -433
0 -43 5 -58 25 -77 33 -34 77 -33 114 3 27 25 32 43 76 272 50 260 74 337 131
431 102 169 175 223 351 264 100 24 122 32 150 60 41 41 50 78 30 120 -17 36
-60 55 -122 55 -90 0 -260 71 -338 140 -71 63 -143 162 -192 266 -66 136 -104
283 -144 559 -8 55 -16 75 -36 93 -32 27 -55 28 -87 3z m118 -743 c87 -182
254 -360 392 -417 l31 -13 -77 -51 c-112 -76 -228 -232 -294 -395 l-25 -63
-32 90 c-65 183 -208 367 -368 475 l-73 49 63 35 c150 83 260 188 315 300 15
28 29 52 32 52 4 0 20 -28 36 -62z"/>
<path d="M15130 12983 c-19 -24 -21 -36 -15 -88 15 -144 36 -260 50 -282 31
-46 105 -42 130 7 14 27 13 40 -10 165 -14 75 -25 144 -25 154 0 10 -9 30 -21
45 -29 37 -80 36 -109 -1z"/>
<path d="M13488 12949 c-27 -15 -22 -37 27 -124 58 -101 79 -124 103 -109 31
20 24 56 -28 144 -61 101 -69 109 -102 89z"/>
<path d="M12951 12866 c-11 -13 -8 -36 14 -128 15 -62 32 -119 38 -126 5 -7
22 -12 36 -10 36 4 37 38 3 168 -25 97 -29 105 -53 108 -14 2 -31 -4 -38 -12z"/>
<path d="M12582 12758 c-76 -114 -103 -164 -96 -181 7 -19 39 -31 55 -21 19
11 149 215 149 233 0 9 -5 22 -12 29 -25 25 -48 11 -96 -60z"/>
<path d="M13523 12618 c-82 -113 -95 -136 -88 -157 7 -22 38 -36 56 -25 13 8
129 183 129 194 0 14 -30 40 -45 40 -8 0 -31 -24 -52 -52z"/>
<path d="M13132 12518 c-18 -18 -15 -46 7 -57 25 -14 196 -34 221 -26 14 4 20
15 20 35 0 32 -4 34 -100 50 -86 13 -133 13 -148 -2z"/>
<path d="M3422 12428 c-21 -21 -13 -53 22 -91 38 -41 47 -44 70 -21 24 23 20
40 -20 84 -38 42 -52 48 -72 28z"/>
<path d="M12470 12425 c-11 -13 -7 -36 24 -143 41 -138 49 -154 79 -150 48 7
46 45 -15 233 -20 61 -26 70 -49 73 -14 2 -31 -4 -39 -13z"/>
<path d="M4097 12358 c-28 -22 -47 -69 -36 -90 17 -32 56 -22 85 22 26 39 26
41 9 60 -21 23 -35 25 -58 8z"/>
<path d="M6745 12356 c-404 -77 -742 -380 -858 -766 -38 -124 -47 -190 -47
-326 0 -190 39 -350 123 -509 l35 -66 -55 -40 c-112 -83 -292 -239 -402 -350
-450 -452 -726 -976 -816 -1549 -24 -155 -30 -477 -12 -625 8 -66 14 -122 12
-124 -2 -2 -53 -5 -112 -8 -222 -8 -343 -32 -459 -88 -124 -60 -216 -185 -259
-350 -38 -145 -42 -375 -10 -560 50 -286 229 -599 524 -915 38 -41 67 -78 63
-82 -4 -3 -108 -34 -232 -67 -124 -33 -252 -69 -285 -80 -33 -11 -63 -21 -67
-21 -3 0 -9 19 -13 43 -36 218 -171 439 -306 502 -118 55 -172 27 -266 -134
-178 -308 -313 -443 -428 -428 -78 11 -112 80 -160 330 -46 243 -100 374 -183
447 -135 119 -252 34 -339 -246 -26 -85 -27 -99 -27 -294 0 -185 2 -217 26
-330 62 -289 96 -376 328 -845 130 -260 181 -374 186 -410 10 -80 49 -179 114
-294 124 -218 200 -292 455 -446 72 -43 161 -105 199 -139 61 -53 74 -61 110
-60 50 0 591 152 851 239 201 67 365 133 715 288 302 133 569 252 675 299 163
74 461 263 797 505 86 62 158 113 161 113 17 0 -76 -273 -158 -465 -170 -397
-229 -513 -435 -860 -59 -99 -145 -246 -190 -327 -85 -151 -141 -231 -267
-379 -126 -150 -190 -242 -199 -287 -10 -47 19 -68 161 -116 72 -25 182 -62
245 -85 386 -134 947 -262 1475 -336 174 -24 622 -45 960 -45 490 0 814 36
1126 125 262 74 361 86 574 65 509 -50 1111 61 1880 345 108 40 169 61 371
124 85 27 201 77 335 142 112 55 256 121 319 146 129 51 470 219 690 340 80
44 168 87 196 97 137 45 238 134 360 318 96 143 113 160 279 268 156 102 264
201 299 276 23 49 26 65 20 108 -3 28 -13 69 -21 91 -8 22 -17 76 -20 120 l-5
80 67 99 c87 129 136 229 174 351 40 131 94 364 127 550 14 83 34 197 45 255
35 198 23 285 -50 361 -109 113 -209 63 -362 -180 -80 -126 -186 -246 -237
-268 -28 -12 -36 -11 -62 2 -37 19 -48 39 -71 137 -27 111 -52 153 -111 184
-25 13 -32 13 -60 -2 -70 -35 -131 -93 -230 -213 -146 -178 -200 -234 -308
-315 -52 -40 -100 -76 -107 -80 -7 -3 -54 11 -105 33 -139 59 -336 136 -398
156 -30 10 -59 21 -63 25 -5 4 16 22 45 40 537 337 805 637 928 1038 43 141
53 212 52 352 0 93 -6 145 -21 205 -70 265 -251 458 -491 522 -91 25 -302 22
-425 -5 -49 -11 -90 -20 -91 -19 0 1 6 36 14 78 l14 76 76 7 c106 8 165 -3
402 -80 244 -78 316 -114 588 -293 112 -73 229 -146 260 -162 154 -76 336 -80
479 -8 89 45 169 122 245 236 87 130 121 199 151 313 22 82 25 118 26 271 3
250 -26 371 -120 516 -23 35 -40 65 -38 66 2 2 27 17 54 35 71 44 190 169 214
222 42 97 50 234 17 298 -36 68 -137 141 -197 142 -24 0 -27 4 -31 48 -11 102
-81 234 -149 279 -33 22 -47 25 -98 21 -68 -5 -92 -21 -123 -81 -30 -59 -57
-178 -60 -266 -3 -73 -5 -81 -26 -91 -20 -9 -34 -4 -90 30 -98 58 -187 91
-244 92 -69 0 -133 -40 -173 -110 -17 -28 -36 -49 -42 -47 -38 13 -196 26
-250 21 -35 -4 -154 -29 -265 -56 -144 -35 -213 -48 -239 -44 -31 5 -40 3 -51
-16 -15 -25 -137 -89 -220 -115 -31 -9 -94 -39 -139 -65 l-83 -47 -40 101
c-85 218 -242 488 -393 680 -119 150 -114 135 -62 191 159 169 266 419 287
668 44 539 -272 1026 -759 1167 -106 31 -316 39 -430 15 -186 -37 -340 -119
-484 -257 -138 -131 -231 -278 -289 -455 -15 -46 -29 -83 -31 -83 -2 0 -39 13
-82 29 -156 57 -431 134 -633 176 -368 76 -617 104 -1015 112 -312 6 -533 -4
-793 -37 -84 -11 -154 -20 -156 -20 -2 0 -16 39 -31 87 -114 365 -403 644
-776 749 -80 23 -118 27 -259 30 -110 2 -188 -1 -235 -10z m468 -190 c210 -63
397 -197 515 -369 63 -90 145 -285 139 -327 -1 -8 9 -46 22 -83 l23 -69 82 5
c44 3 146 14 226 26 229 32 484 44 790 38 494 -11 915 -76 1370 -212 227 -68
320 -104 320 -124 0 -13 17 -21 72 -34 39 -10 75 -14 79 -10 4 4 17 55 28 113
29 139 45 188 97 290 116 227 317 392 548 450 108 27 265 27 372 0 300 -77
535 -320 626 -647 19 -67 22 -104 22 -258 0 -154 -3 -191 -22 -258 -39 -140
-120 -292 -216 -401 -30 -35 -36 -38 -50 -27 -9 8 -18 12 -19 10 -12 -16 -47
-126 -47 -147 0 -33 28 -80 77 -129 52 -52 174 -216 251 -338 80 -126 188
-347 240 -490 64 -177 71 -153 -71 -218 -474 -214 -853 -353 -1062 -388 -196
-33 -698 39 -991 142 -78 28 -538 241 -556 258 -5 4 72 55 170 114 l177 106
130 -2 c120 -1 135 1 199 26 88 35 205 112 217 144 10 28 -4 63 -26 63 -8 0
-39 -31 -70 -69 -62 -77 -113 -106 -222 -124 -134 -23 -294 35 -439 160 -249
214 -308 258 -474 346 -265 141 -500 194 -745 168 -155 -17 -184 -25 -332 -96
-121 -58 -240 -133 -398 -250 -89 -66 -192 -123 -264 -145 -135 -43 -319 -48
-487 -14 -132 26 -171 42 -230 94 -58 51 -99 64 -111 34 -13 -33 14 -59 93
-91 123 -49 246 -79 384 -93 200 -20 375 -99 694 -313 288 -193 633 -269 1031
-227 l90 9 65 -38 c36 -22 144 -96 240 -166 416 -302 758 -457 1215 -549 189
-38 327 -49 519 -43 238 8 422 42 741 137 274 82 442 119 598 133 l47 5 0 -42
c0 -64 -18 -199 -44 -326 -124 -601 -519 -1187 -1095 -1624 -62 -47 -117 -83
-122 -80 -5 3 -9 38 -9 77 -1 159 -78 451 -172 648 -287 602 -873 1067 -1625
1290 -311 92 -590 131 -948 131 -273 0 -466 -19 -693 -68 -783 -168 -1423
-588 -1777 -1168 -153 -251 -252 -552 -271 -823 l-7 -92 -31 22 c-208 147
-508 430 -655 615 -368 466 -552 941 -568 1469 -9 288 26 533 117 804 128 383
349 734 662 1049 101 102 176 169 408 362 36 30 70 65 77 79 17 36 -7 167 -51
276 -63 159 -71 200 -71 383 1 178 10 227 70 370 95 228 322 436 561 514 116
38 176 46 329 42 127 -3 164 -8 238 -30z m7812 -2259 c43 -45 82 -131 92 -204
l6 -43 -59 0 c-33 0 -95 -9 -139 -21 -44 -11 -90 -23 -102 -26 -27 -6 -27 -1
-13 97 13 91 45 191 70 218 15 16 32 22 62 22 36 0 47 -6 83 -43z m-5255 -245
c0 -8 -1 -13 -3 -11 -1 2 -9 12 -16 22 -12 15 -12 17 3 11 9 -3 16 -13 16 -22z
m-1333 -105 c-14 -39 -40 -138 -58 -219 -18 -81 -39 -150 -46 -152 -6 -3 -10
0 -8 7 2 7 25 104 50 217 26 114 54 213 63 223 26 30 26 3 -1 -76z m1387 22
c-7 -48 -8 -51 -15 -26 -9 35 0 102 13 89 5 -5 6 -33 2 -63z m4655 31 c28 -11
76 -34 107 -51 l56 -32 -23 -18 c-13 -10 -47 -30 -74 -44 l-51 -26 -46 20
c-26 11 -80 30 -120 41 -40 12 -75 24 -77 25 -7 8 44 68 73 86 40 24 92 24
155 -1z m-4585 -9 c6 -8 -32 -232 -40 -240 -2 -3 -8 0 -13 5 -8 8 12 192 24
232 5 14 21 16 29 3z m-1529 -68 c-8 -32 -26 -107 -40 -168 -33 -142 -65 -239
-75 -228 -9 9 96 420 112 441 17 20 17 15 3 -45z m1601 -6 c-3 -12 -13 -59
-22 -104 -9 -46 -20 -83 -25 -83 -19 0 -20 29 -4 126 17 97 19 102 37 93 14
-8 18 -17 14 -32z m-1712 -183 c-25 -99 -47 -180 -48 -181 -1 -2 -10 3 -19 10
-16 11 -13 25 28 172 27 98 51 165 62 172 9 7 18 11 20 9 2 -2 -17 -84 -43
-182z m1773 155 c7 -7 5 -35 -7 -95 -10 -47 -20 -87 -22 -90 -10 -9 -39 9 -34
21 2 7 12 49 22 94 18 82 22 89 41 70z m-1854 -159 c-19 -69 -37 -127 -39
-129 -2 -3 -9 0 -14 5 -18 18 35 215 62 236 13 9 24 16 25 15 1 -1 -14 -58
-34 -127z m1921 101 c5 -8 -5 -82 -20 -150 -5 -22 -7 -23 -21 -9 -13 13 -13
24 -3 74 6 33 14 67 16 77 6 18 19 23 28 8z m-604 -22 c77 -12 348 -90 440
-126 36 -14 118 -60 184 -101 l118 -75 -38 -24 c-22 -13 -70 -40 -108 -59
l-69 -36 -126 48 c-161 62 -215 71 -349 62 -160 -12 -241 -39 -473 -154 l-207
-103 -93 24 c-150 38 -251 83 -388 172 l-84 55 29 24 c101 86 301 197 374 209
25 4 88 20 140 35 153 46 195 51 277 34 17 -3 90 -87 121 -139 4 -7 17 -16 30
-19 35 -11 27 14 -28 87 l-50 66 43 15 c74 27 112 27 257 5z m-1380 -19 c0
-18 -32 -145 -39 -152 -3 -4 -12 -3 -19 1 -18 11 3 130 26 149 19 15 32 16 32
2z m2043 -8 c3 -4 1 -32 -4 -62 -16 -92 -19 -104 -30 -93 -6 6 -5 37 2 86 10
70 20 90 32 69z m-1723 -83 c-7 -33 -17 -62 -21 -65 -11 -7 -11 12 0 56 5 19
12 49 16 65 13 55 18 4 5 -56z m-414 39 c-3 -13 -6 -30 -6 -38 -1 -9 -5 -6
-10 8 -10 24 -4 52 12 52 6 0 8 -10 4 -22z m489 -15 c-4 -10 -8 -24 -9 -32 -1
-7 -10 -18 -20 -23 -14 -8 -16 -6 -11 19 11 48 14 53 31 53 11 0 14 -5 9 -17z
m1710 -47 c-11 -92 -13 -98 -35 -86 -15 8 -17 15 -11 33 5 12 11 43 15 69 5
36 11 46 22 41 11 -4 13 -17 9 -57z m3962 53 c47 -8 74 -20 103 -44 22 -18 64
-43 95 -56 30 -12 55 -29 55 -36 0 -56 123 -209 211 -261 55 -33 146 -53 224
-50 l70 3 42 -75 c135 -238 147 -526 33 -793 -77 -178 -145 -258 -266 -314
-48 -22 -73 -27 -134 -27 -106 0 -161 27 -490 243 -182 120 -310 178 -605 276
-227 75 -276 88 -390 102 -257 30 -450 8 -790 -93 -437 -129 -632 -164 -905
-164 -228 0 -417 28 -661 95 -364 102 -635 238 -994 500 -88 64 -180 129 -205
143 -25 14 -47 29 -50 32 -8 10 -161 67 -212 80 -39 10 -60 9 -123 -5 -41 -9
-75 -17 -75 -18 0 -1 39 -2 87 -2 99 0 207 -24 163 -36 -35 -10 -369 -9 -400
1 -17 5 -19 8 -7 9 9 1 17 5 17 11 0 22 399 198 421 185 10 -7 115 -35 129
-35 23 0 7 29 -22 41 -32 12 -32 13 42 20 91 8 191 -4 262 -32 29 -12 82 -31
118 -44 36 -12 180 -79 320 -148 140 -69 296 -141 345 -160 301 -116 835 -193
1064 -153 228 40 747 240 1259 485 224 108 399 184 510 222 43 15 57 16 73 6
16 -10 23 -8 44 15 24 26 116 53 265 77 80 13 303 13 377 0z m-3908 -87 c-1
-26 1 -54 5 -60 9 -15 -14 -46 -25 -35 -11 11 1 143 13 143 5 0 8 -22 7 -48z
m-973 -986 c525 -69 1015 -258 1391 -537 522 -386 829 -908 860 -1460 l6 -116
-71 -46 c-140 -90 -492 -277 -569 -301 -20 -6 -23 -4 -23 19 0 35 -50 85 -85
85 -41 0 -85 -50 -85 -97 0 -21 -5 -65 -11 -98 -30 -177 10 -850 56 -921 9
-14 48 -34 108 -55 l94 -33 -42 -27 c-66 -42 -87 -79 -88 -152 0 -50 6 -74 31
-124 36 -70 38 -85 18 -102 -11 -10 -28 -5 -77 20 -34 17 -79 42 -98 55 -54
35 -109 40 -164 16 -62 -27 -87 -77 -102 -202 l-11 -95 -21 40 c-11 22 -28 64
-38 93 -18 57 -105 161 -156 188 -53 27 -109 18 -180 -27 -35 -23 -79 -55 -97
-70 -18 -16 -44 -29 -59 -29 -24 0 -25 2 -20 40 3 21 25 72 49 112 24 40 54
101 67 136 l22 63 -21 142 c-27 179 -51 290 -91 414 -18 54 -32 105 -33 113
-3 38 -43 124 -64 138 -21 13 -36 14 -115 3 -369 -50 -696 -67 -1014 -51 -125
6 -266 15 -313 20 -191 22 -255 24 -271 8 -22 -22 -143 -391 -173 -528 -14
-63 -33 -163 -41 -222 -14 -95 -15 -117 -2 -191 16 -89 35 -137 92 -227 19
-30 35 -58 35 -62 0 -13 -34 8 -85 52 -81 70 -164 77 -230 19 -39 -35 -55 -79
-55 -159 0 -84 -12 -90 -50 -28 -18 29 -44 70 -57 91 -13 20 -42 51 -66 68
-38 28 -48 30 -99 27 -50 -4 -64 -10 -125 -56 -37 -29 -81 -71 -97 -92 -17
-22 -36 -40 -43 -40 -19 0 -16 58 7 125 48 140 18 182 -178 250 -24 9 -1 27
82 65 114 53 146 92 146 177 0 113 -79 488 -160 753 -15 52 -41 145 -56 205
-49 200 -93 258 -167 223 -31 -15 -35 -14 -118 28 -110 55 -262 142 -362 207
l-79 51 7 100 c18 284 107 565 257 814 220 367 599 701 1027 904 357 170 675
255 1136 302 94 9 556 -3 671 -18z m-4496 -566 c162 -550 514 -1055 1030
-1476 47 -38 127 -98 178 -134 73 -51 92 -70 92 -89 0 -36 45 -88 105 -122 29
-16 55 -39 58 -49 5 -18 0 -20 -47 -20 -130 0 -226 -66 -226 -155 0 -68 24
-113 92 -177 34 -32 56 -58 51 -58 -6 0 -50 11 -97 25 -190 55 -270 19 -321
-145 -9 -30 -19 -62 -21 -70 -8 -23 -29 20 -64 132 -33 102 -68 161 -118 197
-29 21 -110 56 -242 107 -36 14 -72 31 -80 38 -8 7 -55 34 -105 61 -422 224
-856 704 -991 1099 -43 126 -58 228 -57 401 1 451 132 560 672 560 l55 0 36
-125z m8660 110 c279 -44 461 -338 419 -680 -55 -455 -369 -835 -979 -1185
-292 -167 -584 -304 -980 -457 -113 -44 -210 -84 -217 -90 -11 -9 -65 -169
-92 -273 -6 -22 -11 -84 -11 -137 0 -54 -4 -98 -9 -98 -19 0 -50 52 -60 101
-20 90 -62 129 -143 129 -35 0 -50 -6 -82 -36 -21 -19 -41 -33 -43 -30 -3 3 5
50 17 106 22 95 22 103 7 135 -9 19 -28 42 -43 51 -23 16 -34 16 -95 6 -118
-20 -118 -20 -55 48 72 78 83 116 60 203 -25 91 -14 112 84 167 42 24 104 62
137 85 33 24 98 62 145 85 206 104 526 359 761 605 300 314 520 671 654 1059
l52 151 69 18 c167 43 290 54 404 37z m-10999 -1256 c38 -19 102 -117 128
-197 11 -34 37 -140 56 -235 41 -198 65 -270 108 -318 41 -48 77 -64 140 -64
141 0 286 140 461 445 66 114 91 145 120 145 37 0 103 -40 153 -93 59 -62 93
-119 128 -211 25 -66 61 -214 53 -221 -10 -9 -355 -116 -418 -129 -41 -9 -145
-23 -230 -31 -85 -8 -171 -19 -191 -25 -76 -21 -156 -76 -251 -169 -139 -139
-142 -155 -69 -482 39 -173 55 -269 46 -269 -10 0 -274 540 -319 651 -49 124
-94 285 -122 439 -27 143 -25 409 4 512 42 152 111 268 159 268 8 0 28 -7 44
-16z m12617 -260 c63 -44 71 -148 29 -379 -15 -77 -36 -194 -47 -260 -28 -159
-103 -459 -139 -550 -28 -73 -114 -230 -132 -241 -5 -3 -9 16 -9 43 -1 68 -29
124 -89 171 -69 55 -315 174 -549 266 -221 87 -472 198 -472 208 0 4 35 34 78
66 91 70 183 163 282 287 140 174 226 249 256 224 21 -18 38 -61 59 -154 15
-69 23 -86 59 -122 114 -114 241 -40 431 251 125 191 180 234 243 190z
m-10399 -462 c135 -113 342 -236 472 -281 82 -28 209 -80 259 -106 24 -13 67
-71 58 -80 -2 -2 -98 0 -213 5 -116 5 -368 13 -561 16 l-352 7 -7 -23 c-15
-46 -6 -47 440 -59 626 -17 725 -22 725 -36 0 -28 85 -180 121 -216 46 -46 97
-59 134 -35 23 15 53 67 69 119 5 17 7 17 22 2 23 -23 38 -6 81 87 32 69 39
78 57 72 12 -4 23 -8 25 -10 2 -2 -20 -58 -49 -123 -51 -116 -57 -151 -26
-151 19 0 21 3 83 140 50 112 64 129 91 112 10 -7 2 -35 -37 -127 -56 -128
-59 -143 -35 -152 24 -9 36 11 94 147 39 94 61 132 86 153 19 16 41 41 49 57
13 25 55 49 55 31 0 -5 -29 -76 -65 -159 -64 -151 -71 -186 -33 -180 15 2 37
43 95 180 l74 176 40 4 c21 2 39 3 39 3 0 -1 -25 -59 -55 -129 -30 -70 -55
-134 -55 -142 0 -19 28 -30 42 -16 6 6 39 75 72 153 54 124 65 144 89 150 15
4 27 4 27 0 0 -5 -22 -56 -50 -114 -50 -108 -54 -141 -17 -135 15 2 35 35 80
136 59 129 62 133 100 143 21 5 42 9 46 7 5 -2 -11 -52 -35 -113 -49 -125 -54
-155 -25 -155 25 0 27 4 77 130 42 104 42 105 54 75 12 -30 16 -86 9 -135 -3
-20 1 -26 19 -28 21 -3 32 -22 12 -22 -15 0 -155 -98 -290 -204 -132 -104
-296 -215 -420 -286 -338 -194 -714 -382 -990 -495 -91 -38 -248 -103 -350
-145 -215 -90 -375 -145 -660 -230 -113 -34 -279 -84 -370 -111 -90 -27 -169
-49 -175 -49 -15 0 -257 164 -336 227 -122 98 -208 203 -273 331 -65 128 -83
197 -101 390 -8 81 -19 185 -25 232 -26 222 -8 320 73 403 87 89 175 130 432
202 72 20 231 69 355 110 458 149 868 279 899 284 2 1 24 -16 50 -37z m1795
-28 c9 -3 16 -10 16 -15 0 -13 -121 -301 -133 -316 -12 -16 -63 -17 -73 -2 -9
15 75 209 91 209 24 0 75 69 75 100 0 32 1 33 24 24z m106 -59 c28 -15 29 -16
15 -47 -92 -220 -91 -218 -139 -218 -23 0 -27 3 -22 18 21 55 110 262 113 262
2 0 17 -7 33 -15z m6319 -61 c35 -14 107 -45 160 -69 53 -23 167 -70 252 -103
302 -116 820 -362 969 -461 151 -99 214 -173 250 -290 27 -92 60 -276 60 -336
-1 -103 -70 -205 -239 -355 -46 -41 -150 -140 -230 -220 -80 -80 -180 -168
-221 -196 -176 -121 -474 -278 -890 -471 -124 -57 -340 -163 -480 -235 -282
-144 -315 -156 -577 -222 -100 -25 -266 -70 -370 -100 -103 -30 -231 -63 -283
-75 -52 -11 -151 -34 -220 -50 -135 -31 -317 -61 -525 -87 -121 -14 -451 -20
-575 -9 -89 7 -271 -16 -466 -59 -232 -52 -369 -72 -624 -91 -247 -19 -771
-19 -1100 1 -456 26 -999 120 -1537 265 -192 51 -552 157 -561 164 -5 4 64 84
161 184 146 151 222 259 412 581 196 333 266 463 391 733 79 170 94 196 103
179 11 -21 59 -41 146 -61 27 -7 51 -14 53 -16 2 -2 -6 -34 -18 -71 -29 -86
-24 -159 16 -211 76 -100 177 -98 265 7 55 65 126 121 145 113 8 -3 33 -37 55
-75 95 -163 164 -200 260 -139 55 34 76 79 85 181 4 43 11 70 19 70 6 0 24
-14 40 -30 49 -51 109 -80 179 -87 61 -5 66 -4 90 22 50 54 49 169 -2 250 -51
81 -82 148 -82 180 0 17 11 97 25 179 21 124 29 154 49 175 13 15 57 80 97
145 l73 120 14 -34 c13 -33 12 -37 -40 -137 -45 -87 -51 -105 -38 -113 24 -16
33 -8 77 70 l42 74 16 -38 c9 -21 15 -50 13 -65 -2 -18 3 -29 17 -35 11 -6 43
-56 72 -115 150 -302 356 -626 657 -1031 172 -233 466 -504 514 -474 38 24 25
48 -55 104 -124 87 -274 244 -428 450 -257 345 -480 699 -631 1002 l-68 137
73 160 74 161 34 0 c19 0 32 -4 29 -8 -3 -5 -39 -95 -81 -202 -75 -191 -80
-216 -39 -208 14 2 40 55 100 208 80 202 82 205 113 208 17 2 31 -1 31 -6 0
-6 -30 -96 -66 -202 -62 -178 -66 -193 -50 -208 14 -14 18 -14 30 -2 7 8 44
104 81 213 l68 197 33 0 c19 0 34 -3 34 -6 0 -4 -25 -92 -56 -197 -30 -104
-53 -196 -50 -203 3 -8 14 -14 25 -14 22 0 22 -1 101 273 l43 147 34 0 c28 0
33 -3 29 -17 -33 -112 -97 -395 -93 -407 9 -23 36 -20 47 7 5 12 33 113 61
225 l52 202 28 0 c16 0 29 -3 29 -7 0 -5 -20 -96 -45 -203 -42 -182 -44 -196
-28 -208 14 -10 20 -10 29 0 9 9 104 386 104 413 0 1 14 5 30 7 22 3 30 1 30
-11 0 -9 -18 -98 -41 -200 -41 -186 -41 -207 -3 -199 16 3 26 37 64 211 l45
207 28 0 c23 0 27 -3 22 -22 -9 -42 -55 -339 -55 -359 0 -23 27 -36 42 -21 6
6 25 99 42 206 18 108 35 198 38 202 9 8 78 -46 78 -61 0 -7 -9 -81 -20 -166
-18 -135 -19 -154 -6 -167 29 -29 42 2 61 148 19 152 20 154 74 96 24 -25 24
-27 13 -121 -12 -108 -9 -127 22 -123 18 3 22 13 31 86 6 45 15 82 20 80 6 -1
22 -9 38 -17 33 -19 39 -38 70 -244 l23 -158 -48 -82 c-106 -180 -103 -306 10
-354 39 -16 126 -19 162 -5 14 6 58 35 98 66 41 31 82 56 92 56 27 0 74 -62
93 -123 21 -67 87 -176 122 -202 40 -30 103 -27 148 8 59 45 68 66 78 183 5
59 12 110 15 113 2 3 17 -3 32 -12 55 -35 168 -90 202 -98 45 -11 101 4 140
37 39 33 56 67 65 127 5 30 12 46 19 43 6 -2 58 -24 116 -49 142 -60 296 -111
315 -103 23 8 30 35 14 51 -8 8 -66 32 -129 54 -157 54 -361 146 -383 173 -30
36 -18 60 47 95 92 48 126 113 100 188 -16 47 -17 48 -135 85 l-96 30 -10 69
c-7 52 -6 74 3 86 7 9 18 48 25 85 15 83 21 94 47 86 19 -7 19 -7 -4 -107 -31
-128 -30 -139 0 -139 22 0 26 8 52 114 l28 115 39 6 c21 4 41 4 44 1 4 -3 -1
-6 -11 -6 -21 0 -29 -20 -66 -169 -28 -111 -29 -126 -16 -139 22 -22 42 -2 56
60 l13 51 13 -39 c8 -22 14 -40 14 -42 0 -2 16 -10 35 -18 65 -27 127 -13 187
43 l27 25 6 -36 c10 -53 62 -125 114 -157 52 -33 100 -37 160 -13 59 23 71 58
71 197 0 93 5 131 26 203 14 49 26 90 28 91 1 2 107 -11 235 -27 128 -17 238
-30 246 -30 8 0 19 10 26 21 20 39 -6 49 -177 71 -88 11 -165 22 -173 24 -8 3
73 40 180 83 228 92 385 163 564 254 72 36 133 66 136 66 3 1 34 -11 68 -25z
m-6205 3 c16 -12 15 -18 -20 -92 -21 -44 -38 -81 -39 -82 -1 -2 -16 -6 -33 -9
l-32 -6 41 93 c54 125 50 120 83 96z m-524 -34 c0 -5 -4 -15 -10 -23 -11 -18
-25 -7 -17 15 6 15 27 21 27 8z m120 3 c0 -2 -11 -29 -25 -60 -23 -51 -27 -56
-45 -46 -24 13 -24 13 -4 67 14 37 21 43 45 43 16 0 29 -2 29 -4z m4700 -23
c0 -10 -3 -35 -6 -55 -5 -29 -11 -38 -26 -38 -18 0 -19 4 -13 37 8 45 22 73
35 73 6 0 10 -8 10 -17z m-4230 -35 c0 -7 3 -23 6 -34 4 -17 0 -23 -21 -28
-37 -9 -39 -5 -19 38 18 36 34 47 34 24z m4127 -10 c-3 -8 -6 -5 -6 6 -1 11 2
17 5 13 3 -3 4 -12 1 -19z m48 -138 c-20 -22 -31 -20 -22 5 4 8 14 15 23 15
16 0 16 -2 -1 -20z m-5057 -190 c-17 -39 -33 -68 -35 -66 -7 6 17 89 33 114
30 47 32 19 2 -48z m3782 -19 c0 -68 -7 -74 -46 -43 -45 36 -46 69 -1 75 17 2
35 5 40 5 4 1 7 -16 7 -37z m1234 -27 l-8 -39 -7 30 c-4 17 -7 41 -8 55 -1 22
0 23 15 9 12 -12 14 -25 8 -55z m-2669 7 c6 -35 1 -48 -56 -139 -35 -56 -64
-100 -66 -98 -11 11 87 276 102 276 8 0 16 -17 20 -39z m158 23 c7 -7 -44
-104 -55 -104 -16 0 -19 62 -4 85 15 23 45 33 59 19z m114 -16 c-2 -7 -28 -66
-58 -131 l-53 -118 -13 32 c-19 45 -18 49 34 144 39 71 51 85 71 85 15 0 22
-5 19 -12z m1240 -125 c-14 -13 -27 12 -26 50 l1 42 15 -43 c8 -24 13 -46 10
-49z m-2777 -308 c11 -65 19 -119 17 -121 -1 -2 -32 -16 -68 -32 l-66 -30 32
102 c18 55 38 125 45 153 8 29 15 51 17 50 1 -2 12 -57 23 -122z"/>
<path d="M6865 12021 c-299 -49 -531 -251 -621 -542 -38 -122 -39 -278 -1
-404 73 -250 248 -433 497 -518 77 -27 98 -30 220 -31 122 -1 143 2 220 26
251 81 433 265 511 518 20 63 24 96 23 205 0 114 -3 140 -28 215 -83 255 -273
439 -526 509 -86 24 -222 34 -295 22z m394 -183 c5 -13 15 -44 22 -71 12 -47
54 -93 102 -110 30 -11 19 -32 -27 -51 -58 -24 -99 -68 -130 -138 -14 -32 -32
-58 -40 -58 -14 0 -26 29 -26 65 0 35 -47 118 -90 163 -27 27 -40 48 -36 58 3
8 10 13 15 9 17 -10 97 16 123 40 14 13 34 44 44 69 21 51 30 56 43 24z m231
-207 c7 -14 7 -22 -1 -27 -14 -8 -43 21 -35 35 11 17 24 13 36 -8z m68 -8 c-2
-10 -13 -19 -26 -21 -24 -4 -29 7 -10 26 18 18 40 15 36 -5z m-58 -57 c0 -19
-17 -29 -37 -22 -12 5 -13 9 -3 21 16 19 40 19 40 1z m60 -1 c10 -12 10 -19 2
-27 -15 -15 -48 14 -38 31 10 15 21 14 36 -4z m-623 -51 c-2 -14 1 -25 9 -28
20 -8 17 -27 -5 -33 -11 -3 -22 -14 -24 -25 -7 -26 -33 -17 -30 10 2 15 -4 22
-20 24 -31 4 -28 32 4 36 17 2 31 12 38 28 13 30 35 21 28 -12z m-247 -369 c0
-12 -112 -450 -116 -454 -2 -2 -13 4 -24 14 -13 12 -17 21 -10 25 6 4 31 94
56 201 25 107 47 200 49 207 4 11 45 18 45 7z m80 -20 c7 -19 4 -43 -14 -98
-41 -126 -41 -127 -8 -127 26 0 29 5 43 57 l15 56 16 -25 c15 -23 15 -30 1
-77 -14 -49 -14 -53 4 -66 27 -21 29 -19 43 30 9 33 18 45 31 45 23 0 23 -6 5
-58 -16 -45 -13 -52 20 -52 18 0 24 9 35 50 11 43 33 70 46 56 3 -3 -3 -28
-12 -56 -9 -28 -15 -53 -14 -55 2 -2 15 -5 28 -7 23 -3 26 3 50 87 23 80 67
172 77 162 2 -2 -14 -65 -35 -140 -33 -114 -38 -141 -29 -165 15 -38 4 -75
-32 -112 -17 -17 -30 -37 -30 -45 0 -9 -9 -15 -21 -15 -16 0 -20 5 -16 20 4
17 0 20 -23 20 -20 0 -31 -6 -35 -20 -10 -30 -38 -26 -33 4 3 16 0 27 -9 30
-30 12 -43 6 -43 -19 0 -26 -6 -30 -29 -16 -8 6 -11 16 -6 31 5 15 2 25 -6 31
-24 15 -38 10 -45 -16 -7 -27 -12 -29 -33 -16 -11 7 -11 15 -3 39 9 26 7 33
-12 51 l-23 21 -12 -40 c-11 -38 -20 -47 -33 -35 -3 3 1 24 9 47 9 26 11 56 7
85 -5 37 -2 49 19 81 14 20 35 75 47 122 45 182 44 178 60 135z m-184 -2 c-3
-10 -24 -96 -46 -192 -22 -96 -42 -176 -44 -178 -2 -2 -9 3 -16 11 -10 12 -5
47 25 178 47 210 43 198 66 198 15 0 19 -5 15 -17z m-96 1 c0 -13 -63 -279
-67 -284 -3 -3 -13 5 -23 18 -16 19 -17 26 -5 50 7 15 23 71 36 125 19 78 26
97 41 97 10 0 18 -3 18 -6z m753 1 c11 -5 -1 -55 -60 -253 -40 -136 -74 -257
-75 -269 -2 -22 -38 -34 -38 -13 0 9 119 436 141 508 11 35 11 34 32 27z
m-856 -37 c-3 -13 -11 -49 -18 -80 -12 -56 -22 -71 -31 -45 -9 24 24 147 39
147 11 0 14 -7 10 -22z m963 11 c0 -6 -31 -109 -70 -228 -38 -120 -70 -227
-70 -238 0 -13 -8 -23 -22 -26 -12 -4 -23 -5 -25 -4 -2 2 40 148 126 435 17
57 26 72 41 72 11 0 20 -5 20 -11z m97 -16 c-17 -31 -117 -377 -113 -391 5
-14 -3 -23 -29 -35 -20 -9 -37 -17 -39 -17 -3 0 120 389 137 434 4 9 16 16 27
16 12 0 19 -3 17 -7z m85 -18 c3 -3 -17 -65 -44 -138 -26 -72 -47 -140 -44
-149 2 -9 -9 -29 -25 -44 -16 -15 -29 -24 -29 -18 0 7 88 295 105 342 4 12 27
17 37 7z m87 -51 c-17 -46 -58 -120 -79 -144 -24 -28 -24 -27 16 87 25 70 32
82 50 81 18 -2 20 -6 13 -24z"/>
<path d="M11675 11670 c-151 -18 -292 -88 -405 -200 -129 -129 -192 -279 -192
-460 1 -193 71 -352 215 -485 79 -74 163 -121 277 -156 104 -32 282 -32 387 0
184 56 331 175 415 337 56 108 71 173 72 304 0 130 -19 204 -82 320 -48 88
-176 214 -267 261 -126 66 -285 96 -420 79z m356 -160 c9 -78 34 -132 80 -174
22 -20 37 -41 34 -47 -4 -6 -27 -19 -51 -29 -29 -13 -53 -33 -71 -61 -16 -23
-39 -53 -52 -67 -23 -25 -24 -25 -37 -7 -8 10 -14 38 -14 62 0 35 -6 50 -34
81 -19 21 -51 47 -71 58 -49 26 -41 45 25 59 84 17 96 27 127 110 34 93 55 97
64 15z m199 -175 c20 -24 -2 -41 -24 -20 -16 16 -14 35 3 35 5 0 14 -7 21 -15z
m76 -16 c10 -17 -23 -46 -38 -31 -8 8 -8 15 2 27 15 18 26 19 36 4z m-49 -46
c3 -7 -8 -19 -22 -29 -20 -13 -29 -14 -38 -5 -9 10 -7 17 12 32 25 20 42 21
48 2z m45 -20 c21 -19 24 -43 5 -43 -19 0 -50 37 -42 49 9 15 15 14 37 -6z
m-542 -53 c0 -10 9 -24 20 -30 25 -14 26 -30 1 -30 -12 0 -21 -9 -25 -25 -8
-30 -36 -34 -36 -4 0 11 -10 29 -22 40 l-23 19 22 6 c12 3 25 15 28 25 8 25
35 24 35 -1z m-313 -292 c-148 -350 -138 -330 -158 -312 -17 15 -17 19 -5 33
8 9 40 77 71 151 62 145 70 160 91 160 12 0 12 -5 1 -32z m110 20 c-3 -7 -26
-62 -51 -122 -44 -103 -45 -108 -24 -102 13 3 28 6 33 6 6 0 21 27 34 60 13
33 27 60 31 60 16 0 19 -61 4 -96 -15 -35 -14 -38 5 -58 l21 -20 12 32 c7 17
16 32 21 32 14 0 18 -26 8 -53 -9 -22 -7 -28 10 -37 25 -14 36 -7 44 30 4 20
13 30 25 30 16 0 17 -4 7 -36 -9 -29 -8 -37 4 -45 27 -17 39 -9 50 37 7 28 26
61 50 86 l37 40 -25 -82 c-25 -80 -26 -83 -8 -96 10 -8 22 -14 25 -14 4 0 26
66 50 148 24 81 45 149 47 151 1 2 11 0 22 -5 17 -9 16 -17 -29 -174 -63 -222
-71 -252 -73 -275 -2 -21 -59 -42 -65 -24 -5 12 -49 12 -57 -1 -3 -5 -17 -10
-31 -10 -14 0 -22 4 -19 10 3 5 -7 13 -22 16 -17 5 -28 3 -31 -4 -6 -20 -42
-14 -42 7 0 17 -18 31 -41 31 -5 0 -9 -7 -9 -16 0 -11 -5 -14 -16 -10 -9 3
-19 6 -23 6 -5 0 -6 10 -4 23 3 13 -2 29 -11 36 -17 14 -36 7 -36 -15 0 -17
-5 -17 -30 -4 -16 9 -17 15 -9 39 8 24 7 35 -7 56 l-18 27 -16 -41 c-15 -39
-16 -40 -37 -26 -22 15 -22 16 -3 48 10 17 41 86 68 152 91 218 90 215 113
215 13 0 19 -5 16 -12z m-209 -27 c-7 -15 -33 -76 -58 -135 -24 -58 -48 -106
-52 -106 -24 0 -15 39 34 149 39 89 57 121 70 121 16 0 17 -3 6 -29z m-88 15
c0 -2 -17 -41 -39 -87 -38 -84 -39 -84 -50 -55 -9 23 -9 31 3 40 8 6 24 32 35
59 12 27 27 47 36 47 8 0 15 -2 15 -4z m-100 -20 c0 -6 -4 -17 -9 -24 -7 -11
-10 -10 -15 3 -9 25 -7 32 9 32 8 0 15 -5 15 -11z m935 -84 c-3 -9 -29 -99
-58 -199 -49 -172 -54 -183 -81 -193 -22 -8 -27 -7 -23 4 3 8 31 101 62 208
31 106 58 199 60 206 4 10 10 10 26 2 13 -8 18 -17 14 -28z m80 -32 c9 -15
-75 -283 -96 -304 -10 -11 -21 -18 -24 -15 -2 3 16 78 42 167 43 150 59 182
78 152z m69 -117 c-3 -61 -6 -71 -35 -96 -17 -16 -33 -27 -35 -24 -4 3 44 175
53 190 13 21 21 -10 17 -70z"/>
<path d="M13596 9154 c-9 -8 -16 -24 -16 -34 0 -22 128 -120 157 -120 24 0 43
18 43 41 0 22 -137 129 -164 129 -2 0 -12 -7 -20 -16z"/>
<path d="M14225 9017 c-85 -30 -90 -34 -90 -61 0 -51 23 -54 134 -18 110 36
133 59 95 96 -21 22 -35 20 -139 -17z"/>
<path d="M13251 9028 c-143 -20 -300 -83 -665 -267 -471 -238 -649 -304 -981
-362 -182 -32 -423 -33 -581 -1 -320 64 -657 197 -1029 406 -124 70 -379 196
-395 196 -6 0 -10 -6 -10 -13 0 -8 42 -33 93 -56 50 -23 164 -82 252 -131 180
-99 427 -224 525 -266 97 -40 312 -112 420 -139 250 -63 475 -72 729 -29 334
56 518 124 1016 374 458 231 572 268 789 257 195 -10 380 -69 664 -211 88 -44
133 -62 138 -54 10 16 -14 31 -181 115 -82 41 -139 71 -125 68 71 -17 87 -17
103 0 20 20 21 26 5 48 -18 24 -145 59 -169 46 -29 -15 -24 -56 9 -73 41 -23
18 -19 -46 8 -121 51 -337 97 -441 95 -31 -1 -85 -6 -120 -11z"/>
<path d="M2400 6501 c-20 -11 -44 -36 -58 -62 -20 -39 -22 -54 -20 -159 2 -94
6 -115 18 -115 12 0 16 22 20 115 6 130 21 170 70 190 33 14 37 22 17 38 -10
9 -22 7 -47 -7z"/>
<path d="M2470 6446 c0 -28 23 -76 36 -76 23 0 27 25 9 59 -16 31 -45 42 -45
17z"/>
<path d="M3482 6260 c-38 -23 -51 -48 -31 -61 9 -5 21 -1 34 11 12 11 35 20
53 20 54 0 36 49 -18 50 -3 0 -20 -9 -38 -20z"/>
<path d="M3364 6118 c-25 -35 -64 -94 -86 -132 -22 -38 -74 -104 -115 -147
-51 -53 -73 -84 -69 -94 4 -12 10 -13 24 -6 35 18 148 148 187 212 21 35 60
94 87 131 26 37 48 75 48 83 0 32 -32 12 -76 -47z"/>
<path d="M2324 5826 c-7 -18 13 -83 28 -92 22 -14 30 14 16 57 -15 45 -34 61
-44 35z"/>
<path d="M2374 5647 c-14 -37 95 -375 124 -385 27 -9 23 35 -11 121 -37 95
-61 174 -72 240 -6 37 -30 51 -41 24z"/>
<path d="M14969 6261 c-33 -27 -14 -48 26 -29 26 12 29 10 55 -21 27 -32 50
-35 50 -6 0 7 -12 27 -26 44 -30 36 -70 41 -105 12z"/>
<path d="M14912 6175 c-16 -36 -15 -45 6 -45 20 0 46 45 37 61 -11 17 -32 9
-43 -16z"/>
<path d="M14125 5958 c-46 -57 -85 -108 -85 -114 0 -7 7 -14 15 -18 10 -3 39
25 92 89 42 52 79 95 83 95 3 0 11 -5 17 -11 13 -13 33 -4 33 16 0 15 -37 45
-57 45 -7 0 -51 -46 -98 -102z"/>
<path d="M14275 5971 c-8 -15 3 -31 21 -31 9 0 14 7 12 17 -4 20 -24 28 -33
14z"/>
<path d="M15015 5930 c-4 -6 -11 -58 -16 -116 -11 -128 -20 -169 -65 -306 -36
-110 -40 -143 -15 -143 16 0 81 191 105 306 19 97 25 261 9 266 -6 2 -14 -1
-18 -7z"/>
<path d="M14655 5843 c-54 -48 -110 -73 -168 -73 -41 0 -48 -3 -45 -17 4 -23
66 -29 124 -13 53 15 154 94 154 120 0 29 -20 24 -65 -17z"/>
<path d="M14861 5307 c-6 -8 -14 -28 -17 -45 -6 -27 -4 -32 13 -32 13 0 23 12
32 35 17 47 -1 74 -28 42z"/>
<path d="M3570 12239 c-15 -26 12 -62 113 -153 73 -65 102 -77 125 -54 21 21
13 46 -25 81 -21 19 -66 59 -100 90 -67 61 -95 70 -113 36z"/>
<path d="M3957 12179 c-67 -71 -117 -135 -117 -151 0 -24 27 -41 52 -34 30 8
161 161 156 182 -2 9 -13 23 -26 32 -22 14 -25 13 -65 -29z"/>
<path d="M12662 12078 c-16 -16 -15 -43 1 -56 17 -15 279 -80 295 -74 7 2 17
12 22 22 17 33 -12 51 -140 86 -136 37 -160 40 -178 22z"/>
<path d="M3645 11871 c-116 -116 -131 -139 -109 -169 8 -12 22 -22 31 -22 16
0 221 208 237 241 6 12 5 24 -4 34 -26 32 -55 17 -155 -84z"/>
<path d="M3875 11940 c-17 -19 -17 -21 10 -61 42 -64 106 -129 126 -129 25 0
51 39 39 59 -16 27 -136 151 -147 151 -5 0 -18 -9 -28 -20z"/>
<path d="M13079 11908 c-10 -19 -8 -25 22 -53 19 -17 69 -52 111 -78 65 -41
80 -47 97 -37 13 6 21 21 21 36 0 20 -18 36 -99 89 -54 36 -108 65 -120 65
-11 0 -26 -10 -32 -22z"/>
<path d="M4057 11753 c-23 -22 10 -83 44 -83 20 0 39 20 39 40 0 34 -61 65
-83 43z"/>
<path d="M13438 11689 c-37 -21 -21 -53 72 -137 50 -45 99 -82 108 -82 23 0
42 19 42 41 0 18 -176 189 -194 189 -6 0 -19 -5 -28 -11z"/>
<path d="M3437 11649 c-9 -5 -24 -23 -32 -38 -11 -23 -12 -32 -2 -46 20 -26
58 -15 84 24 35 52 3 91 -50 60z"/>
<path d="M4421 11534 c-12 -15 -21 -37 -21 -49 0 -79 -67 -328 -116 -432 -73
-154 -258 -299 -414 -324 -88 -15 -120 -39 -120 -92 0 -49 28 -71 137 -108
172 -57 266 -111 368 -214 50 -50 105 -117 124 -149 51 -86 104 -225 142 -371
37 -143 56 -175 108 -175 19 0 42 10 61 28 27 24 35 45 64 167 19 77 46 202
60 279 44 232 98 343 198 411 65 43 191 85 259 85 64 0 99 30 99 85 0 60 -30
81 -130 88 -146 12 -285 60 -372 129 -77 63 -174 238 -283 513 -26 66 -54 128
-63 138 -24 27 -76 22 -101 -9z m125 -459 c50 -116 141 -252 207 -308 29 -25
80 -60 115 -79 l62 -35 -39 -28 c-108 -74 -206 -273 -242 -490 -11 -67 -28
-118 -29 -86 0 24 -76 177 -119 240 -86 127 -225 253 -338 309 -29 15 -53 29
-53 32 0 3 20 18 45 33 149 95 272 259 325 435 12 40 23 72 25 70 1 -2 20 -43
41 -93z"/>
<path d="M13672 11308 c-5 -7 -13 -61 -17 -119 -6 -91 -4 -108 10 -122 20 -20
26 -21 48 -4 21 15 42 209 26 239 -11 21 -52 24 -67 6z"/>
<path d="M13626 10889 c-23 -33 -88 -206 -84 -225 5 -25 35 -41 54 -29 9 6 37
61 62 123 36 88 44 117 36 130 -17 26 -50 26 -68 1z"/>
<path d="M13438 10528 c-22 -18 -108 -176 -108 -199 0 -21 32 -42 52 -34 19 8
118 176 118 201 0 38 -33 55 -62 32z"/>
<path d="M13261 10273 c-5 -10 -14 -58 -20 -106 -13 -94 -7 -117 29 -117 29 0
41 25 55 117 14 98 8 123 -30 123 -13 0 -28 -8 -34 -17z"/>
<path d="M15034 10234 c-21 -25 -57 -57 -81 -71 -55 -32 -82 -28 -199 26 -48
23 -93 41 -101 41 -24 0 -25 -26 -4 -124 12 -53 21 -127 21 -166 0 -54 4 -72
15 -76 44 -17 58 66 34 203 -6 35 -9 66 -7 69 3 2 34 -9 69 -26 36 -17 81 -30
102 -30 44 0 103 22 133 51 l21 20 11 -44 c14 -53 47 -97 73 -97 31 0 32 23 5
75 -21 38 -26 62 -26 115 0 88 -16 96 -66 34z"/>
<path d="M15536 9935 c-9 -9 -35 -54 -58 -102 -40 -81 -41 -86 -24 -99 11 -7
23 -11 27 -8 8 5 109 187 109 197 0 4 -9 11 -19 17 -15 7 -23 6 -35 -5z"/>
<path d="M13217 9923 c-12 -11 -8 -47 14 -140 31 -134 48 -180 68 -186 28 -7
51 11 51 39 0 35 -59 266 -72 281 -11 14 -50 18 -61 6z"/>
<path d="M15622 9695 c-61 -14 -86 -33 -73 -54 7 -11 23 -11 97 -1 92 13 121
27 111 54 -8 19 -59 20 -135 1z"/>
<path d="M15604 9536 c-4 -10 -2 -22 4 -28 27 -27 206 -38 216 -13 7 20 -20
45 -52 45 -15 0 -57 3 -94 6 -58 6 -68 4 -74 -10z"/>
<path d="M15477 9233 c-15 -15 -5 -97 18 -155 14 -34 25 -63 25 -65 0 -2 -16
-3 -35 -3 -43 0 -119 -37 -165 -80 -31 -29 -32 -32 -16 -48 13 -14 20 -14 34
-4 108 76 173 90 242 51 72 -41 92 -4 36 65 -46 55 -86 142 -86 187 0 46 -30
76 -53 52z"/>
<path d="M2980 7867 c-55 -16 -128 -64 -170 -114 -50 -60 -133 -242 -199 -437
-34 -98 -61 -186 -61 -196 0 -54 57 -24 290 148 158 117 259 221 305 314 59
121 57 231 -7 271 -33 22 -106 28 -158 14z m121 -83 c21 -25 14 -97 -16 -161
-33 -73 -190 -230 -325 -325 -52 -37 -96 -65 -98 -63 -6 6 92 265 134 352 48
98 100 160 161 192 48 25 125 28 144 5z"/>
<path d="M2998 7783 c-22 -6 -31 -32 -14 -39 22 -8 81 11 81 27 0 14 -36 21
-67 12z"/>
<path d="M2902 7718 c-5 -7 -24 -40 -40 -73 -22 -43 -28 -63 -20 -72 6 -7 14
-10 19 -8 11 8 79 137 79 152 0 17 -24 17 -38 1z"/>
<path d="M14960 7218 c-88 -60 -102 -182 -35 -312 20 -39 47 -84 60 -100 25
-31 72 -43 99 -23 19 14 70 160 86 247 18 99 -4 151 -81 190 -50 26 -88 25
-129 -2z m120 -80 c20 -18 22 -28 17 -78 -5 -59 -46 -200 -58 -200 -11 0 -77
133 -84 170 -4 24 -1 50 11 79 25 62 67 73 114 29z"/>
<path d="M15036 7098 c8 -28 12 -33 20 -25 9 8 -6 47 -17 47 -6 0 -7 -10 -3
-22z"/>
<path d="M15037 6998 c-8 -55 8 -54 19 0 4 19 2 32 -4 32 -5 0 -12 -15 -15
-32z"/>
</g>
</svg>
