<?xml version="1.0" standalone="no"?>
<!DOCTYPE svg PUBLIC "-//W3C//DTD SVG 20010904//EN"
 "http://www.w3.org/TR/2001/REC-SVG-20010904/DTD/svg10.dtd">
<svg version="1.0" xmlns="http://www.w3.org/2000/svg"
 width="1800.000000pt" height="1500.000000pt" viewBox="0 0 1800.000000 1500.000000"
 preserveAspectRatio="xMidYMid meet">

<g transform="translate(0.000000,1500.000000) scale(0.100000,-0.100000)"
fill="#000000" stroke="none">
<path d="M12632 14498 c-145 -56 -165 -72 -137 -114 8 -13 24 -24 34 -24 38 0
281 101 292 122 13 24 -12 68 -39 68 -9 -1 -77 -24 -150 -52z"/>
<path d="M12996 14514 c-19 -19 -20 -35 -3 -57 18 -25 283 -82 314 -68 28 13
31 51 6 73 -16 14 -244 68 -286 68 -8 0 -23 -7 -31 -16z"/>
<path d="M13458 14319 c-11 -6 -18 -22 -18 -38 0 -22 12 -37 58 -73 79 -62 98
-71 121 -58 11 5 23 20 27 32 5 18 -2 31 -42 67 -52 47 -102 81 -119 81 -5 0
-18 -5 -27 -11z"/>
<path d="M16363 14140 c-18 -11 -35 -31 -39 -44 -7 -30 30 -297 46 -326 6 -12
27 -28 46 -36 29 -12 39 -12 68 0 63 26 69 68 35 237 -26 133 -35 157 -70 174
-37 19 -48 19 -86 -5z"/>
<path d="M13686 14091 c-10 -11 -15 -28 -13 -38 71 -250 98 -299 146 -274 11
6 22 19 25 29 6 19 -66 265 -85 288 -16 20 -53 17 -73 -5z"/>
<path d="M16715 13779 c-58 -14 -86 -26 -102 -45 -49 -55 -11 -134 64 -134 50
0 172 24 200 39 51 27 57 88 14 132 -35 34 -60 36 -176 8z"/>
<path d="M16110 13734 c-70 -11 -89 -18 -107 -39 -31 -35 -30 -79 3 -112 26
-26 27 -26 145 -20 158 8 199 30 199 107 0 21 -9 39 -26 55 -31 29 -74 31
-214 9z"/>
<path d="M14006 13684 c-43 -42 -5 -68 133 -93 143 -26 147 -26 166 3 32 48 3
66 -140 91 -113 19 -140 19 -159 -1z"/>
<path d="M13628 13605 c-145 -74 -166 -92 -152 -129 14 -37 53 -31 177 30 182
89 222 125 185 162 -23 23 -64 11 -210 -63z"/>
<path d="M15251 13614 l-31 -26 0 -136 c0 -173 -16 -387 -35 -470 -25 -107
-61 -170 -144 -252 -84 -82 -185 -145 -303 -188 -66 -24 -87 -27 -226 -28
-136 -1 -157 -4 -180 -21 -44 -32 -57 -68 -40 -111 17 -46 45 -60 198 -101
516 -141 777 -516 809 -1164 7 -136 7 -138 38 -168 34 -34 84 -42 125 -20 46
24 47 27 128 436 17 83 37 174 46 204 34 119 149 307 237 388 74 68 127 92
293 133 162 40 190 54 220 112 40 78 -10 158 -101 158 -65 0 -215 35 -295 69
-289 120 -503 483 -565 961 -27 204 -29 211 -75 235 -41 21 -64 19 -99 -11z
m140 -856 c50 -100 133 -219 210 -302 70 -75 200 -171 272 -201 21 -8 37 -19
37 -23 0 -4 -28 -23 -62 -42 -145 -82 -294 -276 -399 -519 l-15 -33 -33 88
c-88 232 -251 436 -463 577 l-87 58 87 45 c102 54 166 99 246 174 56 52 148
178 161 220 4 11 8 20 11 20 2 0 18 -28 35 -62z"/>
<path d="M16433 13594 c-25 -25 -26 -28 -19 -117 7 -111 32 -272 47 -309 31
-77 146 -77 178 0 9 22 7 52 -13 152 -13 69 -28 148 -32 175 -8 60 -27 101
-53 115 -35 18 -80 12 -108 -16z"/>
<path d="M14388 13525 c-10 -22 -5 -35 47 -122 32 -54 65 -106 73 -115 22 -26
59 -22 78 7 16 25 15 27 -36 113 -84 138 -88 142 -121 142 -22 0 -32 -7 -41
-25z"/>
<path d="M13749 13451 l-24 -19 35 -137 c37 -145 52 -172 94 -161 39 10 40 40
6 176 -38 157 -59 183 -111 141z"/>
<path d="M13352 13403 c-8 -3 -54 -66 -103 -140 -83 -126 -89 -137 -76 -157
17 -25 52 -32 74 -14 28 23 173 247 173 267 0 11 -10 27 -22 35 -24 17 -26 17
-46 9z"/>
<path d="M14468 13183 c-53 -57 -138 -192 -131 -210 18 -48 63 -44 106 10 58
72 117 165 117 184 0 48 -53 57 -92 16z"/>
<path d="M13962 13038 c-19 -19 -14 -56 9 -68 25 -14 253 -42 274 -34 25 10
37 41 25 63 -12 24 -23 27 -123 40 -103 14 -170 14 -185 -1z"/>
<path d="M13155 12933 c-21 -21 -18 -44 30 -196 45 -142 61 -166 101 -152 22
8 30 18 32 40 4 37 -71 281 -94 306 -21 23 -47 24 -69 2z"/>
<path d="M1982 12928 c-21 -21 -13 -49 24 -94 26 -33 43 -44 63 -44 63 0 67
50 8 108 -43 42 -73 52 -95 30z"/>
<path d="M6210 12860 c-126 -12 -202 -28 -319 -66 -390 -128 -720 -443 -849
-809 -60 -172 -76 -276 -70 -466 7 -219 42 -353 144 -550 26 -50 43 -94 38
-98 -5 -4 -62 -47 -128 -95 -184 -136 -286 -225 -482 -420 -179 -180 -281
-298 -405 -471 -305 -426 -497 -905 -555 -1386 -25 -213 -20 -558 12 -758 l6
-38 -163 -7 c-556 -23 -769 -153 -870 -531 -64 -238 -39 -627 56 -880 98 -259
286 -538 550 -813 87 -91 115 -126 105 -132 -7 -4 -99 -30 -204 -56 -105 -26
-261 -67 -346 -91 -85 -24 -159 -42 -166 -39 -6 2 -17 33 -23 67 -19 95 -75
242 -122 323 -55 93 -167 204 -242 241 -84 40 -145 44 -199 12 -51 -30 -67
-50 -159 -204 -99 -166 -172 -264 -259 -347 -113 -108 -205 -145 -282 -113
-70 29 -108 118 -158 372 -54 270 -106 404 -195 503 -49 55 -96 84 -153 97
-26 5 -46 1 -88 -20 -65 -32 -100 -75 -156 -193 -120 -253 -129 -587 -27 -997
70 -280 108 -366 424 -970 139 -266 174 -341 180 -385 11 -89 52 -196 117
-309 165 -287 243 -368 503 -521 77 -45 167 -98 200 -118 33 -20 89 -61 125
-93 36 -31 75 -61 87 -68 30 -15 83 -14 134 4 24 9 147 43 274 76 750 196 940
263 1885 667 168 71 365 155 439 186 182 77 246 111 461 239 159 96 524 335
726 476 34 24 66 42 72 40 25 -9 -79 -297 -217 -601 -182 -403 -280 -586 -491
-923 -76 -121 -179 -292 -230 -380 -129 -221 -160 -264 -404 -546 -54 -63
-121 -148 -148 -189 -42 -64 -49 -80 -44 -109 3 -19 11 -40 18 -47 21 -19 606
-209 859 -278 130 -35 314 -81 410 -101 96 -20 235 -49 309 -65 215 -46 496
-91 780 -125 360 -43 1362 -61 1715 -30 387 34 531 57 790 127 327 88 436 100
727 78 210 -17 476 -17 618 -1 348 40 576 82 953 177 205 51 348 96 708 222
141 50 317 107 390 127 221 61 240 69 559 220 107 51 258 116 334 145 188 71
378 159 723 335 158 81 332 164 385 185 54 20 123 52 154 71 88 53 193 162
283 296 121 177 136 193 286 283 233 140 384 269 437 373 33 66 33 104 -2 222
-25 82 -32 130 -31 198 0 51 5 63 35 100 122 151 223 350 281 554 69 240 168
709 207 978 31 215 -62 385 -212 385 -94 0 -178 -72 -306 -265 -105 -157 -205
-273 -268 -310 -96 -56 -161 -15 -190 120 -39 180 -117 273 -205 246 -68 -20
-172 -112 -309 -271 -204 -238 -256 -286 -465 -429 l-48 -33 -87 37 c-144 60
-340 135 -472 181 -68 23 -126 46 -127 51 -2 4 32 28 75 52 214 121 493 325
654 479 523 499 691 1194 401 1650 -49 76 -157 187 -237 243 -203 143 -482
174 -853 94 -32 -7 -33 -7 -32 26 0 19 6 59 12 89 l12 55 55 8 c113 18 243 2
405 -48 489 -151 459 -137 938 -438 266 -168 339 -197 503 -205 218 -9 354 40
500 180 46 45 94 97 106 117 12 20 38 59 59 86 65 90 116 197 148 312 26 94
32 138 37 270 13 306 -36 513 -162 684 -19 26 -34 51 -34 55 0 5 29 25 63 44
36 20 103 75 158 130 94 92 98 97 124 180 39 120 40 235 5 305 -42 81 -117
133 -245 171 -27 8 -31 15 -37 61 -11 73 -43 155 -91 226 -55 81 -110 119
-181 125 -115 9 -168 -36 -217 -188 -30 -91 -55 -272 -43 -304 3 -8 -7 -18
-27 -26 -29 -12 -35 -11 -88 19 -157 90 -296 137 -363 122 -80 -18 -169 -88
-200 -157 -11 -23 -16 -25 -52 -20 -23 3 -98 9 -167 12 -141 7 -193 1 -399
-51 -207 -51 -297 -67 -339 -60 -34 6 -41 3 -59 -20 -23 -29 -143 -91 -232
-120 -86 -28 -168 -64 -243 -106 -38 -21 -73 -37 -77 -34 -5 3 -14 22 -21 43
-20 62 -117 268 -176 375 -104 188 -256 406 -405 579 -32 37 -58 73 -58 80 0
7 27 40 59 73 218 222 352 563 352 895 -1 358 -133 682 -381 930 -417 418
-1036 488 -1530 172 -236 -150 -432 -405 -520 -677 -12 -38 -26 -73 -29 -78
-4 -4 -41 4 -82 18 -41 14 -132 43 -204 65 -616 184 -1200 273 -1885 287 -333
6 -578 -8 -1090 -63 l-55 -6 -23 78 c-58 197 -175 389 -332 544 -254 252 -564
387 -925 403 -60 3 -148 1 -195 -3z m233 -200 c175 -15 307 -53 461 -133 206
-107 385 -288 489 -494 35 -68 77 -194 77 -229 0 -15 12 -61 27 -101 21 -55
33 -75 50 -79 30 -8 130 0 243 20 158 27 540 57 810 63 257 6 481 -3 794 -33
494 -46 1011 -155 1446 -306 103 -35 126 -47 128 -64 3 -18 16 -24 87 -39 46
-9 88 -14 93 -11 6 3 20 50 32 103 41 188 52 221 104 329 84 172 181 293 321
397 402 299 934 270 1299 -73 138 -130 247 -309 300 -493 36 -125 46 -195 46
-330 0 -291 -106 -560 -303 -771 -40 -42 -48 -47 -62 -36 -9 8 -19 9 -25 4
-15 -16 -60 -137 -60 -163 0 -34 32 -86 88 -141 97 -97 270 -326 377 -500 136
-222 311 -624 292 -673 -11 -30 -709 -315 -992 -405 -382 -122 -449 -136 -655
-135 -313 1 -838 100 -1123 213 -149 59 -586 263 -588 275 -1 6 18 21 42 34
24 13 118 67 209 120 l165 96 165 0 c184 1 231 12 360 82 147 80 188 128 150
175 -16 21 -19 21 -42 6 -14 -9 -48 -46 -77 -81 -56 -69 -89 -89 -205 -122
-113 -33 -261 -17 -394 42 -66 29 -122 67 -221 147 -218 179 -263 214 -346
268 -117 78 -342 191 -475 238 -133 48 -309 87 -425 96 -109 8 -320 -10 -432
-36 -131 -31 -384 -154 -540 -262 -314 -218 -387 -259 -528 -300 -73 -21 -100
-23 -295 -23 -201 0 -223 2 -335 29 -141 33 -155 40 -231 106 -44 39 -65 50
-91 50 -40 0 -50 -18 -31 -57 10 -20 33 -36 91 -60 137 -57 377 -113 488 -113
58 0 277 -57 376 -99 92 -38 238 -119 423 -237 291 -184 476 -255 780 -300
114 -16 135 -17 645 -1 42 1 143 -58 365 -214 516 -363 921 -543 1484 -659
246 -51 388 -63 661 -57 316 7 522 42 928 157 371 105 554 145 721 157 l89 6
-7 -88 c-62 -767 -485 -1512 -1186 -2091 -159 -131 -360 -278 -369 -269 -2 3
-8 56 -12 118 -17 230 -96 511 -212 744 -311 625 -919 1134 -1698 1421 -311
115 -596 182 -959 228 -181 23 -241 26 -515 26 -257 0 -340 -3 -485 -21 -816
-101 -1493 -380 -2038 -839 -350 -296 -618 -677 -754 -1072 -49 -143 -94 -356
-104 -486 -3 -55 -9 -102 -11 -107 -10 -17 -294 198 -478 362 -508 454 -860
1015 -999 1595 -112 467 -95 925 53 1401 99 317 283 654 518 949 213 268 386
432 786 748 74 60 138 117 142 128 13 41 -24 218 -65 308 -21 48 -51 130 -67
182 -26 89 -28 106 -28 280 0 174 2 191 28 280 55 181 134 321 259 455 202
216 490 350 793 368 28 2 52 4 55 5 3 1 58 -3 123 -8z m9823 -2670 c18 -12 49
-45 68 -74 38 -58 92 -205 83 -228 -3 -10 -39 -18 -108 -26 -57 -7 -138 -22
-179 -33 -112 -30 -105 -33 -102 36 7 122 56 281 100 322 32 30 92 31 138 3z
m-6448 -318 c6 -18 -15 -14 -22 4 -4 10 -1 14 6 12 6 -2 14 -10 16 -16z
m-1638 -108 c-22 -63 -82 -291 -101 -386 -11 -55 -39 -101 -39 -65 0 8 27 127
60 263 42 179 64 252 77 262 27 20 28 -4 3 -74z m1710 59 c0 -16 -3 -46 -7
-68 -5 -31 -8 -35 -14 -20 -9 25 -11 78 -3 99 10 25 24 18 24 -11z m5732 -17
c74 -27 184 -82 192 -94 7 -11 -65 -62 -122 -87 l-43 -19 -107 37 c-59 20
-126 41 -149 47 -24 6 -43 16 -43 22 0 21 51 78 88 98 50 26 109 25 184 -4z
m-5642 -21 c0 -12 -52 -259 -56 -266 -8 -14 -35 3 -29 19 3 8 12 63 21 121 22
156 21 153 44 141 11 -6 20 -12 20 -15z m-1884 -32 c-3 -10 -23 -92 -46 -183
-48 -201 -91 -332 -105 -327 -5 2 -9 10 -8 18 2 20 133 491 139 501 10 15 25
8 20 -9z m1954 -18 c10 -12 7 -38 -11 -130 -19 -95 -27 -115 -41 -115 -23 0
-23 27 -3 135 26 137 28 142 55 110z m-2091 -206 c-23 -84 -46 -172 -51 -194
-12 -52 -24 -64 -45 -42 -15 15 -14 26 27 164 23 81 47 163 52 181 11 38 51
81 56 60 1 -8 -16 -84 -39 -169z m2170 38 c-11 -51 -21 -98 -24 -104 -6 -17
-51 1 -46 19 2 7 12 51 23 98 26 118 25 116 47 96 18 -16 18 -19 0 -109z
m-2243 46 c-49 -173 -80 -270 -87 -277 -6 -6 -13 -6 -20 1 -16 16 46 253 73
276 11 9 25 17 30 17 5 0 7 -8 4 -17z m2333 -27 c-2 -53 -25 -170 -35 -173 -6
-2 -16 3 -23 10 -8 11 -7 33 5 93 8 43 17 85 19 91 7 20 35 3 34 -21z m-809 3
c118 -14 177 -28 400 -93 220 -64 294 -96 457 -198 93 -58 112 -73 101 -84
-23 -22 -224 -124 -245 -124 -11 0 -80 22 -154 49 -197 73 -210 75 -354 75
-244 -2 -370 -39 -731 -216 l-183 -89 -93 22 c-178 42 -327 103 -505 211 -45
27 -85 53 -88 59 -22 35 364 260 480 280 33 5 125 28 205 49 144 39 186 45
267 42 51 -2 89 -33 158 -126 26 -35 56 -67 68 -70 46 -12 40 14 -22 95 -34
44 -60 83 -58 86 3 2 32 13 64 23 68 22 117 24 233 9z m-1640 -31 c0 -19 -27
-129 -39 -160 -13 -35 -41 -27 -41 11 1 51 26 133 45 147 23 17 35 18 35 2z
m395 -109 c-10 -44 -22 -79 -27 -79 -12 0 -10 24 7 94 22 84 26 95 32 77 3 -8
-2 -49 -12 -92z m2125 73 c0 -40 -20 -145 -30 -155 -17 -18 -20 16 -9 98 8 59
16 85 26 85 8 0 13 -11 13 -28z m-2630 -14 c0 -25 -12 -58 -21 -58 -10 0 -12
53 -2 63 10 11 23 8 23 -5z m595 -40 c-9 -41 -38 -69 -43 -40 -5 28 16 72 34
72 12 0 14 -7 9 -32z m2108 -65 c-7 -86 -16 -105 -38 -83 -13 13 -13 25 -5 75
19 109 19 110 35 94 11 -11 13 -31 8 -86z m4935 74 c29 -8 65 -26 80 -40 27
-25 146 -87 169 -87 6 0 17 -17 24 -37 23 -72 52 -118 118 -186 115 -120 229
-167 402 -167 l97 0 40 -62 c118 -185 168 -401 143 -629 -16 -146 -42 -231
-117 -387 -56 -115 -74 -143 -132 -200 -120 -119 -260 -168 -404 -144 -94 16
-169 56 -533 282 -225 140 -326 188 -565 267 -440 146 -502 163 -653 180 -355
40 -552 15 -1086 -136 -255 -73 -435 -114 -622 -143 -210 -33 -581 -33 -789 0
-612 97 -1114 303 -1631 668 -275 195 -404 264 -574 309 -63 16 -140 13 -182
-9 -18 -9 -11 -11 45 -12 61 -1 175 -24 190 -38 3 -3 2 -9 -2 -13 -10 -10
-466 -10 -489 -1 -17 7 -17 9 1 28 10 11 59 38 108 59 49 21 127 57 174 78 47
22 116 50 153 62 l68 23 79 -21 c43 -11 84 -22 91 -23 7 -2 14 4 16 13 3 11
-7 20 -28 28 -57 20 -19 31 107 32 134 1 168 -5 309 -57 55 -20 122 -43 149
-51 27 -8 72 -28 100 -43 91 -51 558 -262 677 -306 152 -56 325 -98 578 -140
407 -67 614 -71 841 -14 336 83 909 301 1420 540 215 100 245 114 410 180 219
88 297 113 319 100 29 -15 37 -13 69 18 30 30 126 56 317 87 117 19 436 14
513 -8z m-4866 -106 c-2 -28 1 -58 7 -65 14 -16 -11 -41 -33 -33 -11 4 -12 14
-5 44 5 21 9 55 9 76 0 26 4 37 13 34 8 -2 11 -20 9 -56z m-1182 -1155 c973
-124 1799 -554 2307 -1201 207 -263 362 -597 422 -905 22 -114 46 -364 36
-379 -10 -17 -172 -114 -341 -204 -153 -82 -442 -217 -464 -217 -5 0 -10 10
-10 23 0 37 -36 84 -73 96 -28 10 -42 9 -70 -3 -49 -20 -64 -49 -71 -136 -4
-41 -10 -107 -15 -147 -10 -84 3 -597 19 -728 17 -143 41 -268 57 -293 16 -25
20 -27 150 -73 l93 -32 -43 -27 c-128 -81 -150 -197 -66 -345 33 -59 36 -87
13 -106 -14 -12 -34 -4 -150 55 -117 61 -139 69 -187 68 -127 -1 -182 -67
-201 -239 -6 -60 -16 -107 -21 -107 -13 2 -55 84 -78 151 -20 60 -99 152 -166
195 -48 30 -123 38 -174 19 -24 -9 -125 -75 -196 -126 -19 -14 -47 -25 -62
-25 -54 0 -37 64 52 205 21 33 50 93 64 133 26 71 26 77 15 160 -27 212 -81
446 -144 629 -13 39 -22 73 -20 75 9 10 -57 145 -80 162 -24 18 -32 19 -113 8
-379 -53 -591 -67 -1013 -67 -367 0 -515 8 -800 41 -169 20 -181 16 -216 -63
-74 -167 -182 -529 -224 -753 -25 -132 -28 -205 -12 -306 15 -95 35 -144 99
-237 29 -43 53 -82 53 -88 0 -21 -30 -6 -96 46 -104 84 -191 96 -275 41 -54
-36 -78 -91 -79 -176 0 -72 -8 -110 -21 -110 -10 0 -43 46 -103 140 -93 148
-214 173 -359 73 -39 -26 -93 -74 -121 -105 -28 -32 -56 -58 -63 -58 -21 0
-15 72 12 157 31 97 31 121 2 164 -31 47 -73 72 -162 100 -41 12 -74 28 -72
33 5 15 70 51 136 76 145 55 174 125 140 335 -37 226 -86 428 -197 805 -17 58
-45 155 -62 216 -16 61 -37 124 -45 140 -8 16 -15 34 -15 41 0 6 -14 23 -31
37 -34 29 -76 33 -117 12 -27 -14 -35 -11 -157 48 -187 90 -485 260 -510 291
-16 19 1 228 30 375 80 407 285 784 605 1114 525 541 1287 894 2155 995 238
28 266 29 575 25 207 -3 307 -9 460 -28z m-5600 -530 c0 -25 66 -229 114 -350
251 -640 768 -1253 1431 -1696 88 -59 95 -65 95 -96 0 -36 54 -98 120 -136 35
-21 67 -39 71 -40 3 -2 10 -13 13 -25 7 -22 5 -23 -60 -23 -102 0 -180 -26
-230 -76 -46 -46 -59 -84 -49 -144 9 -55 74 -149 129 -189 78 -55 55 -60 -84
-18 -98 30 -198 33 -246 9 -71 -36 -121 -109 -147 -212 -7 -28 -17 -51 -23
-52 -13 -2 -60 97 -75 157 -17 72 -61 154 -106 197 -37 35 -125 88 -147 88
-15 0 -273 105 -289 118 -6 5 -61 35 -122 65 -240 122 -448 278 -686 516 -395
394 -577 729 -611 1119 -27 314 38 579 165 676 107 82 302 121 620 125 93 1
117 -2 117 -13z m10742 -10 c223 -40 402 -211 474 -452 51 -173 32 -418 -49
-634 -81 -215 -209 -403 -398 -585 -264 -254 -558 -444 -1073 -695 -283 -138
-475 -221 -756 -325 -377 -139 -389 -145 -404 -174 -7 -14 -30 -80 -50 -146
-21 -66 -42 -133 -48 -150 -5 -16 -12 -85 -15 -152 -5 -95 -9 -123 -19 -123
-20 0 -51 56 -64 114 -21 100 -83 155 -175 156 -43 0 -69 -14 -122 -63 l-33
-31 0 25 c0 13 9 61 20 107 11 46 20 98 20 115 0 44 -33 94 -75 114 -30 14
-43 15 -98 5 -66 -12 -137 -16 -137 -7 0 3 29 33 64 68 80 78 96 121 77 205
-34 147 -27 161 101 227 51 26 120 67 153 90 33 23 119 72 190 109 305 157
659 429 962 739 378 387 653 823 799 1265 19 57 38 111 43 121 6 11 42 25 99
40 189 49 373 62 514 37z m-13586 -1477 c46 -28 106 -114 144 -206 19 -45 50
-162 76 -282 24 -113 55 -238 69 -277 91 -252 314 -266 544 -35 89 89 164 192
270 371 80 133 104 160 148 160 68 0 166 -67 238 -161 77 -103 125 -223 169
-422 8 -32 20 -26 -219 -103 -213 -68 -362 -98 -585 -119 -96 -8 -194 -20
-218 -25 -108 -25 -273 -136 -383 -259 -44 -47 -60 -75 -73 -121 -19 -66 -15
-109 30 -300 13 -58 33 -143 43 -190 21 -92 37 -210 28 -210 -7 0 -273 508
-342 654 -165 349 -255 808 -216 1100 23 167 97 354 166 414 42 37 65 40 111
11z m15540 -295 c21 -10 45 -35 62 -63 25 -42 27 -55 26 -141 -1 -65 -13 -155
-37 -280 -20 -102 -50 -255 -66 -340 -47 -240 -125 -521 -177 -630 -49 -103
-131 -240 -143 -240 -5 0 -11 27 -14 60 -9 80 -37 131 -99 181 -95 75 -339
188 -688 319 -239 90 -573 233 -577 247 -2 6 42 43 98 83 118 84 206 170 344
335 121 145 194 218 252 252 43 25 44 25 65 7 25 -24 34 -46 63 -163 30 -117
58 -161 126 -195 61 -30 88 -32 151 -11 95 33 208 152 361 383 85 127 118 163
182 196 36 19 30 19 71 0z m-12768 -586 c155 -117 456 -288 506 -288 8 0 70
-23 138 -51 68 -28 145 -58 171 -66 54 -17 117 -73 117 -104 0 -20 -4 -20 -97
-15 -111 7 -599 22 -994 32 -190 4 -273 3 -288 -5 -26 -14 -28 -57 -3 -69 9
-5 175 -12 367 -16 193 -4 467 -11 610 -16 143 -5 299 -10 347 -12 l88 -2 49
-100 c131 -268 281 -302 361 -83 9 26 11 27 26 13 8 -9 19 -16 23 -16 16 0 40
37 80 120 23 47 46 85 51 84 6 -1 19 -2 30 -2 11 -1 20 -7 20 -14 0 -6 -27
-70 -60 -140 -33 -71 -60 -138 -60 -149 0 -23 27 -36 47 -23 7 5 43 73 80 152
61 131 68 142 93 142 15 0 29 -3 32 -6 7 -6 -11 -49 -73 -183 -22 -46 -42 -93
-45 -105 -7 -29 21 -54 44 -40 8 6 48 82 87 169 62 135 78 163 110 185 21 15
48 44 60 66 20 36 65 61 65 35 0 -5 -34 -86 -75 -180 -41 -94 -75 -180 -75
-190 0 -21 22 -33 44 -25 8 3 54 96 103 206 92 209 99 218 159 218 13 0 24 -3
24 -7 0 -5 -30 -75 -67 -156 -52 -116 -64 -152 -56 -165 5 -10 19 -17 29 -17
22 0 30 15 122 222 58 130 65 141 93 145 16 3 31 3 33 1 2 -3 -23 -60 -56
-128 -33 -68 -58 -132 -56 -142 2 -12 12 -18 28 -18 22 0 34 17 102 155 l78
155 51 13 c28 7 54 11 57 8 2 -3 -21 -68 -53 -145 -32 -78 -55 -147 -51 -156
4 -11 15 -15 33 -13 23 2 31 13 51 63 63 158 85 206 92 198 4 -4 15 -34 24
-65 15 -53 15 -59 -1 -92 -13 -29 -14 -38 -3 -51 7 -8 21 -15 31 -15 11 0 19
-4 19 -10 0 -5 -6 -10 -14 -10 -20 0 -142 -82 -323 -216 -310 -231 -533 -363
-1008 -599 -361 -178 -563 -269 -875 -390 -124 -48 -295 -115 -381 -150 -86
-35 -232 -88 -325 -118 -189 -61 -1075 -317 -1099 -317 -8 0 -72 37 -142 82
-321 205 -433 301 -543 463 -121 179 -163 306 -190 570 -11 105 -22 201 -25
215 -2 14 -9 86 -15 161 -14 177 0 255 60 336 94 123 215 181 608 289 91 25
269 78 396 119 127 40 287 90 356 110 69 20 190 57 270 82 144 46 467 141 483
142 5 1 52 -32 105 -71z m2173 -8 c10 -6 19 -15 19 -21 0 -14 -137 -328 -156
-356 -11 -18 -24 -23 -54 -23 -36 0 -40 3 -40 25 0 13 22 70 48 127 41 85 54
105 80 116 41 18 76 67 76 109 0 37 0 37 27 23z m133 -65 c20 -9 35 -19 33
-23 -2 -4 -30 -67 -63 -141 -61 -138 -72 -151 -130 -151 -13 0 -24 4 -24 9 0
7 125 294 137 314 6 9 5 9 47 -8z m7847 -94 c68 -27 151 -61 184 -76 33 -15
155 -62 270 -105 116 -43 282 -110 370 -148 824 -357 1029 -484 1116 -692 37
-87 78 -277 86 -398 5 -85 4 -98 -21 -160 -33 -85 -110 -171 -294 -329 -75
-65 -202 -181 -282 -258 -192 -185 -299 -256 -685 -455 -186 -96 -246 -124
-745 -348 -135 -61 -366 -170 -515 -242 -372 -182 -369 -181 -735 -266 -85
-20 -249 -62 -365 -95 -248 -70 -727 -178 -945 -214 -397 -64 -472 -70 -902
-67 -418 3 -502 -3 -693 -48 -450 -106 -806 -141 -1465 -142 -493 -1 -931 20
-1210 58 -703 95 -1241 210 -1930 412 -118 35 -166 53 -168 65 -2 10 67 89
180 204 101 103 210 224 243 268 64 85 365 567 503 805 46 80 145 269 219 420
75 151 137 277 139 279 2 2 17 -8 34 -22 31 -26 86 -47 126 -47 24 0 85 -19
98 -30 4 -5 -2 -39 -15 -77 -34 -99 -31 -178 7 -240 50 -80 136 -116 221 -92
38 10 65 31 144 110 137 138 152 139 226 11 21 -37 61 -90 88 -118 85 -89 164
-95 252 -19 51 43 72 95 80 197 3 43 10 81 14 84 4 2 31 -16 58 -40 100 -89
237 -128 311 -89 47 24 74 95 67 174 -5 62 -19 93 -83 189 -61 91 -71 138 -56
247 24 172 55 307 73 320 9 7 61 80 115 163 54 82 101 150 106 150 4 0 12 -18
19 -39 11 -37 10 -43 -23 -98 -94 -157 -104 -193 -55 -193 18 0 32 16 68 77
24 42 49 78 54 80 15 5 45 -79 38 -109 -4 -22 -1 -30 20 -39 17 -8 44 -48 88
-133 309 -589 893 -1383 1198 -1628 183 -147 266 -183 266 -114 0 26 -11 37
-85 88 -126 86 -265 212 -375 340 -131 152 -417 534 -557 743 -166 249 -369
595 -434 743 l-23 53 88 187 89 187 38 0 c24 0 38 -4 37 -11 -1 -7 -43 -111
-94 -233 -52 -125 -89 -227 -85 -236 4 -11 15 -15 32 -13 24 3 34 22 127 246
l100 242 38 0 c22 0 39 -3 39 -7 0 -4 -36 -110 -81 -235 -66 -186 -79 -231
-69 -243 16 -19 34 -19 49 -1 6 7 49 119 95 247 l84 234 41 3 c47 4 49 -2 27
-70 -55 -165 -117 -383 -114 -401 2 -16 10 -22 28 -22 27 0 27 0 140 363 l41
132 40 0 c49 0 51 25 -28 -264 -30 -110 -53 -211 -51 -225 3 -27 32 -41 49
-24 5 5 40 122 77 259 l67 249 38 3 c20 2 37 1 37 -2 0 -2 -25 -106 -55 -230
-30 -124 -52 -233 -48 -241 3 -10 15 -15 32 -13 29 3 25 -9 109 338 l37 155
38 3 c21 2 37 -1 37 -7 0 -10 -48 -229 -85 -384 -17 -74 -11 -97 25 -97 24 0
24 1 84 265 l53 230 31 3 c18 2 32 1 32 -2 0 -7 -48 -305 -61 -384 -11 -63
-11 -74 2 -87 17 -17 44 -12 52 9 3 7 22 115 43 241 26 157 42 229 52 233 8 3
31 -12 54 -35 l39 -40 -10 -74 c-45 -308 -44 -300 -27 -317 40 -40 59 15 90
271 4 33 12 57 19 57 7 0 29 -15 50 -33 l39 -32 -12 -118 c-13 -129 -10 -147
18 -147 31 0 40 20 47 110 4 47 9 88 12 92 3 6 29 -7 92 -49 7 -4 32 -133 56
-291 l25 -164 -26 -41 c-14 -23 -41 -67 -60 -97 -48 -77 -67 -147 -62 -233 4
-66 6 -72 41 -102 45 -39 96 -55 176 -55 70 0 104 14 196 84 33 25 74 53 91
62 31 17 33 17 65 -10 38 -32 79 -92 79 -117 0 -30 69 -154 115 -206 77 -88
152 -91 248 -12 50 41 57 62 68 198 5 63 13 119 19 125 8 8 22 4 48 -12 20
-12 79 -43 131 -67 119 -57 178 -61 257 -15 66 37 94 83 101 161 7 70 -6 69
138 9 118 -49 380 -140 405 -140 9 0 25 9 34 19 32 35 7 57 -105 91 -128 40
-296 105 -426 165 -85 40 -104 52 -112 77 -15 42 -2 61 66 93 99 46 135 94
135 178 0 61 -24 98 -78 114 -21 7 -78 24 -126 38 -48 15 -89 33 -92 41 -3 8
-8 43 -12 79 -5 48 -3 73 9 97 8 18 23 70 32 116 14 61 22 82 34 82 42 -1 43
-12 10 -145 -31 -122 -31 -129 -14 -141 35 -26 51 -2 85 135 31 127 32 129 62
135 38 7 43 4 29 -21 -12 -24 -81 -295 -81 -320 0 -11 5 -24 12 -31 21 -21 47
6 64 66 l17 57 21 -45 c19 -41 27 -47 79 -64 50 -16 63 -17 103 -6 24 7 64 28
87 46 23 19 45 34 49 34 3 0 11 -23 18 -50 14 -59 90 -149 151 -181 81 -41
215 -11 249 56 11 21 17 78 21 190 5 139 9 172 34 248 l29 88 35 -5 c20 -3
154 -20 299 -37 l263 -33 20 21 c17 16 19 25 10 41 -13 25 -16 25 -241 53
-102 12 -189 25 -193 29 -5 4 20 18 55 30 295 108 700 280 905 384 60 30 115
55 124 55 9 1 72 -21 140 -48z m-7706 25 c18 -13 17 -17 -26 -110 -40 -88 -47
-96 -77 -102 -18 -4 -35 -4 -38 -2 -2 3 10 36 27 74 17 38 39 88 50 112 19 44
33 51 64 28z m-652 -56 c-7 -25 -19 -34 -28 -20 -10 16 2 40 19 40 9 0 12 -7
9 -20z m147 11 c0 -5 -12 -34 -26 -65 -26 -58 -46 -68 -67 -35 -7 11 -5 29 8
62 16 43 21 47 51 47 19 0 34 -4 34 -9z m5800 -28 c0 -63 -12 -103 -31 -103
-27 0 -31 15 -19 62 17 65 18 68 35 68 10 0 15 -9 15 -27z m-5200 -84 c0 -16
-57 -36 -68 -24 -3 3 5 27 18 53 l23 47 13 -30 c7 -16 13 -37 14 -46z m5080
45 c0 -8 -5 -12 -10 -9 -6 4 -8 11 -5 16 9 14 15 11 15 -7z m58 -161 c-5 -25
-28 -28 -28 -4 0 12 6 21 16 21 9 0 14 -7 12 -17z m-6208 -157 c0 -11 -63
-137 -71 -142 -19 -11 19 104 42 133 11 12 29 18 29 9z m4633 -103 c-5 -57
-10 -73 -20 -73 -15 0 -83 71 -83 86 0 18 34 33 76 33 l32 1 -5 -47z m1522
-16 c-10 -50 -25 -37 -25 21 0 42 1 45 16 31 11 -12 14 -26 9 -52z m-3289 -13
c5 -28 -4 -47 -70 -148 -41 -64 -78 -116 -80 -116 -10 0 78 259 106 314 10 19
11 19 24 1 8 -10 16 -33 20 -51z m189 36 c7 -11 -53 -120 -66 -120 -19 0 -21
68 -3 99 18 31 56 42 69 21z m139 -9 c3 -5 -25 -74 -62 -152 l-69 -144 -16 32
c-10 18 -17 41 -17 51 0 17 86 177 112 210 12 14 44 16 52 3z m1536 -143 c0
-26 -29 -11 -36 18 -3 13 -3 32 1 41 6 15 9 13 21 -12 7 -16 13 -38 14 -47z
m-3425 -385 c13 -70 20 -131 17 -134 -10 -10 -155 -69 -159 -65 -2 2 5 25 16
52 10 27 33 99 51 159 40 140 41 143 47 128 2 -6 15 -69 28 -140z"/>
<path d="M6234 12449 c-97 -12 -232 -57 -325 -109 -221 -121 -363 -294 -441
-536 -29 -92 -31 -109 -31 -239 0 -131 2 -146 32 -239 101 -305 321 -515 641
-612 87 -26 108 -29 250 -29 147 0 160 2 265 34 312 95 530 307 628 608 29 92
31 107 31 243 0 137 -2 150 -33 244 -18 55 -52 133 -75 174 -180 322 -565 511
-942 461z m485 -207 c5 -9 16 -44 25 -77 12 -49 23 -67 58 -98 24 -21 53 -40
65 -43 47 -13 28 -49 -37 -69 -54 -16 -112 -77 -147 -152 -44 -95 -66 -99 -81
-14 -15 81 -44 136 -109 203 -32 32 -54 62 -51 70 4 8 24 14 52 16 25 1 64 11
85 22 54 27 78 60 105 143 7 22 23 22 35 -1z m281 -247 c15 -19 6 -47 -14 -39
-17 6 -29 32 -20 45 8 13 20 11 34 -6z m90 -14 c0 -23 -37 -38 -54 -21 -8 8
-6 15 8 26 27 20 46 18 46 -5z m-72 -67 c-5 -25 -35 -41 -49 -27 -9 9 -9 16 1
28 17 21 52 20 48 -1z m82 -19 c0 -18 -14 -27 -34 -19 -16 6 -22 35 -10 47 10
10 44 -12 44 -28z m-776 -20 c3 -8 3 -22 -1 -30 -3 -9 2 -22 12 -29 19 -14 13
-36 -9 -36 -7 0 -18 -11 -24 -25 -15 -33 -42 -33 -42 0 0 18 -7 28 -26 35 -32
12 -27 34 9 38 18 2 32 13 42 33 17 32 30 37 39 14z m-304 -461 c0 -16 -134
-520 -140 -527 -4 -4 -17 1 -31 11 -19 16 -21 22 -11 35 7 8 38 116 68 239 30
122 56 229 59 236 4 12 55 18 55 6z m100 -29 c8 -24 9 -40 2 -48 -11 -13 -66
-196 -60 -202 2 -2 16 -5 32 -7 26 -3 29 1 46 55 10 32 20 61 23 63 2 3 12 -7
21 -21 16 -24 16 -29 0 -87 -17 -58 -17 -61 1 -74 31 -23 41 -17 56 34 11 35
20 48 37 50 26 4 28 -9 7 -69 -17 -47 -9 -62 30 -57 15 2 25 19 40 60 17 52
39 77 53 63 3 -2 -2 -30 -11 -61 -9 -31 -14 -61 -11 -65 3 -5 17 -9 32 -9 25
0 29 6 55 93 15 50 28 96 27 100 0 5 16 29 35 54 19 25 35 42 35 36 0 -5 -20
-78 -45 -163 -40 -137 -44 -157 -34 -191 15 -49 5 -86 -35 -124 -19 -17 -37
-41 -40 -53 -10 -32 -57 -31 -53 1 2 17 -4 23 -25 25 -22 3 -30 -2 -38 -22 -6
-17 -17 -26 -31 -26 -18 0 -20 4 -14 29 5 25 3 29 -20 35 -32 8 -45 1 -45 -25
0 -15 -6 -20 -22 -17 -18 2 -22 10 -23 37 0 26 -5 36 -23 42 -20 8 -25 5 -34
-21 -6 -19 -17 -30 -28 -30 -27 0 -31 12 -18 54 11 35 10 39 -13 57 -13 10
-27 19 -30 19 -4 0 -12 -20 -18 -45 -11 -43 -23 -56 -36 -35 -3 5 1 32 9 59 9
31 13 70 9 103 -5 47 -2 57 23 89 22 26 39 74 68 182 21 81 42 147 47 147 4 0
13 -16 19 -35z m-230 13 c0 -6 -23 -108 -52 -225 -50 -205 -67 -244 -85 -197
-5 13 81 404 94 427 7 12 43 8 43 -5z m-120 -14 c0 -25 -71 -318 -80 -327 -12
-13 -52 44 -41 57 5 6 23 67 41 136 17 69 33 131 35 138 6 18 45 15 45 -4z
m940 -13 c0 -9 -7 -36 -14 -61 -128 -413 -166 -537 -166 -547 0 -7 -9 -13 -20
-13 -12 0 -20 7 -20 16 0 9 24 98 54 198 30 99 69 231 87 291 17 61 36 118 40
127 11 21 39 13 39 -11z m-1060 -3 c0 -14 -41 -171 -47 -177 -2 -3 -8 0 -14 6
-13 13 17 164 35 175 16 11 26 10 26 -4z m1177 -3 c3 -9 -33 -132 -80 -273
-47 -141 -87 -268 -89 -282 -2 -19 -10 -26 -30 -28 -20 -2 -27 1 -23 10 2 7
43 138 90 292 47 153 88 282 91 287 9 14 34 10 41 -6z m123 -23 c0 -4 -32
-102 -70 -217 -39 -116 -69 -222 -68 -237 2 -23 -4 -31 -36 -49 -21 -11 -40
-18 -43 -15 -3 3 34 122 82 265 81 245 88 261 111 261 13 0 24 -3 24 -8z m105
-22 c5 -8 -63 -206 -106 -308 -5 -13 -6 -28 -3 -34 7 -11 -45 -70 -57 -63 -6
4 85 294 126 403 5 14 31 16 40 2z m115 -46 c0 -19 -71 -151 -100 -186 -29
-35 -25 -8 16 104 32 87 39 98 60 98 16 0 24 -6 24 -16z"/>
<path d="M12197 12038 c-344 -31 -629 -248 -733 -558 -26 -78 -28 -97 -28
-225 0 -125 3 -149 28 -224 84 -254 289 -446 566 -529 76 -23 102 -26 245 -26
148 0 167 2 250 28 280 88 476 271 561 526 26 77 28 98 29 225 0 128 -2 147
-29 225 -123 362 -493 594 -889 558z m403 -144 c6 -14 10 -37 10 -51 0 -14 7
-50 16 -81 13 -46 27 -67 70 -107 30 -28 54 -56 54 -63 0 -7 -29 -26 -63 -41
-54 -24 -71 -38 -108 -91 -73 -104 -97 -106 -105 -5 -3 42 -11 67 -29 91 -25
33 -93 84 -127 97 -10 4 -18 15 -18 26 0 15 10 20 58 26 31 4 71 13 88 20 31
13 66 59 79 105 14 50 40 99 53 100 7 0 17 -12 22 -26z m254 -257 c7 -11 7
-20 0 -27 -15 -15 -49 13 -41 34 8 20 26 17 41 -7z m91 -26 c0 -22 -32 -38
-46 -24 -9 9 -9 16 1 28 15 19 45 16 45 -4z m-65 -43 c0 -16 -31 -48 -47 -48
-23 0 -27 30 -7 45 23 17 54 19 54 3z m62 -25 c20 -18 23 -38 7 -48 -14 -9
-49 24 -49 47 0 22 18 23 42 1z m-668 -67 c3 -13 15 -26 26 -29 27 -7 25 -25
-4 -37 -13 -5 -26 -20 -30 -35 -9 -34 -40 -30 -44 5 -2 14 -13 32 -24 41 -23
18 -17 39 11 39 10 0 21 9 24 20 7 28 34 25 41 -4z m-384 -319 c0 -12 -167
-397 -176 -406 -3 -3 -14 5 -26 16 l-21 21 22 23 c11 12 21 26 21 30 0 11 131
301 143 317 12 16 37 16 37 -1z m140 6 c0 -3 -6 -14 -13 -22 -15 -18 -110
-241 -105 -246 2 -2 18 0 37 4 31 6 37 13 62 71 15 35 32 66 37 68 20 6 24
-62 7 -106 -17 -40 -17 -44 0 -62 24 -27 32 -25 50 10 16 31 45 41 45 16 0 -8
-5 -27 -11 -43 -8 -23 -7 -30 8 -40 27 -20 45 -12 58 27 7 20 20 37 30 39 18
3 19 -13 3 -79 -2 -10 7 -16 29 -18 30 -3 32 -1 47 52 11 38 28 66 54 90 20
20 38 32 40 28 1 -4 -9 -41 -23 -82 -14 -40 -25 -79 -25 -85 0 -9 40 -35 54
-35 1 0 27 79 57 175 54 174 62 189 96 167 8 -5 4 -32 -17 -97 -57 -184 -83
-271 -96 -325 -31 -133 -49 -154 -115 -131 -24 8 -37 7 -59 -4 -36 -19 -32
-19 -60 5 -24 21 -70 27 -70 10 0 -5 -11 -10 -25 -10 -18 0 -25 5 -25 20 0 30
-41 43 -60 20 -22 -26 -54 -11 -55 25 0 15 -8 33 -18 39 -15 9 -21 7 -36 -13
-15 -20 -21 -22 -39 -12 -26 14 -25 10 -11 49 8 25 7 35 -6 56 -10 14 -21 26
-25 26 -4 0 -14 -18 -23 -41 -14 -36 -18 -39 -36 -30 -29 16 -35 30 -19 49 8
9 57 113 108 230 90 205 94 212 121 212 16 0 29 -3 29 -7z m-260 -10 c1 -22
-135 -313 -144 -310 -25 8 -14 52 46 181 46 98 68 136 81 136 9 0 17 -3 17 -7z
m-120 -12 c0 -18 -79 -181 -88 -181 -5 0 -14 12 -21 26 -10 23 -9 28 8 40 11
8 31 39 45 69 15 32 31 55 40 55 9 0 16 -4 16 -9z m-120 -15 c0 -15 -14 -35
-21 -30 -15 9 -10 34 6 34 8 0 15 -2 15 -4z m1148 -79 c8 -9 -5 -63 -48 -204
-32 -105 -64 -209 -70 -232 -8 -31 -17 -42 -36 -47 -14 -4 -27 -4 -30 -1 -5 4
41 164 113 392 13 44 26 86 28 93 6 16 30 16 43 -1z m101 -56 c22 -14 -84
-347 -117 -369 -12 -8 -25 -13 -27 -10 -4 4 89 320 110 376 5 14 15 15 34 3z
m95 -100 c-4 -20 -7 -55 -7 -79 0 -38 -5 -47 -41 -78 -22 -19 -42 -31 -44 -26
-2 7 26 106 63 219 2 7 11 10 20 7 12 -5 14 -15 9 -43z"/>
<path d="M14536 9064 c-37 -36 -18 -63 97 -140 60 -40 73 -46 96 -38 19 7 27
17 29 41 3 28 -3 36 -82 92 -87 63 -114 72 -140 45z"/>
<path d="M15316 8907 c-115 -37 -140 -60 -112 -102 10 -14 26 -25 39 -25 35 0
220 60 240 78 35 31 9 83 -41 81 -15 0 -71 -15 -126 -32z"/>
<path d="M14145 8923 c-169 -22 -383 -93 -610 -203 -88 -43 -249 -121 -359
-174 -443 -216 -691 -301 -1072 -366 -373 -63 -650 -46 -1041 65 -316 91 -505
172 -1073 462 -209 107 -353 173 -376 173 -8 0 -14 -6 -14 -13 0 -7 48 -35
108 -61 59 -26 220 -107 357 -179 138 -72 331 -168 430 -213 299 -136 661
-250 927 -290 154 -24 432 -24 593 0 447 66 738 166 1297 443 435 215 573 269
776 304 139 23 219 24 343 3 223 -38 373 -89 654 -221 216 -102 215 -101 215
-76 0 16 -35 36 -167 100 -240 113 -242 115 -213 108 14 -3 46 -8 71 -12 42
-5 49 -3 63 19 9 14 14 32 10 41 -7 20 -104 58 -165 64 -40 5 -48 2 -62 -18
-15 -21 -15 -25 -2 -46 18 -27 12 -28 -46 -7 -220 78 -484 118 -644 97z"/>
<path d="M713 5929 c-19 -12 -43 -43 -60 -77 -25 -52 -27 -64 -26 -180 1 -92
4 -127 14 -133 30 -18 39 11 39 125 0 61 5 127 10 147 10 37 43 73 82 93 13 6
23 18 23 26 0 23 -46 23 -82 -1z"/>
<path d="M817 5876 c-7 -17 17 -81 34 -91 6 -4 18 0 26 8 14 14 14 19 -3 54
-20 40 -48 54 -57 29z"/>
<path d="M2056 5649 c-37 -29 -49 -54 -32 -68 9 -8 21 -4 47 15 24 18 42 24
61 20 35 -7 55 16 33 38 -23 22 -77 20 -109 -5z"/>
<path d="M1914 5478 c-34 -46 -83 -117 -109 -158 -26 -41 -88 -116 -138 -167
-61 -62 -88 -97 -84 -107 9 -24 19 -20 75 26 69 55 141 142 219 263 36 55 81
118 100 142 19 23 33 50 31 60 -7 39 -35 22 -94 -59z"/>
<path d="M634 5135 c-3 -8 1 -34 8 -57 11 -32 21 -44 38 -46 21 -3 22 -1 17
30 -9 53 -25 88 -42 88 -9 0 -18 -7 -21 -15z"/>
<path d="M694 4926 c-14 -38 115 -427 150 -448 6 -4 17 -1 25 7 12 11 7 31
-34 131 -26 65 -59 164 -73 221 -21 85 -29 103 -44 103 -10 0 -21 -6 -24 -14z"/>
<path d="M16248 5663 c-63 -25 -46 -64 19 -42 35 11 37 11 68 -26 32 -39 55
-41 55 -5 0 25 -63 90 -86 89 -11 0 -36 -7 -56 -16z"/>
<path d="M16166 5558 c-22 -31 -20 -58 4 -58 21 0 50 46 43 68 -7 19 -30 14
-47 -10z"/>
<path d="M15190 5293 c-55 -64 -99 -124 -98 -132 8 -39 39 -18 128 89 88 104
94 109 114 97 44 -29 66 18 24 47 -45 32 -62 22 -168 -101z"/>
<path d="M15380 5305 c-10 -11 -10 -19 -2 -27 15 -15 44 -2 40 19 -4 23 -22
27 -38 8z"/>
<path d="M16284 5259 c-3 -6 -10 -65 -15 -132 -11 -138 -22 -189 -85 -375 -34
-102 -42 -137 -34 -147 6 -8 18 -11 25 -9 14 6 90 222 120 341 16 66 39 309
29 324 -7 13 -31 11 -40 -2z"/>
<path d="M15835 5154 c-59 -52 -136 -84 -206 -84 -42 0 -50 -3 -47 -17 7 -38
126 -35 206 6 55 28 147 114 138 129 -13 22 -40 12 -91 -34z"/>
<path d="M16090 4508 c-24 -39 -25 -64 -5 -72 19 -7 42 17 50 54 12 56 -15 67
-45 18z"/>
<path d="M2801 12823 c-35 -42 -38 -64 -15 -87 31 -31 68 -15 109 48 16 24 16
28 1 51 -24 37 -58 32 -95 -12z"/>
<path d="M2170 12710 c-7 -13 -7 -26 -1 -37 10 -19 116 -123 189 -186 61 -53
122 -48 122 9 0 23 -8 30 -180 178 -71 61 -111 72 -130 36z"/>
<path d="M2672 12663 c-28 -25 -142 -153 -160 -180 -13 -21 -12 -26 2 -48 29
-44 54 -33 154 72 95 101 107 126 74 156 -24 22 -45 21 -70 0z"/>
<path d="M13380 12514 c-10 -11 -11 -23 -4 -42 9 -25 20 -30 183 -70 139 -35
179 -42 198 -33 28 13 31 51 6 73 -20 17 -296 88 -342 88 -15 0 -34 -7 -41
-16z"/>
<path d="M2313 12322 c-181 -160 -230 -236 -168 -264 16 -7 32 -8 43 -2 10 5
78 71 150 146 102 105 130 141 125 155 -20 53 -61 44 -150 -35z"/>
<path d="M2540 12350 c-15 -28 4 -61 87 -148 42 -45 76 -72 89 -72 25 0 54 29
54 55 0 9 -37 55 -82 101 -64 66 -88 84 -109 84 -18 0 -32 -7 -39 -20z"/>
<path d="M13900 12319 c-17 -32 8 -60 107 -122 136 -84 152 -91 179 -78 24 11
32 44 16 67 -8 13 -158 111 -209 137 -44 23 -80 22 -93 -4z"/>
<path d="M2780 12132 c-29 -23 -21 -64 16 -88 60 -40 105 40 48 85 -33 26 -36
26 -64 3z"/>
<path d="M14335 12050 c-14 -16 -17 -26 -9 -45 13 -36 212 -205 240 -205 27 0
57 39 49 63 -10 25 -224 207 -244 207 -10 0 -26 -9 -36 -20z"/>
<path d="M1986 11990 c-34 -41 -34 -77 -1 -92 21 -10 30 -8 53 9 64 47 67 105
5 111 -24 2 -36 -4 -57 -28z"/>
<path d="M3238 11894 c-15 -8 -30 -25 -32 -37 -3 -12 -17 -82 -32 -156 -31
-159 -81 -319 -126 -405 -22 -41 -64 -93 -132 -161 -123 -122 -216 -178 -333
-201 -139 -28 -153 -33 -173 -67 -25 -40 -25 -64 -1 -103 17 -28 35 -36 159
-77 286 -92 439 -198 584 -402 76 -107 136 -250 197 -475 45 -165 63 -190 131
-190 62 0 102 42 129 134 27 91 64 254 92 401 57 310 137 453 299 535 76 38
195 70 264 70 92 0 148 60 123 133 -16 48 -47 63 -145 71 -49 3 -134 18 -190
31 -183 44 -286 106 -377 226 -52 70 -195 355 -270 542 -39 95 -54 121 -76
133 -35 18 -56 17 -91 -2z m279 -804 c70 -89 164 -167 256 -212 37 -18 66 -36
65 -39 -2 -4 -27 -26 -56 -49 -129 -101 -213 -266 -272 -533 -16 -71 -31 -131
-33 -133 -2 -3 -19 30 -38 72 -103 236 -311 459 -541 579 -32 17 -58 32 -58
35 0 3 28 23 63 45 76 49 202 168 264 249 52 69 103 172 128 261 10 33 20 64
23 69 2 5 35 -54 73 -130 39 -79 93 -171 126 -214z"/>
<path d="M14636 11612 c-12 -15 -18 -48 -23 -145 -7 -137 -1 -157 43 -157 39
0 52 35 60 163 6 105 5 119 -11 137 -23 25 -47 25 -69 2z"/>
<path d="M14578 11123 c-22 -27 -108 -239 -108 -268 0 -31 42 -55 68 -38 22
13 121 239 122 275 0 44 -53 64 -82 31z"/>
<path d="M14338 10683 c-35 -40 -128 -205 -128 -229 0 -31 38 -51 67 -36 26
14 143 208 143 237 0 41 -54 59 -82 28z"/>
<path d="M14126 10388 c-8 -13 -19 -69 -26 -126 -11 -95 -11 -104 5 -122 46
-50 78 -11 98 121 15 92 15 106 1 126 -19 30 -59 30 -78 1z"/>
<path d="M16297 10329 c-68 -71 -132 -104 -187 -95 -20 3 -87 29 -148 56 -95
43 -115 49 -133 40 -24 -13 -23 -27 7 -130 8 -30 18 -106 22 -169 6 -90 10
-116 24 -124 48 -31 67 61 43 211 -9 57 -15 105 -13 108 2 2 42 -13 87 -33 75
-32 90 -35 147 -30 49 3 75 12 112 36 27 17 51 31 54 31 3 0 10 -19 16 -43 6
-23 27 -61 46 -82 29 -34 37 -38 53 -29 28 17 27 39 -4 85 -25 38 -28 52 -28
123 -1 128 -15 134 -98 45z"/>
<path d="M16927 9983 c-26 -30 -107 -187 -107 -209 0 -23 21 -37 44 -28 8 3
29 33 47 67 18 34 43 79 56 99 27 44 30 73 7 82 -24 9 -29 8 -47 -11z"/>
<path d="M14076 9974 c-9 -8 -16 -26 -16 -40 0 -36 70 -295 86 -321 19 -30 59
-30 78 0 14 21 12 36 -24 182 -30 118 -46 165 -61 178 -26 21 -43 22 -63 1z"/>
<path d="M17032 9705 c-67 -15 -92 -29 -92 -51 0 -24 21 -26 123 -14 119 15
139 23 135 53 -3 19 -10 22 -53 24 -27 1 -79 -4 -113 -12z"/>
<path d="M17026 9527 c-24 -18 -15 -44 19 -57 45 -17 212 -25 230 -10 39 33 3
56 -102 65 -48 3 -97 9 -108 11 -11 3 -29 -1 -39 -9z"/>
<path d="M16860 9160 c-31 -19 -14 -110 47 -247 3 -9 -6 -13 -30 -13 -49 0
-108 -23 -176 -69 -63 -43 -78 -65 -60 -87 16 -20 31 -17 70 12 100 76 189 92
269 48 91 -50 120 -6 50 74 -56 62 -100 152 -107 215 -8 72 -26 91 -63 67z"/>
<path d="M1439 7547 c-186 -53 -288 -200 -453 -654 -68 -186 -79 -246 -50
-257 19 -7 41 5 234 135 275 185 420 322 488 458 34 68 37 83 37 157 0 91 -16
126 -69 153 -40 19 -133 23 -187 8z m153 -94 c24 -21 24 -88 0 -151 -38 -100
-132 -207 -286 -326 -106 -82 -229 -166 -244 -166 -19 0 107 328 170 440 59
106 135 180 213 208 48 17 126 14 147 -5z"/>
<path d="M1463 7448 c-13 -6 -23 -20 -23 -31 0 -18 5 -19 47 -13 53 7 68 17
60 40 -7 18 -51 20 -84 4z"/>
<path d="M1348 7373 c-31 -37 -79 -136 -76 -156 6 -42 33 -21 80 63 34 62 44
88 36 97 -14 17 -22 16 -40 -4z"/>
<path d="M16229 6787 c-35 -19 -51 -37 -78 -88 -30 -58 -33 -70 -28 -126 5
-70 52 -175 115 -258 35 -46 41 -50 84 -53 57 -4 65 6 112 140 81 228 66 326
-58 384 -64 30 -92 30 -147 1z m125 -88 c41 -32 46 -50 36 -115 -11 -70 -60
-224 -71 -224 -14 0 -88 133 -100 180 -16 61 -5 116 31 152 34 33 67 36 104 7z"/>
<path d="M16313 6650 c4 -14 7 -28 7 -32 0 -5 6 -8 14 -8 18 0 10 34 -12 52
-13 11 -15 10 -9 -12z"/>
<path d="M16317 6523 c-7 -41 -1 -55 13 -33 12 19 13 70 1 70 -4 0 -11 -17
-14 -37z"/>
</g>
</svg>
