<?xml version="1.0" standalone="no"?>
<!DOCTYPE svg PUBLIC "-//W3C//DTD SVG 20010904//EN"
 "http://www.w3.org/TR/2001/REC-SVG-20010904/DTD/svg10.dtd">
<svg version="1.0" xmlns="http://www.w3.org/2000/svg"
 width="1800.000000pt" height="1500.000000pt" viewBox="0 0 1800.000000 1500.000000"
 preserveAspectRatio="xMidYMid meet">

<g transform="translate(0.000000,1500.000000) scale(0.100000,-0.100000)"
fill="#000000" stroke="none">
<path d="M12202 13093 c-47 -23 -72 -77 -72 -157 0 -36 4 -76 9 -89 8 -20 5
-29 -16 -48 -116 -109 -19 -234 220 -283 215 -45 309 5 293 156 -5 56 -5 57
23 63 82 18 161 108 161 182 0 57 -21 66 -130 60 -111 -6 -183 -33 -249 -92
-24 -22 -45 -34 -50 -29 -4 5 -14 32 -21 59 -21 80 -55 150 -85 173 -33 26
-40 27 -83 5z m84 -48 c14 -22 64 -157 64 -175 0 -4 -30 -10 -67 -13 -38 -3
-78 -9 -89 -12 -26 -8 -34 14 -34 93 0 79 33 132 81 132 19 0 34 -8 45 -25z
m499 -106 c12 -19 -5 -78 -32 -110 -29 -34 -94 -68 -131 -69 -13 0 -38 11 -56
25 -18 14 -54 32 -80 41 -44 15 -46 17 -31 34 24 27 110 70 157 79 63 13 166
13 173 0z"/>
<path d="M12807 12543 c-15 -14 -6 -34 24 -52 33 -20 59 -18 59 4 0 7 -15 23
-34 34 -37 23 -40 24 -49 14z"/>
<path d="M12990 12422 c0 -20 64 -57 81 -47 16 11 10 32 -16 49 -33 22 -65 21
-65 -2z"/>
<path d="M13130 12344 c0 -20 28 -43 53 -44 24 0 22 37 -2 50 -29 15 -51 12
-51 -6z"/>
<path d="M13250 12262 c0 -21 55 -56 76 -48 23 9 16 34 -16 51 -39 20 -60 19
-60 -3z"/>
<path d="M12875 12215 c-5 -2 -22 -6 -37 -9 -20 -5 -28 -13 -28 -28 0 -18 4
-20 41 -15 51 7 69 22 49 41 -8 7 -19 12 -25 11z"/>
<path d="M12943 12194 c-3 -8 -1 -20 6 -27 15 -15 65 3 69 26 3 14 -4 17 -33
17 -23 0 -38 -5 -42 -16z"/>
<path d="M13384 12195 c-4 -10 10 -33 38 -63 25 -26 53 -60 62 -75 22 -32 56
-37 56 -7 0 24 -115 160 -136 160 -8 0 -17 -7 -20 -15z"/>
<path d="M12745 12137 c-23 -36 -30 -83 -12 -90 18 -7 28 5 46 50 22 55 -4 85
-34 40z"/>
<path d="M13020 12133 c1 -30 34 -88 50 -88 21 0 23 27 6 69 -16 39 -56 52
-56 19z"/>
<path d="M12682 12018 c-15 -15 -16 -95 0 -104 19 -12 39 28 36 70 -3 42 -16
54 -36 34z"/>
<path d="M13012 11985 c-31 -34 -34 -65 -7 -65 17 0 77 69 72 83 -8 24 -35 17
-65 -18z"/>
<path d="M13539 12008 c-6 -14 -25 -155 -22 -160 11 -20 42 -7 47 20 16 84 17
114 6 127 -11 13 -28 20 -31 13z"/>
<path d="M12555 11910 c-10 -16 13 -37 53 -45 25 -5 33 -3 38 10 9 22 -6 35
-48 41 -23 4 -38 2 -43 -6z"/>
<path d="M12890 11905 c-17 -20 -4 -35 30 -35 41 0 60 10 60 31 0 15 -7 19
-39 19 -22 0 -44 -6 -51 -15z"/>
<path d="M12430 11895 c-15 -18 -5 -35 20 -35 32 0 50 11 50 31 0 24 -51 27
-70 4z"/>
<path d="M12766 11894 c-9 -24 2 -34 39 -34 38 0 54 24 25 40 -28 15 -57 12
-64 -6z"/>
<path d="M12315 11873 c-60 -31 -74 -43 -69 -58 9 -22 31 -19 81 11 28 16 43
31 41 41 -4 23 -18 25 -53 6z"/>
<path d="M12694 11859 c-8 -14 55 -79 78 -79 30 0 21 37 -15 64 -37 28 -52 32
-63 15z"/>
<path d="M13430 11815 c-12 -15 -7 -45 8 -45 20 0 45 28 39 44 -8 20 -31 21
-47 1z"/>
<path d="M12195 11748 c-23 -56 -22 -73 1 -76 18 -3 25 5 36 40 8 24 13 49 11
56 -8 23 -34 12 -48 -20z"/>
<path d="M12854 11749 c-3 -6 0 -17 7 -25 18 -17 44 -2 36 20 -7 18 -33 21
-43 5z"/>
<path d="M12955 11730 c-11 -17 15 -40 46 -40 35 0 44 13 23 34 -18 18 -60 21
-69 6z"/>
<path d="M13293 11725 c-31 -13 -43 -38 -24 -49 5 -3 29 1 55 10 33 11 46 21
46 35 0 23 -30 25 -77 4z"/>
<path d="M13117 11688 c-7 -21 4 -34 34 -41 29 -7 53 11 40 31 -12 19 -67 26
-74 10z"/>
<path d="M12142 11637 c-6 -7 -16 -34 -23 -61 -10 -39 -9 -50 2 -56 20 -13 34
4 48 59 16 62 2 93 -27 58z"/>
<path d="M12100 11436 c0 -40 14 -53 36 -35 23 19 14 63 -13 67 -20 3 -23 -1
-23 -32z"/>
<path d="M5851 11345 c-243 -44 -432 -154 -687 -402 -152 -146 -238 -284 -290
-460 -21 -73 -25 -110 -26 -213 -1 -163 23 -253 150 -575 l20 -51 -77 -105
c-276 -374 -478 -759 -621 -1185 l-39 -119 -58 2 c-252 8 -343 7 -393 -5 -308
-75 -578 -243 -666 -414 -63 -123 -94 -345 -75 -534 13 -132 73 -379 124 -510
173 -448 336 -715 668 -1100 l87 -102 -146 -52 c-459 -164 -865 -368 -1155
-580 -130 -95 -346 -311 -415 -414 -159 -238 -208 -473 -147 -712 148 -582
924 -1098 2220 -1477 809 -236 1726 -398 2765 -487 307 -26 524 -38 1205 -69
436 -19 1298 1 1865 44 1021 78 1849 201 2625 390 368 90 357 85 406 169 26
46 27 52 13 77 -8 16 -176 154 -386 318 -205 160 -546 426 -758 592 -212 165
-410 320 -440 343 -99 76 -294 229 -325 254 l-30 25 40 -7 c22 -4 306 -68 630
-142 603 -138 983 -223 1830 -408 264 -58 566 -126 670 -151 545 -129 497
-121 567 -95 46 17 73 38 150 118 226 236 328 456 328 706 0 510 -504 997
-1435 1389 -71 30 -185 73 -252 97 -68 23 -123 47 -123 52 0 4 11 26 25 48 55
87 210 411 276 577 71 179 143 500 155 695 16 260 -70 566 -223 796 -201 303
-458 385 -845 271 -54 -16 -100 -29 -102 -29 -3 0 -8 17 -12 38 -36 210 -109
497 -167 659 -103 284 -319 616 -541 831 l-96 93 18 27 c84 120 159 319 197
527 25 131 16 347 -18 470 -40 142 -64 199 -127 294 -64 97 -149 189 -224 240
-81 56 -246 128 -371 163 -117 32 -125 33 -315 33 -208 -1 -282 -9 -475 -55
-139 -33 -193 -53 -330 -122 -252 -128 -404 -278 -490 -484 -16 -38 -30 -70
-30 -72 -1 -1 -42 13 -91 32 -211 82 -409 132 -644 165 -305 42 -362 46 -685
46 -424 -1 -686 -27 -1179 -116 -120 -22 -220 -38 -221 -37 -1 2 -18 40 -38
86 -56 131 -95 190 -192 287 -104 104 -213 173 -375 236 -248 98 -495 131
-699 94z m372 -171 c160 -27 342 -97 469 -180 136 -87 214 -189 288 -371 41
-103 51 -118 91 -139 40 -20 58 -19 333 31 742 134 1259 152 1856 64 222 -33
455 -99 663 -190 50 -21 99 -39 109 -39 40 0 66 30 88 103 72 239 205 386 467
516 179 89 350 131 611 151 220 17 393 -15 588 -110 203 -98 326 -258 390
-506 23 -91 25 -112 21 -254 -4 -135 -9 -170 -37 -270 -37 -136 -109 -291
-173 -376 -49 -64 -59 -105 -34 -136 6 -9 41 -40 77 -69 239 -195 494 -567
599 -876 89 -260 157 -617 182 -943 29 -389 -47 -750 -272 -1292 -250 -600
-602 -1051 -1014 -1296 -62 -37 -71 -40 -77 -24 -4 9 -23 71 -43 137 -49 160
-95 277 -165 415 -331 664 -914 1222 -1650 1582 -91 44 -192 91 -225 104 -33
13 -131 52 -218 87 l-159 64 42 7 c66 10 146 53 186 99 34 40 36 45 32 102 -4
64 -21 104 -92 224 -24 40 -46 84 -49 97 -4 24 -4 24 62 18 36 -3 105 -17 152
-30 99 -28 143 -22 137 19 -3 22 -7 22 -173 28 -168 6 -237 17 -360 57 -129
42 -325 129 -325 144 0 4 -4 8 -9 8 -5 0 -71 29 -145 65 -171 82 -234 100
-356 98 -94 -1 -119 -5 -515 -88 -264 -55 -330 -66 -473 -74 -137 -8 -171 -20
-152 -50 7 -13 18 -12 82 2 40 9 132 26 203 37 144 22 355 62 455 85 211 50
326 66 430 62 65 -2 124 -10 155 -21 91 -33 311 -146 338 -174 50 -52 68 -129
77 -317 7 -179 24 -251 71 -301 19 -20 26 -40 12 -31 -5 3 -73 12 -153 21 -80
9 -217 25 -305 36 -1038 122 -1970 -182 -2560 -837 -278 -307 -448 -673 -513
-1103 l-8 -55 -130 130 c-189 189 -489 597 -580 789 -175 370 -222 806 -148
1391 55 437 187 808 450 1267 109 190 257 404 321 464 31 30 33 36 33 97 0 54
-9 87 -55 208 -85 222 -105 304 -105 435 0 245 90 410 348 640 163 146 302
225 464 265 93 22 273 24 391 3z m-2059 -3106 l78 -12 -6 -35 c-7 -39 -40
-303 -55 -441 -31 -268 3 -695 75 -947 l26 -92 -56 -168 c-31 -92 -56 -171
-56 -176 0 -4 6 -7 14 -7 15 0 32 41 81 190 36 111 36 111 55 65 l16 -39 -74
-192 c-45 -117 -72 -200 -68 -210 4 -10 10 -14 15 -8 5 5 39 89 77 188 l68
178 24 -49 24 -48 -91 -219 c-50 -120 -91 -220 -91 -222 0 -2 8 -4 18 -4 13 0
37 49 101 205 l84 206 23 -35 c13 -19 24 -37 24 -40 0 -4 -43 -105 -95 -227
-52 -121 -95 -227 -95 -235 0 -45 34 13 112 192 48 109 91 207 95 218 8 16 12
13 37 -23 l29 -41 -102 -231 c-70 -160 -99 -235 -92 -242 6 -6 13 -9 15 -6 3
3 46 96 95 207 117 263 103 243 135 195 l26 -40 -111 -243 c-68 -148 -107
-246 -101 -252 14 -14 24 3 119 212 50 107 96 208 105 224 l15 28 37 -51 38
-51 -123 -239 -123 -238 -90 76 c-281 234 -658 687 -819 983 -66 122 -200 428
-237 543 -83 260 -108 478 -76 665 21 119 50 182 110 243 65 65 119 100 241
159 187 89 356 115 549 86z m4526 -28 c0 -5 -4 -10 -9 -10 -6 0 -13 5 -16 10
-3 6 1 10 9 10 9 0 16 -4 16 -10z m59 -19 c11 -7 7 -13 -17 -25 -38 -20 -42
-20 -42 -1 0 7 8 19 18 24 21 13 24 13 41 2z m64 -28 c8 -7 -81 -63 -100 -63
-28 0 -11 27 30 47 45 24 60 27 70 16z m56 -37 c10 -12 -3 -22 -70 -60 -44
-25 -83 -46 -85 -46 -2 0 -4 11 -4 24 0 19 13 31 63 59 70 40 80 43 96 23z
m99 -14 c9 -6 5 -12 -13 -20 -33 -15 -35 -15 -35 2 0 8 6 17 13 19 18 8 21 8
35 -1z m70 -21 c10 -6 2 -16 -29 -40 -24 -17 -46 -31 -50 -31 -7 0 -22 31 -17
35 8 7 74 45 78 45 3 0 11 -4 18 -9z m-153 -41 c-22 -24 -15 -36 13 -21 17 9
22 2 50 -67 18 -42 38 -97 45 -121 7 -25 18 -46 26 -49 17 -6 8 39 -28 133
l-27 71 44 27 c25 16 50 26 56 24 6 -3 42 -63 80 -133 60 -111 70 -136 70
-180 0 -62 -19 -94 -76 -128 -110 -63 -254 -51 -333 28 -47 48 -73 116 -82
221 -5 69 -5 71 20 82 53 24 108 64 102 74 -6 9 -27 -1 -102 -49 -22 -13 -23
-13 -23 9 0 19 16 33 83 70 81 47 120 51 82 9z m4650 -90 c117 -45 256 -217
336 -415 73 -183 95 -314 86 -504 -14 -291 -116 -621 -312 -1011 -136 -271
-215 -401 -264 -435 -69 -47 -162 -150 -173 -191 -29 -101 3 -283 76 -427 32
-65 40 -86 27 -83 -111 32 -210 37 -263 12 -19 -9 -56 -39 -83 -66 -27 -28
-53 -50 -58 -50 -5 0 -30 17 -56 39 -120 99 -161 100 -354 3 -78 -40 -152 -72
-164 -72 -20 0 -27 16 -68 143 -37 118 -83 342 -72 353 1 2 27 -19 57 -46 30
-27 61 -49 68 -50 28 -1 8 31 -55 85 -38 32 -71 63 -74 69 -6 10 -19 106 -15
106 2 0 74 -61 162 -135 87 -74 162 -135 167 -135 4 0 7 8 6 18 0 10 -74 79
-174 162 -96 80 -174 148 -174 151 -1 3 15 27 35 53 l35 47 32 -27 c18 -15
108 -93 200 -173 93 -80 175 -147 183 -149 42 -10 -6 41 -186 197 -110 95
-200 178 -200 184 0 7 15 29 33 51 l33 38 234 -196 c129 -108 241 -196 248
-196 33 0 -8 40 -218 215 -124 102 -229 192 -234 198 -7 11 41 106 54 107 3 0
111 -88 240 -195 129 -107 238 -194 243 -192 5 1 9 7 10 12 1 6 -101 96 -226
201 -125 105 -232 195 -238 201 -12 12 40 108 59 108 6 0 111 -85 232 -190
122 -104 227 -190 233 -190 32 0 -6 38 -215 219 -126 108 -228 201 -228 207 0
12 39 89 45 89 3 0 103 -83 222 -185 120 -102 224 -185 231 -185 33 0 -6 40
-213 215 -124 104 -225 190 -225 191 0 1 12 29 28 62 l27 61 200 -175 c110
-95 203 -174 207 -174 11 0 17 15 10 26 -4 5 -96 87 -204 183 l-198 173 15 34
c7 18 18 41 22 49 7 12 45 -17 183 -140 159 -141 209 -177 198 -142 -3 6 -83
83 -179 169 -95 87 -175 161 -177 166 -1 5 6 28 16 51 l19 42 143 -133 c78
-73 147 -133 153 -133 31 0 3 33 -133 159 -82 76 -150 141 -150 145 0 3 8 28
18 55 l19 48 123 -136 c68 -75 127 -136 132 -136 26 0 -6 47 -116 169 l-125
137 44 132 c99 295 127 456 129 742 0 118 -3 243 -7 277 l-8 62 86 26 c149 46
204 55 315 51 80 -2 119 -8 165 -26z m-5500 -370 c424 -23 757 -85 1065 -201
74 -28 178 -67 230 -86 210 -80 536 -256 748 -405 630 -441 1088 -1045 1268
-1671 39 -137 40 -143 17 -150 -10 -3 -63 -21 -118 -41 -132 -48 -385 -122
-460 -135 -118 -20 -138 -20 -168 6 -66 54 -131 18 -147 -83 -21 -134 -41
-421 -42 -599 l-1 -190 42 -114 c23 -63 49 -127 56 -142 22 -41 90 -95 191
-150 139 -75 147 -94 36 -94 -48 1 -99 11 -177 35 -128 40 -176 42 -233 10
-54 -31 -87 -80 -107 -160 -23 -90 -39 -114 -73 -105 -38 9 -59 32 -101 111
-31 58 -44 73 -84 93 l-48 24 -67 -22 c-74 -25 -156 -81 -198 -136 -29 -38
-99 -85 -127 -85 -21 0 -21 20 -1 106 17 77 12 113 -21 144 -22 20 -29 21
-122 16 -99 -6 -162 5 -170 30 -2 7 17 17 44 23 127 31 391 154 418 194 26 41
36 162 20 259 -30 185 -130 525 -205 699 -35 80 -46 95 -145 190 -59 57 -115
108 -126 113 -45 22 -27 -10 50 -88 l84 -84 -31 -16 -31 -16 -126 138 c-119
128 -150 154 -150 125 0 -6 61 -78 135 -158 74 -81 137 -153 139 -159 2 -6 19
-46 38 -90 18 -43 32 -82 31 -86 -3 -9 -344 388 -401 467 -21 29 -42 53 -47
53 -17 0 -22 -21 -9 -37 7 -8 18 -23 24 -33 5 -11 99 -122 208 -249 108 -126
197 -232 197 -235 0 -3 -16 -6 -35 -6 -33 0 -41 9 -255 285 -121 156 -226 287
-231 291 -6 3 -15 2 -20 -3 -5 -5 83 -126 211 -291 121 -155 220 -285 220
-287 0 -3 -15 -5 -33 -5 -31 0 -46 16 -276 303 -222 276 -279 338 -269 293 1
-9 107 -146 235 -305 199 -248 229 -290 211 -294 -11 -3 -25 -3 -31 -1 -7 3
-124 147 -262 319 -137 173 -253 315 -257 315 -30 0 10 -58 218 -318 130 -163
241 -303 247 -309 7 -10 2 -13 -21 -13 -27 0 -55 31 -297 318 -147 174 -273
318 -281 320 -8 2 -14 -2 -14 -10 0 -7 118 -152 262 -323 l261 -310 -32 -3
c-18 -2 -39 -1 -46 2 -7 2 -135 151 -284 330 -149 179 -275 326 -280 326 -6 0
-12 -4 -15 -9 -3 -4 114 -151 260 -326 275 -328 279 -334 212 -335 -23 0 -64
45 -298 328 -249 299 -308 362 -298 318 1 -9 118 -154 258 -323 140 -169 257
-310 258 -315 2 -4 -18 -8 -45 -8 l-48 1 -255 319 c-156 195 -262 319 -272
320 -10 0 -18 -3 -18 -7 0 -5 113 -147 251 -318 233 -289 249 -310 227 -318
-56 -20 -62 -15 -322 303 -191 234 -255 306 -274 308 -23 3 -18 -4 40 -75 36
-43 149 -181 253 -308 l188 -230 -42 -3 c-28 -2 -49 2 -60 12 -9 8 -117 143
-241 300 -146 185 -231 285 -243 286 -10 0 -17 -4 -15 -10 2 -5 105 -137 230
-294 238 -299 236 -295 166 -296 -10 0 -109 115 -244 283 -125 155 -231 286
-235 291 -6 6 -13 6 -21 -2 -8 -8 42 -77 211 -287 l222 -275 -54 0 c-110 0
-99 -9 -318 256 -110 134 -205 244 -209 244 -29 0 0 -42 171 -250 105 -127
189 -233 187 -235 -2 -3 -33 1 -68 7 -71 14 -59 1 -275 285 -60 79 -107 132
-117 133 -10 0 -18 -3 -18 -6 0 -3 65 -91 145 -195 80 -104 145 -191 145 -193
0 -6 -64 3 -110 15 -30 8 -51 32 -155 174 -108 148 -145 187 -145 154 0 -13
89 -144 162 -237 27 -35 48 -65 46 -67 -2 -2 -34 7 -73 19 -69 21 -70 23 -150
123 -74 94 -106 121 -105 91 1 -7 27 -47 60 -88 32 -41 57 -76 55 -78 -2 -2
-36 7 -76 20 -65 21 -75 28 -98 66 -34 56 -71 57 -41 1 6 -10 7 -19 2 -19 -5
0 -195 61 -423 136 -403 131 -627 215 -699 259 -19 12 -80 48 -135 80 -115 67
-266 166 -409 269 l-98 71 6 69 c25 271 152 616 319 868 78 116 244 304 359
405 440 386 1029 613 1698 652 74 4 140 9 145 9 6 1 96 -3 200 -8z m-3358
-1976 c-113 -226 -138 -288 -107 -269 5 3 64 113 131 245 68 132 128 239 134
237 5 -2 17 -16 25 -31 15 -26 12 -33 -92 -236 -60 -114 -108 -215 -108 -224
0 -48 36 6 133 200 l108 216 25 -23 c13 -12 24 -28 24 -34 0 -7 -36 -87 -80
-179 -73 -151 -88 -198 -58 -180 6 4 47 81 90 172 l80 165 21 -21 21 -21 -67
-147 c-46 -100 -64 -151 -57 -158 15 -15 22 -4 85 139 32 72 59 132 62 134 2
3 13 -5 25 -16 l21 -21 -48 -122 c-26 -67 -45 -124 -41 -127 15 -16 35 14 71
111 22 58 43 106 47 106 4 0 21 -12 38 -27 l31 -28 -30 -89 c-17 -49 -28 -92
-25 -97 13 -21 25 -4 50 76 16 47 31 85 35 85 3 0 9 -30 12 -67 7 -70 -7 -153
-36 -223 -26 -60 -98 -184 -125 -212 l-25 -27 -44 49 c-26 29 -61 55 -87 65
-51 19 -66 14 -130 -42 -70 -63 -166 -94 -166 -53 0 38 -44 136 -76 168 -41
41 -81 42 -166 2 -58 -27 -108 -39 -108 -24 0 3 34 45 76 92 42 48 88 107 102
132 14 25 29 47 33 50 13 11 29 50 29 74 0 24 39 104 188 385 l54 103 27 -26
26 -26 -128 -256z m-486 -97 c53 -51 99 -102 103 -115 8 -24 9 -23 -111 -160
-108 -124 -127 -184 -78 -248 58 -77 181 -100 292 -57 l52 21 16 -73 c16 -72
33 -99 82 -124 56 -29 186 -2 285 59 l49 31 52 -56 c46 -48 58 -55 91 -55 80
0 161 64 234 185 33 55 70 95 169 182 l128 111 30 -18 c17 -11 28 -23 26 -27
-1 -4 -126 -115 -276 -245 l-273 -237 -224 -87 c-123 -48 -261 -102 -308 -120
-46 -17 -89 -39 -94 -47 -12 -19 -1 -47 18 -47 9 0 167 59 353 131 186 72 374
145 418 161 44 16 214 83 377 149 164 65 301 119 304 119 4 0 -23 -31 -59 -69
-37 -38 -67 -74 -67 -79 0 -31 26 -13 105 73 91 99 104 106 157 82 l26 -12
-90 -128 c-50 -71 -88 -131 -85 -134 14 -14 40 13 122 130 l87 125 47 -15 c25
-9 49 -19 54 -22 4 -4 -38 -74 -94 -156 -111 -163 -118 -175 -97 -175 8 0 63
71 123 158 59 86 109 158 110 159 3 4 125 -38 125 -43 0 -2 -59 -83 -131 -179
-72 -96 -128 -179 -124 -185 11 -17 23 -3 161 181 133 178 138 182 197 156
l27 -12 -135 -199 c-126 -187 -152 -233 -123 -224 10 4 246 341 278 398 7 12
16 12 68 -5 l59 -20 -128 -205 c-124 -197 -144 -236 -116 -228 9 3 191 281
266 407 8 13 17 12 70 -4 34 -10 61 -19 61 -21 0 -1 -63 -98 -140 -215 -93
-142 -137 -216 -130 -223 13 -13 8 -20 160 209 73 110 136 204 140 208 8 9
110 -23 110 -33 0 -3 -63 -102 -140 -219 -126 -193 -146 -231 -121 -231 5 0
71 95 147 212 77 116 142 216 145 221 4 6 33 1 73 -13 l66 -22 -155 -228 c-87
-128 -151 -231 -145 -235 5 -3 14 -4 18 -1 4 2 75 104 157 225 83 121 155 220
162 221 7 0 24 -5 38 -12 21 -10 25 -16 20 -37 -4 -14 -60 -115 -126 -224 -65
-109 -119 -205 -119 -213 0 -31 26 -6 71 70 56 93 61 98 48 52 -15 -56 16
-100 42 -58 6 9 43 95 83 191 40 96 78 177 86 179 7 3 10 0 7 -5 -4 -6 3 -8
16 -6 12 2 39 -2 59 -9 l38 -13 -150 -239 c-141 -224 -167 -273 -138 -264 7 3
80 112 163 244 l151 239 48 -2 c26 -1 50 -4 53 -6 2 -3 -57 -116 -132 -252
-75 -136 -134 -249 -131 -252 15 -16 43 25 165 248 74 134 135 245 136 247 2
3 107 -17 112 -22 2 -2 -55 -115 -127 -252 -71 -137 -130 -252 -130 -256 0 -4
6 -8 14 -8 8 0 69 105 148 256 l133 255 45 -6 c25 -4 49 -10 53 -14 5 -5 -46
-122 -112 -260 -67 -139 -121 -256 -121 -261 0 -6 6 -10 13 -10 7 0 69 117
139 263 l126 262 48 -3 c26 -1 50 -4 52 -7 3 -3 -50 -121 -117 -262 -67 -142
-121 -264 -121 -271 0 -43 39 24 155 267 l129 273 40 -7 c22 -3 42 -8 44 -9 2
-2 -47 -124 -108 -270 -99 -238 -123 -313 -87 -277 6 6 61 132 123 279 l111
267 51 3 c29 2 52 1 52 -1 0 -2 -43 -128 -95 -280 -58 -172 -90 -279 -84 -283
6 -3 13 -3 17 1 4 3 50 131 103 283 l96 277 66 3 66 3 -104 -306 c-87 -255
-101 -305 -87 -305 13 0 38 60 116 288 54 158 103 295 108 305 6 12 21 17 53
17 25 0 45 -4 45 -8 0 -7 -171 -560 -185 -599 -2 -7 3 -13 13 -13 15 0 28 31
66 153 26 83 70 223 97 310 l50 157 34 0 c34 0 35 -1 35 -41 0 -23 -36 -159
-80 -304 -44 -145 -80 -268 -80 -274 0 -6 6 -11 14 -11 9 0 21 21 30 53 9 28
38 124 64 211 l49 159 6 -63 c11 -98 8 -246 -4 -297 -10 -37 -9 -47 2 -54 11
-7 17 -112 29 -564 16 -565 17 -574 51 -575 31 -1 31 30 14 688 l-18 657 61
209 c34 115 63 210 64 211 2 2 22 6 46 10 32 5 42 4 42 -7 0 -7 -38 -143 -84
-303 -76 -263 -89 -333 -57 -299 5 5 48 143 95 308 47 164 87 300 88 301 2 1
22 5 46 8 37 4 42 3 38 -11 -29 -89 -156 -551 -156 -564 0 -10 6 -18 13 -18 8
0 42 104 98 298 l84 297 38 3 c20 2 37 0 37 -5 0 -4 -34 -131 -75 -282 -41
-151 -73 -277 -70 -279 22 -23 38 24 183 561 5 21 82 25 82 5 0 -7 -32 -130
-70 -273 -63 -234 -74 -301 -42 -263 5 7 42 132 81 277 39 145 74 268 77 272
7 12 54 11 54 0 0 -5 -23 -118 -51 -251 -36 -170 -48 -245 -41 -252 17 -17 28
19 77 257 25 121 48 227 52 235 3 9 13 -9 24 -45 l18 -60 -30 -174 c-17 -95
-28 -175 -25 -178 3 -3 11 -3 19 0 8 3 20 46 31 119 10 63 21 120 26 127 10
16 29 -86 39 -202 l7 -90 -31 -18 c-88 -54 -323 -139 -385 -139 -37 0 -90 -99
-90 -170 0 -95 119 -180 269 -193 l44 -4 1 -69 c1 -83 25 -138 76 -172 29 -20
45 -23 95 -20 92 6 161 43 265 143 48 47 95 85 104 85 9 0 27 -22 41 -50 54
-107 136 -160 246 -160 120 0 168 52 218 237 6 23 16 45 22 48 5 4 58 -8 117
-27 95 -29 120 -33 222 -33 103 0 120 3 164 25 90 45 111 106 69 201 -28 63
-77 107 -188 169 -53 29 -105 60 -115 69 -23 20 -76 157 -91 237 -7 38 -9 107
-4 194 l6 135 72 161 71 162 45 6 c24 3 46 4 48 2 2 -2 -50 -129 -117 -282
-81 -187 -117 -281 -110 -288 6 -6 13 -6 18 -1 10 12 240 544 244 565 2 12
108 56 113 47 1 -1 -47 -137 -107 -301 -76 -210 -105 -303 -98 -310 14 -14 24
2 51 82 11 34 22 62 25 62 2 0 10 -13 19 -30 19 -37 -51 18 1525 -1208 338
-262 508 -401 513 -418 6 -17 4 -32 -7 -48 -13 -20 -46 -31 -225 -75 -402 -98
-1165 -233 -1521 -271 -58 -6 -172 -19 -255 -30 -82 -10 -213 -24 -290 -30
-77 -6 -201 -17 -275 -25 -565 -58 -1773 -75 -2540 -35 -366 18 -870 56 -1070
80 -412 49 -542 66 -795 106 -1159 180 -2190 486 -2820 836 -492 274 -781 571
-855 877 -17 73 -15 223 4 297 100 384 539 750 1281 1069 90 39 527 202 545
204 3 1 48 -41 101 -92z m9511 9 c843 -299 1432 -717 1569 -1114 32 -91 40
-139 40 -238 0 -134 -27 -226 -109 -366 -53 -91 -167 -227 -225 -269 -39 -29
-47 -31 -102 -26 -95 9 -544 109 -1380 307 -473 112 -881 206 -1915 440 -223
51 -406 93 -407 94 -1 0 14 48 32 106 18 58 56 178 85 267 l51 162 46 21 c25
11 49 20 53 20 4 0 -24 -111 -62 -247 -82 -296 -86 -313 -66 -313 11 0 35 72
88 263 40 144 77 276 81 292 7 23 21 37 55 53 41 20 45 21 40 5 -21 -68 -124
-548 -120 -555 15 -25 33 32 94 295 l65 282 33 3 c22 2 32 -1 32 -10 0 -8 -22
-117 -50 -244 -27 -126 -50 -235 -50 -241 0 -7 7 -13 15 -13 8 0 15 1 15 3 0
3 97 450 105 485 4 17 12 22 36 22 36 0 38 27 -11 -237 -19 -100 -31 -186 -27
-189 16 -17 28 19 57 171 55 292 46 265 86 265 42 0 42 3 9 -190 -16 -94 -21
-148 -15 -154 19 -19 27 8 49 154 30 194 27 187 63 194 17 3 33 4 35 2 2 -2
-3 -57 -11 -122 -19 -145 -20 -154 -2 -154 14 0 16 13 44 224 4 27 13 51 20
54 6 2 12 -3 12 -11 0 -28 99 -321 120 -355 63 -103 168 -96 396 24 55 30 106
54 111 54 6 0 43 -27 83 -60 93 -77 120 -83 205 -41 42 21 77 48 102 77 l37
46 55 -7 c30 -4 84 -16 119 -27 36 -11 94 -26 130 -33 61 -13 69 -13 111 6 89
39 95 87 20 174 -57 69 -114 152 -128 188 l-9 24 90 7 c50 3 123 6 163 6 86 0
115 19 80 53 -12 12 -44 14 -188 9 l-174 -5 -11 49 c-28 129 -35 110 85 244
59 66 111 120 115 120 4 0 62 -20 130 -44z m-1683 -378 c-12 -57 -12 -58 -46
-58 -31 0 -35 2 -30 23 3 12 11 57 18 99 8 52 18 84 33 100 l21 23 8 -65 c5
-41 3 -86 -4 -122z m-6581 149 c10 -8 8 -15 -9 -34 -31 -32 -35 -29 -31 17 4
40 8 41 40 17z m72 -47 c12 -9 5 -19 -40 -61 -30 -27 -71 -63 -92 -80 l-36
-29 18 47 c12 31 35 63 66 91 51 44 60 48 84 32z m6409 -84 l-12 -76 -37 0
-38 0 10 48 c7 35 19 55 46 79 21 17 39 30 40 28 2 -2 -2 -37 -9 -79z m-6229
-36 c0 -3 -71 -76 -157 -162 l-158 -156 -104 -41 c-58 -23 -106 -40 -107 -38
-1 1 108 97 243 214 217 187 248 210 264 200 11 -7 19 -14 19 -17z m6114 -18
c-6 -27 -11 -32 -35 -32 -17 0 -29 5 -29 13 0 11 61 60 67 53 2 -1 0 -17 -3
-34z m-6044 -16 l25 -14 -90 -91 c-79 -79 -99 -94 -160 -116 l-70 -26 130 130
c71 72 132 131 135 131 3 -1 16 -7 30 -14z m88 -54 c22 -17 22 -19 5 -34 -18
-16 -138 -68 -157 -68 -6 0 16 27 49 60 33 33 64 60 70 60 5 0 20 -8 33 -18z
m5447 -184 c-2 -7 -38 -120 -79 -252 -41 -131 -76 -240 -78 -242 -4 -3 -90 16
-97 22 -2 2 31 105 74 228 l77 225 42 15 c52 18 67 19 61 4z m-217 -249 l-73
-214 -42 3 c-23 2 -51 -2 -63 -8 -13 -7 -21 -8 -19 -2 2 6 36 98 74 206 l70
196 60 19 c33 10 61 18 63 17 1 -2 -31 -99 -70 -217z m-378 106 c0 -6 -81
-189 -87 -195 -5 -5 6 167 12 188 4 11 75 18 75 7z m-1890 -327 c0 -7 -19 -78
-42 -158 l-43 -145 -6 150 c-3 83 -4 153 -2 158 7 12 93 8 93 -5z"/>
<path d="M6017 10995 c-14 -14 -153 -102 -309 -196 -155 -94 -291 -178 -300
-186 -22 -20 -22 -49 -3 -144 8 -41 28 -146 45 -233 30 -157 38 -179 69 -195
9 -5 173 -44 365 -86 287 -64 355 -76 385 -69 35 9 39 15 125 189 87 177 106
235 92 289 -4 17 -48 58 -134 124 -142 110 -160 122 -195 122 -29 0 -256 -110
-276 -134 -38 -45 3 -126 64 -126 17 0 68 18 114 40 45 22 86 40 91 40 11 0
165 -119 165 -128 0 -4 -24 -60 -54 -125 -38 -82 -60 -117 -72 -117 -34 0
-554 121 -559 131 -9 13 -65 328 -59 332 28 21 517 310 525 310 16 0 407 -173
421 -186 10 -11 153 -438 153 -459 0 -17 -371 -437 -383 -433 -6 2 -86 20
-177 39 -91 19 -250 53 -354 76 -105 22 -202 40 -217 40 -29 0 -79 -49 -79
-76 0 -32 31 -73 62 -83 18 -5 206 -47 416 -91 337 -71 388 -80 418 -70 27 9
82 67 254 267 199 232 220 260 226 301 6 41 -3 77 -80 311 -48 146 -94 276
-101 287 -16 25 -548 264 -588 264 -13 0 -36 -11 -50 -25z"/>
<path d="M11117 10975 c-14 -14 -153 -102 -309 -196 -155 -94 -291 -178 -300
-186 -22 -20 -22 -49 -3 -144 8 -41 28 -146 45 -233 30 -157 38 -179 69 -195
9 -5 173 -44 365 -86 287 -64 355 -76 385 -69 35 9 39 15 125 189 87 177 106
235 92 289 -4 17 -48 58 -134 124 -142 110 -160 122 -195 122 -29 0 -256 -110
-276 -134 -38 -45 3 -126 64 -126 17 0 68 18 114 40 45 22 86 40 91 40 11 0
165 -119 165 -128 0 -4 -24 -60 -54 -125 -38 -82 -60 -117 -72 -117 -34 0
-554 121 -559 131 -9 13 -65 328 -59 332 28 21 517 310 525 310 16 0 407 -173
421 -186 10 -11 153 -438 153 -459 0 -17 -371 -437 -383 -433 -6 2 -86 20
-177 39 -91 19 -250 53 -354 76 -105 22 -202 40 -217 40 -29 0 -79 -49 -79
-76 0 -32 31 -73 62 -83 18 -5 206 -47 416 -91 337 -71 388 -80 418 -70 27 9
82 67 254 267 199 232 220 260 226 301 6 41 -3 77 -80 311 -48 146 -94 276
-101 287 -16 25 -548 264 -588 264 -13 0 -36 -11 -50 -25z"/>
<path d="M5933 9432 c-10 -9 -69 -168 -132 -351 -120 -350 -123 -366 -70 -366
16 0 28 9 37 28 27 57 229 663 225 675 -3 7 -13 17 -24 22 -14 8 -23 6 -36 -8z"/>
<path d="M5714 9422 c-15 -9 -266 -670 -262 -690 5 -24 35 -39 55 -26 10 6 71
152 145 348 103 271 126 341 118 357 -11 19 -36 25 -56 11z"/>
<path d="M5473 9408 c-16 -20 -253 -627 -253 -648 0 -24 25 -43 48 -35 15 4
51 84 147 325 69 176 125 330 123 342 -4 27 -48 37 -65 16z"/>
<path d="M6137 9356 c-17 -17 -217 -567 -217 -596 0 -11 10 -24 21 -31 18 -9
25 -8 39 7 18 20 220 566 220 596 0 10 -9 22 -19 28 -25 13 -27 13 -44 -4z"/>
<path d="M10727 9348 c-8 -13 -58 -173 -112 -356 -103 -347 -105 -363 -58
-370 11 -2 25 3 30 10 9 11 213 683 213 701 0 11 -32 37 -45 37 -8 0 -21 -10
-28 -22z"/>
<path d="M10942 9357 c-6 -6 -56 -174 -112 -372 l-102 -359 22 -18 c32 -26 56
-8 74 54 82 286 186 660 186 672 0 15 -28 36 -48 36 -5 0 -14 -6 -20 -13z"/>
<path d="M11157 9336 c-8 -8 -56 -182 -107 -386 l-93 -372 20 -20 c16 -16 25
-18 40 -9 17 8 37 77 112 376 50 200 91 374 91 385 0 10 -9 24 -19 30 -25 13
-27 13 -44 -4z"/>
<path d="M11337 9288 c-23 -18 -140 -613 -126 -640 14 -26 57 -23 69 5 8 19
120 590 120 609 0 9 -30 38 -39 38 -4 0 -15 -6 -24 -12z"/>
<path d="M5223 9278 c-22 -26 -144 -348 -141 -370 3 -27 48 -38 65 -16 5 7 40
91 78 187 70 181 73 202 28 209 -11 2 -25 -3 -30 -10z"/>
<path d="M11532 9252 c-19 -12 -118 -521 -105 -541 13 -21 47 -26 60 -9 6 7
34 127 62 267 38 188 48 258 40 272 -10 20 -35 24 -57 11z"/>
<path d="M6283 9208 c-18 -22 -92 -259 -87 -273 8 -20 42 -29 59 -15 8 7 33
70 57 140 35 108 40 131 29 144 -16 19 -45 21 -58 4z"/>
<path d="M10502 9208 c-13 -18 -152 -416 -152 -438 0 -47 60 -49 79 -2 30 75
141 399 141 413 0 34 -47 52 -68 27z"/>
<path d="M11682 9142 c-26 -26 -71 -314 -53 -336 19 -23 50 -20 62 7 18 40 57
301 48 318 -13 26 -38 30 -57 11z"/>
<path d="M8877 7796 c-9 -7 -17 -16 -17 -20 0 -11 27 -6 39 8 16 19 0 27 -22
12z"/>
<path d="M8792 7748 c-18 -11 -29 -24 -26 -29 5 -9 24 -2 58 24 31 23 3 28
-32 5z"/>
<path d="M7288 7005 c-21 -8 -59 -29 -85 -47 -47 -32 -183 -146 -213 -178
-201 -217 -357 -406 -500 -606 -47 -65 -104 -106 -262 -188 -73 -38 -141 -76
-150 -84 -37 -31 -7 -95 44 -94 13 0 55 15 93 34 268 132 327 174 415 303 129
186 432 533 551 628 46 38 99 77 117 88 l32 21 0 -35 c0 -19 -7 -54 -16 -78
-8 -24 -16 -56 -16 -72 -1 -34 37 -77 68 -77 26 0 72 50 80 88 3 15 9 46 15
69 19 87 4 165 -42 214 -31 33 -69 37 -131 14z"/>
<path d="M7508 6678 c-9 -7 -29 -40 -44 -73 -24 -54 -25 -62 -12 -85 11 -20
21 -25 53 -25 36 0 42 4 61 40 37 68 39 100 10 130 -28 28 -44 31 -68 13z"/>
<path d="M7698 6568 c-9 -7 -28 -48 -43 -91 -25 -72 -25 -80 -11 -102 48 -73
120 -16 141 112 6 37 3 46 -19 68 -28 28 -44 31 -68 13z"/>
<path d="M7794 6360 c-21 -8 -55 -87 -73 -171 -10 -45 -90 -169 -207 -319
-135 -173 -157 -206 -217 -320 -64 -120 -120 -277 -115 -322 2 -20 13 -38 30
-51 23 -17 31 -18 57 -8 30 13 42 35 61 111 6 25 40 104 75 175 49 100 94 169
194 302 71 94 147 202 170 240 44 74 95 210 107 280 5 36 3 45 -19 67 -28 28
-31 29 -63 16z"/>
<path d="M12135 11329 c-11 -17 16 -69 36 -69 25 0 25 41 1 63 -22 20 -28 21
-37 6z"/>
<path d="M12201 11216 c-9 -11 -6 -21 15 -45 40 -48 82 -36 50 14 -23 35 -51
48 -65 31z"/>
<path d="M14060 11221 c-93 -30 -184 -106 -223 -184 -30 -61 -33 -87 -15 -105
21 -21 39 -13 102 46 81 75 123 95 212 100 190 11 308 -139 260 -328 -45 -178
-182 -361 -404 -537 -138 -111 -179 -159 -240 -280 -45 -89 -50 -132 -20 -168
18 -21 33 -28 57 -27 44 1 64 21 90 88 43 114 90 169 250 293 187 146 355 370
414 556 20 60 27 167 16 233 -18 115 -105 229 -216 284 -59 29 -77 33 -162 35
-53 1 -107 -1 -121 -6z"/>
<path d="M12303 11094 c-7 -19 60 -90 76 -80 18 11 13 32 -15 65 -28 34 -51
40 -61 15z"/>
<path d="M12400 11005 c-9 -11 -7 -22 10 -50 36 -58 71 -40 42 22 -18 38 -36
47 -52 28z"/>
<path d="M13675 9638 c-49 -28 -58 -72 -22 -113 47 -55 127 -26 127 46 0 60
-56 95 -105 67z"/>
</g>
</svg>
