<?xml version="1.0" standalone="no"?>
<!DOCTYPE svg PUBLIC "-//W3C//DTD SVG 20010904//EN"
 "http://www.w3.org/TR/2001/REC-SVG-20010904/DTD/svg10.dtd">
<svg version="1.0" xmlns="http://www.w3.org/2000/svg"
 width="1800.000000pt" height="1500.000000pt" viewBox="0 0 1800.000000 1500.000000"
 preserveAspectRatio="xMidYMid meet">

<g transform="translate(0.000000,1500.000000) scale(0.100000,-0.100000)"
fill="#000000" stroke="none">
<path d="M11530 12905 c-450 -69 -822 -320 -1021 -690 -31 -56 -45 -74 -58
-71 -44 13 -304 69 -446 95 -348 65 -602 90 -990 98 -347 6 -603 -8 -912 -53
-353 -50 -547 -93 -1297 -286 -150 -39 -161 -40 -170 -23 -105 175 -239 328
-381 433 -83 61 -280 162 -385 196 -523 171 -1111 39 -1480 -333 -272 -275
-392 -626 -335 -981 36 -218 125 -405 278 -582 l59 -69 -124 -127 c-527 -539
-789 -980 -932 -1565 l-32 -132 -85 -2 c-158 -5 -296 -43 -423 -114 -97 -55
-160 -107 -242 -200 -504 -568 -445 -1748 134 -2705 83 -138 125 -198 235
-337 38 -48 68 -89 66 -91 -2 -2 -44 -18 -94 -36 -351 -128 -651 -283 -874
-453 -223 -169 -552 -539 -684 -769 -84 -146 -117 -333 -82 -465 37 -140 114
-261 243 -385 82 -78 221 -186 274 -214 53 -27 116 -20 209 24 78 38 189 77
869 312 140 49 425 147 632 219 208 72 546 189 750 260 407 141 799 279 1032
365 141 51 150 53 167 37 19 -18 64 44 -1261 -1726 -69 -91 -136 -184 -148
-206 -28 -46 -24 -81 11 -103 21 -14 419 -84 602 -105 50 -6 162 -20 250 -31
88 -10 214 -24 280 -30 159 -14 219 -23 485 -77 389 -78 508 -94 950 -133 154
-13 750 -56 980 -70 580 -35 1369 -43 2030 -21 195 7 603 19 905 27 556 14
651 21 870 64 109 22 129 26 285 65 176 44 678 137 970 180 58 9 263 47 455
85 1027 203 1821 465 2374 784 499 288 680 508 682 833 1 111 -12 197 -45 298
-95 283 -335 598 -621 812 -76 57 -197 134 -258 165 l-28 14 73 45 c79 48 94
75 62 110 -26 29 -51 23 -153 -36 -95 -56 -110 -62 -126 -46 -12 10 -289 131
-302 131 -5 0 -14 5 -20 11 -8 8 4 32 43 86 307 427 518 988 580 1533 39 347
5 762 -84 1025 -11 33 -19 61 -18 62 1 2 22 -32 46 -75 101 -181 120 -209 158
-236 72 -49 137 -47 197 6 77 67 95 158 50 248 -14 28 -24 50 -22 50 2 0 47
-23 100 -51 190 -100 391 -156 593 -166 135 -6 192 3 289 47 66 30 87 49 103
96 13 39 3 60 -67 148 -52 64 -182 193 -223 220 l-24 16 92 94 c114 117 164
207 164 297 0 107 -58 141 -271 155 -58 4 -121 2 -163 -5 -38 -7 -70 -11 -71
-9 -2 2 6 44 18 93 29 126 31 439 3 565 -55 253 -169 485 -298 606 -87 83
-143 103 -187 67 -29 -25 -140 -237 -228 -438 -41 -93 -78 -174 -82 -178 -5
-5 -22 16 -39 46 -48 84 -184 252 -296 362 -156 155 -283 237 -389 251 -42 6
-49 4 -78 -25 -23 -24 -30 -37 -25 -54 4 -12 35 -135 71 -272 35 -138 82 -310
105 -382 22 -73 40 -134 40 -137 0 -2 -13 8 -29 24 -59 59 -111 47 -151 -35
-32 -66 -31 -102 2 -128 26 -19 28 -19 53 -3 14 9 28 25 31 34 19 59 20 59 46
7 14 -27 37 -93 51 -145 45 -171 47 -164 -27 -88 -72 74 -121 104 -197 118
-112 21 -229 -40 -229 -120 0 -31 6 -43 30 -60 47 -34 72 -24 94 38 l19 52 45
0 c66 0 123 -32 192 -107 50 -55 60 -72 60 -102 0 -66 30 -154 81 -240 l49
-83 -37 31 c-173 145 -366 220 -583 224 l-105 3 -31 124 c-157 631 -440 1129
-934 1643 -117 122 -287 283 -394 373 l-48 41 49 62 c68 84 146 228 182 336
160 479 -10 977 -444 1302 -82 62 -278 162 -385 197 -201 66 -481 91 -680 61z
m360 -155 c162 -19 295 -58 431 -125 361 -177 587 -496 615 -865 19 -253 -84
-534 -271 -735 -76 -81 -74 -85 115 -251 508 -447 872 -919 1073 -1394 233
-549 313 -1128 231 -1677 -51 -350 -227 -852 -469 -1342 -127 -257 -234 -430
-377 -611 l-63 -79 -13 47 c-178 666 -597 1219 -1257 1659 -685 457 -1594 747
-2545 813 -185 13 -624 13 -805 0 -839 -59 -1664 -295 -2291 -656 -778 -447
-1301 -1055 -1487 -1729 -35 -126 -48 -191 -66 -339 l-16 -129 -105 95 c-356
322 -621 719 -874 1311 -224 525 -316 922 -316 1373 0 639 168 1219 493 1704
124 184 245 332 462 565 94 102 139 158 162 205 51 105 52 101 -17 172 -307
316 -382 735 -200 1113 56 116 111 194 207 289 372 371 994 462 1482 218 214
-108 397 -280 491 -466 21 -41 37 -56 85 -83 33 -18 67 -33 76 -33 9 0 128 30
265 66 714 188 1096 261 1559 299 251 21 768 16 1005 -9 358 -39 816 -122 943
-171 99 -39 160 -1 233 145 213 425 728 682 1244 620z m3009 -2790 c180 -155
326 -333 414 -502 l44 -86 -33 -81 c-28 -69 -157 -425 -171 -471 -4 -13 -6
-13 -14 1 -12 23 -156 459 -224 679 -44 143 -145 523 -145 545 0 13 65 -30
129 -85z m952 43 c179 -205 289 -575 260 -876 -24 -250 -100 -447 -220 -570
-75 -78 -93 -110 -80 -144 12 -33 48 -47 233 -93 192 -46 285 -85 371 -155 74
-60 195 -189 195 -208 0 -3 -24 -13 -52 -23 -106 -36 -330 -14 -525 51 -56 19
-168 66 -249 105 -130 63 -151 70 -173 60 -19 -8 -26 -8 -33 2 -4 7 -47 75
-94 151 -47 75 -125 192 -173 260 -74 101 -87 125 -76 137 6 8 28 63 48 122
54 158 166 443 269 683 98 230 245 535 258 535 4 0 23 -17 41 -37z m-894
-1065 c-3 -8 -6 -5 -6 6 -1 11 2 17 5 13 3 -3 4 -12 1 -19z m40 -160 c21 -17
288 -409 361 -530 39 -64 110 -178 157 -252 83 -130 86 -136 73 -163 -30 -63
-54 -41 -157 147 -32 58 -86 145 -120 193 -34 48 -93 142 -131 207 -37 66
-100 164 -139 219 -97 135 -128 211 -78 195 12 -3 27 -11 34 -16z m1551 -72
c12 -4 22 -15 22 -26 0 -51 -167 -240 -238 -269 -29 -12 -44 -10 -145 17 -61
17 -127 33 -144 37 l-33 6 39 52 c21 29 50 75 65 104 23 46 31 53 78 69 29 9
77 20 108 23 60 6 211 -2 248 -13z m-13276 -86 c-2 -19 -8 -66 -13 -105 -17
-125 -23 -491 -10 -635 29 -338 108 -655 257 -1033 156 -395 349 -782 513
-1025 206 -306 496 -593 809 -802 45 -30 82 -59 82 -63 0 -5 13 -39 30 -77 35
-80 63 -194 55 -221 -6 -18 -7 -18 -48 3 -52 26 -176 37 -212 18 -28 -15 -40
-42 -60 -137 -8 -40 -21 -88 -29 -107 l-14 -35 -89 58 c-110 72 -157 91 -232
91 -83 0 -140 -40 -193 -135 -44 -78 -85 -135 -97 -135 -4 0 -21 19 -38 43
-130 180 -264 221 -489 149 -97 -31 -206 -43 -218 -24 -2 4 16 41 41 82 143
234 169 388 103 603 -12 38 -28 71 -39 76 -28 16 -214 205 -294 300 -505 598
-788 1474 -702 2168 51 414 220 724 477 874 113 66 258 108 368 105 l45 -2 -3
-34z m11207 -36 c481 -111 773 -706 730 -1488 -37 -666 -303 -1333 -728 -1825
-39 -46 -71 -90 -71 -98 0 -9 -23 -56 -52 -105 -28 -49 -57 -112 -64 -139 -12
-44 -11 -57 6 -112 11 -34 48 -111 84 -172 54 -93 61 -111 48 -117 -38 -15
-96 -6 -202 32 -67 24 -130 40 -156 40 -70 0 -136 -40 -235 -142 -80 -83 -89
-90 -115 -84 -29 8 -100 75 -161 153 -28 35 -42 43 -88 53 -65 14 -110 8 -222
-28 -45 -14 -86 -22 -90 -18 -4 4 -8 73 -9 153 0 140 -1 147 -23 164 -31 25
-67 24 -181 -6 -52 -14 -98 -25 -101 -25 -4 0 -14 28 -24 63 -16 60 -16 63 4
110 46 106 113 191 291 366 345 341 510 612 817 1341 92 218 201 524 238 670
33 131 72 336 86 455 17 140 14 483 -4 640 -12 98 -13 132 -4 138 16 10 145
-1 226 -19z m-5134 -434 c829 -56 1657 -293 2291 -655 292 -168 564 -373 784
-594 313 -313 516 -627 641 -991 37 -105 69 -230 69 -264 0 -53 -297 -319
-545 -488 -201 -137 -503 -305 -530 -294 -7 2 -53 34 -103 71 -78 57 -94 65
-112 55 -39 -21 -30 -36 69 -115 l73 -59 -41 -20 c-32 -16 -46 -18 -59 -9 -9
6 -84 54 -166 107 -82 53 -154 95 -159 93 -18 -6 -30 -33 -24 -51 4 -9 67 -56
142 -104 74 -48 135 -89 135 -92 0 -3 -30 -17 -67 -33 l-66 -27 -81 61 c-45
34 -91 66 -103 72 -13 6 -23 19 -23 31 0 27 -9 40 -38 55 -33 17 -68 -8 -81
-56 -27 -102 -60 -322 -66 -443 l-7 -135 32 -85 c18 -47 60 -128 93 -180 89
-141 144 -236 152 -260 6 -19 4 -21 -13 -16 -10 4 -50 13 -88 21 -162 34 -234
3 -234 -102 0 -43 -9 -83 -19 -83 -3 0 -33 23 -66 52 -88 75 -164 108 -248
108 -98 0 -130 -16 -165 -87 -17 -32 -41 -68 -55 -81 l-24 -23 -46 63 c-25 35
-63 76 -85 91 -61 43 -96 44 -188 6 -57 -23 -95 -32 -135 -32 -95 0 -96 5 -20
109 37 50 84 108 104 128 52 52 63 102 43 194 -9 40 -16 96 -16 125 -1 77 -36
267 -53 285 -20 19 -65 19 -84 -1 -9 -8 -15 -27 -15 -41 0 -26 -2 -25 -37 16
-78 93 -98 110 -121 98 -11 -6 -20 -20 -20 -31 0 -20 132 -183 175 -217 15
-11 24 -32 28 -59 5 -42 5 -43 -31 -52 -21 -5 -54 -12 -74 -15 l-36 -7 -157
201 c-86 110 -161 202 -166 205 -18 12 -49 -6 -49 -28 0 -13 60 -98 144 -207
79 -102 143 -186 142 -187 -3 -3 -190 -33 -191 -30 -9 14 -349 448 -365 465
-24 26 -43 28 -60 7 -19 -23 -11 -36 173 -270 104 -133 161 -212 153 -217 -18
-10 -160 -28 -167 -20 -4 4 -87 120 -185 257 -236 331 -228 321 -258 309 -32
-12 -13 -53 105 -219 66 -93 150 -212 186 -263 36 -51 63 -95 61 -98 -3 -2
-47 -7 -99 -10 l-94 -6 -220 277 c-121 152 -226 280 -235 285 -19 11 -50 -6
-50 -27 0 -19 5 -26 233 -313 l180 -225 -112 -9 c-61 -5 -113 -7 -115 -5 -2 2
-96 134 -211 292 -114 159 -213 291 -221 294 -18 7 -44 -14 -44 -36 0 -9 86
-135 190 -279 105 -145 190 -266 190 -268 0 -2 -56 -4 -123 -4 l-124 0 -173
261 c-96 143 -182 265 -191 270 -17 9 -49 -11 -49 -31 0 -5 37 -64 82 -132
144 -219 228 -348 228 -353 0 -3 -24 -5 -54 -5 -111 0 -98 -11 -292 256 -176
243 -195 264 -223 230 -16 -20 -16 -20 152 -253 79 -109 146 -203 149 -208 5
-8 -15 -9 -60 -3 -37 4 -74 7 -82 8 -8 0 -80 86 -160 190 -126 165 -148 190
-170 188 -50 -6 -36 -38 85 -197 63 -83 115 -154 115 -156 0 -8 -28 -6 -95 6
l-62 10 -87 120 c-81 110 -95 124 -120 120 -5 -1 -22 3 -38 10 -61 25 -89 -11
-175 -226 -64 -163 -78 -294 -39 -387 8 -18 39 -67 70 -108 58 -77 99 -154
110 -202 9 -42 -27 -46 -105 -13 -255 109 -323 102 -417 -41 l-50 -76 -37 58
c-48 76 -79 110 -134 145 -81 52 -145 39 -250 -54 -39 -34 -106 -66 -137 -67
-32 0 -53 31 -66 96 -24 131 -38 167 -83 212 l-43 43 -104 -3 c-101 -3 -168
11 -168 34 0 5 51 62 114 127 94 97 120 131 155 202 22 46 49 114 58 151 17
65 17 68 -6 165 -41 176 -154 496 -189 536 -20 23 -65 22 -87 -3 -18 -20 -18
-20 -44 11 -30 36 -64 37 -69 2 -4 -24 116 -226 153 -258 19 -16 61 -113 52
-121 -1 -1 -26 7 -54 18 -50 20 -59 30 -190 205 -121 161 -141 183 -163 181
-47 -5 -35 -37 60 -167 50 -68 89 -125 87 -128 -3 -2 -60 21 -126 53 -120 57
-121 57 -101 76 11 10 20 23 20 27 0 16 -80 111 -93 111 -18 0 -37 -21 -37
-40 0 -9 13 -31 30 -50 16 -19 29 -39 30 -43 0 -13 -231 111 -375 201 -71 44
-179 116 -240 160 -89 64 -111 84 -113 107 -6 47 28 279 58 403 41 166 81 275
164 447 268 549 748 1015 1425 1381 174 95 517 241 741 316 427 142 962 247
1425 277 177 12 618 12 790 1z m-6132 -3002 c51 -45 96 -91 100 -102 13 -33
11 -147 -3 -206 -19 -79 -42 -129 -117 -252 -56 -91 -66 -115 -65 -149 3 -69
51 -113 146 -134 15 -3 27 -7 25 -9 -2 -2 -89 -41 -194 -87 -104 -45 -198 -89
-207 -97 -34 -28 -17 -82 25 -82 34 0 681 290 704 316 15 16 33 24 55 24 76
-1 148 -58 219 -176 36 -59 83 -90 121 -81 63 16 144 103 221 237 48 83 89 81
227 -13 139 -94 172 -110 204 -98 39 15 100 117 125 209 11 43 21 84 21 91 0
20 52 7 106 -26 88 -54 93 -56 125 -42 37 15 63 63 79 146 10 51 10 74 -4 139
-8 43 -14 80 -12 82 3 2 219 -106 263 -133 1 0 -9 -31 -22 -68 -31 -85 -32
-113 -4 -122 29 -10 43 8 69 88 12 37 26 67 30 67 14 0 60 -23 60 -29 0 -3
-17 -64 -38 -135 l-37 -129 -53 -18 c-28 -10 -52 -17 -52 -16 0 1 7 24 15 51
17 55 7 79 -29 74 -14 -2 -25 -15 -34 -43 -15 -47 -9 -82 15 -87 10 -2 -65
-32 -167 -66 -555 -190 -989 -339 -1445 -497 -280 -97 -690 -239 -910 -315
-220 -76 -505 -174 -633 -219 -129 -45 -239 -81 -246 -81 -35 0 -236 164 -329
269 -186 208 -210 420 -75 661 88 158 393 492 573 627 182 136 401 262 625
359 125 54 392 153 413 154 10 0 60 -37 110 -82z m11598 -53 c467 -200 764
-415 971 -700 41 -56 118 -181 118 -191 0 -2 9 -23 19 -47 104 -226 90 -458
-38 -646 -177 -259 -736 -579 -1421 -813 -180 -61 -604 -182 -835 -238 -183
-44 -786 -168 -900 -184 -69 -10 -714 -115 -840 -137 -66 -11 -183 -36 -260
-54 -127 -31 -254 -58 -390 -85 -132 -25 -357 -40 -765 -50 -245 -6 -609 -17
-810 -25 -755 -29 -1331 -28 -1885 6 -93 5 -249 14 -345 19 -194 11 -488 33
-740 55 -496 45 -543 51 -960 135 -289 58 -328 63 -610 90 -231 23 -420 43
-540 60 -150 21 -385 61 -401 68 -12 5 71 122 389 547 222 297 532 713 689
925 157 212 296 396 309 409 23 24 23 24 -5 -70 -20 -65 -26 -99 -19 -111 10
-21 41 -24 55 -5 6 6 31 84 57 172 49 171 47 168 137 224 l46 29 -8 -36 c-4
-21 -33 -147 -64 -281 -53 -236 -58 -281 -31 -281 10 0 8 -10 -6 -40 -12 -24
-17 -47 -13 -60 12 -36 66 -90 119 -118 45 -23 64 -27 155 -28 57 -1 107 -6
112 -11 5 -5 17 -53 28 -106 24 -120 56 -179 113 -208 88 -45 194 -21 308 71
41 33 78 60 82 60 22 0 90 -79 128 -149 57 -107 67 -115 132 -112 38 1 100 59
144 135 20 33 44 67 52 74 23 18 71 6 188 -44 82 -35 113 -44 160 -44 118 0
169 54 160 170 -2 36 -7 72 -10 80 -3 10 25 37 89 84 236 175 340 262 339 284
-1 25 -5 25 175 3 l54 -6 -200 -152 c-111 -84 -208 -160 -217 -169 -22 -22 -3
-58 28 -52 30 6 466 337 466 354 0 11 20 14 86 14 47 0 84 -4 82 -9 -1 -4 -81
-79 -176 -166 -134 -122 -172 -162 -170 -179 2 -15 10 -21 30 -21 21 0 69 38
212 168 103 93 186 175 186 183 0 11 20 14 97 14 l97 0 -35 -37 c-18 -21 -91
-97 -161 -170 -71 -74 -128 -141 -128 -151 0 -20 18 -42 34 -42 6 0 86 78 178
173 l167 172 1 -116 c0 -104 -2 -118 -20 -134 -24 -22 -26 -48 -4 -66 15 -12
16 -46 9 -350 l-7 -337 25 -17 c31 -20 64 -7 71 28 3 12 9 187 15 390 9 344
11 369 30 393 11 14 75 83 143 153 l123 128 95 6 c52 3 95 5 96 4 1 -1 -52
-69 -118 -152 -161 -201 -174 -221 -158 -240 18 -21 43 -19 67 8 26 27 284
358 298 382 7 11 34 19 83 26 40 6 77 9 82 7 6 -2 -56 -88 -135 -193 -149
-196 -165 -227 -115 -233 23 -3 44 21 175 193 83 107 154 208 159 224 9 28 14
30 105 44 53 8 97 14 98 13 1 -1 -61 -99 -137 -219 -77 -119 -140 -226 -140
-237 0 -26 32 -43 53 -27 27 21 299 468 293 482 -3 8 2 16 12 19 58 15 124 28
128 23 9 -8 -92 -214 -125 -255 -16 -21 -39 -59 -52 -84 -19 -39 -21 -54 -13
-85 8 -33 17 -42 67 -67 101 -50 224 -51 336 -1 72 33 69 34 148 -73 30 -39
65 -79 78 -88 52 -34 165 23 222 111 51 79 58 85 95 78 49 -9 87 -30 147 -82
102 -88 123 -101 162 -101 65 0 126 73 144 173 9 45 18 46 137 17 116 -28 143
-26 179 9 27 27 29 35 29 100 0 63 -4 78 -41 148 l-42 78 33 133 c18 72 36
132 40 132 12 0 81 -41 98 -57 7 -7 20 -13 28 -13 9 0 34 -11 57 -24 81 -47
731 -396 747 -401 10 -3 28 3 40 13 18 14 21 25 17 44 -6 22 -68 59 -399 238
-216 117 -398 217 -404 222 -8 6 1 56 33 181 24 94 44 184 45 198 1 24 14 33
131 88 113 53 132 59 146 47 11 -9 127 -25 381 -50 201 -20 372 -36 381 -36
12 0 18 -14 22 -59 9 -80 32 -135 73 -171 43 -38 67 -38 174 0 105 37 182 48
198 29 6 -8 34 -42 62 -76 53 -66 111 -106 186 -129 66 -20 98 -3 226 122 108
106 109 106 151 101 23 -2 83 -19 132 -37 76 -28 103 -33 170 -32 87 1 166 20
196 48 41 37 21 108 -71 259 -61 100 -90 162 -90 194 0 42 56 140 124 217 51
57 62 65 86 60 15 -2 96 -35 181 -71z m-2107 -286 c8 -24 14 -44 13 -44 -4 -3
-369 33 -372 37 -2 2 53 36 123 75 70 40 143 83 162 96 l35 25 12 -73 c7 -41
19 -93 27 -116z m-1188 -100 c84 -65 84 -63 -1 -94 -42 -15 -78 -25 -81 -23
-6 6 17 158 24 158 3 0 29 -18 58 -41z m-5882 -119 c25 -12 46 -22 46 -24 0
-1 -7 -22 -15 -47 -11 -33 -26 -50 -58 -70 -54 -34 -92 -46 -85 -28 3 8 16 53
29 102 13 48 27 87 30 87 4 0 27 -9 53 -20z m6246 -15 c0 -3 -19 -77 -41 -165
l-42 -158 -43 21 c-24 11 -44 26 -44 31 0 6 13 61 28 121 l28 110 44 22 c44
22 70 28 70 18z m-200 -82 c1 -26 -35 -153 -43 -153 -12 0 -77 40 -77 47 0 3
5 23 11 43 9 30 20 42 48 53 41 17 61 20 61 10z m-5721 -34 c22 -8 31 -17 31
-32 -1 -12 -18 -102 -39 -200 l-38 -178 -58 -59 c-33 -33 -60 -58 -62 -56 -2
2 102 490 112 524 5 15 13 15 54 1z m5541 -29 c0 -5 -5 -10 -11 -10 -5 0 -7 5
-4 10 3 6 8 10 11 10 2 0 4 -4 4 -10z m-5447 -182 c-14 -32 -27 -57 -29 -55
-2 1 1 20 6 42 4 22 14 67 21 100 l12 60 9 -44 c6 -37 3 -54 -19 -103z m5388
82 c15 -8 18 -17 13 -38 -11 -45 -17 -47 -30 -11 -21 59 -18 67 17 49z m-3855
-93 c29 -39 51 -73 49 -75 -3 -3 -118 15 -147 24 -14 4 -13 11 10 64 14 33 28
60 31 60 3 0 29 -33 57 -73z m3984 23 c21 -11 41 -23 44 -28 2 -4 -8 -57 -23
-117 l-27 -109 -41 66 -41 65 21 71 c12 40 23 72 25 72 1 0 20 -9 42 -20z
m-4085 -240 c6 -9 -65 -54 -72 -46 -3 2 -2 18 1 33 6 26 10 29 37 25 16 -2 31
-8 34 -12z m153 -23 l63 -12 -126 -104 c-138 -113 -144 -115 -164 -43 -9 31
-9 32 65 78 57 37 74 53 74 71 0 26 2 26 88 10z m290 -45 c33 -7 33 -8 -173
-165 -114 -87 -208 -157 -209 -155 -1 1 -14 22 -28 45 l-27 41 137 113 c75 62
141 119 145 127 9 14 69 11 155 -6z m1134 -79 c-17 -21 -56 -63 -86 -93 l-56
-54 0 86 0 87 53 4 c28 2 67 4 85 5 l34 2 -30 -37z"/>
<path d="M11582 12590 c-376 -53 -662 -298 -753 -645 -29 -113 -30 -287 0
-410 57 -237 223 -461 446 -600 33 -21 71 -45 85 -53 29 -19 97 -44 195 -71
98 -28 135 -32 253 -32 327 0 605 145 773 401 73 111 100 184 125 338 15 87
16 118 6 207 -24 218 -130 435 -284 581 -63 59 -186 154 -201 154 -6 0 -27 11
-46 25 -107 73 -425 129 -599 105z m257 -45 c100 -12 101 -13 7 -88 -165 -131
-310 -314 -407 -512 -65 -135 -99 -233 -131 -380 -18 -84 -22 -131 -22 -295 1
-107 6 -217 11 -245 6 -27 9 -52 7 -54 -9 -10 -124 78 -194 149 -172 172 -262
387 -261 625 0 230 87 428 256 583 195 178 441 251 734 217z m352 -410 c27
-19 52 -35 56 -35 5 0 32 17 62 37 l53 37 20 -24 c10 -13 17 -29 14 -37 -3 -7
-8 -34 -12 -60 -5 -45 -4 -49 24 -70 34 -25 49 -68 31 -89 -6 -8 -29 -14 -50
-14 -36 0 -38 -2 -44 -37 -13 -78 -39 -109 -71 -82 -8 7 -28 41 -44 76 l-29
63 -63 0 c-100 0 -118 38 -43 90 25 17 45 33 45 36 0 2 -11 27 -25 54 -30 58
-29 54 -9 74 22 22 30 21 85 -19z m-202 -49 c15 -9 14 -39 -1 -54 -18 -18
-192 -16 -208 3 -25 30 -8 50 50 55 70 6 145 4 159 -4z m-1 -98 c19 -19 14
-46 -9 -59 -46 -24 -164 -59 -182 -53 -13 4 -17 13 -15 32 3 24 13 31 88 59
97 37 102 37 118 21z m-602 -449 c3 -6 -5 -23 -20 -37 -25 -26 -26 -26 -26 -5
0 46 28 71 46 42z m74 -55 c12 -13 3 -25 -55 -84 -38 -38 -72 -67 -75 -65 -18
11 7 65 53 113 28 28 54 52 58 52 4 0 12 -7 19 -16z m77 -55 c9 -9 8 -18 -4
-35 -25 -39 3 -60 38 -28 10 9 26 14 35 10 13 -5 7 -16 -31 -58 -45 -50 -46
-53 -26 -62 19 -8 29 -2 71 39 47 47 51 48 67 32 16 -16 15 -20 -30 -65 -26
-26 -47 -53 -47 -60 0 -7 -12 -20 -28 -30 -15 -9 -65 -57 -112 -107 -46 -49
-87 -91 -91 -93 -4 -2 -10 7 -14 19 -6 17 3 31 37 68 71 75 74 79 39 77 -18
-1 -42 -13 -61 -31 -26 -25 -33 -27 -40 -15 -14 22 -12 40 4 40 16 0 76 77 76
97 0 20 -35 15 -55 -7 -25 -28 -35 -25 -35 9 0 22 19 47 93 119 50 51 94 92
98 92 3 0 10 -5 16 -11z m240 -156 c3 -9 -298 -353 -317 -361 -3 -1 -14 3 -23
10 -19 14 -38 -9 198 248 102 111 132 133 142 103z m77 -29 c25 -10 20 -22
-39 -87 -54 -59 -63 -79 -46 -105 5 -9 27 10 77 67 48 57 76 81 91 81 35 0 28
-16 -35 -89 -83 -96 -82 -94 -74 -126 8 -28 9 -27 97 76 60 71 96 105 113 107
21 3 24 1 19 -20 -5 -20 -3 -23 18 -23 14 1 28 5 32 8 9 10 63 9 63 -1 0 -5
-9 -17 -20 -27 -25 -22 -26 -41 -2 -50 12 -5 26 4 48 29 29 34 64 48 64 26 0
-5 -13 -25 -30 -43 -16 -19 -30 -42 -30 -51 0 -8 -12 -24 -27 -33 -16 -10 -39
-31 -53 -48 -45 -53 -60 -65 -80 -65 -19 0 -19 2 -6 23 14 21 14 24 -4 34 -16
11 -24 6 -63 -37 -41 -45 -87 -67 -87 -41 0 6 28 42 62 81 50 58 60 75 51 89
-6 9 -15 16 -20 16 -6 0 -45 -40 -87 -90 -87 -103 -105 -118 -125 -106 -11 7
-6 19 24 55 l37 46 -34 0 c-28 0 -40 -8 -71 -45 -29 -35 -45 -45 -67 -45 -36
0 -37 6 -9 36 16 17 20 30 15 50 l-7 27 -35 -34 c-18 -18 -34 -39 -34 -46 0
-15 -28 -17 -49 -4 -17 11 -12 20 47 82 24 27 32 43 28 57 -8 25 19 55 44 47
13 -4 39 19 101 89 46 52 85 95 86 96 1 0 8 -3 17 -6z m506 -139 c0 -2 -18
-28 -40 -57 -22 -29 -40 -56 -40 -59 0 -10 -81 -61 -87 -55 -3 3 21 37 53 76
33 39 63 78 69 86 9 13 45 20 45 9z"/>
<path d="M11486 11174 c-9 -24 -7 -28 9 -14 17 14 20 30 6 30 -5 0 -12 -7 -15
-16z"/>
<path d="M12027 11113 c-4 -3 -7 -11 -7 -17 0 -6 5 -5 12 2 6 6 9 14 7 17 -3
3 -9 2 -12 -2z"/>
<path d="M12090 10979 c0 -5 5 -7 10 -4 6 3 10 8 10 11 0 2 -4 4 -10 4 -5 0
-10 -5 -10 -11z"/>
<path d="M5275 12286 c-362 -57 -649 -306 -745 -646 -27 -98 -37 -265 -20
-367 52 -326 271 -604 580 -737 36 -15 80 -35 99 -43 18 -8 43 -16 56 -17 12
-2 26 -6 32 -9 17 -11 126 -21 223 -20 143 0 245 21 383 79 60 25 186 101 213
129 8 7 24 22 36 32 34 27 138 149 138 160 0 6 6 15 13 21 20 17 84 151 97
202 31 123 37 163 38 260 6 289 -124 554 -371 757 -87 72 -226 142 -337 168
-187 46 -292 53 -435 31z m315 -47 c99 -15 100 -19 26 -78 -114 -91 -254 -255
-338 -396 -98 -165 -170 -354 -204 -540 -24 -128 -25 -451 -2 -562 8 -40 11
-73 6 -73 -31 0 -175 97 -251 169 -119 112 -222 288 -263 446 -28 106 -26 315
4 418 43 152 146 318 254 409 216 184 471 253 768 207z m366 -514 c30 -19 57
-35 59 -35 3 0 25 16 50 35 70 53 97 28 72 -68 l-15 -55 39 -38 c60 -58 49
-94 -28 -94 -42 0 -43 0 -54 -45 -21 -82 -57 -85 -91 -8 -26 60 -33 65 -85 59
-36 -5 -45 -2 -62 20 -24 31 -17 51 30 85 33 24 34 29 4 108 -29 80 -5 91 81
36z m-274 -30 c98 -21 105 -23 112 -42 17 -42 -39 -53 -153 -29 -78 17 -97 38
-65 70 19 19 16 19 106 1z m46 -147 c19 -19 14 -46 -9 -59 -12 -6 -51 -20 -87
-30 -69 -20 -92 -15 -92 21 0 26 18 37 95 59 86 24 79 23 93 9z m-589 -414
c-14 -18 -24 -11 -15 11 3 9 11 13 16 10 8 -5 7 -11 -1 -21z m78 -35 c2 -8
-22 -41 -52 -74 l-54 -60 -1 35 c0 27 9 43 42 77 42 43 61 49 65 22z m87 -70
c-3 -5 -2 -18 1 -30 6 -19 8 -19 24 -5 22 20 35 20 51 2 9 -12 7 -21 -10 -44
-19 -25 -20 -33 -10 -52 12 -23 12 -22 49 19 33 37 38 40 55 26 22 -16 29 -5
-88 -145 -47 -57 -57 -73 -45 -81 21 -13 27 -11 38 10 6 10 46 55 90 100 55
58 83 80 95 75 25 -10 20 -21 -43 -97 -62 -76 -77 -109 -50 -114 9 -2 43 31
88 87 40 49 76 90 80 90 4 0 16 -6 26 -14 18 -13 18 -14 -3 -44 -28 -38 -27
-42 2 -42 15 0 34 12 49 30 24 28 55 39 70 23 4 -3 2 -12 -4 -19 -5 -6 -7 -24
-3 -39 l7 -26 31 30 c30 29 66 41 66 22 0 -4 -13 -25 -30 -46 -16 -21 -30 -46
-30 -56 0 -10 -12 -25 -27 -33 -16 -8 -50 -44 -78 -80 -35 -47 -56 -66 -72
-66 -31 0 -29 13 7 54 24 27 29 40 24 60 -3 14 -9 26 -13 26 -4 0 -32 -31 -61
-70 -39 -49 -62 -70 -77 -70 -13 0 -23 4 -23 9 0 5 29 47 65 92 36 46 63 89
60 97 -3 7 -5 18 -5 24 0 22 -24 -2 -108 -107 -80 -101 -90 -110 -117 -107
-38 5 -41 8 -26 26 10 12 8 17 -10 26 -19 11 -24 9 -43 -14 -15 -19 -27 -24
-43 -20 -30 8 -29 19 8 66 29 36 31 41 16 56 -16 15 -20 12 -65 -38 -45 -50
-72 -60 -72 -27 0 7 43 63 95 126 51 63 92 118 90 122 -3 3 -14 9 -25 12 -15
4 -35 -14 -91 -84 -40 -49 -75 -89 -79 -89 -4 0 -10 14 -14 31 -5 24 -1 38 18
59 16 20 22 37 19 54 -5 27 -17 33 -28 16 -13 -22 -25 -8 -25 29 0 30 4 40 20
44 13 3 22 17 26 37 5 21 16 36 33 43 14 7 39 27 55 45 27 31 30 32 47 16 10
-9 16 -21 13 -25z m667 -278 c-107 -148 -194 -231 -217 -208 -4 3 36 60 89
125 85 106 98 119 121 115 l26 -5 -19 -27z m109 10 c0 -4 -9 -19 -19 -32 -10
-14 -27 -40 -38 -58 -17 -31 -87 -80 -98 -69 -8 8 126 168 140 168 8 0 15 -4
15 -9z"/>
<path d="M11916 10058 c-8 -13 -33 -77 -56 -143 -176 -506 -250 -732 -248
-750 4 -29 43 -32 62 -3 8 13 81 218 162 455 121 358 144 435 134 448 -18 21
-37 19 -54 -7z"/>
<path d="M12097 9958 c-8 -13 -59 -173 -112 -356 -77 -266 -94 -336 -85 -348
15 -17 44 -18 57 -1 6 6 54 165 108 351 100 345 103 366 62 374 -9 2 -22 -7
-30 -20z"/>
<path d="M5325 9936 c-40 -61 -366 -802 -363 -826 4 -33 40 -39 61 -10 8 11
94 200 193 421 142 319 176 404 167 417 -16 26 -40 26 -58 -2z"/>
<path d="M11592 9877 c-14 -17 -202 -528 -202 -550 0 -25 39 -42 57 -25 21 22
204 529 201 558 -3 29 -38 39 -56 17z"/>
<path d="M5627 9853 c-8 -16 -67 -172 -132 -347 -89 -241 -116 -323 -108 -335
12 -19 33 -24 51 -13 7 5 54 119 103 253 143 388 158 433 147 452 -14 26 -46
21 -61 -10z"/>
<path d="M12363 9858 c-9 -11 -57 -183 -125 -441 -9 -35 -9 -53 -2 -65 16 -25
47 -21 61 8 19 41 124 459 121 483 -3 25 -39 35 -55 15z"/>
<path d="M4972 9838 c-22 -29 -342 -618 -342 -631 0 -20 25 -39 47 -35 11 2
77 113 189 322 138 255 171 323 163 338 -11 21 -42 24 -57 6z"/>
<path d="M5881 9812 c-22 -41 -190 -573 -185 -586 7 -18 29 -27 49 -20 7 3 21
24 29 47 12 32 156 482 170 532 11 37 -45 61 -63 27z"/>
<path d="M12603 9778 c-6 -7 -32 -79 -59 -160 -41 -126 -46 -149 -34 -163 7
-9 23 -15 34 -13 18 3 29 27 69 148 26 80 46 156 45 170 -3 28 -38 40 -55 18z"/>
<path d="M11354 9772 c-21 -13 -124 -188 -124 -210 0 -25 35 -39 55 -22 20 16
115 184 115 202 0 14 -19 38 -29 38 -4 0 -11 -4 -17 -8z"/>
<path d="M4656 9738 c-55 -85 -226 -406 -226 -424 0 -31 37 -42 60 -18 10 11
68 111 128 223 90 164 109 207 101 222 -13 26 -45 24 -63 -3z"/>
<path d="M6003 9648 c-13 -15 -93 -266 -93 -290 0 -25 33 -40 53 -25 9 7 35
74 59 150 32 106 40 142 32 155 -14 22 -38 26 -51 10z"/>
<path d="M7271 9532 c-15 -29 15 -79 99 -163 135 -135 307 -201 530 -203 114
0 131 2 200 28 41 16 114 48 162 72 49 25 112 47 145 53 32 5 59 8 60 7 1 0
-7 -37 -18 -81 -51 -216 -28 -362 79 -494 69 -85 223 -161 328 -161 98 0 232
67 280 140 40 60 74 164 81 245 7 84 -10 236 -37 333 -10 37 -17 68 -15 71 2
2 25 6 51 9 45 5 59 -1 239 -93 191 -98 192 -98 277 -103 94 -5 166 12 302 69
143 61 306 197 300 251 -1 12 -3 27 -3 31 -1 5 -13 7 -27 5 -20 -2 -33 -15
-54 -54 -45 -85 -80 -123 -147 -160 -84 -48 -242 -103 -312 -111 -83 -8 -148
14 -359 123 -261 136 -411 183 -583 184 -131 0 -211 -28 -467 -164 -289 -155
-397 -187 -553 -166 -119 16 -193 36 -274 75 -100 48 -146 91 -194 184 -35 67
-55 91 -76 91 -3 0 -9 -8 -14 -18z m1538 -36 c-10 -8 -272 -96 -276 -92 -6 6
137 64 199 80 52 14 86 20 77 12z m129 -7 c9 0 -5 -9 -33 -18 -49 -18 -65 -18
-65 -1 0 11 51 30 68 24 8 -2 21 -4 30 -5z m110 -20 l49 -10 31 -102 c133
-436 10 -741 -291 -725 -138 6 -280 103 -342 233 -26 53 -29 71 -30 158 l0 98
103 40 c56 22 102 45 102 50 0 14 -12 11 -109 -26 -49 -19 -92 -35 -94 -35 -2
0 -2 14 1 31 3 22 12 33 31 40 136 51 211 83 211 90 0 15 -22 10 -125 -30 -55
-21 -101 -38 -103 -36 -1 1 1 12 6 25 7 18 40 34 167 81 87 32 160 57 161 56
2 -2 4 -82 5 -178 2 -95 6 -182 11 -192 19 -37 28 -1 28 109 l0 114 40 16 c22
9 40 21 40 26 0 10 -27 6 -64 -8 -10 -4 -16 -1 -16 9 0 9 -3 22 -6 30 -4 11
12 21 63 37 81 27 85 29 78 40 -3 5 -37 -2 -75 -15 l-70 -24 0 27 c0 24 7 30
73 54 39 14 73 27 74 27 1 1 24 -4 51 -10z m-240 -34 c-7 -6 -303 -113 -306
-110 -2 2 1 12 6 22 15 26 296 125 300 106 2 -8 2 -16 0 -18z"/>
<path d="M9040 9440 c-8 -5 -12 -12 -8 -15 9 -9 48 4 48 16 0 12 -21 11 -40
-1z"/>
<path d="M8755 9339 c-4 -6 -5 -13 -2 -16 8 -7 47 7 47 18 0 13 -37 11 -45 -2z"/>
<path d="M8980 9324 c0 -9 5 -14 12 -12 18 6 21 28 4 28 -9 0 -16 -7 -16 -16z"/>
<path d="M12009 5009 c-10 -19 -6 -27 29 -61 29 -30 45 -39 60 -34 37 12 34
36 -7 77 -44 44 -65 49 -82 18z"/>
<path d="M14898 4943 c-33 -40 -118 -185 -118 -203 0 -28 29 -52 59 -48 20 2
39 23 89 97 34 52 62 104 62 116 0 47 -63 72 -92 38z"/>
<path d="M14756 4614 c-22 -21 -20 -52 9 -164 30 -116 53 -139 103 -104 14 9
22 25 22 42 -1 50 -49 216 -66 229 -24 17 -49 16 -68 -3z"/>
<path d="M14926 4304 c-19 -19 -20 -44 -3 -67 14 -18 138 -67 172 -67 35 0 61
35 49 67 -7 21 -24 33 -79 54 -81 32 -117 35 -139 13z"/>
<path d="M15215 4180 c-12 -13 -15 -27 -11 -45 5 -21 24 -35 91 -67 82 -39 86
-40 111 -24 20 14 25 24 22 49 -3 29 -10 36 -78 69 -85 43 -110 46 -135 18z"/>
<path d="M11768 4067 c-9 -7 -25 -40 -36 -74 -16 -50 -18 -65 -8 -78 23 -32
50 -14 73 50 12 33 22 68 22 77 1 24 -32 41 -51 25z"/>
<path d="M15436 3984 c-18 -18 -18 -10 -16 -139 1 -115 14 -145 59 -145 48 0
53 17 49 150 -3 107 -5 123 -22 136 -26 18 -51 18 -70 -2z"/>
<path d="M15271 3618 c-86 -37 -104 -62 -76 -104 21 -32 49 -30 147 15 76 34
95 65 63 101 -24 27 -47 25 -134 -12z"/>
<path d="M14848 3470 c-16 -12 -28 -30 -28 -40 0 -10 12 -28 28 -40 24 -19 37
-21 110 -18 69 2 86 6 98 22 8 11 14 27 14 36 0 9 -6 25 -14 36 -12 16 -29 20
-98 22 -73 3 -86 1 -110 -18z"/>
<path d="M14590 3429 c-41 -3 -83 -9 -93 -13 -26 -12 -33 -53 -12 -76 15 -17
31 -20 96 -20 89 0 125 10 134 39 18 58 -19 78 -125 70z"/>
<path d="M14308 3283 c-19 -23 -93 -144 -100 -163 -3 -8 -2 -25 3 -37 6 -17 3
-22 -16 -27 -37 -9 -42 -48 -16 -128 23 -71 43 -91 84 -80 37 10 41 44 15 126
-24 75 -24 75 -3 80 23 6 125 162 125 193 0 45 -63 69 -92 36z"/>
<path d="M15747 7682 c-27 -29 -21 -52 38 -139 56 -84 80 -102 115 -83 42 23
37 55 -26 148 -64 94 -93 111 -127 74z"/>
<path d="M15947 7382 c-27 -30 -20 -54 46 -153 49 -74 68 -95 88 -97 30 -4 59
20 59 48 0 18 -85 163 -118 203 -19 22 -55 22 -75 -1z"/>
<path d="M16157 7032 c-24 -26 -22 -42 21 -134 44 -95 61 -113 97 -104 50 13
51 44 6 142 -54 115 -85 139 -124 96z"/>
<path d="M16276 6744 c-9 -8 -16 -26 -16 -39 0 -30 55 -166 72 -176 28 -18 70
-2 81 31 6 21 -50 172 -70 188 -23 16 -48 15 -67 -4z"/>
<path d="M16356 6424 c-18 -18 -18 -11 -16 -134 2 -113 13 -144 56 -148 50 -5
56 12 52 148 -3 107 -5 123 -22 136 -26 18 -51 18 -70 -2z"/>
<path d="M16338 6049 c-18 -10 -78 -188 -78 -231 0 -32 18 -48 52 -48 18 0 33
8 42 23 17 27 66 187 66 215 0 42 -44 64 -82 41z"/>
<path d="M16177 5682 c-76 -49 -89 -98 -33 -123 22 -10 32 -7 78 21 74 47 88
60 88 85 0 26 -29 55 -56 55 -10 0 -45 -17 -77 -38z"/>
<path d="M15876 5540 c-70 -29 -86 -42 -86 -71 0 -19 20 -45 40 -52 21 -6 172
50 188 70 27 38 2 84 -46 82 -15 0 -58 -13 -96 -29z"/>
<path d="M15544 5401 c-44 -16 -90 -34 -102 -40 -28 -15 -29 -61 -1 -86 20
-19 22 -18 135 19 111 36 134 52 134 90 0 23 -29 46 -58 45 -15 0 -63 -13
-108 -28z"/>
</g>
</svg>
