<?xml version="1.0" standalone="no"?>
<!DOCTYPE svg PUBLIC "-//W3C//DTD SVG 20010904//EN"
 "http://www.w3.org/TR/2001/REC-SVG-20010904/DTD/svg10.dtd">
<svg version="1.0" xmlns="http://www.w3.org/2000/svg"
 width="1800.000000pt" height="1500.000000pt" viewBox="0 0 1800.000000 1500.000000"
 preserveAspectRatio="xMidYMid meet">

<g transform="translate(0.000000,1500.000000) scale(0.100000,-0.100000)"
fill="#000000" stroke="none">
<path d="M1018 13237 c-51 -38 -84 -100 -100 -186 -10 -53 -9 -77 6 -151 l18
-88 -40 -41 c-117 -120 -97 -246 56 -351 96 -65 300 -124 468 -134 172 -10
262 22 314 114 25 45 28 88 18 219 -3 31 0 34 37 46 98 29 199 105 235 175 28
55 45 156 31 186 -19 42 -69 56 -179 49 -149 -10 -208 -23 -280 -62 -85 -47
-172 -104 -196 -132 -11 -11 -27 -21 -37 -21 -19 0 -22 8 -60 160 -25 102 -71
193 -114 226 -49 37 -120 34 -177 -9z m145 -65 c27 -28 67 -117 94 -207 8 -27
20 -56 25 -63 17 -20 2 -26 -55 -24 -48 2 -127 -7 -188 -23 -24 -6 -27 -3 -39
39 -18 65 -9 180 18 233 38 73 100 92 145 45z m838 -214 c9 -55 -14 -107 -67
-156 -57 -52 -106 -78 -174 -93 -49 -10 -50 -10 -95 27 -25 20 -83 52 -128 70
-45 18 -83 38 -85 43 -4 12 67 65 128 95 25 13 79 28 120 35 41 7 80 15 85 16
6 2 55 3 110 2 l100 -2 6 -37z"/>
<path d="M5370 12625 c-270 -50 -517 -190 -789 -451 -240 -230 -361 -427 -410
-671 -48 -233 -16 -421 134 -797 30 -76 55 -142 55 -146 0 -5 -40 -63 -90
-129 -138 -185 -236 -339 -366 -572 -179 -325 -278 -549 -379 -859 -25 -80
-50 -148 -54 -153 -4 -4 -54 0 -112 8 -135 19 -284 19 -395 0 -247 -43 -547
-189 -707 -343 -153 -148 -210 -301 -223 -597 -15 -331 66 -659 278 -1129 54
-121 122 -260 150 -310 123 -219 291 -452 503 -699 70 -82 125 -150 123 -152
-2 -3 -62 -25 -134 -51 -71 -25 -153 -55 -182 -65 -211 -76 -590 -251 -807
-371 -594 -330 -971 -707 -1099 -1100 -36 -112 -48 -187 -47 -312 0 -169 34
-305 118 -471 213 -422 704 -807 1473 -1155 227 -102 756 -298 963 -356 50
-14 173 -49 272 -79 99 -29 232 -65 295 -80 63 -14 207 -48 320 -75 256 -61
811 -169 1075 -210 110 -17 254 -40 320 -51 66 -10 217 -30 335 -44 118 -14
226 -27 240 -30 47 -9 525 -55 837 -80 172 -13 478 -31 680 -40 203 -8 424
-20 493 -25 273 -22 1776 3 2095 35 28 2 93 7 145 10 528 32 1589 151 2055
230 512 87 1263 250 1546 336 88 26 98 32 126 71 17 24 38 58 47 76 31 60 16
74 -401 399 -210 164 -471 368 -580 454 -109 85 -450 352 -758 593 -586 459
-591 463 -584 470 2 2 72 -11 154 -30 83 -19 240 -55 350 -80 110 -25 247 -56
305 -69 97 -23 237 -55 845 -194 204 -46 533 -119 935 -206 204 -44 463 -101
550 -120 36 -8 119 -26 185 -41 66 -14 183 -41 260 -59 77 -19 248 -59 380
-90 132 -30 254 -59 270 -64 17 -6 66 -17 109 -26 78 -16 81 -16 140 6 134 50
358 302 474 534 80 161 113 296 113 465 0 450 -305 875 -907 1263 -301 193
-760 414 -1142 547 -68 24 -126 49 -129 56 -3 7 11 39 30 71 51 84 189 365
259 528 69 160 116 292 158 450 124 461 130 792 20 1115 -87 258 -186 428
-334 575 -119 118 -197 164 -342 200 -158 41 -275 32 -526 -41 -66 -19 -125
-34 -132 -34 -9 0 -17 30 -25 88 -15 111 -59 303 -116 507 -75 268 -130 406
-244 605 -167 291 -301 469 -484 647 l-116 112 41 68 c65 106 117 227 159 365
67 221 74 271 73 488 0 186 -2 200 -32 311 -57 208 -116 327 -237 477 -109
136 -222 218 -424 307 -115 51 -198 77 -346 106 -188 37 -496 19 -794 -47
-164 -37 -248 -67 -409 -146 -309 -152 -484 -318 -603 -573 -21 -46 -39 -90
-39 -99 0 -22 -6 -21 -88 13 -218 90 -537 178 -742 206 -63 8 -164 21 -225 29
-196 26 -383 37 -659 37 -495 1 -944 -48 -1561 -170 -137 -28 -134 -28 -153
22 -69 179 -190 362 -301 454 -219 181 -547 322 -844 362 -106 15 -325 12
-417 -4z m451 -211 c205 -34 435 -125 597 -237 140 -97 235 -221 313 -416 61
-148 67 -158 117 -183 55 -26 82 -23 430 41 522 97 903 135 1362 136 665 1
1201 -93 1639 -288 168 -74 208 -65 246 59 31 99 97 236 150 309 113 159 354
322 604 409 215 75 593 125 801 107 161 -15 337 -68 495 -150 153 -79 326
-271 385 -429 103 -274 113 -511 34 -801 -55 -202 -124 -355 -204 -451 -20
-25 -42 -55 -48 -67 -13 -23 -16 -72 -6 -97 3 -8 55 -57 116 -107 216 -180
421 -451 594 -784 161 -311 287 -826 330 -1350 38 -461 -14 -787 -207 -1319
-150 -411 -265 -656 -462 -981 -48 -79 -204 -292 -280 -383 -98 -116 -283
-290 -407 -383 -100 -74 -255 -169 -277 -169 -6 0 -22 46 -37 101 -214 795
-798 1577 -1591 2131 -267 186 -651 395 -931 506 -128 51 -352 141 -384 154
-23 10 -21 11 35 27 164 47 245 124 245 231 -1 72 -15 108 -90 235 -55 93 -96
183 -88 190 8 7 212 -26 273 -44 85 -26 116 -26 145 -3 25 21 19 50 -14 57
-11 2 -104 6 -206 9 -204 6 -257 15 -437 75 -126 42 -335 131 -362 154 -25 22
-309 157 -384 183 -87 30 -213 47 -285 39 -82 -9 -253 -41 -432 -80 -415 -91
-553 -114 -728 -122 -104 -5 -138 -10 -154 -23 -25 -20 -18 -50 10 -50 11 0
37 6 58 14 22 7 62 16 89 20 115 16 258 39 375 61 69 13 143 26 165 30 58 9
213 44 265 60 98 30 296 59 405 59 130 0 204 -18 320 -76 44 -22 105 -50 135
-62 77 -32 164 -90 190 -127 47 -65 62 -141 70 -344 8 -210 24 -283 79 -366
17 -24 28 -45 26 -47 -2 -2 -34 1 -72 7 -37 6 -135 18 -218 27 -82 8 -215 24
-295 34 -421 54 -955 29 -1380 -66 -975 -218 -1761 -817 -2105 -1604 -95 -216
-171 -486 -190 -672 -4 -38 -12 -68 -18 -68 -19 0 -292 285 -369 385 -254 330
-439 607 -502 750 -100 227 -164 474 -186 720 -15 160 -12 573 5 756 26 276
69 525 116 676 132 431 275 746 531 1170 69 116 270 396 308 430 56 51 58 153
5 282 -47 115 -115 314 -140 413 -64 250 -3 522 166 733 79 99 266 276 389
369 261 197 525 258 871 200z m-2474 -3766 c50 -7 83 -17 83 -24 0 -6 -11 -90
-25 -185 -40 -285 -48 -373 -52 -594 -8 -375 24 -680 98 -937 l31 -106 -68
-206 c-54 -161 -66 -208 -56 -218 6 -6 15 -8 19 -4 4 4 33 82 64 173 30 92 60
168 65 170 5 2 16 -16 25 -40 l15 -43 -87 -224 c-89 -228 -100 -270 -75 -270
13 0 43 68 146 343 19 48 36 87 40 87 9 0 50 -87 50 -106 0 -8 -48 -130 -106
-271 -75 -182 -102 -259 -95 -266 8 -8 14 -8 22 0 6 6 53 113 105 239 52 126
99 233 104 238 4 4 20 -10 35 -33 l27 -40 -107 -248 c-59 -136 -113 -262 -121
-280 -11 -26 -11 -33 0 -42 10 -8 16 -8 23 1 5 7 58 127 118 266 60 138 111
252 115 252 11 0 60 -78 60 -95 0 -8 -52 -132 -115 -275 -63 -144 -115 -267
-115 -275 0 -22 18 -27 30 -8 6 10 60 128 120 263 60 135 112 244 116 244 4
-1 21 -20 37 -42 l30 -41 -58 -128 c-32 -70 -77 -168 -100 -218 -23 -49 -56
-122 -74 -162 -20 -43 -31 -79 -27 -89 6 -15 9 -16 21 -3 8 8 69 133 135 279
67 146 125 269 129 273 4 4 27 -20 51 -54 l44 -63 -67 -130 c-37 -72 -104
-202 -148 -289 l-82 -158 -31 28 c-17 16 -64 55 -104 87 -98 79 -359 349 -508
527 -274 326 -410 534 -539 819 -150 332 -194 449 -250 670 -47 187 -59 289
-52 455 12 305 66 417 264 552 143 98 283 160 433 193 101 22 285 26 407 8z
m5448 -28 c3 -5 1 -10 -4 -10 -6 0 -11 5 -11 10 0 6 2 10 4 10 3 0 8 -4 11
-10z m75 -30 c17 -10 15 -12 -26 -33 -17 -9 -34 -13 -38 -10 -12 13 -5 30 17
41 28 14 29 14 47 2z m77 -37 c4 -10 -97 -73 -117 -73 -27 0 -4 32 43 58 54
31 68 33 74 15z m73 -42 c9 -17 0 -25 -81 -70 -51 -28 -96 -51 -100 -51 -5 0
-9 12 -9 28 0 23 10 32 78 69 88 48 97 50 112 24z m120 -21 c0 -13 -48 -36
-56 -27 -4 3 -4 13 -1 22 7 17 57 21 57 5z m74 -16 c25 -10 19 -20 -35 -59
-40 -29 -54 -34 -60 -23 -16 24 -9 37 34 62 49 30 41 28 61 20z m-158 -26 c4
-7 -2 -18 -14 -26 -31 -21 -27 -35 8 -27 34 7 36 3 100 -175 36 -99 60 -136
60 -91 0 11 -16 66 -36 122 -30 83 -34 103 -23 110 8 4 29 19 48 33 58 43 51
50 158 -149 78 -143 88 -176 78 -241 -11 -76 -75 -130 -190 -160 -64 -18 -101
-17 -170 1 -99 25 -148 66 -189 155 -39 86 -63 280 -34 280 21 0 138 74 138
87 0 19 -9 16 -73 -22 -68 -41 -77 -43 -77 -12 0 17 19 33 93 74 98 55 112 60
123 41z m5540 -119 c99 -30 135 -51 209 -121 143 -133 282 -404 337 -658 34
-151 31 -399 -6 -594 -35 -186 -103 -426 -162 -574 -87 -218 -244 -539 -336
-689 -13 -21 -37 -65 -53 -98 -23 -47 -61 -91 -173 -200 -137 -134 -143 -142
-158 -200 -31 -119 18 -358 107 -523 21 -41 39 -75 39 -77 0 -2 -24 3 -52 11
-79 22 -217 29 -262 14 -23 -7 -69 -41 -111 -81 -40 -38 -78 -69 -85 -69 -6 0
-35 21 -63 46 -76 68 -120 88 -197 89 -58 0 -74 -5 -150 -44 -172 -91 -245
-124 -273 -125 -28 -1 -31 3 -54 69 -55 162 -94 309 -107 411 -8 60 -13 110
-11 113 3 2 25 -14 50 -35 93 -78 94 -79 108 -65 10 10 5 19 -24 44 -156 140
-145 127 -153 191 -3 32 -5 60 -3 62 2 2 89 -68 193 -156 104 -88 193 -158
198 -157 29 9 -1 40 -180 194 -109 92 -206 176 -216 186 -18 17 -17 19 23 70
23 28 45 53 50 55 4 2 117 -91 251 -207 133 -116 247 -210 252 -208 34 11 25
20 -334 331 -63 55 -121 106 -129 113 -13 11 -9 20 23 68 21 30 42 55 46 55 5
0 135 -106 290 -235 155 -129 288 -235 296 -235 40 0 -11 50 -271 267 -157
130 -285 240 -285 244 0 10 72 119 79 119 3 0 132 -106 286 -235 153 -129 285
-235 293 -235 38 0 -16 54 -255 255 -145 121 -272 229 -283 241 l-21 21 36 61
c20 34 40 62 45 62 5 0 132 -106 281 -235 149 -130 276 -234 282 -232 6 2 12
8 14 14 2 5 -108 106 -244 224 -136 118 -262 228 -281 244 l-34 31 27 52 c15
29 30 54 34 56 4 3 126 -96 270 -220 145 -123 270 -224 277 -224 39 0 3 38
-208 217 -128 109 -252 216 -275 238 l-43 40 31 68 c18 37 36 67 41 67 5 0
113 -92 241 -205 128 -113 238 -205 245 -205 38 0 -13 54 -213 229 -121 106
-229 201 -239 211 -19 18 -19 20 4 75 13 31 28 55 35 53 7 -2 103 -84 214
-183 110 -99 206 -180 213 -180 36 0 -1 41 -184 206 -112 100 -209 188 -217
195 -12 11 -12 19 -1 54 29 87 21 90 209 -89 95 -89 177 -161 184 -158 6 2 12
8 14 14 2 6 -77 86 -176 179 -100 93 -181 172 -181 176 0 18 43 119 49 116 4
-2 70 -73 147 -158 77 -85 144 -154 149 -153 28 5 2 43 -135 196 -82 93 -150
170 -150 171 0 1 14 40 31 87 55 151 109 351 140 519 27 142 32 196 36 385 3
122 0 276 -6 345 -8 93 -8 126 1 131 17 11 211 67 288 83 102 22 245 20 326
-5z m-6243 -495 c414 -56 468 -65 622 -108 88 -24 234 -72 325 -106 91 -35
210 -80 265 -100 55 -21 179 -76 275 -122 987 -477 1761 -1281 2099 -2182 39
-103 111 -346 111 -373 0 -17 -27 -30 -140 -71 -123 -43 -476 -149 -560 -167
-36 -7 -94 -15 -130 -16 -59 -3 -68 -1 -94 24 -42 39 -98 38 -136 -3 -23 -25
-30 -45 -39 -112 -34 -254 -50 -493 -51 -733 l0 -211 54 -148 c30 -81 67 -165
81 -186 30 -44 105 -98 220 -160 86 -46 125 -76 125 -96 0 -7 -22 -14 -55 -19
-57 -7 -172 17 -309 65 -180 62 -314 -24 -357 -231 -17 -82 -33 -103 -76 -96
-47 8 -69 30 -105 102 -42 84 -73 122 -118 145 -49 25 -72 25 -142 1 -91 -31
-119 -50 -220 -148 -85 -82 -144 -123 -178 -123 -15 0 -12 57 6 139 20 86 13
134 -24 168 -26 24 -29 25 -142 18 -84 -4 -127 -2 -160 7 -65 20 -64 43 2 58
110 26 417 160 482 211 53 42 72 181 45 339 -36 212 -61 307 -153 585 -77 231
-138 375 -167 395 -12 8 -75 66 -139 128 -103 98 -150 131 -150 104 0 -4 43
-50 95 -102 52 -52 95 -97 95 -101 0 -3 -16 -14 -35 -25 l-35 -19 -23 27 c-70
85 -283 308 -294 308 -29 0 -21 -23 24 -72 27 -29 101 -110 166 -179 114 -124
118 -129 166 -245 27 -65 48 -120 46 -122 -5 -5 -42 38 -271 308 -110 129
-212 254 -228 278 -27 39 -44 50 -59 36 -14 -14 42 -87 269 -354 131 -155 240
-287 242 -295 5 -20 -56 -25 -78 -6 -10 9 -102 126 -206 261 -277 361 -333
430 -349 430 -8 0 -15 -6 -15 -12 0 -7 117 -164 260 -347 143 -184 260 -339
260 -343 0 -4 -18 -8 -39 -8 l-39 0 -297 371 c-212 264 -300 368 -308 360 -7
-7 -7 -17 -1 -29 5 -11 130 -170 278 -355 147 -184 268 -339 267 -344 0 -4
-15 -8 -32 -8 -28 0 -53 28 -333 380 -166 209 -308 380 -316 380 -7 0 -15 -5
-17 -10 -2 -6 129 -177 291 -380 162 -203 292 -373 290 -377 -9 -13 -52 -9
-68 7 -8 9 -152 179 -320 378 -167 200 -312 369 -321 377 -24 20 -44 -3 -23
-27 91 -104 608 -729 608 -734 0 -11 -57 -21 -77 -14 -10 3 -81 82 -158 176
-471 572 -545 655 -545 607 0 -12 61 -87 484 -593 l159 -190 -42 -8 c-24 -5
-49 -6 -56 -3 -7 2 -160 183 -340 400 -180 218 -333 396 -341 396 -28 0 -13
-31 59 -117 312 -375 547 -663 547 -672 0 -7 -22 -11 -53 -11 l-52 0 -309 386
c-171 212 -316 389 -324 391 -49 19 -1 -49 274 -392 327 -407 319 -393 233
-394 -45 -1 -32 -15 -378 411 -198 244 -286 346 -296 342 -8 -4 -15 -10 -15
-14 0 -5 51 -71 113 -147 62 -76 192 -236 290 -355 97 -119 177 -222 177 -228
0 -5 -22 -10 -49 -10 -59 0 -33 -29 -381 413 -133 170 -249 311 -257 314 -46
18 -16 -32 139 -227 93 -118 217 -275 275 -347 57 -73 102 -137 98 -143 -3 -5
-22 -10 -41 -10 -43 0 -14 -32 -342 375 -141 176 -264 320 -271 320 -8 0 -16
-5 -18 -10 -2 -6 116 -159 262 -340 l266 -330 -48 -3 c-26 -2 -71 -1 -100 3
l-52 6 -241 294 c-133 162 -245 297 -250 300 -4 2 -13 -1 -19 -8 -10 -12 92
-142 442 -566 10 -12 1 -13 -57 -6 -38 4 -77 10 -87 13 -9 4 -102 117 -206
252 -167 218 -218 272 -218 233 0 -6 78 -114 173 -239 95 -125 171 -228 169
-230 -4 -4 -122 14 -150 22 -10 3 -56 58 -104 122 -213 290 -221 300 -237 274
-7 -12 207 -320 234 -337 14 -9 12 -35 -2 -30 -7 2 -45 13 -84 24 l-70 21 -99
125 c-92 116 -125 146 -125 111 0 -7 30 -52 66 -100 37 -48 64 -90 60 -93 -4
-4 -45 5 -91 21 -82 26 -85 29 -111 77 -25 46 -42 58 -57 43 -3 -4 1 -20 9
-37 l16 -30 -33 7 c-78 15 -968 314 -1122 377 -227 92 -544 281 -863 514 -55
41 -106 81 -114 89 -30 37 32 354 115 596 225 651 738 1188 1445 1511 369 168
844 284 1270 309 227 14 585 2 793 -26z m-4266 -2031 l24 -31 -151 -301 c-98
-193 -150 -307 -146 -318 6 -14 9 -15 21 -2 7 8 78 140 156 294 78 154 144
282 147 285 2 3 17 -10 32 -29 l29 -34 -135 -269 c-74 -148 -132 -273 -129
-278 4 -6 12 -10 18 -10 7 0 65 107 130 238 66 130 126 248 134 261 l15 23 29
-28 c16 -15 29 -32 29 -37 0 -6 -43 -100 -95 -210 -88 -184 -105 -235 -73
-225 6 2 53 91 103 196 50 106 95 195 98 199 8 8 47 -26 47 -41 0 -6 -34 -87
-75 -179 -41 -92 -75 -172 -75 -177 0 -6 8 -10 18 -10 12 0 36 43 91 165 40
91 77 165 80 165 4 0 17 -10 29 -23 l22 -24 -55 -139 c-30 -76 -55 -145 -55
-152 0 -8 8 -12 18 -10 12 2 33 42 67 130 28 69 54 130 58 134 9 10 77 -55 77
-74 0 -8 -14 -57 -31 -108 -17 -52 -28 -102 -25 -111 11 -28 29 1 62 99 39
117 54 124 55 26 2 -117 -1 -138 -30 -228 -41 -127 -166 -340 -200 -340 -4 0
-14 12 -22 26 -21 40 -97 103 -140 115 -51 16 -78 7 -136 -46 -56 -49 -133
-92 -176 -97 -28 -3 -30 0 -46 62 -19 78 -60 151 -100 179 -45 32 -105 28
-192 -14 -74 -35 -119 -44 -119 -24 0 6 33 46 72 90 79 86 158 195 158 215 0
7 6 17 14 21 20 12 36 48 36 81 0 34 289 603 304 599 5 -2 20 -17 33 -34z
m-733 -433 c113 -102 150 -151 142 -184 -3 -12 -51 -74 -106 -137 -98 -110
-160 -209 -160 -254 0 -57 91 -144 175 -166 52 -15 148 -5 216 20 63 24 62 25
84 -76 19 -86 41 -116 100 -139 87 -33 221 -4 344 76 l61 39 40 -54 c22 -30
54 -62 70 -70 101 -52 236 32 342 212 41 69 68 99 198 213 123 108 154 131
173 126 31 -9 60 -33 53 -45 -4 -5 -153 -137 -331 -293 l-325 -283 -113 -46
c-61 -25 -159 -64 -217 -86 -58 -23 -172 -67 -255 -99 -158 -61 -185 -76 -185
-105 0 -51 23 -45 477 133 241 94 467 182 503 195 88 33 338 131 375 147 83
36 417 167 420 164 2 -2 -29 -39 -70 -83 -41 -44 -74 -85 -75 -92 -1 -31 23
-17 86 49 160 168 148 159 185 152 47 -9 71 -23 66 -38 -3 -7 -49 -75 -102
-150 -57 -80 -95 -143 -91 -151 3 -8 11 -12 18 -9 7 3 59 72 116 155 67 96
110 149 121 149 23 0 110 -30 116 -40 2 -4 -52 -89 -120 -188 -69 -100 -125
-188 -125 -197 0 -41 37 1 160 180 73 107 134 195 135 195 11 0 132 -44 139
-50 5 -5 -57 -97 -147 -218 -87 -115 -157 -214 -157 -220 0 -39 48 12 191 203
112 149 167 215 181 215 10 0 35 -7 54 -15 26 -11 34 -19 30 -31 -3 -9 -76
-119 -161 -244 -85 -126 -155 -234 -155 -239 0 -6 8 -11 18 -11 11 1 73 84
181 245 91 135 170 245 176 245 17 0 109 -31 119 -41 5 -4 -58 -115 -139 -245
-143 -229 -175 -292 -144 -282 8 2 84 115 169 250 85 136 159 250 163 254 11
12 148 -38 143 -52 -2 -6 -77 -120 -165 -253 -89 -133 -161 -248 -161 -256 0
-44 44 10 200 246 95 143 178 258 184 256 6 -2 35 -12 64 -22 28 -11 52 -22
52 -26 0 -5 -74 -121 -165 -260 -91 -139 -165 -258 -165 -266 0 -43 46 15 196
245 92 141 171 261 175 266 7 8 159 -41 159 -51 0 -3 -79 -122 -176 -266 -97
-143 -179 -269 -182 -279 -3 -12 1 -18 11 -18 9 0 88 108 193 263 97 144 183
268 190 276 11 12 19 12 54 -4 22 -10 40 -22 40 -27 0 -18 -55 -118 -182 -330
-117 -195 -136 -238 -108 -238 5 0 31 37 59 83 74 120 73 119 66 67 -5 -32 -2
-51 9 -65 14 -19 16 -19 33 -2 10 9 59 115 108 235 l91 217 34 -3 c52 -4 120
-23 120 -34 0 -5 -82 -140 -181 -299 -137 -219 -179 -293 -170 -302 8 -8 14
-8 24 3 8 8 89 137 182 285 92 149 175 278 184 287 14 14 23 15 69 6 28 -6 52
-15 52 -20 0 -5 -62 -123 -139 -261 -178 -324 -183 -334 -170 -343 6 -3 16 -1
22 5 7 7 84 143 173 304 l161 292 34 -3 c19 -2 51 -8 71 -13 l38 -10 -44 -82
c-248 -466 -284 -544 -251 -541 6 0 82 139 170 308 l160 307 54 -6 c29 -3 60
-9 67 -13 10 -6 -22 -82 -137 -321 -104 -218 -147 -317 -139 -325 6 -6 13 -7
20 0 5 5 75 147 156 314 80 168 151 310 157 317 18 18 123 2 119 -17 -2 -8
-69 -154 -149 -324 -96 -205 -141 -312 -135 -318 6 -6 14 -8 19 -5 5 3 78 152
162 331 l154 326 48 0 c26 0 51 -4 54 -10 3 -5 -53 -151 -125 -324 -71 -173
-130 -322 -130 -330 0 -9 6 -16 14 -16 9 0 65 123 151 333 76 182 140 334 142
337 4 5 115 2 120 -4 2 -1 -48 -151 -110 -332 -81 -235 -111 -333 -104 -342 8
-11 12 -11 23 0 6 7 57 146 112 308 55 163 107 312 115 333 l16 37 77 0 c68 0
76 -2 71 -17 -3 -10 -57 -171 -121 -358 -64 -186 -116 -343 -116 -347 0 -4 8
-8 18 -8 14 0 41 68 142 363 l125 362 58 3 c41 2 57 -1 57 -10 0 -7 -47 -163
-104 -348 -129 -413 -123 -390 -99 -390 15 0 24 15 40 68 12 37 63 202 114
367 51 165 97 306 102 313 5 6 24 12 42 12 31 0 33 -2 38 -47 4 -40 -10 -98
-94 -375 -54 -181 -99 -333 -99 -338 0 -17 29 -11 38 8 5 9 40 118 77 242 37
124 70 229 75 233 4 5 10 -73 14 -172 7 -154 5 -189 -9 -238 -16 -54 -16 -58
1 -70 15 -11 18 -45 25 -305 22 -808 31 -1044 41 -1055 6 -7 18 -13 28 -13 42
0 43 10 31 403 -6 204 -16 561 -22 792 l-12 420 62 215 c97 337 84 307 139
312 26 3 50 2 54 -1 4 -3 -38 -163 -93 -354 -54 -191 -99 -357 -99 -368 0 -14
6 -19 17 -17 13 2 39 80 115 348 53 190 101 356 105 370 7 21 16 26 56 31 27
3 50 2 52 -1 2 -3 -39 -155 -91 -338 -52 -182 -94 -340 -94 -351 0 -25 16 -36
27 -19 4 7 53 171 108 363 l100 350 48 3 c43 3 48 1 43 -15 -16 -49 -166 -610
-172 -639 -5 -27 -3 -34 10 -34 22 0 17 -15 121 365 l90 330 48 3 c35 2 47 0
47 -11 0 -8 -36 -149 -80 -313 -44 -164 -80 -309 -80 -321 0 -35 27 -28 39 10
5 17 28 100 50 182 22 83 58 218 80 302 23 84 41 154 41 156 0 9 61 13 66 5 3
-5 -22 -142 -56 -304 -45 -214 -59 -299 -51 -307 8 -8 14 -8 22 0 5 5 37 140
70 299 34 159 63 291 65 293 8 8 15 -7 33 -70 17 -63 17 -66 -5 -184 -41 -217
-49 -284 -35 -298 19 -19 26 2 51 147 12 72 26 137 30 145 19 36 68 -312 49
-350 -10 -20 -230 -120 -324 -147 -39 -12 -96 -26 -128 -32 -32 -6 -69 -21
-83 -33 -35 -31 -75 -150 -67 -200 8 -53 58 -115 123 -155 63 -37 110 -52 194
-61 l59 -6 2 -85 c1 -65 6 -95 23 -126 45 -88 122 -124 220 -103 100 20 158
55 272 164 123 117 144 128 168 83 78 -141 123 -186 214 -213 182 -54 302 24
353 226 21 86 32 109 50 109 8 0 67 -16 131 -35 179 -54 234 -61 350 -41 197
33 259 113 203 261 -31 83 -97 144 -242 224 -63 35 -125 73 -136 85 -12 13
-40 76 -64 142 l-42 119 1 205 1 205 86 194 c47 107 91 197 99 201 7 4 35 11
61 15 46 6 48 5 42 -14 -3 -11 -69 -165 -145 -342 -77 -177 -137 -325 -134
-330 15 -25 36 2 82 109 27 64 93 217 146 340 53 122 96 229 96 237 0 8 22 20
54 29 61 18 76 20 76 8 0 -5 -56 -165 -125 -356 -69 -191 -125 -354 -125 -362
0 -9 7 -14 17 -12 11 2 27 32 45 83 16 44 33 83 37 88 4 4 15 -10 24 -31 18
-41 -26 -5 1327 -1063 397 -310 883 -691 1111 -869 28 -22 34 -80 11 -106 -36
-42 -894 -232 -1407 -310 -462 -71 -553 -84 -730 -104 -99 -12 -247 -29 -330
-40 -82 -10 -188 -22 -235 -25 -47 -3 -200 -17 -340 -30 -363 -34 -378 -35
-655 -45 -137 -6 -351 -14 -475 -20 -287 -13 -1337 -13 -1625 -1 -423 19 -841
42 -950 51 -60 6 -243 21 -405 35 -162 14 -324 30 -360 35 -36 6 -164 21 -285
35 -121 14 -305 38 -410 55 -104 16 -264 40 -355 54 -144 22 -642 116 -845
160 -206 44 -682 166 -905 232 -301 90 -704 229 -900 311 -503 211 -865 417
-1150 654 -339 281 -501 563 -501 869 0 114 16 198 55 298 154 393 655 805
1366 1124 218 98 250 111 440 181 290 106 345 126 355 126 6 1 55 -39 109 -89z
m11521 -15 c542 -192 1057 -462 1383 -724 116 -93 288 -270 354 -363 69 -95
133 -229 164 -336 24 -85 26 -105 22 -225 -4 -114 -9 -145 -37 -227 -54 -161
-137 -293 -280 -442 -46 -49 -98 -96 -115 -105 -44 -23 -134 -12 -397 47 -123
28 -289 64 -369 81 -127 26 -841 193 -1065 249 -44 11 -127 31 -185 44 -247
58 -664 156 -770 180 -550 125 -1068 243 -1230 281 -58 13 -199 45 -315 71
-115 25 -215 49 -221 53 -8 4 19 106 90 330 l101 323 59 24 c33 13 61 22 63
20 2 -2 -24 -104 -58 -227 -34 -123 -74 -271 -90 -328 -15 -57 -26 -108 -23
-113 20 -32 37 14 129 346 l98 355 49 26 c27 15 51 25 54 23 2 -3 -7 -54 -21
-114 -64 -279 -125 -553 -125 -563 0 -13 26 -15 34 -3 3 5 39 159 81 342 42
183 78 337 81 342 3 4 23 8 45 8 34 0 39 -3 35 -17 -3 -10 -30 -137 -61 -283
-31 -146 -58 -273 -61 -283 -5 -16 20 -36 31 -25 5 4 80 344 111 498 21 107
28 120 63 120 16 0 32 -3 34 -7 3 -5 -15 -111 -39 -238 -50 -263 -51 -278 -27
-273 15 3 26 47 66 258 26 140 53 258 60 262 6 4 27 8 45 8 23 0 32 -5 32 -16
0 -9 -14 -100 -30 -202 -22 -129 -28 -188 -20 -196 21 -21 32 15 61 200 16
104 31 194 33 200 6 15 77 23 82 9 2 -5 -5 -77 -16 -159 -10 -82 -17 -153 -14
-157 3 -5 11 -9 19 -9 9 0 16 19 21 58 19 161 40 276 50 279 6 2 17 -16 23
-42 6 -24 36 -122 67 -215 49 -153 60 -175 97 -214 90 -94 184 -82 444 54 73
39 138 70 145 70 7 0 45 -28 83 -61 85 -74 139 -101 186 -93 61 12 132 56 191
117 l57 60 61 -7 c34 -4 107 -20 163 -37 175 -50 211 -54 273 -29 57 24 85 55
86 99 1 36 -8 52 -84 142 -71 87 -140 197 -136 219 3 12 35 16 189 20 186 5
219 12 219 44 -1 38 -12 40 -233 37 l-215 -3 -11 34 c-6 18 -15 66 -21 107
l-10 74 102 106 c57 59 116 124 131 144 21 27 34 36 45 32 10 -4 85 -31 167
-60z m-2045 -329 c9 -64 9 -91 1 -99 -6 -6 -11 -22 -11 -36 0 -15 -4 -32 -8
-38 -10 -16 -68 -28 -76 -15 -3 5 3 63 14 128 15 96 23 122 41 137 12 10 23
16 25 15 1 -2 8 -43 14 -92z m-7954 59 c19 -15 18 -16 -9 -40 -38 -34 -43 -32
-39 15 4 43 16 49 48 25z m88 -58 c17 -12 10 -21 -84 -106 -56 -50 -105 -90
-107 -87 -3 3 2 27 12 55 13 40 28 60 78 100 67 55 74 58 101 38z m7749 -44
c-4 -21 -11 -63 -17 -93 l-11 -55 -43 -3 -44 -3 6 30 c3 17 9 44 12 60 5 28
73 101 93 101 6 0 7 -17 4 -37z m-7547 -88 c18 -13 9 -25 -176 -208 l-195
-194 -108 -42 c-60 -23 -113 -41 -119 -39 -11 4 551 497 568 498 5 0 19 -7 30
-15z m7399 -27 c-10 -46 -12 -48 -45 -48 -43 0 -44 15 -3 49 48 39 56 39 48
-1z m-7306 -27 l24 -19 -31 -38 c-17 -22 -63 -71 -104 -111 -56 -55 -88 -77
-139 -97 -36 -14 -72 -26 -80 -26 -7 0 56 70 141 155 85 85 157 155 160 155 3
0 16 -9 29 -19z m102 -58 c33 -20 36 -33 12 -56 -20 -17 -174 -79 -181 -72 -5
4 127 145 136 145 2 0 17 -8 33 -17z m6589 -221 c0 -4 -31 -107 -69 -227 -38
-121 -79 -254 -91 -295 -12 -41 -25 -78 -28 -82 -4 -4 -32 -1 -62 5 -42 10
-55 17 -54 31 1 9 41 134 90 276 l87 259 56 20 c65 23 71 24 71 13z m-180 -60
c0 -5 -38 -121 -85 -257 -47 -137 -85 -250 -85 -252 0 -3 -20 -1 -44 2 -31 5
-52 2 -76 -10 -25 -13 -31 -13 -28 -3 1 8 41 121 88 251 l85 237 55 19 c61 21
90 25 90 13z m-545 -122 c6 -9 -79 -208 -96 -224 -6 -6 -9 -3 -9 10 0 34 20
206 24 213 7 10 75 11 81 1z m-2275 -395 c0 -23 -91 -329 -101 -340 -8 -8 -11
60 -14 297 0 37 3 43 25 49 46 13 90 10 90 -6z"/>
<path d="M5605 12218 c-11 -6 -33 -23 -50 -38 -32 -30 -638 -400 -654 -400 -5
0 -26 -15 -45 -34 -45 -42 -46 -58 -7 -254 16 -81 39 -201 52 -267 23 -129 38
-168 68 -185 11 -5 91 -26 178 -45 87 -19 268 -59 403 -90 261 -58 331 -66
367 -37 12 9 68 113 124 231 111 235 125 288 91 350 -9 16 -88 85 -175 151
-120 93 -166 123 -195 127 -32 4 -61 -6 -182 -64 -80 -39 -154 -80 -165 -92
-12 -15 -20 -37 -20 -63 0 -33 6 -45 33 -69 19 -17 43 -29 60 -29 15 0 74 23
132 51 57 27 112 48 122 46 19 -5 197 -139 198 -149 0 -4 -31 -73 -70 -154
l-70 -147 -32 6 c-42 8 -455 100 -570 128 -60 14 -89 26 -92 38 -3 9 -15 66
-26 126 -12 61 -28 143 -36 184 -8 41 -11 78 -7 82 8 7 102 65 445 272 97 59
182 107 190 107 19 0 490 -209 506 -225 7 -6 53 -135 102 -286 75 -229 87
-276 76 -289 -7 -8 -108 -126 -224 -261 l-211 -247 -68 14 c-71 14 -254 52
-608 129 -115 25 -225 45 -243 45 -76 0 -122 -104 -71 -159 28 -30 45 -35 212
-70 482 -102 632 -134 711 -152 141 -32 131 -39 403 279 126 147 245 287 265
311 28 33 38 55 43 96 6 48 -1 77 -84 336 -115 354 -119 365 -145 395 -22 25
-661 314 -694 314 -9 0 -26 -6 -37 -12z"/>
<path d="M11733 12172 c-34 -34 -36 -36 -392 -251 -154 -93 -289 -172 -300
-176 -34 -10 -61 -54 -61 -97 0 -21 16 -119 34 -216 19 -97 42 -219 52 -271
23 -132 38 -146 174 -176 58 -12 248 -54 423 -94 174 -39 330 -71 345 -71 63
0 82 25 190 253 95 200 102 220 102 277 0 34 -5 70 -10 80 -14 26 -303 248
-346 266 -46 19 -82 8 -249 -79 -92 -47 -123 -69 -134 -91 -29 -61 21 -140 87
-138 16 0 77 23 136 51 59 28 110 51 113 51 4 0 165 -122 191 -145 10 -9 -1
-40 -57 -158 -58 -123 -73 -147 -92 -147 -12 0 -74 12 -138 26 -64 15 -210 47
-326 73 l-209 47 -18 94 c-10 52 -27 140 -38 195 -11 55 -20 105 -20 111 0 6
144 98 320 204 l320 193 147 -66 c82 -36 197 -88 258 -115 l110 -49 87 -269
c49 -148 88 -277 88 -286 0 -10 -98 -131 -217 -270 -119 -139 -218 -255 -220
-257 -3 -4 -45 4 -303 59 -74 16 -211 45 -305 65 -93 19 -203 43 -243 52 -67
16 -74 16 -108 0 -23 -12 -40 -29 -50 -54 -14 -33 -14 -40 0 -69 19 -42 49
-61 112 -73 52 -11 323 -68 692 -147 213 -46 225 -47 265 -33 36 12 70 47 235
239 352 408 331 382 343 442 11 54 10 58 -81 339 -123 381 -121 377 -150 404
-37 35 -651 305 -694 305 -25 0 -43 -8 -63 -28z"/>
<path d="M5476 10307 c-11 -8 -71 -170 -157 -422 -116 -340 -138 -413 -130
-432 14 -30 65 -32 81 -3 6 11 67 186 136 388 68 202 129 377 134 390 15 34
12 57 -8 75 -22 20 -33 21 -56 4z"/>
<path d="M5214 10292 c-18 -12 -26 -32 -179 -436 -126 -335 -145 -393 -136
-413 9 -20 17 -24 44 -21 31 3 34 7 69 98 66 168 260 684 268 712 14 45 -30
85 -66 60z"/>
<path d="M4922 10278 c-9 -12 -137 -328 -268 -668 -28 -71 -43 -123 -39 -137
7 -29 51 -41 72 -21 14 15 285 686 306 761 8 27 8 43 1 55 -14 21 -57 27 -72
10z"/>
<path d="M5711 10201 c-26 -47 -251 -687 -251 -712 0 -39 32 -56 66 -34 13 8
24 17 24 19 0 1 57 160 126 352 104 290 123 352 115 371 -13 29 -65 32 -80 4z"/>
<path d="M11255 10188 c-8 -18 -67 -212 -131 -432 l-116 -398 20 -20 c27 -27
66 -18 81 19 6 16 39 127 75 248 35 121 87 298 116 394 58 195 58 221 0 221
-25 0 -33 -6 -45 -32z"/>
<path d="M11521 10206 c-6 -7 -22 -51 -35 -97 -149 -522 -216 -773 -211 -789
7 -22 37 -34 64 -25 24 7 24 7 146 445 53 190 100 358 106 374 12 40 11 80 -3
94 -16 16 -53 15 -67 -2z"/>
<path d="M11786 10187 c-14 -10 -47 -126 -127 -448 -60 -239 -108 -445 -109
-459 0 -15 5 -31 12 -38 16 -16 53 -15 68 3 12 14 230 872 230 905 0 18 -30
50 -46 50 -6 0 -18 -6 -28 -13z"/>
<path d="M11996 10124 c-9 -8 -18 -25 -21 -37 -21 -95 -135 -696 -135 -712 0
-27 19 -45 47 -45 26 0 48 30 57 80 4 19 34 172 67 340 32 168 59 319 59 337
0 47 -43 68 -74 37z"/>
<path d="M4617 10113 c-8 -10 -53 -111 -98 -226 -71 -181 -81 -211 -71 -232
14 -30 51 -34 74 -7 9 9 52 111 97 226 78 198 81 209 66 232 -18 28 -46 31
-68 7z"/>
<path d="M12240 10082 c-19 -15 -30 -59 -82 -322 -33 -167 -57 -314 -54 -326
9 -34 54 -43 76 -17 18 23 134 594 128 633 -1 12 -12 29 -24 37 -18 12 -24 11
-44 -5z"/>
<path d="M5886 10013 c-17 -34 -96 -277 -96 -296 0 -8 9 -22 20 -32 16 -15 25
-16 44 -7 20 9 33 38 75 164 28 84 51 156 51 160 0 15 -33 38 -55 38 -17 0
-29 -9 -39 -27z"/>
<path d="M10992 10027 c-17 -21 -182 -499 -182 -529 0 -31 30 -53 59 -43 23 7
32 28 127 304 76 219 83 248 62 269 -16 16 -53 15 -66 -1z"/>
<path d="M12424 9962 c-22 -14 -32 -51 -60 -226 l-28 -178 22 -18 c22 -18 57
-17 69 3 9 14 62 324 63 363 0 44 -37 76 -66 56z"/>
<path d="M9024 8316 c-10 -8 -16 -18 -12 -22 10 -9 58 12 58 26 0 14 -23 12
-46 -4z"/>
<path d="M8922 8258 c-22 -14 -30 -24 -23 -31 10 -10 81 27 81 44 0 15 -23 10
-58 -13z"/>
<path d="M7074 7340 c-95 -48 -259 -183 -371 -307 -253 -277 -405 -461 -519
-628 -89 -128 -143 -171 -360 -285 -96 -50 -179 -100 -184 -110 -16 -29 -12
-58 10 -80 34 -34 77 -25 206 42 66 34 153 78 196 99 97 48 195 139 263 244
117 180 486 607 643 744 92 80 176 141 194 141 15 0 8 -77 -12 -135 -27 -77
-25 -99 8 -136 46 -51 101 -38 138 32 23 46 46 180 41 240 -6 64 -35 128 -73
158 -41 32 -90 27 -180 -19z"/>
<path d="M7360 6948 c-11 -12 -20 -27 -20 -33 0 -5 -9 -27 -20 -48 -27 -49
-25 -83 5 -112 42 -43 93 -25 126 42 33 67 36 126 10 152 -28 28 -74 27 -101
-1z"/>
<path d="M7602 6823 c-22 -19 -72 -156 -72 -196 0 -30 39 -67 71 -67 42 0 67
27 89 96 27 88 26 137 -2 164 -27 25 -59 26 -86 3z"/>
<path d="M7720 6577 c-16 -8 -30 -28 -39 -57 -8 -25 -22 -66 -32 -92 -11 -26
-19 -56 -19 -68 0 -31 -109 -199 -221 -340 -141 -179 -247 -339 -311 -470 -66
-136 -118 -283 -118 -334 0 -65 65 -106 121 -76 23 13 44 53 53 104 20 107
150 360 264 513 42 57 116 156 164 220 47 64 107 157 133 206 52 98 105 259
105 318 0 62 -50 101 -100 76z"/>
<path d="M15210 12584 c-195 -38 -376 -136 -471 -256 -46 -58 -99 -161 -99
-193 0 -56 75 -96 134 -71 17 7 67 44 111 81 101 85 225 145 358 174 86 18
109 20 187 11 153 -17 226 -53 324 -158 88 -94 99 -122 99 -247 0 -91 -3 -107
-33 -178 -18 -44 -62 -123 -99 -177 -173 -258 -359 -425 -741 -665 -252 -158
-386 -293 -490 -492 -73 -141 -63 -216 35 -263 36 -17 58 -21 104 -18 90 6
126 34 173 136 45 97 127 211 198 275 27 24 111 83 187 132 287 183 409 274
562 420 177 169 326 371 397 540 51 118 67 205 62 323 -4 79 -8 96 -50 183
-57 117 -144 214 -264 296 -185 126 -240 143 -479 148 -99 2 -191 1 -205 -1z"/>
<path d="M2047 12358 c-28 -15 -19 -43 25 -81 43 -38 75 -46 96 -25 16 16 15
53 0 66 -32 24 -105 49 -121 40z"/>
<path d="M2342 12198 c-7 -7 -12 -24 -12 -39 0 -21 9 -32 43 -52 64 -37 81
-40 108 -18 31 26 20 45 -52 88 -60 36 -69 39 -87 21z"/>
<path d="M2566 12059 c-21 -31 -6 -60 44 -86 38 -20 46 -21 64 -9 34 22 31 50
-9 85 -41 36 -78 40 -99 10z"/>
<path d="M2766 11934 c-31 -31 -11 -66 57 -103 39 -21 49 -23 71 -13 33 15 34
51 4 78 -61 54 -104 66 -132 38z"/>
<path d="M2120 11833 c-69 -11 -97 -36 -84 -75 8 -27 41 -37 89 -26 55 12 85
34 85 61 0 42 -21 51 -90 40z"/>
<path d="M2291 11831 c-13 -3 -30 -16 -37 -27 -12 -17 -11 -23 2 -42 20 -29
102 -32 127 -4 46 51 -11 96 -92 73z"/>
<path d="M2987 11812 c-10 -10 -17 -24 -17 -31 0 -7 33 -49 73 -94 39 -45 87
-101 105 -124 41 -52 85 -60 104 -18 13 29 5 44 -89 157 -104 126 -141 149
-176 110z"/>
<path d="M1948 11740 c-9 -6 -28 -41 -43 -79 -22 -57 -25 -72 -15 -90 9 -17
19 -21 43 -19 28 3 36 10 59 58 33 66 36 115 9 130 -24 12 -31 12 -53 0z"/>
<path d="M2392 11728 c-17 -17 -15 -32 9 -99 26 -70 49 -94 83 -85 42 10 42
43 1 124 -29 56 -42 72 -59 72 -12 0 -27 -5 -34 -12z"/>
<path d="M1826 11518 c-7 -13 -17 -53 -20 -90 -7 -71 5 -98 43 -98 32 0 50 33
57 106 5 58 4 73 -10 87 -24 24 -53 21 -70 -5z"/>
<path d="M2369 11468 c-36 -44 -50 -67 -46 -84 3 -15 0 -21 -9 -17 -7 3 -28 0
-46 -5 -18 -6 -50 -13 -70 -17 -32 -5 -38 -10 -38 -30 0 -32 27 -45 89 -45 58
0 97 27 88 61 -4 16 0 19 28 19 29 0 41 8 79 56 46 56 56 90 34 112 -27 27
-57 13 -109 -50z"/>
<path d="M3224 11489 c-6 -10 -33 -201 -34 -241 0 -22 35 -41 61 -33 30 10 48
62 55 158 8 99 -2 127 -46 127 -16 0 -32 -5 -36 -11z"/>
<path d="M1466 11350 c-62 -19 -83 -62 -46 -95 18 -16 25 -17 60 -6 66 20 89
60 54 95 -17 18 -26 18 -68 6z"/>
<path d="M1621 11341 c-22 -41 9 -67 106 -86 24 -5 36 -2 52 14 45 45 10 83
-84 89 -56 4 -64 2 -74 -17z"/>
<path d="M1982 11335 c-16 -12 -22 -25 -20 -43 3 -26 5 -27 73 -27 68 0 70 1
73 26 4 32 -13 46 -63 54 -29 5 -46 2 -63 -10z"/>
<path d="M1199 11275 c-78 -40 -93 -56 -85 -90 11 -42 44 -41 133 4 85 42 102
64 76 100 -20 29 -47 26 -124 -14z"/>
<path d="M1857 11273 c-15 -14 -5 -42 30 -87 20 -26 50 -54 66 -62 25 -14 31
-14 53 1 13 8 24 19 24 24 0 13 -80 110 -100 121 -21 11 -63 13 -73 3z"/>
<path d="M3063 11200 c-19 -11 -33 -28 -33 -39 0 -23 25 -51 46 -51 19 0 57
19 66 34 14 21 8 55 -11 66 -26 14 -31 13 -68 -10z"/>
<path d="M1057 11127 c-10 -7 -29 -43 -42 -80 -30 -83 -23 -110 28 -105 27 3
35 10 55 52 33 68 38 108 17 129 -20 20 -35 21 -58 4z"/>
<path d="M2133 11099 c-34 -12 -32 -65 2 -81 21 -9 28 -8 45 7 42 38 6 94 -47
74z"/>
<path d="M2847 11058 c-66 -23 -87 -50 -68 -87 15 -27 41 -27 119 0 73 25 92
48 67 85 -19 29 -40 29 -118 2z"/>
<path d="M2280 11045 c-18 -21 -3 -52 32 -64 65 -23 108 -9 108 34 0 12 -5 26
-12 33 -17 17 -113 15 -128 -3z"/>
<path d="M2563 11002 c-12 -8 -18 -31 -15 -64 1 -11 17 -22 42 -29 35 -11 42
-10 60 6 11 10 20 30 20 45 0 22 -6 29 -39 38 -45 14 -52 14 -68 4z"/>
<path d="M952 10914 c-21 -14 -62 -132 -62 -178 0 -49 65 -59 88 -13 23 46 49
152 42 171 -10 27 -43 37 -68 20z"/>
<path d="M886 10628 c-36 -51 -5 -147 41 -131 46 16 60 96 23 133 -26 26 -45
25 -64 -2z"/>
<path d="M952 10423 c-27 -11 -33 -41 -16 -83 25 -62 71 -79 99 -36 15 23 15
27 -4 65 -17 33 -49 64 -63 60 -2 0 -9 -3 -16 -6z"/>
<path d="M1048 10239 c-32 -18 -22 -61 25 -107 43 -42 73 -52 95 -30 25 25 13
64 -33 107 -47 43 -59 47 -87 30z"/>
<path d="M1216 10044 c-9 -8 -16 -20 -16 -25 0 -39 94 -139 130 -139 12 0 20
-7 20 -18 0 -30 63 -117 88 -120 49 -7 65 33 36 91 -24 48 -55 77 -81 77 -17
0 -23 6 -23 23 0 29 -91 127 -118 127 -11 0 -28 -7 -36 -16z"/>
<path d="M14358 9990 c-100 -53 -105 -160 -11 -225 30 -20 50 -25 96 -25 138
0 217 100 157 198 -40 66 -164 93 -242 52z"/>
</g>
</svg>
