<?xml version="1.0" standalone="no"?>
<!DOCTYPE svg PUBLIC "-//W3C//DTD SVG 20010904//EN"
 "http://www.w3.org/TR/2001/REC-SVG-20010904/DTD/svg10.dtd">
<svg version="1.0" xmlns="http://www.w3.org/2000/svg"
 width="1800.000000pt" height="1500.000000pt" viewBox="0 0 1800.000000 1500.000000"
 preserveAspectRatio="xMidYMid meet">

<g transform="translate(0.000000,1500.000000) scale(0.100000,-0.100000)"
fill="#000000" stroke="none">
<path d="M10444 13636 c-104 -33 -211 -129 -513 -461 -289 -317 -492 -552
-691 -799 -80 -99 -155 -191 -167 -205 l-21 -26 -344 -6 c-188 -4 -379 -12
-422 -19 -166 -24 -382 -92 -526 -165 -226 -114 -475 -334 -709 -625 -137
-170 -177 -227 -258 -371 -33 -58 -93 -150 -135 -205 -184 -244 -285 -461
-353 -759 -30 -132 -34 -294 -9 -413 73 -360 424 -824 854 -1132 41 -30 77
-55 79 -57 2 -2 -9 -22 -26 -46 -60 -84 -94 -167 -123 -303 -16 -73 -37 -152
-47 -175 l-18 -42 -72 129 c-62 112 -181 328 -343 624 -449 820 -484 881 -509
887 -34 8 -90 60 -107 101 -8 18 -26 38 -40 44 -21 10 -32 8 -68 -12 l-43 -23
-44 30 c-66 45 -84 49 -113 20 l-24 -24 -31 31 -32 31 -132 -2 c-73 -1 -144
-6 -160 -12 -32 -12 -50 -51 -38 -83 4 -13 2 -126 -5 -253 -6 -126 -38 -707
-69 -1290 -41 -742 -55 -1070 -49 -1095 6 -19 109 -177 230 -350 121 -173 341
-488 489 -700 148 -212 346 -494 439 -628 94 -133 173 -247 175 -254 2 -7 -5
-8 -25 -3 -187 47 -334 51 -485 12 -116 -30 -171 -57 -274 -135 -136 -102
-247 -232 -349 -409 -46 -80 -48 -81 -99 -93 -123 -29 -281 -138 -366 -254
-69 -94 -140 -232 -181 -352 -22 -65 -40 -127 -40 -138 0 -13 -5 -16 -17 -11
-76 30 -344 48 -430 30 -75 -17 -161 -66 -250 -144 -66 -56 -216 -229 -256
-292 l-28 -46 -77 -7 c-104 -9 -217 -33 -272 -57 -83 -37 -177 -148 -201 -241
-17 -63 -2 -112 55 -175 142 -158 382 -174 700 -49 l88 35 50 -40 c131 -103
290 -167 513 -205 179 -30 310 -7 530 96 l108 51 71 -26 c139 -52 201 -69 303
-84 96 -15 166 -14 238 4 l60 14 50 -48 c116 -111 187 -161 323 -230 282 -142
531 -204 822 -205 154 -1 155 -1 265 37 180 62 299 132 414 244 l53 52 77 -20
c89 -24 182 -19 270 12 l55 19 61 -59 c127 -122 310 -215 535 -271 307 -77
468 -73 655 14 76 36 205 125 282 195 100 92 80 91 160 13 93 -92 168 -141
337 -222 235 -113 357 -147 636 -177 343 -36 718 21 986 152 176 85 272 164
401 330 l31 40 119 0 c107 0 123 3 175 27 56 26 151 86 218 139 l35 27 125
-18 c229 -33 373 -42 479 -30 189 23 375 107 464 211 180 210 214 556 80 811
-41 79 -144 183 -174 175 -14 -4 -19 3 -24 35 -19 109 -139 267 -266 351 -96
62 -306 160 -405 188 -22 7 -42 26 -69 67 -53 79 -146 193 -230 280 -127 133
-240 203 -445 277 -58 21 -108 41 -112 44 -4 4 0 33 8 66 24 89 15 161 -25
224 -33 50 -33 54 -21 94 15 51 15 109 0 136 -17 33 -109 89 -180 112 -47 15
-102 22 -200 26 -126 5 -140 3 -210 -21 -80 -27 -89 -25 -90 24 0 41 -58 314
-101 480 -65 249 -116 395 -194 555 -67 137 -283 523 -367 655 -68 107 -129
222 -212 398 l-83 178 77 41 c115 63 278 196 433 357 169 173 294 430 342 700
32 176 11 511 -56 916 -38 226 -94 399 -169 522 l-29 47 67 49 c37 27 88 63
114 81 26 17 90 65 143 106 l95 74 84 -262 c47 -144 103 -319 125 -389 72
-232 182 -476 278 -622 126 -190 330 -341 733 -544 453 -228 551 -256 1035
-293 119 -9 176 -9 222 -1 211 37 383 237 383 444 0 122 -92 336 -154 358
-142 50 -390 217 -539 363 -88 86 -382 421 -514 583 -328 407 -375 497 -578
1110 -67 203 -135 395 -150 425 -84 167 -167 275 -285 371 -109 89 -275 173
-386 195 l-81 17 1 96 c1 103 -14 178 -49 252 -37 77 -223 314 -317 403 -271
258 -715 436 -924 371z m214 -152 c166 -34 384 -142 540 -269 92 -74 148 -136
266 -295 105 -142 122 -192 113 -334 -6 -84 -4 -97 13 -119 20 -25 20 -25 -2
-30 -13 -4 -26 0 -33 10 -13 17 -10 19 -55 -37 l-20 -25 6 28 c6 25 4 28 -12
25 -11 -2 -27 -20 -37 -41 -9 -20 -22 -37 -27 -37 -6 0 -5 10 2 24 12 28 4 61
-13 50 -6 -3 -22 -31 -35 -60 -13 -30 -28 -54 -34 -54 -13 0 -13 1 5 43 10 24
11 38 4 42 -16 11 -35 -12 -59 -69 -18 -45 -48 -76 -75 -76 -2 0 14 32 36 72
53 96 48 101 -86 87 -174 -19 -437 -95 -620 -180 -35 -16 -66 -29 -70 -29 -4
0 -18 -9 -31 -19 -13 -11 -33 -17 -43 -14 -13 3 -23 -3 -31 -19 -15 -28 -51
-68 -61 -68 -5 0 -6 14 -2 30 12 64 -33 22 -56 -52 -7 -20 -19 -42 -27 -48
-18 -16 -18 -11 1 33 19 46 19 67 1 67 -12 0 -76 -141 -76 -168 0 -4 -16 -24
-35 -42 l-36 -35 51 109 c28 60 49 111 46 114 -16 15 -42 -20 -92 -125 -30
-65 -56 -127 -57 -138 -1 -20 -76 -119 -84 -111 -2 2 32 76 76 165 45 88 81
163 81 166 0 3 -8 5 -18 5 -12 0 -41 -48 -105 -176 -48 -96 -85 -179 -82 -185
6 -9 -41 -32 -55 -27 -4 2 26 71 66 153 72 149 82 175 66 175 -18 0 -43 -40
-112 -183 -42 -87 -76 -146 -83 -144 -16 6 -16 7 53 137 33 63 60 119 60 123
0 5 -8 7 -17 5 -11 -2 -42 -49 -81 -122 -70 -135 -67 -130 -81 -122 -5 4 9 39
34 83 24 42 42 80 39 84 -11 18 -36 -8 -76 -77 -23 -41 -48 -74 -56 -74 -11 0
-9 9 8 36 20 35 17 61 -6 46 -20 -14 -54 -70 -54 -90 0 -17 16 -26 93 -51 50
-16 139 -42 197 -57 113 -29 258 -87 321 -128 48 -32 67 -33 79 -2 11 29 218
211 495 433 277 223 516 365 804 481 65 26 77 28 95 17 12 -7 58 -22 102 -33
203 -50 400 -202 514 -394 66 -112 97 -192 216 -563 101 -315 138 -412 206
-554 105 -215 284 -454 662 -886 195 -223 270 -298 391 -395 135 -107 261
-190 359 -235 73 -34 74 -35 102 -102 55 -134 33 -255 -62 -343 -35 -33 -111
-80 -128 -80 -3 0 4 25 15 57 23 67 23 73 5 73 -9 0 -23 -26 -36 -65 l-22 -65
-39 0 c-21 0 -39 4 -39 9 0 4 14 41 30 81 32 79 37 104 18 98 -7 -3 -30 -45
-50 -94 l-36 -89 -46 -3 -46 -3 19 48 c10 26 33 83 50 126 17 43 29 83 25 89
-11 18 -27 -9 -75 -130 l-47 -117 -42 -3 c-24 -2 -47 1 -52 6 -5 5 1 32 16 67
29 63 33 89 14 83 -7 -3 -26 -37 -43 -76 -28 -66 -32 -72 -60 -72 -45 0 -58
12 -46 42 9 25 6 38 -11 38 -4 0 -15 -16 -23 -36 -11 -26 -19 -34 -31 -30 -8
3 -27 6 -40 6 -13 0 -24 6 -24 13 0 6 23 64 49 127 44 102 52 144 24 127 -5
-3 -31 -60 -58 -127 l-49 -122 -35 6 c-19 3 -38 9 -43 14 -5 5 14 61 42 127
52 124 59 149 38 143 -10 -3 -78 -146 -120 -251 -2 -5 -25 0 -50 10 l-47 18
65 163 c35 90 64 167 64 173 0 5 -6 9 -13 9 -8 0 -40 -65 -77 -161 -35 -88
-67 -162 -71 -165 -7 -4 -79 23 -79 30 0 3 56 158 125 346 69 188 125 348 125
357 0 54 -41 -36 -151 -335 -69 -188 -128 -344 -131 -347 -8 -8 -108 43 -108
54 0 5 47 133 105 286 58 152 105 283 105 292 0 8 -7 13 -17 11 -13 -2 -47
-79 -127 -290 l-109 -287 -38 20 -38 19 28 78 c16 42 38 101 50 130 26 64 26
82 3 82 -13 0 -26 -23 -52 -92 -18 -51 -42 -112 -52 -136 l-18 -43 -42 22
c-24 12 -44 22 -45 23 -1 1 36 98 82 216 47 117 85 222 85 232 0 13 -6 18 -16
16 -14 -3 -71 -135 -187 -432 -4 -11 -87 33 -87 46 0 5 43 110 96 234 88 208
104 262 72 252 -6 -2 -55 -105 -107 -229 -52 -123 -96 -226 -98 -228 -4 -5
-41 14 -69 37 l-22 17 139 323 c76 178 137 328 133 333 -18 29 -42 -15 -164
-303 -73 -172 -136 -317 -140 -321 -4 -4 -26 10 -50 31 l-44 38 168 398 c120
286 164 402 157 409 -8 8 -15 7 -25 -3 -8 -8 -85 -185 -172 -392 -154 -369
-158 -378 -177 -361 -10 10 -23 25 -28 34 -6 12 48 156 191 509 110 271 197
496 194 501 -3 5 -11 9 -18 9 -12 0 -59 -112 -360 -857 -22 -57 -44 -103 -47
-103 -4 0 -19 20 -33 45 l-27 44 206 503 c113 276 203 508 200 516 -3 7 -11
12 -17 10 -15 -5 -31 -43 -215 -498 -74 -184 -149 -368 -166 -409 l-30 -74
-29 57 -29 58 210 523 c116 288 211 528 211 534 0 6 -8 11 -18 11 -15 0 -55
-93 -207 -472 -104 -260 -195 -489 -203 -508 l-15 -35 -13 30 c-21 48 -17 65
42 206 272 654 374 913 365 922 -8 8 -15 7 -25 -3 -11 -13 -130 -296 -382
-917 -21 -51 -41 -90 -45 -87 -5 3 -11 20 -15 39 -7 39 -1 53 280 739 86 209
156 385 156 393 0 27 -30 12 -48 -24 -10 -21 -108 -260 -218 -531 -192 -476
-199 -492 -210 -460 -6 18 -8 35 -4 38 5 3 49 109 98 235 50 127 145 367 211
535 136 342 140 364 74 376 -122 23 -237 -42 -522 -295 -38 -34 -73 -61 -78
-61 -6 0 -18 -9 -28 -20 -10 -11 -41 -34 -69 -52 -28 -18 -98 -67 -156 -109
-174 -126 -303 -210 -350 -231 -58 -25 -87 -52 -101 -96 -11 -32 -8 -41 50
-152 104 -202 136 -323 187 -725 34 -268 42 -529 20 -648 -37 -192 -119 -383
-227 -527 -57 -75 -178 -192 -343 -330 -48 -41 -116 -98 -150 -127 -33 -29
-87 -69 -118 -90 -31 -21 -57 -41 -57 -45 -1 -4 -12 -18 -26 -32 -14 -14 -25
-37 -25 -51 0 -18 -5 -25 -20 -25 -31 0 -67 -20 -81 -47 -10 -19 -10 -33 -1
-68 9 -36 9 -49 -3 -72 -20 -39 -19 -50 10 -78 l26 -23 -68 -11 c-37 -7 -188
-31 -334 -54 l-267 -43 -23 28 c-26 32 -76 45 -131 34 -27 -5 -37 -13 -46 -39
-7 -19 -10 -47 -7 -63 6 -31 36 -7 -442 -353 -33 -24 -34 -24 -58 -5 -13 10
-121 141 -240 289 -185 231 -214 271 -199 280 9 6 72 49 141 97 l124 88 152
-40 c168 -44 335 -75 450 -86 l75 -7 -5 -33 c-7 -45 17 -80 66 -95 21 -6 55
-9 74 -5 58 11 86 77 52 122 -8 10 -15 22 -15 25 0 3 30 11 68 18 145 28 252
68 252 95 0 10 -31 15 -122 20 -141 8 -168 13 -168 31 0 8 -16 27 -36 43 l-35
29 26 7 c66 17 89 96 39 135 -15 12 -41 21 -61 21 -104 0 -141 -98 -56 -148
l38 -22 -33 0 c-36 0 -82 -37 -82 -65 0 -19 -41 -16 -230 16 -295 51 -733 191
-1126 359 -381 163 -855 484 -1103 746 -241 254 -412 548 -447 764 -38 241 82
657 272 941 26 38 51 72 56 75 4 3 8 -44 8 -105 0 -60 7 -143 15 -183 18 -83
84 -232 133 -295 17 -24 32 -45 32 -47 0 -3 -12 -6 -27 -8 -25 -3 -23 -5 19
-20 26 -9 74 -38 105 -64 77 -63 182 -111 286 -132 58 -12 96 -26 120 -45 20
-15 40 -27 46 -27 20 0 21 20 2 39 -20 20 -20 20 27 26 63 8 178 42 227 67 85
43 183 121 250 198 39 44 80 83 93 86 42 11 210 -27 251 -57 55 -39 106 -107
126 -164 15 -45 16 -61 4 -153 -6 -57 -9 -142 -6 -191 4 -72 3 -90 -9 -95 -21
-8 -17 -30 8 -41 15 -7 29 -31 44 -77 l23 -68 -22 3 c-13 1 -23 -4 -25 -15 -2
-12 7 -20 37 -28 29 -8 45 -19 56 -40 48 -93 196 -228 307 -280 171 -80 375
-92 553 -32 77 26 92 28 104 17 12 -12 11 -16 -12 -24 -84 -32 -40 -149 57
-153 31 -1 44 4 63 26 29 34 29 45 -2 90 l-25 37 28 10 c15 5 36 23 46 40 16
27 16 32 3 53 -14 21 -12 25 54 85 314 285 405 747 212 1083 -87 153 -221 273
-366 326 -197 74 -403 66 -598 -21 -174 -78 -352 -250 -435 -419 -16 -32 -31
-58 -34 -58 -3 0 -14 14 -25 31 -11 17 -49 55 -84 85 -67 56 -139 86 -234 100
-26 3 -50 10 -53 15 -3 5 10 47 30 92 87 206 103 426 45 622 -64 215 -225 406
-400 476 -85 34 -158 48 -244 48 -74 0 -109 -4 -190 -23 -26 -7 -19 3 55 76
207 202 433 332 701 402 148 38 218 45 594 57 193 6 357 14 366 17 16 7 39 33
234 268 218 263 435 513 574 664 54 58 163 177 244 265 80 88 152 165 159 170
165 135 183 141 336 109z m526 -1181 c-31 -59 -91 -129 -101 -119 -2 2 17 40
42 85 25 45 45 86 45 91 0 6 11 10 25 10 l24 0 -35 -67z m-74 18 c-11 -22 -33
-63 -50 -91 -16 -28 -30 -57 -30 -65 0 -14 -58 -61 -65 -53 -4 4 84 168 121
226 8 12 21 22 29 22 13 0 12 -7 -5 -39z m-72 7 c-34 -52 -143 -254 -141 -260
2 -4 -16 -22 -40 -40 l-42 -33 25 42 c14 22 61 102 105 177 44 74 86 136 94
136 11 0 11 -4 -1 -22z m-152 -142 c-48 -80 -91 -148 -97 -151 -5 -4 -12 0
-15 8 -9 23 142 281 169 288 12 3 24 4 26 3 2 -2 -36 -68 -83 -148z m-87 0
c-39 -68 -65 -104 -71 -98 -10 10 83 187 111 210 32 26 20 -8 -40 -112z m-67
12 c-25 -44 -48 -76 -50 -70 -2 7 11 38 29 69 38 68 49 83 59 83 5 0 -12 -37
-38 -82z m-62 5 c-1 -18 -18 -35 -24 -24 -4 6 -4 16 -1 21 7 12 25 13 25 3z
m-77 -129 c42 -28 57 -57 57 -113 0 -34 -6 -42 -67 -93 -38 -31 -110 -95 -161
-143 -124 -115 -175 -147 -222 -139 -82 13 -110 38 -110 99 0 56 302 357 403
400 45 20 57 19 100 -11z m-2868 -669 c159 -42 312 -167 392 -321 68 -131 88
-214 87 -379 0 -161 -15 -234 -71 -359 -98 -218 -291 -406 -466 -454 l-37 -11
-24 47 c-39 76 -146 221 -216 291 -53 53 -134 112 -284 206 -13 8 3 30 99 135
63 69 115 128 115 133 0 19 -23 -2 -130 -117 -80 -87 -122 -125 -138 -125 -16
-1 -21 -5 -15 -13 4 -7 6 -22 4 -33 -2 -16 0 -17 12 -7 12 11 33 0 118 -58 56
-40 122 -88 147 -108 58 -48 151 -162 218 -270 54 -85 55 -87 32 -93 -13 -4
-52 -7 -87 -8 -53 -1 -71 4 -110 27 -65 39 -156 78 -225 96 -76 20 -96 34
-152 104 -56 71 -105 165 -136 262 -20 65 -23 95 -23 230 1 143 3 161 29 235
57 164 177 346 302 458 62 55 162 106 254 131 74 20 231 20 305 1z m4495 -84
c0 -10 -353 -890 -368 -917 -10 -17 -11 -17 -17 7 -5 20 35 131 166 460 95
239 177 440 182 447 11 14 37 16 37 3z m70 3 c0 -9 -369 -950 -394 -1004 l-20
-45 -4 32 c-2 24 49 159 199 527 172 423 219 528 219 490z m-300 -373 c-75
-191 -145 -371 -155 -400 -11 -28 -22 -51 -26 -51 -4 0 -12 14 -18 31 -9 28
-1 56 93 292 56 144 118 302 137 351 26 68 41 93 64 107 17 11 33 19 36 19 3
0 -55 -157 -131 -349z m-113 -34 c-61 -158 -115 -287 -119 -287 -3 0 -9 12
-12 28 -5 20 16 84 84 252 49 123 90 229 90 234 0 9 62 67 67 62 1 -1 -48
-131 -110 -289z m-89 -2 c-61 -151 -73 -175 -81 -157 -17 38 126 362 150 339
1 -2 -30 -84 -69 -182z m-76 9 c-24 -61 -42 -74 -28 -21 6 23 43 87 50 87 2 0
-8 -30 -22 -66z m-2215 -439 c241 -57 432 -246 503 -497 22 -78 37 -274 23
-295 -7 -10 -21 -8 -63 8 -29 11 -110 34 -179 51 -124 30 -131 31 -371 31
-135 0 -276 -2 -315 -4 -69 -4 -70 -5 -73 -33 -3 -28 -3 -28 40 -24 53 6 414
-26 523 -46 44 -8 116 -20 160 -26 44 -6 102 -18 129 -26 58 -16 95 -19 80 -5
-16 17 -186 68 -300 91 -60 13 -111 24 -114 27 -9 8 135 -9 190 -23 30 -7 79
-16 108 -19 29 -3 78 -14 110 -23 69 -21 73 -33 42 -135 -67 -221 -232 -417
-436 -520 -123 -62 -172 -72 -339 -72 -146 1 -152 2 -232 33 -98 40 -212 120
-271 192 -23 29 -41 55 -39 56 2 2 89 -26 193 -62 104 -36 198 -68 209 -71 19
-5 18 -4 -2 11 -33 24 -142 72 -298 131 l-140 53 -32 62 c-37 72 -43 104 -15
96 9 -3 80 -10 157 -16 179 -13 416 -45 525 -71 192 -45 323 -70 331 -62 21
22 159 208 159 215 0 14 -17 8 -31 -11 -11 -15 -133 -174 -146 -190 -2 -2 -63
14 -136 37 -213 68 -377 95 -776 131 -63 6 -117 13 -120 17 -3 3 -6 74 -6 157
0 131 3 162 23 227 30 94 91 215 145 289 44 58 149 162 204 199 79 55 219 111
313 125 62 10 211 5 267 -8z m-2237 -585 c8 -5 11 -10 5 -10 -5 0 -17 5 -25
10 -8 5 -10 10 -5 10 6 0 17 -5 25 -10z m-1790 -398 c0 -16 -22 -472 -50
-1013 -27 -541 -55 -1081 -60 -1199 -12 -226 -17 -281 -19 -190 -1 45 29 909
77 2203 6 167 10 210 22 217 24 15 30 12 30 -18z m89 -432 c-17 -201 -50 -603
-73 -895 -24 -291 -44 -510 -45 -485 0 25 19 437 44 915 25 479 45 874 45 880
0 5 13 -4 30 -20 l29 -30 -30 -365z m136 356 c-2 -11 -30 -230 -60 -486 -31
-256 -58 -472 -60 -480 -9 -31 56 871 70 977 6 43 6 43 31 27 16 -11 22 -23
19 -38z m-4 -876 c-77 -459 -140 -826 -140 -816 -1 23 197 1660 205 1695 l5
24 35 -34 34 -35 -139 -834z m234 832 l26 -39 -146 -794 c-80 -437 -180 -984
-222 -1216 -74 -403 -78 -422 -95 -406 -12 11 -15 20 -8 28 10 12 50 249 225
1315 165 1011 188 1150 191 1150 2 0 15 -17 29 -38z m250 -298 c78 -142 279
-516 447 -830 l306 -572 -23 -48 c-14 -27 -25 -55 -25 -61 0 -7 -5 -13 -10
-13 -7 0 -7 7 0 20 6 11 8 25 5 30 -13 21 -31 7 -52 -40 -12 -28 -27 -50 -33
-50 -8 0 -8 6 0 20 11 21 6 40 -11 40 -6 0 -19 -20 -30 -45 -25 -57 -39 -66
-32 -19 8 52 -15 41 -44 -19 -13 -26 -25 -47 -28 -47 -3 0 -1 9 5 21 13 22 7
49 -10 49 -6 0 -19 -20 -30 -45 -19 -45 -37 -63 -25 -25 5 15 2 20 -13 20 -13
0 -25 -12 -35 -37 -12 -29 -16 -33 -16 -15 -1 36 -27 25 -44 -18 -8 -22 -20
-40 -27 -40 -7 0 -8 6 -1 19 6 10 7 21 4 25 -15 15 -30 3 -51 -39 -12 -25 -26
-45 -32 -45 -7 0 -8 6 -1 19 6 10 7 21 4 25 -14 14 -31 4 -52 -34 -27 -48 -40
-58 -33 -25 7 40 -25 31 -48 -14 -21 -42 -50 -70 -36 -35 24 59 -2 69 -37 15
-15 -23 -27 -45 -27 -50 0 -5 -7 -11 -15 -15 -20 -7 -19 1 5 31 24 30 26 53 5
53 -15 0 -95 -99 -95 -117 0 -11 -30 -27 -37 -20 -2 2 15 27 37 54 22 28 40
58 40 67 0 36 -32 11 -95 -74 -37 -50 -82 -98 -99 -107 l-31 -16 20 24 c11 13
31 36 44 52 22 24 23 29 10 43 -14 13 -22 6 -79 -66 -35 -45 -77 -88 -93 -97
-38 -19 -35 -15 85 130 89 107 109 144 74 135 -7 -2 -61 -61 -121 -133 -126
-151 -166 -195 -178 -195 -4 0 21 38 57 84 56 71 63 85 48 91 -17 6 -53 -29
-105 -102 -12 -18 -25 -33 -29 -33 -20 0 19 69 91 161 56 72 77 106 68 111
-21 13 -25 10 -79 -62 -29 -38 -54 -68 -56 -66 -12 13 25 84 87 165 39 51 71
100 71 107 0 32 -32 10 -81 -53 l-51 -68 7 45 c5 30 21 63 47 97 26 34 38 59
34 69 -6 15 -9 14 -31 -6 -35 -32 -31 -17 6 30 31 38 32 60 3 60 -18 0 -18 10
2 38 8 12 13 31 9 42 -3 11 59 381 140 822 168 931 152 850 168 846 7 -3 75
-121 152 -264z m3485 -94 c0 -12 -42 -31 -50 -23 -6 5 30 33 42 33 4 0 8 -5 8
-10z m-59 -130 c26 -14 25 -50 -1 -50 -21 0 -45 34 -35 50 8 13 12 12 36 0z
m-4034 -477 c-3 -10 -5 -2 -5 17 0 19 2 27 5 18 2 -10 2 -26 0 -35z m1980
-195 c139 -84 203 -116 368 -189 110 -48 133 -62 149 -90 l19 -34 -34 33 c-26
24 -44 32 -71 32 -29 0 -41 6 -58 30 -40 56 -65 51 -264 -44 -99 -47 -180 -86
-182 -86 -2 0 -4 11 -4 24 0 13 -9 54 -21 91 -22 74 -47 190 -58 277 l-7 58
25 -17 c14 -9 76 -47 138 -85z m-217 85 c-1 -5 -15 -24 -32 -43 -31 -36 -30
-27 4 23 19 27 28 34 28 20z m-40 -188 c-29 -36 -54 -65 -57 -65 -17 0 13 71
54 127 l48 65 3 -31 c3 -25 -7 -44 -48 -96z m6 -103 c-30 -38 -64 -76 -75 -86
-42 -38 -7 29 59 112 52 65 66 78 68 62 2 -14 -16 -45 -52 -88z m-33 -163
c-65 -72 -130 -138 -146 -146 l-29 -14 39 54 c21 30 83 106 138 170 93 107
101 113 108 91 7 -20 -6 -39 -110 -155z m611 114 c4 -9 3 -19 -1 -23 -4 -4
-143 -68 -308 -143 -295 -133 -514 -234 -1310 -597 -220 -101 -456 -209 -525
-240 -98 -45 -126 -62 -128 -79 -2 -12 3 -24 13 -27 9 -4 97 31 213 84 108 49
562 256 1007 460 446 203 880 402 966 441 144 66 157 71 181 58 25 -13 20 -16
-146 -91 -94 -44 -315 -145 -491 -226 -176 -81 -581 -268 -900 -415 -319 -147
-622 -287 -674 -311 -51 -24 -99 -44 -106 -44 -7 0 -36 21 -65 47 l-52 46 44
17 c40 16 422 195 1723 809 292 138 535 250 541 251 7 0 15 -8 18 -17z m1620
11 c36 -14 3 -61 -34 -49 -22 7 -26 25 -8 43 14 14 20 14 42 6z m-1364 -54
c-6 -11 -15 -20 -21 -20 -6 0 -6 7 1 20 6 11 15 20 21 20 6 0 6 -7 -1 -20z
m-730 -29 c0 -10 -9 -26 -20 -36 -11 -10 -20 -24 -20 -32 0 -7 -2 -13 -4 -13
-2 0 -30 -12 -61 -26 l-58 -25 72 80 c71 78 91 90 91 52z m803 21 c8 -12 -40
-65 -52 -58 -8 5 -5 16 9 37 21 29 35 36 43 21z m95 -37 c4 -4 -66 -115 -73
-115 -2 0 -12 11 -21 25 -15 23 -14 26 13 65 23 34 32 39 53 34 14 -3 26 -7
28 -9z m72 -31 c0 -14 -94 -143 -101 -138 -15 9 -11 20 32 88 27 43 45 63 55
59 8 -3 14 -7 14 -9z m-290 -3 c0 -9 -80 -47 -1505 -705 -528 -244 -962 -441
-964 -439 -3 2 0 8 5 13 5 5 536 252 1179 548 644 296 1193 550 1220 564 58
29 65 31 65 19z m360 -21 c0 -5 -25 -48 -56 -95 -45 -70 -58 -84 -69 -75 -12
10 -4 26 42 96 49 74 83 104 83 74z m1970 -10 c0 -16 -7 -20 -30 -20 -23 0
-30 4 -30 20 0 16 7 20 30 20 23 0 30 -4 30 -20z m-907 -14 c4 -6 6 -22 5 -36
-3 -20 -9 -26 -36 -28 -40 -4 -62 12 -62 45 0 38 69 53 93 19z m-1052 -94
c-52 -77 -91 -117 -91 -96 0 4 30 51 66 106 45 69 69 97 76 90 7 -7 -9 -38
-51 -100z m-140 -149 c100 -126 317 -395 481 -600 l298 -372 -55 -73 c-69 -91
-95 -165 -102 -288 -6 -102 8 -173 49 -253 93 -183 336 -242 633 -153 44 13
87 27 97 30 12 6 53 -41 187 -215 l171 -223 -71 -41 c-40 -22 -398 -228 -798
-457 -653 -376 -726 -416 -733 -398 -11 29 -26 24 -36 -12 -8 -31 -56 -77 -68
-66 -3 4 0 31 7 61 12 55 8 87 -10 87 -11 0 -14 -9 -36 -110 -14 -65 -20 -78
-45 -92 -17 -9 -30 -14 -30 -10 0 4 12 60 26 126 22 98 24 120 13 127 -8 5
-17 9 -20 9 -3 0 -18 -67 -35 -149 l-29 -148 -37 -22 c-23 -13 -38 -17 -38
-10 0 6 18 90 41 186 30 128 38 178 30 186 -7 7 -14 7 -20 1 -7 -7 -101 -388
-101 -409 0 -6 -61 -37 -65 -33 -1 2 22 111 51 243 51 225 53 241 37 253 -16
12 -22 -8 -78 -259 -52 -236 -63 -274 -83 -287 -12 -8 -25 -12 -28 -9 -3 3 20
119 50 258 43 193 53 255 44 261 -7 4 -16 4 -21 -1 -4 -4 -34 -130 -67 -281
-33 -150 -61 -274 -62 -275 -2 -1 -13 -8 -25 -14 -17 -9 -23 -9 -23 0 0 6 32
164 71 350 38 187 67 344 64 349 -21 34 -34 -10 -104 -352 -41 -200 -78 -371
-83 -380 -8 -17 -46 -43 -53 -36 -2 2 31 186 74 408 69 359 76 406 63 417 -9
7 -17 11 -19 9 -3 -3 -86 -434 -149 -769 -17 -92 -20 -98 -51 -117 -22 -13
-33 -15 -33 -7 0 7 42 217 94 467 84 407 92 456 78 467 -8 7 -17 12 -18 10 -2
-1 -44 -205 -94 -452 -50 -248 -94 -458 -98 -469 -7 -16 -11 -14 -36 18 l-27
37 96 432 c53 238 98 439 101 448 4 14 -23 36 -32 26 -2 -1 -44 -187 -94 -412
-50 -226 -94 -418 -98 -428 -6 -15 -13 -9 -45 33 l-39 52 105 401 c94 362 103
403 89 415 -21 16 -11 48 -122 -388 -51 -201 -96 -368 -100 -373 -7 -8 -90
101 -90 119 0 6 47 157 105 335 58 178 105 332 105 341 0 10 -7 18 -15 18 -12
0 -103 -262 -217 -628 l-10 -33 -29 39 -29 40 106 312 c79 231 104 314 95 323
-7 7 -14 7 -20 1 -5 -5 -53 -137 -105 -293 -53 -157 -99 -287 -101 -289 -9
-10 -35 21 -35 42 0 12 42 148 94 304 84 252 93 283 78 291 -15 9 -29 -25
-112 -275 l-96 -286 -25 36 -26 37 22 67 c112 344 149 474 135 482 -8 5 -18 6
-21 2 -3 -4 -41 -121 -85 -261 -77 -249 -78 -253 -96 -231 -10 12 -15 26 -12
31 3 6 37 119 74 252 63 222 67 243 52 255 -15 11 -23 -10 -86 -234 -69 -243
-70 -245 -88 -222 -9 13 -18 29 -18 35 0 7 30 113 66 234 52 177 63 223 52
230 -7 5 -15 9 -18 9 -3 0 -25 -69 -49 -153 -83 -284 -82 -280 -97 -265 -11
11 -4 48 46 228 56 206 59 229 29 230 -6 0 -32 -88 -90 -308 -22 -82 -48 -109
-40 -41 8 62 6 102 -6 106 -11 4 -15 -4 -28 -61 l-6 -29 -25 37 -25 36 46 165
c25 91 43 170 40 175 -18 28 -33 -2 -69 -133 -48 -174 -47 -174 -68 -139 -15
26 -14 34 25 170 33 119 38 145 26 153 -8 4 -17 5 -20 1 -3 -4 -21 -62 -40
-129 -19 -68 -37 -123 -41 -123 -4 0 -12 8 -17 18 -7 14 0 51 27 141 30 103
34 124 22 131 -21 13 -24 7 -56 -107 -16 -57 -31 -103 -34 -103 -3 1 -12 11
-21 23 -15 20 -14 29 12 121 29 100 29 116 4 116 -8 0 -22 -32 -36 -86 l-23
-86 -28 33 c-40 49 -41 61 -14 128 24 59 24 61 6 71 -16 9 -21 4 -35 -40 -20
-60 -31 -69 -46 -37 -8 18 -7 32 5 62 20 47 20 51 0 59 -11 4 -19 -5 -30 -30
-15 -36 -16 -36 -30 -16 -11 17 -12 26 -2 47 10 22 9 28 -3 36 -9 6 -18 4 -25
-6 -17 -23 -27 -18 -22 10 5 26 -14 51 -31 41 -5 -3 -35 33 -67 81 -32 49 -63
93 -69 98 -28 24 -473 641 -467 646 4 4 111 54 237 111 127 58 635 293 1130
523 1093 507 1107 514 1121 515 7 0 94 -102 195 -227z m293 218 c3 -5 -19 -25
-49 -45 -30 -20 -55 -34 -55 -31 0 3 12 23 26 45 26 39 64 54 78 31z m1895
-128 l38 -90 -98 -17 c-128 -21 -132 -21 -124 4 4 11 0 33 -8 49 l-14 28 52
27 c29 14 55 26 59 26 17 0 45 46 39 65 -13 47 19 -6 56 -92z m-4952 65 c-3
-7 -5 -2 -5 12 0 14 2 19 5 13 2 -7 2 -19 0 -25z m4761 -2 c-4 -27 -55 -36
-65 -10 -8 22 21 44 48 37 14 -4 19 -12 17 -27z m87 14 c-3 -5 -10 -10 -16
-10 -5 0 -9 5 -9 10 0 6 7 10 16 10 8 0 12 -4 9 -10z m-3438 -84 c-4 -9 -11
-16 -18 -16 -6 0 -8 7 -5 16 3 9 6 21 6 27 0 8 3 8 11 0 7 -7 9 -19 6 -27z
m-1520 -43 c-2 -16 -4 -5 -4 22 0 28 2 40 4 28 2 -13 2 -35 0 -50z m4034 7
c27 -15 25 -58 -3 -69 -43 -17 -85 31 -58 64 15 18 34 19 61 5z m799 -30 c0
-23 -13 -32 -34 -24 -19 7 -21 40 -3 47 20 7 37 -4 37 -23z m313 -113 c27 -52
54 -99 272 -477 155 -270 265 -494 309 -633 78 -247 154 -572 181 -782 13
-106 18 -123 41 -142 14 -13 33 -23 43 -23 9 0 67 19 127 41 l109 41 125 -4
c102 -4 136 -9 185 -29 65 -27 65 -26 44 -102 -14 -49 -14 -49 29 -130 50 -93
50 -93 -6 -257 -36 -107 -61 -154 -107 -207 -41 -48 -185 -148 -287 -199 -63
-32 -73 -34 -168 -34 -56 0 -110 5 -121 10 -23 13 -26 77 -5 119 32 60 95 272
111 370 13 74 16 135 13 211 -9 183 -34 173 -43 -16 -7 -142 -13 -168 -72
-349 -54 -168 -81 -222 -130 -270 -69 -67 -438 -230 -611 -269 -40 -9 -81 -21
-90 -26 -9 -6 -39 -19 -65 -30 l-48 -20 -17 31 c-55 102 -220 337 -285 407
-38 39 -83 43 -114 10 -21 -23 -26 -38 -24 -68 0 -9 52 -84 114 -168 173 -232
241 -379 204 -436 -32 -48 -280 -157 -469 -206 -200 -52 -318 -65 -578 -64
-441 0 -723 57 -871 176 -47 38 -89 103 -89 140 0 33 66 133 120 182 83 75
235 129 400 142 47 3 91 11 99 17 23 19 31 55 19 81 -17 39 -57 50 -161 43
l-92 -6 30 18 c17 11 334 193 705 406 371 213 687 399 703 413 15 14 27 31 27
37 0 7 -79 114 -175 240 -96 125 -175 231 -175 235 0 4 12 16 27 26 75 48 222
229 285 350 47 89 92 225 108 324 6 41 10 136 8 210 -3 129 -4 135 -24 138
-12 2 -26 14 -33 28 -6 13 -18 27 -26 30 -23 9 -18 24 9 24 14 0 37 11 52 23
38 33 38 82 0 112 l-28 22 33 7 c18 3 41 14 51 23 24 21 23 78 -1 102 -19 19
-18 19 18 42 42 28 54 78 26 109 -18 20 -31 16 170 49 88 15 88 15 118 -42z
m-459 -45 c-4 -19 0 -35 14 -52 l19 -24 -31 -21 c-44 -29 -48 -83 -9 -119 l28
-26 -28 0 c-36 0 -87 -49 -87 -83 0 -16 13 -36 35 -56 l36 -31 -29 0 c-74 0
-109 -81 -56 -131 32 -30 93 -32 123 -5 12 11 23 17 24 15 9 -11 -12 -292 -26
-350 -47 -195 -135 -349 -287 -505 -82 -83 -133 -113 -255 -150 -79 -24 -108
-27 -230 -28 -127 -1 -145 1 -192 23 -130 58 -200 218 -174 393 16 100 60 187
133 259 62 61 69 85 28 96 -10 3 -48 41 -84 85 l-65 79 62 82 c33 45 97 126
140 180 l80 98 36 -35 c20 -20 46 -36 57 -36 30 0 35 -10 19 -34 -31 -44 -13
-98 40 -120 34 -15 40 -15 88 -1 34 9 60 55 51 90 -8 31 -49 65 -80 65 -29 0
-40 16 -14 23 11 3 27 21 36 40 15 31 15 40 4 67 -20 48 -51 63 -115 58 -43
-4 -62 -11 -83 -31 -16 -15 -36 -27 -45 -27 -26 0 -223 -237 -298 -360 -7 -12
-16 -8 -44 25 -65 73 -67 66 51 152 58 43 171 126 249 184 99 73 147 104 157
98 31 -20 85 -10 119 22 33 30 42 33 294 74 325 54 316 53 309 17z m124 -4 c5
-24 -31 -41 -53 -24 -16 12 -16 13 0 30 21 20 48 17 53 -6z m-769 -12 c14 -16
5 -42 -16 -50 -24 -10 -53 3 -53 23 0 36 46 55 69 27z m719 -128 c16 -16 15
-35 -3 -42 -22 -8 -45 4 -45 23 0 32 26 41 48 19z m-734 -74 c30 -30 -18 -78
-72 -72 -21 2 -28 9 -30 30 -6 47 67 77 102 42z m691 -104 c0 -30 -35 -39 -55
-14 -12 14 -12 18 5 30 28 21 50 13 50 -16z m-640 -100 c0 -21 -5 -25 -30 -25
-33 0 -48 30 -23 46 25 17 53 6 53 -21z m-4045 -97 c125 -112 139 -132 90
-133 -15 0 -273 197 -281 215 -2 5 5 11 16 13 11 2 24 8 30 13 5 5 11 9 12 9
2 0 62 -53 133 -117z m4624 51 c26 -10 20 -44 -8 -44 -28 0 -40 14 -32 35 6
16 16 18 40 9z m-4641 -188 c20 -16 37 -35 37 -41 0 -7 35 -61 78 -121 72
-100 1197 -1637 1317 -1799 29 -38 146 -198 260 -355 115 -157 226 -309 248
-339 43 -58 41 -58 -47 5 -44 32 -82 76 -150 171 -50 70 -258 360 -461 643
-385 537 -1145 1600 -1273 1779 -75 105 -76 110 -9 57z m879 -1806 c111 -23
271 -71 333 -101 63 -29 108 -83 325 -389 112 -157 217 -303 235 -325 41 -51
328 -260 358 -261 12 0 49 -8 81 -18 93 -29 194 -19 342 33 168 60 158 59 183
17 12 -19 45 -56 73 -81 177 -159 484 -230 993 -229 204 0 275 4 385 21 221
35 452 108 639 202 129 65 200 162 188 254 l-6 42 87 31 c48 18 114 39 147 49
97 26 272 94 393 151 111 52 113 53 170 43 118 -19 293 -22 372 -5 232 49 453
242 539 468 l10 26 103 -38 c152 -56 216 -87 283 -135 130 -93 365 -369 434
-510 16 -34 38 -65 47 -69 26 -10 53 3 60 30 3 13 10 24 15 24 25 0 258 -115
313 -154 78 -56 157 -141 186 -201 42 -86 40 -201 -4 -324 -9 -24 -14 -53 -10
-63 7 -22 51 -35 73 -21 15 9 38 73 61 171 10 40 12 42 32 28 41 -29 95 -115
123 -197 25 -75 28 -98 29 -214 0 -142 -13 -196 -77 -318 -57 -108 -181 -197
-334 -239 -107 -29 -330 -29 -533 1 -208 30 -218 30 -282 -22 -68 -55 -140
-100 -202 -128 -43 -19 -63 -21 -169 -18 l-121 4 -64 -80 c-93 -117 -148 -171
-232 -228 -148 -101 -317 -160 -593 -207 -260 -44 -646 -13 -887 72 -110 39
-328 148 -405 203 -33 23 -91 75 -128 114 l-68 72 -47 -7 c-40 -6 -57 -17
-119 -74 -123 -117 -258 -204 -383 -246 -159 -54 -527 8 -764 127 -127 64
-176 99 -253 176 -70 72 -90 77 -167 42 -106 -47 -231 -34 -366 37 -69 37 -89
41 -108 22 -23 -23 -14 -66 18 -85 17 -9 29 -21 28 -24 -5 -12 -131 -113 -186
-148 -127 -81 -295 -131 -442 -131 -110 0 -323 27 -430 55 -130 34 -375 143
-499 222 -72 46 -191 161 -191 185 0 21 -69 68 -100 68 -13 0 -28 -12 -38 -29
-20 -36 -35 -41 -132 -41 -98 0 -229 29 -367 79 -61 23 -117 41 -125 41 -8 0
-60 -22 -115 -49 -230 -113 -355 -132 -568 -88 -206 42 -356 117 -475 239 -60
61 -95 73 -121 42 -10 -12 -10 -22 -2 -44 l11 -29 -117 -41 c-102 -37 -130
-43 -226 -47 -151 -7 -206 9 -281 81 -67 65 -70 89 -15 173 65 101 111 121
348 152 76 9 145 21 151 25 7 4 12 17 12 28 0 32 102 161 214 273 130 128 194
163 316 172 111 7 242 -11 358 -50 71 -24 97 -29 110 -21 26 17 27 59 2 77
-26 18 -24 33 22 172 75 224 199 397 348 485 69 41 111 55 202 65 67 8 83 23
74 66 -7 36 27 100 121 227 213 290 488 406 805 342z m1832 -764 c-19 -38 -34
-74 -34 -82 0 -23 -216 -107 -318 -123 -119 -18 -101 -1 146 141 130 75 238
135 239 134 1 -1 -14 -32 -33 -70z"/>
<path d="M8300 11675 c0 -11 7 -45 16 -75 8 -30 18 -113 22 -185 6 -106 10
-130 22 -130 25 0 25 151 0 260 -20 88 -60 175 -60 130z"/>
<path d="M8060 11564 c0 -4 18 -27 41 -51 35 -38 75 -112 117 -215 7 -16 19
-28 28 -28 13 0 15 6 10 32 -17 84 -103 215 -165 251 -17 10 -31 15 -31 11z"/>
<path d="M9595 11016 c-94 -44 -222 -117 -322 -184 -97 -64 -121 -88 -106
-103 7 -7 43 12 118 63 59 40 167 111 240 158 176 112 185 120 70 66z"/>
<path d="M12525 10776 c-18 -27 -13 -60 8 -54 19 7 33 56 20 69 -8 8 -16 4
-28 -15z"/>
<path d="M9350 10711 c-31 -4 -45 -11 -45 -21 0 -12 12 -15 55 -13 95 2 280
25 280 34 0 10 -218 10 -290 0z"/>
<path d="M12607 10613 c-4 -3 -7 -15 -7 -25 0 -28 34 -19 38 10 3 21 -16 31
-31 15z"/>
<path d="M12680 10459 c-31 -57 -60 -153 -50 -163 7 -7 14 -6 24 4 19 21 69
157 61 170 -10 16 -23 12 -35 -11z"/>
<path d="M12756 10263 c-82 -220 -83 -223 -51 -223 14 0 105 234 105 270 0 43
-29 18 -54 -47z"/>
<path d="M12831 10059 c-40 -108 -43 -129 -17 -129 15 0 99 217 90 231 -16 26
-35 -1 -73 -102z"/>
<path d="M12993 10018 c-18 -24 -83 -190 -77 -199 15 -24 35 -1 69 78 20 48
37 96 38 107 2 23 -16 32 -30 14z"/>
<path d="M7822 9875 c-14 -17 -21 -48 -26 -107 -8 -105 5 -184 44 -264 16 -35
30 -69 30 -77 0 -18 -98 -114 -147 -144 -69 -42 -145 -64 -243 -71 -86 -6 -95
-9 -95 -27 0 -27 45 -30 161 -12 49 8 90 13 92 12 2 -2 -3 -25 -11 -52 -9 -29
-11 -56 -6 -70 10 -27 65 -63 142 -91 91 -34 99 -32 137 41 18 34 34 64 36 66
4 5 22 -15 73 -82 69 -91 161 -157 161 -116 0 6 -37 50 -83 98 -53 57 -94 110
-114 152 -33 67 -67 208 -61 255 3 26 7 28 96 45 75 14 109 28 183 70 98 56
109 69 109 123 0 27 -8 45 -32 71 -40 42 -356 205 -398 205 -18 0 -35 -9 -48
-25z m-2 -592 c1 -23 -87 -246 -98 -250 -18 -7 -62 36 -62 61 0 12 8 43 17 69
14 38 27 54 65 78 26 17 48 35 48 40 0 11 30 12 30 2z m71 -49 c15 -69 10
-108 -23 -175 -31 -60 -35 -64 -66 -62 -18 0 -36 4 -40 7 -3 4 4 30 16 59 12
28 35 92 53 140 33 94 44 99 60 31z"/>
<path d="M12754 9854 c-17 -40 -15 -65 3 -71 13 -5 43 57 43 88 0 32 -30 21
-46 -17z"/>
<path d="M13062 9868 c-13 -18 -102 -246 -102 -265 0 -8 7 -13 17 -11 19 3
128 262 118 279 -8 13 -21 11 -33 -3z"/>
<path d="M13141 9753 c-10 -37 -9 -48 1 -54 21 -14 30 -5 44 42 18 58 18 59
-10 59 -20 0 -26 -7 -35 -47z"/>
<path d="M12867 9744 c-14 -14 -7 -64 8 -64 16 0 22 10 27 45 3 19 -21 32 -35
19z"/>
<path d="M7198 9715 c61 -29 345 -96 357 -84 7 7 4 14 -8 24 -28 20 -220 65
-305 70 -75 5 -76 5 -44 -10z"/>
<path d="M13397 9604 c-11 -11 -8 -64 3 -64 11 0 17 12 22 44 3 19 -13 32 -25
20z"/>
<path d="M12926 9538 c-30 -49 -31 -93 -1 -82 16 7 48 81 40 95 -10 15 -24 10
-39 -13z"/>
<path d="M13522 9505 c-16 -34 -15 -45 1 -45 13 0 37 40 37 60 0 20 -27 9 -38
-15z"/>
<path d="M13326 9418 c-30 -84 -31 -88 -12 -88 8 0 25 30 40 71 30 81 31 89
12 89 -8 0 -25 -31 -40 -72z"/>
<path d="M13625 9430 c-15 -29 -13 -50 4 -50 9 0 31 45 31 65 0 25 -19 17 -35
-15z"/>
<path d="M13481 9422 c-15 -28 -14 -42 3 -42 18 0 31 39 18 52 -7 7 -14 3 -21
-10z"/>
<path d="M9976 9296 c-88 -155 -95 -171 -75 -164 12 4 168 272 169 291 1 29
-29 -11 -94 -127z"/>
<path d="M13423 9282 c-37 -87 -38 -92 -19 -92 13 0 76 129 76 156 0 37 -28 6
-57 -64z"/>
<path d="M13718 9313 c-11 -27 -43 -97 -69 -157 -54 -121 -56 -129 -34 -124
10 2 44 67 85 161 39 87 70 160 70 163 0 2 -7 4 -16 4 -9 0 -24 -20 -36 -47z"/>
<path d="M13575 9330 c-10 -30 5 -47 22 -25 7 11 13 25 13 32 0 21 -28 15 -35
-7z"/>
<path d="M13827 9303 c-9 -14 -127 -284 -127 -289 0 -3 7 -4 16 -2 10 2 41 58
80 147 35 79 64 145 64 147 0 7 -29 4 -33 -3z"/>
<path d="M10112 9225 c-34 -69 -38 -85 -22 -85 9 0 70 123 70 141 0 25 -19 2
-48 -56z"/>
<path d="M13525 9210 c-29 -58 -30 -60 -10 -60 8 0 26 22 40 50 29 58 30 60
10 60 -8 0 -26 -22 -40 -50z"/>
<path d="M8325 9240 c-10 -16 3 -27 39 -34 38 -7 78 -36 257 -182 150 -121
163 -130 122 -78 -31 39 -69 76 -196 189 -103 91 -202 138 -222 105z"/>
<path d="M13926 9216 c-21 -51 -23 -71 -7 -71 20 0 49 81 34 96 -9 9 -16 2
-27 -25z"/>
<path d="M14010 9134 c-21 -54 -24 -87 -9 -82 22 7 46 85 32 99 -10 10 -15 5
-23 -17z"/>
<path d="M13890 9115 c0 -9 5 -15 11 -13 6 2 11 8 11 13 0 5 -5 11 -11 13 -6
2 -11 -4 -11 -13z"/>
<path d="M14067 9033 c-13 -13 -7 -53 8 -53 10 0 15 10 15 30 0 29 -9 38 -23
23z"/>
<path d="M13561 8969 c-12 -36 -1 -58 17 -36 16 19 19 59 6 64 -7 2 -17 -11
-23 -28z"/>
<path d="M9479 8701 c-16 -17 -29 -40 -29 -54 0 -34 35 -74 72 -82 l32 -7 -39
-14 c-48 -16 -63 -31 -71 -70 -4 -24 0 -37 21 -62 l27 -32 -26 -9 c-30 -12
-46 -39 -46 -80 0 -33 20 -57 59 -73 l26 -10 -34 -12 c-73 -26 -93 -95 -40
-140 38 -32 90 -34 136 -6 58 35 56 111 -5 141 l-32 17 30 12 c65 27 80 92 30
133 -36 31 -37 33 -5 41 33 8 57 47 53 88 -2 26 -11 37 -42 54 -37 21 -38 22
-15 29 113 35 84 165 -36 165 -27 0 -44 -8 -66 -29z m109 -48 c4 -29 -30 -48
-58 -33 -25 13 -26 36 -2 49 27 17 57 9 60 -16z m-12 -168 c8 -21 -14 -45 -42
-45 -31 0 -39 17 -18 41 20 23 52 25 60 4z m-22 -177 c13 -21 1 -36 -33 -40
-31 -4 -50 24 -31 47 16 20 49 16 64 -7z m-9 -187 c0 -30 -47 -50 -70 -31 -8
7 -15 16 -15 21 0 18 34 40 59 37 20 -2 26 -9 26 -27z"/>
<path d="M7396 10948 c3 -7 30 -32 59 -55 57 -45 236 -248 269 -305 14 -23
-11 -4 -81 62 -55 52 -124 108 -154 124 l-54 29 45 -49 c25 -27 90 -96 145
-154 56 -58 139 -158 185 -223 81 -114 110 -137 118 -95 2 9 -39 96 -90 194
-86 165 -100 185 -188 277 -85 89 -176 164 -237 196 -18 9 -21 9 -17 -1z"/>
<path d="M7041 10805 c-64 -78 -80 -105 -63 -105 12 0 132 151 132 167 0 7 -2
13 -4 13 -2 0 -31 -34 -65 -75z"/>
<path d="M7214 10793 c-38 -43 -104 -115 -146 -161 -74 -78 -90 -102 -69 -102
11 0 301 320 301 332 0 20 -21 2 -86 -69z"/>
<path d="M7258 10540 c-66 -74 -76 -90 -59 -90 10 0 133 133 139 150 10 28
-24 2 -80 -60z"/>
<path d="M9870 9428 c-29 -51 -81 -137 -116 -190 -39 -60 -59 -100 -52 -104
12 -8 4 -18 112 157 79 127 126 211 126 224 0 23 -26 -9 -70 -87z"/>
<path d="M9566 9430 c-29 -43 -31 -50 -16 -50 10 0 60 69 60 82 0 19 -19 5
-44 -32z"/>
<path d="M5771 7354 c-21 -27 -20 -44 4 -44 16 0 45 38 45 57 0 22 -27 14 -49
-13z"/>
<path d="M5795 7269 c-51 -63 -64 -99 -37 -99 15 0 124 149 117 160 -12 19
-22 10 -80 -61z"/>
<path d="M5960 7264 c-21 -21 -22 -27 -10 -34 8 -5 17 -10 20 -10 11 1 41 51
35 60 -10 16 -20 12 -45 -16z"/>
<path d="M6856 5403 c-12 -13 -6 -63 8 -63 14 0 26 21 26 45 0 14 -25 27 -34
18z"/>
<path d="M6825 5268 c-7 -18 -16 -50 -20 -71 -7 -34 -5 -39 10 -35 19 3 59
103 50 125 -8 23 -26 14 -40 -19z"/>
<path d="M8000 4734 c0 -24 2 -25 18 -13 9 7 19 14 20 15 2 1 -6 7 -17 14 -19
10 -21 8 -21 -16z"/>
<path d="M9497 6852 c-60 -67 -21 -147 76 -154 20 -2 26 -6 21 -18 -20 -44
-16 -70 14 -100 24 -23 39 -30 70 -30 52 0 92 31 92 71 0 42 -48 89 -89 89
-36 0 -35 -2 -16 37 19 38 9 71 -31 102 -35 27 -113 29 -137 3z m106 -53 c16
-26 1 -49 -32 -49 -25 0 -32 5 -37 26 -11 42 45 61 69 23z m97 -154 c16 -19 6
-45 -18 -45 -25 0 -46 25 -38 45 7 19 40 19 56 0z"/>
<path d="M9967 6793 c-48 -14 -87 -56 -87 -93 0 -9 -16 -24 -36 -35 -70 -37
-80 -110 -20 -146 74 -45 176 4 176 86 0 25 7 34 37 50 22 12 42 33 50 54 13
31 13 36 -4 60 -26 34 -59 41 -116 24z m63 -57 c0 -18 -38 -46 -62 -46 -22 0
-23 23 -2 44 20 20 64 21 64 2z m-102 -115 c34 -21 -16 -75 -59 -64 -27 7 -25
47 4 61 28 13 38 14 55 3z"/>
<path d="M12295 4081 c-67 -18 -134 -62 -199 -132 -68 -74 -80 -99 -46 -99 11
0 20 5 20 10 0 6 31 41 68 79 51 51 83 74 126 90 85 32 212 27 355 -15 65 -19
141 -88 161 -148 6 -20 18 -36 26 -36 24 0 16 43 -19 100 -40 68 -109 112
-211 136 -81 19 -236 27 -281 15z"/>
<path d="M6233 3775 c-150 -27 -259 -83 -378 -195 -68 -65 -73 -67 -155 -84
-96 -20 -190 -56 -319 -121 -93 -46 -110 -60 -94 -76 6 -6 59 14 144 55 174
85 282 116 424 123 161 8 294 -31 384 -112 24 -22 47 -35 56 -31 23 8 8 32
-45 71 -96 71 -227 115 -339 115 l-64 0 24 26 c39 42 142 112 213 144 103 47
222 63 416 57 255 -9 355 -42 457 -151 33 -34 79 -95 103 -134 42 -67 61 -84
74 -64 9 15 -96 174 -155 234 -65 66 -148 110 -255 134 -99 22 -386 27 -491 9z"/>
<path d="M11145 3560 c-118 -12 -254 -47 -332 -84 -81 -39 -168 -116 -214
-189 -18 -28 -34 -53 -35 -55 -1 -2 -38 8 -82 22 -207 65 -423 35 -532 -74
-80 -80 -137 -190 -99 -190 5 0 27 29 50 65 55 88 127 151 198 173 105 32 327
19 414 -25 l27 -14 -24 -47 c-33 -66 -50 -122 -39 -133 14 -14 28 4 56 77 39
100 135 243 198 293 98 78 230 122 426 142 261 27 512 -27 641 -137 68 -58
181 -233 182 -280 0 -6 -28 -17 -62 -23 -77 -15 -151 -38 -200 -62 -48 -24
-200 -158 -195 -172 8 -25 30 -15 89 40 89 82 114 98 204 130 72 25 92 27 224
28 145 0 146 0 212 -33 37 -18 92 -56 123 -83 45 -42 56 -48 61 -34 5 11 -6
29 -32 56 -85 87 -204 139 -318 139 l-61 0 -19 53 c-27 79 -98 186 -165 251
-111 105 -281 163 -496 171 -66 2 -156 0 -200 -5z"/>
<path d="M13409 3292 c-31 -11 -89 -37 -130 -60 -72 -39 -75 -40 -104 -25 -61
33 -154 9 -204 -51 -21 -25 -4 -33 27 -13 85 56 131 57 202 6 29 -21 45 -28
53 -20 7 7 6 15 -3 25 -11 14 1 22 83 62 52 25 113 48 135 51 63 8 138 -22
195 -79 45 -45 67 -53 67 -24 0 19 -80 92 -128 116 -61 30 -125 34 -193 12z"/>
<path d="M4069 3141 c-59 -18 -169 -101 -169 -127 0 -22 26 -16 57 12 79 73
180 103 285 84 78 -14 109 -30 156 -80 45 -48 67 -52 59 -11 -6 27 -4 29 40
35 25 3 58 6 74 6 43 0 134 -38 186 -77 32 -25 48 -32 56 -24 25 25 -76 97
-178 127 -52 15 -70 16 -143 5 -78 -11 -84 -11 -109 9 -14 11 -48 27 -76 35
-53 16 -193 19 -238 6z"/>
<path d="M8370 3053 c-107 -11 -246 -49 -326 -87 l-85 -42 -54 27 c-166 84
-408 49 -530 -76 -40 -42 -105 -155 -105 -184 0 -6 8 -11 18 -11 11 0 25 19
42 58 36 85 118 163 200 191 83 28 194 37 257 22 65 -16 133 -42 133 -51 0 -4
-34 -29 -75 -56 -73 -48 -93 -74 -57 -74 9 0 58 27 107 61 173 116 276 156
460 180 142 17 253 8 350 -30 113 -43 196 -95 280 -173 40 -38 78 -68 84 -68
44 0 -59 112 -171 187 -167 110 -323 148 -528 126z"/>
<path d="M6875 13236 c-55 -125 -110 -353 -157 -656 -20 -129 -22 -182 -22
-475 0 -182 6 -383 13 -449 6 -65 10 -120 9 -121 -2 -2 -32 14 -66 35 -131 79
-355 159 -546 195 -410 75 -1044 84 -1000 14 3 -5 88 -9 190 -9 294 0 721 -42
909 -90 185 -47 422 -150 494 -215 43 -39 76 -45 86 -16 3 10 1 48 -4 82 -18
117 -34 520 -27 711 10 303 58 601 150 933 22 78 24 92 11 104 -13 13 -18 7
-40 -43z"/>
<path d="M4262 12067 c-11 -14 -2 -95 28 -260 l20 -110 -50 -66 c-63 -84 -132
-214 -124 -235 9 -24 23 -20 128 35 54 28 98 50 100 48 1 -2 11 -29 21 -60 10
-31 32 -81 50 -110 58 -100 85 -65 107 140 l13 115 30 8 c17 5 73 11 125 13
l95 4 2 28 c2 25 -8 36 -98 103 -55 41 -105 78 -110 81 -7 4 -5 27 5 64 8 31
12 63 9 71 -10 26 -55 13 -100 -29 l-22 -20 -79 71 c-44 40 -85 79 -92 87 -22
27 -47 36 -58 22z m125 -149 l62 -63 -49 -55 c-55 -63 -48 -70 -75 75 -24 129
-24 130 62 43z m163 -64 c0 -8 -5 -12 -10 -9 -6 4 -8 11 -5 16 9 14 15 11 15
-7z m-37 -49 c18 -13 18 -18 3 -106 -9 -51 -17 -94 -19 -95 -8 -9 -101 -44
-105 -40 -2 3 -10 30 -17 61 l-13 56 60 69 c33 39 63 70 66 70 4 0 15 -7 25
-15z m143 -107 l69 -52 -34 -7 c-19 -4 -57 -10 -86 -14 l-52 -6 8 48 c4 26 8
56 8 66 1 26 12 22 87 -35z m-319 -123 l10 -44 -69 -37 c-65 -34 -69 -35 -57
-13 23 45 90 139 98 139 4 0 12 -20 18 -45z m159 -97 c-4 -40 -9 -88 -13 -106
-5 -30 -7 -31 -18 -15 -14 20 -55 128 -55 144 0 8 73 48 89 49 2 0 1 -33 -3
-72z"/>
</g>
</svg>
