<?xml version="1.0" standalone="no"?>
<!DOCTYPE svg PUBLIC "-//W3C//DTD SVG 20010904//EN"
 "http://www.w3.org/TR/2001/REC-SVG-20010904/DTD/svg10.dtd">
<svg version="1.0" xmlns="http://www.w3.org/2000/svg"
 width="1800.000000pt" height="1500.000000pt" viewBox="0 0 1800.000000 1500.000000"
 preserveAspectRatio="xMidYMid meet">

<g transform="translate(0.000000,1500.000000) scale(0.100000,-0.100000)"
fill="#000000" stroke="none">
<path d="M7783 14745 c-212 -66 -341 -319 -389 -765 -21 -199 -36 -669 -32
-981 4 -256 6 -280 30 -369 52 -194 195 -491 436 -905 185 -319 278 -516 346
-740 63 -207 151 -645 144 -717 -3 -29 -7 -32 -65 -49 l-62 -17 -47 76 c-238
387 -563 677 -1147 1026 -229 136 -299 174 -447 241 -178 81 -224 96 -325 102
-80 5 -97 3 -150 -19 -126 -50 -270 -171 -367 -308 -58 -81 -260 -444 -340
-610 -123 -256 -219 -521 -328 -905 -33 -115 -73 -257 -90 -315 -71 -240 -94
-410 -87 -646 8 -254 43 -390 146 -564 87 -146 242 -259 369 -268 113 -8 250
41 367 132 146 113 264 193 392 268 76 44 156 93 178 108 69 48 134 122 174
200 116 223 146 451 154 1180 3 225 8 345 15 348 14 4 193 -63 276 -105 126
-63 432 -283 443 -318 2 -6 -16 -26 -39 -44 -55 -45 -162 -168 -218 -250 -113
-169 -248 -515 -309 -796 -87 -401 -109 -584 -118 -956 -8 -357 8 -538 68
-759 29 -109 85 -250 120 -304 89 -133 272 -222 573 -276 60 -11 111 -21 113
-23 1 -2 -25 -50 -59 -108 -34 -57 -81 -147 -105 -199 -36 -79 -43 -105 -43
-157 0 -49 -8 -84 -39 -160 -21 -54 -53 -143 -71 -198 -45 -138 -97 -274 -196
-518 -107 -262 -144 -362 -204 -562 -44 -145 -108 -440 -126 -572 -4 -29 -9
-53 -11 -53 -3 0 -26 17 -52 38 -63 53 -165 120 -206 138 -64 27 -135 14 -207
-38 -22 -15 -81 -32 -188 -54 -195 -40 -327 -95 -363 -153 -20 -33 -22 -48
-21 -176 0 -124 4 -149 27 -220 91 -275 283 -457 567 -539 158 -45 279 -60
437 -53 164 7 179 -1 91 -48 -29 -15 -78 -45 -108 -66 l-55 -38 -85 34 c-175
70 -355 89 -580 60 -312 -39 -564 -134 -736 -275 -119 -98 -208 -223 -392
-555 -52 -93 -95 -171 -96 -172 -1 -1 -40 11 -86 27 -223 74 -522 107 -727 79
-266 -35 -434 -136 -588 -351 -71 -99 -160 -267 -196 -368 -29 -84 -31 -87
-87 -95 -75 -11 -250 -71 -399 -137 -88 -38 -176 -69 -243 -84 l-105 -24 -57
-61 c-37 -39 -65 -81 -79 -117 -23 -61 -36 -187 -25 -246 8 -41 61 -96 122
-126 84 -41 279 -18 402 49 33 17 36 17 70 0 21 -10 91 -30 157 -45 223 -52
410 -37 632 52 l65 26 97 -25 c217 -57 332 -71 466 -57 98 11 257 56 297 84
19 13 29 10 107 -29 238 -119 404 -175 661 -220 250 -44 427 -30 752 59 186
51 390 141 456 200 20 18 26 19 55 7 18 -7 73 -27 122 -43 162 -55 410 -50
590 12 l57 20 41 -29 c70 -48 218 -118 307 -145 158 -48 381 -76 725 -92 184
-8 470 16 588 51 104 30 294 100 324 121 21 13 28 12 84 -11 33 -14 115 -41
181 -60 128 -37 202 -43 299 -24 l54 10 82 -49 c45 -27 121 -62 170 -78 83
-27 97 -29 258 -29 193 1 276 15 409 71 89 38 155 94 208 179 18 28 33 52 35
54 1 2 29 -8 61 -22 78 -35 173 -54 312 -62 130 -8 230 8 335 52 33 13 67 27
75 29 9 3 47 -13 85 -36 90 -52 244 -112 365 -141 202 -48 496 -21 790 73 139
45 222 84 324 152 70 47 90 54 101 36 4 -6 39 -32 78 -59 162 -109 245 -135
432 -135 196 0 395 41 554 115 83 39 85 39 208 39 238 0 419 35 552 105 l65
35 69 -25 c93 -34 189 -40 312 -21 204 31 316 86 483 235 l100 89 108 -1 c184
-3 337 55 439 164 90 98 95 156 21 256 -49 68 -100 111 -177 150 -53 27 -57
28 -208 26 l-154 -3 -37 34 c-68 61 -173 105 -282 116 -110 12 -275 0 -335
-25 -20 -8 -37 -14 -38 -13 -1 2 -23 36 -49 77 -60 94 -236 275 -332 341 -41
28 -116 71 -167 95 -182 87 -295 95 -516 40 -78 -20 -185 -52 -238 -71 -63
-23 -99 -31 -101 -24 -17 49 -100 183 -161 258 -79 98 -244 198 -425 257 -268
88 -485 86 -767 -4 l-87 -28 -64 61 c-106 103 -345 233 -508 276 -71 19 -119
24 -290 27 l-206 5 4 126 c3 93 -2 163 -17 262 -11 74 -36 238 -55 364 l-35
229 234 431 c265 485 264 482 199 541 -20 18 -111 68 -207 113 -95 44 -236
111 -314 148 l-143 67 38 25 c84 56 161 150 222 272 135 268 131 528 -10 811
-104 206 -288 436 -447 559 -27 20 -40 46 -71 137 l-39 113 39 25 c164 108
356 373 472 650 157 376 184 654 90 940 -62 189 -195 381 -348 503 l-40 31 47
20 c25 11 62 23 82 27 19 3 37 10 40 14 5 9 -77 2 -125 -11 -51 -13 -50 -14
-50 44 0 78 -26 184 -62 257 -44 89 -160 204 -253 252 -117 60 -173 73 -320
73 l-131 0 -39 54 c-108 148 -289 308 -427 377 -100 50 -256 100 -378 120 -88
14 -142 16 -335 10 -126 -3 -251 -9 -277 -13 l-48 -6 0 49 c0 45 26 337 50
564 20 192 32 708 27 1195 -3 435 -7 522 -26 670 -27 214 -44 299 -88 439 -51
162 -102 292 -199 508 -165 368 -243 501 -379 646 -224 239 -483 360 -652 307z
m217 -186 c90 -35 187 -105 295 -213 135 -136 196 -238 360 -601 257 -568 305
-799 310 -1500 1 -203 -1 -525 -5 -715 -8 -315 -14 -420 -40 -685 -5 -49 -16
-180 -26 -290 -10 -110 -23 -203 -28 -207 -6 -4 -24 -8 -39 -8 -27 0 -28 1
-22 43 27 188 38 499 42 1197 5 753 2 873 -33 1160 -37 308 -140 668 -180 628
-3 -3 15 -66 40 -139 24 -74 53 -177 64 -229 l19 -95 -59 -33 c-32 -18 -58
-40 -58 -48 0 -20 22 -17 71 10 24 14 46 23 51 20 4 -3 8 -22 8 -42 0 -36 -3
-38 -80 -80 -44 -24 -80 -47 -80 -53 0 -23 32 -18 94 17 37 20 69 35 71 33 2
-2 6 -16 10 -30 6 -25 2 -28 -87 -67 -52 -23 -94 -48 -96 -57 -5 -23 25 -18
108 19 83 37 88 35 89 -31 1 -31 -2 -33 -129 -94 -119 -57 -146 -78 -121 -93
5 -3 63 21 130 54 128 63 136 63 129 5 -3 -24 -21 -37 -143 -101 -156 -83
-164 -89 -148 -105 9 -9 48 8 152 64 l141 75 0 -37 0 -36 -175 -99 c-158 -89
-205 -126 -159 -126 9 0 87 41 174 90 87 50 160 90 164 90 3 0 6 -21 6 -47
l-1 -48 -206 -116 c-114 -63 -209 -121 -211 -127 -11 -35 43 -12 216 87 105
61 194 111 197 111 3 0 5 -19 5 -43 l0 -43 -230 -137 c-207 -124 -263 -167
-216 -167 8 0 104 54 214 120 110 66 207 123 216 126 15 6 17 0 14 -41 l-3
-48 -165 -94 c-91 -52 -197 -113 -237 -134 l-71 -40 -46 84 c-25 46 -46 89
-46 95 0 6 27 26 60 44 56 31 72 50 52 62 -5 3 -38 -10 -74 -29 l-65 -35 -56
133 c-72 171 -119 314 -151 460 -30 132 -76 396 -76 433 0 18 -5 24 -20 24
-18 0 -20 -5 -16 -32 3 -18 17 -105 32 -193 58 -360 140 -602 331 -980 129
-256 172 -350 214 -474 60 -176 89 -414 89 -742 l0 -167 -36 -7 c-20 -3 -40
-3 -43 2 -4 4 -15 65 -25 135 -23 167 -85 445 -137 616 -72 238 -148 400 -363
775 -246 430 -362 670 -414 857 l-27 95 3 375 c5 819 43 1117 168 1330 40 69
84 106 140 119 47 10 67 7 164 -30z m820 -2789 c0 -38 -4 -60 -11 -60 -6 0
-97 -54 -201 -120 -104 -66 -191 -120 -193 -120 -6 0 -57 101 -53 105 9 8 444
254 451 254 4 1 7 -26 7 -59z m0 -144 l0 -44 -176 -106 c-97 -58 -180 -106
-184 -106 -12 0 -35 63 -24 67 5 2 90 55 189 118 99 63 183 115 188 115 4 0 7
-20 7 -44z m0 -123 c-1 -25 -16 -37 -133 -111 -73 -45 -146 -91 -163 -102
l-32 -21 -10 30 -10 29 166 101 c92 55 170 100 175 101 4 0 7 -12 7 -27z
m-2480 -46 c110 -40 361 -166 531 -267 487 -289 798 -539 1003 -807 56 -73
160 -233 154 -237 -2 -1 -46 -20 -98 -41 -52 -21 -161 -71 -242 -112 -81 -40
-150 -73 -153 -73 -4 0 -71 51 -148 114 -172 137 -287 214 -410 271 -208 96
-350 130 -512 122 -103 -5 -222 -35 -218 -54 2 -9 -387 -394 -735 -728 l-84
-80 27 70 c14 39 32 80 40 92 8 12 118 116 245 230 126 114 230 213 230 220 0
31 -26 19 -93 -44 -116 -108 -251 -228 -265 -237 -11 -7 -12 -4 -3 12 21 39
11 36 -35 -8 -66 -65 -107 -132 -148 -243 -77 -205 -81 -236 -81 -577 0 -320
7 -400 47 -519 27 -84 86 -151 132 -151 45 0 105 42 216 151 52 51 102 92 110
91 8 -1 29 9 45 22 24 19 27 27 18 37 -10 10 -16 9 -30 -2 -10 -8 -1 5 20 29
20 23 37 49 37 57 0 35 -34 8 -119 -92 -139 -167 -266 -275 -306 -259 -13 5
-4 20 49 83 36 42 66 82 66 90 0 31 -33 8 -92 -62 -66 -79 -75 -81 -98 -25
-14 34 -30 14 234 305 121 134 156 185 127 185 -12 0 -11 1 -161 -166 -69 -76
-148 -163 -176 -193 l-52 -55 -11 51 c-6 29 -13 94 -16 145 l-6 93 176 180
c97 99 290 298 428 443 l252 263 3 -41 c3 -38 -1 -46 -65 -118 -98 -110 -384
-434 -400 -453 -11 -14 -11 -18 1 -28 11 -9 55 35 236 239 123 138 224 249
226 247 2 -2 0 -29 -4 -60 -7 -55 -9 -59 -132 -188 -69 -73 -126 -138 -128
-145 -9 -37 36 -4 134 96 59 61 109 109 110 107 2 -2 -2 -42 -8 -90 -9 -67
-15 -87 -27 -87 -19 0 -406 -457 -406 -479 0 -9 5 -16 11 -16 6 0 98 102 204
227 107 126 195 227 196 225 3 -3 -11 -73 -27 -134 -7 -25 -16 -40 -23 -37
-13 5 -179 -186 -184 -211 -8 -37 33 -8 99 70 39 47 74 83 77 80 3 -3 -11 -38
-31 -78 -41 -80 -43 -87 -23 -87 18 0 59 72 90 159 56 156 100 457 116 801 13
270 30 379 79 493 l19 45 44 -9 c23 -4 46 -8 51 -9 10 0 8 -512 -3 -805 -13
-354 -42 -525 -115 -679 -46 -95 -99 -144 -259 -238 -146 -84 -265 -163 -411
-274 -122 -92 -190 -124 -270 -125 -71 -2 -128 27 -198 99 -219 230 -255 683
-97 1212 22 74 61 207 85 295 65 236 174 550 249 721 71 161 313 613 377 704
83 117 217 233 307 266 46 17 126 9 202 -19z m2480 -62 c0 -25 -5 -35 -15 -35
-8 0 -74 -39 -146 -87 -105 -70 -132 -84 -140 -73 -5 8 -8 20 -6 27 1 9 290
201 305 203 1 0 2 -16 2 -35z m0 -100 c0 -15 -8 -29 -22 -36 -13 -7 -74 -45
-136 -85 -85 -56 -114 -70 -118 -59 -3 8 -4 19 -2 25 4 13 249 179 266 179 6
1 12 -10 12 -24z m-10 -105 c0 -18 -5 -30 -13 -30 -12 0 -116 -68 -193 -126
-34 -25 -44 -23 -44 10 0 16 31 40 123 98 67 43 123 78 125 78 1 0 2 -13 2
-30z m0 -87 c0 -24 -16 -38 -114 -105 -109 -74 -114 -76 -118 -53 -4 20 10 34
111 104 64 44 117 80 119 80 1 1 2 -11 2 -26z m0 -113 c0 -27 -4 -40 -13 -40
-8 0 -56 -31 -107 -70 -51 -38 -95 -70 -97 -70 -2 0 -3 15 -3 34 0 32 6 39
108 110 59 41 108 75 110 75 1 1 2 -17 2 -39z m-5 -107 c-4 -16 -7 -28 -8 -29
-3 -1 -159 -125 -179 -142 -17 -14 -18 -12 -18 19 0 32 7 40 97 107 53 40 101
72 106 72 5 0 6 -12 2 -27z m-6 -105 c0 -16 -31 -49 -97 -106 l-97 -84 -3 33
c-2 21 2 35 11 41 8 4 50 37 93 72 44 36 82 65 87 65 4 1 7 -9 6 -21z m-9
-116 c0 -24 -16 -42 -92 -106 -91 -76 -93 -78 -96 -52 -3 22 6 36 45 69 26 23
66 59 88 79 22 21 43 38 48 38 4 0 7 -13 7 -28z m-5 -114 c-6 -32 -43 -72
-137 -149 l-38 -31 0 31 c0 25 13 42 87 106 48 41 89 75 91 75 2 0 1 -15 -3
-32z m-12 -125 c-15 -40 -174 -152 -162 -114 6 17 164 151 167 142 1 -4 -1
-17 -5 -28z m-3 -82 c0 -5 -9 -11 -21 -14 -16 -4 -18 -3 -8 9 13 16 29 19 29
5z m-2430 -22 c0 -5 -6 -9 -14 -9 -8 0 -222 -210 -476 -467 l-462 -468 7 50
c4 28 10 55 13 61 4 6 202 200 440 431 401 390 434 419 462 415 17 -2 30 -8
30 -13z m-47 -132 c-9 -31 -20 -57 -24 -57 -5 0 -61 -55 -126 -122 -65 -67
-181 -188 -258 -268 -78 -80 -221 -228 -320 -330 -98 -102 -183 -187 -188
-189 -6 -2 -8 14 -4 43 7 46 15 56 319 364 172 174 380 386 462 469 83 84 151
151 152 150 2 -1 -5 -28 -13 -60z m3461 13 c269 -61 443 -178 645 -437 l40
-51 -66 -39 c-133 -77 -238 -220 -264 -359 -6 -34 -8 -90 -5 -132 7 -70 6 -73
-12 -67 -30 9 -153 -20 -219 -52 -33 -16 -85 -54 -122 -91 -35 -34 -65 -61
-66 -60 -1 2 -15 23 -30 48 -67 107 -194 199 -340 246 -68 22 -99 26 -200 27
-175 0 -271 -30 -411 -128 -94 -67 -159 -155 -199 -272 l-24 -67 -97 -40
c-112 -46 -112 -58 1 -21 43 14 81 25 86 25 5 0 9 -17 9 -37 0 -159 83 -319
217 -421 43 -33 45 -36 27 -49 -10 -8 -30 -23 -44 -34 l-25 -20 25 11 c14 6
39 19 57 28 26 13 36 14 58 4 l26 -12 -30 -26 c-33 -27 -39 -60 -20 -96 9 -16
7 -24 -10 -42 -27 -28 -27 -66 0 -100 l21 -27 -26 -20 c-33 -26 -35 -73 -4
-106 14 -15 17 -23 8 -23 -22 0 -50 -31 -50 -57 0 -12 9 -32 20 -43 19 -19 19
-20 -5 -44 -27 -27 -31 -47 -15 -77 8 -15 7 -23 -4 -34 -22 -22 -28 -52 -16
-74 8 -17 6 -25 -10 -41 -23 -23 -26 -68 -6 -95 12 -17 11 -21 -9 -37 -28 -22
-40 -69 -25 -98 9 -17 7 -25 -9 -47 -28 -35 -26 -65 5 -102 14 -17 21 -31 15
-31 -20 0 -51 -39 -51 -64 0 -13 9 -35 20 -49 l20 -26 -20 -6 c-12 -4 -26 -18
-32 -31 -10 -21 -8 -30 12 -56 21 -28 21 -32 6 -40 -26 -15 -37 -54 -24 -83 9
-21 8 -28 -7 -45 -13 -14 -16 -30 -12 -59 4 -31 1 -44 -14 -57 -21 -19 -25
-55 -9 -84 8 -14 5 -21 -15 -34 -17 -11 -25 -26 -25 -46 0 -25 -4 -30 -24 -30
-14 0 -33 -10 -43 -23 -11 -14 -26 -21 -41 -19 -13 2 -34 -4 -48 -12 -13 -9
-24 -12 -24 -7 0 17 -31 41 -53 41 -15 0 -27 11 -37 33 -11 23 -23 33 -43 35
-48 6 -85 -46 -59 -84 11 -18 49 -34 64 -29 9 4 19 -4 26 -19 15 -33 58 -44
80 -22 15 15 17 13 27 -16 20 -65 116 -60 123 6 3 23 7 27 24 23 25 -7 70 35
62 57 -5 12 0 16 19 16 35 0 51 23 44 65 -5 32 -4 35 19 35 39 0 67 36 61 76
l-6 34 112 1 c62 0 139 4 172 8 33 5 61 7 63 6 2 -2 -29 -29 -67 -61 -74 -60
-81 -71 -56 -80 14 -6 119 76 170 132 13 14 36 24 64 27 l44 5 -69 -69 c-52
-52 -65 -72 -57 -80 9 -9 29 3 83 51 39 34 78 72 88 85 20 25 79 45 65 22 -4
-8 -46 -56 -92 -106 -47 -51 -96 -108 -110 -126 -14 -19 -42 -40 -61 -46 -19
-6 -127 -52 -239 -101 -441 -194 -511 -208 -958 -187 -155 7 -288 16 -294 19
-15 10 41 129 143 303 l82 140 117 -6 c107 -6 119 -5 142 13 32 25 52 26 41 3
-12 -29 -7 -66 12 -80 19 -14 72 -17 90 -5 40 27 32 87 -14 103 -25 8 -27 14
-24 44 6 47 -12 67 -57 64 -20 -2 -45 2 -56 8 -11 6 -78 13 -150 17 -370 20
-657 87 -782 182 -96 73 -185 359 -214 684 -20 234 2 662 47 930 64 376 141
655 239 870 136 297 256 418 597 602 323 175 597 261 1094 342 131 22 291 38
499 50 131 8 330 -3 419 -24z m-3491 -162 c-5 -39 -19 -56 -138 -178 -162
-166 -347 -358 -576 -597 l-174 -182 -3 34 c-3 33 15 54 444 500 246 256 448
465 449 465 2 0 1 -19 -2 -42z m-20 -192 c-4 -8 -174 -186 -378 -396 -203
-211 -394 -409 -424 -441 -30 -33 -58 -59 -62 -59 -5 0 -9 16 -9 36 0 40 -52
-17 550 608 324 337 325 337 328 302 2 -20 0 -42 -5 -50z m4604 -185 c77 -29
196 -128 248 -207 33 -49 36 -60 26 -76 -13 -21 -6 -74 11 -84 6 -4 14 0 19 7
11 19 16 11 24 -45 l8 -50 -46 38 c-46 37 -46 39 -49 104 -2 52 -6 67 -18 67
-11 0 -16 -13 -18 -48 -3 -51 -24 -62 -30 -16 -6 51 -13 69 -27 69 -9 0 -15
-10 -15 -25 0 -31 -10 -32 -41 -2 -13 12 -35 28 -49 34 -69 29 -201 151 -255
237 l-19 28 85 -4 c55 -2 105 -12 146 -27z m-281 -2 c19 -7 114 -109 114 -122
0 -3 -21 -15 -46 -26 -44 -20 -168 -101 -189 -125 -5 -6 -49 -44 -98 -85 -48
-40 -101 -91 -118 -112 -27 -35 -29 -40 -13 -46 19 -7 34 1 216 105 60 34 110
62 112 62 9 0 97 53 93 56 -8 9 -117 -30 -187 -67 l-75 -40 80 76 c86 81 160
141 212 170 l32 19 40 -37 c22 -20 65 -53 95 -73 l54 -36 7 -139 c7 -130 9
-139 27 -139 20 0 20 4 13 126 l-7 126 26 -17 c23 -15 25 -24 28 -93 3 -64 6
-77 21 -80 15 -3 17 5 17 58 0 44 3 61 12 58 7 -3 15 -15 18 -29 5 -17 13 -23
27 -22 11 1 37 -13 58 -33 l39 -35 -35 -21 c-19 -11 -50 -25 -69 -30 -54 -15
-159 -71 -267 -141 -142 -93 -161 -115 -122 -140 12 -7 39 6 110 55 121 83
184 118 289 162 103 44 113 45 104 9 -20 -82 -135 -197 -247 -248 -53 -25
-202 -55 -266 -55 -60 0 -170 28 -235 58 -162 77 -268 220 -283 382 -17 201
119 406 315 476 35 12 50 11 98 -7z m-1282 -495 c212 -55 377 -233 400 -429
12 -108 -40 -279 -97 -321 -12 -8 -71 -51 -132 -95 -60 -43 -125 -86 -143 -95
-91 -41 -284 -44 -406 -5 -41 14 -65 26 -59 32 5 5 84 38 176 73 156 61 322
106 444 122 55 7 79 24 69 49 -10 27 -147 12 -324 -36 -80 -21 -325 -128 -384
-166 l-37 -25 -43 30 c-97 67 -189 198 -204 293 l-6 34 109 43 c227 89 249 94
458 102 105 4 191 8 193 9 1 0 2 7 2 15 0 21 -29 25 -225 36 -191 10 -339 2
-448 -25 -90 -23 -90 -23 -67 36 103 262 418 402 724 323z m779 -100 c27 -5
42 -14 51 -33 8 -14 47 -60 88 -101 154 -157 224 -194 435 -226 93 -14 97 -13
192 12 53 14 101 27 106 28 6 1 28 8 50 14 22 6 68 12 102 14 73 3 69 18 -5
21 l-50 2 72 66 c39 37 80 83 91 103 11 20 23 36 27 36 21 0 100 -63 152 -120
167 -185 250 -432 225 -673 -29 -284 -181 -650 -364 -874 -76 -94 -111 -128
-190 -183 l-60 -41 -6 49 c-16 121 -94 221 -222 286 -89 45 -169 60 -268 52
-141 -12 -247 -56 -370 -154 -143 -114 -228 -222 -337 -428 -38 -71 -92 -166
-120 -210 -59 -92 -32 -80 -297 -134 -230 -47 -490 -80 -632 -80 l-63 0 12 25
c9 20 8 31 -2 50 -12 22 -11 27 5 39 23 17 24 69 1 95 -17 18 -17 19 4 26 12
4 25 16 29 28 9 24 -5 77 -21 77 -6 0 4 13 21 29 36 34 40 72 11 101 -20 20
-20 20 10 35 35 18 48 56 32 98 -9 24 -8 34 3 51 21 29 19 80 -5 101 -19 17
-19 18 10 45 34 32 36 40 15 79 -13 26 -13 30 0 41 17 14 20 71 5 86 -7 7 -4
16 10 29 23 21 26 63 6 90 -12 17 -11 21 10 38 28 22 32 62 8 88 -15 17 -14
20 15 45 36 30 39 51 11 87 -24 30 -25 37 -6 37 20 0 56 48 56 74 0 12 -6 31
-14 42 -13 17 -12 21 6 41 16 17 19 30 15 59 -6 35 -5 36 21 30 55 -14 175
-21 235 -15 34 3 63 5 65 3 2 -1 -4 -15 -14 -31 l-18 -28 35 32 c19 18 66 45
106 61 142 58 243 136 310 240 59 92 74 149 80 317 3 111 9 159 21 185 20 42
121 113 190 134 55 17 65 18 115 10z m-1174 -268 c-2 -2 -51 -20 -109 -41 -58
-20 -134 -52 -170 -71 -35 -19 -68 -34 -72 -34 -10 0 -10 71 0 87 9 14 113 42
197 53 66 8 161 12 154 6z m-22 -644 c24 -15 20 -69 -7 -77 -47 -15 -82 23
-60 65 11 20 45 26 67 12z m-9 -134 c17 -17 15 -65 -4 -72 -36 -14 -84 9 -84
40 0 35 62 58 88 32z m-23 -183 c0 -26 -3 -30 -29 -30 -36 0 -56 26 -36 50 8
9 24 15 39 13 22 -2 26 -8 26 -33z m-20 -126 c8 -23 -7 -39 -38 -39 -20 0 -32
23 -23 45 9 23 53 19 61 -6z m-17 -136 c2 -14 -3 -23 -17 -28 -28 -9 -41 1
-41 31 0 22 4 25 28 22 19 -2 28 -9 30 -25z m-24 -107 c9 -13 7 -20 -7 -31
-25 -18 -47 -8 -47 20 0 37 34 44 54 11z m-7 -112 c9 -24 -10 -49 -37 -49 -27
0 -46 25 -37 49 4 10 18 16 37 16 19 0 33 -6 37 -16z m1911 -54 c110 -55 150
-125 131 -228 -12 -64 -91 -293 -139 -402 -83 -190 -214 -444 -278 -540 -73
-108 -194 -237 -292 -311 -80 -59 -276 -152 -420 -200 -232 -76 -730 -215
-1000 -279 -96 -23 -185 -48 -197 -56 -41 -26 -42 -86 -2 -123 l21 -19 -130
-189 c-71 -103 -184 -268 -250 -367 l-121 -178 19 -38 c11 -21 23 -63 28 -93
5 -31 16 -66 25 -79 10 -15 77 -50 195 -101 l179 -79 -9 -41 c-25 -111 -69
-426 -77 -556 -17 -249 -23 -706 -12 -856 22 -278 64 -532 122 -728 11 -38 19
-70 17 -72 -13 -13 -389 96 -537 155 -236 94 -315 141 -514 308 -208 176 -431
556 -472 806 -13 78 -85 111 -139 61 -19 -17 -26 -34 -26 -60 l0 -35 -77 -1
c-162 -1 -221 3 -313 23 -261 56 -403 152 -500 339 -52 100 -70 173 -70 285
l0 92 83 30 c45 16 136 39 202 52 70 13 131 30 147 41 14 11 31 19 36 19 6 0
26 9 45 20 l35 21 73 -50 c41 -27 112 -81 158 -120 46 -39 87 -71 92 -71 5 0
9 -21 9 -46 0 -101 75 -150 137 -88 26 26 26 27 20 142 -7 125 3 213 49 447
55 282 125 501 286 900 63 154 159 417 213 584 l100 303 90 -6 c50 -3 194 -9
320 -13 352 -10 438 9 844 186 124 53 242 104 261 111 19 8 53 34 75 59 194
220 254 281 282 281 l25 0 -34 -44 c-18 -25 -59 -79 -92 -120 -38 -50 -56 -82
-52 -92 5 -13 9 -14 21 -4 11 9 214 265 219 276 1 1 11 5 24 9 23 7 23 7 7
-24 -9 -18 -14 -35 -11 -40 3 -4 -32 -42 -78 -84 -45 -42 -107 -103 -136 -137
l-53 -62 39 7 c81 15 221 66 269 99 113 75 248 258 384 515 83 159 160 262
253 342 135 116 209 148 349 148 76 1 93 -2 147 -29z m-1934 -76 c19 -19 20
-35 3 -58 -17 -23 -55 -18 -73 9 -12 18 -11 24 2 43 18 26 46 28 68 6z m-9
-134 c15 -17 16 -24 7 -46 -10 -20 -18 -25 -43 -22 -44 4 -64 36 -43 66 19 27
55 28 79 2z m-30 -175 c0 -26 -3 -30 -29 -30 -36 0 -56 26 -36 50 8 9 24 15
39 13 22 -2 26 -8 26 -33z m2239 -28 c-25 -29 -26 -30 -19 -7 22 70 26 76 36
57 8 -14 4 -25 -17 -50z m22 -70 c-64 -80 -105 -122 -100 -100 8 30 117 160
122 145 2 -7 -8 -27 -22 -45z m-2281 -37 c0 -20 -6 -26 -28 -28 -18 -2 -29 2
-33 12 -11 28 4 48 33 44 22 -2 28 -8 28 -28z m2330 -38 c-3 -18 -51 -73 -131
-153 l-125 -124 26 59 c14 33 47 82 73 110 26 28 69 77 96 109 41 48 51 55 58
42 5 -9 7 -28 3 -43z m-2350 -92 c0 -18 -6 -26 -23 -28 -24 -4 -38 18 -28 44
3 9 15 14 28 12 17 -2 23 -10 23 -28z m2556 -120 c85 -83 200 -232 263 -338
101 -173 144 -340 126 -489 -17 -134 -78 -279 -161 -385 -120 -151 -479 -242
-884 -224 -395 18 -861 102 -1018 183 -32 16 -107 81 -107 93 0 4 30 15 68 25
348 94 599 212 782 367 l65 55 145 11 c334 26 396 26 607 -4 36 -6 45 -3 68
20 20 21 26 34 23 63 -5 64 -23 70 -266 99 l-44 6 7 36 c10 57 62 184 90 221
13 19 22 38 19 42 -25 42 -104 -99 -144 -258 l-10 -41 -60 -4 c-33 -1 -60 -1
-60 1 0 2 21 27 48 56 88 98 185 292 244 491 l33 110 50 -35 c28 -20 80 -65
116 -101z m-258 33 c-16 -44 -35 -65 -143 -160 -155 -135 -155 -135 -135 -86
9 21 19 43 22 50 3 7 13 15 23 18 10 3 69 60 131 127 62 66 115 116 116 111 2
-6 -4 -33 -14 -60z m-2329 1 c21 -8 21 -50 0 -58 -32 -12 -57 27 -32 52 14 14
12 14 32 6z m-549 -79 c0 -11 -8 -21 -17 -23 -14 -3 -18 3 -18 23 0 20 4 26
18 23 9 -2 17 -12 17 -23z m555 -54 c12 -23 -10 -51 -40 -51 -26 0 -45 36 -29
56 17 20 56 17 69 -5z m2260 -48 c-18 -43 -38 -62 -177 -167 -141 -108 -153
-115 -132 -79 13 22 88 94 166 161 78 68 145 127 149 133 3 6 8 8 11 6 2 -3
-5 -27 -17 -54z m-2753 1 c6 -15 -11 -34 -32 -34 -5 0 -16 4 -24 9 -21 14 -5
41 24 41 14 0 28 -7 32 -16z m423 -78 c0 -20 -19 -31 -32 -18 -6 6 -7 15 -4
21 10 16 36 13 36 -3z m-372 -39 c4 -22 -27 -35 -38 -16 -10 15 7 42 24 36 6
-2 12 -11 14 -20z m2590 -94 c-40 -61 -55 -75 -142 -126 -65 -40 -105 -57
-122 -55 -23 3 -4 20 137 129 90 69 166 124 167 123 2 -1 -16 -33 -40 -71z
m-2295 52 c1 -5 -6 -11 -15 -13 -11 -2 -18 3 -18 13 0 17 30 18 33 0z m-205
-23 c2 -7 -6 -12 -17 -12 -21 0 -27 11 -14 24 9 9 26 2 31 -12z m126 -25 c9
-14 7 -21 -7 -32 -25 -18 -47 -9 -47 19 0 40 32 48 54 13z m885 -873 c65 -144
267 -235 671 -303 276 -47 461 -64 700 -64 218 0 306 8 461 44 l86 20 204 -97
c381 -180 509 -244 509 -254 0 -6 -84 -165 -186 -353 -103 -188 -204 -375
-226 -414 l-39 -73 26 -167 c14 -93 40 -253 57 -358 39 -238 42 -400 10 -515
-44 -160 -45 -157 -53 95 -7 239 -27 452 -58 615 -10 52 -18 105 -17 117 0 12
-3 23 -9 25 -10 3 -74 -120 -259 -499 -59 -123 -109 -223 -111 -223 -2 0 -165
71 -362 159 -197 87 -578 256 -848 376 -1505 667 -1731 768 -1738 775 -5 4
138 226 318 494 268 399 331 487 353 492 48 11 314 83 402 108 47 14 88 25 91
25 3 1 11 -11 18 -25z m-606 -152 c-447 -670 -598 -892 -601 -884 -4 12 572
880 596 900 24 19 26 15 5 -16z m-65 -1 c-8 -22 -544 -821 -550 -821 -5 0 -8
7 -8 15 0 20 538 815 552 815 5 0 8 -4 6 -9z m-171 -158 c-52 -76 -163 -239
-247 -363 -170 -251 -158 -235 -165 -229 -2 3 51 86 118 184 68 99 180 265
251 368 70 104 130 186 133 184 2 -3 -38 -68 -90 -144z m1115 -1474 c1487
-660 1484 -659 1507 -659 12 0 21 4 21 9 0 5 70 153 156 328 l157 318 12 -60
c26 -120 46 -346 56 -625 12 -331 18 -297 -100 -525 -201 -389 -321 -479 -735
-550 -600 -103 -1445 -110 -2008 -17 l-103 18 -23 79 c-61 209 -97 421 -123
715 -12 146 -6 678 12 894 11 149 74 556 84 556 2 0 491 -216 1087 -481z
m-2588 -976 c88 -156 209 -317 305 -403 92 -84 281 -227 343 -260 l45 -23 -28
-87 c-15 -48 -34 -125 -40 -173 -11 -75 -11 -93 4 -147 29 -104 85 -178 192
-255 133 -95 264 -142 575 -205 225 -45 836 -143 1006 -160 303 -31 528 65
638 271 16 29 30 55 30 56 1 1 42 -2 91 -8 174 -18 302 -28 475 -34 148 -6
200 -4 340 15 312 41 385 64 472 151 104 104 123 213 60 341 -30 62 -112 151
-187 204 l-30 21 40 44 c88 95 255 401 346 632 38 98 51 122 66 120 10 -1 106
-4 213 -6 231 -4 300 -19 455 -97 102 -51 255 -146 255 -158 0 -4 -10 -12 -22
-17 -35 -15 -53 -60 -38 -96 27 -64 59 -64 269 5 353 116 509 123 775 34 229
-76 359 -183 456 -374 l29 -58 -26 -13 c-55 -29 -69 -81 -32 -127 29 -37 61
-34 182 18 201 86 475 166 567 166 143 0 312 -78 489 -225 51 -43 166 -184
208 -257 25 -42 53 -84 64 -93 31 -29 99 -31 155 -4 42 19 70 23 185 27 164 5
195 -3 294 -71 127 -87 123 -86 265 -77 156 11 187 3 258 -65 28 -28 52 -56
52 -62 0 -22 -89 -91 -146 -114 -52 -21 -76 -24 -199 -25 -163 0 -165 -1 -275
-101 -189 -171 -269 -211 -467 -232 -75 -9 -112 -8 -158 1 -55 12 -60 15 -58
38 9 110 8 111 -20 136 -16 13 -39 24 -51 24 -38 0 -75 -37 -82 -82 -17 -105
-156 -173 -407 -199 -63 -7 -174 -9 -256 -6 l-146 5 -35 -38 c-41 -43 -116
-72 -260 -100 -207 -40 -365 -33 -472 20 -56 29 -167 103 -168 113 0 9 70 73
116 106 42 30 58 68 45 104 -14 37 -54 60 -89 53 -16 -4 -97 -66 -189 -144
-95 -81 -196 -157 -245 -185 -196 -112 -599 -200 -808 -177 -161 17 -337 78
-481 166 -57 34 -63 36 -121 29 -33 -4 -81 -18 -107 -31 -25 -13 -84 -31 -129
-40 -71 -14 -102 -14 -201 -6 -120 11 -166 24 -303 82 -97 42 -122 35 -163
-47 -53 -104 -103 -161 -170 -193 -89 -43 -172 -60 -325 -67 -108 -4 -148 -2
-200 11 -109 28 -199 76 -268 144 -63 64 -91 74 -133 52 -10 -6 -26 -25 -35
-42 l-16 -31 -71 6 c-72 6 -262 63 -374 112 -72 32 -88 31 -126 -7 -34 -33
-173 -93 -302 -129 -121 -34 -398 -51 -620 -39 -337 18 -512 44 -656 96 -128
46 -260 127 -346 212 -22 22 -49 43 -61 46 -53 17 -115 -52 -93 -101 7 -14 10
-27 8 -30 -13 -13 -157 -33 -238 -33 -111 0 -210 22 -333 75 -45 19 -89 35
-98 35 -9 0 -35 -16 -57 -34 -101 -84 -286 -164 -511 -221 -173 -44 -305 -65
-400 -65 -71 0 -304 35 -400 60 -152 39 -373 128 -495 199 -78 46 -110 50
-147 21 -14 -11 -68 -34 -119 -51 -170 -57 -366 -50 -610 22 -92 27 -144 25
-220 -10 -185 -83 -356 -96 -579 -42 -74 17 -147 39 -162 46 -39 22 -58 19
-153 -27 -73 -35 -99 -42 -166 -46 -74 -4 -81 -3 -114 22 -41 31 -45 60 -19
145 11 39 23 57 47 72 74 45 169 53 217 17 42 -31 87 -28 118 7 18 22 23 36
19 61 -6 36 -11 33 135 90 249 97 364 110 506 56 87 -33 113 -32 142 3 20 24
17 80 -4 104 -10 11 -52 32 -94 47 -43 15 -80 30 -85 34 -18 16 84 231 165
345 57 81 141 170 198 210 100 69 315 112 505 101 285 -18 498 -77 679 -190
42 -26 86 -46 102 -46 56 0 92 67 64 119 -5 10 -33 33 -62 52 -29 18 -54 34
-56 35 -11 7 260 472 324 556 153 199 403 316 777 364 285 36 493 -15 735
-179 89 -61 124 -70 161 -39 11 9 24 32 27 49 6 28 2 37 -27 65 -19 18 -49 44
-68 58 l-34 26 59 32 c33 17 62 32 65 32 3 0 36 -53 73 -117z m1121 -850 c77
-25 188 -55 246 -69 141 -32 454 -80 604 -94 170 -15 610 -28 740 -23 l110 5
47 -50 c74 -79 86 -169 36 -269 -36 -71 -43 -70 -40 8 2 44 -1 75 -8 84 -21
26 -30 6 -30 -68 0 -76 -21 -138 -56 -168 -21 -18 -104 -49 -132 -49 -15 0
-17 9 -14 72 2 53 -1 78 -12 93 -23 32 -36 8 -26 -48 7 -33 6 -58 -3 -85 l-12
-37 -115 2 c-220 3 -1110 156 -1325 228 -226 75 -345 182 -345 312 0 47 26
165 49 225 l10 27 68 -26 c37 -14 131 -46 208 -70z m3102 -4 c74 -48 126 -106
149 -166 17 -43 17 -43 -12 -90 -16 -25 -33 -48 -39 -50 -6 -1 -11 19 -12 46
-2 57 -17 91 -40 91 -12 0 -14 -7 -8 -32 28 -131 19 -143 -125 -167 -58 -10
-106 -17 -108 -16 -2 2 4 17 13 35 9 17 19 53 22 81 5 41 3 49 -11 49 -9 0
-18 -6 -20 -12 -2 -7 -9 -35 -15 -63 -7 -30 -23 -61 -41 -79 l-29 -30 -168 -4
c-168 -4 -388 7 -579 29 l-102 12 -6 51 c-3 28 -16 72 -29 98 l-23 47 50 5
c28 3 128 12 221 21 395 38 642 90 785 166 49 26 57 24 127 -22z"/>
<path d="M7973 14227 c-45 -48 -64 -109 -88 -281 -19 -131 -20 -439 -2 -434 9
3 14 55 18 189 10 281 43 448 103 507 l34 35 46 -27 c72 -42 125 -113 217
-293 51 -100 93 -169 103 -171 9 -2 16 1 16 7 0 5 -41 89 -91 185 -96 185
-145 251 -218 298 -63 40 -90 37 -138 -15z"/>
<path d="M8450 13659 c0 -15 79 -129 90 -129 20 0 9 36 -26 87 -33 48 -64 69
-64 42z"/>
<path d="M8567 13494 c-3 -4 -2 -16 4 -26 13 -24 35 -9 26 16 -7 17 -19 21
-30 10z"/>
<path d="M7863 13444 c-8 -21 26 -311 39 -338 7 -12 13 -15 20 -8 7 7 5 52 -6
139 -9 70 -17 148 -19 172 -2 46 -22 66 -34 35z"/>
<path d="M7905 13028 c-11 -27 -1 -73 15 -73 20 0 24 45 6 70 -13 18 -15 18
-21 3z"/>
<path d="M8547 12813 c-15 -14 -6 -33 16 -33 29 0 51 15 43 29 -8 12 -49 15
-59 4z"/>
<path d="M8508 12659 c-38 -19 -46 -33 -29 -43 15 -10 101 32 101 49 0 20 -27
18 -72 -6z"/>
<path d="M8445 12526 c-47 -20 -81 -41 -83 -50 -5 -23 12 -20 108 17 51 20 85
39 85 48 0 24 -27 20 -110 -15z"/>
<path d="M8468 12384 c-32 -17 -37 -44 -9 -44 26 0 66 34 57 48 -9 15 -15 15
-48 -4z"/>
<path d="M8398 12212 c-47 -26 -63 -52 -33 -52 28 0 106 44 103 59 -5 23 -20
22 -70 -7z"/>
<path d="M8356 12047 c-17 -14 -26 -29 -22 -35 10 -16 86 23 86 43 0 22 -31
18 -64 -8z"/>
<path d="M6009 10344 c-170 -57 -359 -151 -359 -180 0 -22 15 -17 98 31 72 42
152 79 152 72 0 -2 -52 -48 -115 -101 -108 -92 -128 -117 -106 -131 9 -5 240
188 288 241 13 14 49 34 80 44 l58 20 -55 -49 c-43 -39 -52 -52 -43 -62 15
-15 32 -4 127 83 57 53 66 66 54 75 -11 10 -48 1 -179 -43z"/>
<path d="M5595 10120 c-7 -12 2 -30 16 -30 12 0 12 27 0 35 -5 3 -12 1 -16 -5z"/>
<path d="M5582 10019 c-31 -29 -35 -49 -8 -49 19 0 69 57 62 69 -11 16 -18 14
-54 -20z"/>
<path d="M5880 9141 c-45 -59 -54 -81 -34 -88 14 -5 116 126 108 138 -11 19
-31 6 -74 -50z"/>
<path d="M5664 9075 c-29 -36 -35 -48 -25 -58 10 -9 21 -3 52 32 21 24 39 50
39 57 0 27 -29 13 -66 -31z"/>
<path d="M5540 8962 c-122 -128 -133 -142 -115 -148 12 -5 39 15 101 77 46 46
84 89 84 96 0 25 -35 12 -70 -25z"/>
<path d="M5993 8784 c-32 -25 -44 -54 -22 -54 17 0 79 51 79 66 0 21 -21 17
-57 -12z"/>
<path d="M5690 8718 c-39 -49 -46 -73 -22 -73 12 0 92 91 92 105 0 4 -7 10
-15 13 -9 4 -29 -12 -55 -45z"/>
<path d="M10018 9849 c-42 -57 -49 -89 -19 -89 14 0 21 9 26 33 4 17 16 47 26
65 21 37 23 42 12 42 -5 0 -25 -23 -45 -51z"/>
<path d="M10095 9758 c-56 -10 -74 -23 -59 -38 6 -6 45 -3 114 10 58 11 117
20 132 20 16 0 28 5 28 10 0 12 -146 11 -215 -2z"/>
<path d="M8960 9533 c0 -3 7 -14 16 -24 8 -9 26 -43 39 -75 13 -32 29 -60 34
-62 19 -6 24 27 10 61 -21 51 -99 130 -99 100z"/>
<path d="M8650 9397 c-57 -20 -120 -53 -120 -62 0 -2 24 6 53 17 71 27 226 34
332 15 79 -15 111 -9 88 14 -17 17 -80 28 -188 34 -89 5 -107 3 -165 -18z"/>
<path d="M8225 8318 c-2 -7 -10 -113 -17 -236 -11 -172 -11 -226 -2 -233 8 -7
15 -6 20 2 9 15 37 447 30 466 -7 17 -25 17 -31 1z"/>
<path d="M8085 8278 c-2 -7 -13 -98 -25 -202 -15 -132 -18 -192 -11 -199 7 -7
14 -7 20 -1 12 11 55 379 47 399 -7 18 -25 20 -31 3z"/>
<path d="M8336 8244 c-3 -9 -6 -85 -6 -170 0 -124 3 -154 14 -154 19 0 26 53
26 208 0 106 -3 132 -14 132 -8 0 -17 -7 -20 -16z"/>
<path d="M8442 8238 c-18 -18 -16 -262 1 -277 8 -6 17 -8 20 -4 10 9 8 281 -1
287 -5 3 -14 0 -20 -6z"/>
<path d="M7937 8223 c-10 -16 -60 -284 -54 -289 20 -21 36 15 60 138 15 73 27
139 27 146 0 13 -26 17 -33 5z"/>
<path d="M8534 8195 c-9 -22 9 -128 22 -132 17 -6 20 14 16 85 -3 46 -8 62
-18 62 -8 0 -17 -7 -20 -15z"/>
<path d="M7816 8181 c-9 -14 -46 -134 -46 -148 0 -7 8 -13 18 -13 14 0 23 18
40 76 12 41 20 79 17 85 -8 11 -22 12 -29 0z"/>
<path d="M8987 6322 c-20 -22 -22 -42 -4 -42 20 0 57 30 57 46 0 20 -34 18
-53 -4z"/>
<path d="M10797 9394 c-6 -6 0 -199 9 -271 3 -28 10 -43 20 -43 11 0 14 19 14
93 0 179 -14 250 -43 221z"/>
<path d="M10715 9250 c-12 -20 5 -140 20 -140 21 0 23 10 16 79 -6 61 -21 86
-36 61z"/>
<path d="M10170 8779 c-96 -25 -208 -81 -251 -125 -26 -27 -34 -43 -34 -73 0
-52 24 -83 91 -121 57 -32 221 -80 274 -80 31 0 42 -11 58 -56 9 -28 6 -38
-25 -90 -19 -33 -64 -89 -100 -125 -37 -38 -62 -72 -59 -78 11 -16 21 -14 54
14 17 14 34 25 39 25 6 0 24 -22 41 -50 l31 -49 46 14 c26 7 54 20 63 28 10 8
35 20 58 26 22 6 49 20 59 31 17 19 17 22 -3 80 -11 33 -18 60 -15 60 3 0 29
-7 59 -16 31 -9 62 -13 69 -10 24 9 6 34 -28 41 -18 4 -79 25 -136 48 -126 49
-138 67 -121 170 15 95 11 234 -8 297 -17 52 -19 55 -52 57 -19 1 -69 -7 -110
-18z m243 -533 c28 -11 34 -22 51 -81 16 -57 17 -68 5 -76 -27 -18 -42 -3 -70
71 -28 75 -34 100 -24 100 3 0 20 -6 38 -14z m-53 -100 c12 -41 20 -81 17 -89
-3 -8 -19 -19 -36 -25 -30 -10 -32 -9 -61 33 l-31 44 37 56 c20 30 40 55 44
55 3 0 17 -33 30 -74z"/>
<path d="M10646 8607 c-10 -8 -15 -19 -11 -29 7 -17 21 -23 135 -53 36 -10
100 -35 143 -56 83 -42 104 -37 35 8 -45 29 -266 143 -278 143 -3 0 -14 -6
-24 -13z"/>
<path d="M9702 8341 c-17 -10 -58 -107 -86 -202 -49 -171 -44 -214 8 -68 14
41 49 112 76 158 26 46 46 89 43 96 -6 17 -27 25 -41 16z"/>
<path d="M9172 6262 c-36 -11 -31 -27 11 -30 32 -3 37 0 37 17 0 22 -8 24 -48
13z"/>
<path d="M11456 3693 c-9 -22 10 -41 25 -26 13 13 5 43 -10 43 -5 0 -12 -8
-15 -17z"/>
<path d="M6203 2030 c-117 -21 -217 -74 -313 -166 l-57 -54 -36 15 c-48 20
-93 19 -166 -4 -76 -24 -125 -60 -152 -113 -29 -57 -9 -74 24 -20 35 55 69 79
144 102 74 23 97 24 135 7 l27 -12 -54 -85 c-29 -46 -51 -88 -49 -92 11 -18
27 -4 71 65 68 106 106 150 187 212 128 98 259 133 432 115 198 -21 296 -87
374 -253 l39 -82 -57 -29 c-70 -35 -132 -83 -132 -102 0 -22 20 -16 58 17 128
113 286 108 415 -10 24 -23 49 -41 56 -41 24 0 9 30 -34 68 -63 55 -147 93
-221 99 -38 4 -61 10 -61 18 0 25 -75 162 -113 207 -49 56 -124 102 -206 123
-73 19 -242 27 -311 15z"/>
<path d="M12491 1820 c-97 -14 -196 -46 -293 -97 -96 -51 -208 -136 -208 -158
0 -25 20 -17 68 26 121 106 319 188 478 197 182 10 321 -43 440 -166 43 -44
74 -69 78 -63 4 6 -3 25 -15 42 l-22 32 34 28 c57 48 109 63 197 56 95 -6 176
-36 242 -88 55 -43 60 -45 60 -25 0 25 -88 93 -153 117 -52 20 -80 24 -173 24
-119 0 -109 3 -211 -71 -22 -16 -25 -15 -64 21 -45 41 -157 96 -229 113 -70
17 -159 21 -229 12z"/>
<path d="M15205 1344 c-42 -16 -107 -63 -140 -102 -22 -26 -91 -137 -98 -155
-3 -8 -13 -4 -28 10 -49 44 -129 73 -205 73 -64 0 -81 -4 -152 -40 -79 -40
-152 -106 -152 -137 0 -23 16 -14 47 25 18 22 62 55 105 78 67 36 79 39 153
39 70 0 87 -4 133 -29 29 -17 67 -45 83 -64 18 -20 36 -32 45 -28 11 4 12 9 3
24 -10 16 -7 28 15 69 53 96 110 158 177 192 72 36 120 39 212 15 132 -34 206
-94 259 -211 16 -35 33 -61 38 -58 17 11 11 35 -27 107 -37 71 -90 125 -154
158 -91 47 -236 63 -314 34z"/>
<path d="M13267 1169 c-120 -34 -214 -91 -292 -176 l-50 -55 -55 16 c-93 26
-203 37 -262 26 -70 -14 -148 -54 -193 -100 -53 -54 -35 -70 23 -21 106 88
204 108 363 77 91 -19 110 -29 91 -48 -7 -7 -12 -18 -12 -25 0 -28 28 -11 65
40 60 80 94 114 160 157 94 61 190 90 300 90 152 0 233 -30 353 -130 65 -54
72 -58 72 -36 0 24 -111 115 -185 152 -111 55 -258 67 -378 33z"/>
<path d="M4330 1126 c-36 -7 -82 -20 -104 -29 -53 -23 -165 -99 -199 -135 -50
-52 -11 -46 60 9 109 83 190 117 316 131 231 26 359 -23 479 -183 32 -44 55
-66 61 -60 6 6 1 25 -14 51 l-24 42 51 47 c29 26 69 56 89 65 120 57 265 14
321 -95 23 -47 37 -58 48 -41 10 17 -33 90 -77 128 -54 48 -102 64 -188 64
-79 0 -124 -20 -207 -89 l-63 -53 -53 50 c-61 58 -111 85 -184 101 -68 14
-228 13 -312 -3z"/>
<path d="M10824 941 c-128 -23 -216 -52 -318 -103 -97 -48 -216 -134 -216
-155 0 -21 15 -13 96 45 88 63 244 135 359 164 78 20 115 23 275 23 266 -1
452 -38 573 -115 52 -33 67 -37 67 -17 0 17 -84 72 -149 97 -77 30 -313 68
-461 74 -97 4 -148 2 -226 -13z"/>
<path d="M7096 13833 c-13 -104 -26 -298 -32 -488 -7 -255 17 -418 57 -378 8
8 7 22 -1 49 -25 86 -22 478 7 797 5 56 3 67 -9 67 -11 0 -17 -14 -22 -47z"/>
<path d="M6774 13625 c-15 -39 3 -220 31 -301 34 -103 62 -151 78 -135 8 8 5
25 -12 66 -42 102 -53 149 -60 264 -4 78 -10 116 -18 119 -7 2 -16 -4 -19 -13z"/>
<path d="M12264 11341 c-238 -72 -335 -167 -409 -403 -15 -48 -25 -94 -22
-103 10 -25 53 -40 81 -27 19 9 30 29 51 99 33 109 78 195 122 233 119 105
382 161 495 106 41 -20 113 -120 136 -187 26 -78 7 -220 -43 -318 -12 -25 -66
-113 -119 -196 -104 -162 -151 -263 -168 -357 -12 -68 -1 -90 47 -90 38 0 50
17 75 107 24 91 59 159 171 332 137 211 164 289 157 447 -3 76 -9 102 -34 156
-49 103 -103 164 -178 199 -59 29 -71 31 -167 30 -82 -1 -123 -7 -195 -28z"/>
<path d="M12380 9930 c-29 -29 -26 -76 6 -105 34 -32 58 -32 89 0 52 51 24
125 -46 125 -16 0 -38 -9 -49 -20z"/>
<path d="M13296 9825 c-102 -36 -130 -70 -88 -108 24 -22 32 -22 114 8 86 31
139 32 221 2 124 -45 215 -134 224 -221 15 -125 -82 -253 -257 -339 -52 -26
-140 -63 -195 -83 -157 -56 -285 -136 -285 -177 0 -55 53 -62 123 -17 74 47
139 77 245 116 178 64 258 110 347 199 104 104 129 153 133 266 4 100 -8 134
-81 215 -126 139 -336 198 -501 139z"/>
<path d="M12769 8791 c-35 -36 -36 -54 -4 -86 26 -27 46 -31 76 -14 45 23 40
96 -7 118 -33 15 -31 15 -65 -18z"/>
<path d="M5563 4548 c-96 -148 -170 -370 -192 -572 -5 -49 -7 -96 -4 -103 11
-29 28 -4 36 53 38 281 97 460 204 621 32 48 36 73 12 73 -5 0 -31 -33 -56
-72z"/>
<path d="M5666 4088 c-86 -101 -151 -240 -163 -350 -5 -49 -3 -58 10 -58 9 0
19 10 21 23 21 108 30 141 56 195 31 67 98 170 124 191 9 7 16 20 16 27 0 26
-29 14 -64 -28z"/>
</g>
</svg>
