<?xml version="1.0" standalone="no"?>
<!DOCTYPE svg PUBLIC "-//W3C//DTD SVG 20010904//EN"
 "http://www.w3.org/TR/2001/REC-SVG-20010904/DTD/svg10.dtd">
<svg version="1.0" xmlns="http://www.w3.org/2000/svg"
 width="1800.000000pt" height="1500.000000pt" viewBox="0 0 1800.000000 1500.000000"
 preserveAspectRatio="xMidYMid meet">

<g transform="translate(0.000000,1500.000000) scale(0.100000,-0.100000)"
fill="#000000" stroke="none">
<path d="M6520 14758 c-179 -63 -309 -200 -376 -398 -30 -88 -26 -308 10 -468
61 -278 104 -381 314 -762 69 -124 164 -297 212 -385 48 -88 146 -260 217
-382 138 -235 239 -448 378 -792 116 -288 149 -390 190 -591 19 -96 40 -185
45 -197 8 -18 -1 -29 -70 -87 -169 -143 -300 -320 -519 -701 -51 -88 -124
-224 -162 -302 -39 -79 -95 -180 -126 -225 -202 -298 -250 -372 -294 -463
-171 -351 -126 -679 152 -1096 145 -218 290 -341 512 -436 103 -44 111 -51 97
-88 -11 -30 -6 -61 16 -86 11 -12 11 -21 2 -47 -15 -39 -2 -83 30 -97 23 -10
29 -29 12 -40 -5 -3 -10 -19 -10 -35 0 -27 29 -61 63 -73 19 -7 -5 -40 -179
-244 -351 -412 -455 -548 -566 -743 -157 -277 -257 -575 -293 -873 -23 -194
-29 -212 -156 -474 -67 -136 -154 -318 -194 -403 -40 -85 -126 -263 -190 -395
-160 -328 -405 -834 -476 -983 -78 -164 -78 -199 4 -246 50 -28 168 -52 192
-39 23 13 82 -16 89 -44 8 -30 50 -56 86 -55 20 0 33 -7 45 -24 15 -24 15 -24
-13 -24 -58 0 -225 -50 -298 -89 -85 -46 -175 -111 -200 -144 l-17 -22 -93 47
c-232 120 -507 166 -677 114 -82 -26 -185 -87 -246 -145 -67 -65 -121 -137
-121 -161 0 -14 -15 -18 -100 -23 -122 -8 -212 -37 -309 -101 -90 -60 -241
-206 -241 -233 0 -15 -13 -26 -49 -41 -112 -46 -247 -160 -282 -237 -40 -87
-7 -217 75 -297 90 -87 389 -143 575 -108 50 9 53 9 109 -29 80 -54 167 -96
275 -133 82 -28 108 -32 236 -36 189 -6 304 10 342 47 l26 27 74 -80 c81 -87
171 -151 278 -196 115 -49 191 -63 341 -63 156 1 268 25 404 87 43 20 80 36
81 36 2 0 5 -8 8 -19 5 -21 78 -58 193 -97 67 -23 100 -28 219 -32 158 -4 276
14 396 62 36 14 71 26 77 26 7 0 33 -15 59 -34 146 -104 389 -183 594 -193
165 -9 379 35 483 98 40 24 43 24 50 -6 8 -33 116 -119 201 -160 110 -52 191
-69 335 -68 151 1 243 22 375 87 108 54 135 77 135 116 0 17 2 30 5 30 3 0 31
-13 63 -29 85 -43 238 -97 317 -112 101 -20 357 -17 468 4 96 20 235 66 312
104 42 21 189 115 230 147 7 5 42 -12 95 -47 120 -77 234 -132 374 -180 115
-39 127 -41 236 -40 139 0 238 24 348 83 82 45 216 136 272 186 l35 31 75 -9
c135 -16 276 11 395 77 55 30 62 32 86 19 40 -20 221 -69 332 -89 128 -23 336
-17 449 13 190 51 351 146 500 295 l90 90 37 -11 c210 -61 517 -24 681 83 24
16 27 15 106 -38 161 -108 315 -156 519 -164 246 -9 378 37 521 182 127 128
152 221 84 320 -59 85 -140 139 -230 151 -47 6 -59 13 -114 68 -125 123 -235
167 -477 191 -90 8 -184 15 -210 15 -41 0 -50 4 -73 34 -44 58 -128 136 -187
175 -98 65 -310 121 -453 121 -62 0 -280 -30 -391 -53 l-60 -13 -64 69 c-89
95 -175 153 -345 231 -196 89 -283 110 -446 103 -98 -3 -142 -10 -205 -30 -43
-15 -81 -25 -82 -23 -2 2 -12 35 -23 75 -55 197 -186 419 -332 563 -97 96
-261 210 -403 282 -84 42 -259 106 -291 106 -12 0 -13 12 -7 67 4 38 8 163 7
278 0 208 -15 360 -50 529 -8 38 -13 71 -11 73 2 2 42 8 88 14 156 19 248 82
309 210 44 93 56 180 42 302 -40 336 -228 872 -444 1262 -111 201 -347 530
-542 758 -42 49 -76 95 -76 104 0 16 -48 99 -112 195 -42 63 -44 68 -24 68 32
0 240 76 341 125 164 80 258 146 371 261 239 242 364 473 396 731 18 149 -8
313 -77 488 -86 217 -170 363 -319 548 -93 117 -200 281 -305 472 -248 448
-382 638 -547 776 l-42 34 25 115 c66 309 104 422 280 825 126 289 216 464
356 691 58 94 148 245 200 335 51 90 156 272 232 404 210 364 273 510 323 745
63 296 47 466 -57 626 -106 164 -320 289 -460 269 -124 -17 -302 -98 -456
-208 -422 -301 -631 -549 -845 -1001 -77 -164 -116 -268 -209 -556 -145 -449
-201 -684 -291 -1217 -52 -312 -66 -415 -86 -670 l-5 -61 -132 -6 c-73 -3
-224 -8 -335 -12 -201 -5 -204 -5 -197 15 27 87 -109 1008 -210 1421 -72 293
-176 640 -262 875 -68 186 -241 527 -338 665 -214 305 -619 637 -891 730 -91
32 -159 34 -234 8z m240 -145 c117 -51 168 -82 288 -172 364 -275 544 -502
742 -939 92 -204 236 -646 315 -967 108 -444 207 -1040 239 -1437 l5 -68 -72
0 -73 0 -18 133 c-55 411 -163 979 -236 1236 -21 75 -63 199 -93 276 -30 77
-71 185 -90 240 -56 160 -252 622 -397 938 -13 27 -34 35 -45 17 -4 -6 11 -50
33 -98 89 -196 238 -545 296 -696 87 -224 156 -410 156 -422 0 -5 -18 -28 -40
-49 -27 -26 -37 -42 -30 -49 7 -7 21 1 44 23 19 18 39 31 44 27 5 -3 15 -26
22 -51 12 -44 12 -46 -14 -66 -14 -11 -26 -25 -26 -30 0 -14 26 -11 40 6 7 8
16 15 20 15 7 0 40 -83 40 -100 0 -4 -25 -24 -56 -44 -38 -26 -53 -41 -46 -48
7 -7 25 0 55 21 25 17 48 31 50 31 9 0 28 -93 20 -100 -4 -4 -42 -33 -83 -66
-95 -74 -192 -171 -252 -252 l-47 -63 -14 34 c-31 73 -33 66 73 187 55 63 100
118 100 122 0 21 -26 0 -111 -92 -52 -55 -96 -100 -99 -100 -4 0 -23 44 -43
98 -20 53 -39 105 -42 114 -5 13 10 35 51 78 37 39 54 64 48 70 -6 6 -27 -8
-59 -40 -27 -28 -53 -50 -57 -50 -8 0 -48 87 -48 105 0 8 41 51 90 97 50 47
90 87 90 91 0 22 -37 -2 -113 -73 l-86 -81 -22 43 -22 42 77 73 c71 69 89 93
67 93 -5 0 -43 -32 -85 -71 l-75 -70 -20 39 -20 40 24 16 c26 17 33 36 13 36
-6 0 -20 -8 -31 -17 -11 -10 -22 -13 -23 -8 -2 6 -45 79 -94 163 -82 137 -120
181 -120 137 0 -8 46 -95 101 -192 118 -206 233 -436 282 -566 164 -433 237
-657 331 -1017 19 -74 42 -157 51 -185 18 -60 18 -65 4 -65 -6 0 -38 -16 -71
-36 -34 -19 -64 -31 -68 -27 -4 4 -19 73 -34 151 -44 227 -101 393 -288 832
-111 263 -183 405 -321 637 -52 87 -142 244 -200 348 -57 105 -148 269 -202
365 -202 362 -258 496 -311 755 -61 294 -22 474 130 611 28 26 78 60 111 76
52 25 68 29 120 24 34 -3 88 -17 125 -33z m4418 -3 c83 -44 166 -130 207 -215
68 -138 68 -268 -1 -548 -57 -233 -81 -282 -382 -802 -179 -309 -229 -394
-407 -686 -103 -168 -169 -300 -295 -585 -171 -387 -233 -563 -280 -795 -12
-58 -25 -111 -29 -118 -6 -9 -30 0 -85 30 -43 23 -80 47 -82 53 -6 15 53 213
112 379 73 207 372 886 506 1152 39 77 100 186 135 243 35 56 61 107 58 112
-14 23 -36 6 -81 -65 -26 -41 -51 -75 -55 -75 -3 0 -12 7 -19 15 -7 8 -16 15
-21 15 -16 0 -10 -26 10 -44 19 -17 19 -18 -1 -52 -11 -19 -23 -34 -27 -34 -4
0 -31 29 -61 65 -51 64 -86 92 -98 81 -3 -4 8 -21 25 -39 17 -17 51 -58 77
-90 l46 -58 -20 -39 c-19 -37 -40 -53 -40 -31 0 13 -160 181 -171 181 -20 0
-6 -26 45 -79 29 -31 70 -75 90 -97 l36 -41 -27 -61 c-16 -34 -30 -61 -33 -62
-3 0 -27 29 -53 65 -27 36 -55 65 -63 65 -19 0 -18 -14 2 -31 25 -21 94 -126
94 -144 0 -31 -39 -95 -55 -89 -9 4 -15 0 -15 -9 0 -8 5 -17 11 -19 7 -2 2
-23 -15 -56 l-27 -53 -52 73 c-102 142 -131 178 -144 178 -7 0 -13 -3 -13 -6
0 -3 43 -64 95 -136 52 -72 95 -137 95 -145 0 -8 -10 -37 -21 -64 l-22 -49
-45 81 c-54 95 -175 242 -261 317 -34 29 -61 59 -61 66 0 8 7 30 15 51 l16 37
44 -36 c24 -20 48 -36 54 -36 23 0 9 20 -39 57 -54 41 -55 47 -24 122 l14 34
23 -21 c23 -21 47 -29 47 -15 0 4 -14 21 -30 38 l-30 31 16 47 c9 26 19 49 24
52 4 3 24 -15 45 -40 20 -25 41 -45 46 -45 20 0 7 28 -37 75 l-45 50 32 85
c17 47 75 175 127 285 96 204 109 240 82 240 -32 0 -227 -429 -331 -730 -33
-93 -87 -243 -120 -333 -86 -232 -105 -288 -150 -457 -76 -279 -101 -394 -152
-710 l-13 -80 -65 0 -64 0 2 85 c3 124 18 226 84 605 108 607 173 869 333
1342 186 547 396 899 692 1154 255 221 462 350 629 393 49 12 134 -2 193 -34z
m-1325 -2383 c89 -89 197 -234 226 -304 7 -18 19 -33 26 -33 11 0 10 -9 -2
-40 -9 -22 -19 -40 -24 -40 -4 0 -20 21 -35 48 -56 97 -109 160 -221 267
l-115 110 17 43 c10 23 21 42 25 42 5 0 51 -42 103 -93z m-1894 -61 c6 -25 11
-47 11 -50 0 -2 -46 -40 -102 -84 -100 -77 -180 -154 -245 -237 -35 -44 -41
-43 -49 6 -4 29 2 43 45 99 27 36 73 90 103 121 53 55 208 188 219 189 4 0 12
-20 18 -44z m1975 -200 c28 -39 67 -96 86 -126 19 -30 38 -58 43 -61 5 -4 0
-23 -10 -44 l-20 -37 -58 83 c-32 46 -114 140 -181 209 -68 69 -124 129 -124
133 0 4 7 24 15 43 l15 36 90 -83 c50 -46 115 -115 144 -153z m-1945 42 c1
-22 -13 -38 -81 -91 -46 -35 -127 -110 -182 -167 -74 -78 -100 -99 -107 -89
-21 34 -8 68 55 146 77 94 116 132 221 212 76 58 80 60 87 38 3 -12 6 -34 7
-49z m1788 -40 c110 -112 233 -275 233 -310 0 -19 -57 -166 -71 -181 -3 -5
-21 17 -40 49 -18 32 -78 114 -133 183 -140 175 -156 198 -156 223 0 26 16 55
25 47 3 -4 18 -22 33 -41 15 -20 70 -89 123 -154 52 -66 110 -141 128 -167 22
-33 37 -45 43 -39 7 7 -1 26 -22 59 -56 81 -284 364 -301 371 -8 3 11 72 20
72 4 0 57 -51 118 -112z m-1767 -61 c0 -27 -19 -51 -133 -167 -73 -74 -149
-154 -170 -177 -20 -24 -38 -43 -40 -43 -2 0 -9 18 -16 41 -15 50 -13 54 101
174 93 98 235 218 249 209 5 -3 9 -19 9 -37z m1712 -188 c147 -184 203 -279
192 -324 -4 -14 -10 -25 -15 -23 -5 2 -54 68 -111 148 -219 311 -210 297 -202
333 l7 32 21 -29 c11 -16 60 -78 108 -137z m-1688 90 c5 -28 -1 -39 -63 -108
-38 -42 -95 -101 -126 -131 -32 -30 -77 -81 -101 -113 l-44 -59 -10 27 c-16
43 -12 55 38 114 63 75 283 301 292 301 4 0 10 -14 14 -31z m1593 -107 c28
-42 99 -144 156 -226 l104 -150 -26 -78 c-14 -43 -28 -78 -32 -78 -3 0 -46 62
-95 138 -49 75 -117 175 -151 220 -63 83 -63 84 -53 124 l11 39 18 -23 c10
-13 76 -108 146 -213 70 -104 131 -191 136 -193 36 -14 -21 83 -199 335 -77
109 -92 136 -86 157 3 14 9 26 13 26 3 0 29 -35 58 -78z m-1577 19 c0 -5 2
-16 6 -24 3 -8 -21 -45 -58 -89 -170 -204 -261 -308 -268 -308 -4 0 -10 12
-13 28 -8 40 43 112 192 268 121 127 141 145 141 125z m20 -113 c0 -27 -16
-52 -81 -128 -45 -52 -115 -137 -157 -189 -64 -80 -77 -91 -83 -75 -4 10 -8
24 -8 30 -1 6 52 74 117 150 64 77 137 163 160 192 24 28 46 52 48 52 2 0 4
-15 4 -32z m1581 -230 c179 -270 171 -256 158 -295 l-11 -34 -17 23 c-9 13
-50 79 -90 148 -40 69 -99 163 -132 209 -51 72 -59 88 -53 114 6 28 7 29 24
11 10 -11 64 -90 121 -176z m-1561 115 c0 -28 -10 -46 -47 -87 -27 -29 -93
-108 -147 -177 -55 -68 -103 -128 -107 -133 -4 -5 -12 7 -17 25 -8 31 -5 39
42 99 126 161 260 319 268 314 4 -3 8 -21 8 -41z m1458 -95 c42 -64 134 -217
214 -358 29 -51 25 -82 -8 -70 -13 5 -46 54 -87 132 -37 67 -96 161 -131 208
-35 47 -62 89 -61 95 2 5 6 22 9 38 4 15 8 27 11 27 2 0 26 -33 53 -72z
m-1438 -9 c0 -11 -31 -57 -68 -102 -38 -45 -103 -131 -146 -190 -43 -60 -82
-105 -86 -100 -31 32 -14 62 139 253 135 170 161 192 161 139z m1418 -114 c69
-94 158 -265 138 -265 -19 0 -206 281 -206 310 0 34 18 22 68 -45z m-1408 26
c0 -11 3 -26 6 -34 3 -10 -18 -41 -58 -85 -35 -38 -86 -102 -113 -141 -34 -50
-60 -77 -84 -87 -19 -8 -36 -12 -39 -10 -10 10 262 376 280 376 4 0 8 -9 8
-19z m1405 -151 c36 -55 65 -104 65 -109 0 -5 -8 -7 -17 -4 -34 9 -146 213
-117 213 2 0 33 -45 69 -100z m-1392 6 c-29 -51 -123 -157 -145 -165 -16 -5
-28 -7 -28 -3 0 14 67 107 115 160 40 44 50 51 57 38 5 -9 5 -22 1 -30z m1349
-47 l38 -60 -43 3 -42 3 -3 58 c-2 31 1 57 5 57 4 0 25 -27 45 -61z m-1356
-58 c-15 -21 -36 -41 -47 -44 -26 -7 -24 -1 18 54 45 60 71 51 29 -10z m1269
-121 c148 -14 208 -32 338 -97 407 -204 492 -302 890 -1021 75 -135 197 -319
282 -423 131 -160 206 -290 289 -502 89 -226 96 -404 23 -617 -44 -129 -107
-232 -227 -373 -136 -159 -238 -239 -422 -327 -78 -38 -372 -140 -404 -140
-22 0 -54 -38 -54 -64 0 -14 11 -38 25 -54 13 -16 49 -69 79 -118 l55 -89 -22
-14 c-12 -7 -65 -67 -117 -133 -114 -143 -307 -335 -410 -407 -116 -81 -253
-155 -390 -210 -69 -28 -132 -51 -140 -51 -9 0 -33 34 -57 83 -58 113 -141
244 -230 360 -40 53 -71 102 -68 108 4 5 86 76 184 158 l177 148 74 7 c77 8
262 44 362 70 56 15 193 79 233 109 33 25 12 29 -81 13 -49 -9 -152 -20 -229
-26 -77 -6 -169 -15 -205 -21 -36 -5 -190 -14 -343 -19 -295 -10 -406 -7 -866
31 -140 11 -268 18 -285 17 -30 -4 -30 -5 24 -30 56 -28 225 -77 338 -99 53
-10 67 -17 89 -46 32 -42 191 -176 291 -245 39 -28 72 -56 72 -62 0 -7 -28
-50 -62 -97 -78 -105 -174 -262 -229 -371 -23 -45 -42 -84 -43 -85 -5 -6 -194
73 -279 116 -234 119 -432 287 -617 524 -21 27 -21 27 -1 27 31 0 54 41 45 84
-5 32 -4 36 14 36 31 0 45 25 39 68 -4 25 -1 43 8 56 21 27 19 58 -5 84 -19
20 -18 52 1 52 18 0 49 41 49 64 0 37 -41 63 -113 71 -34 4 -99 16 -145 27
-70 18 -83 24 -88 44 -4 14 -15 31 -27 39 -18 13 -19 17 -6 47 17 41 13 75
-10 108 -18 25 -18 27 0 49 28 35 24 85 -10 123 l-28 32 19 33 c17 28 18 37 8
68 -7 20 -23 43 -36 52 l-25 16 23 24 c30 32 31 95 1 124 l-21 21 20 34 c24
41 17 85 -17 112 l-24 19 29 28 c42 40 38 107 -7 140 -12 9 -9 15 12 35 l25
24 58 -56 c31 -30 78 -69 103 -86 209 -140 515 -164 768 -59 l73 30 54 -17
c30 -9 59 -14 64 -11 21 13 9 37 -26 51 l-36 15 29 21 c97 73 180 190 215 301
12 40 30 82 41 94 11 12 55 33 105 48 81 25 96 27 222 23 119 -4 140 -8 179
-29 63 -34 73 -47 99 -119 13 -36 35 -85 49 -110 35 -60 134 -162 195 -201 53
-34 53 -40 -4 -59 -45 -14 -55 -27 -37 -45 12 -12 23 -11 74 6 68 23 94 21
215 -11 66 -17 112 -22 205 -22 188 0 340 47 475 148 53 40 79 51 145 66 l80
17 -63 -2 c-59 -2 -75 4 -51 19 18 11 76 107 103 172 14 33 46 94 71 135 25
41 45 80 45 86 0 21 -37 11 -50 -14 -7 -14 -16 -25 -20 -25 -4 0 -10 29 -14
66 -6 62 -39 168 -57 188 -16 17 -10 25 26 32 19 3 35 10 35 14 0 4 -24 14
-54 23 -41 11 -64 26 -97 62 -91 98 -227 177 -373 214 -110 29 -291 29 -402 1
-292 -76 -494 -284 -520 -536 -4 -35 -7 -64 -8 -64 0 0 -37 7 -81 15 -110 22
-259 22 -388 0 -59 -10 -111 -15 -114 -11 -4 3 -10 30 -14 59 -32 230 -221
422 -496 503 -76 22 -107 26 -223 26 -116 0 -147 -4 -223 -26 -135 -40 -246
-104 -327 -187 -24 -25 -53 -42 -92 -53 -55 -16 -78 -36 -40 -36 9 0 23 -4 31
-9 12 -8 12 -13 -2 -35 -31 -47 -77 -203 -77 -262 0 -22 -21 -80 -57 -155 -42
-89 -53 -123 -45 -131 18 -18 35 3 77 94 l39 82 12 -35 c17 -48 17 -79 -1 -79
-8 0 -29 -13 -46 -28 -24 -22 -31 -36 -31 -65 0 -21 7 -48 15 -60 13 -21 13
-25 -9 -50 -13 -16 -24 -37 -24 -48 0 -29 27 -77 50 -89 18 -10 18 -11 -6 -35
-31 -31 -33 -89 -3 -121 20 -21 20 -24 5 -46 -25 -36 -21 -94 10 -125 23 -22
24 -27 10 -42 -29 -32 -37 -69 -22 -105 8 -19 22 -38 32 -44 16 -9 16 -11 -4
-37 -29 -36 -28 -84 2 -127 21 -32 22 -37 9 -62 -18 -34 -9 -80 20 -106 40
-37 8 -32 -85 15 -169 84 -266 175 -392 365 -158 238 -218 402 -220 605 -1
143 19 227 91 373 46 94 250 415 277 436 8 6 48 81 89 166 124 262 374 678
501 836 136 170 345 334 513 404 190 79 313 94 903 110 217 6 404 12 415 14
43 7 125 6 230 -4z m623 -1341 c99 -26 185 -67 261 -125 74 -56 89 -79 45 -72
-216 38 -233 40 -359 34 -71 -3 -157 -12 -190 -21 -76 -20 -190 -74 -233 -110
-33 -27 -68 -83 -59 -92 3 -2 27 8 54 22 161 91 370 121 691 102 214 -13 199
-7 233 -97 55 -146 49 -249 -27 -399 -62 -124 -104 -171 -160 -177 -22 -2
-127 -13 -234 -25 -209 -22 -431 -52 -505 -69 -52 -12 -89 3 -181 70 -267 198
-296 549 -64 780 80 79 152 123 267 162 145 51 312 57 461 17z m-2048 -26
c173 -43 331 -154 418 -294 90 -147 86 -365 -10 -508 -41 -61 -113 -136 -166
-173 l-42 -29 -73 15 c-105 23 -402 63 -637 87 -113 11 -215 22 -227 24 -23 5
-93 101 -93 127 0 9 20 59 45 112 50 109 51 112 30 120 -11 4 -26 -16 -55 -74
-22 -44 -44 -80 -49 -80 -19 0 -24 107 -7 155 11 35 13 51 4 64 -14 22 10 98
50 162 l28 44 185 12 c303 18 528 -14 678 -97 30 -17 56 -28 58 -26 2 2 -4 20
-14 40 -10 23 -37 50 -69 71 -112 75 -212 103 -394 111 -119 6 -176 1 -340
-32 -33 -7 -34 -6 -20 10 39 48 191 130 290 157 116 31 287 32 410 2z m-870
-828 c15 -19 6 -61 -16 -69 -38 -15 -62 52 -26 73 23 14 27 13 42 -4z m350
-109 c167 -28 610 -96 623 -96 18 0 5 -19 -20 -28 -113 -45 -338 -58 -466 -28
-87 20 -199 72 -270 125 -66 48 -80 67 -46 58 13 -3 94 -17 179 -31z m2785
-22 c-42 -32 -135 -74 -216 -95 -102 -28 -313 -31 -389 -7 l-45 15 50 8 c28 4
172 27 320 50 319 50 306 49 280 29z m-3123 -49 c22 -49 -45 -78 -76 -33 -21
30 -4 58 35 58 22 0 32 -6 41 -25z m-14 -164 c8 -4 12 -19 10 -32 -2 -19 -9
-24 -33 -24 -33 0 -45 25 -25 50 14 17 29 19 48 6z m20 -168 c13 -24 -3 -63
-26 -63 -22 0 -42 19 -42 40 0 38 52 55 68 23z m18 -188 c11 -43 -34 -73 -64
-43 -27 27 -6 68 35 68 16 0 24 -7 29 -25z m15 -156 c14 -14 18 -27 13 -42
-15 -51 -52 -63 -78 -25 -21 30 -20 44 4 68 25 25 35 25 61 -1z m7 -171 c32
-32 -3 -88 -41 -67 -30 17 -16 79 18 79 6 0 16 -5 23 -12z m60 -344 c4 -27
-21 -47 -48 -39 -20 6 -28 44 -13 59 15 15 58 1 61 -20z m135 0 c26 -3 47 -10
47 -14 0 -4 -22 -45 -50 -91 -72 -123 -66 -116 -80 -103 -8 8 -9 14 -1 18 15
10 14 66 -3 97 -8 16 -10 32 -5 40 5 8 9 27 9 42 0 22 4 27 18 23 9 -3 38 -8
65 -12z m157 -99 c13 -16 6 -35 -15 -35 -18 0 -28 17 -21 35 7 19 20 19 36 0z
m-292 -17 c18 -18 15 -46 -6 -57 -13 -7 -23 -6 -30 1 -16 16 -15 55 1 61 19 8
22 8 35 -5z m272 -83 c7 -8 10 -22 6 -30 -8 -22 -46 -1 -46 25 0 24 22 26 40
5z m1049 -24 c10 -6 10 -10 1 -16 -7 -4 -19 0 -28 9 -14 13 -14 16 -2 16 8 0
21 -4 29 -9z m79 -31 c-22 -31 -42 -38 -53 -19 -10 16 25 49 52 49 l24 0 -23
-30z m102 25 c0 -13 -66 -95 -76 -95 -26 0 -25 21 3 60 18 26 36 40 51 40 12
0 22 -2 22 -5z m80 0 c0 -2 -21 -36 -46 -76 -41 -63 -48 -69 -61 -56 -16 16
-16 15 62 123 9 13 45 20 45 9z m74 -7 c-5 -7 -20 -33 -35 -56 -15 -24 -26
-49 -23 -56 6 -14 -53 -59 -66 -51 -21 13 83 175 112 175 13 0 17 -4 12 -12z
m52 -15 c-15 -29 -66 -82 -66 -69 0 19 53 96 66 96 13 0 13 -4 0 -27z m-1668
-25 c-3 -7 -11 -13 -18 -13 -7 0 -15 6 -17 13 -3 7 4 12 17 12 13 0 20 -5 18
-12z m181 -32 c13 -16 4 -46 -14 -46 -19 0 -38 28 -31 45 7 19 30 19 45 1z
m-93 -37 c3 -6 0 -18 -9 -26 -18 -18 -37 -9 -37 18 0 21 34 27 46 8z m3173
-269 c388 -512 545 -807 724 -1355 80 -246 110 -393 111 -541 1 -84 -2 -95
-34 -160 -31 -62 -41 -72 -90 -97 -66 -33 -198 -45 -191 -17 2 8 12 52 23 97
12 45 18 89 14 99 -10 25 -15 15 -37 -76 -10 -45 -23 -88 -27 -96 -5 -9 -20
22 -41 89 -36 110 -99 269 -157 396 -40 87 -72 114 -113 92 -38 -21 -35 -50
25 -196 72 -178 86 -217 139 -402 83 -286 109 -472 109 -768 -1 -483 -86 -846
-247 -1060 -49 -66 -167 -188 -174 -181 -2 2 9 48 26 102 115 376 134 880 50
1303 -70 350 -228 704 -439 982 -84 109 -263 289 -366 366 -585 436 -1291 436
-1879 0 -111 -82 -306 -283 -391 -402 -252 -352 -380 -685 -450 -1165 -21
-141 -24 -492 -6 -630 19 -139 69 -383 97 -475 14 -44 25 -81 25 -82 0 -12
-33 5 -94 47 -140 97 -277 255 -324 375 -57 145 -88 434 -72 673 26 379 182
985 365 1412 42 98 44 124 10 146 -58 38 -98 -23 -222 -341 -66 -168 -78 -182
-109 -122 -10 17 -20 59 -23 91 -4 38 -11 61 -20 64 -20 7 -10 -122 13 -165
l16 -33 -27 -7 c-16 -5 -66 -8 -113 -8 -72 0 -93 4 -135 27 -69 36 -102 69
-131 132 -89 196 -22 571 176 981 83 172 188 332 351 535 69 85 181 225 250
310 68 85 134 168 146 185 12 16 23 28 25 25 292 -374 551 -570 928 -701 52
-18 106 -38 119 -45 16 -9 31 -9 51 -2 24 8 35 26 71 110 37 89 74 155 237
421 43 70 34 77 156 -116 101 -159 155 -258 186 -337 12 -30 29 -63 37 -72 17
-19 73 -24 89 -9 5 5 59 26 121 46 141 45 380 165 503 252 115 82 324 289 440
436 l85 108 39 -43 c21 -24 91 -113 155 -198z m-1408 -1166 c416 -71 772 -302
1057 -684 182 -244 308 -521 391 -862 58 -236 74 -402 68 -678 -6 -252 -19
-350 -76 -580 -44 -172 -74 -262 -96 -280 -8 -7 -15 -27 -15 -46 0 -55 48 -86
100 -64 34 14 93 4 370 -65 217 -53 273 -74 350 -131 75 -55 102 -102 80 -141
-21 -36 -36 -39 -44 -8 -8 32 -98 125 -121 125 -25 0 -17 -15 25 -49 38 -31
80 -95 80 -123 0 -8 -13 -22 -30 -31 -28 -17 -134 -57 -150 -57 -4 0 -13 19
-19 43 -12 48 -46 107 -61 107 -14 0 -13 -1 15 -62 40 -85 36 -95 -37 -103
-181 -21 -392 1 -725 75 -337 75 -657 220 -604 273 12 12 14 56 3 73 -19 28
-47 32 -105 14 -117 -36 -221 -45 -532 -44 -198 0 -367 6 -498 18 -109 9 -207
14 -217 11 -31 -10 -44 -42 -30 -75 13 -32 0 -91 -27 -122 -37 -42 -198 -90
-548 -162 -314 -65 -477 -83 -651 -71 -74 5 -104 11 -104 20 0 7 16 45 36 84
20 40 33 75 30 78 -13 13 -47 -33 -72 -99 l-28 -69 -40 6 c-60 10 -145 35
-151 45 -9 15 26 104 51 131 27 29 30 39 10 39 -20 0 -63 -54 -71 -90 -4 -16
-11 -32 -16 -36 -18 -11 -21 27 -7 79 13 47 19 55 64 79 74 42 188 76 367 113
l162 33 48 54 c26 29 50 62 53 74 9 34 -13 63 -61 84 l-44 19 -35 113 c-172
551 -152 1198 54 1726 123 315 338 636 551 822 268 234 508 347 849 403 69 11
314 6 401 -9z m-2947 -1027 c-48 -100 -134 -279 -192 -397 -57 -118 -130 -269
-162 -335 -31 -66 -87 -181 -123 -255 -35 -74 -129 -268 -207 -430 -78 -162
-146 -299 -151 -305 -10 -10 82 188 261 565 56 118 142 298 190 400 48 102
139 291 202 420 63 129 148 304 188 389 41 84 76 148 78 142 2 -7 -36 -94 -84
-194z m336 16 c0 -3 -11 -56 -25 -117 -43 -194 -123 -572 -179 -851 -48 -236
-122 -594 -228 -1097 -17 -82 -35 -148 -39 -148 -5 0 -9 2 -9 5 0 10 440 2201
445 2212 4 12 35 8 35 -4z m270 -7 c0 -8 -4 -26 -10 -40 -18 -48 -90 -335
-114 -458 -73 -363 -78 -716 -15 -990 l21 -88 -84 -89 c-301 -321 -463 -488
-466 -480 -2 5 37 204 87 441 50 238 138 660 197 938 58 278 116 560 129 627
13 68 26 127 29 131 3 5 29 7 58 5 29 -2 73 0 98 5 64 14 70 14 70 -2z m-450
-462 c-142 -717 -332 -1658 -335 -1662 -2 -2 -31 11 -65 28 -46 23 -60 35 -56
48 5 18 112 423 201 762 30 113 96 367 149 565 52 198 113 432 136 520 49 192
51 198 56 193 2 -2 -37 -206 -86 -454z m-184 251 c-40 -94 -113 -260 -161
-370 -48 -110 -125 -285 -170 -390 -78 -178 -194 -445 -299 -684 -25 -58 -49
-108 -53 -112 -11 -11 -93 -29 -93 -20 0 3 89 191 198 416 497 1029 646 1335
648 1332 2 -2 -30 -79 -70 -172z m179 63 c-4 -18 -54 -211 -111 -428 -58 -217
-120 -453 -139 -525 -19 -71 -51 -191 -70 -265 -19 -74 -44 -169 -55 -210 -11
-41 -40 -151 -65 -245 -25 -93 -48 -177 -53 -186 -6 -14 -12 -14 -55 -1 -27 7
-51 20 -53 27 -5 13 595 1865 604 1865 2 0 1 -15 -3 -32z m-134 -224 c-16 -49
-109 -332 -206 -629 -97 -297 -203 -621 -236 -721 l-60 -180 -30 4 c-16 2 -32
8 -35 13 -3 5 33 112 79 237 103 276 286 769 397 1067 115 312 112 306 117
301 2 -2 -9 -44 -26 -92z m-245 -490 c-70 -187 -177 -475 -239 -641 l-112
-303 -42 0 c-24 0 -43 4 -43 9 0 8 39 99 302 701 49 113 125 289 170 393 45
103 83 185 85 183 2 -2 -52 -156 -121 -342z m5244 -379 c251 -86 535 -295 666
-491 30 -45 72 -119 93 -165 38 -81 91 -243 91 -278 0 -10 -17 -27 -39 -39
-54 -30 -66 -68 -34 -104 24 -27 54 -22 140 21 43 22 114 52 158 67 73 26 93
28 220 28 161 1 181 -5 381 -100 143 -68 219 -120 300 -207 93 -98 96 -100
185 -83 181 35 385 58 453 51 93 -9 242 -47 302 -78 67 -34 144 -105 213 -196
31 -42 65 -78 76 -80 11 -2 34 5 51 14 31 16 41 16 201 0 97 -9 193 -25 228
-37 106 -35 209 -114 255 -196 30 -53 70 -71 105 -48 37 24 82 7 135 -50 45
-49 45 -60 8 -121 -28 -46 -111 -116 -175 -148 -82 -40 -198 -59 -318 -51
-161 9 -312 59 -447 145 -76 49 -77 49 -150 47 -54 -2 -87 -10 -129 -29 -164
-78 -373 -92 -570 -37 -25 7 -58 10 -73 6 -16 -4 -69 -49 -129 -110 -210 -211
-409 -299 -682 -300 -149 0 -298 25 -442 75 -135 46 -132 46 -210 1 -105 -62
-163 -75 -312 -70 -148 5 -154 3 -311 -112 -105 -77 -196 -128 -280 -156 -42
-15 -83 -19 -175 -19 -115 1 -125 3 -230 42 -177 65 -372 172 -416 227 -33 42
-65 35 -150 -33 -147 -119 -314 -193 -509 -227 -126 -22 -341 -15 -453 15 -99
26 -264 98 -372 161 -46 28 -95 50 -109 50 -26 0 -56 -32 -56 -60 0 -18 38
-56 92 -92 l38 -25 -88 -45 c-119 -63 -207 -88 -327 -95 -169 -9 -326 40 -435
137 l-45 40 35 26 c78 61 220 210 220 233 0 28 -42 71 -70 71 -14 0 -59 -35
-118 -91 -228 -214 -370 -274 -647 -274 -164 1 -239 15 -393 76 -145 58 -237
123 -325 231 -21 25 -46 48 -55 50 -52 14 -93 -41 -68 -91 8 -15 22 -33 30
-40 29 -25 16 -38 -56 -59 -181 -53 -361 -55 -502 -8 -117 40 -116 38 -60 76
73 49 104 81 104 107 0 27 -41 73 -66 73 -9 0 -53 -25 -99 -55 -102 -67 -238
-135 -325 -163 -337 -108 -673 -3 -861 268 -33 49 -51 66 -71 68 -35 4 -72
-31 -66 -62 4 -22 -1 -24 -98 -39 -282 -46 -490 7 -748 192 -55 39 -105 71
-112 71 -21 0 -55 -34 -57 -57 -1 -22 -6 -23 -78 -23 -87 0 -206 20 -265 45
-53 22 -80 50 -100 101 -22 58 -9 89 63 154 85 75 181 119 350 160 70 17 85
88 23 113 l-28 13 56 47 c31 26 91 65 131 85 l75 37 170 1 c163 2 171 3 188
24 24 30 23 46 -7 76 l-25 25 19 28 c26 36 98 101 141 128 19 12 64 31 100 43
155 53 451 -6 663 -131 75 -45 109 -46 128 -6 6 12 23 29 39 37 16 8 68 42
115 74 142 97 321 142 530 134 l79 -3 7 -34 c8 -36 93 -132 141 -157 37 -19
72 -9 104 30 14 17 92 99 173 181 80 83 213 220 295 305 l149 154 36 -44 c114
-142 222 -236 373 -322 45 -27 79 -48 76 -48 -4 0 -68 -11 -142 -25 -240 -44
-416 -115 -464 -185 -12 -19 -32 -65 -44 -103 -28 -93 -17 -130 61 -208 44
-44 70 -61 112 -73 155 -47 394 -65 589 -47 158 16 443 69 670 126 208 52 249
66 312 106 65 42 93 78 108 139 7 28 18 54 24 56 7 3 84 -2 172 -11 256 -26
611 -31 784 -11 l144 17 20 -28 c116 -165 434 -285 1000 -378 383 -63 720 -4
856 151 102 117 93 223 -29 336 -107 99 -214 141 -513 198 -89 18 -169 34
-177 36 -8 3 11 30 55 77 164 171 256 369 307 654 12 68 27 123 33 123 6 0 44
-11 84 -25z"/>
<path d="M6695 14226 c-85 -24 -145 -118 -145 -228 0 -116 71 -340 168 -534
84 -166 96 -184 113 -167 10 10 -3 44 -64 165 -116 231 -175 433 -164 563 9
122 58 165 188 165 88 0 184 -26 241 -65 43 -29 68 -32 68 -7 0 21 -82 73
-155 97 -69 23 -188 28 -250 11z"/>
<path d="M7154 14066 c-6 -17 64 -116 83 -116 27 0 22 24 -16 75 -43 57 -58
65 -67 41z"/>
<path d="M6910 13094 c0 -27 33 -74 52 -74 23 0 23 17 -2 58 -21 34 -50 43
-50 16z"/>
<path d="M7506 12741 c-4 -5 -2 -12 3 -15 5 -4 12 -2 15 3 4 5 2 12 -3 15 -5
4 -12 2 -15 -3z"/>
<path d="M7324 12716 c-10 -8 -16 -17 -12 -21 11 -11 48 5 48 21 0 18 -11 18
-36 0z"/>
<path d="M7670 12690 c0 -5 5 -10 10 -10 6 0 10 5 10 10 0 6 -4 10 -10 10 -5
0 -10 -4 -10 -10z"/>
<path d="M7602 12647 c-25 -27 -28 -37 -9 -37 14 0 57 41 57 53 0 15 -28 6
-48 -16z"/>
<path d="M7665 12519 c-10 -15 1 -23 20 -15 9 3 13 10 10 16 -8 13 -22 13 -30
-1z"/>
<path d="M7591 12456 c-17 -21 4 -30 23 -10 9 8 16 17 16 20 0 10 -29 3 -39
-10z"/>
<path d="M7730 12410 c-10 -6 -12 -12 -4 -20 7 -7 16 -5 29 10 14 15 15 20 4
20 -8 0 -21 -5 -29 -10z"/>
<path d="M7647 12342 c-35 -36 -47 -62 -29 -62 4 0 26 18 47 40 26 27 36 43
29 50 -7 7 -22 -3 -47 -28z"/>
<path d="M7750 12260 c0 -5 5 -10 10 -10 6 0 10 5 10 10 0 6 -4 10 -10 10 -5
0 -10 -4 -10 -10z"/>
<path d="M7510 12194 c-27 -26 -50 -51 -50 -55 0 -21 29 -5 74 40 63 64 43 77
-24 15z"/>
<path d="M10900 14282 c-113 -38 -174 -81 -353 -247 -88 -81 -118 -125 -84
-125 6 0 66 50 132 111 137 125 211 179 291 208 124 47 222 10 269 -102 17
-42 38 -45 43 -6 4 37 -50 113 -101 143 -60 35 -127 41 -197 18z"/>
<path d="M11182 13971 c-19 -11 -12 -76 8 -76 10 0 16 12 18 34 4 38 -7 54
-26 42z"/>
<path d="M10360 13773 c-70 -95 -92 -132 -85 -142 3 -6 10 -11 15 -11 13 0
133 161 134 179 2 33 -31 19 -64 -26z"/>
<path d="M11130 13788 c0 -2 -34 -78 -75 -168 -93 -203 -252 -483 -345 -610
-39 -52 -70 -100 -70 -107 0 -72 125 87 281 357 87 152 237 464 242 502 1 14
-4 23 -15 26 -10 2 -18 2 -18 0z"/>
<path d="M10196 13518 c-11 -15 -13 -25 -6 -32 15 -15 44 6 48 33 4 28 -22 28
-42 -1z"/>
<path d="M10210 12810 c0 -5 5 -10 10 -10 6 0 10 5 10 10 0 6 -4 10 -10 10 -5
0 -10 -4 -10 -10z"/>
<path d="M10050 12774 c0 -8 5 -12 10 -9 6 4 8 11 5 16 -9 14 -15 11 -15 -7z"/>
<path d="M10370 12781 c0 -15 28 -33 40 -26 8 5 8 11 -1 21 -13 15 -39 19 -39
5z"/>
<path d="M10080 12747 c0 -16 42 -57 58 -57 19 0 14 14 -16 43 -31 30 -42 33
-42 14z"/>
<path d="M10032 12604 c3 -17 21 -21 26 -6 1 5 -4 12 -13 16 -11 4 -15 1 -13
-10z"/>
<path d="M10090 12546 c0 -7 6 -19 14 -25 19 -16 32 5 16 24 -16 19 -30 19
-30 1z"/>
<path d="M9950 12506 c0 -7 6 -19 14 -25 19 -16 32 5 16 24 -16 19 -30 19 -30
1z"/>
<path d="M10010 12453 c0 -16 54 -83 66 -83 20 0 18 8 -17 51 -28 36 -49 49
-49 32z"/>
<path d="M9930 12354 c0 -8 5 -12 10 -9 6 4 8 11 5 16 -9 14 -15 11 -15 -7z"/>
<path d="M10120 12309 c0 -21 82 -111 93 -100 6 6 -5 27 -33 60 -42 50 -60 62
-60 40z"/>
<path d="M7930 10153 c-170 -28 -220 -39 -314 -70 -128 -43 -130 -55 -3 -18
139 40 251 57 417 61 85 3 156 7 158 9 2 2 1 8 -3 14 -6 11 -198 13 -255 4z"/>
<path d="M9448 10153 c-10 -2 -18 -11 -18 -20 0 -13 12 -14 83 -9 53 5 130 2
217 -9 164 -19 216 -29 343 -67 55 -16 101 -27 103 -25 6 5 -133 57 -217 81
-126 37 -443 67 -511 49z"/>
<path d="M8110 10056 c-83 -35 -178 -83 -207 -106 -33 -26 -23 -25 30 2 23 12
91 40 151 62 60 23 111 47 114 54 6 18 -26 14 -88 -12z"/>
<path d="M9415 10060 c-7 -11 67 -46 155 -75 30 -9 86 -33 124 -52 37 -19 70
-32 72 -30 12 12 -157 103 -264 143 -70 27 -78 28 -87 14z"/>
<path d="M6822 9137 c-25 -31 -153 -301 -148 -313 14 -36 37 -5 104 136 40 82
72 156 72 164 0 21 -16 28 -28 13z"/>
<path d="M6933 9118 c-27 -45 -152 -335 -148 -346 14 -36 41 4 111 163 69 158
79 195 55 195 -5 0 -13 -6 -18 -12z"/>
<path d="M10676 8989 c-26 -56 -65 -133 -87 -172 -40 -71 -46 -102 -19 -102
16 0 193 342 187 360 -2 6 -10 11 -19 13 -10 2 -29 -29 -62 -99z"/>
<path d="M10873 9078 c-5 -7 -22 -42 -38 -78 -15 -36 -48 -105 -72 -153 -43
-86 -46 -107 -18 -107 23 0 172 320 160 340 -8 14 -21 12 -32 -2z"/>
<path d="M6643 9028 c-6 -7 -23 -36 -39 -65 -22 -39 -26 -55 -17 -64 6 -6 16
-8 22 -5 15 10 71 111 71 130 0 19 -23 21 -37 4z"/>
<path d="M10910 8895 c-45 -87 -52 -107 -40 -115 8 -5 18 -6 22 -4 11 7 108
200 108 214 0 5 -8 10 -17 10 -13 0 -35 -33 -73 -105z"/>
<path d="M11030 8890 c-35 -69 -37 -80 -12 -80 21 0 79 111 68 129 -14 21 -26
10 -56 -49z"/>
<path d="M8554 8656 c-12 -8 -27 -29 -34 -45 -11 -27 -9 -39 15 -98 15 -38 46
-97 70 -133 51 -75 139 -170 159 -170 8 0 19 -7 26 -15 18 -22 -6 -46 -100
-94 -82 -43 -178 -71 -246 -71 -68 0 -66 -46 2 -53 30 -3 196 -80 227 -106 15
-12 60 -17 137 -12 8 0 36 -2 61 -5 70 -9 227 50 269 100 7 9 25 16 39 16 36
0 66 23 58 44 -5 12 -19 16 -55 16 -102 0 -268 63 -316 121 -14 17 -26 34 -26
38 0 4 16 15 35 24 81 39 212 307 191 392 -12 49 -51 58 -281 63 -178 3 -213
1 -231 -12z m236 -650 c0 -86 -2 -95 -20 -101 -35 -11 -59 4 -69 43 -23 92
-25 85 32 119 29 18 53 32 55 33 1 0 2 -42 2 -94z m110 55 c43 -27 45 -29 42
-71 -6 -69 -17 -90 -50 -90 -15 0 -33 5 -40 12 -13 13 -17 179 -4 177 4 0 27
-13 52 -28z"/>
<path d="M7945 8405 c-80 -18 -200 -61 -255 -93 -96 -55 -210 -132 -210 -142
0 -6 60 20 133 56 148 75 269 117 402 140 50 9 94 19 99 24 31 30 -61 39 -169
15z"/>
<path d="M9504 8396 c-10 -26 3 -33 83 -46 136 -22 263 -65 412 -139 149 -75
181 -77 70 -3 -182 122 -297 165 -517 196 -32 5 -44 3 -48 -8z"/>
<path d="M8112 8297 c-52 -43 -197 -216 -187 -225 2 -3 24 12 47 34 152 136
218 199 218 210 0 27 -30 20 -78 -19z"/>
<path d="M9423 8303 c-5 -12 6 -27 37 -52 24 -20 85 -73 135 -118 80 -74 125
-106 98 -70 -88 116 -172 206 -223 240 -31 21 -39 21 -47 0z"/>
<path d="M9765 9530 c-163 -28 -265 -65 -265 -97 0 -18 5 -17 53 11 49 28 135
50 265 67 65 8 92 16 92 25 0 17 -17 16 -145 -6z"/>
<path d="M9792 9275 c-113 -49 -161 -155 -118 -258 26 -63 111 -117 186 -117
47 0 127 46 155 89 71 106 17 249 -108 286 -61 18 -73 18 -115 0z m87 -55 c30
-49 60 -71 114 -84 37 -9 34 -21 -10 -39 -45 -18 -73 -47 -105 -107 -13 -24
-27 -44 -33 -44 -5 1 -23 24 -39 53 -17 32 -46 65 -72 84 -24 17 -44 33 -44
36 1 3 20 15 43 26 29 14 53 37 77 73 19 28 35 52 36 52 1 0 16 -22 33 -50z"/>
<path d="M9822 9181 c-9 -16 -29 -37 -44 -46 -34 -20 -35 -30 -4 -51 14 -8 35
-32 47 -52 20 -34 22 -36 33 -18 6 11 28 38 49 61 20 23 37 45 37 48 0 2 -11
8 -26 11 -14 4 -34 22 -46 41 -11 19 -22 35 -24 35 -3 0 -12 -13 -22 -29z"/>
<path d="M10359 8909 c-38 -76 -44 -109 -19 -109 14 0 92 159 86 176 -11 28
-27 12 -67 -67z"/>
<path d="M10120 8900 c-36 -10 -96 -19 -135 -19 -77 -1 -101 -11 -92 -35 5
-13 22 -16 79 -16 123 0 263 38 263 70 0 21 -38 21 -115 0z"/>
<path d="M10140 8754 c-30 -7 -86 -15 -124 -16 -45 -2 -71 -7 -74 -15 -3 -10
15 -13 70 -13 80 0 209 29 216 48 5 15 -17 14 -88 -4z"/>
<path d="M7685 9540 c-9 -14 4 -17 125 -35 133 -20 174 -31 229 -61 55 -30 81
-16 30 15 -48 30 -147 58 -266 76 -122 18 -110 17 -118 5z"/>
<path d="M7725 9285 c-5 -2 -22 -6 -37 -9 -65 -15 -137 -112 -138 -186 0 -52
38 -120 88 -155 78 -54 200 -35 257 39 58 77 54 174 -11 246 -41 45 -120 78
-159 65z m142 -145 c51 -24 51 -25 -16 -62 -19 -10 -41 -39 -61 -78 -17 -33
-35 -58 -41 -55 -5 4 -20 28 -34 55 -26 51 -56 80 -105 100 -37 15 -38 28 -2
36 52 13 80 34 112 85 l31 51 35 -55 c26 -41 46 -60 81 -77z"/>
<path d="M7734 9181 c-7 -16 -24 -34 -43 -42 -17 -8 -31 -17 -31 -22 0 -4 16
-21 35 -38 19 -17 35 -37 35 -44 0 -7 6 -18 14 -24 12 -10 17 -8 26 11 7 13
28 39 46 58 l34 36 -30 17 c-17 10 -37 31 -45 48 -19 36 -28 37 -41 0z"/>
<path d="M7243 8915 c-20 -40 -24 -58 -16 -66 6 -6 16 -8 22 -4 17 10 51 81
51 105 0 38 -30 20 -57 -35z"/>
<path d="M7364 8909 c-20 -32 89 -68 232 -76 105 -6 129 2 104 32 -9 11 -33
15 -80 15 -37 0 -102 9 -145 20 -90 23 -101 24 -111 9z"/>
<path d="M7375 8761 c-7 -13 -1 -16 80 -35 74 -18 200 -18 200 -1 0 6 -30 11
-68 12 -37 2 -97 9 -133 18 -77 18 -71 17 -79 6z"/>
<path d="M7540 2410 c0 -16 36 -30 136 -50 221 -46 454 -64 454 -36 0 19 -22
26 -84 26 -71 0 -282 27 -395 50 -109 23 -111 23 -111 10z"/>
<path d="M10262 2389 c-19 -6 -132 -22 -253 -37 -121 -15 -220 -32 -219 -37 0
-25 229 -10 443 30 89 17 97 20 97 41 0 16 -19 17 -68 3z"/>
<path d="M8761 1770 c-55 -12 -135 -60 -207 -123 -78 -70 -56 -78 29 -11 131
103 199 124 328 105 85 -13 184 -56 245 -106 45 -37 64 -43 64 -22 0 15 -79
76 -135 105 -93 47 -237 70 -324 52z"/>
<path d="M12421 1740 c-24 -11 -66 -36 -92 -55 l-48 -34 -61 25 c-199 81 -393
84 -542 8 -106 -54 -228 -140 -228 -161 0 -21 12 -16 81 35 238 173 421 195
705 82 86 -35 114 -39 93 -14 -11 14 -9 19 11 34 14 11 49 31 77 46 49 24 60
26 150 22 110 -5 170 -28 243 -94 27 -25 41 -31 46 -23 11 18 -69 86 -136 118
-77 36 -233 42 -299 11z"/>
<path d="M4919 1725 c-48 -8 -130 -30 -182 -50 -93 -34 -98 -35 -165 -25 -81
13 -192 2 -313 -31 -54 -14 -79 -26 -79 -36 0 -10 6 -13 18 -8 85 33 278 60
353 50 l51 -7 -22 -23 c-34 -36 -9 -36 51 0 130 80 371 129 526 107 116 -16
229 -55 307 -107 38 -25 73 -42 77 -38 13 13 -2 28 -64 67 -76 49 -168 82
-273 101 -103 18 -169 18 -285 0z"/>
<path d="M6151 1454 c-76 -20 -163 -65 -253 -129 -72 -51 -93 -75 -68 -75 6 0
36 18 66 41 76 56 194 118 257 135 68 18 206 18 286 -1 89 -21 210 -87 277
-151 53 -51 74 -64 74 -46 0 4 -7 18 -16 30 -17 25 -19 23 55 42 81 21 210 -8
283 -64 40 -30 48 -32 48 -12 0 20 -85 74 -144 91 -62 19 -176 19 -236 1 l-45
-13 -61 43 c-119 85 -243 124 -389 123 -44 0 -104 -7 -134 -15z"/>
<path d="M7465 1456 c-5 -2 -44 -12 -85 -21 -103 -24 -170 -57 -219 -110 -59
-64 -41 -77 23 -17 57 54 116 80 244 108 69 15 90 15 136 5 104 -23 203 -91
279 -191 22 -29 27 -32 33 -17 15 40 -141 181 -244 221 -42 16 -146 30 -167
22z"/>
<path d="M9835 1423 c-104 -23 -248 -87 -348 -155 -71 -48 -207 -181 -207
-202 0 -9 2 -16 4 -16 2 0 44 39 93 88 205 200 468 297 678 248 104 -25 256
-103 357 -185 52 -42 90 -66 94 -60 3 6 -8 26 -26 44 l-32 33 44 25 c70 42
135 67 196 78 108 19 252 -26 394 -124 45 -31 70 -43 74 -35 16 25 -142 123
-262 164 -143 49 -274 31 -409 -54 l-60 -38 -65 44 c-137 95 -305 153 -434
151 -39 -1 -80 -3 -91 -6z"/>
<path d="M6587 10793 c-12 -12 -7 -41 8 -47 16 -6 35 22 28 42 -5 13 -25 16
-36 5z"/>
<path d="M5801 10678 c-5 -13 -14 -57 -20 -98 -51 -337 -240 -583 -457 -592
-82 -4 -80 -22 8 -78 80 -51 188 -162 235 -241 45 -77 104 -275 110 -376 6
-81 19 -113 43 -98 16 10 53 89 90 190 99 272 293 522 432 555 46 12 62 30 37
46 -7 4 -50 6 -96 5 -60 -1 -95 4 -119 15 -65 31 -126 127 -184 289 -30 82
-33 104 -39 244 -4 109 -10 156 -18 158 -7 3 -17 -6 -22 -19z m23 -353 c9 -38
39 -116 66 -171 57 -117 123 -187 194 -205 l41 -10 -76 -77 c-41 -42 -106
-124 -145 -182 -64 -97 -84 -139 -144 -302 -12 -32 -25 -58 -29 -58 -5 0 -11
23 -15 51 -11 78 -88 289 -130 352 -21 31 -79 95 -128 142 -65 61 -85 85 -71
85 32 0 137 57 187 101 83 73 165 204 202 323 20 65 21 64 48 -49z"/>
<path d="M6596 10628 c-3 -13 -6 -41 -6 -64 0 -29 -6 -46 -22 -61 -31 -28 -75
-49 -120 -57 -24 -4 -38 -13 -38 -22 0 -11 13 -14 61 -12 79 4 99 -17 99 -101
0 -63 11 -87 34 -78 12 5 16 21 16 70 0 57 3 66 29 91 23 22 36 27 67 24 30
-2 39 1 42 14 2 12 -6 19 -33 24 -50 9 -83 55 -93 129 -7 61 -25 82 -36 43z"/>
<path d="M6275 10441 c-10 -17 4 -31 31 -31 19 0 25 5 22 18 -4 19 -43 29 -53
13z"/>
<path d="M6834 10439 c-3 -6 -2 -15 4 -21 15 -15 46 -5 50 15 3 12 -3 17 -22
17 -14 0 -28 -5 -32 -11z"/>
<path d="M10842 10228 c-17 -22 25 -94 89 -152 107 -96 346 -202 509 -225 68
-9 228 0 251 15 5 3 9 3 9 0 0 -3 -35 -32 -77 -64 -119 -91 -239 -221 -276
-300 -27 -58 -32 -78 -32 -152 0 -76 3 -91 30 -140 52 -95 89 -73 40 24 -19
38 -25 65 -25 116 0 143 111 284 374 476 75 54 136 105 136 112 0 24 -26 23
-105 -3 -115 -37 -236 -51 -323 -37 -158 26 -357 110 -464 194 -27 22 -65 64
-84 94 -19 30 -36 54 -38 54 -2 0 -8 -6 -14 -12z"/>
<path d="M6582 10138 c2 -30 8 -43 18 -43 10 0 16 13 18 43 3 37 1 42 -18 42
-19 0 -21 -5 -18 -42z"/>
<path d="M11440 9042 c0 -17 58 -88 110 -135 66 -59 112 -84 209 -112 l74 -22
-79 -38 c-59 -28 -97 -56 -150 -109 -64 -63 -114 -137 -114 -166 0 -27 33 -4
65 46 62 97 127 150 263 215 76 36 122 64 119 72 -2 7 -30 15 -64 19 -146 16
-240 62 -339 164 -66 68 -94 88 -94 66z"/>
<path d="M5907 8533 c-3 -5 -12 -35 -22 -68 -69 -242 -259 -438 -504 -520 -50
-17 -66 -27 -66 -41 0 -18 13 -19 200 -25 227 -7 253 -14 394 -94 46 -25 89
-44 97 -41 34 13 8 39 -96 95 -111 59 -152 71 -295 85 l-130 12 45 23 c64 33
159 102 202 148 95 100 190 279 205 388 5 37 3 45 -10 45 -9 0 -18 -3 -20 -7z"/>
<path d="M11474 8374 c-4 -14 -3 -48 0 -75 7 -55 -12 -101 -53 -127 -22 -13
-28 -37 -12 -46 15 -9 70 43 92 86 16 32 19 49 13 81 -5 23 -7 57 -5 75 3 40
-25 46 -35 6z"/>
<path d="M12501 8076 c-16 -19 -7 -46 14 -46 22 0 30 29 13 46 -13 13 -16 13
-27 0z"/>
<path d="M12512 7838 c2 -134 -19 -165 -93 -139 -44 15 -69 14 -69 -4 0 -8 19
-20 49 -29 104 -31 122 -57 128 -191 6 -112 8 -121 28 -105 11 9 15 35 15 107
0 126 13 151 77 155 36 2 49 7 51 21 3 14 -4 17 -46 17 l-50 0 -21 53 c-12 29
-25 82 -29 117 -5 50 -11 66 -24 68 -15 3 -17 -6 -16 -70z"/>
<path d="M12235 7730 c-4 -7 -3 -16 3 -22 14 -14 47 -6 47 12 0 18 -40 26 -50
10z"/>
<path d="M11965 7721 c-3 -6 -13 -68 -22 -138 -21 -177 -40 -222 -127 -308
-89 -88 -144 -116 -245 -124 -63 -5 -76 -9 -79 -25 -4 -17 2 -18 80 -14 70 3
93 9 148 38 75 40 178 137 208 197 31 60 42 120 65 357 2 21 -18 33 -28 17z"/>
<path d="M6064 7696 c-3 -8 0 -24 6 -36 36 -67 66 -258 56 -359 -9 -105 -85
-237 -230 -400 -42 -47 -46 -55 -33 -68 13 -13 32 -5 162 67 177 99 350 182
453 217 59 20 98 26 167 27 82 1 96 -2 159 -31 78 -38 96 -40 96 -14 0 13 -20
29 -67 52 -66 33 -71 34 -188 33 -149 -1 -179 -10 -445 -142 -107 -53 -199
-98 -203 -100 -5 -2 18 31 50 74 109 148 142 257 123 412 -23 182 -82 331
-106 268z"/>
<path d="M12753 7674 c-3 -8 -1 -20 4 -25 14 -14 43 0 43 22 0 24 -38 26 -47
3z"/>
<path d="M12014 7636 c-9 -24 15 -225 33 -285 31 -96 105 -146 228 -153 39 -2
50 0 53 13 2 13 -8 18 -45 23 -73 11 -138 34 -161 59 -32 34 -52 100 -63 212
-6 55 -13 110 -15 123 -5 25 -22 29 -30 8z"/>
<path d="M12524 7285 c-7 -18 3 -35 21 -35 15 0 28 27 19 41 -8 14 -34 11 -40
-6z"/>
<path d="M12299 7145 c-114 -23 -185 -70 -224 -149 -21 -44 -27 -75 -37 -212
-6 -88 -8 -169 -4 -179 15 -39 28 5 37 121 12 158 18 202 35 244 34 81 105
121 264 147 68 11 100 21 100 30 0 17 -80 16 -171 -2z"/>
<path d="M11630 7048 c0 -9 23 -24 55 -36 137 -53 228 -125 271 -215 20 -41
44 -49 44 -14 0 32 -48 104 -99 151 -46 40 -184 111 -238 122 -25 5 -33 3 -33
-8z"/>
</g>
</svg>
