<?xml version="1.0" standalone="no"?>
<!DOCTYPE svg PUBLIC "-//W3C//DTD SVG 20010904//EN"
 "http://www.w3.org/TR/2001/REC-SVG-20010904/DTD/svg10.dtd">
<svg version="1.0" xmlns="http://www.w3.org/2000/svg"
 width="1500.000000pt" height="1800.000000pt" viewBox="0 0 1500.000000 1800.000000"
 preserveAspectRatio="xMidYMid meet">

<g transform="translate(0.000000,1800.000000) scale(0.100000,-0.100000)"
fill="#000000" stroke="none">
<path d="M4637 17145 c-154 -42 -318 -181 -398 -337 -54 -107 -74 -198 -73
-343 0 -140 15 -241 66 -445 53 -215 115 -354 340 -763 61 -111 161 -294 223
-407 124 -227 140 -255 275 -484 107 -183 183 -339 300 -616 191 -452 257
-644 310 -902 22 -106 44 -205 49 -220 9 -25 5 -31 -52 -81 -177 -156 -298
-303 -450 -546 -124 -200 -312 -538 -367 -661 -26 -58 -74 -143 -105 -190
-298 -435 -369 -559 -421 -735 -36 -121 -44 -320 -19 -456 31 -168 105 -344
225 -536 181 -287 316 -412 594 -543 138 -66 153 -78 136 -111 -14 -26 -6 -76
16 -100 13 -15 14 -23 3 -52 -19 -52 -7 -85 44 -120 16 -11 17 -15 4 -41 -20
-37 -8 -76 31 -101 38 -24 41 -52 8 -80 -29 -24 -506 -596 -593 -710 -316
-416 -504 -870 -558 -1345 -25 -212 -31 -231 -195 -570 -84 -173 -180 -376
-215 -450 -34 -74 -140 -295 -235 -490 -95 -195 -221 -456 -280 -580 -59 -124
-147 -306 -195 -405 -48 -99 -89 -196 -92 -216 -7 -51 17 -90 74 -121 55 -29
170 -53 209 -44 31 8 104 -21 104 -42 0 -7 13 -27 29 -43 23 -22 39 -29 69
-29 31 0 41 -5 49 -23 11 -24 10 -24 -85 -41 -167 -29 -355 -121 -466 -228
-27 -26 -51 -48 -53 -48 -1 0 -25 14 -52 30 -76 47 -227 107 -357 141 -103 28
-136 32 -249 32 -115 1 -139 -2 -210 -26 -87 -28 -168 -74 -240 -133 -63 -51
-165 -180 -165 -208 0 -22 -4 -23 -112 -29 -62 -3 -131 -11 -153 -18 -61 -17
-173 -76 -235 -122 -97 -73 -221 -198 -227 -230 -5 -24 -16 -34 -61 -54 -140
-62 -270 -171 -317 -268 -34 -69 -32 -142 7 -226 55 -121 134 -175 318 -219
77 -19 124 -24 250 -24 95 0 165 4 181 11 24 10 33 7 95 -34 232 -156 496
-223 764 -193 144 16 187 28 211 59 l21 26 41 -50 c59 -72 123 -130 192 -176
295 -196 642 -217 1003 -62 l84 36 17 -20 c21 -28 101 -67 209 -103 209 -70
487 -57 715 34 35 14 69 26 75 26 7 0 34 -16 61 -35 119 -86 358 -179 543
-211 110 -19 312 -15 423 9 84 19 205 61 249 88 41 25 49 24 64 -10 17 -39
142 -137 227 -177 116 -56 212 -76 360 -78 193 -2 333 35 497 132 77 45 107
83 94 117 -8 22 2 19 105 -29 247 -115 476 -155 729 -127 255 28 479 114 684
264 46 34 72 48 80 41 125 -95 337 -205 500 -258 141 -47 222 -59 320 -51 205
17 375 94 601 271 l93 72 79 -9 c162 -19 333 17 466 98 l38 24 87 -30 c114
-39 267 -77 371 -92 130 -18 354 -7 466 25 235 65 391 159 570 342 l90 92 75
-19 c101 -26 274 -35 380 -20 134 20 309 82 362 128 15 14 25 10 100 -40 213
-141 403 -200 643 -199 235 0 386 55 532 195 134 128 179 251 128 347 -24 47
-132 152 -176 173 -20 9 -67 22 -105 28 -62 11 -72 16 -101 52 -65 78 -187
159 -298 197 -76 26 -147 37 -374 54 l-184 15 -30 38 c-89 112 -220 214 -326
254 -87 33 -257 69 -356 75 -76 5 -124 1 -308 -30 -119 -20 -223 -39 -231 -42
-7 -3 -21 6 -30 21 -23 35 -121 131 -182 176 -67 51 -331 182 -441 218 -169
57 -374 59 -549 6 -96 -29 -104 -30 -104 -10 0 33 -65 216 -110 311 -125 261
-310 463 -570 625 -156 96 -316 167 -470 209 l-40 11 7 42 c5 23 8 168 8 322
0 282 -8 382 -51 605 -21 113 -25 106 64 113 205 14 329 113 398 317 27 80 25
259 -5 410 -81 411 -290 962 -511 1346 -120 209 -339 514 -561 781 -60 72
-109 139 -109 149 0 17 -46 98 -112 196 -21 32 -41 64 -44 72 -4 10 31 25 138
60 278 90 490 216 668 395 340 342 490 692 451 1049 -14 126 -39 219 -101 373
-92 230 -183 386 -336 576 -105 131 -248 351 -355 548 -269 495 -434 729 -628
888 l-33 28 42 202 c23 111 58 249 77 307 44 132 151 400 237 593 36 81 66
151 66 154 0 9 175 354 207 408 16 28 80 132 141 232 62 101 158 265 215 365
57 101 165 290 240 421 233 404 293 536 352 779 86 347 82 538 -15 733 -103
211 -355 379 -540 360 -238 -23 -609 -256 -951 -595 -194 -192 -299 -339 -457
-640 -101 -192 -161 -338 -258 -624 -183 -542 -270 -893 -375 -1516 -60 -358
-77 -485 -90 -670 -6 -91 -13 -166 -14 -168 -3 -3 -164 -9 -655 -24 l-95 -3 3
35 c12 138 -77 802 -173 1300 -81 416 -276 1094 -408 1416 -84 205 -238 497
-335 634 -209 296 -577 621 -867 766 -176 87 -273 108 -378 79z m211 -161
c127 -42 239 -110 431 -262 315 -249 488 -458 664 -800 142 -275 187 -390 321
-826 100 -322 148 -508 210 -814 45 -217 144 -787 166 -948 14 -108 39 -418
34 -424 -3 -2 -39 -4 -82 -5 l-76 0 -18 130 c-60 434 -170 1030 -247 1336 -21
84 -62 217 -91 294 -28 77 -76 208 -106 290 -103 287 -341 855 -460 1100 -39
80 -70 106 -68 55 1 -14 66 -171 144 -350 161 -368 241 -565 310 -760 26 -74
58 -163 71 -198 l24 -63 -49 -46 c-36 -33 -45 -48 -37 -56 8 -8 22 -1 51 28
45 44 49 42 75 -28 l18 -48 -34 -29 c-40 -33 -31 -52 12 -27 l30 17 15 -36
c33 -78 31 -85 -36 -128 -33 -21 -60 -42 -60 -47 0 -18 32 -8 77 22 24 17 48
27 53 23 11 -14 28 -91 21 -101 -3 -5 -47 -41 -97 -81 -104 -81 -242 -223
-294 -300 -19 -28 -38 -52 -42 -52 -3 0 -13 19 -21 43 -8 23 -18 49 -21 58 -5
11 27 54 103 140 101 114 125 149 103 149 -9 0 -91 -84 -175 -179 l-47 -53
-18 43 c-27 63 -35 99 -21 99 16 0 119 93 119 108 0 25 -26 11 -82 -45 -50
-50 -58 -54 -64 -37 -4 10 -13 34 -20 53 -8 18 -14 38 -14 43 0 5 27 38 60 72
33 35 60 68 60 74 0 25 -26 10 -77 -43 -29 -30 -56 -55 -59 -55 -7 0 -54 107
-54 125 0 7 47 57 105 111 57 53 102 101 99 106 -8 13 -53 -19 -139 -99 -43
-40 -81 -73 -86 -73 -12 0 -39 55 -39 78 0 10 36 54 80 96 44 43 80 82 80 87
0 24 -33 2 -103 -67 -43 -41 -81 -73 -85 -70 -4 2 -16 21 -26 41 l-20 36 29
27 c25 23 27 27 11 30 -9 2 -26 -4 -36 -13 -20 -19 -7 -37 -135 185 -100 172
-117 193 -131 155 -5 -12 99 -205 208 -389 177 -296 437 -1007 602 -1648 25
-97 50 -188 56 -203 5 -14 10 -34 10 -43 0 -20 -155 -107 -165 -93 -3 6 -22
90 -41 188 -39 193 -81 330 -179 578 -184 468 -322 761 -503 1068 -60 100
-128 218 -152 262 -24 44 -121 220 -215 390 -186 335 -299 554 -344 668 -41
102 -96 329 -117 480 -15 110 -16 141 -5 218 21 161 86 278 209 374 110 87
199 103 330 59z m4974 6 c109 -41 237 -162 285 -269 56 -127 66 -246 33 -435
-56 -331 -115 -478 -354 -893 -326 -567 -423 -733 -524 -896 -123 -199 -255
-452 -360 -692 -192 -438 -285 -691 -321 -870 -25 -128 -48 -226 -54 -232 -3
-2 -45 17 -94 44 -103 58 -102 52 -58 209 70 248 194 559 463 1160 186 415
254 550 375 736 40 63 47 81 38 92 -20 24 -37 9 -90 -75 -28 -43 -55 -79 -60
-79 -5 0 -14 7 -21 15 -13 15 -40 21 -40 8 0 -4 11 -19 25 -33 l25 -26 -22
-42 c-13 -23 -26 -42 -29 -42 -4 0 -19 17 -35 38 -68 89 -144 157 -144 127 0
-3 36 -49 80 -102 44 -53 80 -100 80 -105 0 -17 -41 -88 -50 -88 -6 0 -10 4
-10 9 0 15 -181 201 -196 201 -23 0 -17 -10 44 -75 31 -33 78 -85 104 -114
l46 -53 -31 -66 c-16 -37 -32 -69 -35 -72 -2 -3 -12 6 -21 20 -32 48 -102 130
-112 130 -19 0 -8 -29 26 -71 20 -23 47 -62 61 -85 l26 -44 -23 -55 c-20 -48
-25 -54 -46 -49 -26 7 -29 -2 -9 -25 12 -14 11 -23 -9 -68 -13 -29 -27 -53
-32 -52 -4 0 -48 56 -98 125 -101 140 -120 161 -130 144 -4 -6 34 -66 83 -133
49 -67 99 -137 110 -155 l20 -34 -26 -58 c-14 -33 -28 -57 -33 -55 -4 3 -24
35 -44 73 -58 106 -139 208 -258 325 l-109 108 12 45 c7 24 17 47 22 50 5 3
29 -10 53 -30 24 -20 48 -36 54 -36 28 0 15 22 -39 63 l-59 47 21 57 c12 32
23 60 24 62 2 2 15 -6 30 -18 26 -21 54 -28 54 -14 0 4 -16 23 -35 43 l-35 36
16 49 c9 28 21 54 25 59 5 6 29 -12 58 -45 42 -46 50 -51 56 -36 6 14 -5 31
-44 71 -28 28 -51 57 -51 64 0 22 81 214 186 443 58 125 103 233 99 239 -19
30 -40 2 -109 -142 -149 -313 -197 -430 -341 -850 -30 -86 -66 -187 -81 -225
-139 -363 -249 -779 -319 -1203 -14 -85 -27 -165 -30 -177 -5 -21 -11 -23 -70
-23 -40 0 -67 5 -72 13 -20 31 16 337 88 749 110 630 181 935 315 1353 142
441 206 601 345 858 139 258 250 409 422 573 277 264 594 474 782 517 50 11
128 6 177 -13z m-1455 -2722 c106 -108 187 -212 243 -313 18 -33 39 -65 46
-71 11 -9 11 -18 -3 -53 -9 -23 -20 -40 -24 -39 -4 2 -40 53 -79 113 -56 85
-101 138 -201 235 -71 69 -129 132 -129 141 0 22 28 89 38 89 4 0 53 -46 109
-102z m-2128 -78 c6 -28 11 -53 11 -55 0 -2 -37 -32 -82 -67 -140 -106 -210
-171 -278 -257 -58 -74 -66 -80 -77 -65 -25 35 -15 70 46 152 32 43 90 110
128 148 72 73 218 194 233 194 4 0 13 -23 19 -50z m2158 -142 c34 -36 96 -118
138 -182 79 -121 84 -137 52 -180 -13 -17 -19 -11 -82 80 -41 59 -122 153
-202 234 -73 74 -133 141 -133 148 0 7 7 29 15 48 l15 36 67 -60 c38 -33 96
-89 130 -124z m-2128 -5 c12 -55 27 -37 -138 -172 -56 -47 -137 -123 -179
-170 -42 -47 -81 -86 -86 -86 -6 0 -14 15 -20 33 -8 29 -5 38 27 85 61 88 166
195 271 278 56 43 104 78 108 79 3 0 11 -21 17 -47z m2016 -66 c107 -111 199
-228 249 -318 l25 -45 -40 -99 c-23 -55 -45 -104 -49 -108 -4 -5 -26 25 -48
65 -22 40 -84 127 -137 193 -187 231 -204 261 -175 305 12 17 1 30 171 -181
63 -79 134 -172 158 -206 23 -35 46 -63 51 -63 35 0 -20 88 -174 277 -176 216
-185 228 -186 235 -1 18 21 58 32 58 7 0 62 -51 123 -113z m-1989 -75 c6 -31
0 -39 -153 -195 -87 -89 -176 -182 -196 -206 l-37 -44 -15 36 c-8 20 -15 44
-15 53 0 21 88 128 172 211 88 86 222 193 230 185 4 -4 11 -22 14 -40z m1804
-50 c0 -5 50 -71 111 -148 173 -217 245 -333 233 -378 -3 -15 -10 -28 -14 -31
-8 -5 -123 153 -292 399 -63 92 -81 140 -61 159 9 10 23 9 23 -1z m-1777 -70
c6 -31 0 -40 -147 -192 -85 -88 -169 -183 -187 -210 -19 -27 -37 -50 -41 -50
-4 0 -12 18 -18 41 -11 39 -10 42 26 87 72 89 347 373 354 365 4 -4 10 -23 13
-41z m1822 -152 c43 -63 121 -177 173 -253 l93 -138 -27 -82 c-14 -45 -30 -86
-35 -91 -4 -5 -18 8 -31 30 -46 78 -222 341 -270 402 -43 55 -48 67 -43 95 4
18 11 38 14 45 7 13 151 -188 284 -395 45 -71 67 -89 67 -57 0 19 -184 299
-303 461 -21 29 -35 58 -32 67 19 59 6 69 110 -84z m-1805 56 c0 -8 3 -21 6
-29 3 -9 -29 -56 -86 -123 -50 -60 -132 -157 -182 -216 -50 -60 -94 -108 -99
-108 -4 0 -10 13 -14 29 -8 36 8 69 73 149 56 70 283 310 295 311 4 1 7 -5 7
-13z m22 -127 c4 -27 -8 -46 -115 -172 -66 -78 -145 -175 -175 -214 -52 -67
-72 -85 -72 -65 0 4 -3 17 -6 28 -4 17 22 55 123 174 70 84 151 182 178 216
28 35 53 63 56 64 4 0 9 -14 11 -31z m1779 -253 c204 -310 196 -297 187 -335
-5 -18 -14 -31 -21 -28 -11 3 -58 79 -176 281 -24 41 -68 107 -98 146 -34 46
-53 81 -53 99 0 27 7 41 20 41 4 0 67 -92 141 -204z m-1758 128 c6 -34 1 -42
-81 -138 -48 -56 -125 -150 -172 -209 -46 -59 -88 -107 -92 -107 -4 0 -10 16
-14 34 -6 32 0 43 67 128 153 194 264 327 275 327 6 1 14 -15 17 -35z m1653
-125 c28 -41 91 -144 139 -229 48 -85 96 -168 107 -183 11 -17 17 -36 13 -47
-15 -48 -54 -7 -134 143 -39 73 -103 175 -141 226 -39 51 -70 100 -70 109 0
32 13 63 24 59 6 -2 34 -37 62 -78z m-1633 6 c3 -21 -11 -44 -72 -118 -42 -51
-106 -135 -143 -187 -37 -52 -79 -108 -92 -125 l-24 -30 -12 30 c-7 20 -8 36
-1 50 22 46 315 405 331 405 4 0 10 -11 13 -25z m1615 -149 c28 -40 76 -121
108 -180 46 -88 53 -107 38 -105 -23 5 -232 314 -233 345 -1 27 9 36 25 23 6
-5 35 -43 62 -83z m-1598 22 c0 -39 -7 -51 -66 -117 -36 -40 -89 -108 -119
-151 -63 -89 -70 -96 -108 -105 -39 -10 -35 5 26 88 30 40 75 103 101 140 63
89 144 187 156 187 6 0 10 -19 10 -42z m1585 -149 c83 -130 82 -129 57 -129
-14 0 -38 30 -86 110 -59 97 -72 131 -48 130 4 -1 39 -50 77 -111z m-1565 31
c0 -19 -145 -210 -160 -210 -5 0 -15 -3 -24 -6 -9 -3 -16 -1 -16 6 0 15 80
127 136 190 46 50 64 56 64 20z m1510 -67 c19 -32 37 -61 38 -65 5 -11 -85
-10 -92 0 -7 11 5 122 13 122 4 0 22 -26 41 -57z m-1500 -26 c0 -26 -59 -97
-81 -97 -16 0 -19 3 -12 13 75 97 93 114 93 84z m1421 -187 c176 -18 241 -40
454 -153 375 -200 504 -354 885 -1057 90 -166 213 -359 294 -464 221 -284 271
-367 364 -599 122 -303 133 -490 47 -743 -56 -160 -131 -280 -292 -465 -131
-150 -282 -260 -486 -353 -73 -33 -308 -112 -405 -136 -74 -19 -90 -74 -39
-137 29 -34 147 -223 147 -234 0 -4 -8 -10 -18 -13 -10 -4 -65 -66 -123 -139
-302 -379 -553 -573 -944 -727 -69 -28 -129 -50 -134 -50 -5 0 -28 37 -51 83
-81 158 -171 299 -293 459 -32 42 -56 82 -52 88 3 6 75 67 158 137 84 70 173
146 199 169 44 38 52 42 125 48 197 18 450 82 571 143 88 45 131 77 120 88 -3
3 -58 -4 -124 -15 -65 -10 -184 -24 -264 -30 -80 -6 -172 -15 -205 -20 -33 -5
-204 -15 -380 -21 -352 -14 -483 -9 -1015 37 -323 27 -320 27 -320 15 0 -26
299 -123 454 -146 43 -7 55 -15 115 -77 70 -75 219 -199 320 -267 34 -23 61
-49 61 -57 0 -9 -20 -41 -43 -72 -101 -132 -209 -305 -287 -462 -23 -47 -44
-87 -46 -89 -13 -14 -297 112 -428 191 -201 122 -332 234 -496 427 -102 120
-114 141 -81 141 28 0 43 33 39 83 -2 35 1 42 17 45 36 7 46 24 44 71 -1 28 4
59 15 78 18 35 14 74 -10 94 -23 19 -16 47 15 63 30 16 41 34 41 70 0 40 -38
63 -125 75 -148 21 -253 50 -260 72 -4 10 -18 32 -31 49 -24 28 -24 31 -9 59
20 40 19 66 -7 112 -20 36 -20 39 -5 63 31 46 14 140 -29 164 -14 8 -13 13 6
50 19 36 20 46 10 76 -6 20 -24 46 -40 60 -26 21 -27 26 -14 37 47 39 52 103
12 155 -20 25 -20 27 -5 54 28 46 22 97 -13 130 -30 28 -30 29 -11 40 52 27
63 118 20 161 -20 20 -20 20 2 50 l22 31 61 -59 c117 -114 227 -175 396 -219
186 -49 422 -30 603 50 67 30 87 32 151 10 33 -12 51 -13 58 -6 17 17 1 42
-32 53 -16 6 -30 13 -30 16 0 3 32 35 72 72 92 85 161 190 194 297 15 48 36
94 50 108 14 14 61 35 112 51 195 62 445 36 526 -54 11 -12 32 -57 47 -101 15
-43 45 -105 67 -137 45 -65 146 -166 210 -208 23 -15 42 -31 42 -34 0 -4 -22
-15 -49 -25 -53 -19 -68 -38 -46 -56 10 -9 33 -5 94 14 l81 26 108 -32 c102
-31 115 -33 272 -32 141 0 177 3 245 22 104 30 223 89 305 150 49 37 81 53
130 65 l65 15 -49 1 c-48 1 -48 1 -32 24 53 72 91 137 116 197 15 37 51 107
80 155 45 77 50 90 37 103 -13 12 -18 10 -38 -17 -12 -17 -26 -31 -29 -31 -4
0 -11 37 -17 83 -7 45 -25 115 -41 155 -21 49 -27 74 -19 77 7 2 25 6 41 10
39 8 23 22 -44 40 -43 11 -62 24 -96 63 -97 111 -269 210 -436 251 -121 29
-305 29 -432 0 -272 -63 -487 -242 -566 -473 -16 -44 -31 -111 -35 -147 l-7
-66 -92 19 c-124 26 -297 26 -446 0 -63 -11 -117 -19 -121 -17 -3 3 -9 31 -12
64 -27 259 -260 496 -572 583 -68 19 -105 22 -245 22 -151 0 -173 -3 -253 -27
-147 -45 -256 -109 -369 -214 -31 -29 -66 -53 -78 -53 -11 0 -37 -7 -58 -15
-29 -13 -34 -18 -22 -25 8 -5 25 -10 38 -10 25 0 28 -16 9 -45 -35 -52 -87
-233 -87 -301 0 -23 -23 -84 -61 -166 -33 -71 -58 -136 -55 -144 14 -36 39
-11 83 83 l47 98 18 -40 c26 -60 23 -73 -22 -91 -66 -26 -87 -89 -54 -158 16
-32 16 -36 0 -52 -46 -46 -43 -107 8 -152 l33 -29 -29 -31 c-35 -40 -36 -77
-4 -125 l24 -35 -20 -41 c-24 -48 -18 -88 18 -124 l25 -25 -26 -37 c-14 -21
-25 -50 -25 -64 0 -29 34 -91 50 -91 16 0 12 -18 -11 -50 -28 -37 -22 -110 12
-146 20 -22 21 -26 9 -49 -20 -37 -15 -93 10 -127 12 -16 20 -32 17 -34 -10
-10 -226 109 -288 158 -192 154 -410 500 -481 761 -18 67 -22 109 -23 232 0
164 9 212 75 368 49 119 278 488 339 548 14 15 42 62 60 105 93 214 265 524
476 854 203 318 505 571 800 670 145 48 296 68 625 80 824 31 909 33 1041 20z
m700 -1524 c97 -27 191 -72 270 -129 54 -40 95 -84 87 -93 -3 -2 -49 6 -104
18 -126 27 -398 30 -510 5 -154 -34 -299 -115 -339 -189 -11 -20 -17 -39 -14
-42 2 -3 45 15 94 39 177 88 392 116 732 96 253 -14 240 -8 283 -133 21 -61
25 -92 25 -188 l0 -115 -62 -120 c-40 -79 -76 -135 -105 -162 l-44 -43 -154
-15 c-240 -23 -400 -43 -580 -72 -91 -14 -175 -26 -188 -26 -34 1 -127 61
-200 128 -78 72 -134 153 -169 243 -24 59 -27 81 -27 187 0 105 3 128 26 185
60 155 185 288 343 367 77 39 183 72 265 83 103 14 276 3 371 -24z m-2311 -30
c249 -67 441 -234 511 -444 29 -88 31 -241 5 -322 -42 -128 -139 -258 -249
-334 l-54 -37 -68 16 c-100 23 -447 71 -725 100 -135 14 -255 27 -266 30 -22
5 -104 120 -104 146 0 8 23 61 50 119 54 113 61 143 33 138 -11 -2 -37 -39
-64 -92 -29 -55 -49 -84 -54 -77 -17 29 -18 131 -1 175 14 37 15 48 5 65 -17
27 10 116 56 187 l34 52 128 8 c185 13 424 10 528 -5 113 -17 221 -51 304 -96
36 -19 66 -33 68 -31 11 11 -14 62 -45 92 -47 46 -176 109 -277 135 -115 31
-389 31 -523 2 -51 -11 -95 -17 -97 -12 -7 10 104 89 180 127 182 91 420 113
625 58z m-990 -942 c17 -20 2 -67 -23 -72 -24 -5 -47 16 -47 42 0 42 45 61 70
30z m391 -119 c112 -19 314 -51 449 -70 135 -20 249 -40 254 -45 14 -14 -49
-38 -157 -60 -181 -38 -368 -19 -539 55 -82 36 -218 126 -218 145 0 12 -25 16
211 -25z m3134 -32 c-46 -34 -142 -75 -233 -100 -76 -20 -122 -26 -212 -27
-156 -1 -271 17 -249 38 3 3 115 22 250 41 134 19 291 43 349 53 58 10 107 17
110 14 3 -2 -4 -10 -15 -19z m-3525 -33 c11 -11 20 -25 20 -32 0 -19 -31 -48
-52 -48 -19 0 -58 33 -58 50 0 15 38 50 55 50 8 0 24 -9 35 -20z m0 -204 c20
-25 8 -61 -21 -64 -36 -4 -55 21 -41 53 13 28 43 33 62 11z m15 -191 c19 -29
2 -65 -29 -65 -23 0 -46 24 -46 49 0 16 31 42 48 39 8 -2 20 -12 27 -23z m23
-222 c4 -37 -19 -58 -53 -49 -36 9 -45 54 -16 77 31 25 65 11 69 -28z m10
-159 c41 -28 21 -104 -28 -104 -49 0 -69 76 -28 104 12 9 25 16 28 16 3 0 16
-7 28 -16z m14 -201 c24 -21 23 -45 -3 -69 -15 -14 -24 -16 -37 -8 -24 16 -28
65 -6 81 23 16 24 16 46 -4z m49 -363 c26 -14 25 -56 -2 -70 -16 -9 -25 -8
-40 6 -23 21 -24 37 -3 58 18 19 20 19 45 6z m164 -26 c66 -11 66 -12 14 -104
-26 -47 -55 -97 -63 -112 -24 -45 -37 -34 -30 25 4 38 2 62 -8 81 -12 24 -12
34 1 77 11 36 19 48 31 45 8 -3 33 -8 55 -12z m188 -116 c7 -21 -4 -38 -24
-38 -14 0 -19 7 -19 25 0 18 5 25 19 25 11 0 21 -6 24 -12z m-325 -42 c6 -47
-40 -64 -60 -21 -14 30 5 57 36 53 15 -2 22 -12 24 -32z m309 -82 c3 -9 1 -20
-6 -27 -16 -16 -56 25 -48 48 5 13 11 14 27 5 12 -6 24 -18 27 -26z m1173 -14
c8 -5 11 -12 8 -16 -10 -9 -38 3 -38 16 0 12 10 13 30 0z m103 -6 c9 -9 -34
-64 -50 -64 -22 0 -27 29 -8 50 18 20 46 26 58 14z m99 0 c7 -6 -71 -114 -82
-114 -22 0 -29 27 -13 51 40 60 75 83 95 63z m90 1 c3 -3 -14 -36 -38 -72 -24
-37 -44 -71 -44 -75 0 -12 -38 -10 -45 2 -8 12 11 45 62 108 32 39 52 50 65
37z m88 -1 c0 -4 -16 -33 -36 -66 -20 -32 -33 -62 -30 -65 8 -9 -44 -63 -60
-63 -7 0 -15 4 -18 9 -6 10 88 171 107 183 15 9 37 10 37 2z m70 -2 c0 -15
-59 -92 -70 -92 -14 0 -13 6 7 38 33 53 63 79 63 54z m-1894 -43 c3 -6 1 -16
-4 -21 -13 -13 -45 8 -36 23 7 12 31 11 40 -2z m202 -41 c30 -30 -1 -74 -33
-48 -22 18 -19 60 3 60 10 0 23 -5 30 -12z m-108 -43 c10 -12 10 -18 0 -30
-17 -21 -37 -19 -45 5 -12 37 20 55 45 25z m3431 -107 c177 -212 443 -589 571
-808 226 -386 455 -1004 514 -1385 40 -261 -19 -425 -167 -469 -73 -22 -179
-32 -179 -17 0 6 9 46 20 89 23 89 29 150 15 154 -5 2 -21 -42 -35 -97 -14
-55 -29 -98 -35 -96 -5 2 -35 76 -66 165 -86 249 -184 468 -214 480 -49 18
-95 -8 -95 -54 0 -15 12 -54 26 -86 48 -107 132 -338 173 -477 97 -323 130
-525 138 -842 8 -327 -18 -599 -83 -854 -62 -244 -146 -402 -298 -559 -47 -48
-87 -85 -90 -82 -3 3 8 51 25 105 36 121 72 291 96 457 13 94 17 190 17 403 0
298 -10 404 -59 643 -162 784 -637 1438 -1252 1724 -261 121 -585 183 -825
158 -371 -38 -653 -148 -950 -371 -116 -86 -338 -315 -429 -440 -282 -389
-443 -804 -515 -1329 -25 -175 -25 -594 0 -775 21 -154 55 -319 97 -468 17
-60 28 -111 25 -115 -4 -3 -45 21 -93 53 -153 104 -306 277 -363 409 -90 211
-118 633 -66 996 63 440 211 972 390 1394 25 60 46 113 46 118 0 17 -49 58
-70 58 -11 0 -31 -10 -43 -22 -27 -28 -123 -237 -184 -403 -48 -130 -57 -145
-83 -145 -23 0 -50 68 -59 145 -8 69 -25 76 -29 12 -3 -40 13 -113 34 -164 8
-17 -100 -36 -176 -31 -135 10 -251 99 -289 223 -11 34 -23 105 -27 157 -19
271 127 749 341 1106 104 174 153 241 475 643 154 192 280 354 280 360 0 21
18 3 99 -99 275 -342 576 -555 982 -697 57 -20 108 -40 113 -46 18 -17 62 -10
84 14 11 12 30 45 41 74 11 29 41 94 67 145 39 78 82 150 240 406 8 12 19 22
24 22 5 0 24 -24 40 -52 17 -29 62 -100 99 -159 84 -128 169 -283 200 -364 36
-93 86 -126 136 -91 11 7 47 21 79 30 233 68 527 223 726 383 101 81 273 261
394 411 54 67 102 122 107 122 4 0 31 -28 60 -62z m-1415 -1529 c358 -62 672
-234 959 -523 400 -404 647 -951 720 -1596 19 -175 19 -475 -1 -654 -29 -261
-124 -643 -180 -725 -31 -46 -30 -71 2 -106 23 -25 29 -27 67 -20 75 14 125 7
366 -50 269 -64 350 -90 428 -137 72 -43 143 -121 143 -157 0 -26 -24 -71 -38
-71 -4 0 -18 21 -31 46 -37 68 -141 153 -141 115 0 -5 20 -26 45 -46 26 -22
55 -59 71 -92 l27 -55 -24 -19 c-24 -18 -139 -65 -173 -71 -15 -2 -23 8 -37
49 -23 67 -50 113 -66 113 -17 0 -17 1 11 -61 14 -30 26 -67 28 -84 3 -28 1
-30 -42 -37 -87 -14 -332 -10 -445 7 -121 18 -356 65 -480 96 -258 65 -515
170 -579 238 -26 27 -28 33 -17 60 17 40 11 71 -21 94 -26 19 -26 19 -98 -2
-187 -57 -588 -70 -1055 -35 -344 25 -353 25 -377 -7 -18 -24 -19 -31 -7 -62
11 -30 10 -42 -7 -87 -16 -46 -26 -57 -71 -82 -79 -45 -608 -171 -884 -212
-138 -21 -352 -29 -454 -19 -77 8 -80 9 -77 33 1 14 18 56 37 94 36 72 37 83
10 72 -14 -5 -44 -62 -83 -159 -11 -25 -15 -27 -54 -21 -72 11 -150 38 -161
55 -15 24 9 102 45 147 26 33 28 37 12 41 -24 4 -60 -41 -80 -103 -15 -44 -18
-47 -32 -32 -14 14 -14 21 2 73 23 73 28 79 95 113 77 38 189 72 366 111 83
17 166 36 186 41 49 11 139 118 139 164 0 35 -27 64 -78 84 -41 16 -42 18 -87
170 -85 289 -119 534 -119 865 0 257 14 405 58 622 175 859 739 1562 1421
1771 266 81 498 97 761 51z m-3317 -1105 c-39 -82 -88 -185 -109 -229 -21 -44
-79 -165 -130 -270 -51 -104 -111 -230 -135 -280 -23 -49 -108 -225 -187 -390
-80 -165 -157 -326 -173 -358 -15 -32 -29 -56 -31 -54 -8 7 535 1157 814 1726
10 20 18 28 20 19 2 -8 -29 -82 -69 -164z m346 -33 c3 -6 -4 -52 -15 -103 -12
-51 -45 -210 -75 -353 -153 -740 -210 -1015 -399 -1933 -23 -108 -30 -131 -41
-121 -2 3 108 570 245 1260 137 690 250 1255 250 1257 0 7 30 1 35 -7z m315
-8 c0 -5 -9 -37 -21 -73 -40 -129 -108 -408 -133 -550 -71 -402 -74 -729 -10
-1049 l25 -124 -39 -41 c-434 -460 -577 -607 -579 -599 -3 8 147 744 292 1433
19 91 71 341 115 555 44 215 83 403 86 418 6 27 7 28 57 23 29 -4 77 -2 107 3
74 11 100 12 100 4z m-648 -1215 c-131 -652 -240 -1189 -243 -1193 -7 -6 -139
50 -139 59 0 3 36 141 79 308 44 167 143 546 221 843 78 297 171 653 206 790
73 280 104 389 109 383 2 -2 -103 -537 -233 -1190z m-81 951 c-38 -90 -85
-200 -104 -244 -19 -44 -74 -170 -122 -280 -48 -110 -106 -245 -130 -300 -23
-55 -75 -174 -115 -265 -40 -91 -91 -210 -115 -265 -51 -120 -147 -339 -165
-377 -10 -21 -22 -29 -57 -34 -24 -3 -47 -4 -50 0 -4 3 40 102 96 219 56 116
265 551 463 964 199 414 363 751 365 749 2 -2 -28 -77 -66 -167z m165 -90
c-19 -74 -56 -213 -81 -309 -25 -96 -72 -276 -105 -400 -120 -457 -144 -550
-201 -770 -83 -324 -116 -448 -123 -459 -10 -15 -126 28 -126 47 0 14 156 498
527 1632 75 228 138 410 140 404 2 -7 -12 -72 -31 -145z m-312 -709 c-124
-382 -256 -786 -292 -898 l-67 -202 -35 6 c-19 4 -37 8 -39 11 -7 6 19 80 324
903 158 426 296 801 308 833 12 32 23 55 24 50 2 -5 -98 -322 -223 -703z m59
435 c-3 -9 -8 -14 -10 -11 -3 3 -2 9 2 15 9 16 15 13 8 -4z m-63 -177 c-29
-79 -90 -244 -135 -368 -46 -124 -107 -288 -135 -365 -51 -138 -172 -463 -185
-497 -6 -14 -19 -18 -56 -18 -27 0 -49 3 -49 6 0 4 78 187 174 408 358 826
408 942 417 965 5 13 12 21 16 18 3 -4 -18 -71 -47 -149z m5868 -614 c272
-101 550 -301 702 -506 104 -138 215 -385 235 -520 7 -44 6 -46 -32 -68 -48
-29 -63 -47 -63 -79 0 -33 27 -61 60 -61 15 0 79 25 141 55 169 81 246 99 404
99 152 0 217 -18 410 -110 183 -87 232 -120 340 -229 55 -56 109 -107 120
-113 15 -8 54 -4 155 14 379 68 489 67 718 -8 133 -43 222 -113 320 -251 68
-98 90 -109 144 -79 l40 21 187 -20 c102 -10 216 -28 253 -39 96 -29 210 -108
263 -184 24 -34 53 -71 64 -83 23 -26 67 -30 95 -10 10 7 31 11 47 9 35 -5
127 -85 135 -117 16 -65 -125 -217 -251 -270 -67 -27 -175 -46 -270 -47 -219
-1 -410 58 -606 189 -62 41 -72 45 -95 35 -14 -7 -42 -9 -64 -6 -33 5 -52 0
-112 -29 -83 -41 -155 -61 -280 -78 -102 -14 -259 0 -362 32 -58 17 -67 18
-99 4 -21 -8 -88 -67 -154 -133 -65 -66 -151 -140 -191 -166 -208 -136 -475
-191 -742 -152 -137 20 -323 68 -402 103 l-57 25 -78 -43 c-43 -24 -97 -52
-121 -61 -63 -26 -196 -38 -298 -28 -82 9 -89 8 -136 -16 -27 -13 -97 -61
-156 -105 -278 -208 -493 -255 -757 -165 -136 47 -265 107 -372 174 -46 29
-86 52 -90 52 -5 1 -17 15 -28 33 -16 25 -28 33 -56 35 -31 3 -44 -4 -90 -43
-149 -128 -337 -222 -529 -266 -111 -26 -345 -36 -464 -20 -157 21 -359 98
-542 207 -98 58 -133 65 -164 34 -39 -39 -17 -84 70 -140 27 -18 50 -33 50
-35 0 -1 -30 -21 -67 -42 -154 -91 -307 -129 -478 -120 -127 7 -192 22 -277
67 -63 32 -176 116 -178 131 0 4 24 25 53 47 28 22 91 81 140 130 69 71 87 95
87 118 -1 49 -50 91 -93 78 -12 -3 -67 -50 -122 -103 -217 -210 -377 -288
-630 -309 -173 -15 -346 13 -526 84 -155 61 -223 105 -335 220 -112 115 -136
126 -174 77 -26 -33 -21 -58 21 -116 l30 -41 -26 -14 c-41 -21 -164 -50 -273
-63 -121 -14 -244 -2 -364 38 -121 40 -121 40 -33 101 99 69 116 112 62 162
-33 32 -63 24 -160 -41 -291 -195 -574 -267 -835 -213 -203 42 -395 173 -505
345 -36 57 -52 69 -88 69 -28 0 -59 -36 -59 -69 0 -29 -1 -29 -92 -46 -147
-28 -329 -24 -452 8 -128 34 -254 97 -386 192 -139 100 -145 103 -178 84 -16
-8 -31 -29 -37 -48 l-10 -34 -110 6 c-124 6 -228 27 -295 60 -35 18 -51 34
-72 77 -16 29 -28 63 -28 75 0 60 108 163 241 231 63 31 201 74 241 74 11 0
30 11 44 25 34 34 29 73 -13 101 l-33 22 38 34 c91 82 172 129 257 148 28 7
123 11 213 11 149 -1 164 1 182 19 27 27 25 66 -5 94 -14 13 -25 28 -25 34 0
6 30 42 67 79 149 150 324 194 574 143 129 -26 235 -66 366 -135 57 -30 114
-55 125 -55 24 0 58 27 58 46 0 7 10 16 23 19 12 4 45 24 72 45 193 147 334
192 605 194 l154 1 7 -40 c5 -33 19 -52 79 -108 75 -70 108 -86 145 -71 19 7
215 207 685 698 l66 68 44 -58 c106 -141 272 -284 422 -364 43 -23 77 -44 74
-47 -2 -3 -55 -14 -118 -24 -250 -43 -445 -110 -526 -183 -44 -40 -88 -135
-99 -211 -7 -56 20 -115 84 -179 60 -61 84 -73 211 -102 208 -47 454 -53 702
-18 223 32 757 151 875 195 68 25 147 74 188 117 17 17 35 54 45 93 l18 64 64
-2 c36 -1 152 -8 259 -17 252 -21 614 -21 791 0 l135 16 20 -29 c128 -182 440
-308 1040 -418 198 -36 276 -45 398 -45 371 0 611 95 711 280 57 104 28 200
-91 310 -116 106 -229 150 -543 214 -91 19 -182 37 -203 40 l-37 7 65 72 c104
115 151 184 215 312 63 127 116 299 145 469 18 107 21 116 35 116 6 0 55 -16
108 -36z m-6425 -151 c-8 -23 -33 -60 -33 -50 0 11 29 67 35 67 2 0 2 -8 -2
-17z m-57 -122 c-15 -28 -28 -51 -31 -51 -3 0 7 25 22 55 15 30 29 53 31 51 2
-2 -8 -27 -22 -55z"/>
<path d="M4803 16526 c-64 -21 -98 -51 -124 -108 -49 -111 -25 -314 66 -550
46 -119 184 -388 202 -395 39 -15 29 26 -44 171 -91 181 -135 292 -167 423
-34 134 -41 210 -26 275 27 115 74 148 211 148 103 0 168 -17 255 -65 66 -36
94 -39 94 -11 0 18 -77 66 -155 96 -75 28 -246 38 -312 16z"/>
<path d="M5330 16342 c0 -25 72 -121 91 -122 38 0 30 25 -29 98 -36 44 -62 54
-62 24z"/>
<path d="M5060 15260 c-13 -8 -11 -16 9 -55 24 -45 47 -58 57 -31 6 16 -17 66
-38 84 -9 7 -19 7 -28 2z"/>
<path d="M5730 14840 c0 -5 5 -10 10 -10 6 0 10 5 10 10 0 6 -4 10 -10 10 -5
0 -10 -4 -10 -10z"/>
<path d="M5520 14815 c-6 -8 -9 -19 -5 -25 9 -14 45 6 45 25 0 19 -24 19 -40
0z"/>
<path d="M5910 14790 c0 -5 5 -10 10 -10 6 0 10 5 10 10 0 6 -4 10 -10 10 -5
0 -10 -4 -10 -10z"/>
<path d="M5841 14744 c-51 -43 -35 -62 20 -23 28 19 39 49 20 49 -5 0 -23 -12
-40 -26z"/>
<path d="M5905 14589 c-4 -6 -4 -13 -1 -16 8 -8 36 5 36 17 0 13 -27 13 -35
-1z"/>
<path d="M5820 14525 c-7 -9 -10 -18 -7 -21 10 -10 47 7 47 22 0 19 -24 18
-40 -1z"/>
<path d="M5983 14473 c-13 -5 -19 -33 -7 -33 3 0 14 5 25 10 34 19 19 38 -18
23z"/>
<path d="M5887 14392 c-38 -39 -47 -62 -24 -62 15 0 77 72 77 89 0 20 -15 12
-53 -27z"/>
<path d="M6000 14300 c0 -5 5 -10 10 -10 6 0 10 5 10 10 0 6 -4 10 -10 10 -5
0 -10 -4 -10 -10z"/>
<path d="M9555 16596 c-85 -27 -182 -88 -285 -180 -229 -205 -250 -229 -215
-242 9 -4 63 39 147 117 168 155 228 199 324 239 65 27 87 31 136 28 79 -6
133 -44 171 -121 42 -85 88 -72 49 15 -28 63 -66 103 -124 132 -58 29 -134 34
-203 12z"/>
<path d="M9873 16243 c-20 -7 -17 -82 3 -90 19 -7 34 13 34 48 0 29 -18 49
-37 42z"/>
<path d="M8970 16048 c-37 -40 -120 -166 -120 -182 0 -9 8 -16 18 -16 22 0
156 185 148 206 -8 20 -22 17 -46 -8z"/>
<path d="M9823 16032 c-6 -4 -46 -83 -89 -177 -84 -185 -110 -236 -217 -425
-81 -143 -105 -181 -195 -303 -38 -52 -62 -93 -58 -102 8 -22 19 -19 53 18
116 121 340 507 483 831 51 115 59 141 48 152 -7 7 -18 10 -25 6z"/>
<path d="M8760 15725 c-10 -19 -11 -28 -2 -37 15 -15 52 16 52 44 0 27 -34 22
-50 -7z"/>
<path d="M8780 14920 c0 -5 5 -10 10 -10 6 0 10 5 10 10 0 6 -4 10 -10 10 -5
0 -10 -4 -10 -10z"/>
<path d="M8596 14891 c-4 -5 -2 -12 3 -15 5 -4 12 -2 15 3 4 5 2 12 -3 15 -5
4 -12 2 -15 -3z"/>
<path d="M8962 14883 c2 -10 13 -19 26 -21 24 -4 29 7 10 26 -18 18 -40 15
-36 -5z"/>
<path d="M8630 14853 c0 -13 53 -63 67 -63 20 0 16 14 -15 43 -27 26 -52 35
-52 20z"/>
<path d="M8572 14688 c5 -15 28 -18 29 -3 0 6 -7 12 -17 13 -10 3 -15 -1 -12
-10z"/>
<path d="M8645 14630 c-7 -12 11 -40 26 -40 14 0 10 26 -5 39 -10 9 -16 9 -21
1z"/>
<path d="M8482 14578 c6 -16 36 -34 44 -25 9 9 -15 37 -33 37 -8 0 -13 -5 -11
-12z"/>
<path d="M8550 14517 c0 -24 72 -99 83 -88 7 7 -2 25 -27 56 -38 45 -56 56
-56 32z"/>
<path d="M8460 14410 c0 -5 5 -10 10 -10 6 0 10 5 10 10 0 6 -4 10 -10 10 -5
0 -10 -4 -10 -10z"/>
<path d="M8676 14361 c-9 -14 79 -121 100 -121 25 0 15 21 -39 77 -36 38 -56
52 -61 44z"/>
<path d="M6150 11900 c-146 -22 -192 -34 -304 -72 -112 -40 -99 -48 20 -13
136 40 328 66 487 66 109 -1 137 2 137 13 0 8 -10 16 -22 20 -42 11 -202 4
-318 -14z"/>
<path d="M7953 11913 c-45 -3 -53 -7 -53 -24 0 -19 5 -19 103 -13 158 10 436
-27 610 -82 139 -43 127 -25 -16 26 -187 66 -472 107 -644 93z"/>
<path d="M6415 11801 c-118 -47 -263 -126 -251 -138 3 -3 20 3 38 14 18 10 58
28 88 40 180 69 220 87 217 96 -6 18 -20 17 -92 -12z"/>
<path d="M7880 11799 c0 -12 74 -45 185 -84 44 -15 106 -41 139 -57 32 -16 60
-27 63 -25 2 3 -22 21 -54 40 -158 95 -333 161 -333 126z"/>
<path d="M4953 10758 c-6 -7 -47 -89 -92 -182 -60 -126 -78 -172 -70 -182 6
-7 16 -11 23 -8 17 7 167 318 169 351 2 29 -15 40 -30 21z"/>
<path d="M5083 10738 c-24 -30 -174 -382 -169 -395 16 -41 43 -1 123 182 46
105 82 196 81 204 -4 20 -23 24 -35 9z"/>
<path d="M9257 10499 c-89 -181 -106 -229 -79 -229 19 0 44 42 121 201 90 184
105 229 75 229 -15 -1 -42 -48 -117 -201z"/>
<path d="M9522 10688 c-7 -7 -12 -16 -12 -20 0 -5 -34 -80 -75 -169 -41 -88
-75 -166 -75 -174 0 -25 23 -29 40 -7 24 29 160 338 160 362 0 22 -20 26 -38
8z"/>
<path d="M4721 10578 c-42 -72 -46 -102 -14 -96 20 4 97 143 88 158 -14 23
-35 6 -74 -62z"/>
<path d="M9607 10558 c-13 -24 -41 -76 -62 -117 -30 -61 -34 -76 -23 -87 7 -7
18 -10 24 -6 18 11 125 232 119 242 -13 21 -34 8 -58 -32z"/>
<path d="M9723 10516 c-47 -59 -66 -145 -30 -134 18 6 80 127 73 144 -8 20
-22 17 -43 -10z"/>
<path d="M6897 10202 c-36 -40 -40 -74 -14 -145 14 -37 40 -92 58 -123 51 -84
159 -206 202 -228 58 -28 48 -51 -48 -109 -94 -56 -181 -85 -283 -94 -77 -6
-96 -19 -72 -48 7 -8 26 -15 42 -15 28 0 229 -92 256 -117 18 -17 76 -26 125
-20 23 3 62 1 88 -5 41 -10 55 -8 139 21 92 32 168 72 182 96 4 7 28 16 52 19
24 4 50 14 56 21 22 27 -5 42 -88 48 -116 8 -248 58 -317 118 -43 38 -45 64
-5 84 42 22 104 110 161 229 53 112 70 192 49 231 -27 50 -58 55 -322 55 -224
0 -246 -2 -261 -18z m283 -726 c0 -84 -2 -97 -20 -109 -20 -14 -66 -12 -75 3
-3 4 -11 35 -19 69 l-14 62 51 34 c29 19 57 35 64 35 10 0 13 -25 13 -94z
m170 1 c0 -16 -5 -48 -11 -73 -9 -33 -17 -46 -34 -50 -34 -8 -62 3 -69 29 -7
28 -8 172 0 179 3 3 29 -8 59 -26 45 -26 54 -36 55 -59z"/>
<path d="M6278 9934 c-107 -16 -253 -64 -333 -109 -99 -55 -245 -154 -245
-166 0 -13 -13 -19 147 64 156 80 309 133 452 158 111 19 132 29 111 54 -14
17 -17 17 -132 -1z"/>
<path d="M7980 9915 c-18 -21 4 -45 42 -45 107 0 332 -72 522 -167 138 -69
180 -83 145 -48 -8 8 -73 50 -146 94 -142 85 -256 132 -380 155 -132 25 -170
27 -183 11z"/>
<path d="M6423 9811 c-78 -63 -233 -245 -219 -258 3 -3 39 25 81 63 41 38 106
96 143 128 37 33 68 67 70 77 6 33 -27 28 -75 -10z"/>
<path d="M7890 9801 c0 -11 19 -34 42 -53 24 -18 86 -73 138 -121 95 -88 141
-123 125 -95 -26 43 -155 195 -203 238 -59 53 -102 66 -102 31z"/>
<path d="M8265 11200 c-135 -22 -230 -52 -270 -84 -44 -35 -22 -45 33 -14 57
32 139 53 291 76 70 10 116 22 119 30 5 16 -36 14 -173 -8z"/>
<path d="M8339 10920 c-125 -22 -211 -150 -179 -268 14 -53 72 -119 125 -143
140 -64 307 42 308 196 1 129 -126 237 -254 215z m74 -86 c27 -42 40 -52 87
-67 30 -10 59 -22 63 -26 4 -5 -14 -17 -40 -29 -56 -24 -80 -48 -118 -119 -16
-29 -34 -53 -41 -53 -7 0 -28 28 -46 63 -25 46 -45 70 -80 92 -26 17 -48 33
-48 37 0 4 21 18 47 31 34 16 59 40 87 81 24 34 43 53 48 48 5 -5 24 -31 41
-58z"/>
<path d="M8927 10874 c-4 -4 -4 -24 -1 -46 6 -33 4 -38 -13 -38 -29 0 -44 -19
-32 -41 7 -14 17 -17 39 -12 27 5 30 3 30 -19 0 -13 5 -29 11 -35 20 -20 39
-3 39 33 0 28 5 36 25 44 15 6 25 17 25 30 0 16 -7 20 -33 20 -28 0 -34 4 -42
32 -10 31 -33 47 -48 32z"/>
<path d="M8978 10557 c-35 -52 -79 -150 -74 -163 13 -34 38 -10 81 76 25 50
43 95 40 100 -10 17 -32 11 -47 -13z"/>
<path d="M8690 10488 c-36 -10 -110 -22 -165 -26 -94 -7 -100 -8 -103 -29 -3
-22 -1 -23 87 -23 171 0 323 47 295 91 -8 13 -40 9 -114 -13z"/>
<path d="M8700 10320 c-41 -11 -108 -19 -147 -20 -58 0 -73 -3 -73 -15 0 -21
118 -20 213 1 82 19 110 31 102 45 -8 11 -4 12 -95 -11z"/>
<path d="M5930 11211 c0 -16 10 -18 130 -36 138 -20 209 -39 273 -73 49 -26
70 -25 47 3 -34 41 -136 74 -307 100 -119 17 -143 18 -143 6z"/>
<path d="M5957 10918 c-211 -45 -242 -330 -45 -412 139 -59 297 46 298 197 0
136 -125 243 -253 215z m90 -78 c27 -39 52 -62 87 -79 48 -24 48 -25 28 -40
-11 -9 -36 -29 -57 -44 -20 -16 -47 -52 -62 -83 -14 -30 -32 -54 -40 -54 -8 0
-21 17 -29 38 -25 60 -62 101 -115 127 -27 14 -49 29 -49 34 0 5 25 17 55 26
51 14 58 21 93 75 20 33 40 59 44 58 4 -2 24 -28 45 -58z"/>
<path d="M5386 10865 c-3 -9 -6 -25 -6 -36 0 -13 -7 -19 -24 -19 -13 0 -30 -7
-37 -16 -11 -14 -10 -18 6 -30 10 -8 27 -14 38 -14 16 0 18 -5 13 -34 -5 -24
-2 -37 9 -46 22 -18 45 5 45 46 0 31 2 33 37 36 64 5 56 57 -8 58 -24 0 -27 4
-25 33 1 26 -3 33 -20 35 -13 2 -24 -4 -28 -13z"/>
<path d="M5435 10509 c-28 -54 -29 -84 -5 -84 16 0 74 111 65 126 -14 21 -36
6 -60 -42z"/>
<path d="M5570 10491 c0 -12 11 -26 28 -35 49 -25 169 -46 262 -46 89 0 91 1
88 23 -3 20 -9 22 -98 28 -52 4 -122 14 -155 24 -33 9 -75 19 -92 22 -28 4
-33 2 -33 -16z"/>
<path d="M5580 10325 c0 -23 133 -54 238 -55 57 0 72 3 72 15 0 12 -15 15 -72
15 -40 0 -107 9 -148 20 -90 24 -90 24 -90 5z"/>
<path d="M5770 3115 c0 -19 69 -38 250 -69 166 -29 391 -49 404 -36 5 5 6 16
3 24 -5 12 -20 16 -59 16 -97 0 -386 39 -518 69 -62 14 -80 14 -80 -4z"/>
<path d="M8845 3100 c-39 -11 -276 -45 -427 -61 -88 -9 -118 -16 -118 -26 0
-7 7 -16 15 -19 18 -7 186 9 380 37 185 26 215 35 215 59 0 22 -15 24 -65 10z"/>
<path d="M7104 2382 c-84 -29 -277 -178 -245 -190 7 -2 25 5 40 17 147 118
206 151 289 158 64 6 166 -8 241 -34 49 -17 167 -89 190 -116 18 -22 43 -22
39 0 -4 21 -85 85 -151 119 -116 60 -301 81 -403 46z"/>
<path d="M11333 2380 c-57 -12 -183 -81 -204 -113 -4 -6 -42 4 -90 22 -122 47
-232 71 -326 71 -111 0 -171 -14 -278 -65 -87 -41 -265 -159 -265 -176 0 -23
26 -17 73 18 198 148 343 202 510 190 86 -6 246 -49 343 -92 70 -31 76 -31 68
-1 -4 19 2 28 43 54 89 57 117 65 228 60 116 -5 167 -23 257 -94 64 -50 98
-51 51 -2 -43 46 -107 87 -167 108 -65 22 -185 32 -243 20z"/>
<path d="M2843 2349 c-88 -11 -174 -34 -269 -72 -64 -26 -87 -31 -110 -24 -47
14 -233 10 -309 -6 -100 -22 -181 -50 -175 -62 6 -12 -3 -13 135 19 160 37
388 35 316 -3 -17 -10 -31 -41 -17 -41 2 0 35 18 72 40 189 110 480 152 689
100 108 -27 179 -57 263 -112 61 -40 87 -44 66 -10 -20 31 -143 99 -237 130
-145 48 -275 61 -424 41z"/>
<path d="M4265 2049 c-116 -15 -201 -54 -347 -156 -82 -57 -93 -68 -83 -82 3
-6 42 17 88 49 166 120 273 160 427 160 191 0 342 -57 472 -180 70 -64 98 -82
98 -62 0 4 -7 18 -16 30 -21 30 -13 39 53 52 109 23 242 -6 323 -70 32 -25 44
-30 53 -21 9 10 8 15 -6 26 -18 13 -18 15 10 49 42 54 102 93 184 119 240 78
358 51 527 -120 67 -68 94 -90 98 -78 13 32 -127 172 -223 222 -114 60 -207
65 -363 22 -110 -30 -176 -67 -229 -126 l-47 -52 -49 24 c-28 14 -83 30 -122
37 -73 12 -75 12 -236 -19 -22 -4 -37 2 -67 26 -141 113 -365 175 -545 150z"/>
<path d="M8329 1996 c-133 -34 -285 -109 -405 -199 -108 -82 -225 -217 -188
-217 3 0 35 31 70 69 141 152 350 273 549 316 68 16 92 16 165 7 180 -24 351
-106 511 -244 31 -26 62 -48 68 -48 22 0 10 29 -21 55 l-33 26 25 20 c70 58
211 109 303 109 116 0 280 -62 396 -151 31 -23 59 -38 68 -35 21 8 4 28 -67
76 -183 124 -366 169 -515 126 -68 -20 -145 -57 -192 -92 -17 -13 -37 -24 -43
-24 -6 0 -34 18 -63 39 -70 53 -195 116 -292 147 -99 32 -252 41 -336 20z"/>
<path d="M4492 14197 c-19 -20 -22 -35 -22 -99 0 -84 18 -120 65 -132 33 -8
83 18 96 51 15 40 0 154 -24 181 -28 31 -86 30 -115 -1z"/>
<path d="M4530 13887 c-38 -19 -47 -48 -54 -182 -4 -69 -11 -138 -17 -154 -11
-32 -69 -67 -158 -96 -69 -23 -91 -45 -91 -93 0 -48 25 -72 100 -95 31 -9 77
-30 103 -47 41 -25 54 -42 81 -103 18 -39 36 -89 40 -109 8 -42 46 -78 83 -78
14 0 37 13 54 30 29 28 30 32 28 120 -2 76 1 95 17 118 21 29 175 111 210 112
29 0 64 41 64 74 0 47 -18 65 -104 105 -49 23 -102 57 -128 82 -46 45 -46 44
-88 214 -12 49 -56 102 -90 110 -14 3 -36 -1 -50 -8z"/>
<path d="M3472 13467 c-16 -17 -29 -58 -47 -146 -57 -283 -207 -753 -287 -903
-40 -75 -113 -143 -169 -158 -25 -7 -96 -11 -164 -10 -66 2 -128 2 -137 1 -27
-2 -78 -78 -78 -116 0 -40 12 -54 84 -96 71 -41 285 -262 393 -406 108 -144
166 -276 203 -466 17 -87 40 -282 40 -340 0 -10 11 -29 25 -42 32 -33 84 -33
120 -2 31 27 91 182 176 455 33 108 70 220 82 247 23 54 231 338 291 399 36
35 223 136 279 150 63 15 88 87 48 137 -18 23 -25 24 -153 24 -150 1 -231 21
-307 75 -49 36 -72 78 -127 242 -73 215 -86 303 -91 608 -5 289 -2 271 -70
346 -29 32 -81 33 -111 1z m48 -772 c17 -95 95 -335 135 -416 43 -84 130 -167
211 -199 33 -13 61 -25 63 -27 3 -2 -20 -29 -51 -61 -76 -78 -263 -332 -304
-413 -18 -37 -54 -134 -79 -215 -25 -82 -48 -156 -51 -164 -4 -8 -12 12 -19
45 -34 156 -131 377 -237 537 -32 47 -101 130 -153 184 -52 54 -93 99 -92 101
2 1 34 14 71 28 82 31 137 67 192 127 104 113 225 334 265 483 13 50 25 81 29
73 4 -7 13 -44 20 -83z"/>
<path d="M5095 13445 c-42 -41 -33 -105 17 -131 56 -29 138 11 138 67 0 78
-101 119 -155 64z"/>
<path d="M4020 13402 c-39 -39 -39 -74 -1 -113 36 -35 70 -37 107 -5 54 46 30
127 -43 142 -27 5 -37 1 -63 -24z"/>
<path d="M4602 12847 c-30 -31 -30 -104 -1 -141 27 -35 86 -36 117 -3 32 34
31 115 -1 145 -32 30 -87 29 -115 -1z"/>
<path d="M10530 12687 c-32 -16 -54 -61 -45 -95 3 -14 46 -66 94 -114 82 -82
91 -88 129 -88 32 0 45 6 61 26 41 52 30 78 -71 180 -97 97 -126 113 -168 91z"/>
<path d="M10992 12555 c-94 -79 -102 -89 -102 -121 0 -44 37 -84 79 -84 31 0
108 52 194 132 54 51 61 87 26 132 -15 20 -29 26 -57 26 -32 0 -52 -12 -140
-85z"/>
<path d="M10635 12269 c-97 -56 -115 -75 -115 -119 0 -44 33 -80 75 -80 33 0
181 84 195 110 23 44 7 95 -37 118 -33 18 -42 15 -118 -29z"/>
<path d="M10955 12208 c-61 -35 -59 -80 7 -181 67 -102 102 -118 157 -71 45
38 41 70 -19 164 -61 93 -98 115 -145 88z"/>
<path d="M12207 12080 c-14 -11 -30 -20 -37 -20 -6 0 -22 -11 -35 -25 -21 -20
-25 -34 -25 -82 -1 -121 -41 -246 -125 -389 -94 -159 -175 -240 -263 -263 -66
-18 -91 -59 -92 -149 0 -40 43 -72 95 -72 65 0 102 -19 178 -90 94 -88 150
-166 219 -307 51 -104 61 -132 65 -190 5 -83 17 -108 55 -124 24 -10 35 -9 63
4 42 20 43 24 48 207 3 80 10 170 17 200 17 78 67 175 115 225 57 58 144 115
177 115 66 0 105 43 95 106 -9 57 -41 84 -98 84 -45 0 -49 3 -109 67 -89 94
-125 157 -170 291 -38 111 -40 124 -40 239 0 132 -8 165 -47 182 -35 16 -57
14 -86 -9z m36 -529 c32 -92 79 -168 165 -267 l61 -70 -63 -57 c-71 -62 -127
-141 -160 -223 -13 -31 -27 -54 -32 -52 -5 2 -25 27 -44 56 -40 59 -200 225
-240 248 l-25 15 65 67 c73 74 154 192 203 294 18 37 34 67 37 67 3 1 18 -35
33 -78z"/>
<path d="M9485 11990 c-8 -13 19 -73 52 -115 120 -152 490 -315 714 -315 41 0
101 5 133 11 32 6 60 8 63 6 2 -3 -31 -32 -74 -65 -43 -33 -122 -105 -176
-161 -77 -80 -106 -117 -135 -178 -35 -73 -37 -84 -37 -173 0 -86 3 -101 32
-162 20 -42 38 -68 48 -68 28 0 28 30 -1 93 -23 51 -29 76 -29 138 0 67 4 83
38 151 54 110 156 213 364 370 95 72 173 137 173 145 0 26 -31 25 -123 -5
-110 -37 -248 -57 -328 -48 -257 29 -585 201 -658 345 -20 39 -43 52 -56 31z"/>
<path d="M2646 10637 c-17 -17 -25 -40 -30 -86 -23 -204 -166 -414 -342 -501
-83 -42 -100 -69 -84 -130 9 -32 22 -48 58 -73 154 -106 251 -252 312 -472 18
-63 21 -95 17 -154 -8 -100 15 -140 78 -140 35 0 51 10 89 61 26 34 27 41 21
105 -5 55 -2 86 20 168 30 117 107 282 161 344 50 58 119 101 161 101 46 0 83
37 83 83 0 47 -13 59 -115 112 -49 25 -118 68 -152 95 -118 94 -151 175 -139
343 4 68 2 95 -9 117 -28 54 -89 67 -129 27z m101 -547 c29 -31 76 -73 106
-95 l54 -39 -48 -47 c-58 -56 -130 -165 -167 -253 l-28 -64 -34 66 c-44 85
-139 211 -185 246 l-35 27 58 43 c55 41 122 112 172 185 l24 34 15 -24 c9 -13
39 -49 68 -79z"/>
<path d="M10170 10639 c0 -31 172 -198 235 -229 28 -13 83 -34 124 -46 l74
-21 -92 -48 c-107 -55 -210 -149 -259 -235 -37 -63 -39 -80 -13 -80 11 0 31
21 55 59 20 33 67 88 105 123 56 52 94 76 195 123 90 42 126 63 126 76 0 21
-20 29 -72 29 -138 0 -306 88 -408 214 -48 59 -70 70 -70 35z"/>
<path d="M11063 10336 l-28 -24 -6 -204 c-6 -179 -10 -213 -33 -291 -47 -159
-125 -288 -240 -402 -80 -78 -149 -117 -252 -141 -117 -28 -143 -83 -80 -166
26 -34 50 -51 93 -68 106 -43 189 -88 269 -148 87 -66 135 -118 216 -238 176
-258 200 -341 199 -677 l-1 -199 29 -29 c33 -32 58 -36 101 -14 34 18 37 24
50 145 27 247 126 632 201 783 55 109 101 161 197 220 49 30 124 69 168 87 43
18 87 41 97 52 17 20 22 63 11 92 -9 24 -88 74 -136 87 -110 29 -246 123 -331
226 -140 173 -220 337 -312 642 -52 172 -87 258 -113 277 -27 21 -68 16 -99
-10z m161 -621 c113 -269 275 -476 465 -593 l81 -49 -84 -51 c-46 -29 -107
-77 -138 -110 -67 -73 -144 -219 -187 -357 -18 -55 -34 -107 -37 -115 -3 -9
-14 8 -28 43 -30 73 -152 268 -225 360 -95 119 -210 215 -339 282 l-53 28 43
25 c187 110 344 319 424 564 15 48 29 86 30 85 1 -1 22 -51 48 -112z"/>
<path d="M3926 10071 c-4 -5 -16 -40 -27 -78 -47 -152 -119 -275 -223 -379
-96 -95 -214 -166 -356 -214 -36 -12 -68 -27 -72 -33 -18 -29 15 -35 230 -39
192 -4 225 -7 282 -27 56 -20 162 -74 236 -121 24 -15 54 -8 54 14 0 7 -21 27
-47 43 -162 101 -247 130 -414 143 -67 5 -123 11 -126 14 -3 2 15 14 39 27
115 58 253 183 326 298 94 146 161 361 113 361 -5 0 -12 -4 -15 -9z"/>
<path d="M10210 9905 c-13 -16 -16 -66 -5 -114 8 -37 -14 -87 -55 -126 -34
-32 -39 -55 -12 -55 22 0 73 53 96 98 14 26 15 49 10 122 -4 50 -10 90 -14 90
-4 0 -13 -7 -20 -15z"/>
<path d="M4100 9115 c0 -8 11 -48 25 -88 13 -40 31 -125 39 -188 30 -230 -10
-330 -242 -608 -49 -58 -60 -77 -51 -87 6 -8 16 -14 21 -14 5 0 57 28 116 62
143 83 404 212 513 254 100 39 220 59 294 49 28 -3 85 -22 127 -42 73 -34 115
-38 106 -10 -7 18 -63 53 -126 79 -72 28 -234 31 -329 5 -76 -21 -261 -103
-430 -192 -69 -36 -128 -64 -130 -61 -2 2 22 39 54 83 123 166 154 283 129
480 -15 113 -53 250 -77 279 -15 18 -39 18 -39 -1z"/>
</g>
</svg>
