<?xml version="1.0" encoding="utf-8"?>
<!-- Generator: Adobe Illustrator 17.0.0, SVG Export Plug-In . SVG Version: 6.00 Build 0)  -->
<!DOCTYPE svg PUBLIC "-//W3C//DTD SVG 1.1//EN" "http://www.w3.org/Graphics/SVG/1.1/DTD/svg11.dtd">
<svg version="1.1" id="Lager_1" xmlns="http://www.w3.org/2000/svg" xmlns:xlink="http://www.w3.org/1999/xlink" x="0px" y="0px"
	 width="500px" height="500px" viewBox="0 0 500 500" enable-background="new 0 0 500 500" xml:space="preserve">
<g>
	<path fill-rule="evenodd" clip-rule="evenodd" fill="#FFFFFF" stroke="#FFFFFF" stroke-width="4" stroke-miterlimit="10" d="
		M363.362,390.705c6.719-15.493,6.132-39.22,3.36-58.079c-3.789-25.786-11.991-47.139-21.601-66.721
		c7.441-10.243,18.729-18.683,17.04-35.52c-0.4-3.997-1.878-9.108-3.6-12.72c-0.737-1.548-2.025-2.665-3.12-4.08
		c-1.016-1.312-1.69-2.839-2.64-3.84c-2.752-2.899-6.81-5.09-10.8-6.961c-4.037-1.892-8.288-3.688-12.48-5.519
		c-4.312-1.885-8.734-3.157-12.72-5.04c-7.524-3.555-12.533-8.184-17.521-14.16c-2.083-2.497-4.095-5.225-6-7.92
		c-3.849-5.446-7.654-10.974-11.52-16.08c-3.539-4.675-7.108-10.745-11.04-16.56c-2.074-3.067-5.208-6.563-7.681-9.6
		c-1.232-1.515-4.004-4.812-4.319-6.24c-0.523-2.359,0.108-4.958,0-7.44c-0.284-6.456-0.824-12.471-1.92-18
		c-0.638-3.218-0.975-6.586-2.4-9.36c-1.48-0.805-3.495-2.065-5.04-1.44c-3.405,1.378-5.349,4.69-7.2,8.4
		c-3.315,6.642-6.592,17.365-7.92,24.48c-7.682,1.358-13.818,4.262-19.68,7.44c-0.941-2.552-1.781-5.05-2.64-7.68
		c-0.827-2.53-1.329-5.401-2.4-8.16c-0.742-1.911-2.11-3.863-3.6-6.24c-1.179-1.881-2.447-5.16-4.8-5.04
		c-2.852,0.145-5.554,8.103-6.24,10.32c-3.888,12.565-5.411,29.889-3.36,44.16c-1.765,2.982-2.015,7.763-2.4,12.24
		c-0.883,10.263-0.573,18.657-0.48,27.36c0.073,6.876-0.213,13.44,0.72,19.68c0.43,2.874,0.875,5.779,1.44,8.64
		c0.549,2.776,1.618,5.599,1.92,8.4c0.585,5.432-0.102,11.168-0.24,16.8c-0.272,11.076-0.509,22.179-2.64,31.92
		c-1.091,4.989-2.434,9.747-3.6,14.64c-1.115,4.678-2.493,9.341-4.08,13.92c-1.559,4.497-2.757,9.136-4.56,13.681
		c-1.509,3.802-3.788,8.116-5.52,12.479c-0.756,1.905-1.572,4.202-2.64,6.48c-0.974,2.077-1.954,5.211-2.88,6.24
		c-0.382,0.425-1.531,0.918-2.4,1.44c-7.682,4.608-16.011,7.354-21.12,14.16c-1.564,2.083-3.127,4.857-3.12,7.92
		c0.011,4.99,2.708,11.651,7.2,12.48c0.556,0.936,1.131,1.967,1.92,2.64c0.914,0.779,2.258,0.834,2.88,1.92
		c0.996,5.404,1.014,13.065,1.2,18.481c-4.988,1.049-9.193,2.604-14.16,4.319c-3.664,1.266-10.615,3.544-10.8,7.681
		c-0.083,1.848,1.805,4.164,3.36,4.8c2.097,0.856,5.931,0.372,8.4,0.479c5.611,0.244,10.966,0.541,16.08,0.24
		c8.565-0.503,16.3-0.841,24.24-1.68c5.634-0.596,11.132-1.074,14.64-3.36c2.82-4.398-0.105-9.759-0.96-14.88
		c-0.587-3.515-1.079-6.715-1.2-9.84c4.639,1.318,8.803,3.67,13.44,5.28c2.345,0.813,4.791,1.379,7.2,2.159
		c11.89,3.852,23.896,7.855,36.72,10.561c0.071,1.911-0.177,3.503-0.48,5.04c-5.967,1.688-12.518,4.147-18.48,5.76
		c-2.025,0.548-4.304,0.749-6,1.68c-1.415,0.776-2.82,2.205-3.6,3.601c-0.865,0.473-0.95,0.323-1.2,1.2
		c-0.754,2.642,2.293,5.068,4.32,5.76c4.356,1.486,11.975,0.339,15.6,1.2c-1.234,2.445-3.577,3.783-4.32,6.72
		c-1.76,1.179-3.67,2.617-5.52,4.08c-1.575,1.245-4.235,2.772-3.6,5.519c4.81-0.151,11.151-2.128,15.36-2.88
		c-2.401,0.692-4.309,2.642-6.72,3.601c-2.224,0.884-4.76,0.896-6.72,2.399c-0.129,1.717,1.836,1.922,3.12,2.4
		c4.063,1.513,9.758,1.695,14.16,0.96c-1.763,0.877-4.47,0.81-5.52,2.399c0.535,2.287,3.983,2.84,6.72,2.881
		c1.582,0.023,3.159-0.575,4.56-0.48c1.137,0.487,0.96,1.125,2.16,1.44c1.434,0.377,4.711,0.181,6,0
		c1.525-0.215,3.401-1.088,5.04-1.681c6.527-2.362,10.238-5.57,14.399-10.08c3.113-3.373,5.003-7.281,6.96-10.56
		c12.984-5.402,27.285-7.817,39.6-13.2c8.917-3.897,17.69-9.171,24-15.6c4.05-4.127,6.969-9.324,9.84-14.4
		C361.131,395.726,362.267,393.233,363.362,390.705z"/>
	<path fill-rule="evenodd" clip-rule="evenodd" fill="#FFFFFF" stroke="#FFFFFF" stroke-width="4" stroke-miterlimit="10" d="
		M409.202,385.185c-2.539-4.421-6.599-7.321-11.519-9.36c1.734-4.071,5.841-7.028,11.519-7.199c2.234-0.068,5.737-0.054,7.44,0.72
		c2.218,1.007,4.047,4.399,5.28,6c0.501,0.651,0.745,2.081,2.16,1.68c0.708-1.949-0.961-4.036-2.16-5.52
		c-1.014-1.253-2.708-3.433-4.08-4.08c-3.804-1.794-11.938-0.944-15.12,0.479c-3.277,1.467-4.543,3.199-6.24,5.28
		c-1.709-5.049-7.428-8.819-13.68-8.64c-3.935,0.112-8.354,1.066-11.04,3.359c-1.203,1.027-3.274,3.07-2.4,5.04
		c1.732-0.245,2.119-1.806,3.36-2.88c6.935-6.002,21.335-3.659,22.32,5.521c-7.181-0.061-11.175,3.065-13.681,7.68
		c-0.988-0.336-1.999-1.835-3.6-2.4c-2.077-0.733-7.237-1.544-7.2,1.44c5.097-0.655,10.831,2.622,13.44,6
		c1.584,2.051,2.154,4.261,1.68,6.96c-1.84-0.655-4.534-2.435-7.44-2.88c-1.995-0.306-7.638-1.055-7.68,2.16
		c0.938,0.919,1.497-0.11,2.64-0.24c4.143,0.331,6.863,0.524,9.841,1.92c1.212,0.568,4.043,2.253,4.8,2.88
		c1.647,1.365,1.918,4.206,4.319,4.32c0.729-0.904-0.274-1.68-0.239-2.641c2.74-3.235,8.35-6.352,14.16-6
		c2.101,0.128,3.711,1.622,5.76,1.2c0.265-1.377-1.22-2.271-2.16-2.64c-2.838-1.111-5.864-0.317-8.64-0.48
		c2.824-4.017,11.921-8.307,19.439-5.76c1.551,0.525,2.576,2.308,4.32,1.68C423.56,383.655,413.973,384.091,409.202,385.185z"/>
	<path fill-rule="evenodd" clip-rule="evenodd" fill="#FFFFFF" stroke="#FFFFFF" stroke-width="4" stroke-miterlimit="10" d="
		M112.082,411.585c-0.675,1.048-1.698,3.246-0.48,4.319c1.522-0.324,1.421-2.115,2.16-3.12c2.953-4.014,8.23-6.458,15.36-5.519
		c0.564,0.716,1.412,1.148,2.64,1.2c0.69,0.511,1.453,1.956,2.64,1.2c0.658-2.083-2.076-2.902-3.6-3.601
		c-2.106-0.965-4.429-1.514-7.44-0.96c-1.076-1.403-2.741-2.219-3.6-3.84c1.089-1.589,1.494-3.393,2.88-4.8
		c5.332-5.412,16.671-5.945,22.08-0.481c0.28,1.316-0.709,1.955-0.24,3.601c1.237,0.529,2.216-1.181,3.36-1.92
		c1.317-0.852,3.866-1.275,3.6-2.881c-1.054-1.543-2.965,0.602-4.32,0.96c-2.366-3.113-6.572-5.289-11.28-5.76
		c-7.757-0.775-14.156,3.512-17.04,8.16c-0.331,0.789-0.188,2.052-0.96,2.4c-6.694-2.18-13.477-1.741-18.48,0.96
		c-1.731,0.935-3.717,1.924-4.8,2.88c-2.107,1.86-3.059,4.746-4.32,7.2c-6.249-0.228-10.556,1.539-13.68,4.319
		c-0.715,0.637-2.445,1.683-1.2,2.88c0.869,0.871,1.264-0.663,1.68-0.96c1.848-1.317,4.016-2.682,6.24-3.359
		c6.053-1.846,13.118-0.325,16.32,3.359c0.417,1.695,2.267,3.131,1.92,4.801c-2.177,0.063-4.523,0.061-6.48,0.72
		c-1.803,0.606-6.182,3.356-7.2,4.56c-0.658,0.778-1.912,2.692-0.48,3.6c0.955,0.067,1.239-0.946,1.68-1.44
		c3.229-3.613,8.376-5.819,14.88-5.52c2.27,0.104,4.487,0.958,6,1.92c2.049,1.303,3.241,4.492,6,4.08
		c0.071-2.232-1.953-2.367-2.4-4.08c-2.794-1.847-5.388-3.893-9.84-4.08c-0.959-6.806-5.936-8.693-11.04-11.04
		c0.804-0.984,0.845-2.413,1.68-3.601c1.382-1.966,6.444-5.336,10.32-6.239c6.037-1.407,14.131,0.508,16.08,4.08
		c-0.966,0.634-2.451,0.783-3.6,1.439C115.639,407.872,113.059,410.068,112.082,411.585z"/>
	<path fill-rule="evenodd" clip-rule="evenodd" fill="#FFFFFF" stroke="#FFFFFF" stroke-width="4" stroke-miterlimit="10" d="
		M362.642,399.105c3.123,0.759,5.966,0.902,8.16,2.16c1.341,0.769,2.031,2.535,3.6,2.4c0.139-4.459-7.751-6.315-11.28-6
		C362.59,397.834,362.325,398.791,362.642,399.105z"/>
	<path fill-rule="evenodd" clip-rule="evenodd" fill="#FFFFFF" stroke="#FFFFFF" stroke-width="4" stroke-miterlimit="10" d="
		M213.842,429.585c-1.655-1.59-3.825-2.795-5.76-3.841c0.982-7.738,10.893-13.476,19.68-10.8c2.509,0.765,4.401,2.82,6.961,3.36
		c0.642-1.938-1.646-3.265-3.36-4.08c-4.411-2.097-11.127-2.661-16.08-0.481c-2.691-3.708-6.858-5.941-12.72-6.479
		c0.834-1.378,1.914-2.542,3.36-3.36c0.918-0.519,2.438-0.476,2.88-1.68c-0.154-0.726-0.375-1.385-1.2-1.441
		c-3.155,1.486-5.93,3.351-7.44,6.481c-1.406,0.114-2.972,0.067-2.88,1.68c0.585,1.102,2.129,0.476,3.12,0.481
		c5.536,0.023,10.546,1.559,12.72,5.28c-2.381,2.025-5.118,4.06-6.24,7.199c-0.378,1.058,0.085,2.303-0.96,3.12
		c-8.526-1.339-16.103,0.963-18.72,6.96c-7.175-0.535-10.808,2.472-14.16,5.76c-2.327-1.908-7.683-2.769-12.48-2.399
		c-2.986,0.229-6.641,0.905-6.72,3.6c1.453,0.669,2.463-0.563,3.84-0.96c4.847-1.395,11.703-0.593,15.12,1.92
		c1.345,0.989,2.431,2.554,3.12,3.6c0.563,0.854,0.708,2.392,2.16,2.64c1.969-2.699-1.906-5.115-2.88-7.2
		c4.44-7.445,21.866-5.684,24.24,2.4c-3.563,1.39-7.335,3.636-9.84,6.24c-1.045,1.086-2.542,2.853-1.92,4.8
		c1.923,0.095,2.106-1.775,3.12-2.88c4.13-4.5,11.506-8.358,19.921-7.2c2.124,0.292,3.328,1.602,5.76,1.92
		c0.968-2.247-2.335-3.352-4.32-3.84c-3.357-0.827-7.902,0.037-11.04,0.479c-1.074-5.807-6.773-6.987-11.76-8.88
		c2.316-2.902,6.232-5.123,10.8-5.279c5.399-0.185,9.861,1.986,12.48,4.56c0.753,0.74,0.892,1.865,1.92,2.16
		c0.976,0.464,0.469,2.411,2.4,1.92C217.544,432.722,215.288,430.974,213.842,429.585z"/>
	<path fill-rule="evenodd" clip-rule="evenodd" fill="#FFFFFF" stroke="#FFFFFF" stroke-width="4" stroke-miterlimit="10" d="
		M395.522,410.385c-3.573-3.198-12.32-6.418-18-3.36c-0.561,0.302-0.853,1.032-1.44,1.44c-0.664,0.46-1.642,0.567-2.16,0.96
		c-1.161,0.878-1.483,2.079-2.88,2.88c-0.868-0.093-1.146-0.774-1.681-1.2c0.247,0.807-0.746,0.374-1.2,0.48
		c-1.735-0.544-4.402-0.846-6.72-0.48c-2.067,0.326-5.012,1.154-6.24,1.92c-0.931,0.581-2.19,2.013-1.439,3.36
		c1.75,0.171,2.104-1.146,3.12-1.68c6.589-3.47,14.093-1.041,18.239,2.88c1.285,1.215,1.841,3.06,3.601,3.359
		c1.052-1.718-0.677-3.274-1.68-4.319c-1.188-1.236-2.95-2.023-3.601-3.36c0.831-1.169,1.51-2.49,3.601-2.4
		c3.768-5.593,14.879-1.98,18.239,2.4c0.733,0.956,0.637,2.277,1.92,2.64C399.405,414.156,396.688,411.428,395.522,410.385z"/>
	<path fill-rule="evenodd" clip-rule="evenodd" fill="#FFFFFF" stroke="#FFFFFF" stroke-width="4" stroke-miterlimit="10" d="
		M179.762,430.545c0.159-1.733-1.421-3.358-2.64-4.32c-2.796-2.208-7.926-4.849-12-3.84c-0.276,0.283-0.272,0.849-0.24,1.439
		c4.439,0.241,7.725,1.647,10.32,3.36C176.825,428.256,177.829,430.056,179.762,430.545z"/>
	<path fill-rule="evenodd" clip-rule="evenodd" fill="#FFFFFF" stroke="#FFFFFF" stroke-width="4" stroke-miterlimit="10" d="
		M156.002,435.345c1.563-2.061-1.607-3.282-1.68-5.28c-2.933-3.696-9.086-7.106-16.08-6c-3.736,0.591-9.32,3.342-9.6,6.24
		c1.674,0.26,2.945-1.341,4.32-2.16c6.695-3.988,16.123-2.438,20.16,3.36c0.257,0.862,0.751,1.488,1.2,2.16
		C154.865,434.243,154.532,435.696,156.002,435.345z"/>
</g>
<path fill-rule="evenodd" clip-rule="evenodd" d="M345.122,265.905c9.609,19.582,17.811,40.935,21.601,66.721
	c2.771,18.859,3.358,42.586-3.36,58.079c-1.096,2.528-2.231,5.021-3.6,7.44c-2.871,5.076-5.79,10.273-9.84,14.4
	c-6.31,6.429-15.083,11.702-24,15.6c-12.315,5.383-26.616,7.798-39.6,13.2c-1.957,3.278-3.847,7.187-6.96,10.56
	c-4.161,4.51-7.872,7.718-14.399,10.08c-1.639,0.593-3.516,1.466-5.04,1.681c-1.289,0.181-4.566,0.377-6,0
	c-1.2-0.315-1.023-0.953-2.16-1.44c-1.401-0.095-2.978,0.504-4.56,0.48c-2.737-0.041-6.185-0.594-6.72-2.881
	c1.05-1.589,3.757-1.523,5.52-2.399c-4.402,0.735-10.097,0.553-14.16-0.96c-1.284-0.479-3.248-0.684-3.12-2.4
	c1.959-1.503,4.496-1.516,6.72-2.399c2.412-0.959,4.319-2.908,6.72-3.601c-4.209,0.752-10.551,2.728-15.36,2.88
	c-0.635-2.747,2.025-4.274,3.6-5.52c1.851-1.463,3.76-2.901,5.52-4.08c0.743-2.936,3.085-4.274,4.32-6.72
	c-3.625-0.861-11.243,0.286-15.6-1.2c-2.027-0.691-5.075-3.118-4.32-5.76c0.25-0.877,0.335-0.728,1.2-1.2
	c0.78-1.396,2.186-2.824,3.6-3.601c1.696-0.931,3.976-1.132,6-1.68c5.962-1.612,12.513-4.071,18.48-5.76
	c0.303-1.537,0.551-3.129,0.48-5.04c-12.824-2.706-24.831-6.709-36.72-10.56c-2.409-0.78-4.855-1.346-7.2-2.159
	c-4.637-1.61-8.801-3.962-13.44-5.28c0.121,3.125,0.614,6.325,1.2,9.84c0.855,5.121,3.78,10.481,0.96,14.88
	c-3.508,2.286-9.006,2.765-14.64,3.36c-7.939,0.839-15.675,1.177-24.24,1.68c-5.114,0.301-10.469,0.004-16.08-0.24
	c-2.469-0.107-6.303,0.377-8.4-0.479c-1.556-0.636-3.443-2.952-3.36-4.8c0.186-4.137,7.137-6.415,10.8-7.681
	c4.967-1.715,9.172-3.271,14.16-4.319c-0.186-5.415-0.205-13.076-1.2-18.48c-0.622-1.086-1.966-1.141-2.88-1.92
	c-0.789-0.673-1.364-1.704-1.92-2.64c-4.492-0.829-7.189-7.49-7.2-12.48c-0.007-3.062,1.556-5.837,3.12-7.92
	c5.109-6.806,13.438-9.552,21.12-14.16c0.869-0.522,2.018-1.015,2.4-1.44c0.926-1.029,1.906-4.163,2.88-6.24
	c1.068-2.278,1.884-4.575,2.64-6.48c1.732-4.363,4.011-8.678,5.52-12.48c1.803-4.545,3.001-9.184,4.56-13.681
	c1.587-4.579,2.965-9.242,4.08-13.92c1.167-4.893,2.509-9.65,3.6-14.64c2.131-9.741,2.368-20.844,2.64-31.92
	c0.138-5.632,0.825-11.368,0.24-16.8c-0.302-2.801-1.371-5.624-1.92-8.4c-0.565-2.861-1.01-5.767-1.44-8.64
	c-0.933-6.24-0.647-12.804-0.72-19.68c-0.093-8.704-0.403-17.098,0.48-27.36c0.385-4.477,0.635-9.258,2.4-12.24
	c-2.051-14.271-0.528-31.595,3.36-44.16c0.686-2.217,3.389-10.175,6.24-10.32c2.353-0.12,3.621,3.159,4.8,5.04
	c1.49,2.376,2.858,4.329,3.6,6.24c1.071,2.759,1.573,5.63,2.4,8.16c0.859,2.63,1.699,5.128,2.64,7.68
	c5.862-3.178,11.998-6.082,19.68-7.44c1.329-7.115,4.606-17.838,7.92-24.48c1.851-3.71,3.795-7.022,7.2-8.4
	c1.545-0.625,3.56,0.635,5.04,1.44c1.426,2.775,1.763,6.143,2.4,9.36c1.096,5.529,1.636,11.544,1.92,18
	c0.108,2.481-0.522,5.081,0,7.44c0.315,1.427,3.087,4.725,4.319,6.24c2.473,3.037,5.606,6.533,7.681,9.6
	c3.932,5.815,7.501,11.885,11.04,16.56c3.865,5.106,7.671,10.634,11.52,16.08c1.905,2.695,3.917,5.423,6,7.92
	c4.987,5.976,9.996,10.605,17.521,14.16c3.985,1.883,8.407,3.155,12.72,5.04c4.192,1.832,8.443,3.628,12.48,5.52
	c3.989,1.871,8.048,4.062,10.8,6.96c0.95,1.001,1.624,2.527,2.64,3.84c1.095,1.415,2.383,2.532,3.12,4.08
	c1.722,3.612,3.199,8.723,3.6,12.72C363.85,247.222,352.563,255.662,345.122,265.905z M256.562,118.785
	c0.843-1.867-0.328-5.965-0.48-8.16c-0.448-6.467-0.956-10.059-1.92-15.36c-0.456-2.513-0.402-6.125-1.68-7.2
	c-3.415-2.874-6.924,3.638-8.16,6c-3.638,6.95-6.785,17.912-8.16,25.68c-0.21,1.184,0.309,3-1.2,3.6
	c-1.752,0.232-0.531-2.509-1.92-2.64c-6.496,1.904-13.158,3.643-17.52,7.68c0.002,1.496,1.677,4.001-0.24,4.56
	c-2.1-0.794-1.829-3.492-2.4-5.28c-0.601-1.881-1.511-3.799-2.16-5.76c-2.019-6.098-3.432-12.212-6.24-16.8
	c-0.979-1.601-2.02-3.178-3.36-4.32c-6.402,10.209-9.281,27.967-7.921,44.4c0.262,3.166,0.018,6.513,0.48,9.36
	c0.318,1.963,1.946,4.122,0.96,6.24c-2.06,0.879-1.693-3.024-2.4-1.92c-2.433,13.392-1.232,27.054-1.2,40.32
	c0.002,1.132-0.275,2.594-0.24,3.84c0.157,5.536,0.918,9.303,1.68,13.92c1.465,8.876,3.432,16.165,6.48,23.04
	c2.079,4.69,3.726,8.998,6.72,12.96c2.833,3.749,5.241,7.609,8.64,11.04c6.577,6.638,13.811,12.007,22.56,16.8
	c4.014,2.199,9.059,3.743,14.16,5.521c5.047,1.758,10.254,3.923,15.36,4.32c2.576,0.2,4.941,0.299,7.44,0.239
	c7.822-0.186,15.721-1.741,22.56-3.12c2.846-0.573,5.767-1.275,8.4-2.16c5.417-1.818,10.843-3.34,15.6-5.52
	c4.955-2.27,9.654-4.307,13.68-7.2c1.943-1.396,3.686-3.314,5.52-5.04c5.426-5.102,9.87-9.665,14.16-16.08
	c3.463-5.179,6.944-10.993,6.479-19.2c-0.388-6.846-2.769-12.947-6-17.04c-1.266-1.604-2.185-3.42-3.359-4.56
	c-2.855-2.769-6.861-4.835-11.04-6.72c-4.004-1.806-8.186-3.93-12.24-5.52c-2.768-1.087-5.651-1.918-8.16-2.88
	c-5.701-2.186-11.074-5.396-15.36-9.12c-2.281-1.982-4.152-4.785-6.239-7.2c-3.204-3.708-5.868-7.918-8.641-11.76
	c-0.952-1.32-2.147-2.525-3.12-3.84c-5.866-7.933-11.378-15.988-16.56-24.24c-2.559-4.075-5.951-7.929-8.88-11.52
	c-1.096-1.343-1.866-2.84-2.88-4.08c-1.436-1.757-3.896-2.814-3.84-5.28C255.596,117.182,255.741,120.604,256.562,118.785z
	 M162.722,371.505c-0.598,2.016-1.588,5.329-1.92,7.68c-0.415,2.941-0.086,6.089-2.4,6.72c-1.132,0.309-2.705-0.981-3.36-0.72
	c-1.841,0.736-0.73,2.375-0.48,4.08c0.794,5.425,0.603,12.401,0.72,17.28c-5.059,0.671-9.056,2.338-13.92,3.84
	c-1.903,0.588-4.146,1.227-6.48,2.399c-1.69,0.851-4.7,2.592-4.56,4.32c0.298,3.678,9.999,2.697,14.16,2.88
	c11.335,0.499,21.947-0.578,31.92-1.439c3.137-0.272,6.297-0.486,9.12-0.96c2.946-0.495,5.933-0.732,7.92-2.4
	c0.694-4.24-0.507-7.991-1.2-11.28c-0.736-3.493-1.514-6.717-1.92-10.08c-0.172-1.432-0.903-3.743,0.72-4.8
	c4.6,1.483,8.461,3.654,12.96,5.521c4.845,2.009,11.731,2.671,16.08,4.8c0.595,0.291,1.321,0.464,1.92,0.72
	c8.439,3.607,18.514,5.7,28.32,7.68c0.965-6.837,1.793-15.343,2.641-23.04c-1.848-2.86-0.548-7.97,0.239-11.04
	c-0.816-1.608-1.811-2.605-2.16-4.319c-1.133-5.556,2.379-8.176,5.52-10.8c2.239-1.872,4.332-3.215,6.96-4.32
	c2.61-1.099,5.541-1.632,8.4-2.64c2.721-0.96,5.44-2.265,7.92-3.36c7.56-3.341,15.215-6.791,23.04-10.32
	c1.774-0.801,6.795-3.85,7.44-1.92c0.436,1.307-3.351,2.535-4.56,3.12c-5.319,2.575-12.279,5.543-17.04,7.68
	c-3.739,1.679-7.905,3.282-11.521,5.04c-2.02,0.982-3.888,1.814-5.76,2.4c-2.204,0.689-4.508,0.831-6.72,1.68
	c-2.934,1.127-7.702,4.32-9.84,6.96c-1.898,2.344-2.489,5.464-0.96,8.16c1.399-0.662,1.68-2.529,2.64-3.84
	c0.939-1.282,2.484-2.625,3.6-3.84c1.061-1.155,2.498-3.633,4.32-2.16c-0.037,2.021-2.162,3.041-3.36,4.32
	c-3.036,3.242-6.198,7.811-6.72,13.199c-0.145,1.495-0.313,4.022,0.72,5.04c2.264-4.892,4.989-9.476,8.16-13.199
	c1.039-1.22,2.379-2.839,4.08-3.12c1.612,1.675-0.354,3.543-1.2,4.8c-1.053,1.564-1.986,3.192-2.88,4.8
	c-1.829,3.29-3.914,6.754-3.359,11.28c1.855-0.398,2.862-2.376,3.84-3.84c2.158-3.232,3.896-6.857,5.76-10.08
	c0.933-1.614,1.543-3.898,3.6-4.32c1.801,2.623-0.819,5.153-1.68,7.2c-0.781,1.859-1.351,3.784-2.16,5.76
	c-0.789,1.929-1.643,4.087-1.439,6.48c1.642-0.133,2.804-2.007,3.6-3.36c1.87-3.18,3.215-6.705,5.04-9.84
	c0.858-1.475,1.84-3.434,3.6-3.84c2.084,2.486-0.456,5.094-1.439,7.439c-1.09,2.6-2.25,5.288-2.16,8.641
	c1.451-0.521,2.502-1.926,3.36-3.12c1.877-2.612,3.316-5.505,4.56-8.4c0.558-1.297,0.991-3.648,2.88-3.84
	c1.338,1.067,0.008,2.595-0.24,4.08c17.098-2.439,34.261-6.758,48.721-11.76c1.696-0.587,4.898-2.704,5.76-0.48
	c-1.259,1.876-3.781,2.23-5.76,2.88c-15.38,5.054-32.215,9.326-49.92,11.76c-0.772,1.728-2.339,3.989-4.08,6.48
	c-1.489,2.13-3.386,5.437-5.76,5.04c-2.397-0.4-1.363-3.057-2.16-5.04c-1.266,1.997-2.853,6.162-6,5.76
	c-2.183-0.278-2.977-3.043-1.92-6c-1.873,0.627-2.577,4.845-5.52,4.8c-2.365-0.035-3.288-2.66-2.88-5.76
	c-0.299,0.427-2.291,1.225-2.88,2.16c-0.058,7.511-1.602,13.593-2.16,20.4c-0.322,3.927,0.014,7.595-1.44,10.08
	c-3.562,0.849-6.37,1.601-9.6,2.64c-2.024,0.65-4.2,1.445-6.72,2.16c-2.935,0.832-12.039,2.382-11.76,6.24
	c0.271,3.753,8.268,3.032,12,3.359c3.077,0.27,5.835,0.487,8.64,0.48c6.274-3.196,11.624-7.151,19.92-6.721
	c4.116,0.215,7.165,1.705,10.08,3.12c1.815,0.882,3.491,2.147,4.8,2.16c2.937,0.03,5.509-3.053,8.16-3.12
	c4.552-4.707,4.472-14.605,5.76-22.56c0.275-1.701,0.665-4.945,2.4-4.561c0.863,2.982-0.975,7.101-0.72,11.04
	c9.655,1.065,19.125,0.265,26.64-1.68c3.996-1.034,7.674-2.529,11.04-4.32c3.397-1.808,6.938-3.423,9.84-5.52
	c2.278-1.646,4.063-3.837,6.24-5.28c0.686-0.455,1.703-1.338,2.64-0.96c1.213,1.859-0.44,3.403-1.439,4.561
	c-2.376,2.749-4.782,4.618-7.44,6.72c-4.163,3.291-7.717,6.091-12.479,8.88c-3.034,1.776-6.102,3.762-9.12,5.28
	c-10.423,5.239-26.23,7.265-37.44,12.479c-1.776,0.826-3.934,2.287-5.04,2.16c-1.196-0.138-1.811-1.651-2.88-2.4
	c-0.552-0.386-1.954-0.927-3.12-1.439c-3.066-1.349-6.794-2.594-11.28-2.16c-6.14,0.594-11.966,3.796-15.84,6.72
	c-1.406,1.062-3.456,2.113-3.6,3.601c3.655-2.099,8.834-4.507,13.68-5.76c1.06-0.274,1.913-0.69,2.88-0.961
	c1.757-0.49,4.973-1.676,6,0.48c-1.071,1.478-3.124,1.088-4.56,1.44c-4.817,1.181-9.073,2.825-13.2,4.8
	c-5.4,2.583-10.413,5.634-14.4,9.6c9.675-1.412,17.703-5.256,25.919-8.399c1.135-0.435,2.627-0.761,4.32-1.44
	c0.459-0.184,3.205-1.991,3.601-0.24c0.415,1.841-4.414,3.416-6.24,4.32c-4.92,2.436-9.665,4.967-14.16,7.2
	c-2.578,1.28-4.959,2.57-7.2,3.6c-1.057,0.485-2.828,0.646-3.36,1.68c2.097,0.755,5.241,0.915,7.92,0.721
	c8.16-0.595,15.639-4.486,20.88-8.16c2.046-1.435,3.82-2.977,5.76-4.08c0.819-0.07,0.488,1.643,1.2,0.96
	c-2.296,4.203-6.886,6.353-10.8,8.88c-4.029,2.602-8.372,4.854-12.721,6.96c9.688,0.846,16.906-4.097,22.8-8.16
	c0.878-0.604,1.88-1.979,3.12-1.199c0.707,2.029-1.461,2.554-2.64,3.359c-3.835,2.622-7.949,5.498-12.24,7.2
	c2.998,0.118,6.02-0.903,8.641-1.92c2.531-0.981,5.116-2.455,6.96-4.08c3.812-3.361,8.051-7.21,9.359-12.72
	c1.076-0.524,1.122-2.078,1.92-2.88c4.394-1.42,8.562-3.182,12.96-4.56c9.171-2.874,18.624-4.676,26.641-8.4
	c6.672-3.1,13.195-6.292,18.479-10.561c5.603-4.525,9.596-8.701,13.2-15.12c2.067-3.682,4.112-7.312,5.76-11.28
	c4.15-9.991,5.92-22.887,5.28-36.96c-0.842-18.529-4.043-35.997-9.12-51.12c-2.03-6.049-3.943-11.957-6.48-17.52
	c-2.573-5.643-5.077-11.262-7.44-16.8c-3.833,2.792-6.822,6.304-10.8,8.88c-1.931,1.25-4.251,2.21-6.48,3.359
	c-2.138,1.104-4.3,2.432-6.479,3.36c-1.443,0.615-3,0.752-4.56,1.2c-1.476,0.424-2.9,1.203-4.319,1.68
	c-6.742,2.264-14.475,3.817-21.601,5.28c-7.171,1.472-17.642,2.223-26.399,0.96c-4.172-0.602-7.776-2.233-11.76-3.6
	c-4.097-1.405-7.744-2.436-11.28-4.08c-5.365-2.496-10.239-5.145-14.64-8.4c-1.443-1.067-2.885-2.207-4.32-3.36
	c-2.78-2.234-5.771-4.653-8.16-7.2c-2.449-2.61-4.514-5.669-6.72-8.64c-2.269-3.055-4.638-6.131-6.24-9.36
	c-1.294-2.608-2.301-5.77-3.36-8.16c-0.357-0.806-0.622-1.962-1.44-2.4c-0.215,9.361-0.278,18.275-0.72,26.88
	c-0.608,11.841-4.119,22.08-6.48,31.919c-2.169,9.04-5.107,17.633-8.16,25.441c-0.456,1.166-1.265,2.235-1.68,3.36
	c-0.29,0.784-0.156,1.606-0.48,2.399c-0.27,0.66-0.9,1.26-1.2,1.92c-0.335,0.737-0.418,1.675-0.72,2.4
	c-1.883,4.511-3.851,8.657-5.76,12.72c-0.311,1.352,1.031,1.049,0.72,2.4c-0.669,1.444-2.418,1.532-3.84,2.16
	c-2.707,1.193-6.019,3.27-9.36,5.04c-5.64,2.987-9.197,4.687-12.48,9.12c-2.657,3.588-3.044,7.537-1.44,12.239
	c0.555,1.628,1.643,3.288,2.64,4.08c-1.523-4.342-1.13-10.654,0.48-14.16c0.701-1.524,1.738-3.785,3.6-3.12
	c0.594,1.607-1.041,2.743-1.68,4.32c-2.525,6.229-0.982,16.37,4.8,18c-0.057-2.215-1.364-4.505-1.68-7.2
	c-0.576-4.911,0.949-9.593,2.4-12.96c0.594-1.379,1.62-3.972,3.6-2.399c-0.566,2.214-2.696,4.814-3.36,7.92
	c-0.392,1.83-0.546,4.151-0.48,6c0.129,3.627,1.179,7.37,4.32,8.64c1.206-6.196,1.676-14.197,4.56-18.72
	c1.349-2.116,3.417-2.731,5.52-4.08c0.981-0.629,2.157-2.301,3.6-1.68c0.393,2.687-2.101,4.485-3.36,6.479
	c-2.166,3.432-4.313,7.207-3.6,12.48c2.136,0.106,3.324-1.801,4.32-3.12c2.269-3.006,3.986-5.891,6.24-8.641
	c2.897-3.532,5.424-5.76,9.36-7.92c0.962-0.527,1.895-1.379,2.88-1.92c1.123-0.617,2.45-0.649,3.36-1.68
	c-3.313-16.74-1.516-34.533,1.44-50.16c1.119-5.911,2.69-11.575,3.36-17.52c0.176-1.562-0.68-4.925,1.92-5.28
	c1.203,1.725,0.47,4.135,0.24,6c-0.279,2.266-0.84,4.492-1.2,6.72c-1.431,8.859-3.515,17.524-4.56,27.12
	c-0.72,6.608-1.115,13.806-0.72,20.16c0.798,12.846,4.443,24.763,10.08,32.64c0.742,1.037,2.525,2.184,1.92,3.84
	c-2.388,0.439-3.326-2.037-4.32-3.6c-2.291-3.604-4.046-7.087-5.52-11.28c-0.724-2.061-1.407-4.177-2.4-6
	c-3.105,1.682-7.105,3.32-10.08,5.761c-2.284,1.872-4.253,5.18-6.24,7.68c-2.212,2.784-4.013,6.034-6.24,7.92
	c-1.103,0.935-2.761,2.099-4.32,1.68c-2.387-0.641-2.323-6.266-1.44-9.12c0.795-2.569,2.227-3.921,2.88-6
	C163.336,366.777,163.386,369.269,162.722,371.505z M317.763,413.265c-1.809,0.362-3.744,0.202-5.76,0.479
	c-1.756,0.242-3.528,0.843-5.28,0.961c-4.443,0.298-8.647-0.383-13.2-0.48c-0.631,4.408-1.153,8.926-2.88,12.24
	c10.468-2.848,21.693-5.543,30-10.08c6.105-3.335,12.272-6.273,16.32-10.8C331.422,408.391,325.18,411.781,317.763,413.265z"/>
<path fill-rule="evenodd" clip-rule="evenodd" fill="#FFFFFF" d="M253.923,118.785c-0.057,2.466,2.403,3.523,3.84,5.28
	c1.014,1.24,1.784,2.737,2.88,4.08c2.929,3.591,6.321,7.445,8.88,11.52c5.182,8.252,10.693,16.307,16.56,24.24
	c0.973,1.315,2.168,2.52,3.12,3.84c2.772,3.842,5.437,8.053,8.641,11.76c2.087,2.416,3.958,5.218,6.239,7.2
	c4.286,3.723,9.659,6.934,15.36,9.12c2.509,0.962,5.392,1.794,8.16,2.88c4.055,1.59,8.236,3.714,12.24,5.52
	c4.179,1.885,8.185,3.951,11.04,6.72c1.175,1.14,2.094,2.957,3.359,4.56c3.231,4.093,5.612,10.194,6,17.04
	c0.465,8.207-3.017,14.021-6.479,19.2c-4.29,6.415-8.734,10.977-14.16,16.08c-1.835,1.726-3.577,3.644-5.52,5.04
	c-4.025,2.894-8.725,4.931-13.68,7.2c-4.757,2.18-10.183,3.701-15.6,5.52c-2.634,0.885-5.555,1.587-8.4,2.16
	c-6.839,1.379-14.737,2.935-22.56,3.12c-2.499,0.06-4.864-0.039-7.44-0.239c-5.105-0.397-10.313-2.562-15.36-4.32
	c-5.101-1.777-10.146-3.321-14.16-5.521c-8.749-4.793-15.983-10.162-22.56-16.8c-3.399-3.431-5.807-7.292-8.64-11.04
	c-2.995-3.962-4.642-8.27-6.72-12.96c-3.048-6.875-5.015-14.164-6.48-23.04c-0.762-4.617-1.523-8.384-1.68-13.92
	c-0.035-1.246,0.243-2.708,0.24-3.84c-0.032-13.266-1.233-26.928,1.2-40.32c0.708-1.104,0.34,2.799,2.4,1.92
	c0.986-2.118-0.642-4.276-0.96-6.24c-0.462-2.847-0.218-6.194-0.48-9.36c-1.36-16.433,1.519-34.191,7.921-44.4
	c1.34,1.143,2.38,2.72,3.36,4.32c2.808,4.588,4.222,10.702,6.24,16.8c0.649,1.961,1.559,3.879,2.16,5.76
	c0.571,1.788,0.3,4.485,2.4,5.28c1.917-0.56,0.243-3.064,0.24-4.56c4.362-4.038,11.024-5.776,17.52-7.68
	c1.389,0.131,0.168,2.872,1.92,2.64c1.509-0.6,0.991-2.416,1.2-3.6c1.375-7.768,4.522-18.73,8.16-25.68
	c1.236-2.362,4.746-8.874,8.16-6c1.277,1.075,1.224,4.687,1.68,7.2c0.964,5.302,1.472,8.894,1.92,15.36
	c0.152,2.194,1.323,6.292,0.48,8.16C255.741,120.604,255.596,117.182,253.923,118.785z M254.643,111.345
	c-0.217-1.71-0.229-3.802-0.48-5.52c-0.468-3.2-1.111-7.848-4.32-6.96c-2.412,3.994-3.422,11.486-4.08,17.28
	c-0.204,1.794-1.306,5.165,1.2,5.52c1.002-1.176,0.506-3.043,0.72-4.8c0.616-5.066,1.614-11.251,3.36-15.12
	c0.352,2.125,1.108,5.53,1.44,8.88c0.199,2.011-0.575,5.311,1.92,5.52C255.648,115.3,254.882,113.235,254.643,111.345z
	 M209.282,135.105c-0.461-2.059-1.175-4.405-1.92-6.48c-1.125-3.134-3.794-11.576-7.92-9.6c-2.009,5.698-1.561,14.324-1.2,21.36
	c0.136,2.655,0.014,7.347,2.64,7.44c0.571-2.314-0.345-5.321-0.48-8.4c-0.286-6.493-0.658-13.124,0.72-18.24
	c1.7,1.762,2.611,4.567,3.6,7.2c1,2.664,2.098,5.413,2.64,8.16c0.319,1.619-0.184,4.158,1.92,4.8
	C210.891,140.08,209.76,137.235,209.282,135.105z M270.963,151.665c-1.782-2.002-5.728-4.485-9.36-3.12
	c-1.046,0.393-2.605,2.229-3.84,3.6c-0.924,1.024-3.432,4.318-1.2,4.56c1.09,0.118,1.455-1.748,2.16-2.64
	c2.005-2.537,4.936-4.62,8.16-3.12c2.234,1.04,2.439,4.559,5.76,4.32C272.719,153.502,271.731,152.529,270.963,151.665z
	 M234.242,155.745c-2.416,1.135-5.299,4.645-6.24,7.44c-0.39,1.159-1.163,3.867,0.72,4.08c1.998-5.11,4.745-10.828,11.76-10.32
	c1.123,0.081,1.721,1.037,3.12,0.48C243.223,153.497,236.408,154.728,234.242,155.745z M275.522,169.905
	c-0.409,0.25-0.27,0.541-0.72,0.96c-0.339,0.316-0.9,0.241-1.2,0.48c-2.384,1.899-2.599,2.97-3.6,6
	c-0.561,1.694-1.069,3.391-1.2,5.04c-0.718,8.998,2.948,15.812,7.92,18.96c2.767,1.752,6.667,2.708,10.08,1.68
	c2.614-0.788,4.941-3.398,6-5.28c5.023-8.934,1.562-21.829-4.8-26.4c-1.9-1.365-6.23-2.94-8.641-2.64
	C278.004,168.874,276.557,169.271,275.522,169.905z M239.522,179.025c-2.456,1.416-5.208,5.552-6,7.44
	c-1.753,4.181-1.692,10.954-0.24,14.88c1.624,4.388,5.315,9.161,9.12,11.04c4.998,2.468,10.344,1.001,13.44-1.44
	c2.092-1.649,5.48-6.854,6-9.84c0.646-3.722-0.474-8.319-1.2-10.56c-1.328-4.092-3.573-7.657-6.48-10.08
	c-2.407-2.006-5.31-3.514-8.64-3.12C243.155,177.625,240.794,178.292,239.522,179.025z"/>
<path fill-rule="evenodd" clip-rule="evenodd" d="M254.402,116.145c-2.495-0.209-1.721-3.509-1.92-5.52
	c-0.332-3.351-1.088-6.756-1.44-8.88c-1.746,3.869-2.744,10.054-3.36,15.12c-0.214,1.757,0.282,3.624-0.72,4.8
	c-2.505-0.355-1.404-3.726-1.2-5.52c0.657-5.794,1.668-13.287,4.08-17.28c3.208-0.888,3.852,3.76,4.32,6.96
	c0.252,1.718,0.264,3.81,0.48,5.52C254.882,113.235,255.648,115.3,254.402,116.145z"/>
<path fill-rule="evenodd" clip-rule="evenodd" d="M209.282,141.345c-2.104-0.642-1.601-3.181-1.92-4.8
	c-0.542-2.747-1.639-5.496-2.64-8.16c-0.989-2.632-1.9-5.438-3.6-7.2c-1.378,5.116-1.006,11.747-0.72,18.24
	c0.135,3.079,1.051,6.086,0.48,8.4c-2.626-0.093-2.504-4.785-2.64-7.44c-0.361-7.036-0.809-15.662,1.2-21.36
	c4.126-1.976,6.795,6.466,7.92,9.6c0.745,2.075,1.458,4.421,1.92,6.48C209.76,137.235,210.891,140.08,209.282,141.345z"/>
<path fill-rule="evenodd" clip-rule="evenodd" d="M272.642,155.265c-3.321,0.238-3.525-3.281-5.76-4.32
	c-3.224-1.499-6.155,0.584-8.16,3.12c-0.705,0.892-1.07,2.758-2.16,2.64c-2.231-0.242,0.276-3.536,1.2-4.56
	c1.234-1.371,2.794-3.207,3.84-3.6c3.633-1.365,7.578,1.119,9.36,3.12C271.731,152.529,272.719,153.502,272.642,155.265z"/>
<path fill-rule="evenodd" clip-rule="evenodd" d="M243.602,157.425c-1.399,0.557-1.997-0.399-3.12-0.48
	c-7.015-0.507-9.762,5.21-11.76,10.32c-1.884-0.213-1.11-2.921-0.72-4.08c0.94-2.796,3.824-6.306,6.24-7.44
	C236.408,154.728,243.223,153.497,243.602,157.425z"/>
<path fill-rule="evenodd" clip-rule="evenodd" d="M279.362,168.705c2.41-0.3,6.74,1.275,8.641,2.64
	c6.362,4.572,9.823,17.467,4.8,26.4c-1.059,1.882-3.386,4.492-6,5.28c-3.413,1.028-7.313,0.072-10.08-1.68
	c-4.972-3.148-8.638-9.962-7.92-18.96c0.131-1.649,0.64-3.346,1.2-5.04c1.001-3.03,1.216-4.101,3.6-6
	c0.3-0.239,0.861-0.165,1.2-0.48c0.45-0.419,0.311-0.709,0.72-0.96C276.557,169.271,278.004,168.874,279.362,168.705z
	 M291.602,179.505c-1.783-4.308-8.421-11.011-14.4-8.16c-0.737,0.352-1.333,1.411-2.16,2.4c-1.861,2.229-3.714,5.347-4.079,8.64
	c-0.761,6.844,1.999,13.505,6.479,16.8c1.845,1.357,4.865,2.578,7.44,1.68c-5.295-1.07-7.178-6.129-6.721-12.24
	c1.753-3.981,7.237-7.363,12-5.04c1.146,0.559,1.552,1.979,2.88,2.64C292.621,184.041,292.445,181.541,291.602,179.505z"/>
<path fill-rule="evenodd" clip-rule="evenodd" fill="#FFFFFF" d="M293.042,186.225c-1.328-0.661-1.734-2.082-2.88-2.64
	c-4.763-2.323-10.247,1.059-12,5.04c-0.457,6.11,1.426,11.169,6.721,12.24c-2.575,0.898-5.596-0.323-7.44-1.68
	c-4.48-3.295-7.24-9.956-6.479-16.8c0.365-3.293,2.218-6.412,4.079-8.64c0.827-0.989,1.423-2.048,2.16-2.4
	c5.979-2.851,12.617,3.852,14.4,8.16C292.445,181.541,292.621,184.041,293.042,186.225z"/>
<path fill-rule="evenodd" clip-rule="evenodd" d="M245.522,177.345c3.33-0.394,6.232,1.114,8.64,3.12
	c2.907,2.423,5.152,5.988,6.48,10.08c0.727,2.241,1.847,6.838,1.2,10.56c-0.52,2.985-3.908,8.191-6,9.84
	c-3.097,2.441-8.443,3.908-13.44,1.44c-3.805-1.879-7.497-6.652-9.12-11.04c-1.452-3.926-1.513-10.699,0.24-14.88
	c0.792-1.888,3.544-6.024,6-7.44C240.794,178.292,243.155,177.625,245.522,177.345z M253.202,182.625
	c-1.874-1.72-4.145-3.514-7.439-3.12c-4.639,0.554-6.33,2.13-8.4,5.04c-1.584,2.226-2.811,4.667-3.12,7.68
	c-0.798,7.796,2.831,12.623,6.48,15.84c2.969,2.618,6.088,4.707,10.32,2.64c-3.764-0.617-5.926-3.923-6-7.921
	c-0.065-3.493,1.948-6.427,3.6-8.4c3.964-2.853,8.017-0.203,9.84,1.921c0.141,0.164,0.846,1.225,0.96,0.479
	C259.224,190.72,256.568,185.715,253.202,182.625z"/>
<path fill-rule="evenodd" clip-rule="evenodd" fill="#FFFFFF" d="M259.442,196.785c-0.114,0.745-0.819-0.315-0.96-0.479
	c-1.823-2.123-5.876-4.773-9.84-1.921c-1.652,1.973-3.665,4.907-3.6,8.4c0.074,3.997,2.236,7.304,6,7.921
	c-4.232,2.067-7.351-0.023-10.32-2.64c-3.649-3.217-7.279-8.044-6.48-15.84c0.309-3.014,1.536-5.454,3.12-7.68
	c2.071-2.91,3.761-4.486,8.4-5.04c3.294-0.394,5.565,1.4,7.439,3.12C256.568,185.715,259.224,190.72,259.442,196.785z"/>
<path fill-rule="evenodd" clip-rule="evenodd" d="M396.482,373.185c1.697-2.081,2.963-3.813,6.24-5.28
	c3.182-1.424,11.316-2.273,15.12-0.479c1.372,0.646,3.066,2.827,4.08,4.08c1.199,1.483,2.868,3.57,2.16,5.52
	c-1.415,0.401-1.659-1.028-2.16-1.68c-1.233-1.601-3.062-4.993-5.28-6c-1.703-0.773-5.206-0.788-7.44-0.72
	c-5.679,0.171-9.785,3.128-11.52,7.199c4.921,2.039,8.98,4.939,11.52,9.36c4.772-1.094,14.358-1.53,15.601,3.6
	c-1.744,0.628-2.77-1.154-4.32-1.68c-7.518-2.547-16.615,1.743-19.439,5.76c2.775,0.163,5.802-0.631,8.64,0.48
	c0.94,0.368,2.425,1.263,2.16,2.64c-2.049,0.422-3.659-1.072-5.76-1.2c-5.81-0.352-11.42,2.765-14.16,6
	c-0.035,0.961,0.969,1.736,0.239,2.641c-2.401-0.114-2.673-2.955-4.319-4.32c-0.757-0.627-3.588-2.312-4.8-2.88
	c-2.978-1.396-5.698-1.589-9.841-1.92c-1.142,0.13-1.701,1.159-2.64,0.24c0.042-3.215,5.685-2.466,7.68-2.16
	c2.906,0.444,5.601,2.225,7.44,2.88c0.475-2.699-0.096-4.909-1.68-6.96c-2.609-3.378-8.344-6.655-13.44-6
	c-0.037-2.984,5.123-2.174,7.2-1.441c1.601,0.566,2.611,2.065,3.6,2.4c2.506-4.614,6.5-7.74,13.681-7.68
	c-0.985-9.18-15.385-11.522-22.32-5.52c-1.241,1.074-1.628,2.635-3.36,2.88c-0.874-1.97,1.197-4.013,2.4-5.04
	c2.685-2.293,7.105-3.247,11.04-3.359C389.055,364.366,394.773,368.136,396.482,373.185z M385.923,380.385
	c-0.571,1.749-2.272,2.368-3.12,3.84c3.18,2.597,6.62,6.778,4.8,12.24c1.25,0.51,1.819,1.7,2.88,2.399
	c2.221-2.18,4.985-3.814,8.16-5.04c0.868-4.571,4.674-6.206,8.4-7.92C404.32,379.304,392.329,374.811,385.923,380.385z"/>
<path fill-rule="evenodd" clip-rule="evenodd" fill="#FFFFFF" d="M407.043,385.905c-3.727,1.714-7.532,3.349-8.4,7.92
	c-3.175,1.226-5.939,2.86-8.16,5.04c-1.061-0.699-1.63-1.89-2.88-2.399c1.82-5.462-1.62-9.644-4.8-12.24
	c0.848-1.472,2.549-2.091,3.12-3.84C392.329,374.811,404.32,379.304,407.043,385.905z"/>
<path fill-rule="evenodd" clip-rule="evenodd" d="M147.122,395.745c1.354-0.358,3.266-2.503,4.32-0.96
	c0.266,1.605-2.283,2.028-3.6,2.881c-1.144,0.739-2.123,2.449-3.36,1.92c-0.469-1.645,0.52-2.284,0.24-3.601
	c-5.409-5.465-16.748-4.932-22.08,0.48c-1.387,1.406-1.791,3.211-2.88,4.8c0.859,1.621,2.524,2.436,3.6,3.84
	c3.011-0.554,5.334-0.005,7.44,0.96c1.524,0.698,4.258,1.518,3.6,3.601c-1.187,0.756-1.95-0.689-2.64-1.2
	c-1.228-0.052-2.076-0.484-2.64-1.2c-7.13-0.939-12.408,1.506-15.36,5.52c-0.739,1.005-0.638,2.796-2.16,3.12
	c-1.218-1.073-0.195-3.271,0.48-4.319c0.977-1.518,3.557-3.713,5.04-4.56c1.149-0.656,2.634-0.806,3.6-1.44
	c-1.948-3.572-10.043-5.487-16.08-4.08c-3.876,0.903-8.938,4.273-10.32,6.239c-0.835,1.188-0.876,2.616-1.68,3.601
	c5.104,2.347,10.081,4.234,11.04,11.04c4.452,0.188,7.047,2.233,9.84,4.08c0.447,1.713,2.471,1.849,2.4,4.08
	c-2.759,0.412-3.951-2.777-6-4.08c-1.513-0.962-3.73-1.815-6-1.92c-6.504-0.3-11.651,1.906-14.88,5.52
	c-0.441,0.494-0.725,1.508-1.68,1.44c-1.432-0.908-0.178-2.822,0.48-3.601c1.018-1.204,5.397-3.953,7.2-4.56
	c1.957-0.658,4.303-0.656,6.48-0.72c0.347-1.67-1.504-3.105-1.92-4.801c-3.203-3.685-10.267-5.205-16.32-3.359
	c-2.224,0.678-4.392,2.042-6.24,3.359c-0.416,0.297-0.812,1.831-1.68,0.96c-1.245-1.197,0.485-2.243,1.2-2.88
	c3.124-2.78,7.431-4.547,13.68-4.319c1.262-2.454,2.213-5.34,4.32-7.2c1.083-0.956,3.069-1.945,4.8-2.88
	c5.003-2.701,11.786-3.14,18.48-0.96c0.771-0.349,0.629-1.611,0.96-2.4c2.884-4.648,9.283-8.936,17.04-8.16
	C140.551,390.455,144.757,392.631,147.122,395.745z"/>
<path fill-rule="evenodd" clip-rule="evenodd" d="M374.402,403.665c-1.568,0.135-2.259-1.632-3.6-2.4
	c-2.194-1.258-5.037-1.401-8.16-2.16c-0.317-0.314-0.053-1.271,0.48-1.44C366.651,397.351,374.541,399.206,374.402,403.665z"/>
<path fill-rule="evenodd" clip-rule="evenodd" d="M208.802,402.225c-0.441,1.204-1.962,1.161-2.88,1.68
	c-1.446,0.818-2.526,1.982-3.36,3.36c5.862,0.538,10.029,2.771,12.72,6.479c4.953-2.181,11.669-1.616,16.08,0.48
	c1.715,0.815,4.003,2.142,3.36,4.08c-2.559-0.54-4.451-2.596-6.96-3.36c-8.787-2.676-18.697,3.061-19.68,10.8
	c1.935,1.046,4.105,2.251,5.76,3.841c1.446,1.389,3.702,3.137,3.12,5.76c-1.931,0.491-1.424-1.456-2.4-1.92
	c-1.028-0.295-1.167-1.42-1.92-2.16c-2.619-2.573-7.081-4.745-12.48-4.56c-4.568,0.156-8.484,2.377-10.8,5.279
	c4.988,1.893,10.686,3.073,11.76,8.88c3.138-0.442,7.683-1.307,11.04-0.479c1.985,0.488,5.288,1.593,4.32,3.84
	c-2.432-0.318-3.636-1.628-5.76-1.92c-8.414-1.158-15.79,2.7-19.92,7.2c-1.014,1.104-1.197,2.975-3.12,2.88
	c-0.622-1.947,0.875-3.714,1.92-4.8c2.505-2.604,6.276-4.851,9.84-6.24c-2.374-8.084-19.801-9.846-24.24-2.4
	c0.975,2.085,4.849,4.501,2.88,7.2c-1.452-0.248-1.597-1.785-2.16-2.64c-0.689-1.047-1.775-2.611-3.12-3.601
	c-3.417-2.513-10.272-3.315-15.12-1.92c-1.377,0.396-2.387,1.629-3.84,0.96c0.08-2.694,3.734-3.37,6.72-3.6
	c4.797-0.37,10.153,0.491,12.48,2.399c3.351-3.288,6.985-6.295,14.16-5.76c2.617-5.997,10.194-8.299,18.72-6.96
	c1.045-0.817,0.582-2.062,0.96-3.12c1.123-3.14,3.859-5.175,6.24-7.199c-2.174-3.722-7.184-5.257-12.72-5.28
	c-0.991-0.005-2.535,0.621-3.12-0.48c-0.092-1.612,1.475-1.565,2.88-1.68c1.51-3.13,4.285-4.994,7.44-6.48
	C208.427,400.84,208.648,401.499,208.802,402.225z"/>
<path fill-rule="evenodd" clip-rule="evenodd" d="M397.202,415.905c-1.283-0.362-1.186-1.684-1.92-2.64
	c-3.36-4.381-14.472-7.993-18.239-2.4c-2.091-0.09-2.77,1.232-3.601,2.4c0.65,1.338,2.413,2.124,3.601,3.36
	c1.003,1.045,2.731,2.602,1.68,4.319c-1.76-0.3-2.315-2.145-3.601-3.359c-4.147-3.921-11.65-6.35-18.239-2.88
	c-1.016,0.534-1.37,1.851-3.12,1.68c-0.751-1.348,0.509-2.779,1.439-3.36c1.229-0.766,4.173-1.594,6.24-1.92
	c2.317-0.365,4.984-0.064,6.72,0.48c0.454-0.106,1.447,0.326,1.2-0.48c0.534,0.426,0.812,1.107,1.681,1.2
	c1.396-0.801,1.719-2.002,2.88-2.88c0.519-0.393,1.496-0.5,2.16-0.96c0.587-0.408,0.879-1.139,1.44-1.44
	c5.68-3.058,14.427,0.162,18,3.36C396.688,411.428,399.405,414.156,397.202,415.905z"/>
<path fill-rule="evenodd" clip-rule="evenodd" d="M179.762,430.545c-1.934-0.489-2.937-2.289-4.56-3.36
	c-2.595-1.714-5.88-3.119-10.32-3.36c-0.032-0.591-0.036-1.156,0.24-1.44c4.074-1.009,9.204,1.632,12,3.84
	C178.341,427.187,179.921,428.812,179.762,430.545z"/>
<path fill-rule="evenodd" clip-rule="evenodd" d="M156.002,435.345c-1.47,0.351-1.138-1.102-1.68-1.68
	c-0.448-0.672-0.943-1.298-1.2-2.16c-4.038-5.798-13.465-7.349-20.16-3.36c-1.375,0.819-2.646,2.42-4.32,2.16
	c0.279-2.898,5.863-5.65,9.6-6.24c6.994-1.105,13.147,2.304,16.08,6C154.395,432.063,157.565,433.285,156.002,435.345z"/>
<path fill-rule="evenodd" clip-rule="evenodd" fill="#FFFFFF" d="M165.602,365.745c-0.654,2.079-2.085,3.431-2.88,6
	c-0.883,2.854-0.946,8.479,1.44,9.12c1.559,0.419,3.217-0.745,4.32-1.68c2.227-1.886,4.027-5.136,6.24-7.92
	c1.987-2.5,3.956-5.808,6.24-7.68c2.976-2.44,6.975-4.079,10.08-5.761c0.993,1.823,1.676,3.939,2.4,6
	c1.474,4.193,3.229,7.677,5.52,11.28c0.994,1.562,1.932,4.039,4.32,3.6c0.605-1.656-1.178-2.803-1.92-3.84
	c-5.637-7.877-9.282-19.794-10.08-32.64c-0.395-6.354,0-13.552,0.72-20.16c1.045-9.596,3.129-18.261,4.56-27.12
	c0.359-2.227,0.921-4.454,1.2-6.72c0.23-1.865,0.963-4.275-0.24-6c-2.6,0.355-1.744,3.719-1.92,5.28
	c-0.67,5.944-2.242,11.608-3.36,17.52c-2.956,15.627-4.753,33.42-1.44,50.16c-0.91,1.03-2.236,1.062-3.36,1.68
	c-0.984,0.541-1.918,1.393-2.88,1.92c-3.937,2.16-6.463,4.388-9.36,7.92c-2.254,2.75-3.971,5.635-6.24,8.641
	c-0.996,1.319-2.184,3.227-4.32,3.12c-0.714-5.273,1.434-9.049,3.6-12.48c1.259-1.994,3.753-3.792,3.36-6.479
	c-1.443-0.621-2.619,1.051-3.6,1.68c-2.103,1.349-4.171,1.964-5.52,4.08c-2.884,4.522-3.354,12.523-4.56,18.72
	c-3.141-1.27-4.191-5.013-4.32-8.64c-0.066-1.849,0.088-4.17,0.48-6c0.664-3.106,2.794-5.706,3.36-7.92
	c-1.98-1.572-3.006,1.021-3.6,2.399c-1.451,3.367-2.976,8.049-2.4,12.96c0.316,2.695,1.623,4.985,1.68,7.2
	c-5.782-1.63-7.325-11.771-4.8-18c0.639-1.577,2.274-2.713,1.68-4.32c-1.862-0.665-2.899,1.596-3.6,3.12
	c-1.61,3.506-2.003,9.818-0.48,14.16c-0.998-0.792-2.085-2.452-2.64-4.08c-1.604-4.702-1.217-8.651,1.44-12.239
	c3.283-4.434,6.84-6.133,12.48-9.12c3.341-1.77,6.654-3.847,9.36-5.04c1.421-0.628,3.171-0.716,3.84-2.16
	c0.311-1.352-1.031-1.049-0.72-2.4c1.909-4.062,3.877-8.209,5.76-12.72c0.303-0.726,0.386-1.663,0.72-2.4
	c0.299-0.66,0.93-1.26,1.2-1.92c0.324-0.793,0.19-1.615,0.48-2.399c0.415-1.125,1.224-2.194,1.68-3.36
	c3.053-7.808,5.991-16.4,8.16-25.441c2.361-9.84,5.872-20.078,6.48-31.919c0.441-8.605,0.505-17.519,0.72-26.88
	c0.818,0.438,1.083,1.594,1.44,2.4c1.059,2.39,2.066,5.551,3.36,8.16c1.602,3.23,3.971,6.305,6.24,9.36
	c2.206,2.97,4.271,6.029,6.72,8.64c2.389,2.547,5.38,4.966,8.16,7.2c1.435,1.153,2.878,2.293,4.32,3.36
	c4.401,3.255,9.275,5.904,14.64,8.4c3.536,1.645,7.183,2.675,11.28,4.08c3.984,1.366,7.588,2.998,11.76,3.6
	c8.758,1.263,19.228,0.512,26.399-0.96c7.126-1.463,14.858-3.017,21.601-5.28c1.419-0.477,2.844-1.256,4.319-1.68
	c1.56-0.448,3.117-0.585,4.56-1.2c2.18-0.929,4.342-2.257,6.479-3.36c2.23-1.149,4.55-2.109,6.48-3.359
	c3.978-2.576,6.967-6.088,10.8-8.88c2.363,5.538,4.867,11.157,7.44,16.8c2.536,5.562,4.449,11.471,6.48,17.52
	c5.077,15.123,8.278,32.591,9.12,51.12c0.64,14.073-1.13,26.969-5.28,36.96c-1.647,3.968-3.692,7.599-5.76,11.28
	c-3.604,6.419-7.598,10.595-13.2,15.12c-5.284,4.269-11.808,7.461-18.479,10.561c-8.017,3.724-17.47,5.525-26.641,8.4
	c-4.398,1.379-8.566,3.141-12.96,4.56c-0.798,0.802-0.844,2.355-1.92,2.88c-1.309,5.51-5.548,9.358-9.359,12.72
	c-1.844,1.625-4.429,3.099-6.96,4.08c-2.621,1.017-5.642,2.038-8.641,1.92c4.291-1.702,8.405-4.578,12.24-7.2
	c1.179-0.806,3.347-1.33,2.64-3.359c-1.24-0.779-2.242,0.595-3.12,1.199c-5.894,4.063-13.112,9.006-22.8,8.16
	c4.349-2.105,8.691-4.358,12.721-6.96c3.914-2.527,8.504-4.677,10.8-8.88c-0.712,0.683-0.381-1.03-1.2-0.96
	c-1.94,1.103-3.714,2.645-5.76,4.08c-5.241,3.674-12.72,7.565-20.88,8.16c-2.679,0.194-5.823,0.034-7.92-0.721
	c0.532-1.033,2.303-1.194,3.36-1.68c2.241-1.029,4.623-2.319,7.2-3.6c4.495-2.233,9.24-4.764,14.16-7.2
	c1.826-0.904,6.655-2.48,6.24-4.32c-0.396-1.751-3.142,0.057-3.601,0.24c-1.693,0.68-3.186,1.006-4.32,1.44
	c-8.216,3.144-16.245,6.987-25.919,8.399c3.987-3.966,8.999-7.017,14.4-9.6c4.127-1.975,8.383-3.619,13.2-4.8
	c1.436-0.353,3.488,0.037,4.56-1.44c-1.027-2.156-4.243-0.971-6-0.48c-0.967,0.271-1.82,0.686-2.88,0.961
	c-4.846,1.253-10.024,3.661-13.68,5.76c0.144-1.487,2.193-2.539,3.6-3.601c3.874-2.924,9.7-6.126,15.84-6.72
	c4.486-0.434,8.214,0.812,11.28,2.16c1.166,0.513,2.568,1.054,3.12,1.439c1.068,0.749,1.684,2.263,2.88,2.4
	c1.106,0.127,3.264-1.334,5.04-2.16c11.21-5.215,27.018-7.24,37.44-12.479c3.019-1.519,6.086-3.504,9.12-5.28
	c4.763-2.789,8.316-5.589,12.479-8.88c2.658-2.102,5.064-3.971,7.44-6.72c0.999-1.157,2.652-2.701,1.439-4.561
	c-0.937-0.378-1.953,0.505-2.64,0.96c-2.177,1.443-3.962,3.635-6.24,5.28c-2.902,2.097-6.442,3.712-9.84,5.52
	c-3.366,1.791-7.044,3.286-11.04,4.32c-7.515,1.944-16.984,2.745-26.64,1.68c-0.255-3.94,1.583-8.058,0.72-11.04
	c-1.735-0.385-2.125,2.859-2.4,4.561c-1.288,7.954-1.208,17.853-5.76,22.56c-2.651,0.067-5.223,3.15-8.16,3.12
	c-1.309-0.014-2.985-1.278-4.8-2.16c-2.915-1.415-5.964-2.905-10.08-3.12c-8.296-0.431-13.646,3.524-19.92,6.721
	c-2.805,0.007-5.563-0.211-8.64-0.48c-3.732-0.327-11.729,0.394-12-3.359c-0.278-3.858,8.825-5.408,11.76-6.24
	c2.52-0.715,4.696-1.51,6.72-2.16c3.23-1.039,6.039-1.791,9.6-2.64c1.454-2.485,1.118-6.153,1.44-10.08
	c0.559-6.808,2.103-12.89,2.16-20.4c0.589-0.936,2.581-1.733,2.88-2.16c-0.408,3.1,0.515,5.725,2.88,5.76
	c2.943,0.045,3.647-4.173,5.52-4.8c-1.057,2.957-0.263,5.722,1.92,6c3.147,0.402,4.734-3.763,6-5.76
	c0.797,1.983-0.236,4.64,2.16,5.04c2.374,0.397,4.27-2.91,5.76-5.04c1.741-2.491,3.309-4.753,4.08-6.48
	c17.705-2.434,34.54-6.706,49.92-11.76c1.978-0.649,4.501-1.004,5.76-2.88c-0.861-2.224-4.064-0.107-5.76,0.48
	c-14.46,5.002-31.623,9.32-48.721,11.76c0.248-1.485,1.578-3.013,0.24-4.08c-1.889,0.191-2.322,2.543-2.88,3.84
	c-1.243,2.896-2.683,5.788-4.56,8.4c-0.858,1.194-1.909,2.6-3.36,3.12c-0.09-3.353,1.07-6.041,2.16-8.641
	c0.983-2.346,3.523-4.953,1.439-7.439c-1.76,0.406-2.741,2.365-3.6,3.84c-1.825,3.135-3.17,6.66-5.04,9.84
	c-0.796,1.354-1.957,3.228-3.6,3.36c-0.203-2.394,0.65-4.552,1.439-6.48c0.81-1.976,1.379-3.9,2.16-5.76
	c0.86-2.047,3.48-4.577,1.68-7.2c-2.057,0.422-2.667,2.706-3.6,4.32c-1.863,3.223-3.602,6.848-5.76,10.08
	c-0.978,1.464-1.985,3.441-3.84,3.84c-0.555-4.526,1.53-7.99,3.359-11.28c0.894-1.607,1.827-3.235,2.88-4.8
	c0.847-1.257,2.812-3.125,1.2-4.8c-1.701,0.281-3.041,1.9-4.08,3.12c-3.171,3.724-5.897,8.308-8.16,13.199
	c-1.033-1.018-0.864-3.545-0.72-5.04c0.521-5.389,3.684-9.957,6.72-13.199c1.198-1.279,3.323-2.3,3.36-4.32
	c-1.822-1.473-3.26,1.005-4.32,2.16c-1.115,1.215-2.66,2.558-3.6,3.84c-0.96,1.311-1.241,3.178-2.64,3.84
	c-1.529-2.696-0.938-5.816,0.96-8.16c2.138-2.64,6.906-5.833,9.84-6.96c2.212-0.849,4.516-0.99,6.72-1.68
	c1.872-0.586,3.74-1.418,5.76-2.4c3.615-1.758,7.781-3.361,11.521-5.04c4.761-2.137,11.721-5.104,17.04-7.68
	c1.209-0.585,4.996-1.814,4.56-3.12c-0.645-1.93-5.665,1.119-7.44,1.92c-7.825,3.529-15.48,6.98-23.04,10.32
	c-2.48,1.096-5.199,2.4-7.92,3.36c-2.859,1.008-5.79,1.541-8.4,2.64c-2.628,1.105-4.721,2.448-6.96,4.32
	c-3.141,2.624-6.653,5.244-5.52,10.8c0.349,1.714,1.343,2.711,2.16,4.319c-0.787,3.07-2.087,8.18-0.239,11.04
	c-0.848,7.697-1.675,16.203-2.641,23.04c-9.806-1.979-19.88-4.072-28.32-7.68c-0.599-0.256-1.325-0.429-1.92-0.72
	c-4.349-2.129-11.235-2.791-16.08-4.8c-4.499-1.866-8.36-4.037-12.96-5.521c-1.623,1.057-0.893,3.368-0.72,4.8
	c0.406,3.363,1.184,6.587,1.92,10.08c0.693,3.289,1.895,7.04,1.2,11.28c-1.987,1.668-4.974,1.905-7.92,2.4
	c-2.823,0.474-5.983,0.689-9.12,0.96c-9.973,0.861-20.584,1.938-31.92,1.439c-4.161-0.183-13.862,0.798-14.16-2.88
	c-0.14-1.729,2.87-3.47,4.56-4.32c2.335-1.173,4.577-1.812,6.48-2.399c4.864-1.502,8.861-3.169,13.92-3.84
	c-0.117-4.879,0.074-11.855-0.72-17.28c-0.25-1.705-1.361-3.344,0.48-4.08c0.655-0.262,2.228,1.028,3.36,0.72
	c2.314-0.631,1.985-3.778,2.4-6.72c0.332-2.351,1.322-5.664,1.92-7.68C163.386,369.269,163.336,366.777,165.602,365.745z"/>
<path fill-rule="evenodd" clip-rule="evenodd" fill="#FFFFFF" d="M336.963,405.585c-4.049,4.526-10.215,7.465-16.32,10.8
	c-8.307,4.537-19.532,7.233-30,10.08c1.727-3.314,2.249-7.832,2.88-12.24c4.553,0.098,8.757,0.778,13.2,0.48
	c1.752-0.118,3.524-0.719,5.28-0.961c2.016-0.277,3.951-0.117,5.76-0.479C325.18,411.781,331.422,408.391,336.963,405.585z"/>
</svg>
